<svg width="165" height="18" viewBox="0 0 165 18" fill="none" xmlns="http://www.w3.org/2000/svg">
<path d="M0.958976 10.2792C1.30996 11.5202 2.04954 12.8364 2.77658 13.4882C3.11503 13.7891 3.817 14.2529 4.31841 14.491C5.1332 14.8796 5.23348 14.9674 5.12066 15.1679C4.75714 15.8448 5.23348 16.7724 6.0608 17.0482C6.59982 17.2237 7.35193 17.0858 8.66812 16.5719C12.905 14.9172 15.4371 10.367 14.4092 6.26795C13.5694 2.88345 11.2128 0.752461 8.29207 0.739926C5.3463 0.714855 2.04954 3.23443 1.09686 6.25541C0.720807 7.42119 0.658131 9.21372 0.958976 10.2792ZM3.76686 6.6064C4.43123 5.18992 6.13601 3.82358 7.6277 3.49767C11.1 2.75809 13.256 7.88499 10.9621 11.4575C10.4857 12.2096 9.34502 13.2626 8.56784 13.6763L8.04136 13.9646L7.36446 13.6763C5.79756 13.0119 5.27108 12.6985 4.54404 11.9715C3.57883 11.0063 3.36573 10.3795 3.40334 8.58696C3.42841 7.52147 3.47855 7.22062 3.76686 6.6064Z" fill="black"/>
<path d="M7.33939 9.65252C7.43968 10.8935 7.6277 11.5077 8.0163 11.8462C8.53024 12.2724 9.05672 12.2598 9.52052 11.796C9.99686 11.3197 9.99686 10.9186 9.50798 8.57449C8.78094 5.02703 8.63052 4.63844 7.99122 4.63844C7.38954 4.63844 7.25165 5.15238 7.27672 7.2959C7.28925 8.28618 7.31432 9.33914 7.33939 9.65252Z" fill="black"/>
<path d="M17.8063 12.2845C18.1072 13.3374 18.8969 13.9141 20.0251 13.9141C20.8022 13.9141 23.4472 13.2372 23.9987 12.9112C24.7884 12.4098 24.8762 11.3318 24.1617 10.7301C23.6477 10.2914 23.1965 10.3165 21.592 10.8304L20.2632 11.2691L20.351 10.2412C20.3886 9.67717 20.5515 8.31083 20.6894 7.20773C20.9903 4.83858 21.0404 2.5321 20.8022 1.84267C20.6017 1.25351 20.1629 0.927596 19.7994 1.11562C19.486 1.29112 19.3482 1.71731 19.0348 3.6352C18.8844 4.50013 18.6587 5.70351 18.5208 6.3052C18.1322 8.04759 17.6559 10.9181 17.6684 11.407C17.6684 11.6452 17.7311 12.0463 17.8063 12.2845Z" fill="black"/>
<path d="M25.8413 12.3474C26.2048 13.1246 26.8065 13.4004 27.496 13.112C28.2857 12.7736 28.3233 12.548 28.1102 9.02557C27.9222 5.81656 27.7717 4.37501 27.5461 3.63543C27.2578 2.7329 26.7313 2.5198 26.2926 3.13403C26.0168 3.52262 25.8538 5.32769 25.741 9.27627C25.6909 11.4198 25.7034 12.0466 25.8413 12.3474Z" fill="black"/>
<path d="M30.8805 6.23017C31.1061 7.03242 31.5699 8.16059 32.2092 9.42664C32.485 9.96566 32.6981 10.4671 32.6981 10.5548C32.6981 10.6426 32.4724 10.8055 32.2092 10.9183C31.244 11.3195 31.081 12.3599 31.8331 13.2248C32.9989 14.5535 35.0798 14.4533 35.7943 13.0368C35.9572 12.7359 36.0826 12.3097 36.0826 12.0966C36.07 11.4699 35.531 10.1286 34.5407 8.31101C33.0365 5.54073 32.8109 4.76355 33.3374 4.08665C33.7009 3.63538 34.5658 3.62285 35.1048 4.07411C35.5686 4.4627 35.6438 4.4627 36.045 4.06158C36.2957 3.81087 36.3458 3.67299 36.2831 3.34707C36.1578 2.72031 35.8569 2.38186 35.1174 2.04341C33.8513 1.46679 32.5351 1.66735 31.6827 2.59496C30.8303 3.49749 30.5169 4.93904 30.8805 6.23017Z" fill="black"/>
<path d="M38.0506 3.97398C38.3264 4.14947 38.6021 4.18707 39.4295 4.162C40.6579 4.1244 40.5451 3.82355 40.2944 6.64397C39.981 9.97834 39.818 12.7988 39.9058 13.3628C40.0186 14.1526 40.5576 14.6665 41.2721 14.6665C41.924 14.6665 42.4003 14.3281 42.5758 13.7514C42.651 13.5383 42.7387 12.36 42.7889 11.1566C42.8641 8.85017 43.19 4.35003 43.3028 3.99905C43.3404 3.86116 43.5661 3.77341 43.9797 3.72327C45.1956 3.57285 45.7848 3.08398 45.7597 2.24412C45.7347 1.4168 44.9575 1.00313 43.4407 1.00313C42.5633 1.00313 42.0368 1.17863 41.5228 1.64243C41.3724 1.78032 40.7582 2.01848 40.144 2.19398C38.8152 2.54496 38.3765 2.72046 37.9879 3.05891C37.6118 3.38482 37.6369 3.71074 38.0506 3.97398Z" fill="black"/>
<path d="M44.5188 12.385C44.7194 13.0368 45.2333 13.5006 46.023 13.7263C46.8127 13.9519 47.1261 13.9268 50.3602 13.3377C52.253 12.9867 52.6667 12.8112 52.9425 12.2847C53.2558 11.6705 53.1806 11.1816 52.7043 10.7053C52.1903 10.1914 51.8644 10.1663 50.4229 10.5173C48.7181 10.9309 47.2515 11.2067 47.1637 11.1315C47.1011 11.0563 47.2891 9.53952 47.4395 9.01304C47.4771 8.87516 47.7027 8.77487 48.0913 8.72473C48.4173 8.68713 49.207 8.47403 49.8337 8.26093C51.0873 7.84727 51.6263 7.40854 51.6263 6.80685C51.6263 6.41826 50.987 5.76643 50.5984 5.76643C50.4354 5.76643 49.7836 6.07981 49.1318 6.45586C48.4925 6.83192 47.9158 7.1453 47.8657 7.1453C47.8156 7.1453 47.8156 6.9322 47.8657 6.66896C47.9284 6.41826 48.0036 5.8291 48.0537 5.37783L48.1415 4.55051L48.9813 4.4753C49.8212 4.40009 52.1151 3.87361 52.6792 3.61037C52.8547 3.53516 53.0803 3.28446 53.1932 3.05882C53.4689 2.45713 53.2057 1.84291 52.5789 1.62981C52.1653 1.49192 52.0149 1.52953 50.3477 2.19389C49.3574 2.59502 48.4173 2.99615 48.2418 3.10896C48.0663 3.22178 47.7404 3.29699 47.5022 3.27192C47.2766 3.25939 47.0133 3.30953 46.913 3.39727C46.5997 3.64798 44.6316 10.1412 44.4436 11.5326C44.406 11.7708 44.4436 12.1594 44.5188 12.385Z" fill="black"/>
<path d="M55.5372 12.5729C55.6877 12.974 56.1765 13.1495 56.4774 12.8988C56.5902 12.7985 56.7531 12.5478 56.8284 12.3473C57.0164 11.9085 57.4426 9.55192 57.6808 7.64657L57.8562 6.33038L58.1446 6.95714C59.1348 9.13826 60.6892 12.1718 61.0151 12.5478C61.7171 13.3877 62.8453 13.6635 63.5723 13.1746C64.7506 12.3974 65.1267 10.8305 65.4776 5.11446C65.6782 2.09348 65.6657 1.86784 65.4651 1.44165C64.9136 0.263338 63.4093 0.463901 63.0333 1.76756C62.9581 2.00573 62.9079 2.87066 62.9079 3.69798C62.8954 6.0546 62.5946 9.77756 62.4191 9.77756C62.2937 9.77756 61.0277 7.13263 59.7741 4.26207C58.3451 1.01545 58.32 0.965309 57.9064 0.714605C57.3047 0.363619 56.6779 0.438831 56.2016 0.915168C55.7002 1.41658 55.7002 1.49179 55.5122 6.11728C55.3617 9.99065 55.3617 12.1091 55.5372 12.5729Z" fill="black"/>
<path d="M67.032 11.9211C67.3329 12.2095 67.5083 12.2847 67.9596 12.2847C68.436 12.2847 68.5738 12.222 68.8371 11.9086C69.2006 11.4824 69.2507 11.3069 69.4262 9.52692C69.5014 8.79988 69.7271 7.00735 69.9402 5.54073C70.3538 2.49468 70.3914 1.44172 70.1031 1.02806C69.8775 0.702144 69.4137 0.664538 69.1379 0.965383C68.7619 1.40411 67.7465 5.05186 67.0571 8.51157C66.5557 10.9935 66.5557 11.4323 67.032 11.9211Z" fill="black"/>
<path d="M71.5697 10.2416C71.6951 11.9213 71.8831 12.4102 72.4347 12.4102C73.0614 12.4102 73.262 11.7082 73.7133 8.03537L73.8762 6.73171L75.0044 8.2234C77.5616 11.5954 78.7775 12.4352 79.9558 11.6204C80.5449 11.2318 80.8207 10.8182 81.0213 10.0285C81.2218 9.23875 81.5352 6.13002 81.6606 3.63552C81.7609 1.71763 81.648 1.29143 80.9586 0.940448C80.4948 0.702279 80.2817 0.702279 79.7678 0.952983C79.0658 1.2789 78.9279 1.76777 78.8151 4.31242C78.7023 7.05763 78.5894 8.17326 78.439 8.07298C78.3763 8.03537 77.4738 6.96988 76.4459 5.70382C74.1771 2.92101 73.989 2.75805 73.1993 2.75805C72.7104 2.75805 72.5475 2.82073 72.2842 3.0965C72.0962 3.29707 71.8831 3.61045 71.8079 3.82354C71.6826 4.13692 71.4193 7.77213 71.4569 8.58692C71.4569 8.72481 71.5071 9.46438 71.5697 10.2416Z" fill="black"/>
<path d="M83.8793 8.89999C84.3055 10.7176 85.4588 11.8834 87.0382 12.0839C88.204 12.2344 89.821 11.6201 90.9868 10.5672C91.4005 10.1911 91.6136 10.0783 91.7514 10.166C91.8517 10.2287 92.14 10.2789 92.4033 10.2789C93.3309 10.2789 93.8072 9.32619 93.2431 8.61168C92.842 8.11027 89.9213 6.5183 89.3948 6.5183C88.555 6.5183 88.3669 7.11999 88.9812 7.80943C89.1817 8.0476 89.3572 8.2983 89.3572 8.37351C89.3572 8.58661 88.2541 9.30112 87.7652 9.41393C86.775 9.62703 86.2986 8.9376 86.3237 7.33309C86.3488 5.4152 87.0883 3.42211 88.0285 2.73267C88.4421 2.43183 88.6427 2.38169 89.3447 2.38169C90.335 2.38169 90.7862 2.18112 90.8364 1.74239C90.8865 1.34126 90.3224 0.827321 89.633 0.626758C87.7778 0.112815 85.8599 1.19084 84.8445 3.32183C83.9921 5.11436 83.566 7.54619 83.8793 8.89999Z" fill="black"/>
<path d="M102.632 12.7238C102.858 13.6138 103.309 14.04 104.023 14.04C105.189 14.04 105.49 13.2754 105.728 9.55244L105.816 8.27385H106.48C107.884 8.27385 109.464 7.2585 110.228 5.87962C110.554 5.29047 110.592 5.06483 110.604 4.19991C110.604 3.30991 110.554 3.09681 110.191 2.35723C109.426 0.790331 107.985 -0.0745977 106.681 0.251318C105.904 0.439346 105.678 0.577233 104.876 1.31681C104.299 1.85582 104.136 2.1316 103.685 3.25977C102.858 5.34061 102.632 6.63174 102.582 9.71539C102.544 11.1569 102.569 12.5107 102.632 12.7238ZM106.167 4.18737C106.856 2.8461 107.32 2.62047 107.721 3.39765C108.147 4.19991 107.847 5.02723 106.994 5.42836C106.643 5.60385 106.505 5.60385 106.179 5.49103C105.678 5.303 105.678 5.10244 106.167 4.18737Z" fill="black"/>
<path d="M111.657 13.1245C111.808 13.4505 112.209 13.6009 112.522 13.4254C112.861 13.2499 113.174 12.5103 113.801 10.5298C114.102 9.60215 114.352 8.82496 114.352 8.81243C114.365 8.79989 114.954 8.72468 115.656 8.66201C116.371 8.5868 117.06 8.46144 117.185 8.39877C117.474 8.24834 117.461 8.23581 117.687 9.90299C117.9 11.4574 118.401 13.6134 118.627 13.9519C118.865 14.3154 119.329 14.541 119.83 14.541C120.319 14.541 121.071 13.839 121.071 13.3752C121.071 13.1997 120.908 12.3724 120.708 11.52C120.495 10.6676 120.156 8.74975 119.943 7.2706C119.153 1.84286 118.339 0.000183098 116.709 0.000183098C115.644 0.000183098 115.092 0.526662 114.177 2.40694C113.701 3.35962 113.024 5.2399 112.472 7.12018C112.447 7.20792 112.322 7.3082 112.209 7.35835C111.545 7.59651 111.369 8.09792 111.808 8.53665C112.071 8.79989 112.071 8.81243 111.87 10.0785C111.595 11.8083 111.519 12.7986 111.657 13.1245ZM115.593 5.29004C116.233 3.84849 116.521 3.38469 116.609 3.64793C116.734 3.98638 117.035 5.32764 117.123 5.87919C117.21 6.39314 117.198 6.43074 116.947 6.35553C116.722 6.30539 116.371 6.34299 115.33 6.58116C115.18 6.61877 115.054 6.61877 115.054 6.58116C115.054 6.54356 115.305 5.96694 115.593 5.29004Z" fill="black"/>
<path d="M122.3 13.2874C122.425 13.5507 122.701 13.8139 122.977 13.9518C123.39 14.1524 123.478 14.1649 123.867 13.9894C124.506 13.7262 124.706 13.325 124.869 11.9838C124.945 11.3194 125.045 10.7804 125.095 10.7804C125.133 10.7804 125.998 11.5325 127 12.4601C128.379 13.7387 128.931 14.1649 129.257 14.2276C130.147 14.4031 130.949 13.5632 130.761 12.6607C130.686 12.247 130.548 12.0966 128.805 10.4169C128.204 9.84025 127.715 9.36391 127.715 9.33884C127.715 9.32631 128.053 9.10067 128.454 8.84997C129.332 8.31096 130.084 7.5087 130.485 6.66885C130.698 6.21758 130.773 5.85406 130.773 5.07688C130.786 3.76068 130.36 2.7704 129.395 1.89293C128.003 0.614344 126.123 0.689555 124.606 2.05589L124.092 2.51969L123.892 2.14364C123.741 1.84279 123.616 1.75505 123.328 1.75505C122.613 1.75505 122.575 1.90547 122.325 6.98223C122.024 12.6732 122.024 12.7484 122.3 13.2874ZM125.509 5.97941C125.722 4.85124 125.935 4.39997 126.461 3.96124C126.988 3.53505 127.364 3.54758 127.765 4.01138C128.705 5.13955 128.016 6.35547 125.972 7.13265C125.22 7.42096 125.233 7.45856 125.509 5.97941Z" fill="black"/>
<path d="M132.29 2.4573C132.453 2.57012 133.03 2.72054 133.569 2.80828L134.547 2.95871L134.521 3.39744C134.396 5.1273 134.108 12.5732 134.158 13.0119C134.233 13.8142 134.722 14.2905 135.487 14.2905C135.963 14.2905 136.126 14.2279 136.427 13.9145C136.778 13.551 136.79 13.4883 136.891 11.8086C136.941 10.8684 137.041 8.74997 137.104 7.09532C137.166 5.45321 137.279 4.04927 137.342 3.98659C137.417 3.91138 138.332 3.79857 139.385 3.71082C141.403 3.54786 141.754 3.43504 141.992 2.9211C142.306 2.2442 142.068 1.54223 141.403 1.20378C140.914 0.953075 137.818 0.852793 135.236 0.990681C133.005 1.11603 132.265 1.24138 132.077 1.52969C131.889 1.84307 131.977 2.25674 132.29 2.4573Z" fill="black"/>
<path d="M141.717 13.5257C142.206 14.0146 142.607 14.1023 143.171 13.8641C144.036 13.5131 144.073 13.3 144.312 8.17315C144.55 3.32203 144.512 2.19386 144.111 1.69245C143.597 1.02808 143.146 1.37907 142.77 2.75794C142.444 3.89865 141.516 10.254 141.416 11.9337L141.341 13.1496L141.717 13.5257Z" fill="black"/>
<path d="M146.154 14.09C146.53 14.5664 147.044 14.792 147.759 14.792C148.436 14.792 152.61 14.0023 153.199 13.7766C154.014 13.4382 154.327 12.31 153.776 11.6206C153.312 11.0189 152.773 10.9813 150.78 11.42C149.814 11.6331 148.987 11.7835 148.949 11.7585C148.924 11.7209 149 11.1066 149.125 10.3921L149.351 9.10101L150.379 8.87538C151.532 8.62467 152.334 8.26115 152.459 7.96031C152.61 7.55918 152.535 7.02017 152.284 6.76946C151.92 6.40594 151.281 6.45608 150.379 6.90735L149.614 7.29594L149.689 6.9951C149.789 6.61904 150.015 4.52566 150.065 3.69834L150.09 3.07158L150.78 2.9713C151.156 2.92116 151.607 2.77073 151.782 2.64538C152.484 2.13144 152.422 1.22891 151.645 0.840314C151.256 0.652286 151.093 0.639751 150.529 0.765103C150.053 0.865384 149.839 0.865384 149.739 0.765103C149.664 0.689892 149.451 0.627216 149.25 0.627216C149 0.627216 148.862 0.727497 148.724 0.990736C148.599 1.21637 148.335 1.42947 147.997 1.56736C147.195 1.88074 146.643 2.34454 146.643 2.69552C146.643 3.07158 147.082 3.38496 147.608 3.38496C147.834 3.38496 148.022 3.4351 148.022 3.49778C148.022 3.83623 147.408 6.60651 146.693 9.42693C145.816 12.9368 145.74 13.5761 146.154 14.09Z" fill="black"/>
<path d="M156.22 10.7051C156.684 11.9586 157.799 13.0868 159.254 13.7512C161.134 14.6161 162.801 13.7261 163.165 11.6578C163.365 10.5547 163.039 8.95018 161.936 5.72864C161.598 4.71328 161.309 3.723 161.309 3.5099C161.309 2.90822 161.773 2.69512 163.127 2.68258C164.644 2.65751 164.556 2.67005 164.719 2.31906C165.233 1.19089 162.4 0.263288 160.708 1.00286C159.73 1.4416 159.304 1.95554 159.066 3.0085C158.915 3.71047 159.04 4.48765 159.742 6.95709C160.156 8.39863 160.344 9.28863 160.394 10.141C160.482 11.4447 160.507 11.4196 159.655 10.7553C159.391 10.5547 159.053 10.1034 158.877 9.71483C158.476 8.87497 158.038 8.52398 157.411 8.52398C156.383 8.52398 155.806 9.57694 156.22 10.7051Z" fill="black"/>
</svg>
