<svg width="166" height="26" viewBox="0 0 166 26" fill="none" xmlns="http://www.w3.org/2000/svg">
<path d="M1.34634 9.52573C1.60051 10.7901 2.2363 12.1594 2.91087 12.8654C3.2251 13.1915 3.88918 13.7081 4.37072 13.9843C5.15309 14.4346 5.2463 14.5298 5.11834 14.721C4.70366 15.3679 5.107 16.3295 5.91057 16.6683C6.43443 16.8848 7.19494 16.8054 8.54688 16.3946C12.8988 15.0718 15.7745 10.7305 15.0661 6.56442C14.4899 3.12519 12.3047 0.818699 9.39373 0.580805C6.45867 0.328478 2.97731 2.58612 1.79434 5.52458C1.32944 6.65785 1.12862 8.4402 1.34634 9.52573ZM4.42929 6.08056C5.20098 4.71958 7.00613 3.48888 8.51852 3.27905C12.0375 2.80964 13.7915 8.08764 11.2287 11.4725C10.6957 12.1856 9.47714 13.1474 8.67035 13.4998L8.1232 13.7467L7.47056 13.407C5.95961 12.6237 5.45888 12.2706 4.79012 11.4896C3.90227 10.4528 3.73818 9.81145 3.914 8.02717C4.02123 6.96679 4.09443 6.67071 4.42929 6.08056Z" fill="black"/>
<path d="M7.75611 9.39341C7.76032 10.6384 7.90039 11.2653 8.2617 11.6328C8.74122 12.0974 9.26709 12.1255 9.76531 11.6989C10.277 11.2607 10.3079 10.8608 10.0014 8.48595C9.55031 4.89296 9.43033 4.49392 8.79294 4.44459C8.19304 4.39815 8.01591 4.89992 7.87548 7.03898C7.81156 8.02728 7.75529 9.07903 7.75611 9.39341Z" fill="black"/>
<path d="M17.9886 12.8253C18.2073 13.8983 18.9502 14.5342 20.075 14.6213C20.8498 14.6812 23.5391 14.2105 24.1142 13.9281C24.9402 13.4891 25.1109 12.4211 24.445 11.766C23.9664 11.289 23.5146 11.2791 21.8752 11.6677L20.5166 12.0026L20.6834 10.9845C20.7644 10.425 21.0323 9.07536 21.2549 7.98619C21.7377 5.64732 21.9657 3.35159 21.7814 2.64583C21.6269 2.04295 21.2146 1.68415 20.8377 1.84357C20.5117 1.99435 20.3413 2.40864 19.8809 4.29662C19.6642 5.14736 19.3463 6.32974 19.1624 6.91899C18.6405 8.6262 17.9441 11.4514 17.9189 11.9398C17.9005 12.1773 17.932 12.582 17.9886 12.8253Z" fill="black"/>
<path d="M25.9948 13.5081C26.2973 14.3111 26.8759 14.6324 27.5855 14.3982C28.399 14.1217 28.4539 13.8996 28.5133 10.3713C28.5735 7.15736 28.5347 5.7085 28.3668 4.95372C28.149 4.03162 27.6406 3.77853 27.1558 4.35707C26.8508 4.72322 26.549 6.51033 26.1318 10.4384C25.9164 12.5717 25.8806 13.1975 25.9948 13.5081Z" fill="black"/>
<path d="M31.491 7.79789C31.6541 8.61516 32.0294 9.77576 32.5691 11.0874C32.8025 11.6461 32.9762 12.1624 32.9695 12.2499C32.9627 12.3374 32.7252 12.4825 32.454 12.5746C31.4607 12.9001 31.2179 13.9248 31.9011 14.8452C32.9608 16.2599 35.0432 16.3205 35.8649 14.9634C36.0506 14.676 36.2084 14.2608 36.2249 14.0483C36.2608 13.4225 35.8269 12.0436 34.9798 10.155C33.6939 7.2769 33.5289 6.48462 34.106 5.85037C34.5033 5.4285 35.3666 5.48275 35.8692 5.97427C36.3016 6.39749 36.3766 6.4033 36.8075 6.03432C37.0768 5.80371 37.1374 5.67011 37.1001 5.34033C37.0235 4.70576 36.7496 4.34511 36.0384 3.95059C34.8206 3.27799 33.4929 3.37638 32.5714 4.23544C31.6519 5.0695 31.2282 6.48256 31.491 7.79789Z" fill="black"/>
<path d="M38.814 6.10179C39.0754 6.29804 39.3474 6.35682 40.1742 6.39567C41.4019 6.45298 41.3126 6.14432 40.845 8.93699C40.2753 12.2372 39.8951 15.0367 39.9391 15.6058C39.9906 16.4019 40.4884 16.9559 41.2007 17.011C41.8506 17.0613 42.3517 16.7607 42.5711 16.1993C42.6626 15.9927 42.841 14.8246 42.9838 13.6287C43.2368 11.3349 43.909 6.87335 44.0486 6.53211C44.0967 6.39754 44.3285 6.32747 44.7448 6.3094C45.9687 6.25326 46.5938 5.81131 46.6336 4.97202C46.6725 4.14523 45.9295 3.67283 44.4173 3.55578C43.5424 3.48806 43.004 3.6224 42.4558 4.04516C42.2952 4.17103 41.6644 4.36108 41.0385 4.48865C39.6866 4.73605 39.2356 4.87716 38.8221 5.18461C38.422 5.48054 38.4218 5.80741 38.814 6.10179Z" fill="black"/>
<path d="M44.6137 14.987C44.7634 15.6523 45.24 16.1544 46.01 16.4403C46.7799 16.7262 47.0943 16.7254 50.3642 16.3876C52.2785 16.1837 52.7044 16.0407 53.02 15.5371C53.3799 14.9488 53.3426 14.4556 52.9044 13.944C52.4317 13.3919 52.1087 13.3417 50.6444 13.5804C48.9127 13.8613 47.4292 14.0231 47.3475 13.9413C47.2908 13.8615 47.5954 12.3638 47.786 11.8505C47.8341 11.7159 48.0668 11.6333 48.4581 11.6133C48.7859 11.601 49.5897 11.4494 50.2311 11.2853C51.5128 10.9697 52.0841 10.5738 52.1305 9.97394C52.1605 9.5865 51.5734 8.88728 51.186 8.85729C51.0235 8.84472 50.3494 9.10686 49.6705 9.43149C49.0041 9.75709 48.405 10.025 48.355 10.0212C48.305 10.0173 48.3215 9.80484 48.3918 9.54625C48.4736 9.30113 48.5941 8.71954 48.6789 8.27349L48.8302 7.4554L49.6734 7.44523C50.5165 7.43505 52.8443 7.08717 53.427 6.86825C53.6078 6.80681 53.8521 6.57426 53.982 6.35801C54.3033 5.7794 54.0883 5.14669 53.4798 4.88586C53.0781 4.71646 52.9252 4.74234 51.2117 5.27607C50.1934 5.59958 49.2251 5.92695 49.0414 6.02589C48.8578 6.12483 48.527 6.17466 48.2915 6.13129C48.0675 6.10138 47.8012 6.13105 47.6944 6.2108C47.3626 6.43657 44.8994 12.7586 44.6045 14.1313C44.5487 14.3659 44.5562 14.7562 44.6137 14.987Z" fill="black"/>
<path d="M55.5848 16.0247C55.7038 16.4362 56.1777 16.6489 56.497 16.4222C56.6172 16.3309 56.799 16.0935 56.8895 15.8994C57.1108 15.4765 57.7176 13.1598 58.1021 11.2785L58.3787 9.97975L58.6178 10.6269C59.4368 12.8779 60.7524 16.0224 61.0483 16.4224C61.6834 17.314 62.7869 17.676 63.5495 17.2447C64.7843 16.5607 65.2801 15.0275 66.0712 9.35562C66.5043 6.35912 66.5092 6.1332 66.3421 5.69279C65.8831 4.47543 64.3679 4.55931 63.8924 5.83007C63.799 6.06172 63.6823 6.9202 63.6184 7.74506C63.4241 10.0937 62.8368 13.7823 62.6619 13.7688C62.5369 13.7591 61.4787 11.0244 60.4505 8.06562C59.2762 4.7184 59.2551 4.66648 58.862 4.3846C58.2892 3.98822 57.6585 4.01484 57.1469 4.453C56.6083 4.91422 56.6024 4.9892 56.058 9.58639C55.6091 13.4366 55.4456 15.5487 55.5848 16.0247Z" fill="black"/>
<path d="M67.0956 16.2621C67.3733 16.5728 67.5425 16.6613 67.9924 16.6961C68.4673 16.7329 68.6096 16.681 68.8962 16.3889C69.2916 15.992 69.3551 15.8209 69.6674 14.0598C69.7985 13.3407 70.1618 11.5709 70.4875 10.1251C71.135 7.12009 71.2537 6.07317 70.9982 5.63849C70.7984 5.29614 70.3389 5.22285 70.0407 5.50152C69.6319 5.90992 68.3381 9.46843 67.3837 12.8646C66.6923 15.3005 66.6584 15.7379 67.0956 16.2621Z" fill="black"/>
<path d="M71.7494 14.9376C71.7447 16.6219 71.8945 17.1239 72.4444 17.1664C73.0693 17.2148 73.3234 16.5304 74.0568 12.9034L74.3199 11.6162L75.3295 13.1905C77.6189 16.7497 78.7663 17.6809 80.004 16.9595C80.6214 16.6175 80.9283 16.2264 81.1892 15.4545C81.4501 14.6826 82.0025 11.6073 82.3199 9.12994C82.5679 7.22551 82.4883 6.79188 81.828 6.38874C81.384 6.11549 81.1715 6.09904 80.6398 6.30934C79.9148 6.58011 79.7396 7.05688 79.4307 9.58523C79.1064 12.3135 78.9078 13.4171 78.7656 13.3056C78.706 13.2632 77.8883 12.1313 76.9612 10.7897C74.9139 7.84005 74.739 7.66307 73.9516 7.60212C73.4642 7.56439 73.2969 7.61431 73.0132 7.86894C72.8102 8.0544 72.5736 8.3504 72.4821 8.55706C72.333 8.85983 71.79 12.4639 71.7646 13.2791C71.754 13.4166 71.7469 14.1579 71.7494 14.9376Z" fill="black"/>
<path d="M84.1258 14.55C84.4105 16.3951 85.4703 17.6464 87.0296 17.9683C88.1803 18.2082 89.8399 17.7206 91.0834 16.7607C91.5249 16.4177 91.746 16.3217 91.8768 16.4198C91.9719 16.49 92.2555 16.5623 92.5179 16.5826C93.4428 16.6542 93.9912 15.7411 93.4839 14.9852C93.1227 14.4543 90.3336 12.6417 89.8087 12.6011C88.9713 12.5363 88.7374 13.1217 89.2966 13.8564C89.4782 14.1094 89.6338 14.3729 89.628 14.4479C89.6116 14.6603 88.4566 15.2876 87.9605 15.3623C86.9567 15.4984 86.535 14.7742 86.6838 13.1764C86.8568 11.2662 87.748 9.33613 88.7385 8.72131C89.1742 8.45328 89.378 8.41877 90.0779 8.47294C91.0652 8.54936 91.5306 8.38422 91.6145 7.95067C91.6954 7.55461 91.1727 6.99867 90.5008 6.7455C88.6908 6.08992 86.6954 7.01672 85.5186 9.06299C84.5305 10.7844 83.9179 13.1761 84.1258 14.55Z" fill="black"/>
<path d="M102.527 19.8093C102.684 20.7141 103.101 21.1738 103.813 21.2289C104.975 21.3189 105.334 20.5798 105.859 16.8863L106.045 15.6183L106.708 15.6696C108.107 15.7779 109.761 14.8875 110.629 13.5717C111 13.0095 111.055 12.7874 111.134 11.926C111.203 11.0387 111.169 10.8224 110.864 10.0569C110.222 8.43569 108.852 7.46209 107.527 7.68643C106.737 7.81392 106.502 7.93398 105.645 8.60944C105.028 9.10235 104.845 9.36473 104.308 10.4547C103.322 12.4655 102.998 13.7354 102.71 16.806C102.561 18.2403 102.481 19.592 102.527 19.8093ZM106.711 11.5711C107.502 10.287 107.981 10.0979 108.321 10.9037C108.684 11.7364 108.321 12.5381 107.44 12.8722C107.076 13.0201 106.939 13.0095 106.623 12.8718C106.137 12.6457 106.153 12.4457 106.711 11.5711Z" fill="black"/>
<path d="M111.495 20.9052C111.62 21.2418 112.008 21.4227 112.334 21.2719C112.685 21.123 113.055 20.4099 113.832 18.4836C114.204 17.5819 114.514 16.8264 114.515 16.8139C114.528 16.8024 115.121 16.7729 115.826 16.7646C116.544 16.7447 117.241 16.6729 117.371 16.6201C117.67 16.4924 117.659 16.4789 117.755 18.1586C117.848 19.7247 118.181 21.9131 118.38 22.2679C118.589 22.6487 119.034 22.9095 119.534 22.9482C120.022 22.9859 120.826 22.3441 120.862 21.8816C120.875 21.7067 120.776 20.8692 120.642 20.0039C120.496 19.1376 120.306 17.1993 120.208 15.7081C119.839 10.2356 119.169 8.33559 117.544 8.20983C116.482 8.12761 115.892 8.60995 114.834 10.414C114.286 11.3271 113.466 13.1495 112.771 14.9816C112.739 15.0672 112.606 15.1575 112.49 15.1988C111.809 15.385 111.595 15.8713 111.999 16.3426C112.241 16.6254 112.24 16.6379 111.943 17.8847C111.534 19.5881 111.383 20.5696 111.495 20.9052ZM116.024 13.3978C116.773 12.0099 117.096 11.5697 117.163 11.839C117.262 12.1861 117.458 13.5466 117.503 14.1032C117.551 14.6224 117.536 14.6589 117.291 14.5646C117.07 14.4972 116.718 14.5076 115.662 14.6648C115.509 14.6907 115.384 14.681 115.387 14.6435C115.39 14.606 115.684 14.0504 116.024 13.3978Z" fill="black"/>
<path d="M122.093 21.8891C122.198 22.1612 122.452 22.445 122.717 22.6037C123.114 22.8356 123.2 22.8549 123.601 22.7099C124.259 22.4968 124.49 22.1123 124.756 20.7876C124.882 20.1311 125.023 19.6014 125.073 19.6053C125.111 19.6082 125.915 20.4248 126.844 21.427C128.12 22.8082 128.637 23.2757 128.957 23.3633C129.831 23.607 130.695 22.8315 130.577 21.9172C130.534 21.499 130.408 21.3383 128.801 19.5292C128.245 18.9078 127.795 18.3952 127.797 18.3702C127.798 18.3577 128.153 18.1589 128.572 17.9399C129.488 17.4702 130.3 16.7283 130.765 15.922C131.012 15.4885 131.115 15.1318 131.175 14.357C131.289 13.0457 130.941 12.0255 130.046 11.0761C128.758 9.69397 126.877 9.62385 125.259 10.8691L124.711 11.2918L124.54 10.9014C124.413 10.5898 124.295 10.4927 124.008 10.4704C123.295 10.4153 123.246 10.5624 122.605 15.6046C121.865 21.2554 121.86 21.3304 122.093 21.8891ZM125.856 14.8505C126.156 13.7422 126.403 13.3087 126.962 12.9119C127.52 12.5276 127.894 12.5691 128.258 13.0625C129.108 14.2599 128.327 15.4189 126.23 16.0361C125.458 16.2655 125.467 16.304 125.856 14.8505Z" fill="black"/>
<path d="M132.89 11.8622C133.043 11.9873 133.607 12.1817 134.137 12.3108L135.1 12.5363L135.042 12.9717C134.783 14.6868 133.921 22.0882 133.937 22.5295C133.95 23.3352 134.401 23.8478 135.163 23.9068C135.638 23.9436 135.806 23.8937 136.13 23.6044C136.508 23.2691 136.525 23.2076 136.755 21.5406C136.877 20.6071 137.141 18.5027 137.331 16.8579C137.52 15.2255 137.741 13.8344 137.808 13.7768C137.889 13.7076 138.81 13.6658 139.867 13.6595C141.891 13.6528 142.25 13.5674 142.527 13.0734C142.892 12.4227 142.708 11.7044 142.072 11.3157C141.604 11.028 138.525 10.6891 135.94 10.6273C133.705 10.5801 132.958 10.648 132.749 10.9209C132.537 11.2189 132.593 11.6381 132.89 11.8622Z" fill="black"/>
<path d="M141.434 23.625C141.884 24.1501 142.277 24.2686 142.857 24.0746C143.747 23.7914 143.801 23.5819 144.434 18.4887C145.046 13.6704 145.095 12.5427 144.734 12.0118C144.273 11.3098 143.796 11.6249 143.315 12.9706C142.902 14.0828 141.486 20.3476 141.257 22.0145L141.088 23.221L141.434 23.625Z" fill="black"/>
<path d="M145.814 24.5304C146.153 25.0344 146.648 25.299 147.36 25.3541C148.035 25.4064 152.258 24.9411 152.862 24.7616C153.701 24.4871 154.1 23.3865 153.604 22.6565C153.188 22.0208 152.653 21.9417 150.632 22.2254C149.653 22.3633 148.817 22.4495 148.781 22.4216C148.759 22.3821 148.882 21.7755 149.062 21.0728L149.386 19.803L150.429 19.6573C151.598 19.4964 152.426 19.1959 152.574 18.9056C152.755 18.5173 152.721 17.9741 152.491 17.7048C152.156 17.3143 151.515 17.3149 150.581 17.6952L149.788 18.0236L149.886 17.7295C150.015 17.3623 150.402 15.2925 150.516 14.4716L150.589 13.8486L151.284 13.8018C151.663 13.7809 152.125 13.6657 152.309 13.5543C153.049 13.096 153.056 12.1914 152.311 11.7439C151.938 11.5265 151.777 11.5014 151.205 11.5829C150.722 11.6461 150.509 11.6296 150.417 11.5219C150.348 11.4411 150.14 11.3622 149.94 11.3467C149.69 11.3274 149.545 11.4167 149.387 11.6685C149.245 11.8838 148.966 12.076 148.618 12.1873C147.794 12.4379 147.208 12.8577 147.181 13.2076C147.152 13.5826 147.565 13.9289 148.09 13.9695C148.315 13.9869 148.499 14.0514 148.494 14.1139C148.468 14.4514 147.642 17.166 146.712 19.9228C145.566 23.3545 145.442 23.9861 145.814 24.5304Z" fill="black"/>
<path d="M156.111 21.9325C156.477 23.2181 157.502 24.429 158.901 25.2036C160.709 26.211 162.44 25.4523 162.962 23.4182C163.247 22.3339 163.046 20.709 162.194 17.412C161.935 16.3735 161.724 15.364 161.741 15.1515C161.787 14.5516 162.266 14.3749 163.617 14.4669C165.131 14.559 165.043 14.5647 165.232 14.2273C165.832 13.1422 163.079 11.9987 161.334 12.6055C160.326 12.9675 159.861 13.447 159.542 14.4784C159.338 15.1667 159.403 15.9512 159.913 18.4675C160.214 19.9366 160.332 20.8385 160.317 21.6922C160.304 22.9988 160.331 22.9757 159.532 22.2475C159.285 22.0273 158.982 21.5512 158.837 21.1502C158.502 20.2819 158.092 19.8981 157.467 19.8498C156.442 19.7704 155.786 20.7758 156.111 21.9325Z" fill="black"/>
</svg>
