<svg width="77" height="24" viewBox="0 0 77 24" fill="none" xmlns="http://www.w3.org/2000/svg">
<path d="M0.6379 12.2843C0.761366 13.4505 1.39128 15.0583 2.10996 16.0066C2.81711 16.9414 4.2164 18.0304 5.29009 18.453C6.0456 18.7629 6.43014 18.8304 8.16733 18.9648C10.8428 19.1594 12.3081 18.9082 13.9651 17.9677C15.7413 16.9485 16.8552 15.7146 17.6406 13.8518C18.0872 12.7925 18.2915 9.66517 17.9961 8.28445C17.6767 6.72586 17.23 5.83635 16.1923 4.62448C14.1754 2.25558 11.4234 1.26305 8.42644 1.81059C6.565 2.14427 5.30047 2.72532 4.06071 3.79862C3.46824 4.30596 2.76991 5.04398 2.50246 5.41303C1.83671 6.37989 1.20337 7.90246 0.863297 9.37228C0.522252 10.8546 0.508709 11.0296 0.6379 12.2843ZM3.64377 9.18517C4.34466 7.11464 5.60289 5.64044 7.23759 4.98747C10.507 3.68151 13.8329 4.89447 14.941 7.79652C15.5142 9.32447 15.3831 11.9923 14.6374 13.3427C14.1255 14.2712 12.9425 15.2609 11.8155 15.6891C10.4049 16.2086 7.65431 16.1717 6.32784 15.6038C5.82801 15.4017 5.3464 15.289 4.91954 15.2811C4.34173 15.2741 4.23216 15.2279 4.04097 14.9365C3.00532 13.3728 2.87741 11.4518 3.64377 9.18517Z" fill="black"/>
<path d="M5.12416 13.4487C5.36228 14.1084 5.91098 14.6538 6.54732 14.879C7.47684 15.215 8.43264 14.8867 9.48969 13.8998L10.2082 13.2262L10.8039 13.9764C11.5015 14.8727 11.9263 15.0691 12.4293 14.7434C12.6937 14.5753 12.8082 14.3955 12.8632 14.0101C12.9384 13.5255 12.8942 13.4467 12.1025 12.4676L11.2647 11.4346L11.3672 10.1099C11.4494 9.04756 11.4208 8.6053 11.2365 7.89954C10.869 6.47552 10.0445 5.59448 9.00722 5.51419C8.14487 5.44744 7.48717 5.66056 6.78891 6.23515C6.22531 6.69443 6.13968 6.8261 6.14912 7.19144C6.15462 7.77021 6.4036 7.80206 7.24506 7.32656C7.86245 6.9846 8.02976 6.93468 8.57676 7.01474C9.18625 7.09963 9.22277 7.11503 9.44266 7.68525C9.59151 8.03624 9.68256 8.64677 9.68998 9.20055L9.70588 10.1322L9.41271 10.0215C8.70525 9.74039 7.8054 9.67074 7.21406 9.8387C6.41598 10.0787 5.55324 10.8291 5.24427 11.5721C4.90934 12.3257 4.88508 12.8016 5.12416 13.4487ZM7.32456 11.9846C7.5679 11.7646 7.78617 11.706 8.22359 11.7399C8.94846 11.796 8.93395 11.9835 8.15684 12.6022C7.60767 13.0375 7.20863 13.1575 7.02414 12.942C6.85022 12.7525 7.00236 12.2488 7.32456 11.9846Z" fill="black"/>
<path d="M22.8195 14.1898C22.7827 16.9404 22.8782 18.1422 23.1636 18.5163C23.4701 18.9424 23.9633 18.9051 24.2135 18.4341C24.4906 17.9401 24.7576 16.6029 24.8833 14.9782C25.0091 13.3535 25.3919 10.8434 25.6008 10.2561C25.7289 9.90141 25.7519 9.92834 26.1802 11.0553C27.6205 14.8632 29.0918 16.1589 30.6191 14.9444C30.9807 14.6581 31.1962 14.3101 31.5966 13.3605C31.8748 12.6905 32.33 11.6822 32.6004 11.1122C33.0633 10.1674 33.1057 10.1078 33.168 10.4395C33.2025 10.6433 33.2037 12.0893 33.1463 13.6439C32.9878 19.2642 33.2392 20.4026 34.6639 20.5129C35.2013 20.5545 35.3302 20.5141 35.6293 20.223C35.9429 19.9078 35.9766 19.7972 35.9663 19.1175C35.9617 18.6897 35.916 17.8186 35.8529 17.1725C35.8022 16.5274 35.7886 14.7536 35.8326 13.2106C35.9148 10.3629 35.8167 8.38143 35.5527 7.56891C35.2484 6.62755 34.4055 5.98397 33.5931 6.08453C32.3489 6.23968 31.4216 7.33717 29.8809 10.512L29.3276 11.651L29.0577 11.0769C28.9059 10.7634 28.4584 9.72292 28.0666 8.77479C27.1005 6.47465 26.4961 5.83695 25.3933 5.95275C24.7847 6.0188 24.1884 6.57613 23.9034 7.33358C23.2835 9.00805 22.8438 11.7652 22.8195 14.1898Z" fill="black"/>
<path d="M38.3891 8.93248C38.4938 9.04116 38.8264 9.12977 39.1898 9.14533C39.6157 9.16572 39.7868 9.22925 39.7781 9.34174C39.7714 9.42922 39.4564 10.5741 39.0905 11.8911C38.0581 15.4824 37.8154 16.5071 37.7177 17.606C37.6384 18.6308 37.7823 19.3711 38.1829 19.8799C38.5259 20.3214 39.2641 20.6928 39.938 20.7575C41.01 20.8782 43.9211 20.7893 44.3856 20.6366C45.4817 20.2814 45.5835 18.6423 44.531 18.1082C44.1436 17.9148 43.9187 17.8973 42.2285 17.9677C41.2065 18.0143 40.3268 18.0091 40.2932 17.9562C40.2009 17.8485 40.6639 14.7914 40.7851 14.6876C40.8389 14.6415 41.3745 14.5447 41.984 14.4661C43.3051 14.2918 43.7696 13.9757 43.6959 13.3036C43.6078 12.4922 42.7648 12.1755 41.7167 12.5595L41.1859 12.7573L41.3426 10.8961C41.444 9.74728 41.5492 9.03878 41.6242 9.04458C42.2885 9.07085 44.4777 8.88827 44.6989 8.79224C45.3499 8.50316 45.6032 7.50438 45.1381 7.01577C44.7076 6.56754 44.3481 6.502 43.2164 6.66586C41.9704 6.84601 39.8079 7.33241 39.2242 7.56383C38.3155 7.93354 37.9557 8.52175 38.3891 8.93248Z" fill="black"/>
<path d="M47.239 18.5317C47.2058 19.6104 47.2362 20.3545 47.3312 20.5882C47.5934 21.2622 48.4248 21.5655 49.1393 21.2687C49.7759 21.0037 49.9059 20.624 50.0231 18.7849C50.0937 17.8726 50.1642 17.1236 50.2017 17.1266C50.2392 17.1295 50.662 17.5142 51.1656 17.9932C52.1823 18.9897 52.8781 19.5842 54.5118 20.8925C55.4469 21.6438 55.7718 21.8324 56.1592 21.8624C57.1465 21.9388 57.8334 21.0239 57.5195 20.0441C57.3966 19.6825 57.0699 19.3555 55.8965 18.4349C55.0901 17.8067 54.0753 16.9486 53.6419 16.5379L52.8453 15.7847L53.7559 15.39C55.0695 14.8253 55.7908 14.2777 56.2526 13.5088C56.5875 12.9186 56.6395 12.7341 56.6485 11.9678C56.658 10.221 55.5656 8.74084 53.9266 8.31223C53.0518 8.08108 51.5134 8.46491 50.4026 9.17101C50.0718 9.38429 49.7823 9.55047 49.7593 9.52354C49.7362 9.49661 49.6527 9.11297 49.5751 8.65434C49.4974 8.19571 49.3602 7.69476 49.2728 7.52455C49.0749 7.15719 48.6134 7.1089 48.2739 7.43466C48.0296 7.6672 47.9968 7.92869 47.6611 12.2654C47.4667 14.7775 47.273 17.6039 47.239 18.5317ZM51.4368 11.7279C51.9225 11.3003 52.7947 10.9152 53.2071 10.9471C53.5946 10.9771 53.9481 11.4445 53.9153 11.8694C53.8756 12.3818 53.2428 12.7603 51.9072 13.1221C50.3669 13.531 50.3428 13.5165 50.7047 12.7399C50.8693 12.4006 51.1935 11.9479 51.4368 11.7279Z" fill="black"/>
<path d="M58.2366 16.3026C58.3636 18.0726 58.7957 19.313 59.5932 20.2171C60.3331 21.0539 60.9012 21.3493 61.8635 21.4238C63.0133 21.5128 64.0268 21.0884 65.3858 19.9363L66.4342 19.0619L66.3674 19.9242C66.2929 20.8866 66.457 21.5279 66.8587 21.8608C67.2134 22.1522 68.0632 22.218 68.4585 21.9846C69.0518 21.6282 69.1433 21.2581 69.2889 18.4028L69.418 15.7599L70.713 15.923C71.4234 16.0032 72.0194 16.0996 72.0435 16.114C72.0665 16.1409 71.9304 17.4128 71.7354 18.9568C71.5405 20.5007 71.4042 21.936 71.4253 22.1514C71.4579 22.3802 71.6567 22.735 71.8902 22.9668C72.239 23.3333 72.3736 23.3814 72.7899 23.3634C73.0678 23.3472 73.4158 23.2358 73.563 23.1215C74.1506 22.6766 74.2277 22.3306 74.5073 18.7187C74.7375 15.7442 74.7993 15.2712 74.9858 15.1348C75.3186 14.8965 75.7574 14.1007 75.8807 13.4816C76.006 12.8375 75.7708 10.1916 75.5193 9.38007C75.2255 8.46467 74.4143 8.06241 73.5556 8.43599C72.8546 8.72119 72.6745 9.26046 72.4128 11.6667L72.1811 13.849L71.7994 13.9075C71.5821 13.9535 71.0004 13.9965 70.4956 14.0203C69.714 14.0478 69.59 14.0256 69.5901 13.8622C69.5863 13.7487 69.6357 12.9479 69.6909 12.0721L69.8013 10.4839L69.4333 10.0405C68.7876 9.28648 67.7088 9.41672 67.1623 10.3048C66.9901 10.5806 66.8561 11.1738 66.6998 12.3812L66.4923 14.0876L65.6706 15.4447C64.744 17.02 63.5821 18.2251 62.6359 18.5919C62.0916 18.8012 62.0282 18.8089 61.7677 18.6001C61.3871 18.3192 60.9589 17.1922 60.8555 16.2539C60.6267 14.1742 61.7762 10.856 62.6886 10.9266C63.076 10.9566 63.6958 11.5578 64.0205 12.2367C64.3777 12.981 64.6641 13.1792 65.0719 12.9467C66.0826 12.3963 65.3271 9.97416 63.8624 9.08128C62.7926 8.44528 61.7273 8.56398 60.7174 9.42877C59.1545 10.7788 58.0484 13.8615 58.2366 16.3026Z" fill="black"/>
</svg>
