<svg width="76" height="19" viewBox="0 0 76 19" fill="none" xmlns="http://www.w3.org/2000/svg">
<path d="M0.16922 12.1729C0.382318 13.3261 1.13443 14.8805 1.92415 15.7705C2.70133 16.6479 4.18048 17.6257 5.28358 17.9641C6.06076 18.2148 6.44936 18.2524 8.19175 18.2524C10.8743 18.2399 12.3158 17.8764 13.8953 16.8109C15.5875 15.6577 16.6029 14.3415 17.2422 12.4236C17.6057 11.333 17.5681 8.19921 17.167 6.84541C16.7282 5.31612 16.2143 4.46372 15.0861 3.33555C12.8924 1.12936 10.072 0.352176 7.12626 1.12936C5.29612 1.6057 4.0802 2.2826 2.92696 3.44837C2.37541 3.99992 1.73612 4.78964 1.49795 5.17823C0.908796 6.19358 0.394853 7.76048 0.16922 9.25217C-0.0564141 10.7564 -0.0564141 10.9319 0.16922 12.1729ZM2.92696 8.85104C3.46598 6.73259 4.60668 5.16569 6.18612 4.38851C9.34499 2.83415 12.7546 3.78682 14.0833 6.59471C14.7727 8.07386 14.8479 10.7439 14.2086 12.1478C13.7699 13.113 12.6668 14.191 11.5763 14.705C10.2099 15.3317 7.46471 15.5072 6.09837 15.0434C5.58443 14.8805 5.09555 14.8053 4.66936 14.8303C4.09274 14.8679 3.97992 14.8303 3.76682 14.5546C2.61358 13.0754 2.33781 11.1701 2.92696 8.85104Z" fill="black"/>
<path d="M4.73194 12.9874C5.02025 13.6267 5.60941 14.1281 6.26124 14.3036C7.21391 14.5668 8.14152 14.1657 9.11926 13.1002L9.78363 12.3732L10.4355 13.0752C11.2001 13.915 11.6388 14.078 12.1152 13.7145C12.3659 13.5264 12.4662 13.3384 12.4912 12.9498C12.5288 12.4609 12.4787 12.3857 11.6138 11.4707L10.6987 10.5054V9.17671C10.6987 8.11122 10.636 7.67249 10.3979 6.98305C9.92152 5.59165 9.03152 4.77686 7.9911 4.77686C7.12617 4.77686 6.48687 5.0401 5.83504 5.66686C5.30856 6.16826 5.23335 6.30615 5.27096 6.66967C5.3211 7.24629 5.5718 7.25883 6.37405 6.71981C6.96321 6.33122 7.12617 6.26855 7.67772 6.30615C8.29194 6.34376 8.32955 6.35629 8.59279 6.90784C8.76828 7.24629 8.90616 7.84798 8.95631 8.39953L9.04405 9.32713L8.74321 9.23939C8.01617 9.01375 7.11363 9.01375 6.53701 9.22685C5.75983 9.5277 4.95758 10.3425 4.70687 11.1071C4.4311 11.8843 4.44363 12.3607 4.73194 12.9874ZM6.81279 11.3578C7.03842 11.1197 7.25152 11.0445 7.69025 11.0445C8.41729 11.0445 8.41729 11.2325 7.69025 11.9094C7.17631 12.3857 6.78772 12.5361 6.58715 12.3356C6.39913 12.1601 6.51194 11.6461 6.81279 11.3578Z" fill="black"/>
<path d="M22.4318 12.3608C22.6073 15.106 22.7953 16.2969 23.1087 16.6479C23.4471 17.049 23.936 16.9738 24.1491 16.4849C24.3873 15.971 24.5502 14.6172 24.5502 12.9876C24.5502 11.358 24.7383 8.82591 24.9012 8.22422C25.0015 7.8607 25.0266 7.88577 25.5405 8.97634C27.2704 12.6617 28.8373 13.84 30.2663 12.5113C30.6047 12.1979 30.7928 11.8344 31.1187 10.8566C31.3443 10.1672 31.7204 9.12676 31.946 8.5376C32.3346 7.55986 32.3722 7.49718 32.4599 7.8231C32.5101 8.02366 32.6229 9.46521 32.6856 11.0196C32.9613 16.6353 33.2998 17.751 34.7288 17.751C35.2678 17.751 35.3932 17.7008 35.669 17.3875C35.9573 17.049 35.9823 16.9362 35.9197 16.2593C35.8821 15.8331 35.7692 14.9682 35.6564 14.3289C35.5561 13.6896 35.4057 11.9221 35.3305 10.3803C35.1926 7.53479 34.9419 5.56676 34.616 4.77704C34.2399 3.86197 33.3499 3.28536 32.5477 3.44831C31.3192 3.69902 30.4794 4.86479 29.1883 8.14901L28.7245 9.32732L28.4111 8.77577C28.2356 8.47493 27.7091 7.47211 27.2453 6.55704C26.1046 4.33831 25.4528 3.74916 24.3622 3.94972C23.7605 4.06254 23.209 4.66423 22.9833 5.44141C22.4945 7.15873 22.2688 9.94155 22.4318 12.3608Z" fill="black"/>
<path d="M37.5492 5.91745C37.662 6.01773 38.0005 6.08041 38.364 6.06787C38.7902 6.05534 38.9657 6.10548 38.9657 6.21829C38.9657 6.30604 38.74 7.47181 38.4768 8.81308C37.7247 12.4734 37.5617 13.5138 37.5492 14.6169C37.5492 15.6448 37.7498 16.3718 38.1885 16.8481C38.5646 17.2618 39.3292 17.5752 40.0061 17.5877C41.0841 17.6253 43.9798 17.3119 44.431 17.1239C45.4965 16.6852 45.4714 15.0431 44.3809 14.5918C43.9798 14.4289 43.7541 14.4289 42.0744 14.6294C41.0591 14.7548 40.1816 14.8174 40.144 14.7673C40.0437 14.667 40.2693 11.5834 40.3822 11.4705C40.4323 11.4204 40.9588 11.2825 41.5605 11.1572C42.8641 10.8814 43.3029 10.5304 43.1775 9.86604C43.0271 9.06378 42.1622 8.81308 41.1468 9.27688L40.6329 9.51505L40.6454 7.64731C40.6579 6.49407 40.7081 5.77956 40.7833 5.77956C41.4476 5.75449 43.6162 5.40351 43.8293 5.29069C44.4561 4.95224 44.6316 3.93689 44.1302 3.48562C43.6664 3.07196 43.3029 3.03435 42.1872 3.28506C40.9588 3.56083 38.8403 4.21266 38.2762 4.48844C37.3988 4.92717 37.0854 5.54139 37.5492 5.91745Z" fill="black"/>
<path d="M47.1135 14.8053C47.1636 15.8833 47.2514 16.6229 47.3642 16.8485C47.6776 17.5003 48.53 17.7385 49.2194 17.3875C49.8336 17.0741 49.9339 16.6855 49.9089 14.8429C49.9089 13.9278 49.9214 13.1757 49.959 13.1757C49.9966 13.1757 50.4479 13.5267 50.9869 13.9654C52.0774 14.8805 52.817 15.4195 54.5469 16.5978C55.5372 17.2747 55.8756 17.4377 56.2642 17.4377C57.2545 17.4377 57.8687 16.4724 57.4801 15.5198C57.3297 15.1688 56.9787 14.8679 55.7377 14.0406C54.8853 13.4765 53.8073 12.6994 53.3435 12.3233L52.4911 11.6339L53.3686 11.1701C54.6346 10.5057 55.3115 9.904 55.7127 9.10175C56.001 8.48752 56.0386 8.2995 55.9884 7.53485C55.8631 5.79246 54.6597 4.40105 52.9925 4.1002C52.1025 3.93725 50.5983 4.43865 49.5453 5.22837C49.232 5.46654 48.9562 5.65457 48.9311 5.6295C48.906 5.60443 48.7932 5.22837 48.6804 4.7771C48.5676 4.32584 48.3921 3.83696 48.2918 3.67401C48.0662 3.32302 47.6024 3.31049 47.289 3.66147C47.0634 3.91218 47.0508 4.17541 47.0508 8.52513C47.0508 11.0447 47.0759 13.8777 47.1135 14.8053ZM50.7738 7.69781C51.2251 7.234 52.0649 6.78274 52.4786 6.78274C52.8672 6.78274 53.2558 7.22147 53.2558 7.64766C53.2558 8.16161 52.6541 8.5878 51.3504 9.05161C49.8462 9.57809 49.8211 9.56555 50.122 8.7633C50.2598 8.41231 50.5482 7.93597 50.7738 7.69781Z" fill="black"/>
<path d="M57.9063 11.7342C58.1695 13.4892 58.696 14.6925 59.5609 15.5324C60.3632 16.3096 60.9523 16.5603 61.9175 16.5603C63.0708 16.5603 64.0485 16.0589 65.3146 14.8054L66.2923 13.8527V14.7176C66.2923 15.6828 66.5054 16.3096 66.9316 16.6104C67.3077 16.8737 68.1601 16.8737 68.5361 16.6104C69.1002 16.2093 69.1629 15.8332 69.0877 12.9752L69.0125 10.3303L70.3161 10.393C71.0306 10.418 71.6323 10.4682 71.6574 10.4807C71.6824 10.5058 71.6448 11.7844 71.5696 13.3387C71.4944 14.8931 71.4693 16.3347 71.507 16.5478C71.5571 16.7734 71.7827 17.1118 72.0334 17.3249C72.4095 17.6634 72.5474 17.701 72.961 17.6509C73.2368 17.6132 73.5753 17.4754 73.7132 17.35C74.2647 16.8611 74.3148 16.5102 74.3148 12.8875C74.3148 9.9041 74.3399 9.42776 74.5154 9.27734C74.8288 9.0141 75.2048 8.18678 75.2801 7.56002C75.3553 6.90819 74.9165 4.28833 74.6031 3.49861C74.2396 2.60861 73.3998 2.27016 72.5724 2.7089C71.8955 3.04735 71.7577 3.59889 71.6824 6.01819L71.6198 8.21185L71.2437 8.29959C71.0306 8.36227 70.454 8.45002 69.9526 8.51269C69.1754 8.60044 69.0501 8.5879 69.0375 8.42495C69.025 8.31213 69.0125 7.50988 68.9999 6.63241L68.9874 5.04044L68.5863 4.62678C67.8843 3.92481 66.8188 4.13791 66.3425 5.06551C66.192 5.35382 66.1043 5.95551 66.0416 7.17143L65.9664 8.88875L65.2519 10.3052C64.4496 11.9473 63.3841 13.2385 62.4691 13.6772C61.9426 13.9279 61.8799 13.9404 61.6041 13.7524C61.203 13.5017 60.6891 12.4111 60.5136 11.4835C60.125 9.42776 61.015 6.03072 61.9301 6.03072C62.3187 6.03072 62.983 6.58227 63.3591 7.2341C63.7727 7.94861 64.0736 8.1241 64.4622 7.86086C65.4274 7.2341 64.4872 4.87748 62.9579 4.1003C61.8423 3.54875 60.7894 3.74932 59.8492 4.68946C58.3951 6.15608 57.5302 9.31495 57.9063 11.7342Z" fill="black"/>
</svg>
