<svg width="151" height="58" viewBox="0 0 151 58" fill="none" xmlns="http://www.w3.org/2000/svg">
<path d="M0.191408 43.3106C0.913093 43.5708 4.36115 40.8572 7.36817 37.6851C12.7675 31.9852 16.4427 26.1367 19.0087 19.1606L19.6903 17.3019L19.6502 23.3115C19.6235 26.6199 19.6636 30.9939 19.7437 33.0385C19.8239 35.083 19.9442 38.6516 20.0244 40.9687C20.3719 51.9719 20.4922 53.5703 20.9065 53.719C21.5212 53.942 21.8821 52.071 22.6171 44.7479C23.3789 37.2886 23.4992 33.5589 23.5126 17.7976C23.5126 10.3382 23.566 4.13031 23.6462 3.60989C23.713 3.10186 23.8066 2.39557 23.8467 2.06102C24.0605 0.450191 22.4568 -0.553478 21.0668 0.326281C20.265 0.82192 19.7437 2.0858 18.1667 7.20327C15.721 15.1954 12.9412 23.2 11.5379 26.2854C9.37285 31.0311 6.03172 36.3592 3.13161 39.6676C2.69058 40.1757 1.79515 41.0926 1.15366 41.7245C-0.0224252 42.8645 -0.209529 43.1619 0.191408 43.3106Z" fill="black"/>
<path d="M27.7224 36.446C28.0565 39.0605 28.3505 40.2252 29.0321 41.5758C29.9676 43.4469 31.1972 44.3886 32.7073 44.4134C34.7388 44.4506 36.3559 42.976 39.5366 38.2303C41.0602 35.9627 41.5413 35.3556 41.3676 35.9008C40.7394 37.8462 40.6192 39.965 41.0468 41.0926C41.5012 42.3069 42.41 43.038 43.4792 43.038C45.2968 43.038 46.954 40.9067 48.4508 36.6566C48.7314 35.8636 48.9854 35.2069 49.0388 35.2069C49.0789 35.2069 49.2259 35.6654 49.3462 36.2229C49.6269 37.4001 50.3218 39.3703 50.7495 40.1261C51.4044 41.3404 52.2998 41.8856 53.1952 41.6378C54.1708 41.39 54.5851 40.6713 55.4939 37.7718C55.9884 36.1982 56.8972 33.943 57.1244 33.7324C57.1511 33.7076 57.1377 34.2652 57.0977 34.9715C56.8571 38.7879 58.942 41.1917 61.4946 40.0518C62.3098 39.6924 63.526 38.5525 64.368 37.3877L65.0362 36.4708L65.3302 37.2266C66.1989 39.457 67.3215 40.597 68.8986 40.8448C69.6603 40.9563 70.9166 40.6465 71.8922 40.0889C72.7609 39.6057 74.0305 38.4781 74.8458 37.4744C75.1398 37.1151 75.4205 36.8177 75.4739 36.8177C75.5274 36.8177 75.6877 37.0531 75.8481 37.3505C76.2758 38.1683 76.7703 38.6268 77.5855 39.0109C78.5077 39.4198 79.3496 39.4446 80.4455 39.0729C82.1027 38.5277 84.1074 36.8425 85.631 34.7112C87.1011 32.642 88.9988 28.776 90.4155 24.9843C90.6694 24.3028 90.9233 23.6957 90.9768 23.6461C91.0303 23.5965 91.2975 23.9807 91.5648 24.5135C92.9548 27.2643 93.4091 29.6062 93.8635 36.446C94.1576 40.9067 94.3447 42.0219 94.7857 42.0219C94.9862 42.0219 95.0263 41.7617 95.2802 37.747C95.5876 33.1748 95.0663 28.6273 93.8502 25.2074C93.3022 23.6461 92.0861 21.4157 91.5114 20.9201C90.5491 20.0899 89.8943 20.6475 88.7316 23.3116C87.4486 26.2358 86.3794 28.429 85.484 30.0027C82.7576 34.8228 79.5501 37.747 78.3206 36.5327C77.9731 36.1982 77.7993 35.7645 77.5454 34.6741L77.3583 33.8315L77.8795 32.8774C78.1602 32.357 78.6146 31.3657 78.8952 30.6842C80.5658 26.5704 80.7262 24.4515 79.4165 23.2496C78.6279 22.5185 77.7593 22.469 76.797 23.0885C76.2892 23.4107 75.5808 24.8604 75.2334 26.2234C74.9527 27.3634 74.5518 30.5231 74.5518 31.5639C74.5518 32.072 74.4448 32.295 73.6563 33.3854C72.7609 34.6493 70.3286 37.1151 69.6737 37.4373C69.353 37.5983 69.2995 37.5983 69.1258 37.3877C68.8718 37.0531 68.5778 36.0619 68.4174 34.9219C68.11 32.8278 68.2972 27.0288 68.805 22.754C68.952 21.5273 69.1926 19.5199 69.3396 18.3056C69.4866 17.0789 69.6069 15.8274 69.6069 15.5052C69.6069 14.799 69.2728 14.3529 68.6179 14.1422C68.0432 13.9688 67.3349 14.2166 66.9874 14.6998C66.6399 15.1955 65.3035 21.4281 64.8625 24.625L64.7689 25.2569L63.8067 25.3189C62.6439 25.3932 61.7352 25.8021 60.2383 26.9173C57.3649 29.0734 55.4137 31.3285 54.1975 33.9058C53.7031 34.9467 52.9947 37.016 52.8344 37.8957C52.7809 38.1931 52.7007 38.4285 52.6339 38.4285C52.5002 38.4285 51.8988 36.6195 51.6449 35.4547C51.4044 34.3395 51.0702 31.4152 50.9767 29.6805L50.9099 28.429L51.3375 28.2432C52.5002 27.7227 53.0883 26.8554 52.7274 26.1986C52.2731 25.3932 51.5915 25.1702 50.3085 25.418C49.0923 25.6534 47.7558 26.3473 46.6332 27.3386C46.0719 27.8219 45.0161 28.6025 44.281 29.0734C41.6215 30.7833 39.7371 32.7163 37.0241 36.5699C33.83 41.0926 33.2687 41.7989 32.7073 41.96C31.999 42.1706 30.8898 40.2624 30.5156 38.2055L30.422 37.6851L30.7829 37.809C32.0124 38.2427 33.4157 37.4992 34.2443 35.9751C34.7655 35.021 35.26 33.3978 35.4204 32.1091C35.7411 29.6062 34.8457 27.2767 33.3221 26.6447C32.2663 26.1986 31.3575 26.4217 30.3151 27.4006C29.2459 28.4042 28.4173 30.139 27.9763 32.2702C27.7758 33.2863 27.6288 35.6777 27.7224 36.446ZM30.5156 31.5763C30.7829 30.1266 31.2907 28.9866 31.8654 28.5158C32.4133 28.0697 32.4668 28.0697 32.8143 28.4166C33.2687 28.8875 33.5226 29.4575 33.683 30.4364C33.8701 31.6011 33.6963 33.2243 33.2018 34.6493C32.8143 35.7645 32.4133 36.3592 31.8253 36.6442C31.4511 36.8425 31.3575 36.8425 30.9031 36.6814C30.5022 36.5451 30.3552 36.4088 30.2884 36.1362C30.1414 35.5786 30.275 32.803 30.5156 31.5763ZM43.4925 37.1894C43.9469 35.5167 45.2032 32.8898 46.2991 31.3781C46.8337 30.6222 47.5955 30.0027 47.7826 30.1638C47.8895 30.2753 46.8203 34.0297 46.1387 35.9132C45.7912 36.8549 45.2968 38.0444 45.0161 38.5772C44.4414 39.6552 43.7331 40.6589 43.546 40.6589C43.1183 40.6589 43.0916 38.7011 43.4925 37.1894ZM59.9309 32.8898C60.3319 31.44 60.9333 30.0399 61.5213 29.1849C62.0693 28.4042 63.1251 27.698 63.9537 27.574L64.5283 27.4873V27.9334C64.5283 28.9494 63.5795 32.4685 62.7776 34.4634C61.9089 36.5947 60.5992 38.379 60.1581 38.032C59.4097 37.462 59.3162 35.1078 59.9309 32.8898Z" fill="black"/>
<path d="M97.628 37.422C97.922 37.645 98.1893 37.3972 98.4299 36.6289C98.7907 35.5509 99.5392 31.8708 100.1 28.4013C100.408 26.5799 100.689 24.9566 100.742 24.7956C100.822 24.5601 100.996 24.8451 101.677 26.3692C102.519 28.2526 103.348 30.4582 103.816 32.0443L104.083 32.924L103.549 33.779C102.707 35.1049 101.624 37.2733 101.37 38.1654C100.648 40.5817 101.464 43.2209 103.041 43.5927C103.963 43.8033 104.832 43.4564 105.754 42.5023C106.515 41.7092 107.13 40.5693 107.331 39.5904C107.531 38.6239 107.411 36.5794 107.063 35.0057C106.903 34.3242 106.783 33.6551 106.783 33.5312C106.783 33.3206 108.787 30.3219 108.881 30.3963C108.921 30.4459 109.482 33.1843 109.857 35.1916C110.485 38.5743 110.632 39.0452 111.287 39.5284C111.835 39.9249 112.81 39.8258 113.358 39.3178C113.732 38.9708 113.772 38.8345 113.946 37.4096C114.227 35.1668 114.761 33.3825 115.67 31.7221C116.298 30.5574 117.341 29.2439 117.635 29.2439C117.835 29.2439 118.036 29.9006 118.49 32.2178C118.744 33.4816 119.078 34.8694 119.239 35.3155C120.562 39.1071 123.435 40.4454 125.56 38.2769C126.095 37.7194 126.776 36.4555 127.164 35.2659L127.404 34.5473L127.845 35.3899C129.155 37.9424 131.521 38.5248 133.231 36.7281C133.712 36.22 134.755 34.4234 135.637 32.5895C135.744 32.3541 135.757 32.6391 135.677 33.7666C135.623 34.5844 135.583 40.0489 135.583 45.9098C135.583 56.0332 135.597 56.5908 135.824 56.9254C136.332 57.644 137.494 57.7803 138.256 57.2227C138.951 56.7271 139.018 56.3554 139.125 52.6009C139.192 50.5192 139.325 48.6358 139.446 47.8923C140.809 39.9745 142.266 34.5349 143.762 31.7841C144.591 30.2848 145.66 29.3678 146.395 29.5413C147.558 29.8139 148.56 32.0815 148.707 34.7579C148.841 37.0874 148.186 39.1567 146.943 40.2967C146.328 40.8791 145.994 41.0154 145.246 41.0154C144.431 41.0154 143.709 40.2719 143.241 38.9585C142.693 37.4468 142.212 37.6326 142.359 39.3302C142.573 41.7712 144.845 43.0475 147.117 41.9942C149.817 40.7551 151.541 36.4679 150.846 32.7754C150.552 31.2637 150.151 30.1485 149.603 29.2811C148.988 28.3394 148.48 27.8685 147.638 27.4348C146.663 26.9392 145.286 26.9392 144.177 27.4348C143.362 27.7942 142.199 28.7731 141.557 29.6404C140.943 30.4706 139.927 32.2797 139.379 33.494L138.898 34.5968L138.804 33.556C138.751 32.986 138.657 32.1062 138.59 31.5982C138.524 31.0902 138.403 29.6404 138.323 28.3766C138.243 27.1127 138.123 25.8736 138.056 25.6134C137.895 24.9071 137.454 24.5354 136.813 24.5354C135.904 24.5354 135.69 24.8947 134.888 27.5959C134.1 30.2724 133.498 31.8584 132.59 33.6427C131.935 34.9066 131.347 35.6872 131.039 35.6872C130.799 35.6872 130.05 34.8694 129.797 34.3366C129.649 34.0021 129.556 32.924 129.436 30.1113C129.342 27.6951 129.222 26.2329 129.115 26.0594C128.714 25.3656 127.618 25.254 127.097 25.8612C126.763 26.2577 126.709 26.4683 126.095 29.6776C125.306 33.7914 124.464 36.282 123.635 36.9759C123.382 37.1989 123.341 37.1989 123.021 37.0007C122.219 36.5174 121.577 35.1296 121.163 33.0727C121.056 32.5028 120.842 31.4 120.682 30.6441C120.334 28.8722 119.974 27.9924 119.372 27.3853C118.811 26.8525 117.996 26.5923 117.274 26.7162C116.004 26.9268 114.521 28.3889 113.238 30.6565L112.69 31.6478L112.596 31.0406C112.556 30.6937 112.463 30.1361 112.396 29.8015C112.142 28.4757 111.835 25.8488 111.901 25.4771C111.928 25.2664 112.142 24.6964 112.356 24.2256C113.371 22.0324 114.213 18.9346 114.561 16.1714C114.654 15.4032 114.721 13.3587 114.735 11.4629C114.735 7.02691 114.521 6.23389 113.184 5.61434C112.677 5.36652 112.53 5.35413 112.062 5.46565C110.912 5.75064 110.004 6.77909 109.148 8.77404C107.424 12.7763 106.97 18.6868 107.932 24.8451C108.052 25.5886 108.159 26.3197 108.173 26.4683C108.186 26.7286 105.994 30.2228 105.807 30.2352C105.754 30.2352 105.687 30.1609 105.66 30.0741C105.286 28.9713 104.27 26.5055 103.428 24.7212C101.544 20.7189 101.33 20.4216 100.435 20.4216C99.8733 20.4216 99.459 20.6942 99.1783 21.2394C98.4967 22.5652 97.4409 31.5239 97.4276 36.0714C97.4276 36.9883 97.481 37.2981 97.628 37.422ZM103.776 38.4628C103.963 37.9548 104.27 37.2361 104.471 36.8892L104.832 36.2448L104.925 36.7405C105.099 37.5707 105.059 38.9461 104.845 39.6152C104.644 40.2347 103.949 41.2632 103.722 41.2632C103.335 41.2632 103.375 39.5904 103.776 38.4628ZM111.287 16.568C111.313 16.6547 111.313 16.8034 111.287 16.8777C111.247 16.9645 111.22 16.9025 111.22 16.729C111.22 16.5556 111.247 16.4936 111.287 16.568ZM111.527 13.1357L111.714 11.9585L111.647 13.3215C111.607 14.065 111.527 15.0191 111.474 15.428L111.367 16.1714L111.353 15.2421C111.353 14.7341 111.434 13.78 111.527 13.1357Z" fill="black"/>
<path d="M127.606 21.8443C128.087 22.2532 128.822 22.2284 129.236 21.7823C129.677 21.3239 129.637 20.7911 129.142 20.3326C128.782 20.0104 128.661 19.9609 128.234 20.0228C127.619 20.122 127.271 20.4937 127.271 21.0885C127.271 21.423 127.365 21.6337 127.606 21.8443Z" fill="black"/>
</svg>
