<svg width="249" height="77" viewBox="0 0 249 77" fill="none" xmlns="http://www.w3.org/2000/svg">
<path d="M142.204 52.5707C142.815 53.1521 145.698 52.5409 148.346 51.2737C150.947 50.0364 153.109 48.0388 155.554 44.6398C156.196 43.7603 156.682 43.1789 156.619 43.3428C156.353 44.2522 154.645 51.1396 154.41 52.2129C154.269 52.9136 154.049 53.9124 153.94 54.4491C153.626 55.8951 153.423 56.9834 153.313 57.7288C153.25 58.1015 152.874 60.278 152.451 62.5738C151.417 68.2685 151.37 68.5369 151.182 71.6079C151.026 74.0229 151.041 74.3658 151.276 74.9621C151.605 75.7969 152.154 76.2144 152.953 76.2144C154.253 76.2144 154.864 75.5435 155.319 73.6055C156.697 67.7468 157.105 66.4051 158.719 62.216C159.941 59.0407 161.006 56.5511 162.197 54.0466L163.027 52.3024L163.294 53.4801C164.375 57.9375 167.963 59.9798 171.629 58.2207C175.108 56.5511 177.959 50.4091 177.364 45.8473C176.91 42.3291 175.405 39.8246 173.18 38.8258C172.381 38.468 172.084 38.4233 170.705 38.4233C168.856 38.4382 168.01 38.7065 166.208 39.8246C165.08 40.5253 162.51 42.7913 161.602 43.8944L161.147 44.446L161.194 39.8992L161.257 35.3672L160.787 34.92C160.426 34.5771 160.16 34.4727 159.721 34.4727C158.844 34.4727 158.264 35.1585 156.306 38.5276C154.175 42.1949 151.809 45.8175 150.54 47.353C149.521 48.5754 148.628 49.3059 147.046 50.1706C145.949 50.7669 143.395 51.7657 142.925 51.7657C142.753 51.7657 142.455 51.885 142.267 52.034C141.922 52.3024 141.922 52.3173 142.204 52.5707ZM164.61 49.3357C165.942 47.0549 167.117 45.4448 168.417 44.1329C170.266 42.2546 171.41 41.8968 172.46 42.836C173.651 43.9391 174.23 45.6088 174.23 47.9791C174.23 51.2588 173.212 54.0913 171.426 55.7908C170.533 56.6405 169.78 56.9834 168.809 56.9834C167.289 56.9834 166.161 56.1188 165.049 54.1062C164.516 53.1521 163.748 51.2886 163.732 50.9756C163.732 50.901 164.124 50.1706 164.61 49.3357Z" fill="black"/>
<path d="M178.069 53.9944C178.335 55.2169 179.087 56.2306 179.996 56.5586C182.111 57.3189 184.822 55.2616 187.266 50.998C187.862 49.9693 187.956 49.865 187.862 50.342C187.815 50.6402 187.768 51.7285 187.768 52.7571C187.752 56.484 188.849 58.5413 190.964 58.7649C194.066 59.1078 197.858 53.4727 199.205 46.5108C199.722 43.8721 199.863 42.754 199.973 40.6967L200.083 38.7587L200.584 39.5489C202.402 42.3366 202.715 44.8113 201.947 50.0439C201.274 54.6951 201.399 56.171 202.574 56.8716C203.953 57.6766 205.41 56.7673 207.337 53.8901C207.823 53.1596 208.371 52.3546 208.528 52.0713L208.826 51.5794L209.014 52.3993C209.734 55.6343 212.053 57.3039 214.623 56.4542C216.394 55.8579 218.007 54.5162 219.653 52.28L220.452 51.1918L220.561 52.2651C220.718 53.6665 221.235 55.4405 221.705 56.2157C223.006 58.3326 225.434 58.3773 227.737 56.3349L228.489 55.6641L229.492 55.9921C230.636 56.3499 231.435 56.3051 232.971 55.7685C235.901 54.7696 239.379 51.2812 241.604 47.1518C241.948 46.5108 242.278 45.989 242.34 45.989C242.513 45.989 244.252 50.342 244.941 52.4888C246.445 57.1549 246.43 58.3922 244.831 60.0321C244.205 60.688 243.656 61.0607 242.701 61.493C239.097 63.1627 236.136 63.0285 233.973 61.1054C232.83 60.0917 232.438 60.4793 233.394 61.7017C235.446 64.3553 239.802 64.7876 244.126 62.7453C245.834 61.9552 247.103 60.7924 247.746 59.4507C248.294 58.3326 248.404 56.6033 248.043 54.71C247.573 52.1161 246.132 47.5692 244.502 43.5441L243.844 41.9043L244.079 40.9353C244.549 39.1016 244.69 37.7301 244.612 36.0008C244.534 34.033 244.236 33.0491 243.547 32.5124C242.105 31.3496 240.523 32.2292 239.943 34.51C239.63 35.7176 239.661 38.386 240.006 39.6681L240.288 40.7266L239.88 41.6807C238.407 45.0051 235.446 49.2687 233.08 51.5048C232.124 52.3993 230.981 53.1447 230.808 52.9956C230.777 52.9509 231.247 51.9521 231.858 50.7595C233.08 48.4189 233.785 46.6151 234.381 44.2597C235.148 41.2185 235.07 39.9663 234.067 39.0122C233.566 38.5351 233.472 38.5053 232.736 38.5649C231.764 38.6544 231.106 39.1314 229.962 40.5626C227.455 43.7081 225.857 48.9258 226.374 52.2502L226.515 53.0851L225.559 54.0242C224.98 54.5907 224.51 54.9336 224.353 54.9038C223.664 54.7845 223.241 51.8477 223.491 48.9407C223.711 46.466 224.102 44.6026 224.745 43.1118C225.34 41.6657 225.371 41.0993 224.823 40.488C224.478 40.1004 224.306 40.0259 223.742 40.0259C223.256 40.0259 222.943 40.1153 222.661 40.3539C222.441 40.5477 221.517 42.0981 220.624 43.8274C217.537 49.701 214.56 53.6963 213.354 53.5621C212.053 53.413 211.881 49.9843 212.868 43.4994C213.182 41.3527 213.871 37.9835 214.122 37.2382C214.294 36.7015 214.184 36.7313 217.302 36.463C218.9 36.3288 219.496 36.1499 219.214 35.8965C219.151 35.8219 218.07 35.7921 216.832 35.8219C215.594 35.8368 214.576 35.7921 214.576 35.7325C214.576 35.6579 214.686 35.479 214.811 35.3151C214.936 35.166 215.046 34.7486 215.046 34.4206C215.046 33.6454 214.607 33.0789 213.793 32.8553C213.291 32.7062 213.103 32.7211 212.602 32.9596C211.834 33.3174 211.521 33.7497 211.066 35.0318L210.69 36.0754L210.017 36.1648C209.64 36.2244 208.779 36.3139 208.105 36.3735C207.228 36.448 206.852 36.5375 206.789 36.7015C206.617 37.104 207.087 37.2083 208.732 37.104C209.625 37.0593 210.346 37.0444 210.346 37.0891C210.346 37.1338 209.593 39.2656 208.685 41.8297C206.899 46.8685 205.614 50.193 204.94 51.5048L204.517 52.3248L204.611 51.5794C204.658 51.162 204.846 49.8203 205.018 48.5978C205.394 45.8995 205.41 44.7666 205.097 43.2012C204.501 40.1899 203.044 37.4469 200.443 34.4057C199.221 32.9745 198.861 32.7211 198.062 32.7211C197.545 32.7211 197.31 32.8106 196.996 33.1236C196.777 33.3621 196.542 33.6901 196.495 33.869C196.432 34.0628 196.354 35.5387 196.322 37.1487C196.291 38.7886 196.15 40.8309 196.009 41.7403C195.539 44.8262 193.361 52.5186 192.531 54.0988C191.904 55.2914 191.528 55.7237 191.34 55.5448C190.98 55.202 191.027 52.4142 191.465 48.896C191.7 47.0027 191.904 44.5877 191.92 43.4994C191.935 41.7254 191.904 41.5018 191.606 41.1142C191.434 40.8905 191.011 40.6073 190.698 40.5029C190.18 40.3539 190.024 40.3539 189.428 40.6073C188.598 40.9502 188.426 41.2334 186.53 45.1691C183.851 50.7445 182.158 53.5472 181.203 54.0392C180.717 54.2926 180.513 53.6366 180.545 51.7881C180.56 49.0302 181.767 44.4237 182.989 42.4708C184.211 40.488 185.997 39.7128 187.736 40.3986C188.238 40.6073 188.347 40.6073 188.535 40.4135C188.739 40.2197 188.739 40.1452 188.52 39.8321C187.877 38.8929 185.637 38.5948 184.133 39.2358C183.13 39.683 181.61 41.0843 180.874 42.277C178.805 45.5865 177.474 51.1322 178.069 53.9944Z" fill="black"/>
<path d="M225.544 38.3633C225.669 38.572 225.967 38.8404 226.218 38.9298C227.518 39.4367 228.678 38.0055 227.816 36.962C227.158 36.1719 225.826 36.3806 225.481 37.3198C225.278 37.9012 225.278 37.8863 225.544 38.3633Z" fill="black"/>
<path d="M0.106228 28.0633C0.35692 28.3167 0.654619 28.0782 1.56338 26.8856C3.78827 23.9637 7.10995 21.161 10.8233 19.059C12.0141 18.3882 22.9036 13.096 22.9662 13.1556C22.9976 13.1854 22.9192 13.8115 22.7939 14.542C22.0575 18.9994 21.4621 26.9303 21.4621 32.5804V34.6972L19.6759 35.9644C13.4869 40.392 11.3404 42.9561 11.3717 45.8333C11.4031 47.1452 11.9044 48.2782 12.9229 49.3217C14.427 50.8423 16.3229 51.1554 18.3754 50.1864C22.1202 48.4123 24.5487 44.0891 25.6925 37.0825L25.8805 35.9495L27.3847 34.9209C31.2078 32.3418 35.2815 29.0025 37.1304 26.9601L38.0234 25.9762L38.1175 29.1218C38.2741 34.6078 39.0889 36.9036 41.0631 37.4105C43.4917 38.0366 46.9387 34.3395 49.7903 28.0931C50.3544 26.8409 51.8429 22.9649 51.9682 22.3835C52.0152 22.2046 52.1092 22.0555 52.1719 22.0555C52.3286 22.0555 53.206 23.4121 53.8641 24.6643C54.2401 25.4097 55.1489 27.6012 55.1489 27.795C55.1489 27.8248 54.2401 28.5553 53.1433 29.405C50.7461 31.2536 49.5083 32.5356 48.8972 33.7581C48.0355 35.4575 48.1138 36.7098 49.1479 37.8577C50.4014 39.2441 52.2032 39.5124 54.1304 38.618C55.5719 37.9471 57.1231 36.4713 57.7968 35.1445C58.6899 33.3406 58.9249 31.7902 58.5646 29.7926L58.3922 28.764L59.8023 27.4372C61.3065 26.021 62.9047 24.0979 63.5784 22.8754L64.0014 22.13L64.0955 24.1426C64.2365 26.6918 64.5812 28.6596 65.1922 30.5082C66.0226 32.9978 67.3388 35.1743 67.9969 35.1743C68.4042 35.1743 68.3886 34.9358 67.9185 33.922C66.5554 30.9852 66.1637 26.8409 66.665 20.9821C66.9157 18.0751 67.4955 13.096 67.5738 13.0214C67.6051 12.9916 69.2973 12.5295 71.3342 12.0077C73.3711 11.471 75.2826 10.9343 75.5803 10.8151C76.16 10.5915 76.301 10.3231 75.9407 10.189C75.737 10.1144 71.4909 10.8896 69.0466 11.4561C68.3886 11.6052 67.8402 11.6797 67.8402 11.6201C67.8402 11.5605 68.0125 10.83 68.2319 9.99515C68.4512 9.13051 68.5922 8.32549 68.5296 8.11678C68.4042 7.65464 67.9028 7.29686 67.3701 7.29686C66.618 7.29686 66.289 7.86335 65.6936 10.0697C65.3959 11.2176 65.0669 12.2164 64.9729 12.3059C64.8632 12.3953 63.6254 12.7829 62.1996 13.1556C57.8595 14.3333 57.9692 14.2886 57.9692 14.6315C57.9692 14.9296 58.0318 14.9296 58.9406 14.8551C59.489 14.7954 60.9461 14.5271 62.1996 14.2439C63.4531 13.9606 64.5028 13.7668 64.5342 13.7966C64.7379 13.9755 63.0143 18.2689 61.9489 20.2964C61.0871 21.9362 59.818 23.6953 58.6272 24.888L57.5775 25.9762L57.0447 24.6793C56.136 22.4729 54.0834 19.3274 52.924 18.4031C52.5793 18.1348 52.2816 18.0304 51.7645 18.0304C50.4484 18.0304 50.0723 18.5075 48.8346 21.7723C47.3617 25.6483 45.9203 28.6447 44.3221 31.179C43.3507 32.7294 41.9719 34.5034 41.7525 34.4736C41.1728 34.3842 40.9221 30.1951 41.1884 24.9327C41.3451 21.7424 41.3451 21.2654 41.1258 20.8778C40.7967 20.2666 40.2953 19.9684 39.5746 19.9684C39.0576 19.9684 38.8695 20.0728 38.2428 20.684C37.8511 21.0716 37.005 22.0406 36.3783 22.8307C34.4511 25.2458 30.8631 28.3018 26.805 31.0001L26.2879 31.343L26.3819 29.3454C26.4446 28.2422 26.5543 24.6345 26.6326 21.3101C26.7266 17.9857 26.8676 14.2289 26.9617 12.9618L27.1183 10.6511L28.3561 9.53301C30.205 7.86335 31.3331 6.25332 31.8972 4.4793C32.4455 2.77982 31.8501 1.08034 30.4713 0.334951C29.7349 -0.0526496 28.5598 -0.112278 27.9017 0.200784C26.3193 0.990893 24.8778 3.92771 23.969 8.22114C23.7497 9.24977 24.11 9.01124 17.4667 12.44C12.7349 14.8849 10.3376 16.2564 8.41041 17.6428C4.7127 20.2815 2.00209 23.2034 0.560609 26.0806C0.0278875 27.1241 -0.128796 27.8397 0.106228 28.0633ZM14.7091 44.4916C15.0851 43.7164 15.8528 42.8518 17.0906 41.8082C18.1247 40.9436 20.8197 39.1248 20.9137 39.2292C21.0077 39.3186 20.5377 41.2865 20.1146 42.4493C19.2372 44.9388 17.7017 46.9812 16.3856 47.3986C15.8528 47.5626 15.7432 47.5477 15.3828 47.2943C14.8657 46.9216 14.4114 46.1017 14.4114 45.5352C14.4114 45.2966 14.5524 44.8196 14.7091 44.4916ZM28.2621 4.44948C28.3875 4.06188 28.6225 3.5252 28.7635 3.25687C29.0299 2.77982 29.0612 2.77982 29.1082 3.09288C29.1552 3.40594 28.3248 5.35885 28.1368 5.35885C27.9958 5.35885 28.0271 5.20978 28.2621 4.44948ZM51.7175 34.4438C52.2659 33.6686 54.2871 31.835 55.4466 31.0598L55.8226 30.8063L55.7443 32.0735C55.6973 33.1021 55.6032 33.4599 55.2585 34.0264C54.3341 35.5321 53.0493 36.516 52.0152 36.516C50.8871 36.516 50.7774 35.7855 51.7175 34.4438Z" fill="black"/>
<path d="M35.4852 13.6327C35.7359 13.8861 36.0336 14.0054 36.4253 14.0054C36.817 14.0054 37.1147 13.8861 37.3654 13.6327C37.6317 13.3942 37.7571 13.1109 37.7571 12.7382C37.7571 12.3655 37.6317 12.0823 37.3654 11.8438C37.1147 11.5903 36.817 11.4711 36.4253 11.4711C36.0336 11.4711 35.7359 11.5903 35.4852 11.8438C35.2188 12.0823 35.0935 12.3655 35.0935 12.7382C35.0935 13.1109 35.2188 13.3942 35.4852 13.6327Z" fill="black"/>
<path d="M70.3432 25.6801L70.7976 26.0081L70.7192 27.6032C70.5626 30.3313 71.3146 32.5824 72.8815 34.0284C74.9653 35.9664 77.5663 35.713 80.2612 33.2979C81.687 32.0308 82.8308 30.5549 84.6483 27.6777C85.4474 26.4106 86.1055 25.3968 86.1212 25.4117C86.1682 25.4416 85.8705 27.9162 85.4004 31.5984C85.087 34.1328 85.087 34.1924 85.3691 34.8185C85.9018 35.9366 87.2649 36.2497 88.3617 35.5192C89.0825 35.0272 90.3046 33.1936 91.6521 30.5847C93.8456 26.336 94.5037 25.1881 95.6945 23.4588C96.3369 22.5495 96.9009 21.7892 96.9479 21.7892C96.9949 21.7892 96.9949 22.2364 96.9323 22.788C96.5719 26.0975 96.2115 30.0182 96.2115 30.6593C96.2115 31.6879 96.6189 33.0892 97.0889 33.6706C98.2797 35.1465 100.364 34.8334 102.04 32.9401C103.09 31.7475 103.607 30.9723 104.876 28.6616L106.036 26.5447L106.13 28.2442C106.255 30.2418 106.553 31.3003 107.195 32.001C108.401 33.3128 110.156 32.806 111.801 30.6891C112.224 30.1673 113.462 28.2889 114.59 26.5447C116.627 23.3247 118.805 20.3133 118.899 20.5667C118.931 20.686 118.319 22.9967 116.345 30.2568C116.048 31.3599 115.797 32.4482 115.797 32.6718C115.797 33.3277 116.424 33.9241 117.113 33.9241C117.896 33.9241 118.225 33.5514 119.401 31.4046C121.422 27.7374 122.628 25.9484 124.571 23.7868C125.887 22.3258 127.971 20.5518 128.222 20.7009C128.441 20.8202 128.269 23.1756 127.783 26.9323C127.141 31.7624 127.344 33.4321 128.692 34.5651C130.353 35.9515 132.719 34.8931 134.771 31.8966C135.414 30.9425 135.539 30.4356 135.132 30.4356C135.006 30.4356 134.207 31.0618 133.361 31.837C132.327 32.7762 131.59 33.3128 131.105 33.4917C130.274 33.7899 130.024 33.7452 129.632 33.1638C129.162 32.478 129.287 30.704 130.055 26.8578C130.885 22.7731 130.995 20.6264 130.415 19.6276C129.115 17.3169 127.031 17.8535 123.098 21.5208C122.237 22.3258 121.531 22.9818 121.516 22.9818C121.5 22.9818 121.657 22.3557 121.86 21.5954C122.064 20.85 122.268 19.6425 122.331 18.9418C122.409 17.8088 122.378 17.5703 122.096 16.9889C121.704 16.2286 121.077 15.8261 120.262 15.8261C119.463 15.8261 119.009 16.0944 117.818 17.2721C115.342 19.7021 113.306 22.46 110.219 27.5286L109.138 29.3176L109.091 27.9013C109.059 27.1261 109.122 25.203 109.216 23.6377C109.42 20.4624 109.326 19.7766 108.636 19.2698C107.806 18.6287 106.709 18.9716 105.973 20.1046C105.706 20.4922 104.766 22.1619 103.889 23.8017C101.335 28.5126 99.6585 31.2556 99.5332 30.8978C99.4705 30.704 99.6899 28.7362 100.144 25.5161C100.567 22.46 100.614 20.0301 100.238 19.0163C99.6742 17.451 98.2484 16.7951 96.7442 17.3914C95.4751 17.8983 92.5451 21.0438 90.7276 23.8763L89.9129 25.1434L90.0069 24.3235C90.3673 20.8202 90.2576 19.8214 89.3958 19.0014C89.1295 18.748 88.7064 18.4797 88.4714 18.42C87.7977 18.271 86.8576 18.6138 86.1682 19.2698C85.8235 19.5977 83.9433 22.1619 82.0004 24.9645C77.2999 31.7326 76.7515 32.3737 75.6547 32.3737C74.3386 32.3737 73.2575 29.735 73.6022 27.3796L73.7276 26.5149L74.5893 26.3062C76.1405 25.9335 77.0962 25.3968 78.428 24.1148C81.2953 21.3568 81.8437 18.3157 79.7285 16.8696C77.5349 15.349 74.6833 16.8696 72.7091 20.5966C72.1294 21.6997 71.44 23.4737 71.2206 24.4278C71.1266 24.8751 71.0796 24.9049 70.5469 24.8751C69.7948 24.8303 69.7008 25.2179 70.3432 25.6801ZM74.652 22.9371C75.9524 19.2996 77.5506 17.6001 78.6787 18.6735C78.9608 18.9418 79.0078 19.1058 78.9294 19.7319C78.6944 21.6252 76.3285 24.2489 74.3229 24.8303C73.9939 24.9347 73.9939 24.9198 74.1976 24.2937C74.3073 23.9359 74.511 23.3247 74.652 22.9371Z" fill="black"/>
<path d="M106.631 14.6486C106.756 14.8573 107.07 15.1257 107.336 15.23C108.668 15.7518 109.812 13.9778 108.73 13.0535C108.292 12.6808 107.273 12.6808 106.866 13.0684C106.459 13.4709 106.349 14.1716 106.631 14.6486Z" fill="black"/>
<path d="M118.774 49.5924C120.388 54.8847 123.772 57.8662 128.19 57.8662C133.565 57.8662 139.534 53.1703 143.373 45.94C145.018 42.8541 146.616 38.516 147.572 34.6102C147.666 34.2375 147.807 33.6412 147.901 33.2685C148.497 30.9429 149.625 22.9971 149.656 21.0441C149.656 20.5075 149.719 19.941 149.781 19.777C149.875 19.5385 149.938 19.5981 150.126 20.1497C150.596 21.5659 151.395 20.7907 151.05 19.2701C150.784 18.1222 149.609 17.0042 148.309 16.6315C146.131 16.0351 144.031 16.7507 141.665 18.8825C136.933 23.1759 134.113 31.3007 136.698 33.2387C138.14 34.312 139.848 33.3132 142.59 29.7652C143.169 29.0198 143.937 27.9464 144.329 27.3501C144.705 26.7687 145.034 26.2917 145.05 26.3066C145.065 26.3364 144.767 27.5141 144.376 28.9452C142.37 36.3842 140.866 40.5136 138.516 45.1201C136.949 48.206 135.68 49.9949 133.831 51.769C131.481 54.0051 129.773 54.8101 127.47 54.8101C126.373 54.8101 126.075 54.7505 125.198 54.3331C123.835 53.692 123.13 53.1106 122.048 51.7242C121.046 50.4422 119.526 47.6097 119.228 46.4916C119.025 45.6717 118.805 45.4928 118.507 45.8655C118.163 46.3276 118.272 47.9377 118.774 49.5924ZM138.845 28.0508C139.519 25.9935 140.866 23.3697 142.088 21.715C142.778 20.7907 144.548 19.0316 145.175 18.6589C145.441 18.5098 145.849 18.3011 146.084 18.2266L146.538 18.0626L146.225 18.5396C146.052 18.808 145.3 20.0602 144.548 21.3274C142.464 24.8605 138.688 30.436 138.391 30.436C138.249 30.436 138.516 29.0198 138.845 28.0508Z" fill="black"/>
</svg>
