<svg width="97" height="47" viewBox="0 0 97 47" fill="none" xmlns="http://www.w3.org/2000/svg">
<path d="M0.424967 30.5467C0.424967 30.5467 -0.296137 38.0296 0.140321 42.8592C0.19725 43.4891 0.0691592 44.6846 1.70587 44.6846C2.31075 44.6846 2.54094 44.5057 2.62633 44.267C2.76865 43.933 3.09125 40.0579 3.48976 33.9875C3.64157 31.6014 3.81236 29.0434 3.8598 28.3085C3.91673 27.5736 3.98314 26.1991 4.0211 25.2638L4.08751 23.5457L4.36267 24.357C5.23559 26.9054 6.60189 29.6829 7.69303 31.1051C9.10677 32.9567 10.8052 33.3671 12.143 32.1836C13.2152 31.2387 13.8983 29.3584 15.2741 23.5839C15.3785 23.1353 15.5398 22.4958 15.6441 22.1522C15.739 21.8086 15.9952 20.9114 16.204 20.1479C16.9061 17.6758 16.9535 17.5136 17.3995 16.2728C18.0921 14.3448 19.2686 11.7486 19.392 11.8727C19.411 11.8918 19.4869 12.2449 19.5628 12.6649C19.8854 14.4116 20.0941 16.2537 20.2744 18.9071C20.4547 21.5605 20.5211 22.9826 20.7583 29.1198C21.005 35.4097 21.3845 39.1321 22.1436 42.4822C22.7318 45.1165 23.2252 46.1473 24.0981 46.5959C24.8287 46.9682 25.8724 46.7868 26.4133 46.1855C26.9826 45.5651 27.0869 44.8493 26.8023 43.7135C26.4702 42.4345 26.252 39.2466 25.9673 31.9354C25.7491 26.161 25.5973 23.7939 25.2177 20.0047C24.9995 17.8094 24.4018 14.0775 24.0887 12.894C23.2157 9.63927 22.3523 8.07396 21.0429 7.39629C20.597 7.16722 20.4072 7.12905 19.762 7.1195C19.0884 7.1195 18.9271 7.15768 18.3578 7.43447C17.0199 8.10259 15.6062 9.95424 14.0786 13.0562C12.4846 16.3109 11.5073 19.747 10.511 25.6837C9.99867 28.7094 10.0746 28.4994 9.77095 27.9267C9.14473 26.6859 8.08205 23.7939 7.25657 21.0546C6.38366 18.1435 5.40637 15.2133 5.15019 14.717C4.59988 13.648 2.79712 13.4094 2.1709 14.3161C1.79137 14.8602 1.77239 14.9842 1.3644 19.1171C1.05129 22.219 0.424967 30.5467 0.424967 30.5467Z" fill="black"/>
<path d="M27.0282 27.9662C27.1818 28.6784 27.5083 29.4855 27.9788 30.2926C28.4012 31.0143 28.4588 31.1852 28.5165 31.8594C28.9389 36.6643 31.2145 40.9753 34.1333 42.4851C35.2183 43.0454 35.9768 43.2448 37.0618 43.2448C38.1756 43.2448 38.9341 43.0454 40.0863 42.4282C43.0628 40.8519 45.6072 36.9301 47.4218 31.0998C47.8827 29.6185 47.9403 29.4095 48.19 28.3935C48.4108 27.4914 48.6028 26.4754 48.9293 24.5003C49.1885 22.9715 49.2269 22.4967 49.2365 20.7969C49.2461 19.2396 49.2173 18.7079 49.0829 18.1476C48.9869 17.7678 48.9293 17.426 48.9581 17.407C49.0541 17.312 49.9182 17.8818 50.3311 18.2996C50.84 18.8218 51.4545 20.0278 51.7041 21.0058C52.1266 22.6866 52.2418 24.9181 52.0978 28.5359C51.8385 35.012 51.7905 37.4239 51.8962 39.9783C52.0402 43.7576 52.2034 44.8306 52.7027 45.3623C53.2692 45.9796 54.3445 45.8846 54.7766 45.1819C55.0359 44.7546 55.0551 44.5932 55.2087 40.2631C55.4295 34.3948 55.5063 26.124 55.3623 24.2629C55.0743 20.5595 54.0853 17.9007 52.3666 16.2295C51.2433 15.128 49.8222 14.4443 47.1146 13.7131C46.8362 13.6372 46.4041 13.4473 46.1544 13.2953C45.3095 12.7921 44.0421 12.5642 43.3988 12.8205C42.9859 12.982 42.4963 13.3713 42.285 13.7131C42.0546 14.093 42.045 14.7672 42.285 15.1945C42.4867 15.5743 43.3028 16.0491 43.7349 16.0491C44.1189 16.0491 44.5318 16.5714 44.8102 17.4165C45.0119 18.0337 45.0311 18.2426 45.0215 19.8948C45.0023 21.756 44.9735 21.9839 44.3206 25.165C44.0805 26.3234 43.322 29.3146 42.9667 30.4826C41.7569 34.5182 40.4223 37.1865 38.8669 38.6584C38.118 39.38 37.6475 39.6459 36.9658 39.7314C35.564 39.9213 33.9413 38.3925 32.9812 35.9901C32.8275 35.6102 32.213 33.6636 32.213 33.5592C32.213 33.5497 32.5587 33.5212 32.9716 33.4927C34.6998 33.3788 36.1689 32.1538 37.3306 29.8653C38.0604 28.4125 38.6653 26.2855 38.8381 24.5193C39.1357 21.5661 38.0604 19.0972 36.0344 18.1002C34.5462 17.3595 33.0292 17.6349 31.7042 18.8883C30.0047 20.4931 28.9389 23.5697 28.4204 28.4315C28.382 28.7354 28.3244 28.9443 28.286 28.9063C28.1228 28.7259 27.8635 27.9377 27.7579 27.311C27.6331 26.5893 27.4507 26.3614 27.1434 26.5513C26.9514 26.6748 26.8938 27.349 27.0282 27.9662ZM32.021 25.4973C32.2706 24.0635 32.7315 22.2308 33.01 21.5756C33.1732 21.1768 33.4612 20.7115 33.7013 20.4646C34.0565 20.0848 34.1429 20.0373 34.527 20.0373C35.5352 20.0373 36.3129 21.0628 36.5529 22.6771C36.8986 25.1175 35.5448 29.9793 34.1141 31.4226C33.6053 31.9354 33.0676 32.1823 32.4819 32.1918C31.9826 32.1918 31.9826 32.1823 31.8866 31.4321C31.8098 30.7484 31.9058 26.1335 32.021 25.4973Z" fill="black"/>
<path d="M57.0394 31.5503C57.2806 34.2683 58.2017 36.8096 59.6052 38.5774C60.7676 40.0359 61.897 40.7762 63.5308 41.1187C65.998 41.649 69.1889 40.3784 71.9851 37.7377C72.6101 37.1521 72.7307 37.0858 72.7855 37.2516C73.0706 38.0802 74.1672 40.7541 74.5948 41.6932C75.6804 44.0246 76.8866 45.6929 77.9721 46.3338C78.4217 46.599 80.1018 46.799 81.0537 45.2091C82.3904 42.7303 83.1533 40.696 83.1533 40.696C83.1533 40.696 84.0363 38.9886 85.4398 36.4583C87.1614 33.3425 88.1373 31.8951 89.3325 30.6797C89.8917 30.1273 90.4071 29.6632 90.4729 29.6632C90.5496 29.6632 90.747 29.9726 90.9225 30.3483C91.8545 32.3813 92.6111 37.4638 92.7756 42.8115C92.8633 45.5516 92.9401 45.9052 93.576 46.3693C93.9269 46.6123 94.6835 46.7449 95.1331 46.6344C95.6594 46.5019 96.1529 45.9384 96.3832 45.2091C96.7011 44.2147 96.8218 43.4192 96.9534 41.4304C97.2275 37.2207 96.2625 31.1217 94.8699 28.3374C92.337 23.2548 87.9859 24.4764 82.899 31.5415C81.8819 32.9542 81.119 34.8473 81.119 34.8473C81.119 34.8473 79.1285 39.7341 79.0846 39.6788C78.9202 39.5131 78.323 36.6328 77.7638 34.3678C76.8866 30.81 76.8866 30.8763 77.6432 29.23C79.2441 25.7606 80.5489 20.5124 81.0533 15.5293C81.47 11.3417 81.1301 6.66793 80.209 3.92779C79.4414 1.6296 78.4656 0.546807 76.8098 0.115897C76.1957 -0.0387881 76.0751 -0.0387881 75.3624 0.115897C73.1035 0.635198 71.5574 2.81184 70.417 7.07674C69.5618 10.2478 69.156 15.3415 69.4192 19.6174C69.5508 21.7499 70.121 26.7108 70.3074 27.4622C70.3622 27.6721 70.5377 28.5229 70.6912 29.3405C70.8447 30.1581 70.9982 30.9316 71.0311 31.0641C71.1188 31.4288 69.6714 33.506 68.4104 34.8318C65.1428 38.246 62.7742 38.246 61.1623 34.8208C60.4276 33.2629 60.1096 31.3956 60.1096 28.6886C60.1206 23.3741 61.1733 18.0318 62.5878 16.7833C63.0154 16.3965 63.3339 16.2969 63.8273 16.529C64.4743 16.8383 64.5897 17.3819 65.8617 19.8348C66.2893 20.6634 66.2956 20.9433 66.6245 21.2748C66.9535 21.6062 67.3874 21.6148 67.8073 21.2748C68.1503 20.8519 67.9828 20.8328 67.2262 19.1976C65.6143 15.7282 64.1449 14.3138 62.5878 14.7558C60.5263 15.3303 58.3552 19.8384 57.3793 25.5397C56.9626 27.9704 56.8749 29.6057 57.0394 31.5503ZM75.1869 10.9439C75.2856 9.90528 75.4062 8.84457 75.4611 8.56835C75.5269 8.29213 75.6036 7.90542 75.6365 7.70654C75.6804 7.50766 75.7571 7.31982 75.801 7.28667C75.9326 7.20933 75.9216 11.419 75.79 12.8222C75.5488 15.4629 75.4501 16.3027 75.3295 17.1314L75.1869 18.0153L75.1211 17.3524C74.9896 16.0265 75.0334 12.778 75.1869 10.9439Z" fill="black"/>
</svg>
