<svg width="180" height="56" viewBox="0 0 180 56" fill="none" xmlns="http://www.w3.org/2000/svg">
<path d="M0.571317 13.7627C0.898839 13.7081 2.39088 13.1622 3.86473 12.5436C5.35677 11.9249 6.61227 11.4519 6.64866 11.5064C6.70325 11.561 6.66686 12.6528 6.55768 13.9447C6.44851 15.2184 6.26655 18.8029 6.15738 21.878C5.90264 28.9015 6.19377 35.3063 6.93979 38.7453C7.50386 41.3473 8.55921 42.5664 10.2878 42.5664C11.5069 42.5664 11.98 42.3844 12.9262 41.5293C14.3454 40.2374 16.0922 37.1259 17.3659 33.596L17.8754 32.1767L18.6942 33.1229C19.9861 34.5785 21.1688 34.906 22.6608 34.1964C24.1165 33.4868 25.6085 31.3943 26.6457 28.6831C27.6464 26.0266 26.9914 26.063 25.2082 28.7741C23.6798 31.1213 22.2787 32.5588 21.5327 32.5588C20.9322 32.5588 20.1498 31.74 19.8587 30.7756C19.604 29.9204 19.5676 26.9545 19.8041 26.3177C19.9497 25.9356 20.1134 25.8628 21.1688 25.79C22.7154 25.6627 23.8617 25.0986 25.1172 23.8249C26.8276 22.0781 28.1377 19.2032 28.3197 16.8196C28.3925 15.6732 28.3561 15.4367 27.883 14.5451C27.2097 13.2168 26.1908 12.5072 24.8261 12.398C21.9148 12.1615 19.4402 15.2365 17.9845 20.9136C17.748 21.8598 17.4023 22.6786 17.093 23.0971C16.8018 23.4428 16.1468 24.8802 15.6373 26.2813C15.1096 27.6824 14.3636 29.6475 13.9633 30.6483C13.1627 32.668 11.234 36.5436 11.1612 36.2707C11.1248 36.1797 11.0156 34.4693 10.9064 32.4678C10.7973 30.4663 10.5789 27.2639 10.4334 25.3715C10.2514 23.279 10.124 19.5489 10.1058 15.928L10.0876 9.94162L13.1809 8.64973C15.2916 7.75814 16.2924 7.24866 16.3287 7.03031C16.3833 6.79377 16.256 6.72099 15.8557 6.72099C15.419 6.72099 11.1612 7.86731 10.124 8.26762C9.8511 8.39499 9.8147 8.24942 9.8147 6.70279C9.8147 4.75586 9.48718 1.00756 9.25064 0.388903C9.06868 -0.0659877 8.50462 -0.13877 8.1771 0.261534C8.04973 0.425295 7.7586 2.17208 7.52205 4.31916C7.26731 6.39347 7.03077 8.41318 6.99438 8.81349L6.88521 9.54131L4.93827 10.4147C2.08156 11.6702 0.0982307 12.8893 0.0254481 13.4352C-0.0473345 13.8355 0.00725245 13.8537 0.571317 13.7627ZM21.0778 20.3131C22.2423 16.8924 23.9709 14.7635 24.8807 15.6732C25.7905 16.583 23.7344 21.0228 21.9876 21.9325C21.4417 22.2055 20.5501 22.2783 20.5501 22.0417C20.5501 21.9507 20.7867 21.1865 21.0778 20.3131Z" fill="black"/>
<path d="M28.7489 33.6422C29.8537 35.6428 31.8642 36.8196 34.0195 36.7019C35.9756 36.5989 37.642 35.731 38.5476 34.3336C38.8917 33.804 39.3165 33.43 39.3708 31.7971C39.4795 28.8404 38.4751 27.2138 35.6858 23.4627C33.2045 20.1088 32.9871 19.7116 32.9871 18.1965C32.9871 17.1815 33.0777 16.8137 33.4218 16.24C33.6392 15.8576 34.0014 15.4751 34.2007 15.3869C34.7984 15.1221 36.2473 15.3133 37.0624 15.7546C38.3302 16.4313 39.0185 15.9017 38.0585 14.9897C37.3703 14.3277 35.9032 13.7834 34.8165 13.7834C31.665 13.7834 30.053 17.1668 31.357 21.0944C31.9004 22.7567 32.2808 23.5069 34.5267 27.3168C35.5047 28.9791 36.4466 30.6854 36.6096 31.1267C37.3703 33.0096 36.8088 34.363 35.0157 35.0544C34.4904 35.2456 33.8746 35.4074 33.6392 35.4074C32.2808 35.4074 30.7775 34.5836 29.6183 33.2156C29.0025 32.4801 28.3504 32.2153 28.3867 32.7154C28.3867 32.8625 28.5497 33.2744 28.7489 33.6422Z" fill="black"/>
<path d="M33.9167 11.0367C34.0441 11.2369 34.3534 11.2551 35.336 11.1641C36.4641 11.0549 43.0509 9.72665 43.6696 9.49011C44.0699 9.32635 44.0335 9.79943 43.2329 14.0754C42.4141 18.3696 41.759 23.8829 41.759 26.2847C41.7772 29.105 42.2867 32.0163 43.1237 33.9087C43.5604 34.8912 44.6339 36.2195 45.289 36.5652C47.5271 37.7661 49.6014 36.3833 51.5665 32.3802L52.2579 30.9974L52.64 31.707C53.4588 33.3264 54.9145 34.2726 56.2246 34.0724C58.1897 33.7631 59.4998 31.9435 61.4649 26.7942C62.9752 22.8457 62.9024 22.8457 62.775 26.7032C62.7022 28.5591 62.5385 30.6334 62.4111 31.3431C61.7742 34.4909 61.8834 35.5645 62.866 36.0739C63.5392 36.4197 63.9577 36.4197 64.4854 36.0557C65.0677 35.6372 65.3588 34.873 65.5953 33.0717C65.7045 32.2165 65.9592 30.9974 66.1594 30.3423C66.5961 28.9413 67.979 26.2665 68.9797 24.8836L69.6893 23.8829L69.7439 25.2475C69.7803 25.9936 69.6712 28.4136 69.5074 30.6153C69.1435 35.2733 69.1617 35.892 69.6893 35.892C69.9987 35.892 70.1078 35.5827 70.5445 33.7995C71.5635 29.6145 72.0002 26.8851 72.0366 24.6107C72.0548 22.0997 71.8182 21.3901 70.7993 20.9716C69.8167 20.5531 68.9797 20.8988 67.6514 22.2453L66.5233 23.3916L66.4323 22.8275C66.3959 22.5 66.2686 21.4992 66.1776 20.5895C65.9592 18.5697 65.5043 17.5872 64.6128 17.1687C64.2852 17.0049 63.8485 16.8775 63.6666 16.8775C62.9752 16.8775 61.847 17.6236 61.1556 18.5515C60.3004 19.7343 58.7174 22.9913 57.2253 26.6122C56.6249 28.1043 56.0426 29.4143 55.9698 29.4871C55.8789 29.5781 55.6969 29.3416 55.5695 28.9413C55.242 28.0497 55.2602 22.9185 55.5695 21.2081C55.8425 19.7706 55.6423 18.9155 54.9145 18.3332C54.0775 17.6781 52.549 17.9875 51.9486 18.9518C51.8212 19.152 51.148 21.008 50.4747 23.0641C49.0919 27.2854 48.2003 29.6691 47.4725 31.0883L46.9812 32.0709L46.7446 31.4886C46.1624 30.124 46.0714 28.359 46.2352 22.3362C46.3261 19.0792 46.3989 14.7305 46.3989 12.6561V8.88965L48.4914 8.41656C51.803 7.65235 52.2215 7.52498 52.2761 7.17926C52.3307 6.90633 52.1851 6.86993 51.1844 6.86993C50.5475 6.88813 49.1829 6.97911 48.1457 7.12467C46.8356 7.27024 46.2534 7.28843 46.217 7.16106C46.1806 7.05189 46.1078 6.56061 46.0532 6.08752C45.9258 4.99578 45.6711 4.5045 45.2162 4.5045C44.7249 4.5045 44.6157 4.77744 44.3974 6.32406L44.1972 7.68874L42.3049 8.10724C40.1578 8.56213 34.5536 10.1088 34.0623 10.3635C33.7166 10.5455 33.6802 10.6728 33.9167 11.0367Z" fill="black"/>
<path d="M60.0638 46.299C61.2647 51.7941 64.7583 55.0875 70.2534 55.9063C71.2723 56.0519 73.4376 55.5788 74.966 54.851C79.7333 52.5765 82.9539 47.6455 83.7909 41.3862C84.2458 37.9654 83.7545 24.0821 83.1541 23.1359C83.0267 22.9358 82.6628 22.6447 82.3535 22.5173C81.8622 22.3171 81.6984 22.3353 81.0616 22.6447L80.3519 23.0086L80.8068 22.4445C81.6074 21.4983 82.7174 20.6977 83.2632 20.6977C83.5362 20.6977 83.9911 20.8433 84.3004 21.0071C85.3739 21.6257 85.847 20.6795 84.9554 19.6242C83.3906 17.75 80.079 19.0601 77.2041 22.6629C75.4391 24.9009 74.0199 28.1034 73.5104 31.0329C73.2192 32.6523 73.2556 33.2891 73.7105 34.7448C74.038 35.7819 75.1298 36.8191 76.0396 36.9828C76.8038 37.1284 78.3322 36.6735 78.7871 36.164C79.424 35.4544 79.4785 35.7091 79.3694 38.6568C79.2056 43.133 78.2958 45.8805 76.0214 48.7372C73.8015 51.503 71.5998 52.5765 68.9797 52.1762C65.4679 51.6303 63.2662 49.5378 61.1919 44.807C60.5551 43.3513 60.3731 43.0784 60.0274 43.0784C59.6999 43.0784 59.7181 44.7342 60.0638 46.299ZM76.9675 30.5598C77.4042 28.4309 79.2966 24.0639 80.0426 23.4453C80.1882 23.3179 80.0608 24.1367 79.6787 25.8289C78.6597 30.2141 77.8591 32.4339 77.0585 33.1617C76.6946 33.4893 76.6946 33.4711 76.6946 32.6523C76.6946 32.1974 76.822 31.2512 76.9675 30.5598Z" fill="black"/>
<path d="M95.302 31.1691C95.5931 32.1698 96.612 33.4799 97.54 34.0622C98.3406 34.5353 98.5954 34.608 99.8145 34.608C101.561 34.608 102.689 34.0804 104.509 32.4246C105.219 31.7695 105.837 31.2418 105.892 31.2418C105.928 31.2418 106.329 31.7149 106.747 32.279C107.184 32.8431 108.257 34.1531 109.149 35.1903C110.368 36.5914 110.896 37.0645 111.223 37.0645C111.532 37.0645 111.678 36.9371 111.769 36.6096C111.86 36.282 111.532 35.5178 110.459 33.4799C109.677 32.0061 108.749 30.2593 108.403 29.6042L107.784 28.4033L108.876 26.602C110.877 23.2903 111.423 21.9621 110.768 21.9621C110.55 21.9621 109.24 23.3449 107.93 24.9643C107.347 25.6558 106.838 26.2562 106.765 26.2926C106.601 26.3472 103.617 20.2153 103.108 18.7596L102.708 17.6497L103.071 16.9219C104.272 14.5928 105.073 10.7717 104.745 9.04316C104.363 7.05983 103.217 5.58599 102.016 5.58599C98.6863 5.58599 97.0123 10.3714 98.3042 16.1759L98.6136 17.5951L97.6674 19.9605C95.5203 25.3647 94.7197 29.1493 95.302 31.1691ZM98.65 27.3298C99.123 25.8923 100.433 22.6899 100.542 22.6899C100.597 22.6899 100.961 23.2903 101.343 24.0364C101.725 24.7824 102.562 26.238 103.217 27.2752L104.4 29.1493L103.344 30.1137C101.125 32.1698 99.2868 32.5337 98.468 31.0963C98.1223 30.4958 98.2133 28.6945 98.65 27.3298Z" fill="black"/>
<path d="M121.664 32.7525C122.173 34.7722 123.047 36.0095 124.375 36.6282C125.467 37.1377 125.758 37.1559 126.995 36.792C128.815 36.2461 130.798 33.917 132.308 30.5145C132.745 29.5683 133.109 28.7677 133.127 28.7313C133.145 28.6949 133.309 29.4773 133.491 30.4417C133.946 33.0073 134.947 36.7374 135.511 37.9929C135.984 39.03 136.493 39.5577 136.839 39.3575C137.021 39.2484 137.33 20.707 137.276 13.7745C137.185 5.3135 136.766 3.6213 134.656 3.29378C133.764 3.16641 132.854 3.71228 132.363 4.69485C131.89 5.62282 131.581 7.04208 129.998 15.9034C129.925 16.3583 129.725 16.5766 129.142 16.8859C127.941 17.5046 126.195 19.0148 125.085 20.3977C123.92 21.8715 122.501 24.6919 121.937 26.6934C121.427 28.4766 121.3 31.3333 121.664 32.7525ZM125.358 26.0201C126.104 23.8003 127.032 21.9625 128.251 20.3613C128.815 19.6335 129.288 19.0694 129.324 19.1058C129.397 19.1786 128.269 25.7108 127.832 27.7851C127.268 30.4599 126.195 33.1892 125.631 33.3712C125.521 33.4076 125.249 33.0073 125.048 32.4796C124.466 31.0421 124.612 28.3128 125.358 26.0201Z" fill="black"/>
<path d="M140.802 31.9955C141.785 35.853 144.805 37.7271 147.553 36.1623C148.062 35.8712 148.699 35.3253 148.972 34.9796C151.483 31.6862 151.538 25.5906 149.081 22.3518C148.335 21.3692 148.281 21.0417 148.881 21.0417C149.063 21.0417 150.792 20.6778 152.72 20.2229C154.649 19.768 156.287 19.4041 156.378 19.4041C156.469 19.4041 156.232 20.041 155.832 20.8052C152.647 27.21 153.084 34.0516 156.814 35.8712C157.706 36.3261 157.961 36.3625 158.998 36.2715C160.308 36.1441 161.181 35.762 162.873 34.5611C165.039 33.0326 167.331 30.0122 170.479 24.5535C171.061 23.5163 171.626 22.6793 171.698 22.6793C171.88 22.6793 171.807 22.6247 174.282 25.0448C177.121 27.8469 177.994 29.812 177.212 31.6862C176.884 32.4686 175.501 33.4875 174.118 33.9606C172.808 34.3973 172.171 34.4155 171.334 34.0334C170.57 33.6695 170.224 33.8878 170.552 34.5065C171.061 35.4527 173.336 35.8712 175.119 35.3435C179.359 34.0516 180.833 30.6854 178.886 26.7733C178.176 25.3541 177.375 24.2987 175.119 21.8787C174.118 20.787 173.281 19.8226 173.281 19.7316C173.281 19.6407 173.445 19.2585 173.645 18.8582C174.228 17.7301 174.446 16.3836 174.209 15.5648C173.754 14.0546 172.08 13.4541 170.934 14.4003C170.37 14.8916 169.642 16.5292 169.642 17.348C169.642 17.8575 167.004 21.7877 163.055 27.1737C160.817 30.2123 158.816 32.505 158.397 32.505C157.651 32.505 157.324 29.4117 157.815 27.1373C158.361 24.5353 159.689 21.4238 161.09 19.4223C161.654 18.6399 162.091 18.2396 162.837 17.8575C164.293 17.1115 164.675 16.2017 164.074 14.928C163.565 13.8544 162.346 13.4723 161.236 14.0546C160.927 14.2184 159.507 14.5823 158.07 14.8734C153.776 15.7468 150.719 16.4382 148.244 17.1479C146.952 17.5118 145.205 17.9849 144.368 18.2032C142.676 18.6581 142.531 18.7855 141.967 20.2957C140.802 23.4072 140.183 29.5755 140.802 31.9955ZM143.404 22.8795L143.531 21.8969L144.459 22.6429C146.588 24.3351 147.298 25.8272 147.316 28.6839C147.316 30.9583 146.934 32.4868 146.188 33.251C145.588 33.8515 145.151 33.7969 144.441 33.0508C143.531 32.1047 143.277 30.7946 143.295 27.1373C143.295 25.3359 143.35 23.4254 143.404 22.8795Z" fill="black"/>
<path d="M53.4715 14.1189C54.2234 14.7984 55.3721 14.7572 56.0196 14.0159C56.7088 13.254 56.6461 12.3685 55.8734 11.6066C55.3094 11.0712 55.1215 10.9889 54.4531 11.0918C53.4924 11.2566 52.9493 11.8743 52.9493 12.8627C52.9493 13.4187 53.0955 13.7688 53.4715 14.1189Z" fill="black"/>
</svg>
