<svg width="91" height="90" viewBox="0 0 91 90" fill="none" xmlns="http://www.w3.org/2000/svg">
<mask id="mask0_874_3198" style="mask-type:luminance" maskUnits="userSpaceOnUse" x="0" y="0" width="91" height="90">
<path d="M0.393555 0H90.0639V89.6698H0.393555V0Z" fill="white"/>
</mask>
<g mask="url(#mask0_874_3198)">
<path d="M87.3683 29.5235C87.1764 28.9979 86.9748 28.4753 86.7637 27.9568C86.5527 27.4383 86.332 26.9241 86.1012 26.414C85.8709 25.9039 85.6311 25.398 85.3818 24.8969C85.1324 24.3951 84.8735 23.8988 84.6056 23.4073C84.3377 22.9157 84.0608 22.4295 83.775 21.9482C83.4885 21.4674 83.1937 20.9914 82.8893 20.5213C82.5856 20.0513 82.2728 19.5867 81.9517 19.1286C81.6306 18.67 81.3005 18.2179 80.962 17.7718C80.6241 17.3257 80.2773 16.8861 79.9227 16.4526C79.5681 16.0196 79.2051 15.5933 78.8344 15.1735C78.4642 14.7543 78.0857 14.3417 77.6994 13.9362C77.3131 13.5308 76.9196 13.1331 76.5189 12.742C76.1177 12.3515 75.7092 11.9688 75.2942 11.5933C74.8786 11.2178 74.4564 10.8506 74.0277 10.4906C73.5983 10.1312 73.1624 9.77958 72.7205 9.43633C72.2779 9.09308 71.8295 8.7582 71.375 8.4323C70.9199 8.10579 70.4594 7.78766 69.9924 7.4785C69.526 7.16933 69.0536 6.86914 68.5758 6.57732C68.0974 6.2861 67.6142 6.00325 67.1256 5.72996C66.6371 5.45668 66.1437 5.19237 65.6456 4.93702C65.1469 4.68228 64.644 4.4365 64.1363 4.20089C63.6286 3.96469 63.1167 3.73805 62.6006 3.52097C62.0845 3.3039 61.5649 3.097 61.041 2.89906C60.5172 2.70172 59.9898 2.51395 59.4588 2.33635C58.9277 2.15874 58.3937 1.99071 57.8567 1.83284C57.3197 1.67497 56.7797 1.52726 56.2374 1.38972C55.6944 1.25218 55.1496 1.12481 54.6018 1.00761C54.0547 0.890398 53.5051 0.783956 52.9538 0.687081C52.4018 0.590206 51.8493 0.504095 51.2943 0.428149C50.7394 0.352204 50.1839 0.287023 49.6265 0.232007C49.0698 0.176992 48.5113 0.132142 47.9528 0.0980567C47.3942 0.0639711 46.8345 0.0400512 46.2748 0.0268954C45.9273 0.0185235 45.5787 0.0137396 45.2289 0.0137396C43.8607 0.0113476 42.4955 0.0723429 41.1332 0.196128C39.7704 0.319315 38.4165 0.505291 37.0711 0.753458C35.7262 1.00163 34.395 1.31079 33.0777 1.68095C31.7609 2.0511 30.4638 2.48106 29.1865 2.97082C27.9086 3.46058 26.6564 4.00774 25.4293 4.61231C24.2022 5.21688 23.0056 5.87647 21.839 6.59107C20.6723 7.30568 19.5409 8.0723 18.4447 8.89096C17.3486 9.70961 16.2926 10.5767 15.2766 11.4922C6.147 19.6979 0.40387 31.5968 0.40387 44.8388C0.404468 46.5783 0.505529 48.3125 0.705857 50.0407C0.842797 51.2229 1.02638 52.398 1.25721 53.5659C1.48803 54.7338 1.7649 55.8903 2.08842 57.036C2.41133 58.1818 2.7803 59.3126 3.19411 60.4291C3.60732 61.5449 4.06539 62.6428 4.5665 63.7222C5.06822 64.8022 5.6118 65.86 6.19843 66.8958C6.78446 67.9321 7.41056 68.9427 8.07792 69.9288C8.74469 70.9149 9.45032 71.8729 10.1936 72.8021C10.9369 73.732 11.7167 74.6302 12.5324 75.4973C20.7099 84.2155 32.3326 89.6632 45.2289 89.6632C47.0761 89.6662 48.9167 89.5543 50.7508 89.3289C52.5842 89.1029 54.3967 88.7644 56.1883 88.3135C57.9805 87.862 59.7374 87.3023 61.459 86.6331C63.1813 85.9634 64.8556 85.1902 66.4816 84.3129C80.5159 76.7411 90.0539 61.9043 90.0539 44.8388C90.0563 42.2273 89.8321 39.6356 89.3812 37.0636C88.9303 34.4917 88.2593 31.9783 87.3683 29.5235Z" fill="#CFF3C3"/>
</g>
<mask id="mask1_874_3198" style="mask-type:luminance" maskUnits="userSpaceOnUse" x="4" y="16" width="87" height="69">
<path d="M4.05267 16.9775H90.0639V84.3356H4.05267V16.9775Z" fill="white"/>
</mask>
<g mask="url(#mask1_874_3198)">
<path d="M76.5941 40.2277C75.8203 42.9546 75.9363 45.9081 74.885 48.5398C72.6324 54.1789 64.5643 56.4465 59.7038 52.8065C54.7601 49.1043 54.3559 42.0426 52.9961 36.0172C52.3963 33.3675 51.5423 30.8027 50.4331 28.3223C49.3238 25.8424 47.9819 23.4953 46.4062 21.2815C45.3065 19.7381 44.022 18.2126 42.2645 17.504C39.4856 16.3827 36.3354 17.5859 33.7239 19.0552C30.8966 20.6458 28.2014 22.6204 26.3734 25.3006C24.5453 27.9808 23.686 31.4611 24.6948 34.5444C25.4214 36.7635 27.0372 38.6275 27.6322 40.8855C29.0452 46.2501 24.2559 51.2924 19.2955 53.7777C14.3352 56.2623 8.56333 57.6592 4.85457 61.7854C4.58966 62.0802 4.3403 62.384 4.10529 62.6961C5.13264 65.0552 6.35314 67.3097 7.768 69.4595C9.18285 71.6086 10.7711 73.6215 12.5322 75.4974C19.8236 72.7987 27.2267 69.173 30.2041 62.1657C31.1514 59.9376 31.5682 57.4996 32.6505 55.3336C33.7329 53.1671 35.7691 51.2063 38.1903 51.2517C39.4671 51.2757 40.6654 51.8527 41.7657 52.5004C42.8631 53.1498 43.906 53.8775 44.8932 54.6836C45.8811 55.4897 46.8032 56.3652 47.659 57.31C48.5147 58.2548 49.2957 59.2583 50.0007 60.3203C50.7057 61.3829 51.3271 62.4916 51.8653 63.6476C54.9138 70.2345 55.5734 78.7092 61.6933 82.6111C63.1494 83.5392 64.7837 84.0828 66.4814 84.3136C80.5163 76.7412 90.0537 61.9044 90.0537 44.8389C90.0561 42.2274 89.8319 39.6357 89.381 37.0637C88.9301 34.4918 88.2592 31.9784 87.3682 29.5236C86.8856 29.706 86.4072 29.9016 85.9366 30.1168C81.6304 32.0884 77.8864 35.6722 76.5941 40.2277Z" fill="#E8FFD4"/>
</g>
<mask id="mask2_874_3198" style="mask-type:luminance" maskUnits="userSpaceOnUse" x="0" y="0" width="88" height="63">
<path d="M0.684753 0H87.4848V62.7505H0.684753V0Z" fill="white"/>
</mask>
<g mask="url(#mask2_874_3198)">
<path d="M15.2347 29.4781C15.6671 33.676 15.6479 37.8721 15.1767 42.0659C14.9686 43.9161 14.6092 45.887 13.3026 47.2128C12.1975 48.3334 10.6015 48.7963 9.06284 49.1276C6.30848 49.7178 3.52302 50.0222 0.705872 50.0407C0.957627 52.2222 1.36785 54.3732 1.93774 56.4943C2.50703 58.6147 3.23 60.682 4.10547 62.696C4.34108 62.3845 4.59104 62.0807 4.85475 61.7853C8.56351 57.6591 14.3353 56.2622 19.2957 53.7776C24.2561 51.2923 29.0454 46.25 27.6323 40.8854C27.0373 38.6274 25.4216 36.7635 24.695 34.5443C23.6862 31.461 24.5455 27.9807 26.3736 25.3005C28.2016 22.6203 30.8968 20.6457 33.7241 19.0551C36.3355 17.5858 39.4858 16.3826 42.2646 17.5039C44.0222 18.2125 45.3066 19.738 46.4064 21.2814C47.9821 23.4952 49.324 25.8423 50.4332 28.3222C51.5425 30.8026 52.3965 33.3674 52.9962 36.0172C54.3561 42.0425 54.7603 49.1042 59.7039 52.8064C64.5644 56.4464 72.6326 54.1788 74.8852 48.5397C75.9365 45.908 75.8205 42.9545 76.5943 40.2276C77.8865 35.6721 81.6306 32.0883 85.9367 30.1167C86.4074 29.9015 86.8858 29.7059 87.3683 29.5235C86.695 27.6775 85.9038 25.883 84.9955 24.1404C84.0871 22.3984 83.0682 20.7229 81.9397 19.1137C80.8113 17.5051 79.5825 15.9772 78.2531 14.5294C76.9238 13.0823 75.5059 11.7278 73.999 10.4667C73.1582 11.1645 72.4729 11.9904 71.9413 12.9448C71.1484 14.3901 70.8141 16.0352 70.4906 17.6516C69.929 20.455 69.3681 23.2578 68.8066 26.0606C68.5602 27.2906 68.2732 28.5984 67.3792 29.4793C66.2185 30.6227 64.3581 30.6998 62.7776 30.3009C59.6286 29.5074 57.0489 27.1633 55.2884 24.4346C53.5279 21.7054 52.4808 18.5892 51.451 15.509C49.7258 10.3483 48.0006 5.18758 46.2748 0.0268954C45.9274 0.0185235 45.5787 0.0137396 45.2289 0.0137396C43.8607 0.0113476 42.4955 0.0723429 41.1332 0.196128C39.7704 0.319912 38.4166 0.505291 37.0711 0.753458C35.7262 1.00163 34.3951 1.31079 33.0777 1.68095C31.7609 2.0511 30.4638 2.48106 29.1865 2.97082C27.9086 3.46058 26.6564 4.00774 25.4293 4.61231C24.2022 5.21688 23.0057 5.87647 21.839 6.59107C20.6723 7.30568 19.5409 8.0723 18.4448 8.89096C17.3486 9.70961 16.2926 10.5767 15.2766 11.4922C14.9949 12.2624 14.7659 13.0482 14.5895 13.8489C13.4665 18.9684 14.6977 24.2642 15.2347 29.4781Z" fill="#E8FFD4"/>
</g>
<path d="M45.2288 87.2565C21.8394 87.2565 2.81067 68.2277 2.81067 44.839C2.81067 21.4497 21.8394 2.4209 45.2288 2.4209C68.6175 2.4209 87.6463 21.4497 87.6463 44.8384C87.6463 68.2277 68.6175 87.2565 45.2288 87.2565ZM45.2288 2.75637C22.0242 2.75637 3.14614 21.6344 3.14614 44.8384C3.14614 68.0429 22.0242 86.921 45.2288 86.921C68.4327 86.921 87.3108 68.0429 87.3108 44.8384C87.3108 21.6344 68.4327 2.75637 45.2288 2.75637Z" fill="#C7E8B5"/>
<path d="M45.2287 84.2805C23.4797 84.2805 5.78625 66.587 5.78625 44.838C5.78625 23.0895 23.4797 5.39551 45.2287 5.39551C66.9772 5.39551 84.6706 23.0895 84.6706 44.838C84.6706 66.587 66.9772 84.2805 45.2287 84.2805ZM45.2287 5.73098C23.6651 5.73098 6.12113 23.2743 6.12113 44.838C6.12113 66.4022 23.6651 83.945 45.2287 83.945C66.7924 83.945 84.3351 66.4022 84.3351 44.8386C84.3351 23.2743 66.7924 5.73098 45.2287 5.73098Z" fill="#C7E8B5"/>
<path d="M45.2287 81.1479C25.2073 81.1479 8.91913 64.8597 8.91913 44.8383C8.91913 24.8175 25.2073 8.5293 45.2287 8.5293C65.2501 8.5293 81.5383 24.8175 81.5383 44.8383C81.5383 64.8597 65.2501 81.1479 45.2287 81.1479ZM45.2287 8.86417C25.3921 8.86417 9.2546 25.0022 9.2546 44.8383C9.2546 64.6749 25.3921 80.813 45.2287 80.813C65.0648 80.813 81.2028 64.6749 81.2028 44.8383C81.2028 25.0022 65.0648 8.86417 45.2287 8.86417Z" fill="#C7E8B5"/>
<path d="M45.2287 77.9358C26.9786 77.9358 12.1304 63.0888 12.1304 44.838C12.1304 26.5878 26.9786 11.7402 45.2287 11.7402C63.4789 11.7402 78.3265 26.5878 78.3265 44.838C78.3265 63.0888 63.4789 77.9358 45.2287 77.9358ZM45.2287 12.0757C27.1633 12.0757 12.4658 26.7732 12.4658 44.838C12.4658 62.9034 27.1633 77.6003 45.2287 77.6003C63.2935 77.6003 77.991 62.9034 77.991 44.838C77.991 26.7732 63.2935 12.0757 45.2287 12.0757Z" fill="#C7E8B5"/>
<path d="M45.2288 74.8812C28.6631 74.8812 15.1855 61.4042 15.1855 44.838C15.1855 28.2724 28.6631 14.7954 45.2288 14.7954C61.7944 14.7954 75.2714 28.2724 75.2714 44.838C75.2714 61.4042 61.7944 74.8812 45.2288 74.8812ZM45.2288 15.1309C28.8479 15.1309 15.521 28.4578 15.521 44.838C15.521 61.2189 28.8479 74.5458 45.2288 74.5458C61.609 74.5458 74.9359 61.2189 74.9359 44.838C74.9359 28.4578 61.609 15.1309 45.2288 15.1309Z" fill="#C7E8B5"/>
<path d="M45.2287 71.8987C30.307 71.8987 18.1677 59.7594 18.1677 44.8382C18.1677 29.9171 30.307 17.7778 45.2287 17.7778C60.1499 17.7778 72.2892 29.9171 72.2892 44.8382C72.2892 59.7594 60.1499 71.8987 45.2287 71.8987ZM45.2287 18.1133C30.4924 18.1133 18.5032 30.1025 18.5032 44.8382C18.5032 59.5746 30.4924 71.5632 45.2287 71.5632C59.9645 71.5632 71.9537 59.5746 71.9537 44.8382C71.9537 30.1025 59.9645 18.1133 45.2287 18.1133Z" fill="#C7E8B5"/>
<path d="M45.2287 68.7332C32.0525 68.7332 21.3335 58.0136 21.3335 44.838C21.3335 31.6624 32.0525 20.9434 45.2287 20.9434C58.4043 20.9434 69.1234 31.6624 69.1234 44.838C69.1234 58.0136 58.4043 68.7332 45.2287 68.7332ZM45.2287 21.2782C32.2379 21.2782 21.669 31.8472 21.669 44.838C21.669 57.8294 32.2379 68.3978 45.2287 68.3978C58.2195 68.3978 68.7879 57.8294 68.7879 44.838C68.7879 31.8472 58.2195 21.2782 45.2287 21.2782Z" fill="#C7E8B5"/>
<path d="M60.6241 31.9587C60.0016 31.2118 59.3283 30.5139 58.6035 29.8651C57.8793 29.2163 57.1115 28.6243 56.3 28.0879C55.4891 27.5515 54.643 27.0773 53.7621 26.6646C52.8819 26.2526 51.9759 25.9064 51.0449 25.6265V25.62C49.148 25.0465 47.2099 24.76 45.2288 24.7612C34.1402 24.7612 25.1511 33.7497 25.1511 44.8383C25.1511 45.1672 25.1595 45.4955 25.1756 45.8238C25.1924 46.1515 25.2163 46.4792 25.2486 46.8063C25.2815 47.1328 25.3216 47.4593 25.37 47.784C25.4184 48.1087 25.4746 48.4322 25.5386 48.7545C25.6032 49.0769 25.675 49.3974 25.7551 49.7161C25.8352 50.0348 25.9231 50.3512 26.0182 50.6651C26.1139 50.9797 26.2167 51.2918 26.328 51.601C26.4386 51.9102 26.557 52.2163 26.6826 52.5201C26.8088 52.8233 26.9415 53.1235 27.082 53.4207C27.2226 53.7173 27.3703 54.0109 27.5252 54.3003C27.6806 54.5904 27.8421 54.8762 28.0113 55.1579C28.18 55.4395 28.3558 55.717 28.5388 55.9903C28.7211 56.2636 28.9101 56.5321 29.1063 56.7958C29.3018 57.0595 29.5039 57.3184 29.712 57.5726C29.9207 57.8261 30.1354 58.0749 30.3561 58.3183C30.5767 58.5616 30.8028 58.7996 31.0354 59.0317C31.2674 59.2643 31.5054 59.4909 31.7488 59.7116C31.9922 59.9322 32.2409 60.1463 32.4951 60.355C32.7486 60.5631 33.0076 60.7652 33.2713 60.9614C33.5356 61.1569 33.8041 61.3459 34.0768 61.5289C34.3501 61.7113 34.6275 61.8871 34.9092 62.0557C35.1908 62.225 35.4767 62.387 35.7667 62.5419C36.0561 62.6968 36.3498 62.8445 36.6464 62.985C36.9436 63.1255 37.2438 63.2589 37.5469 63.3845C37.8507 63.51 38.1569 63.6284 38.4661 63.7397C38.7758 63.8503 39.0874 63.9532 39.4019 64.0488C39.7159 64.1445 40.0328 64.2318 40.3515 64.3119C40.6697 64.3921 40.9902 64.4638 41.3125 64.5284C41.6348 64.5924 41.9583 64.6486 42.283 64.6971C42.6084 64.7455 42.9343 64.7862 43.2608 64.8185C43.5879 64.8507 43.9156 64.8753 44.2439 64.8914C44.5716 64.9076 44.8999 64.9159 45.2288 64.9159C56.3174 64.9159 65.3064 55.9269 65.3064 44.8383C65.307 44.2552 65.2825 43.6734 65.2329 43.0921C65.1826 42.5109 65.1073 41.9332 65.0068 41.3586C64.9064 40.7839 64.7808 40.2152 64.6301 39.6519C64.4794 39.088 64.3048 38.5324 64.1056 37.9841C63.9059 37.4357 63.6835 36.8975 63.4365 36.3689C63.1901 35.8403 62.921 35.3236 62.6292 34.8183C62.3374 34.3136 62.024 33.822 61.6891 33.3448C61.3543 32.867 60.9991 32.4054 60.6241 31.9587ZM42.7064 44.8383C42.7064 44.7558 42.7106 44.6738 42.7184 44.5913C42.7268 44.5094 42.7387 44.4275 42.7549 44.3467C42.771 44.2654 42.7907 44.1853 42.8147 44.1063C42.8392 44.0274 42.8667 43.9497 42.8984 43.8731C42.9301 43.7972 42.9654 43.7224 43.0042 43.6495C43.0431 43.5765 43.0856 43.5059 43.1316 43.4372C43.177 43.3684 43.2267 43.302 43.2787 43.2386C43.3313 43.1747 43.3869 43.1137 43.445 43.0551C43.5036 42.9965 43.5645 42.9414 43.6285 42.8888C43.6925 42.8362 43.7589 42.7872 43.8271 42.7411C43.8958 42.6957 43.967 42.6532 44.0394 42.6143C44.1123 42.5755 44.1871 42.5402 44.2636 42.5085C44.3395 42.4768 44.4173 42.4487 44.4962 42.4248C44.5758 42.4009 44.6553 42.3811 44.7366 42.365C44.8173 42.3488 44.8993 42.3363 44.9812 42.3285C45.0637 42.3201 45.1462 42.3165 45.2288 42.3165C45.3113 42.3165 45.3938 42.3201 45.4757 42.3285C45.5583 42.3363 45.6396 42.3488 45.7209 42.365C45.8016 42.3811 45.8818 42.4009 45.9607 42.4248C46.0396 42.4487 46.1174 42.4768 46.1939 42.5085C46.2699 42.5402 46.3446 42.5755 46.4176 42.6143C46.4905 42.6532 46.5611 42.6957 46.6299 42.7411C46.6986 42.7872 46.765 42.8362 46.829 42.8888C46.8924 42.9414 46.954 42.9965 47.012 43.0551C47.0706 43.1137 47.1262 43.1747 47.1782 43.2386C47.2308 43.302 47.2799 43.3684 47.3259 43.4372C47.3714 43.5059 47.4138 43.5765 47.4533 43.6495C47.4922 43.7224 47.5275 43.7972 47.5591 43.8731C47.5902 43.9497 47.6183 44.0274 47.6423 44.1063C47.6662 44.1853 47.6865 44.2654 47.7027 44.3467C47.7188 44.4275 47.7308 44.5094 47.7385 44.5913C47.7469 44.6738 47.7511 44.7558 47.7511 44.8383C47.7511 44.9214 47.7469 45.0033 47.7385 45.0858C47.7308 45.1678 47.7188 45.2497 47.7027 45.3304C47.6865 45.4118 47.6662 45.4919 47.6423 45.5708C47.6183 45.6498 47.5902 45.7275 47.5591 45.804C47.5275 45.88 47.4922 45.9547 47.4533 46.0277C47.4138 46.1006 47.372 46.1712 47.3259 46.24C47.2799 46.3087 47.2308 46.3751 47.1782 46.4385C47.1262 46.5025 47.0706 46.5635 47.012 46.6221C46.954 46.6807 46.8924 46.7357 46.829 46.7883C46.765 46.841 46.6986 46.89 46.6299 46.936C46.5611 46.9815 46.4905 47.0239 46.4176 47.0628C46.3446 47.1017 46.2699 47.137 46.1939 47.1687C46.1174 47.2004 46.0396 47.2285 45.9607 47.2524C45.8818 47.2763 45.8016 47.296 45.7209 47.3122C45.6396 47.3283 45.5583 47.3409 45.4757 47.3487C45.3938 47.357 45.3113 47.3606 45.2288 47.3606C45.1462 47.3612 45.0637 47.357 44.9812 47.3493C44.8993 47.3409 44.8173 47.3289 44.7366 47.3128C44.6553 47.2966 44.5752 47.2769 44.4962 47.253C44.4173 47.2291 44.3395 47.201 44.263 47.1699C44.1865 47.1382 44.1117 47.1029 44.0388 47.064C43.9664 47.0251 43.8952 46.9827 43.8265 46.9366C43.7577 46.8906 43.6913 46.8416 43.6279 46.7889C43.564 46.7369 43.5024 46.6813 43.4444 46.6227C43.3857 46.5647 43.3301 46.5031 43.2781 46.4397C43.2255 46.3757 43.1765 46.3093 43.1304 46.2406C43.0844 46.1718 43.0425 46.1012 43.003 46.0283C42.9642 45.9553 42.9289 45.8806 42.8978 45.804C42.8661 45.7281 42.838 45.6504 42.8141 45.5708C42.7901 45.4919 42.7704 45.4118 42.7543 45.331C42.7381 45.2497 42.7262 45.1684 42.7184 45.0858C42.71 45.0039 42.7064 44.9214 42.7064 44.8383Z" fill="#1A1A1A"/>
<path d="M45.2287 61.3727C36.1117 61.3727 28.6942 53.9551 28.6942 44.8381C28.6942 35.7211 36.1117 28.3042 45.2287 28.3042C54.3458 28.3042 61.7633 35.7211 61.7633 44.8381C61.7633 53.9551 54.3458 61.3727 45.2287 61.3727ZM45.2287 28.9751C36.4819 28.9751 29.3652 36.0913 29.3652 44.8381C29.3652 53.5856 36.4819 60.7017 45.2287 60.7017C53.9756 60.7017 61.0923 53.5856 61.0923 44.8381C61.0923 36.0913 53.9756 28.9751 45.2287 28.9751Z" fill="#5ADF93"/>
<path d="M19.1573 51.769L19.7505 53.0679L21.6976 52.1781L22.6209 54.2041L20.6738 55.0939L23.0036 60.2008L22.8792 60.3825L12.4047 60.3634L10.9169 57.0984L18.2483 53.752L17.6551 52.4531L19.1573 51.769ZM20.2935 58.2369L19.131 55.6871L12.8736 58.457L17.9756 58.2322L20.2935 58.2369Z" fill="black"/>
<path d="M18.4136 42.6201L18.5379 44.041L20.6716 43.8544L20.8653 46.0741L18.7317 46.2607L19.2173 51.8507L19.0427 51.9847L9.17814 48.4589L8.86719 44.8829L16.8947 44.1845L16.7703 42.7636L18.4136 42.6201ZM17.3228 49.0976L17.0788 46.3038L10.2569 46.8204L15.1389 48.313L17.3228 49.0976Z" fill="black"/>
<path d="M20.7783 33.7486L20.4195 35.1312L22.4909 35.6694L21.9312 37.8245L19.8598 37.2863L18.4461 42.7161L18.2332 42.7831L10.1172 36.1597L11.0214 32.689L18.8216 34.715L19.1804 33.3324L20.7783 33.7486ZM17.5802 39.4846L18.2858 36.7721L11.684 34.9781L15.7838 38.0183L17.5802 39.4846Z" fill="black"/>
<path d="M19.4325 29.4418C18.8363 30.1833 18.1672 30.5612 17.4257 30.5756C16.683 30.5899 15.9205 30.2832 15.1389 29.6547C14.2778 28.961 13.7982 28.2548 13.699 27.5354C13.5985 26.8148 13.8323 26.1014 14.3998 25.3946C14.9613 24.6961 15.6006 24.323 16.3182 24.2751C17.0358 24.2273 17.8299 24.5538 18.7006 25.2534C20.3606 26.5882 20.6046 27.9845 19.4325 29.4418ZM18.5379 20.4097L19.5832 19.1108L24.7451 31.5993L23.7022 32.8958L18.5379 20.4097ZM18.4279 28.6548C18.6689 28.3552 18.7024 28.0544 18.5284 27.753C18.3532 27.4517 18.0285 27.1114 17.5548 26.7317C17.1901 26.4369 16.8767 26.2216 16.6148 26.0858C16.3535 25.9489 16.1215 25.8915 15.9187 25.9136C15.7166 25.9363 15.5354 26.047 15.3758 26.2461C15.1479 26.5284 15.1102 26.825 15.2633 27.1359C15.4152 27.4469 15.7531 27.8146 16.2775 28.2386C16.7607 28.6261 17.1781 28.8701 17.5285 28.9706C17.8796 29.0698 18.1791 28.9646 18.4279 28.6548ZM29.0555 26.6456C28.4557 27.3919 27.7841 27.771 27.0414 27.7818C26.2999 27.7913 25.5357 27.4798 24.7499 26.8465C23.8936 26.1594 23.4116 25.4562 23.3051 24.7368C23.1999 24.018 23.4307 23.3058 23.9988 22.6007C24.5597 21.9023 25.2032 21.5291 25.9291 21.4813C26.6545 21.4323 27.4528 21.7564 28.3235 22.4548C29.0997 23.0803 29.5697 23.7441 29.7324 24.4473C29.8962 25.1494 29.6708 25.8819 29.0555 26.6456ZM28.003 25.8658C28.1764 25.6493 28.2452 25.4346 28.2087 25.2223C28.1734 25.0106 28.0676 24.8061 27.8906 24.61C27.7136 24.4138 27.4684 24.1902 27.1562 23.9378C26.6073 23.4977 26.166 23.2322 25.8311 23.1413C25.4974 23.0504 25.2151 23.1485 24.9843 23.4355C24.7499 23.7262 24.7098 24.024 24.8647 24.3301C25.019 24.6363 25.3652 25.0065 25.9028 25.44C26.3794 25.8227 26.7867 26.0655 27.1251 26.1672C27.4648 26.2694 27.7572 26.169 28.003 25.8658Z" fill="black"/>
<path d="M38.917 12.34C39.7141 12.0948 40.3958 12.1654 40.9621 12.5529C41.5278 12.9392 41.9548 13.6 42.2418 14.5358L43.8875 19.8819L41.8256 20.5158L40.2469 15.3802C40.1016 14.9102 39.8959 14.5693 39.6298 14.3588C39.3649 14.1471 39.0461 14.0981 38.673 14.2129C38.4176 14.2912 38.1952 14.4306 38.0056 14.6315C37.8155 14.8324 37.6857 15.0704 37.6157 15.3443C37.5452 15.617 37.5547 15.8963 37.6444 16.1815L39.2231 21.3171L37.1445 21.9557L35.5658 16.8202C35.4235 16.3609 35.207 16.0206 34.9152 15.7988C34.6246 15.5775 34.2933 15.5237 33.9201 15.6385C33.6582 15.7186 33.4399 15.858 33.2647 16.0571C33.0889 16.2568 32.9729 16.4942 32.9155 16.7699C32.8593 17.0462 32.8772 17.3296 32.9681 17.6215L34.5468 22.757L32.4658 23.3957L29.9758 15.3036L31.8439 14.7296L32.2242 15.7892C32.5095 14.7738 33.1744 14.1053 34.2191 13.7847C34.7627 13.6173 35.2537 13.597 35.6926 13.7225C36.1309 13.8487 36.5118 14.1112 36.836 14.5095C37.1021 13.408 37.7957 12.6844 38.917 12.34Z" fill="black"/>
<path d="M47.5234 20.8365C46.6988 20.7612 46.0117 20.522 45.4615 20.1189C44.9114 19.7159 44.5131 19.1717 44.2679 18.4876C44.0239 17.8035 43.9432 17.0016 44.0263 16.0813C44.1088 15.1628 44.3361 14.3878 44.708 13.7563C45.0812 13.1236 45.5811 12.6602 46.2078 12.3666C46.8345 12.0735 47.5599 11.9635 48.3845 12.0365C49.2026 12.11 49.8819 12.3522 50.4225 12.7636C50.9631 13.1738 51.3506 13.7216 51.585 14.4069C51.8194 15.0928 51.8965 15.8846 51.817 16.7821C51.7357 17.6755 51.512 18.4398 51.1472 19.076C50.7819 19.7123 50.2909 20.1829 49.6738 20.4873C49.0578 20.7935 48.3414 20.9095 47.5234 20.8365ZM47.7076 19.1454C48.2338 19.1933 48.6536 19.0013 48.9681 18.5689C49.2821 18.1354 49.48 17.4722 49.5614 16.5788C49.6409 15.6812 49.5649 14.9906 49.3341 14.5074C49.1027 14.0242 48.7242 13.7587 48.1979 13.7108C47.646 13.6618 47.2088 13.8418 46.8871 14.2514C46.5666 14.6599 46.3639 15.3374 46.2796 16.2846C46.1935 17.2336 46.2712 17.9351 46.514 18.3896C46.758 18.844 47.1556 19.0964 47.7076 19.1454Z" fill="black"/>
<path d="M54.6383 13.3726L56.4419 14.028L56.0305 15.4679C56.3492 15.1223 56.7457 14.8675 57.2193 14.7049C57.6941 14.541 58.2676 14.5805 58.9391 14.8245C59.207 14.922 59.4372 15.0541 59.6304 15.2216L58.4225 17.1519C58.3615 17.0293 58.2765 16.9246 58.1665 16.8385C58.0565 16.7524 57.9118 16.6771 57.7336 16.6113C57.3604 16.4761 57.01 16.4385 56.6835 16.4989C56.3564 16.5581 56.0867 16.6663 55.875 16.8242C55.6645 16.982 55.5353 17.128 55.4875 17.2619L53.7461 22.0554L51.7488 21.3283L54.6383 13.3726Z" fill="black"/>
<path d="M59.2685 25.1831C58.5138 24.6665 58.0008 24.0804 57.7281 23.425C57.4566 22.7696 57.3914 22.0951 57.5319 21.4014C57.6737 20.7077 57.9768 20.0224 58.4409 19.3443C58.9145 18.6524 59.473 18.1095 60.1177 17.7154C60.7617 17.3219 61.4434 17.1258 62.1628 17.127C62.8834 17.1288 63.5824 17.3608 64.2606 17.823C65.2712 18.5155 65.7944 19.3013 65.8297 20.1815C65.8662 21.0618 65.4888 22.0795 64.6983 23.2337C64.5452 23.4585 64.364 23.7049 64.1553 23.9728L59.9454 21.0952C59.5849 21.6789 59.4437 22.2219 59.5221 22.7242C59.5998 23.2277 59.9173 23.6702 60.4741 24.0517C60.7641 24.2491 61.1187 24.3974 61.5385 24.4966C61.9595 24.5953 62.3117 24.6079 62.5957 24.5349L62.2465 26.25C61.2849 26.2386 60.2923 25.8828 59.2685 25.1831ZM63.1483 21.6765C63.6183 20.9894 63.8569 20.4584 63.8635 20.0834C63.8695 19.7073 63.7116 19.4089 63.3899 19.1888C62.9354 18.8779 62.4678 18.8055 61.9882 18.9712C61.5098 19.1356 61.0733 19.4747 60.6798 19.9878L63.1483 21.6765Z" fill="black"/>
<path d="M65.3642 31.2333C64.9079 30.5636 64.6328 29.9811 64.5389 29.4872C64.4445 28.9926 64.4397 28.6003 64.5246 28.3103L66.2133 27.9204C66.1254 28.8581 66.3114 29.6642 66.7706 30.3387C66.9776 30.6431 67.194 30.8273 67.4189 30.8913C67.6437 30.9546 67.847 30.9247 68.0288 30.8004C68.2262 30.6664 68.3212 30.4141 68.3135 30.0445C68.3051 29.6761 68.2405 29.1666 68.1197 28.516C68.0414 28.0968 67.9977 27.7147 67.9882 27.3703C67.9798 27.0258 68.0486 26.676 68.1939 26.3202C68.3386 25.965 68.6011 25.6576 68.9808 25.3993C69.4018 25.1122 69.8402 24.9663 70.2964 24.9615C70.7521 24.9568 71.1994 25.0967 71.6383 25.3801C72.0784 25.6624 72.4881 26.0822 72.8678 26.6383C73.0938 26.972 73.2702 27.3099 73.3964 27.6525C73.5238 27.9958 73.6051 28.3043 73.6404 28.5806C73.6751 28.8581 73.6775 29.0757 73.6476 29.2336L72.0593 29.6187C72.0749 29.2898 72.0456 28.9472 71.9708 28.5902C71.8955 28.2344 71.7579 27.9097 71.557 27.6142C71.3178 27.2638 71.1031 27.0473 70.9136 26.966C70.7252 26.8847 70.5266 26.9158 70.3179 27.0593C70.1075 27.2028 70.0022 27.4271 70.0022 27.7315C70.0034 28.0364 70.0668 28.4646 70.1912 29.0183C70.3694 29.8155 70.4041 30.4978 70.294 31.0659C70.184 31.6352 69.8856 32.0854 69.3994 32.4173C68.991 32.6948 68.5587 32.8533 68.103 32.8933C67.6467 32.9328 67.1809 32.8216 66.7061 32.5585C66.2325 32.2953 65.7852 31.8534 65.3642 31.2333Z" fill="black"/>
<path d="M67.799 35.8332C67.6315 35.356 67.5968 34.9177 67.6961 34.5176C67.7966 34.1169 67.9987 33.7713 68.3037 33.4795C68.6098 33.1889 68.9884 32.9652 69.4399 32.8073C69.8285 32.6722 70.2627 32.6656 70.7411 32.7882C71.2195 32.9114 71.711 33.2558 72.2169 33.8239C72.724 34.3914 73.1743 35.24 73.5684 36.369L73.9368 36.2422C74.3751 36.0873 74.6771 35.8625 74.8433 35.5677C75.0108 35.2723 75.0012 34.8597 74.8146 34.3286C74.6693 33.9124 74.4564 33.5297 74.176 33.1805C73.8949 32.8331 73.6168 32.6016 73.3412 32.4868L74.6591 31.3052C75.0323 31.5826 75.3989 31.9618 75.7595 32.4414C76.1194 32.9216 76.4065 33.4663 76.6206 34.0775C76.8885 34.8411 76.9823 35.4869 76.9028 36.015C76.8245 36.5442 76.6026 36.9748 76.2378 37.3066C75.8743 37.6379 75.3767 37.9148 74.7453 38.1367L69.4997 39.9737L68.8969 38.2563L69.9876 37.7133C69.4279 37.5901 68.9674 37.3742 68.6074 37.0651C68.2486 36.7571 67.979 36.3463 67.799 35.8332ZM69.6336 36.1417C69.7197 36.3887 69.9093 36.6136 70.2029 36.8163C70.4959 37.0202 70.8206 37.1512 71.1764 37.2086L72.315 36.8091C72.3007 36.7308 72.2612 36.5998 72.1978 36.4168C72.0076 35.8774 71.7487 35.4265 71.4204 35.063C71.0915 34.6994 70.7273 34.5876 70.3273 34.7281C69.9475 34.862 69.706 35.0414 69.6025 35.2663C69.4985 35.4923 69.5092 35.7841 69.6336 36.1417Z" fill="black"/>
<path d="M77.9342 38.749L78.0921 41.1243L73.9683 42.868L72.6025 43.332L74.0162 43.5784L78.3313 44.705L78.482 46.9415L69.8182 44.2482L69.7178 42.7412L77.9342 38.749Z" fill="black"/>
<path d="M69.0043 50.3678C69.1957 49.4744 69.5425 48.7771 70.0448 48.2748C70.5471 47.7737 71.1457 47.4567 71.8412 47.3228C72.5361 47.1888 73.2859 47.208 74.0896 47.3802C74.9107 47.5536 75.6253 47.864 76.2328 48.3107C76.8416 48.7568 77.2829 49.3135 77.5556 49.9803C77.8295 50.6464 77.8815 51.3808 77.7111 52.1833C77.4557 53.3804 76.9277 54.1638 76.1276 54.5322C75.3269 54.9017 74.2415 54.9412 72.8721 54.6494C72.6054 54.592 72.3088 54.5166 71.9823 54.4245L73.0443 49.4373C72.365 49.3272 71.8077 49.4038 71.3724 49.6669C70.937 49.93 70.6488 50.3917 70.5089 51.0519C70.4371 51.3945 70.4347 51.779 70.5017 52.2048C70.5698 52.6318 70.693 52.963 70.87 53.1975L69.1502 53.5252C68.795 52.6336 68.746 51.5811 69.0043 50.3678ZM73.7213 52.621C74.5357 52.7944 75.1182 52.813 75.4674 52.676C75.8178 52.5385 76.0343 52.2795 76.1156 51.8986C76.2305 51.3592 76.1204 50.8994 75.7855 50.5184C75.4507 50.1387 74.9705 49.8636 74.3456 49.6932L73.7213 52.621Z" fill="black"/>
<path d="M67.0162 56.0741C67.3882 55.3529 67.7691 54.8332 68.1596 54.5145C68.5507 54.197 68.8939 54.0056 69.1905 53.9404L70.3363 55.2417C69.4686 55.61 68.8473 56.1566 68.4729 56.8826C68.3043 57.2091 68.2457 57.4865 68.2983 57.715C68.3498 57.9428 68.4729 58.1073 68.6691 58.2077C68.8808 58.3177 69.1475 58.2807 69.468 58.0977C69.7885 57.9159 70.2059 57.6169 70.7214 57.2007C71.0515 56.931 71.3654 56.7109 71.6638 56.5405C71.9634 56.3695 72.3037 56.2636 72.6852 56.2224C73.0679 56.1805 73.4632 56.2654 73.8716 56.4759C74.3225 56.7103 74.6592 57.0261 74.881 57.4231C75.1041 57.8202 75.195 58.2795 75.1537 58.8009C75.1137 59.3224 74.939 59.8827 74.6299 60.4825C74.4445 60.8395 74.2316 61.1552 73.9912 61.4297C73.752 61.7054 73.5182 61.9248 73.2904 62.0875C73.0637 62.2502 72.8742 62.3554 72.7211 62.4032L71.628 61.1905C71.9228 61.05 72.2092 60.8616 72.4867 60.626C72.7653 60.3898 72.9866 60.1141 73.1493 59.7984C73.3454 59.4187 73.4339 59.1268 73.4148 58.9229C73.3956 58.7184 73.2736 58.5581 73.0488 58.4421C72.8221 58.3237 72.574 58.3375 72.3049 58.4828C72.037 58.6293 71.6901 58.8882 71.2644 59.2602C70.6484 59.7972 70.0642 60.153 69.5111 60.327C68.9591 60.5004 68.4221 60.4526 67.8989 60.1835C67.4605 59.9568 67.1155 59.6525 66.8631 59.2698C66.6114 58.8882 66.4888 58.4266 66.4948 57.8848C66.4996 57.3424 66.6736 56.739 67.0162 56.0741Z" fill="black"/>
</svg>
