<svg width="91" height="91" viewBox="0 0 91 91" fill="none" xmlns="http://www.w3.org/2000/svg">
<mask id="mask0_874_2954" style="mask-type:luminance" maskUnits="userSpaceOnUse" x="0" y="0" width="91" height="91">
<path d="M0 0H90.3935V90.3935H0V0Z" fill="white"/>
</mask>
<g mask="url(#mask0_874_2954)">
<path d="M87.6761 29.7615C87.4826 29.2316 87.2794 28.7048 87.0666 28.1821C86.8539 27.6595 86.6314 27.1411 86.3987 26.6269C86.1666 26.1127 85.9249 25.6027 85.6735 25.0975C85.4222 24.5918 85.1611 24.0914 84.8911 23.5959C84.621 23.1004 84.3419 22.6103 84.0538 22.125C83.765 21.6404 83.4678 21.1605 83.161 20.6867C82.8548 20.2129 82.5395 19.7445 82.2158 19.2828C81.8921 18.8204 81.5593 18.3647 81.2181 17.915C80.8775 17.4653 80.5279 17.0222 80.1704 16.5852C79.813 16.1487 79.447 15.7189 79.0733 15.2957C78.7002 14.8732 78.3186 14.4572 77.9292 14.0485C77.5397 13.6398 77.1431 13.2389 76.7392 12.8447C76.3347 12.451 75.923 12.0652 75.5046 11.6867C75.0857 11.3081 74.6601 10.938 74.2279 10.5751C73.795 10.2128 73.3556 9.85894 72.9101 9.51232C72.464 9.1663 72.0119 8.82933 71.5538 8.50019C71.095 8.17105 70.6309 7.85035 70.1601 7.5387C69.6899 7.22704 69.2136 6.92443 68.732 6.63025C68.2497 6.33668 67.7627 6.05155 67.2702 5.77606C66.7777 5.50057 66.2803 5.23413 65.7782 4.97673C65.2754 4.71993 64.7685 4.47217 64.2567 4.23466C63.7449 3.99655 63.2289 3.76808 62.7086 3.54926C62.1884 3.33044 61.6646 3.12186 61.1365 2.92233C60.6084 2.7234 60.0768 2.53412 59.5414 2.35508C59.0061 2.17604 58.4678 2.00665 57.9265 1.84751C57.3852 1.68836 56.8408 1.53947 56.2941 1.40082C55.7467 1.26217 55.1976 1.13377 54.6454 1.01562C54.0938 0.897469 53.5398 0.790167 52.984 0.692511C52.4276 0.594855 51.8706 0.50805 51.3112 0.431492C50.7518 0.354934 50.1918 0.289227 49.6299 0.233768C49.0687 0.178309 48.5057 0.133098 47.9427 0.0987372C47.3796 0.0643767 46.8154 0.040264 46.2512 0.0270021C45.9009 0.0185626 45.5495 0.0137401 45.1968 0.0137401C43.8176 0.0113289 42.4414 0.0728161 41.0681 0.197599C39.6943 0.321779 38.3295 0.509255 36.9732 0.759424C35.6175 1.00959 34.2756 1.32125 32.9476 1.69439C31.6202 2.06754 30.3127 2.50096 29.0251 2.99467C27.7369 3.48837 26.4746 4.03995 25.2376 4.6494C24.0006 5.25885 22.7944 5.92375 21.6183 6.64412C20.4422 7.36448 19.3016 8.13729 18.1967 8.96255C17.0917 9.7878 16.0271 10.6619 15.003 11.5848C5.79976 19.8566 0.0103149 31.8515 0.0103149 45.2002C0.0109179 46.9538 0.112794 48.702 0.314737 50.4441C0.452782 51.6359 0.637847 52.8204 0.870534 53.9978C1.10322 55.1751 1.38233 56.3409 1.70845 57.4959C2.03397 58.6509 2.40591 59.7908 2.82306 60.9163C3.2396 62.0411 3.70136 63.1479 4.20652 64.236C4.71228 65.3247 5.26024 66.3911 5.85161 67.4351C6.44237 68.4798 7.07351 69.4986 7.74626 70.4926C8.4184 71.4867 9.12972 72.4524 9.87902 73.3891C10.6283 74.3265 11.4144 75.232 12.2366 76.106C20.4802 84.8945 32.1965 90.3862 45.1968 90.3862C47.0589 90.3892 48.9144 90.2764 50.7632 90.0492C52.6115 89.8213 54.4386 89.4801 56.2446 89.0256C58.0513 88.5705 59.8224 88.0062 61.5579 87.3317C63.294 86.6565 64.9819 85.8771 66.6209 84.9928C80.7684 77.3599 90.3833 62.4034 90.3833 45.2002C90.3858 42.5677 90.1597 39.9551 89.7052 37.3624C89.2507 34.7697 88.5743 32.2361 87.6761 29.7615Z" fill="#CFF3C3"/>
</g>
<mask id="mask1_874_2954" style="mask-type:luminance" maskUnits="userSpaceOnUse" x="3" y="17" width="88" height="69">
<path d="M3.68866 17.1147H90.3936V85.016H3.68866V17.1147Z" fill="white"/>
</mask>
<g mask="url(#mask1_874_2954)">
<path d="M76.8151 40.5522C76.0351 43.3011 76.152 46.2784 75.0922 48.9314C72.8214 54.6159 64.6882 56.9018 59.7885 53.2325C54.8051 49.5004 54.3976 42.3818 53.0268 36.3078C52.4221 33.6367 51.5613 31.0512 50.4431 28.5508C49.3249 26.0509 47.9721 23.6848 46.3837 21.4532C45.2751 19.8973 43.9803 18.3595 42.2086 17.6452C39.4073 16.5149 36.2317 17.7278 33.5992 19.2089C30.7491 20.8124 28.0322 22.8029 26.1894 25.5047C24.3466 28.2065 23.4803 31.7149 24.4973 34.8231C25.2297 37.0601 26.8585 38.9391 27.4583 41.2153C28.8828 46.6232 24.0548 51.7061 19.0544 54.2114C14.0541 56.7161 8.2357 58.1243 4.49703 62.2838C4.22998 62.5809 3.97861 62.8872 3.7417 63.2018C4.77734 65.58 6.00769 67.8526 7.43395 70.0197C8.86021 72.1862 10.4613 74.2153 12.2366 76.1063C19.5867 73.3858 27.0496 69.731 30.051 62.6671C31.0059 60.4211 31.426 57.9634 32.5171 55.78C33.6082 53.596 35.6608 51.6193 38.1016 51.6651C39.3886 51.6893 40.5967 52.271 41.7059 52.9238C42.812 53.5785 43.8633 54.3121 44.8586 55.1247C45.8544 55.9373 46.784 56.8198 47.6466 57.7723C48.5093 58.7247 49.2965 59.7363 50.0073 60.8069C50.718 61.8781 51.3443 62.9957 51.8868 64.1609C54.96 70.801 55.6249 79.3441 61.7941 83.2774C63.262 84.213 64.9095 84.761 66.6209 84.9937C80.769 77.3602 90.3833 62.4037 90.3833 45.2005C90.3857 42.568 90.1596 39.9554 89.7051 37.3627C89.2506 34.77 88.5742 32.2364 87.676 29.7618C87.1896 29.9457 86.7073 30.1428 86.2329 30.3598C81.892 32.3473 78.1178 35.96 76.8151 40.5522Z" fill="#E8FFD4"/>
</g>
<mask id="mask2_874_2954" style="mask-type:luminance" maskUnits="userSpaceOnUse" x="0" y="0" width="88" height="64">
<path d="M0.293579 0H87.7936V63.2565H0.293579V0Z" fill="white"/>
</mask>
<g mask="url(#mask2_874_2954)">
<path d="M14.9608 29.7157C15.3967 33.9475 15.3774 38.1774 14.9024 42.405C14.6926 44.2701 14.3303 46.257 13.0131 47.5934C11.8991 48.7231 10.2902 49.1897 8.73918 49.5237C5.96261 50.1186 3.15469 50.4255 0.314819 50.4442C0.568605 52.6432 0.982137 54.8116 1.55662 56.9497C2.1305 59.0873 2.85931 61.1713 3.74183 63.2016C3.97934 62.8875 4.23132 62.5813 4.49716 62.2835C8.23583 58.124 14.0542 56.7159 19.0546 54.2112C24.0549 51.7058 28.8829 46.6229 27.4584 41.215C26.8586 38.9388 25.2298 37.0598 24.4974 34.8228C23.4805 31.7146 24.3467 28.2063 26.1895 25.5044C28.0323 22.8026 30.7492 20.8121 33.5993 19.2086C36.2318 17.7275 39.4075 16.5146 42.2088 17.6449C43.9804 18.3593 45.2753 19.8976 46.3839 21.4529C47.9723 23.6845 49.325 26.0506 50.4432 28.5505C51.5614 31.0509 52.4223 33.6364 53.0269 36.3075C54.3977 42.3815 54.8052 49.5001 59.7887 53.2322C64.6884 56.9015 72.8216 54.6156 75.0924 48.9311C76.1521 46.2781 76.0352 43.3008 76.8152 40.5519C78.1179 35.9597 81.8922 32.347 86.233 30.3595C86.7075 30.1425 87.1897 29.9454 87.6762 29.7615C86.9974 27.9006 86.1999 26.0916 85.2842 24.335C84.3685 22.579 83.3413 20.8899 82.2038 19.2677C81.0663 17.6461 79.8275 16.1059 78.4874 14.6465C77.1474 13.1877 75.7181 11.8223 74.199 10.551C73.3515 11.2545 72.6606 12.0869 72.1247 13.049C71.3254 14.506 70.9884 16.1644 70.6623 17.7938C70.0962 20.6198 69.5308 23.4452 68.9648 26.2706C68.7164 27.5106 68.427 28.8296 67.5258 29.7169C66.3558 30.8695 64.4804 30.9473 62.8872 30.5452C59.7127 29.7452 57.1122 27.3822 55.3375 24.6316C53.5628 21.8803 52.5073 18.739 51.4692 15.6339C49.7301 10.4316 47.991 5.22931 46.2512 0.0270021C45.901 0.0185626 45.5496 0.0137401 45.1969 0.0137401C43.8177 0.0113289 42.4414 0.0728161 41.0682 0.197599C39.6944 0.322382 38.3296 0.509255 36.9733 0.759424C35.6176 1.00959 34.2757 1.32125 32.9477 1.69439C31.6203 2.06754 30.3128 2.50096 29.0252 2.99467C27.7369 3.48837 26.4746 4.03995 25.2377 4.6494C24.0007 5.25885 22.7944 5.92375 21.6184 6.64412C20.4423 7.36448 19.3017 8.13729 18.1968 8.96255C17.0918 9.78781 16.0272 10.6619 15.003 11.5848C14.7191 12.3612 14.4882 13.1533 14.3104 13.9605C13.1783 19.1212 14.4195 24.4598 14.9608 29.7157Z" fill="#E8FFD4"/>
</g>
<path d="M45.1968 87.9602C21.6188 87.9602 2.43658 68.778 2.43658 45.2006C2.43658 21.6226 21.6188 2.44043 45.1968 2.44043C68.7741 2.44043 87.9563 21.6226 87.9563 45.2006C87.9563 68.778 68.7741 87.9602 45.1968 87.9602ZM45.1968 2.77861C21.8051 2.77861 2.77476 21.8089 2.77476 45.2006C2.77476 68.5917 21.8051 87.622 45.1968 87.622C68.5878 87.622 87.6182 68.5917 87.6182 45.2006C87.6182 21.8089 68.5878 2.77861 45.1968 2.77861Z" fill="#C7E8B5"/>
<path d="M45.1968 84.9606C23.2724 84.9606 5.43622 67.1244 5.43622 45.2006C5.43622 23.2762 23.2724 5.43945 45.1968 5.43945C67.1206 5.43945 84.9567 23.2762 84.9567 45.2006C84.9567 67.1244 67.1206 84.9606 45.1968 84.9606ZM45.1968 5.77763C23.4592 5.77763 5.7738 23.4625 5.7738 45.2006C5.7738 66.9382 23.4592 84.6224 45.1968 84.6224C66.9343 84.6224 84.6186 66.9382 84.6186 45.2006C84.6186 23.4625 66.9343 5.77763 45.1968 5.77763Z" fill="#C7E8B5"/>
<path d="M45.1968 81.8024C25.0139 81.8024 8.59436 65.3828 8.59436 45.2006C8.59436 25.0177 25.0139 8.59814 45.1968 8.59814C65.3797 8.59814 81.7992 25.0177 81.7992 45.2006C81.7992 65.3828 65.3797 81.8024 45.1968 81.8024ZM45.1968 8.93572C25.2001 8.93572 8.93254 25.2039 8.93254 45.2006C8.93254 65.1966 25.2001 81.4648 45.1968 81.4648C65.1928 81.4648 81.461 65.1966 81.461 45.2006C81.461 25.2039 65.1928 8.93572 45.1968 8.93572Z" fill="#C7E8B5"/>
<path d="M45.1968 78.5648C26.7994 78.5648 11.8315 63.5981 11.8315 45.2007C11.8315 26.8028 26.7994 11.8354 45.1968 11.8354C63.5941 11.8354 78.5614 26.8028 78.5614 45.2007C78.5614 63.5981 63.5941 78.5648 45.1968 78.5648ZM45.1968 12.1736C26.9857 12.1736 12.1697 26.9897 12.1697 45.2007C12.1697 63.4112 26.9857 78.2266 45.1968 78.2266C63.4072 78.2266 78.2233 63.4112 78.2233 45.2007C78.2233 26.9897 63.4072 12.1736 45.1968 12.1736Z" fill="#C7E8B5"/>
<path d="M45.1967 75.4854C28.4975 75.4854 14.9113 61.8998 14.9113 45.2005C14.9113 28.5007 28.4975 14.915 45.1967 14.915C61.896 14.915 75.4816 28.5007 75.4816 45.2005C75.4816 61.8998 61.896 75.4854 45.1967 75.4854ZM45.1967 15.2532C28.6838 15.2532 15.2494 28.6876 15.2494 45.2005C15.2494 61.7129 28.6838 75.1472 45.1967 75.1472C61.7091 75.1472 75.1435 61.7129 75.1435 45.2005C75.1435 28.6876 61.7091 15.2532 45.1967 15.2532Z" fill="#C7E8B5"/>
<path d="M45.1967 72.4787C30.1547 72.4787 17.9175 60.2415 17.9175 45.2006C17.9175 30.1586 30.1547 17.9214 45.1967 17.9214C60.2382 17.9214 72.4754 30.1586 72.4754 45.2006C72.4754 60.2415 60.2382 72.4787 45.1967 72.4787ZM45.1967 18.2596C30.3415 18.2596 18.2557 30.3454 18.2557 45.2006C18.2557 60.0552 30.3415 72.1405 45.1967 72.1405C60.0513 72.1405 72.1372 60.0552 72.1372 45.2006C72.1372 30.3454 60.0513 18.2596 45.1967 18.2596Z" fill="#C7E8B5"/>
<path d="M45.1968 69.2881C31.9143 69.2881 21.1088 58.482 21.1088 45.2007C21.1088 31.9183 31.9143 21.1128 45.1968 21.1128C58.4786 21.1128 69.2841 31.9183 69.2841 45.2007C69.2841 58.482 58.4786 69.2881 45.1968 69.2881ZM45.1968 21.4504C32.1012 21.4504 21.447 32.1045 21.447 45.2007C21.447 58.2963 32.1012 68.9499 45.1968 68.9499C58.2924 68.9499 68.9459 58.2963 68.9459 45.2007C68.9459 32.1045 58.2924 21.4504 45.1968 21.4504Z" fill="#C7E8B5"/>
<path d="M60.7163 32.2164C60.0888 31.4635 59.41 30.76 58.6794 30.106C57.9494 29.4525 57.1753 28.8551 56.3573 28.3144C55.5399 27.7737 54.6869 27.2956 53.799 26.8797C52.9116 26.4644 51.9984 26.1153 51.0598 25.8332V25.8266C49.1476 25.2485 47.1939 24.9597 45.1968 24.9609C34.0188 24.9609 24.9572 34.0219 24.9572 45.2005C24.9572 45.5314 24.9657 45.8624 24.9819 46.1933C24.9988 46.5237 25.0229 46.854 25.0555 47.1838C25.0886 47.5129 25.129 47.842 25.1778 48.1694C25.2267 48.4967 25.2833 48.8228 25.3478 49.1477C25.4129 49.4727 25.4853 49.7958 25.5661 50.1171C25.6468 50.4384 25.7355 50.7573 25.8313 51.0737C25.9277 51.3908 26.0314 51.7055 26.1436 52.0172C26.2551 52.3288 26.3744 52.6374 26.501 52.9437C26.6282 53.2493 26.762 53.5519 26.9037 53.8515C27.0454 54.1511 27.1943 54.4465 27.3504 54.7389C27.5071 55.0306 27.6699 55.3188 27.8405 55.6027C28.0105 55.8866 28.1877 56.1663 28.3722 56.4418C28.556 56.7173 28.7465 56.988 28.9442 57.2538C29.1414 57.5197 29.3451 57.7807 29.5549 58.0369C29.7653 58.2925 29.9817 58.5432 30.2041 58.7886C30.4266 59.0339 30.6544 59.2739 30.8889 59.5077C31.1228 59.7422 31.3627 59.9707 31.6081 60.1931C31.8534 60.4156 32.1042 60.6314 32.3604 60.8418C32.616 61.0516 32.877 61.2553 33.1429 61.453C33.4093 61.6502 33.68 61.8406 33.9549 62.0251C34.2303 62.209 34.51 62.3862 34.794 62.5562C35.0779 62.7268 35.366 62.8902 35.6584 63.0463C35.9502 63.2024 36.2462 63.3513 36.5452 63.493C36.8448 63.6346 37.1474 63.7691 37.453 63.8956C37.7592 64.0222 38.0679 64.1416 38.3795 64.2537C38.6918 64.3652 39.0059 64.4689 39.3229 64.5654C39.6394 64.6618 39.9589 64.7498 40.2802 64.8306C40.6009 64.9114 40.924 64.9837 41.2489 65.0488C41.5738 65.1133 41.9 65.17 42.2273 65.2188C42.5552 65.2677 42.8838 65.3086 43.2129 65.3412C43.5426 65.3738 43.873 65.3985 44.2039 65.4147C44.5343 65.431 44.8652 65.4395 45.1968 65.4395C56.3748 65.4395 65.4363 56.3779 65.4363 45.2005C65.4369 44.6122 65.4122 44.0256 65.3622 43.4397C65.3116 42.8537 65.2356 42.2714 65.1343 41.6921C65.0331 41.1128 64.9065 40.5395 64.7546 39.9717C64.6026 39.4032 64.4266 38.8432 64.2259 38.2904C64.0245 37.7382 63.8003 37.1951 63.5513 36.6622C63.303 36.1293 63.0317 35.6085 62.7375 35.0997C62.4434 34.5903 62.1275 34.0948 61.7899 33.6138C61.4523 33.1321 61.0942 32.6667 60.7163 32.2164ZM42.6541 45.2005C42.6541 45.1167 42.6583 45.0341 42.6662 44.9509C42.6746 44.8684 42.6866 44.7858 42.7029 44.7044C42.7192 44.6224 42.7391 44.5416 42.7632 44.4621C42.7879 44.3825 42.8157 44.3041 42.8476 44.227C42.8795 44.1504 42.9151 44.075 42.9543 44.0015C42.9935 43.928 43.0363 43.8568 43.0827 43.7875C43.1285 43.7182 43.1785 43.6513 43.231 43.5874C43.284 43.5229 43.3401 43.4614 43.3986 43.4023C43.4576 43.3432 43.5191 43.2878 43.5836 43.2347C43.6481 43.1817 43.7151 43.1322 43.7838 43.0858C43.8531 43.04 43.9248 42.9972 43.9978 42.958C44.0713 42.9188 44.1467 42.8833 44.2238 42.8513C44.3004 42.8194 44.3788 42.791 44.4583 42.7669C44.5385 42.7428 44.6187 42.7229 44.7007 42.7067C44.782 42.6904 44.8646 42.6777 44.9472 42.6699C45.0304 42.6614 45.1136 42.6578 45.1968 42.6578C45.28 42.6578 45.3632 42.6614 45.4457 42.6699C45.5289 42.6777 45.6109 42.6904 45.6929 42.7067C45.7743 42.7229 45.8551 42.7428 45.9346 42.7669C46.0142 42.791 46.0926 42.8194 46.1697 42.8513C46.2463 42.8833 46.3216 42.9188 46.3952 42.958C46.4687 42.9972 46.5399 43.04 46.6092 43.0858C46.6785 43.1322 46.7454 43.1817 46.8099 43.2347C46.8738 43.2878 46.9359 43.3432 46.9944 43.4023C47.0534 43.4614 47.1095 43.5229 47.162 43.5874C47.215 43.6513 47.2644 43.7182 47.3109 43.7875C47.3567 43.8568 47.3995 43.928 47.4393 44.0015C47.4784 44.075 47.514 44.1504 47.546 44.227C47.5773 44.3041 47.6056 44.3825 47.6297 44.4621C47.6539 44.5416 47.6744 44.6224 47.6906 44.7044C47.7069 44.7858 47.719 44.8684 47.7268 44.9509C47.7352 45.0341 47.7395 45.1167 47.7395 45.2005C47.7395 45.2837 47.7352 45.3663 47.7268 45.4495C47.719 45.5321 47.7069 45.6146 47.6906 45.696C47.6744 45.778 47.6539 45.8588 47.6297 45.9384C47.6056 46.0179 47.5773 46.0963 47.546 46.1734C47.514 46.25 47.4784 46.3254 47.4393 46.3989C47.3995 46.4724 47.3573 46.5436 47.3109 46.6129C47.2644 46.6822 47.215 46.7491 47.162 46.813C47.1095 46.8775 47.0534 46.939 46.9944 46.9981C46.9359 47.0572 46.8738 47.1126 46.8099 47.1657C46.7454 47.2187 46.6785 47.2682 46.6092 47.3146C46.5399 47.3604 46.4687 47.4032 46.3952 47.4424C46.3216 47.4816 46.2463 47.5171 46.1697 47.5491C46.0926 47.581 46.0142 47.6094 45.9346 47.6335C45.8551 47.6576 45.7743 47.6775 45.6929 47.6938C45.6109 47.71 45.5289 47.7227 45.4457 47.7305C45.3632 47.739 45.28 47.7426 45.1968 47.7426C45.1136 47.7432 45.0304 47.739 44.9472 47.7311C44.8646 47.7227 44.782 47.7106 44.7007 47.6944C44.6187 47.6781 44.5379 47.6582 44.4583 47.6341C44.3788 47.61 44.3004 47.5816 44.2232 47.5503C44.1461 47.5183 44.0707 47.4828 43.9972 47.4436C43.9242 47.4044 43.8525 47.3616 43.7832 47.3152C43.7138 47.2688 43.6469 47.2193 43.583 47.1669C43.5185 47.1138 43.4564 47.0578 43.398 46.9987C43.3389 46.9402 43.2828 46.8781 43.2304 46.8142C43.1773 46.7497 43.1279 46.6828 43.0815 46.6135C43.0351 46.5442 42.9929 46.473 42.9531 46.3995C42.9139 46.326 42.8783 46.2506 42.847 46.1734C42.815 46.0969 42.7867 46.0185 42.7626 45.9384C42.7385 45.8588 42.7186 45.778 42.7023 45.6966C42.686 45.6146 42.674 45.5327 42.6662 45.4495C42.6577 45.3669 42.6541 45.2837 42.6541 45.2005Z" fill="#1A1A1A"/>
<path d="M45.1967 61.8679C36.0062 61.8679 28.5289 54.3905 28.5289 45.2C28.5289 36.0094 36.0062 28.5327 45.1967 28.5327C54.3873 28.5327 61.8646 36.0094 61.8646 45.2C61.8646 54.3905 54.3873 61.8679 45.1967 61.8679ZM45.1967 29.2091C36.3793 29.2091 29.2052 36.3826 29.2052 45.2C29.2052 54.018 36.3793 61.1915 45.1967 61.1915C54.0141 61.1915 61.1883 54.018 61.1883 45.2C61.1883 36.3826 54.0141 29.2091 45.1967 29.2091Z" fill="#5ADF93"/>
<path d="M28.0641 28.1381C27.5318 28.659 27.0568 29.0219 26.639 29.2256C26.2225 29.4282 25.8119 29.5312 25.4069 29.5343L24.8185 27.7523C25.1253 27.7686 25.4418 27.6872 25.7685 27.5088C26.0965 27.3304 26.3906 27.1145 26.6511 26.8602C27.0622 26.4587 27.3244 25.9963 27.4371 25.4737C27.5511 24.9498 27.5167 24.4103 27.3335 23.8557C27.1502 23.2999 26.8331 22.7707 26.3834 22.2691C26.2821 22.1485 26.1411 21.9966 25.9614 21.8134C26.1429 22.4114 26.1326 23.0039 25.9301 23.5905C25.7275 24.1776 25.3906 24.6997 24.9198 25.1578C24.3941 25.6726 23.8239 25.9939 23.2078 26.1223C22.5905 26.2495 21.9841 26.2043 21.3873 25.9873C20.7911 25.7691 20.2516 25.4128 19.7693 24.9191C19.1779 24.3133 18.7952 23.6544 18.6215 22.9419C18.4467 22.2299 18.4793 21.521 18.7204 20.8151C18.9603 20.108 19.3895 19.4521 20.008 18.8475C20.5337 18.3351 21.1721 17.9867 21.9226 17.8034C22.6719 17.6202 23.5104 17.6943 24.4375 18.0253C25.3634 18.355 26.3111 19.0157 27.2804 20.0073C28.1786 20.9272 28.8073 21.8845 29.166 22.8792C29.5241 23.8726 29.6073 24.825 29.4144 25.7365C29.2215 26.6468 28.7712 27.4473 28.0641 28.1381ZM24.1216 23.5423C24.3821 23.2867 24.5677 22.9774 24.6786 22.6139C24.7896 22.2492 24.8143 21.8833 24.7534 21.5168C24.6919 21.1491 24.5448 20.8284 24.3097 20.5547C23.9963 20.2352 23.6533 19.9923 23.2801 19.8265C22.9058 19.6613 22.5344 19.5992 22.1661 19.6408C21.7984 19.6812 21.4705 19.8428 21.1823 20.1255C20.9207 20.3811 20.7374 20.6843 20.6325 21.0345C20.5283 21.3836 20.5234 21.7495 20.6181 22.1317C20.7133 22.5145 20.9207 22.8695 21.2402 23.1974C21.7164 23.6845 22.2095 23.9666 22.7207 24.0438C23.2319 24.121 23.6991 23.954 24.1216 23.5423Z" fill="black"/>
<path d="M35.0949 23.2114C33.7687 23.8323 32.5588 23.7943 31.4659 23.0981C30.3748 22.4006 29.4248 21.1877 28.6158 19.4595C27.7399 17.5883 27.4174 16.0319 27.6489 14.7888C27.8792 13.5464 28.6194 12.6326 29.8697 12.0472C31.1199 11.4607 32.296 11.477 33.3974 12.0955C34.4999 12.7146 35.4891 13.9594 36.3656 15.8305C37.174 17.5588 37.4953 19.0658 37.3301 20.3516C37.1662 21.6362 36.4211 22.5893 35.0949 23.2114ZM34.3474 21.5741C35.4964 21.0358 35.4548 19.4492 34.222 16.8143C32.979 14.1607 31.783 13.1028 30.634 13.6411C29.4658 14.1878 29.5026 15.7883 30.745 18.4419C31.3104 19.6524 31.8976 20.5494 32.5052 21.1329C33.114 21.7164 33.7283 21.8635 34.3474 21.5741Z" fill="black"/>
<path d="M46.0525 16.2198L42.807 16.5983L43.2 19.9765L41.394 20.1887L41.0009 16.8105L37.8735 17.1746L37.683 15.535L40.8105 15.1709L40.4198 11.8264L42.2259 11.6143L42.6165 14.9587L45.8621 14.5801L46.0525 16.2198Z" fill="black"/>
<path d="M55.4886 20.6638L54.9871 22.4457L49.5569 20.9218L52.7301 9.625L54.7869 10.2013L52.1152 19.7161L55.4886 20.6638Z" fill="black"/>
<path d="M64.0401 14.2118C65.1685 14.9063 65.8992 15.7231 66.2319 16.6617C66.5647 17.5991 66.3416 18.7016 65.564 19.9699C65.1408 20.6584 64.6224 21.2111 64.0087 21.6289C63.3963 22.0466 62.7103 22.2643 61.9519 22.2823C61.1948 22.2998 60.4117 22.0605 59.6033 21.5638L58.7136 21.0164L57.0643 23.7002L55.2148 22.5645L61.3587 12.5649L64.0401 14.2118ZM60.3967 19.9796C61.0236 20.3654 61.6107 20.4685 62.1593 20.2882C62.7091 20.1086 63.2058 19.6577 63.6495 18.9355C63.9581 18.4328 64.1462 17.9867 64.2137 17.5973C64.2824 17.2084 64.2215 16.8498 64.0304 16.5218C63.8405 16.1927 63.5096 15.8828 63.037 15.5935L62.3184 15.1498L59.6371 19.5118L60.3967 19.9796Z" fill="black"/>
<path d="M62.8517 28.4488C62.308 27.8604 61.9547 27.3305 61.7908 26.8597C61.6268 26.3883 61.5641 26.0043 61.6027 25.7071L63.2038 25.0778C63.252 26.0116 63.5492 26.7753 64.0959 27.3685C64.3431 27.6368 64.5818 27.7845 64.8121 27.8122C65.0418 27.8411 65.2371 27.7814 65.398 27.6337C65.5698 27.4746 65.6259 27.2148 65.5668 26.8549C65.5071 26.4944 65.3697 26.0043 65.1545 25.384C65.0158 24.9856 64.9182 24.6185 64.8603 24.2821C64.8024 23.9445 64.8181 23.5919 64.9085 23.2235C65.0002 22.854 65.213 22.5146 65.5475 22.206C65.9189 21.8636 66.327 21.6574 66.7725 21.5863C67.2191 21.5158 67.6779 21.5875 68.1493 21.8009C68.6201 22.0149 69.0824 22.3669 69.5358 22.857C69.8058 23.15 70.0277 23.4544 70.2013 23.7709C70.3761 24.088 70.5009 24.3803 70.575 24.6486C70.6486 24.9156 70.6823 25.1278 70.6763 25.2852L69.1741 25.8928C69.1433 25.5685 69.0656 25.2369 68.9402 24.8994C68.816 24.5606 68.6346 24.2616 68.3952 24.0024C68.1089 23.6925 67.8678 23.5117 67.6719 23.4598C67.4753 23.4086 67.2842 23.4689 67.098 23.6407C66.9129 23.8113 66.8424 24.0458 66.8858 24.3448C66.9304 24.6426 67.0552 25.0531 67.2595 25.5769C67.5501 26.3305 67.6827 26.9936 67.6574 27.5662C67.6333 28.1401 67.4054 28.6254 66.975 29.0226C66.6181 29.3518 66.2179 29.5688 65.7742 29.6737C65.3317 29.7798 64.8603 29.7376 64.3588 29.5483C63.8572 29.3602 63.3545 28.9937 62.8517 28.4488Z" fill="black"/>
</svg>
