<svg width="91" height="90" viewBox="0 0 91 90" fill="none" xmlns="http://www.w3.org/2000/svg">
<mask id="mask0_874_3275" style="mask-type:luminance" maskUnits="userSpaceOnUse" x="0" y="0" width="91" height="90">
<path d="M0.0639038 0H90.4574V89.6704H0.0639038V0Z" fill="white"/>
</mask>
<g mask="url(#mask0_874_3275)">
<path d="M87.74 29.5235C87.5465 28.9979 87.3433 28.4753 87.1306 27.9568C86.9178 27.4383 86.6953 26.9241 86.4626 26.414C86.2305 25.9039 85.9888 25.398 85.7374 24.8969C85.4861 24.3951 85.2251 23.8988 84.955 23.4073C84.6849 22.9157 84.4058 22.4295 84.1177 21.9482C83.8289 21.4674 83.5317 20.9914 83.2249 20.5213C82.9187 20.0513 82.6034 19.5867 82.2797 19.1286C81.956 18.67 81.6232 18.2179 81.282 17.7718C80.9414 17.3257 80.5918 16.8861 80.2343 16.4526C79.8769 16.0196 79.511 15.5933 79.1372 15.1735C78.7641 14.7543 78.3825 14.3417 77.9931 13.9362C77.6036 13.5308 77.207 13.1331 76.8031 12.742C76.3986 12.3515 75.9869 11.9688 75.5685 11.5933C75.1496 11.2178 74.724 10.8506 74.2918 10.4906C73.8589 10.1312 73.4195 9.78018 72.974 9.43633C72.5279 9.09308 72.0758 8.7588 71.6177 8.4323C71.1589 8.10579 70.6948 7.78766 70.224 7.4785C69.7538 7.16933 69.2775 6.86914 68.7959 6.57732C68.3136 6.2861 67.8266 6.00325 67.3341 5.72996C66.8416 5.45668 66.3442 5.19237 65.8421 4.93702C65.3393 4.68228 64.8324 4.4365 64.3206 4.20089C63.8088 3.96469 63.2928 3.73805 62.7726 3.52097C62.2523 3.3039 61.7285 3.097 61.2004 2.89906C60.6723 2.70172 60.1407 2.51395 59.6054 2.33635C59.0701 2.15874 58.5317 1.99071 57.9904 1.83284C57.4491 1.67497 56.9047 1.52726 56.358 1.38972C55.8106 1.25218 55.2615 1.12481 54.7093 1.00761C54.1577 0.890398 53.6037 0.783956 53.0479 0.687081C52.4915 0.590206 51.9345 0.504095 51.3751 0.428149C50.8157 0.352204 50.2557 0.287023 49.6938 0.232007C49.1326 0.176992 48.5696 0.132142 48.0066 0.0980567C47.4435 0.0639711 46.8793 0.0400512 46.3151 0.0268954C45.9648 0.0185235 45.6134 0.0137396 45.2607 0.0137396C43.8815 0.0113476 42.5053 0.0723429 41.132 0.196128C39.7582 0.319315 38.3934 0.505291 37.0371 0.753458C35.6814 1.00163 34.3395 1.31079 33.0115 1.68095C31.6841 2.0511 30.3766 2.48106 29.089 2.97082C27.8008 3.46058 26.5385 4.00774 25.3015 4.61231C24.0645 5.21688 22.8583 5.87647 21.6822 6.59107C20.5061 7.30568 19.3655 8.0723 18.2606 8.89096C17.1556 9.70961 16.0911 10.5767 15.0669 11.4922C5.86367 19.6979 0.0742188 31.5968 0.0742188 44.8388C0.0748217 46.5783 0.176698 48.3125 0.378641 50.0407C0.516686 51.2229 0.701751 52.398 0.934438 53.5659C1.16712 54.7338 1.44623 55.8903 1.77235 57.036C2.09787 58.1818 2.46981 59.3126 2.88696 60.4291C3.30351 61.5449 3.76526 62.6428 4.27042 63.7222C4.77619 64.8022 5.32415 65.86 5.91551 66.8958C6.50627 67.9321 7.13742 68.9427 7.81016 69.9288C8.4823 70.9149 9.19363 71.8729 9.94293 72.8021C10.6922 73.732 11.4783 74.6302 12.3005 75.4973C20.5441 84.2155 32.2604 89.6632 45.2607 89.6632C47.1228 89.6662 48.9783 89.5543 50.8271 89.3289C52.6754 89.1029 54.5025 88.7644 56.3086 88.3135C58.1152 87.862 59.8863 87.3023 61.6218 86.6331C63.3579 85.9634 65.0458 85.1902 66.6848 84.3129C80.8323 76.7411 90.4472 61.9043 90.4472 44.8388C90.4497 42.2273 90.2236 39.6356 89.7691 37.0636C89.3146 34.4917 88.6382 31.9783 87.74 29.5235Z" fill="#CFF3C3"/>
</g>
<mask id="mask1_874_3275" style="mask-type:luminance" maskUnits="userSpaceOnUse" x="3" y="16" width="88" height="69">
<path d="M3.75256 16.9775H90.4575V84.3356H3.75256V16.9775Z" fill="white"/>
</mask>
<g mask="url(#mask1_874_3275)">
<path d="M76.879 40.2277C76.099 42.9546 76.2159 45.9081 75.1562 48.5398C72.8853 54.1789 64.7521 56.4465 59.8525 52.8065C54.869 49.1043 54.4615 42.0426 53.0907 36.0172C52.486 33.3675 51.6252 30.8027 50.507 28.3223C49.3888 25.8424 48.036 23.4953 46.4476 21.2815C45.339 19.7381 44.0442 18.2126 42.2725 17.504C39.4712 16.3827 36.2956 17.5859 33.6631 19.0552C30.813 20.6458 28.0961 22.6204 26.2533 25.3006C24.4105 27.9808 23.5442 31.4611 24.5612 34.5444C25.2936 36.7635 26.9224 38.6275 27.5222 40.8855C28.9467 46.2501 24.1187 51.2924 19.1183 53.7777C14.118 56.2623 8.2996 57.6592 4.56093 61.7854C4.29388 62.0802 4.04251 62.384 3.8056 62.6961C4.84124 65.0552 6.07159 67.3097 7.49785 69.4595C8.92412 71.6086 10.5252 73.6215 12.3005 75.4974C19.6506 72.7987 27.1135 69.173 30.1149 62.1657C31.0698 59.9376 31.4899 57.4996 32.581 55.3336C33.6721 53.1671 35.7247 51.2063 38.1655 51.2517C39.4525 51.2757 40.6606 51.8527 41.7698 52.5004C42.8759 53.1498 43.9273 53.8775 44.9225 54.6836C45.9184 55.4897 46.8479 56.3652 47.7105 57.31C48.5732 58.2548 49.3604 59.2583 50.0712 60.3203C50.7819 61.3829 51.4082 62.4916 51.9507 63.6476C55.0239 70.2345 55.6888 78.7092 61.858 82.6111C63.3259 83.5392 64.9734 84.0828 66.6848 84.3136C80.8329 76.7412 90.4472 61.9044 90.4472 44.8389C90.4496 42.2274 90.2235 39.6357 89.769 37.0637C89.3145 34.4918 88.6381 31.9784 87.7399 29.5236C87.2535 29.706 86.7712 29.9016 86.2968 30.1168C81.9559 32.0884 78.1817 35.6722 76.879 40.2277Z" fill="#E8FFD4"/>
</g>
<mask id="mask2_874_3275" style="mask-type:luminance" maskUnits="userSpaceOnUse" x="0" y="0" width="88" height="63">
<path d="M0.357483 0H87.8575V62.7505H0.357483V0Z" fill="white"/>
</mask>
<g mask="url(#mask2_874_3275)">
<path d="M15.0246 29.4781C15.4605 33.676 15.4412 37.8721 14.9662 42.0659C14.7564 43.9161 14.3941 45.887 13.0769 47.2128C11.9629 48.3334 10.354 48.7963 8.80296 49.1276C6.02639 49.7178 3.21847 50.0222 0.378601 50.0407C0.632387 52.2222 1.04592 54.3732 1.6204 56.4943C2.19428 58.6147 2.92309 60.682 3.80561 62.696C4.04312 62.3845 4.2951 62.0807 4.56094 61.7853C8.29961 57.6591 14.118 56.2622 19.1184 53.7776C24.1187 51.2923 28.9467 46.25 27.5222 40.8854C26.9224 38.6274 25.2936 36.7635 24.5612 34.5443C23.5442 31.461 24.4105 27.9807 26.2533 25.3005C28.0961 22.6203 30.813 20.6457 33.6631 19.0551C36.2956 17.5858 39.4712 16.3826 42.2725 17.5039C44.0442 18.2125 45.3391 19.7386 46.4476 21.2814C48.0361 23.4952 49.3888 25.8423 50.507 28.3222C51.6252 30.8026 52.4861 33.3674 53.0907 36.0172C54.4615 42.0425 54.869 49.1042 59.8525 52.8064C64.7522 56.4464 72.8854 54.1788 75.1562 48.5397C76.2159 45.908 76.099 42.9545 76.879 40.2276C78.1817 35.6721 81.9559 32.0883 86.2968 30.1167C86.7712 29.9015 87.2535 29.7059 87.74 29.5235C87.0612 27.6775 86.2637 25.883 85.348 24.1404C84.4323 22.3984 83.4051 20.7229 82.2676 19.1137C81.1301 17.5051 79.8913 15.9772 78.5512 14.5294C77.2112 13.0823 75.7819 11.7278 74.2628 10.4667C73.4152 11.1645 72.7244 11.9904 72.1885 12.9448C71.3892 14.3901 71.0522 16.0352 70.7261 17.6516C70.16 20.455 69.5946 23.2578 69.0285 26.0606C68.7802 27.2906 68.4908 28.599 67.5896 29.4793C66.4195 30.6227 64.5442 30.6998 62.9509 30.3009C59.7765 29.5074 57.176 27.1633 55.4013 24.4346C53.6266 21.7054 52.571 18.5892 51.533 15.509C49.7939 10.3483 48.0547 5.18758 46.315 0.0268954C45.9648 0.0185235 45.6133 0.0137396 45.2607 0.0137396C43.8814 0.0113476 42.5052 0.0723429 41.132 0.196128C39.7582 0.319912 38.3934 0.505291 37.0371 0.753458C35.6813 1.00163 34.3395 1.31079 33.0115 1.68095C31.6841 2.0511 30.3766 2.48106 29.0889 2.97082C27.8007 3.46058 26.5384 4.00774 25.3014 4.61231C24.0645 5.21688 22.8582 5.87647 21.6821 6.59107C20.506 7.30568 19.3655 8.0723 18.2605 8.89096C17.1556 9.70961 16.091 10.5767 15.0668 11.4922C14.7829 12.2624 14.552 13.0482 14.3742 13.8489C13.2421 18.9684 14.4833 24.2642 15.0246 29.4781Z" fill="#E8FFD4"/>
</g>
<path d="M45.2607 87.2565C21.6827 87.2565 2.50049 68.2277 2.50049 44.839C2.50049 21.4497 21.6827 2.4209 45.2607 2.4209C68.838 2.4209 88.0202 21.4497 88.0202 44.839C88.0202 68.2277 68.838 87.2565 45.2607 87.2565ZM45.2607 2.75637C21.869 2.75637 2.83867 21.6344 2.83867 44.839C2.83867 68.0429 21.869 86.921 45.2607 86.921C68.6517 86.921 87.6821 68.0429 87.6821 44.839C87.6821 21.6344 68.6517 2.75637 45.2607 2.75637Z" fill="#C7E8B5"/>
<path d="M45.2607 84.2805C23.3363 84.2805 5.50012 66.587 5.50012 44.8386C5.50012 23.0895 23.3363 5.39551 45.2607 5.39551C67.1845 5.39551 85.0206 23.0895 85.0206 44.8386C85.0206 66.587 67.1845 84.2805 45.2607 84.2805ZM45.2607 5.73098C23.5231 5.73098 5.8377 23.2743 5.8377 44.8386C5.8377 66.4022 23.5231 83.945 45.2607 83.945C66.9982 83.945 84.6825 66.4022 84.6825 44.8386C84.6825 23.2743 66.9982 5.73098 45.2607 5.73098Z" fill="#C7E8B5"/>
<path d="M45.2607 81.1479C25.0778 81.1479 8.65826 64.8597 8.65826 44.8389C8.65826 24.8175 25.0778 8.5293 45.2607 8.5293C65.4436 8.5293 81.8631 24.8175 81.8631 44.8389C81.8631 64.8597 65.4436 81.1479 45.2607 81.1479ZM45.2607 8.86417C25.264 8.86417 8.99644 25.0022 8.99644 44.8389C8.99644 64.6749 25.264 80.813 45.2607 80.813C65.2567 80.813 81.5249 64.6749 81.5249 44.8389C81.5249 25.0022 65.2567 8.86417 45.2607 8.86417Z" fill="#C7E8B5"/>
<path d="M45.2607 77.9358C26.8633 77.9358 11.8954 63.0888 11.8954 44.8386C11.8954 26.5878 26.8633 11.7402 45.2607 11.7402C63.658 11.7402 78.6254 26.5878 78.6254 44.8386C78.6254 63.0888 63.658 77.9358 45.2607 77.9358ZM45.2607 12.0757C27.0496 12.0757 12.2336 26.7732 12.2336 44.8386C12.2336 62.9034 27.0496 77.6003 45.2607 77.6003C63.4712 77.6003 78.2872 62.9034 78.2872 44.8386C78.2872 26.7732 63.4712 12.0757 45.2607 12.0757Z" fill="#C7E8B5"/>
<path d="M45.2607 74.8812C28.5614 74.8812 14.9752 61.4042 14.9752 44.8386C14.9752 28.2724 28.5614 14.7954 45.2607 14.7954C61.9599 14.7954 75.5455 28.2724 75.5455 44.8386C75.5455 61.4042 61.9599 74.8812 45.2607 74.8812ZM45.2607 15.1309C28.7477 15.1309 15.3133 28.4578 15.3133 44.8386C15.3133 61.2189 28.7477 74.5458 45.2607 74.5458C61.773 74.5458 75.2074 61.2189 75.2074 44.8386C75.2074 28.4578 61.773 15.1309 45.2607 15.1309Z" fill="#C7E8B5"/>
<path d="M45.2606 71.8987C30.2186 71.8987 17.9814 59.7594 17.9814 44.8388C17.9814 29.9171 30.2186 17.7778 45.2606 17.7778C60.3021 17.7778 72.5393 29.9171 72.5393 44.8388C72.5393 59.7594 60.3021 71.8987 45.2606 71.8987ZM45.2606 18.1133C30.4054 18.1133 18.3196 30.1025 18.3196 44.8388C18.3196 59.5746 30.4054 71.5632 45.2606 71.5632C60.1152 71.5632 72.2011 59.5746 72.2011 44.8388C72.2011 30.1025 60.1152 18.1133 45.2606 18.1133Z" fill="#C7E8B5"/>
<path d="M45.2607 68.7332C31.9782 68.7332 21.1727 58.0136 21.1727 44.8386C21.1727 31.6624 31.9782 20.9434 45.2607 20.9434C58.5425 20.9434 69.348 31.6624 69.348 44.8386C69.348 58.0136 58.5425 68.7332 45.2607 68.7332ZM45.2607 21.2782C32.1651 21.2782 21.5109 31.8472 21.5109 44.8386C21.5109 57.8294 32.1651 68.3978 45.2607 68.3978C58.3563 68.3978 69.0098 57.8294 69.0098 44.8386C69.0098 31.8472 58.3563 21.2782 45.2607 21.2782Z" fill="#C7E8B5"/>
<path d="M60.7802 31.9587C60.1527 31.2118 59.4739 30.5139 58.7433 29.8651C58.0133 29.2169 57.2392 28.6243 56.4212 28.0879C55.6038 27.5515 54.7508 27.0773 53.8629 26.6646C52.9755 26.2526 52.0623 25.9064 51.1237 25.6265V25.62C49.2115 25.0465 47.2578 24.76 45.2607 24.7612C34.0827 24.7612 25.0211 33.7497 25.0211 44.8389C25.0211 45.1672 25.0296 45.4955 25.0458 45.8238C25.0627 46.1515 25.0868 46.4792 25.1194 46.8063C25.1525 47.1328 25.1929 47.4593 25.2417 47.784C25.2906 48.1087 25.3472 48.4322 25.4117 48.7545C25.4768 49.0769 25.5492 49.3974 25.63 49.7161C25.7107 50.0348 25.7994 50.3512 25.8952 50.6651C25.9917 50.9797 26.0953 51.2918 26.2075 51.601C26.319 51.9102 26.4383 52.2163 26.5649 52.5201C26.6921 52.8233 26.826 53.1235 26.9676 53.4207C27.1093 53.7179 27.2582 54.0109 27.4143 54.3009C27.571 54.5904 27.7338 54.8762 27.9044 55.1579C28.0744 55.4395 28.2516 55.717 28.4361 55.9903C28.6199 56.2636 28.8104 56.5321 29.0081 56.7958C29.2053 57.0595 29.409 57.3184 29.6188 57.5726C29.8292 57.8261 30.0456 58.0749 30.268 58.3183C30.4905 58.5616 30.7183 58.7996 30.9528 59.0317C31.1867 59.2643 31.4266 59.4909 31.672 59.7116C31.9173 59.9322 32.1681 60.1463 32.4243 60.355C32.6799 60.5631 32.9409 60.7652 33.2068 60.9614C33.4732 61.1569 33.7439 61.3459 34.0188 61.5289C34.2942 61.7113 34.5739 61.8871 34.8579 62.0557C35.1418 62.225 35.4299 62.387 35.7223 62.5419C36.0141 62.6968 36.3101 62.8445 36.6091 62.985C36.9087 63.1255 37.2113 63.2589 37.5169 63.3845C37.8231 63.51 38.1318 63.6284 38.4434 63.7397C38.7557 63.8503 39.0698 63.9532 39.3868 64.0488C39.7033 64.1445 40.0228 64.2318 40.3441 64.3119C40.6648 64.3921 40.9879 64.4638 41.3128 64.5284C41.6378 64.5924 41.9639 64.6486 42.2912 64.6971C42.6191 64.7455 42.9477 64.7862 43.2768 64.8185C43.6066 64.8507 43.9369 64.8753 44.2678 64.8914C44.5982 64.9076 44.9291 64.9159 45.2607 64.9159C56.4387 64.9159 65.5002 55.9269 65.5002 44.8389C65.5008 44.2552 65.4761 43.6734 65.4261 43.0921C65.3755 42.5109 65.2995 41.9332 65.1982 41.3586C65.097 40.7839 64.9704 40.2152 64.8185 39.6519C64.6665 39.088 64.4905 38.5324 64.2898 37.9841C64.0884 37.4363 63.8642 36.8975 63.6152 36.3689C63.3669 35.8403 63.0956 35.3236 62.8014 34.8189C62.5073 34.3136 62.1914 33.822 61.8538 33.3448C61.5162 32.867 61.1582 32.4054 60.7802 31.9587ZM42.718 44.8389C42.718 44.7558 42.7222 44.6738 42.7301 44.5913C42.7385 44.5094 42.7506 44.4275 42.7668 44.3467C42.7831 44.2654 42.803 44.1853 42.8271 44.1063C42.8518 44.0274 42.8796 43.9497 42.9115 43.8731C42.9435 43.7972 42.979 43.7224 43.0182 43.6495C43.0574 43.5765 43.1002 43.5059 43.1466 43.4372C43.1924 43.3684 43.2424 43.302 43.2949 43.2386C43.3479 43.1747 43.404 43.1137 43.4625 43.0551C43.5216 42.9965 43.583 42.9414 43.6475 42.8888C43.712 42.8362 43.779 42.7872 43.8477 42.7411C43.917 42.6957 43.9887 42.6532 44.0617 42.6143C44.1352 42.5755 44.2106 42.5402 44.2877 42.5085C44.3643 42.4768 44.4427 42.4487 44.5222 42.4248C44.6024 42.4009 44.6826 42.3811 44.7646 42.365C44.8459 42.3488 44.9285 42.3363 45.0111 42.3285C45.0943 42.3201 45.1775 42.3165 45.2607 42.3165C45.3439 42.3165 45.4271 42.3201 45.5096 42.3285C45.5928 42.3363 45.6748 42.3488 45.7568 42.365C45.8382 42.3811 45.919 42.4009 45.9985 42.4248C46.0781 42.4487 46.1565 42.4768 46.2336 42.5085C46.3102 42.5402 46.3855 42.5755 46.4591 42.6143C46.5326 42.6532 46.6038 42.6957 46.6731 42.7411C46.7424 42.7872 46.8093 42.8362 46.8738 42.8888C46.9377 42.9414 46.9998 42.9965 47.0583 43.0551C47.1174 43.1137 47.1734 43.1747 47.2259 43.2386C47.2789 43.302 47.3283 43.3684 47.3748 43.4372C47.4206 43.5059 47.4634 43.5765 47.5032 43.6495C47.5423 43.7224 47.5779 43.7972 47.6099 43.8731C47.6412 43.9497 47.6695 44.0274 47.6936 44.1063C47.7178 44.1853 47.7383 44.2654 47.7545 44.3467C47.7708 44.4275 47.7829 44.5094 47.7907 44.5913C47.7991 44.6738 47.8034 44.7558 47.8034 44.8389C47.8034 44.9214 47.7991 45.0033 47.7907 45.0858C47.7829 45.1678 47.7708 45.2497 47.7545 45.3304C47.7383 45.4118 47.7178 45.4919 47.6936 45.5708C47.6695 45.6498 47.6412 45.7275 47.6099 45.804C47.5779 45.88 47.5423 45.9547 47.5032 46.0277C47.4634 46.1006 47.4212 46.1712 47.3748 46.24C47.3283 46.3087 47.2789 46.3751 47.2259 46.4385C47.1734 46.5025 47.1174 46.5635 47.0583 46.6221C46.9998 46.6807 46.9377 46.7357 46.8738 46.7883C46.8093 46.841 46.7424 46.89 46.6731 46.936C46.6038 46.9815 46.5326 47.0239 46.4591 47.0628C46.3855 47.1017 46.3102 47.137 46.2336 47.1687C46.1565 47.2004 46.0781 47.2285 45.9985 47.2524C45.919 47.2763 45.8382 47.296 45.7568 47.3122C45.6748 47.3283 45.5928 47.3409 45.5096 47.3487C45.4271 47.357 45.3439 47.3606 45.2607 47.3606C45.1775 47.3612 45.0943 47.357 45.0111 47.3493C44.9285 47.3409 44.8459 47.3289 44.7646 47.3128C44.6826 47.2966 44.6018 47.2769 44.5222 47.253C44.4427 47.2291 44.3643 47.201 44.2871 47.1699C44.21 47.1382 44.1346 47.1029 44.0611 47.064C43.9881 47.0251 43.9164 46.9827 43.8471 46.9366C43.7778 46.8906 43.7108 46.8416 43.6469 46.7895C43.5824 46.7369 43.5203 46.6813 43.4619 46.6227C43.4028 46.5647 43.3467 46.5031 43.2943 46.4397C43.2412 46.3757 43.1918 46.3093 43.1454 46.2406C43.099 46.1718 43.0568 46.1012 43.017 46.0283C42.9778 45.9553 42.9422 45.8806 42.9109 45.804C42.879 45.7281 42.8506 45.6504 42.8265 45.5708C42.8024 45.4919 42.7825 45.4118 42.7662 45.331C42.7499 45.2497 42.7379 45.1684 42.7301 45.0858C42.7216 45.0039 42.718 44.9214 42.718 44.8389Z" fill="#1A1A1A"/>
<path d="M45.2606 61.3727C36.0701 61.3727 28.5928 53.9551 28.5928 44.8381C28.5928 35.7211 36.0701 28.3042 45.2606 28.3042C54.4512 28.3042 61.9285 35.7211 61.9285 44.8381C61.9285 53.9551 54.4512 61.3727 45.2606 61.3727ZM45.2606 28.9751C36.4433 28.9751 29.2691 36.0913 29.2691 44.8381C29.2691 53.5856 36.4433 60.7017 45.2606 60.7017C54.078 60.7017 61.2522 53.5856 61.2522 44.8381C61.2522 36.0913 54.078 28.9751 45.2606 28.9751Z" fill="#5ADF93"/>
<path d="M18.0525 45.3604L18.3274 46.762L20.4445 46.353L20.8737 48.5393L18.7566 48.9483L19.8417 54.4546L19.6753 54.6077L9.41298 52.144L8.72095 48.623L16.6926 47.0802L16.4177 45.6785L18.0525 45.3604ZM17.645 51.9191L17.1025 49.166L10.3196 50.4002L15.3736 51.369L17.645 51.9191Z" fill="black"/>
<path d="M19.4749 36.2923L19.2627 37.7036L21.3967 38.0193L21.0639 40.2223L18.93 39.9066L18.0932 45.456L17.8883 45.5445L9.04858 39.8157L9.58388 36.266L17.6158 37.4596L17.828 36.0483L19.4749 36.2923ZM16.8804 42.3368L17.2975 39.5622L10.4905 38.4762L14.9248 41.0643L16.8804 42.3368Z" fill="black"/>
<path d="M17.6684 32.1493C17.1493 32.9518 16.5182 33.3991 15.7755 33.4912C15.0328 33.5839 14.2365 33.359 13.386 32.8166C12.4492 32.2186 11.8922 31.5674 11.7149 30.8624C11.5383 30.1562 11.6975 29.4212 12.1924 28.657C12.6813 27.9059 13.2823 27.4694 13.996 27.3462C14.7097 27.2218 15.5404 27.4622 16.4868 28.0662C18.2941 29.2179 18.6877 30.5789 17.6684 32.1493ZM15.8069 23.2679L16.7159 21.8638L23.2239 33.7351L22.3149 35.1344L15.8069 23.2679ZM16.5785 31.4747C16.7895 31.153 16.7907 30.8516 16.5833 30.5706C16.3747 30.2883 16.0136 29.9839 15.5006 29.6568C15.1022 29.4021 14.7646 29.2203 14.4879 29.1115C14.21 29.0032 13.9707 28.9703 13.7693 29.0134C13.5686 29.0564 13.398 29.1856 13.2582 29.4009C13.0604 29.7059 13.055 30.0055 13.2413 30.3003C13.4263 30.5939 13.8049 30.9234 14.377 31.2882C14.9026 31.623 15.3475 31.8216 15.7104 31.8838C16.0739 31.9459 16.3633 31.8096 16.5785 31.4747ZM27.0168 28.3556C26.496 29.1593 25.863 29.606 25.1192 29.6951C24.3765 29.7848 23.5772 29.5558 22.7224 29.0086C21.7898 28.4154 21.2322 27.7672 21.049 27.0639C20.8657 26.3595 21.0212 25.6263 21.5167 24.8657C22.005 24.1116 22.6103 23.6721 23.3324 23.5477C24.0558 23.4221 24.8901 23.6613 25.8353 24.2653C26.6823 24.8047 27.2248 25.4153 27.4629 26.0976C27.7004 26.7787 27.5521 27.5316 27.0168 28.3556ZM25.8787 27.6858C26.0294 27.4532 26.0752 27.2338 26.0162 27.028C25.9565 26.8211 25.8281 26.6298 25.6304 26.454C25.4326 26.277 25.1632 26.0802 24.8226 25.8632C24.2258 25.484 23.7556 25.2664 23.412 25.2101C23.0678 25.1545 22.7953 25.2813 22.5946 25.5905C22.3902 25.905 22.3812 26.2064 22.5681 26.4946C22.7543 26.7835 23.1407 27.1142 23.7279 27.4873C24.2469 27.8192 24.6815 28.0177 25.0324 28.0829C25.3826 28.1487 25.6647 28.0159 25.8787 27.6858Z" fill="black"/>
<path d="M35.3772 13.085C36.15 12.7585 36.8408 12.7573 37.4485 13.0826C38.0573 13.4067 38.5564 14.0196 38.9458 14.922L41.1642 20.0624L39.1653 20.9115L37.0337 15.9721C36.839 15.5194 36.5973 15.2013 36.3079 15.0177C36.0198 14.8347 35.6955 14.8192 35.3338 14.9723C35.086 15.0775 34.878 15.2413 34.7093 15.4626C34.5405 15.6827 34.435 15.9326 34.3934 16.2113C34.353 16.4888 34.3916 16.7656 34.5091 17.0413L36.6407 21.9807L34.6273 22.8371L32.4957 17.8976C32.3058 17.4545 32.0526 17.1388 31.7362 16.9504C31.4209 16.7609 31.0827 16.7423 30.721 16.8954C30.4684 17.0042 30.2641 17.1657 30.1086 17.381C29.9542 17.5962 29.8626 17.8444 29.8337 18.1249C29.8059 18.4059 29.853 18.6864 29.9735 18.9669L32.1051 23.9063L30.0893 24.7626L26.7328 16.9791L28.5436 16.2113L29.0355 17.2231C29.214 16.1838 29.8102 15.4483 30.8247 15.0177C31.3504 14.7946 31.8386 14.7229 32.2908 14.8024C32.7441 14.8826 33.1552 15.1032 33.5253 15.465C33.673 14.3408 34.2903 13.5478 35.3772 13.085Z" fill="black"/>
<path d="M44.9101 20.6246C44.0758 20.6389 43.3608 20.4751 42.7664 20.1318C42.1733 19.7892 41.7163 19.2899 41.3968 18.6345C41.0786 17.9791 40.9122 17.1897 40.8977 16.2664C40.8832 15.3431 41.0285 14.5484 41.3342 13.8816C41.641 13.2137 42.0925 12.7 42.6893 12.3412C43.2873 11.9824 44.0034 11.797 44.8377 11.7839C45.6654 11.7713 46.3719 11.9405 46.9572 12.291C47.5438 12.642 47.9904 13.1467 48.2979 13.8051C48.6065 14.4623 48.7681 15.2415 48.7825 16.142C48.797 17.0384 48.6548 17.8224 48.3558 18.4933C48.058 19.1631 47.6161 19.6834 47.0296 20.0529C46.4442 20.4213 45.7377 20.6114 44.9101 20.6246ZM44.9173 18.9239C45.449 18.9161 45.8492 18.6811 46.1181 18.2183C46.3882 17.7542 46.516 17.0743 46.5015 16.1779C46.487 15.2773 46.3375 14.5986 46.053 14.1423C45.7697 13.6849 45.3622 13.46 44.8305 13.4678C44.2711 13.4774 43.8515 13.7022 43.5718 14.1423C43.2933 14.5825 43.1625 15.2785 43.1788 16.2305C43.1932 17.1825 43.3464 17.8726 43.6393 18.2996C43.9317 18.7254 44.3579 18.9335 44.9173 18.9239Z" fill="black"/>
<path d="M51.2479 12.4546L53.1263 12.9162L52.8659 14.3897C53.1504 14.0106 53.5218 13.7152 53.9799 13.5047C54.438 13.293 55.0167 13.2726 55.716 13.4449C55.9939 13.5136 56.2375 13.6195 56.4466 13.763L55.4411 15.8129C55.37 15.6969 55.2748 15.6018 55.1542 15.5283C55.0348 15.4535 54.8817 15.3931 54.6936 15.3465C54.306 15.2508 53.9516 15.2502 53.6303 15.3441C53.3084 15.4386 53.0504 15.5755 52.8563 15.7555C52.6634 15.9343 52.5488 16.0922 52.5139 16.2291L51.2793 21.1805L49.1984 20.671L51.2479 12.4546Z" fill="black"/>
<path d="M57.1462 23.7089C56.336 23.2748 55.7597 22.7462 55.4173 22.1231C55.0749 21.4993 54.9374 20.8356 55.005 20.1305C55.0725 19.4261 55.3021 18.7121 55.6946 17.9897C56.0961 17.2518 56.5988 16.6526 57.2016 16.1933C57.8056 15.7341 58.4687 15.4674 59.1909 15.392C59.9125 15.3173 60.6377 15.4752 61.3659 15.8656C62.4522 16.4463 63.061 17.1717 63.1912 18.0423C63.3226 18.913 63.0538 19.9649 62.3834 21.1974C62.2532 21.4366 62.0971 21.7009 61.9156 21.9915L57.3897 19.5708C57.0907 20.1897 57.0069 20.7453 57.1389 21.238C57.2722 21.7308 57.6381 22.1362 58.2361 22.4555C58.5477 22.623 58.919 22.733 59.3501 22.7856C59.7823 22.8395 60.1367 22.8155 60.4134 22.7139L60.2446 24.4552C59.2801 24.5461 58.2469 24.2974 57.1462 23.7089ZM60.6618 19.8124C61.0603 19.0805 61.2429 18.5273 61.2091 18.1524C61.1766 17.778 60.9873 17.4982 60.6401 17.3128C60.153 17.0515 59.6768 17.0281 59.2126 17.2434C58.7478 17.4587 58.3458 17.8426 58.007 18.394L60.6618 19.8124Z" fill="black"/>
<path d="M78.2418 27.8685L68.3242 34.8315L67.0969 33.1117L71.2804 30.1743L72.9756 29.0788L71.8688 29.1171L68.2591 28.7942L69.1561 25.3138L69.5588 24.2925L67.965 25.5243L63.7814 28.4617L62.5541 26.7418L72.4716 19.7788L72.5705 19.9175L70.7114 27.0959L78.1333 27.7154L78.2418 27.8685Z" fill="black"/>
<path d="M71.4245 40.5687L70.378 36.4641L68.5431 36.2751L67.9547 33.9692L80.9755 35.8756L81.0165 36.0383L70.4817 43.872L69.9102 41.6331L71.4245 40.5687ZM72.8809 39.5545L75.731 37.5572L76.5919 37.0453L75.5936 37.0118L72.1407 36.653L72.8809 39.5545Z" fill="black"/>
<path d="M69.6596 47.016C69.7693 45.7339 70.2015 44.7418 70.9568 44.0404C71.7122 43.3383 72.8907 43.0537 74.4918 43.1865L82.1427 43.8251L81.9546 46.0281L74.0626 45.3703C73.1638 45.295 72.5272 45.4397 72.1528 45.8033C71.7779 46.1669 71.5681 46.6106 71.5235 47.1356C71.4783 47.6666 71.6079 48.1319 71.9117 48.5325C72.2167 48.9326 72.8244 49.1712 73.7346 49.2477L81.6267 49.9055L81.441 52.1085L73.7901 51.4699C72.189 51.3371 71.0738 50.8719 70.4457 50.0729C69.8175 49.2752 69.5553 48.2562 69.6596 47.016Z" fill="black"/>
</svg>
