<svg width="91" height="91" viewBox="0 0 91 91" fill="none" xmlns="http://www.w3.org/2000/svg">
<mask id="mask0_874_3060" style="mask-type:luminance" maskUnits="userSpaceOnUse" x="0" y="0" width="91" height="91">
<path d="M0.0639648 0H90.4575V90.3929H0.0639648V0Z" fill="white"/>
</mask>
<g mask="url(#mask0_874_3060)">
<path d="M87.7402 29.762C87.5467 29.2321 87.3435 28.7053 87.1307 28.1826C86.9179 27.66 86.6955 27.1416 86.4628 26.6274C86.2307 26.1132 85.989 25.6032 85.7376 25.098C85.4863 24.5923 85.2252 24.0919 84.9552 23.5964C84.6851 23.1009 84.406 22.6108 84.1179 22.1255C83.8291 21.6409 83.5319 21.161 83.2251 20.6872C82.9189 20.2134 82.6036 19.745 82.2799 19.2833C81.9562 18.8209 81.6234 18.3652 81.2822 17.9155C80.9416 17.4658 80.592 17.0227 80.2345 16.5856C79.877 16.1492 79.5111 15.7194 79.1374 15.2962C78.7642 14.8737 78.3827 14.4577 77.9932 14.049C77.6038 13.6403 77.2072 13.2394 76.8033 12.8452C76.3988 12.4515 75.9871 12.0657 75.5687 11.6872C75.1498 11.3086 74.7242 10.9385 74.292 10.5756C73.8591 10.2133 73.4197 9.85882 72.9742 9.51281C72.5281 9.16679 72.076 8.82921 71.6179 8.50068C71.1591 8.17154 70.6949 7.85084 70.2241 7.53918C69.754 7.22753 69.2777 6.92492 68.7961 6.63074C68.3138 6.33717 67.8267 6.05204 67.3342 5.77655C66.8417 5.50106 66.3444 5.23462 65.8423 4.97722C65.3395 4.72042 64.8326 4.47266 64.3208 4.23515C63.809 3.99704 63.293 3.76857 62.7727 3.54975C62.2525 3.33092 61.7287 3.12235 61.2006 2.92282C60.6725 2.72389 60.1408 2.5346 59.6055 2.35557C59.0702 2.17653 58.5319 2.00714 57.9906 1.848C57.4493 1.68885 56.9049 1.53996 56.3582 1.40131C55.8108 1.26266 55.2616 1.13426 54.7095 1.01611C54.1579 0.897957 53.6039 0.790656 53.0481 0.693C52.4917 0.595343 51.9347 0.508538 51.3753 0.43198C50.8159 0.355423 50.2559 0.289715 49.694 0.234256C49.1328 0.178797 48.5698 0.133586 48.0067 0.0992255C47.4437 0.064865 46.8795 0.0407522 46.3152 0.0274904C45.965 0.0190509 45.6136 0.0142284 45.2609 0.0142284C43.8817 0.0118171 42.5054 0.0733044 41.1322 0.198087C39.7584 0.322268 38.3936 0.509744 37.0373 0.759912C35.6816 1.01008 34.3397 1.32174 33.0117 1.69488C31.6843 2.06802 30.3768 2.50145 29.0892 2.99516C27.8009 3.48886 26.5386 4.04044 25.3017 4.64989C24.0647 5.25933 22.8585 5.92424 21.6824 6.64461C20.5063 7.36497 19.3657 8.13778 18.2608 8.96304C17.1558 9.78829 16.0912 10.6624 15.067 11.5853C5.86385 19.8571 0.0744019 31.852 0.0744019 45.2007C0.0750048 46.9543 0.176881 48.7025 0.378824 50.4446C0.516869 51.6364 0.701934 52.8209 0.934621 53.9982C1.16731 55.1755 1.44641 56.3414 1.77254 57.4964C2.09806 58.6514 2.46999 59.7913 2.88714 60.9168C3.30369 62.0416 3.76545 63.1484 4.27061 64.2365C4.77637 65.3252 5.32433 66.3915 5.91569 67.4356C6.50645 68.4803 7.1376 69.4991 7.81034 70.4931C8.48249 71.4871 9.19381 72.4529 9.94311 73.3896C10.6924 74.327 11.4785 75.2324 12.3007 76.1065C20.5442 84.895 32.2606 90.3866 45.2609 90.3866C47.123 90.3897 48.9785 90.2769 50.8273 90.0497C52.6756 89.8218 54.5027 89.4806 56.3087 89.0261C58.1154 88.571 59.8864 88.0067 61.622 87.3322C63.3581 86.657 65.046 85.8776 66.685 84.9932C80.8325 77.3604 90.4474 62.4039 90.4474 45.2007C90.4498 42.5682 90.2238 39.9556 89.7693 37.3629C89.3147 34.7702 88.6384 32.2366 87.7402 29.762Z" fill="#CFF3C3"/>
</g>
<mask id="mask1_874_3060" style="mask-type:luminance" maskUnits="userSpaceOnUse" x="3" y="17" width="88" height="69">
<path d="M3.75256 17.1147H90.4575V85.016H3.75256V17.1147Z" fill="white"/>
</mask>
<g mask="url(#mask1_874_3060)">
<path d="M76.879 40.5522C76.099 43.3011 76.2159 46.2784 75.1562 48.9314C72.8853 54.6159 64.7521 56.9018 59.8525 53.2325C54.869 49.5004 54.4615 42.3818 53.0907 36.3078C52.486 33.6367 51.6252 31.0512 50.507 28.5508C49.3888 26.0509 48.036 23.6848 46.4476 21.4532C45.339 19.8973 44.0442 18.3595 42.2725 17.6452C39.4712 16.5149 36.2956 17.7278 33.6631 19.2089C30.813 20.8124 28.0961 22.8029 26.2533 25.5047C24.4105 28.2065 23.5442 31.7149 24.5612 34.8231C25.2936 37.0601 26.9224 38.9391 27.5222 41.2153C28.9467 46.6232 24.1187 51.7061 19.1183 54.2114C14.118 56.7161 8.2996 58.1243 4.56093 62.2838C4.29388 62.5809 4.04251 62.8872 3.8056 63.2018C4.84124 65.58 6.07159 67.8526 7.49785 70.0197C8.92412 72.1862 10.5252 74.2153 12.3005 76.1063C19.6506 73.3858 27.1135 69.731 30.1149 62.6671C31.0698 60.4211 31.4899 57.9634 32.581 55.78C33.6721 53.596 35.7247 51.6193 38.1655 51.6651C39.4525 51.6893 40.6606 52.271 41.7698 52.9238C42.8759 53.5785 43.9273 54.3121 44.9225 55.1247C45.9184 55.9373 46.8479 56.8198 47.7105 57.7723C48.5732 58.7247 49.3604 59.7363 50.0712 60.8069C50.7819 61.8781 51.4082 62.9957 51.9507 64.1609C55.0239 70.801 55.6888 79.3441 61.858 83.2774C63.3259 84.213 64.9734 84.761 66.6848 84.9937C80.8329 77.3602 90.4472 62.4037 90.4472 45.2005C90.4496 42.568 90.2235 39.9554 89.769 37.3627C89.3145 34.77 88.6381 32.2364 87.7399 29.7618C87.2535 29.9457 86.7712 30.1428 86.2968 30.3598C81.9559 32.3473 78.1817 35.96 76.879 40.5522Z" fill="#E8FFD4"/>
</g>
<mask id="mask2_874_3060" style="mask-type:luminance" maskUnits="userSpaceOnUse" x="0" y="0" width="88" height="64">
<path d="M0.357544 0H87.8575V63.2565H0.357544V0Z" fill="white"/>
</mask>
<g mask="url(#mask2_874_3060)">
<path d="M15.0247 29.7157C15.4605 33.9475 15.4412 38.1774 14.9662 42.405C14.7564 44.2701 14.3941 46.257 13.077 47.5934C11.963 48.7231 10.3541 49.1897 8.80302 49.5237C6.02645 50.1186 3.21853 50.4255 0.378662 50.4442C0.632448 52.6432 1.04598 54.8116 1.62046 56.9497C2.19435 59.0873 2.92315 61.1713 3.80567 63.2016C4.04318 62.8875 4.29516 62.5813 4.561 62.2835C8.29967 58.124 14.1181 56.7159 19.1184 54.2112C24.1188 51.7058 28.9467 46.6229 27.5223 41.215C26.9225 38.9388 25.2937 37.0598 24.5612 34.8228C23.5443 31.7146 24.4105 28.2063 26.2534 25.5044C28.0962 22.8026 30.8131 20.8121 33.6632 19.2086C36.2957 17.7275 39.4713 16.5146 42.2726 17.6449C44.0443 18.3593 45.3391 19.897 46.4477 21.4529C48.0361 23.6845 49.3888 26.0506 50.5071 28.5505C51.6253 31.0509 52.4861 33.6364 53.0907 36.3075C54.4615 42.3815 54.869 49.5001 59.8525 53.2322C64.7522 56.9015 72.8854 54.6156 75.1562 48.9311C76.216 46.2781 76.099 43.3008 76.8791 40.5519C78.1818 35.9597 81.956 32.347 86.2969 30.3595C86.7713 30.1425 87.2535 29.9454 87.74 29.7615C87.0613 27.9006 86.2637 26.0916 85.348 24.335C84.4324 22.579 83.4052 20.8899 82.2677 19.2677C81.1301 17.6461 79.8914 16.1059 78.5513 14.6465C77.2112 13.1877 75.782 11.8223 74.2629 10.551C73.4153 11.2545 72.7245 12.0869 72.1886 13.049C71.3892 14.506 71.0523 16.1644 70.7261 17.7938C70.1601 20.6198 69.5946 23.4452 69.0286 26.2706C68.7802 27.5106 68.4909 28.829 67.5897 29.7169C66.4196 30.8695 64.5442 30.9473 62.951 30.5452C59.7766 29.7452 57.176 27.3822 55.4013 24.6316C53.6266 21.8803 52.5711 18.739 51.5331 15.6339C49.7939 10.4316 48.0548 5.22931 46.3151 0.0270021C45.9648 0.0185626 45.6134 0.0137401 45.2608 0.0137401C43.8815 0.0113289 42.5053 0.0728161 41.1321 0.197599C39.7582 0.322382 38.3935 0.509255 37.0371 0.759424C35.6814 1.00959 34.3395 1.32125 33.0115 1.69439C31.6841 2.06754 30.3766 2.50096 29.089 2.99467C27.8008 3.48837 26.5385 4.03995 25.3015 4.6494C24.0645 5.25885 22.8583 5.92375 21.6822 6.64412C20.5061 7.36448 19.3656 8.13729 18.2606 8.96255C17.1556 9.78781 16.0911 10.6619 15.0669 11.5848C14.783 12.3612 14.5521 13.1533 14.3743 13.9605C13.2422 19.1212 14.4834 24.4598 15.0247 29.7157Z" fill="#E8FFD4"/>
</g>
<path d="M45.2607 87.9602C21.6828 87.9602 2.50055 68.778 2.50055 45.2006C2.50055 21.6226 21.6828 2.44043 45.2607 2.44043C68.8381 2.44043 88.0203 21.6226 88.0203 45.2C88.0203 68.778 68.8381 87.9602 45.2607 87.9602ZM45.2607 2.77861C21.869 2.77861 2.83873 21.8089 2.83873 45.2C2.83873 68.5917 21.869 87.622 45.2607 87.622C68.6518 87.622 87.6821 68.5917 87.6821 45.2C87.6821 21.8089 68.6518 2.77861 45.2607 2.77861Z" fill="#C7E8B5"/>
<path d="M45.2607 84.9606C23.3363 84.9606 5.50012 67.1244 5.50012 45.2C5.50012 23.2762 23.3363 5.43945 45.2607 5.43945C67.1845 5.43945 85.0206 23.2762 85.0206 45.2C85.0206 67.1244 67.1845 84.9606 45.2607 84.9606ZM45.2607 5.77763C23.5231 5.77763 5.8377 23.4625 5.8377 45.2C5.8377 66.9382 23.5231 84.6224 45.2607 84.6224C66.9982 84.6224 84.6825 66.9382 84.6825 45.2006C84.6825 23.4625 66.9982 5.77763 45.2607 5.77763Z" fill="#C7E8B5"/>
<path d="M45.2607 81.8024C25.0778 81.8024 8.65833 65.3828 8.65833 45.1999C8.65833 25.0177 25.0778 8.59814 45.2607 8.59814C65.4436 8.59814 81.8631 25.0177 81.8631 45.1999C81.8631 65.3828 65.4436 81.8024 45.2607 81.8024ZM45.2607 8.93572C25.2641 8.93572 8.99651 25.2039 8.99651 45.1999C8.99651 65.1966 25.2641 81.4648 45.2607 81.4648C65.2568 81.4648 81.525 65.1966 81.525 45.1999C81.525 25.2039 65.2568 8.93572 45.2607 8.93572Z" fill="#C7E8B5"/>
<path d="M45.2607 78.5648C26.8634 78.5648 11.8954 63.5981 11.8954 45.2001C11.8954 26.8028 26.8634 11.8354 45.2607 11.8354C63.6581 11.8354 78.6254 26.8028 78.6254 45.2001C78.6254 63.5981 63.6581 78.5648 45.2607 78.5648ZM45.2607 12.1736C27.0496 12.1736 12.2336 26.9897 12.2336 45.2001C12.2336 63.4112 27.0496 78.2266 45.2607 78.2266C63.4712 78.2266 78.2872 63.4112 78.2872 45.2001C78.2872 26.9897 63.4712 12.1736 45.2607 12.1736Z" fill="#C7E8B5"/>
<path d="M45.2607 75.4854C28.5615 75.4854 14.9752 61.8998 14.9752 45.1999C14.9752 28.5007 28.5615 14.915 45.2607 14.915C61.9599 14.915 75.5456 28.5007 75.5456 45.1999C75.5456 61.8998 61.9599 75.4854 45.2607 75.4854ZM45.2607 15.2532C28.7478 15.2532 15.3134 28.6876 15.3134 45.1999C15.3134 61.7129 28.7478 75.1472 45.2607 75.1472C61.7731 75.1472 75.2074 61.7129 75.2074 45.1999C75.2074 28.6876 61.7731 15.2532 45.2607 15.2532Z" fill="#C7E8B5"/>
<path d="M45.2607 72.4787C30.2186 72.4787 17.9814 60.2415 17.9814 45.2C17.9814 30.1586 30.2186 17.9214 45.2607 17.9214C60.3022 17.9214 72.5393 30.1586 72.5393 45.2C72.5393 60.2415 60.3022 72.4787 45.2607 72.4787ZM45.2607 18.2596C30.4055 18.2596 18.3196 30.3454 18.3196 45.2C18.3196 60.0552 30.4055 72.1405 45.2607 72.1405C60.1153 72.1405 72.2012 60.0552 72.2012 45.2C72.2012 30.3454 60.1153 18.2596 45.2607 18.2596Z" fill="#C7E8B5"/>
<path d="M45.2607 69.2881C31.9783 69.2881 21.1728 58.482 21.1728 45.2001C21.1728 31.9183 31.9783 21.1128 45.2607 21.1128C58.5426 21.1128 69.3481 31.9183 69.3481 45.2001C69.3481 58.482 58.5426 69.2881 45.2607 69.2881ZM45.2607 21.4504C32.1651 21.4504 21.511 32.1045 21.511 45.2001C21.511 58.2963 32.1651 68.9499 45.2607 68.9499C58.3563 68.9499 69.0099 58.2963 69.0099 45.2001C69.0099 32.1045 58.3563 21.4504 45.2607 21.4504Z" fill="#C7E8B5"/>
<path d="M60.7802 32.2164C60.1527 31.4635 59.4739 30.76 58.7433 30.106C58.0133 29.4519 57.2393 28.8551 56.4213 28.3144C55.6039 27.7737 54.7509 27.2956 53.8629 26.8797C52.9756 26.4644 52.0623 26.1153 51.1237 25.8332V25.8266C49.2116 25.2485 47.2579 24.9597 45.2607 24.9609C34.0827 24.9609 25.0212 34.0219 25.0212 45.1999C25.0212 45.5314 25.0296 45.8624 25.0459 46.1933C25.0628 46.5237 25.0869 46.854 25.1194 47.1838C25.1526 47.5129 25.193 47.842 25.2418 48.1694C25.2906 48.4967 25.3473 48.8228 25.4118 49.1477C25.4769 49.4727 25.5492 49.7958 25.63 50.1171C25.7108 50.4384 25.7994 50.7573 25.8953 51.0737C25.9917 51.3908 26.0954 51.7055 26.2075 52.0172C26.319 52.3288 26.4384 52.6374 26.565 52.9437C26.6922 53.2493 26.826 53.5519 26.9677 53.8515C27.1093 54.1505 27.2582 54.4465 27.4144 54.7383C27.5711 55.0306 27.7339 55.3188 27.9045 55.6027C28.0744 55.8866 28.2517 56.1663 28.4361 56.4418C28.62 56.7173 28.8105 56.988 29.0082 57.2538C29.2053 57.5197 29.4091 57.7807 29.6189 58.0369C29.8292 58.2925 30.0457 58.5432 30.2681 58.7886C30.4905 59.0339 30.7184 59.2739 30.9529 59.5077C31.1868 59.7422 31.4267 59.9707 31.6721 60.1931C31.9174 60.4156 32.1682 60.6314 32.4244 60.8418C32.68 61.0516 32.941 61.2553 33.2068 61.453C33.4733 61.6502 33.7439 61.8406 34.0188 62.0251C34.2943 62.209 34.574 62.3862 34.8579 62.5562C35.1419 62.7268 35.43 62.8902 35.7224 63.0463C36.0141 63.2024 36.3101 63.3513 36.6091 63.493C36.9087 63.6346 37.2113 63.7691 37.517 63.8956C37.8232 64.0222 38.1318 64.1416 38.4435 64.2537C38.7557 64.3652 39.0698 64.4689 39.3869 64.5654C39.7034 64.6618 40.0229 64.7498 40.3442 64.8306C40.6649 64.9114 40.988 64.9837 41.3129 65.0488C41.6378 65.1133 41.9639 65.17 42.2913 65.2188C42.6192 65.2677 42.9477 65.3086 43.2769 65.3412C43.6066 65.3738 43.937 65.3985 44.2679 65.4147C44.5982 65.431 44.9292 65.4395 45.2607 65.4395C56.4388 65.4395 65.5003 56.3779 65.5003 45.1999C65.5009 44.6122 65.4762 44.0256 65.4262 43.4397C65.3755 42.8537 65.2996 42.2714 65.1983 41.6921C65.097 41.1128 64.9704 40.5395 64.8185 39.9717C64.6666 39.4032 64.4906 38.8432 64.2898 38.2904C64.0885 37.7376 63.8643 37.1951 63.6153 36.6622C63.3669 36.1293 63.0957 35.6085 62.8015 35.0991C62.5073 34.5903 62.1914 34.0948 61.8539 33.6138C61.5163 33.1321 61.1582 32.6667 60.7802 32.2164ZM42.7181 45.1999C42.7181 45.1167 42.7223 45.0341 42.7301 44.9509C42.7386 44.8684 42.7506 44.7858 42.7669 44.7044C42.7832 44.6224 42.8031 44.5416 42.8272 44.4621C42.8519 44.3825 42.8796 44.3041 42.9116 44.227C42.9435 44.1504 42.9791 44.075 43.0183 44.0015C43.0574 43.928 43.1002 43.8568 43.1467 43.7875C43.1925 43.7182 43.2425 43.6513 43.295 43.5874C43.348 43.5229 43.4041 43.4614 43.4625 43.4023C43.5216 43.3432 43.5831 43.2878 43.6476 43.2347C43.7121 43.1817 43.779 43.1322 43.8477 43.0858C43.9171 43.04 43.9888 42.9972 44.0617 42.958C44.1353 42.9188 44.2106 42.8833 44.2878 42.8513C44.3644 42.8194 44.4427 42.791 44.5223 42.7669C44.6025 42.7428 44.6826 42.7229 44.7646 42.7067C44.846 42.6904 44.9286 42.6777 45.0112 42.6699C45.0944 42.6614 45.1776 42.6578 45.2607 42.6578C45.3439 42.6578 45.4271 42.6614 45.5097 42.6699C45.5929 42.6777 45.6749 42.6904 45.7569 42.7067C45.8382 42.7229 45.919 42.7428 45.9986 42.7669C46.0782 42.791 46.1565 42.8194 46.2337 42.8513C46.3102 42.8833 46.3856 42.9188 46.4591 42.958C46.5327 42.9972 46.6038 43.04 46.6731 43.0858C46.7425 43.1322 46.8094 43.1817 46.8739 43.2347C46.9378 43.2878 46.9999 43.3432 47.0583 43.4023C47.1174 43.4614 47.1735 43.5229 47.2259 43.5874C47.279 43.6513 47.3284 43.7182 47.3748 43.7875C47.4206 43.8568 47.4634 43.928 47.5032 44.0015C47.5424 44.075 47.578 44.1504 47.6099 44.227C47.6413 44.3041 47.6696 44.3825 47.6937 44.4621C47.7178 44.5416 47.7383 44.6224 47.7546 44.7044C47.7709 44.7858 47.7829 44.8684 47.7908 44.9509C47.7992 45.0341 47.8034 45.1167 47.8034 45.1999C47.8034 45.2837 47.7992 45.3663 47.7908 45.4495C47.7829 45.5321 47.7709 45.6146 47.7546 45.696C47.7383 45.778 47.7178 45.8588 47.6937 45.9384C47.6696 46.0179 47.6413 46.0963 47.6099 46.1734C47.578 46.25 47.5424 46.3254 47.5032 46.3989C47.4634 46.4724 47.4212 46.5436 47.3748 46.6129C47.3284 46.6822 47.279 46.7491 47.2259 46.813C47.1735 46.8775 47.1174 46.939 47.0583 46.9981C46.9999 47.0572 46.9378 47.1126 46.8739 47.1657C46.8094 47.2187 46.7425 47.2682 46.6731 47.3146C46.6038 47.3604 46.5327 47.4032 46.4591 47.4424C46.3856 47.4816 46.3102 47.5171 46.2337 47.5491C46.1565 47.581 46.0782 47.6094 45.9986 47.6335C45.919 47.6576 45.8382 47.6775 45.7569 47.6938C45.6749 47.71 45.5929 47.7227 45.5097 47.7305C45.4271 47.739 45.3439 47.7426 45.2607 47.7426C45.1776 47.7432 45.0944 47.739 45.0112 47.7311C44.9286 47.7227 44.846 47.7106 44.7646 47.6944C44.6826 47.6781 44.6019 47.6582 44.5223 47.6341C44.4427 47.61 44.3644 47.5816 44.2872 47.5503C44.21 47.5183 44.1347 47.4828 44.0611 47.4436C43.9882 47.4044 43.9165 47.3616 43.8471 47.3152C43.7778 47.2688 43.7109 47.2193 43.647 47.1663C43.5825 47.1138 43.5204 47.0578 43.4619 46.9987C43.4029 46.9402 43.3468 46.8781 43.2944 46.8142C43.2413 46.7497 43.1919 46.6828 43.1455 46.6135C43.099 46.5442 43.0568 46.473 43.0171 46.3995C42.9779 46.326 42.9423 46.2506 42.911 46.1734C42.879 46.0969 42.8507 46.0185 42.8266 45.9384C42.8025 45.8588 42.7826 45.778 42.7663 45.6966C42.75 45.6146 42.738 45.5327 42.7301 45.4495C42.7217 45.3669 42.7181 45.2837 42.7181 45.1999Z" fill="#1A1A1A"/>
<path d="M45.2607 61.8679C36.0702 61.8679 28.5928 54.3905 28.5928 45.2C28.5928 36.0094 36.0702 28.5327 45.2607 28.5327C54.4512 28.5327 61.9286 36.0094 61.9286 45.2C61.9286 54.3905 54.4512 61.8679 45.2607 61.8679ZM45.2607 29.2091C36.4433 29.2091 29.2692 36.3826 29.2692 45.2C29.2692 54.018 36.4433 61.1915 45.2607 61.1915C54.0781 61.1915 61.2522 54.018 61.2522 45.2C61.2522 36.3826 54.0781 29.2091 45.2607 29.2091Z" fill="#5ADF93"/>
<path d="M21.1877 43.8921C21.1395 44.6366 21.0273 45.2243 20.8525 45.6548C20.6771 46.084 20.4414 46.4354 20.1436 46.7085L18.5136 45.7753C18.7535 45.5824 18.935 45.3111 19.0585 44.9603C19.1827 44.6083 19.2563 44.2502 19.2804 43.8849C19.3177 43.3128 19.2044 42.7944 18.9404 42.3296C18.6751 41.8655 18.2893 41.4875 17.783 41.1963C17.2766 40.904 16.6883 40.7213 16.0179 40.649C15.8624 40.6285 15.6556 40.6092 15.3982 40.5911C15.9323 40.913 16.3193 41.3603 16.5605 41.9342C16.8016 42.5068 16.9017 43.1205 16.8595 43.7764C16.8112 44.5094 16.6008 45.1303 16.2277 45.6379C15.8534 46.1442 15.3711 46.5156 14.7809 46.7519C14.1914 46.9882 13.5524 47.084 12.864 47.0388C12.0188 46.9828 11.2931 46.7483 10.6866 46.3347C10.0808 45.9218 9.63229 45.372 9.34113 44.6854C9.04877 43.9994 8.93061 43.2242 8.98668 42.361C9.0349 41.6279 9.27723 40.9431 9.71247 40.3066C10.1483 39.6688 10.8216 39.163 11.7331 38.7899C12.6434 38.4173 13.7893 38.2757 15.1716 38.3655C16.4562 38.4511 17.5635 38.7441 18.4943 39.2456C19.425 39.7459 20.1237 40.3994 20.5897 41.206C21.0539 42.0113 21.2534 42.9071 21.1877 43.8921ZM15.1812 43.1085C15.2053 42.7438 15.1378 42.3893 14.9787 42.0451C14.8183 41.6997 14.5923 41.4103 14.3011 41.177C14.0087 40.9443 13.6838 40.8045 13.327 40.7575C12.8803 40.7285 12.4631 40.778 12.0755 40.9046C11.6867 41.0299 11.369 41.2313 11.1231 41.5074C10.8759 41.7823 10.7391 42.1216 10.7131 42.5249C10.689 42.8884 10.7553 43.2357 10.9109 43.5666C11.0652 43.8981 11.3057 44.1742 11.6318 44.3961C11.9586 44.6179 12.3504 44.7445 12.8085 44.7746C13.4873 44.818 14.0425 44.6987 14.4747 44.4154C14.9075 44.1326 15.1426 43.6968 15.1812 43.1085Z" fill="black"/>
<path d="M22.6874 36.3772C22.4685 36.9064 22.1955 37.4056 21.8675 37.8746C21.5396 38.3423 21.1827 38.7064 20.7969 38.9669L19.2899 37.6672C19.5985 37.5291 19.9042 37.2977 20.2062 36.9727C20.507 36.6466 20.7318 36.3024 20.8813 35.9407C21.0579 35.5151 21.1737 35.1064 21.2285 34.7158C21.2828 34.3252 21.2129 33.9442 21.0188 33.5729C20.8247 33.2003 20.4419 32.8953 19.871 32.659C19.4611 32.489 19.0668 32.4335 18.6871 32.4926C18.3079 32.5505 17.9613 32.7235 17.6478 33.011C17.3343 33.2992 17.0751 33.6922 16.869 34.1901C16.702 34.594 16.582 35.0389 16.5097 35.526C16.4361 36.0119 16.4175 36.3699 16.4542 36.6014L10.7323 34.0021L13.2183 27.9956L14.8652 28.678L13.1146 32.9098L15.3692 34.0214C15.3981 33.7609 15.4481 33.5072 15.5187 33.2594C15.588 33.0104 15.682 32.741 15.8008 32.4516C16.0998 31.7319 16.4898 31.1761 16.9702 30.7854C17.4495 30.3948 17.9926 30.1754 18.6003 30.1272C19.2067 30.0777 19.8517 30.1941 20.5365 30.4768C21.3352 30.8083 21.9555 31.2743 22.398 31.8753C22.8417 32.4769 23.0876 33.1666 23.1359 33.9442C23.1853 34.7206 23.0358 35.532 22.6874 36.3772Z" fill="black"/>
<path d="M21.5315 26.4831C20.8564 27.1408 20.1541 27.4332 19.4241 27.3608C18.6929 27.2873 17.9797 26.8948 17.2853 26.1841C16.5203 25.4017 16.1315 24.65 16.1182 23.9296C16.1056 23.2098 16.4196 22.5359 17.061 21.909C17.6964 21.2887 18.3697 20.9975 19.0817 21.0361C19.7924 21.0734 20.5345 21.487 21.3073 22.2779C22.7812 23.7861 22.8559 25.1877 21.5315 26.4831ZM21.7196 17.4963L22.8987 16.3438L26.5011 29.232L25.3196 30.387L21.7196 17.4963ZM20.6369 25.5934C20.9106 25.3251 20.9781 25.0327 20.8395 24.7157C20.7014 24.3992 20.4223 24.026 20.0028 23.5968C19.6785 23.2629 19.3963 23.0133 19.1564 22.8493C18.9171 22.6842 18.6971 22.5998 18.4957 22.5962C18.2932 22.5931 18.1015 22.68 17.9194 22.8566C17.6626 23.1074 17.5903 23.3955 17.7024 23.7198C17.8152 24.0447 18.1051 24.4468 18.5729 24.9254C18.9991 25.3631 19.3795 25.6524 19.7134 25.7935C20.048 25.9334 20.356 25.867 20.6369 25.5934ZM31.3237 24.8724C30.6449 25.5349 29.9402 25.8267 29.209 25.7477C28.4772 25.6693 27.7628 25.2727 27.0654 24.5589C26.3046 23.7813 25.9152 23.0326 25.8959 22.314C25.8766 21.5955 26.1877 20.9227 26.8291 20.2958C27.4638 19.6755 28.1408 19.3844 28.8594 19.4229C29.5791 19.4615 30.326 19.8763 31.0994 20.6671C31.789 21.373 32.1724 22.0814 32.2496 22.7915C32.3268 23.5004 32.0181 24.1942 31.3237 24.8724ZM30.3809 23.9778C30.5786 23.7867 30.6714 23.5848 30.6606 23.3726C30.6491 23.1604 30.5677 22.9476 30.417 22.7336C30.2675 22.5184 30.0535 22.2682 29.7756 21.9837C29.2886 21.4858 28.8859 21.1723 28.5676 21.0433C28.2505 20.9149 27.9612 20.9776 27.6995 21.2314C27.4355 21.4906 27.3607 21.7799 27.4753 22.0994C27.591 22.4177 27.8882 22.8222 28.3675 23.3123C28.79 23.7463 29.162 24.0345 29.4839 24.1755C29.8052 24.3154 30.1042 24.2497 30.3809 23.9778Z" fill="black"/>
<path d="M38.0599 21.8684C37.2931 22.1016 36.662 22.189 36.1671 22.1312C35.6716 22.0721 35.299 21.9594 35.0483 21.7936L35.1833 20.0816C36.0447 20.4451 36.8621 20.5102 37.6355 20.2769C37.984 20.1726 38.2215 20.0231 38.3469 19.8284C38.4722 19.6325 38.5024 19.43 38.4385 19.2208C38.371 18.9959 38.1624 18.8326 37.814 18.7313C37.4649 18.6288 36.964 18.5378 36.3118 18.4588C35.8922 18.4106 35.5184 18.3395 35.1905 18.2442C34.8626 18.1478 34.5527 17.9784 34.2598 17.7354C33.9656 17.4931 33.7528 17.1537 33.6208 16.7179C33.4761 16.2356 33.4701 15.7787 33.6015 15.3459C33.7317 14.9137 33.9963 14.5321 34.3948 14.2005C34.7933 13.8696 35.3117 13.6074 35.9501 13.4145C36.331 13.2987 36.7012 13.2324 37.0617 13.2143C37.4233 13.1968 37.7404 13.2131 38.0141 13.2625C38.289 13.3108 38.4952 13.3729 38.6338 13.4482L38.5229 15.0638C38.2191 14.9498 37.8869 14.8757 37.527 14.8419C37.1684 14.807 36.8205 14.8407 36.483 14.9432C36.0791 15.0638 35.8108 15.2012 35.6776 15.3555C35.5456 15.5098 35.516 15.7076 35.5884 15.9487C35.6619 16.1916 35.8428 16.358 36.1309 16.4478C36.4185 16.5364 36.8428 16.604 37.4041 16.6504C38.2076 16.7179 38.8611 16.8885 39.3644 17.1616C39.869 17.4352 40.2059 17.8512 40.3747 18.4106C40.5158 18.8772 40.5375 19.3317 40.4398 19.7754C40.3434 20.219 40.0999 20.6259 39.7092 20.9955C39.3198 21.3638 38.77 21.655 38.0599 21.8684Z" fill="black"/>
<path d="M43.1286 20.9389C42.63 20.9546 42.2057 20.8557 41.8554 20.6423C41.5064 20.4289 41.2405 20.1336 41.0573 19.7574C40.874 19.3812 40.774 18.9581 40.7583 18.4867C40.745 18.0768 40.868 17.6644 41.1272 17.2497C41.3876 16.8337 41.8602 16.4708 42.545 16.1622C43.231 15.8536 44.1666 15.6812 45.3518 15.6438L45.3397 15.2556C45.3252 14.7962 45.2023 14.4442 44.9708 14.1994C44.7405 13.9535 44.3475 13.8402 43.7917 13.8594C43.354 13.8727 42.929 13.9601 42.5161 14.1223C42.1044 14.2832 41.8036 14.4761 41.6143 14.701L40.8885 13.1095C41.261 12.8395 41.7282 12.6056 42.2894 12.4079C42.8501 12.2101 43.4505 12.101 44.0907 12.0799C44.8924 12.0546 45.5314 12.1571 46.0076 12.3886C46.4832 12.6201 46.8238 12.957 47.03 13.3989C47.2356 13.8414 47.3489 14.3935 47.37 15.0554L47.5484 20.5579L45.7472 20.6158L45.5591 19.4246C45.2758 19.9165 44.9346 20.2879 44.5343 20.5387C44.1353 20.7882 43.6669 20.9208 43.1286 20.9389ZM43.9677 19.292C44.2263 19.2824 44.4958 19.1703 44.7755 18.9545C45.0552 18.7374 45.2746 18.4698 45.4337 18.1515L45.3952 16.9579C45.3144 16.9483 45.1787 16.9471 44.9877 16.9531C44.4198 16.9712 43.9158 17.0809 43.4758 17.2834C43.0369 17.486 42.8247 17.7982 42.8392 18.219C42.8519 18.6145 42.9489 18.8954 43.131 19.0605C43.3124 19.2263 43.5915 19.3035 43.9677 19.292Z" fill="black"/>
<path d="M50.9959 21.6122C50.3865 21.4784 49.9314 21.2698 49.6312 20.9853C49.3304 20.7007 49.1561 20.3336 49.1079 19.8833C49.0597 19.4336 49.1103 18.8658 49.2598 18.181L50.0893 14.3808L49.0211 14.1469L49.3997 12.418L50.5499 12.6688L51.0418 10.9689L53.0021 10.5879L52.4572 13.086L54.4826 13.5272L54.1041 15.2561L52.0786 14.8148L51.2612 18.5668C51.1599 19.0267 51.1515 19.3667 51.2371 19.5867C51.3221 19.8056 51.4909 19.9424 51.7434 19.9966C51.9683 20.0449 52.2263 20.0401 52.5175 19.9822C52.808 19.9231 53.0576 19.8375 53.2649 19.7266L53.3011 21.4748C53.0214 21.5917 52.6416 21.6604 52.163 21.6797C51.6856 21.7002 51.2961 21.6779 50.9959 21.6122Z" fill="black"/>
<path d="M58.2438 11.084L60.4115 12.0051L59.5362 14.0667L57.3685 13.1456L58.2438 11.084ZM56.9127 14.4332L58.9286 15.2892L55.6492 23.0077L53.6334 22.1517L56.9127 14.4332Z" fill="black"/>
<path d="M58.6818 24.9534C58.0211 24.5001 57.5588 24.0612 57.2953 23.6368C57.0313 23.2136 56.886 22.8538 56.8589 22.5566L58.2791 21.5897C58.5347 22.4885 58.9953 23.1654 59.6608 23.6224C59.961 23.8297 60.2262 23.9213 60.4565 23.8972C60.6862 23.8743 60.8628 23.7731 60.987 23.5934C61.1202 23.3987 61.1172 23.1335 60.9773 22.7977C60.8387 22.4601 60.597 22.0128 60.2515 21.4546C60.0261 21.0966 59.8489 20.7596 59.7186 20.4443C59.5884 20.1296 59.5257 19.7824 59.5306 19.4026C59.5366 19.0217 59.6692 18.6443 59.9284 18.2693C60.213 17.8534 60.5638 17.5604 60.9822 17.3916C61.4017 17.2229 61.8653 17.1909 62.3735 17.2952C62.881 17.4001 63.4109 17.6412 63.9625 18.0186C64.2904 18.2452 64.5731 18.4936 64.8112 18.7637C65.0506 19.0337 65.2368 19.2911 65.3707 19.5353C65.5039 19.7782 65.5841 19.9777 65.6118 20.1333L64.2832 21.0568C64.1801 20.7499 64.03 20.4455 63.8323 20.1429C63.6357 19.8409 63.3922 19.5895 63.1017 19.3882C62.7544 19.1507 62.4783 19.0283 62.2746 19.0217C62.072 19.0138 61.899 19.1133 61.7562 19.3207C61.6127 19.5298 61.5958 19.7752 61.7055 20.0561C61.8164 20.3358 62.0286 20.7089 62.3421 21.1749C62.7936 21.8471 63.0709 22.4649 63.174 23.0292C63.2765 23.5934 63.1625 24.1167 62.8316 24.5989C62.5549 24.9992 62.2125 25.2994 61.8044 25.5007C61.3975 25.7015 60.9279 25.7648 60.3962 25.6912C59.8639 25.6189 59.2925 25.3729 58.6818 24.9534Z" fill="black"/>
<path d="M66.6824 22.7177L65.9132 21.8931L67.208 20.6875L67.9772 21.5121L69.1105 20.4584C69.6989 19.9122 70.2643 19.5891 70.808 19.4891C71.3512 19.3896 71.8328 19.4354 72.2524 19.6265C72.672 19.8182 73.0342 20.0786 73.3399 20.4078C73.666 20.7586 73.9005 21.0721 74.044 21.3481C74.1868 21.6248 74.2562 21.8195 74.2513 21.9317L72.9083 23.1807C72.9336 22.9944 72.8944 22.7841 72.7901 22.549C72.6852 22.3127 72.564 22.1198 72.426 21.9703C71.8232 21.3228 71.1926 21.3041 70.5356 21.9148L69.3637 23.0047L70.7526 24.4973L69.4577 25.7029L68.0688 24.2103L63.2246 28.717L61.8381 27.2244L66.6824 22.7177Z" fill="black"/>
<path d="M74.9495 24.2358L76.2299 26.2131L74.3491 27.4308L73.0687 25.4535L74.9495 24.2358ZM71.9692 26.2613L73.158 28.1011L66.1147 32.6536L64.9259 30.8138L71.9692 26.2613Z" fill="black"/>
<path d="M67.8174 36.8985C67.507 36.0497 67.4304 35.2829 67.5883 34.5981C67.7475 33.9133 68.0833 33.331 68.5963 32.8524C69.1105 32.3749 69.7494 31.9964 70.5132 31.7167C71.2927 31.4321 72.0546 31.3164 72.7991 31.3694C73.5448 31.4225 74.2073 31.6576 74.786 32.0735C75.3647 32.4883 75.7939 33.0778 76.0736 33.8434C76.4895 34.9827 76.4594 35.9171 75.982 36.6453C75.5057 37.3747 74.6178 37.9775 73.3175 38.4537C73.0631 38.5466 72.7738 38.6406 72.4495 38.7359L70.7158 33.9905C70.0888 34.2557 69.662 34.6132 69.4354 35.0635C69.2087 35.5132 69.2099 36.0527 69.4402 36.6815C69.5608 37.0076 69.7615 37.3307 70.043 37.6508C70.3239 37.9721 70.6006 38.1861 70.8725 38.2922L69.6018 39.4737C68.835 38.9107 68.24 38.0523 67.8174 36.8985ZM72.9606 36.3077C73.7353 36.0244 74.2338 35.7338 74.4556 35.4348C74.6787 35.1358 74.7239 34.8037 74.5907 34.439C74.4038 33.929 74.0686 33.6023 73.5852 33.4576C73.1029 33.3141 72.5544 33.337 71.9407 33.5251L72.9606 36.3077Z" fill="black"/>
<path d="M69.1046 43.0458C69.0727 42.3719 69.2258 41.7757 69.5652 41.2567C69.9057 40.737 70.4019 40.3247 71.0529 40.0197C71.7051 39.7159 72.4713 39.5429 73.3508 39.5013C74.7524 39.4319 75.8501 39.6628 76.6446 40.1933C77.4403 40.725 77.8653 41.5436 77.9202 42.648C77.9473 43.2249 77.8274 43.7168 77.5609 44.1237C77.2939 44.53 76.9008 44.806 76.3818 44.9507L77.6019 44.7385L82.2267 44.5119L82.3232 46.4963L69.541 47.1209L69.4518 45.2883L71.1662 45.2039C70.5598 45.0749 70.0715 44.8259 69.7002 44.4564C69.3301 44.0881 69.1323 43.6179 69.1046 43.0458ZM70.7949 43.4509C70.8076 43.7318 70.9155 43.9868 71.118 44.2153C71.3206 44.4432 71.628 44.6192 72.0415 44.7434C72.4545 44.8669 72.9674 44.9134 73.5799 44.8832C74.4636 44.8398 75.1352 44.6807 75.5933 44.4058C76.0527 44.1309 76.2709 43.7409 76.2468 43.2363C76.2323 42.9452 76.1316 42.6757 75.9454 42.4285C75.7603 42.1808 75.4613 41.9849 75.0484 41.8402C74.6366 41.6955 74.1062 41.6389 73.4569 41.6714C72.8553 41.7003 72.3532 41.7956 71.9499 41.9583C71.5478 42.1205 71.2506 42.3309 71.0577 42.5901C70.866 42.8505 70.7786 43.1375 70.7949 43.4509Z" fill="black"/>
</svg>
