<svg width="91" height="90" viewBox="0 0 91 90" fill="none" xmlns="http://www.w3.org/2000/svg">
<mask id="mask0_874_3133" style="mask-type:luminance" maskUnits="userSpaceOnUse" x="0" y="0" width="91" height="90">
<path d="M0 0H90.3935V89.6698H0V0Z" fill="white"/>
</mask>
<g mask="url(#mask0_874_3133)">
<path d="M87.676 29.5235C87.4825 28.9979 87.2794 28.4753 87.0666 27.9568C86.8538 27.4383 86.6314 26.9241 86.3987 26.414C86.1666 25.9039 85.9249 25.398 85.6735 24.8969C85.4221 24.3951 85.1611 23.8988 84.891 23.4073C84.621 22.9157 84.3419 22.4295 84.0537 21.9482C83.765 21.4674 83.4678 20.9914 83.1609 20.5213C82.8547 20.0513 82.5394 19.5867 82.2157 19.1286C81.892 18.67 81.5593 18.2179 81.2181 17.7718C80.8775 17.3257 80.5278 16.8861 80.1704 16.4526C79.8129 16.0196 79.447 15.5933 79.0732 15.1735C78.7001 14.7543 78.3185 14.3417 77.9291 13.9362C77.5397 13.5308 77.143 13.1331 76.7391 12.742C76.3346 12.3515 75.9229 11.9688 75.5046 11.5933C75.0856 11.2178 74.66 10.8506 74.2278 10.4906C73.795 10.1312 73.3555 9.77958 72.91 9.43633C72.464 9.09308 72.0119 8.7582 71.5537 8.4323C71.095 8.10579 70.6308 7.78766 70.16 7.4785C69.6898 7.16933 69.2136 6.86914 68.7319 6.57732C68.2497 6.2861 67.7626 6.00325 67.2701 5.72996C66.7776 5.45668 66.2803 5.19237 65.7781 4.93702C65.2754 4.68228 64.7684 4.4365 64.2566 4.20089C63.7448 3.96469 63.2288 3.73805 62.7086 3.52097C62.1884 3.3039 61.6645 3.097 61.1364 2.89906C60.6084 2.70172 60.0767 2.51395 59.5414 2.33635C59.0061 2.15874 58.4678 1.99071 57.9264 1.83284C57.3851 1.67497 56.8408 1.52726 56.294 1.38972C55.7467 1.25218 55.1975 1.12481 54.6453 1.00761C54.0937 0.890398 53.5397 0.783956 52.984 0.687081C52.4276 0.590206 51.8705 0.504095 51.3111 0.428149C50.7517 0.352204 50.1917 0.287023 49.6299 0.232007C49.0687 0.176992 48.5056 0.132142 47.9426 0.0980567C47.3796 0.0639711 46.8153 0.0400512 46.2511 0.0268954C45.9009 0.0185235 45.5494 0.0137396 45.1968 0.0137396C43.8175 0.0113476 42.4413 0.0723429 41.0681 0.196128C39.6943 0.319315 38.3295 0.505291 36.9731 0.753458C35.6174 1.00163 34.2755 1.31079 32.9475 1.68095C31.6201 2.0511 30.3126 2.48106 29.025 2.97082C27.7368 3.46058 26.4745 4.00774 25.2375 4.61231C24.0005 5.21688 22.7943 5.87647 21.6182 6.59107C20.4421 7.30568 19.3016 8.0723 18.1966 8.89096C17.0917 9.70961 16.0271 10.5767 15.0029 11.4922C5.7997 19.6979 0.0102539 31.5968 0.0102539 44.8388C0.0108568 46.5783 0.112733 48.3125 0.314676 50.0407C0.452721 51.2229 0.637786 52.398 0.870473 53.5659C1.10316 54.7338 1.38226 55.8903 1.70839 57.036C2.03391 58.1818 2.40585 59.3126 2.823 60.4291C3.23954 61.5449 3.7013 62.6428 4.20646 63.7222C4.71222 64.8022 5.26018 65.86 5.85154 66.8958C6.4423 67.9321 7.07345 68.9427 7.7462 69.9288C8.41834 70.9149 9.12966 71.8729 9.87896 72.8021C10.6283 73.732 11.4143 74.6302 12.2366 75.4973C20.4801 84.2155 32.1964 89.6632 45.1968 89.6632C47.0589 89.6662 48.9143 89.5543 50.7632 89.3289C52.6114 89.1029 54.4385 88.7644 56.2446 88.3135C58.0512 87.862 59.8223 87.3023 61.5578 86.6331C63.2939 85.9634 64.9818 85.1902 66.6209 84.3129C80.7684 76.7411 90.3833 61.9043 90.3833 44.8388C90.3857 42.2273 90.1596 39.6356 89.7051 37.0636C89.2506 34.4917 88.5742 31.9783 87.676 29.5235Z" fill="#CFF3C3"/>
</g>
<mask id="mask1_874_3133" style="mask-type:luminance" maskUnits="userSpaceOnUse" x="3" y="16" width="88" height="69">
<path d="M3.68866 16.9775H90.3936V84.3356H3.68866V16.9775Z" fill="white"/>
</mask>
<g mask="url(#mask1_874_3133)">
<path d="M76.8151 40.2277C76.0351 42.9546 76.152 45.9081 75.0922 48.5398C72.8214 54.1789 64.6882 56.4465 59.7885 52.8065C54.8051 49.1043 54.3976 42.0426 53.0268 36.0172C52.4221 33.3675 51.5613 30.8027 50.4431 28.3223C49.3249 25.8424 47.9721 23.4953 46.3837 21.2815C45.2751 19.7381 43.9803 18.2126 42.2086 17.504C39.4073 16.3827 36.2317 17.5859 33.5992 19.0552C30.7491 20.6458 28.0322 22.6204 26.1894 25.3006C24.3466 27.9808 23.4803 31.4611 24.4973 34.5444C25.2297 36.7635 26.8585 38.6275 27.4583 40.8855C28.8828 46.2501 24.0548 51.2924 19.0544 53.7777C14.0541 56.2623 8.2357 57.6592 4.49703 61.7854C4.22998 62.0802 3.97861 62.384 3.7417 62.6961C4.77734 65.0552 6.00769 67.3097 7.43395 69.4595C8.86021 71.6086 10.4613 73.6215 12.2366 75.4974C19.5867 72.7987 27.0496 69.173 30.051 62.1657C31.0059 59.9376 31.426 57.4996 32.5171 55.3336C33.6082 53.1671 35.6608 51.2063 38.1016 51.2517C39.3886 51.2757 40.5967 51.8527 41.7059 52.5004C42.812 53.1498 43.8633 53.8775 44.8586 54.6836C45.8544 55.4897 46.784 56.3652 47.6466 57.31C48.5093 58.2548 49.2965 59.2583 50.0073 60.3203C50.718 61.3829 51.3443 62.4916 51.8868 63.6476C54.96 70.2345 55.6249 78.7092 61.7941 82.6111C63.262 83.5392 64.9095 84.0828 66.6209 84.3136C80.769 76.7412 90.3833 61.9044 90.3833 44.8389C90.3857 42.2274 90.1596 39.6357 89.7051 37.0637C89.2506 34.4918 88.5742 31.9784 87.676 29.5236C87.1896 29.706 86.7073 29.9016 86.2329 30.1168C81.892 32.0884 78.1178 35.6722 76.8151 40.2277Z" fill="#E8FFD4"/>
</g>
<mask id="mask2_874_3133" style="mask-type:luminance" maskUnits="userSpaceOnUse" x="0" y="0" width="88" height="63">
<path d="M0.293579 0H87.7936V62.7505H0.293579V0Z" fill="white"/>
</mask>
<g mask="url(#mask2_874_3133)">
<path d="M14.9608 29.4781C15.3967 33.676 15.3774 37.8721 14.9024 42.0659C14.6926 43.9161 14.3303 45.887 13.0131 47.2128C11.8991 48.3334 10.2902 48.7963 8.73918 49.1276C5.96261 49.7178 3.15469 50.0222 0.314819 50.0407C0.568605 52.2222 0.982137 54.3732 1.55662 56.4943C2.1305 58.6147 2.85931 60.682 3.74183 62.696C3.97934 62.3845 4.23132 62.0807 4.49716 61.7853C8.23583 57.6591 14.0542 56.2622 19.0546 53.7776C24.0549 51.2923 28.8829 46.25 27.4584 40.8854C26.8586 38.6274 25.2298 36.7635 24.4974 34.5443C23.4805 31.461 24.3467 27.9807 26.1895 25.3005C28.0323 22.6203 30.7492 20.6457 33.5993 19.0551C36.2318 17.5858 39.4075 16.3826 42.2088 17.5039C43.9804 18.2125 45.2753 19.738 46.3839 21.2814C47.9723 23.4952 49.325 25.8423 50.4432 28.3222C51.5614 30.8026 52.4223 33.3674 53.0269 36.0172C54.3977 42.0425 54.8052 49.1042 59.7887 52.8064C64.6884 56.4464 72.8216 54.1788 75.0924 48.5397C76.1521 45.908 76.0352 42.9545 76.8152 40.2276C78.1179 35.6721 81.8922 32.0883 86.233 30.1167C86.7075 29.9015 87.1897 29.7059 87.6762 29.5235C86.9974 27.6775 86.1999 25.883 85.2842 24.1404C84.3685 22.3984 83.3413 20.7229 82.2038 19.1137C81.0663 17.5051 79.8275 15.9772 78.4874 14.5294C77.1474 13.0823 75.7181 11.7278 74.199 10.4667C73.3515 11.1645 72.6606 11.9904 72.1247 12.9448C71.3254 14.3901 70.9884 16.0352 70.6623 17.6516C70.0962 20.455 69.5308 23.2578 68.9648 26.0606C68.7164 27.2906 68.427 28.5984 67.5258 29.4793C66.3558 30.6227 64.4804 30.6998 62.8872 30.3009C59.7127 29.5074 57.1122 27.1633 55.3375 24.4346C53.5628 21.7054 52.5073 18.5892 51.4692 15.509C49.7301 10.3483 47.991 5.18758 46.2512 0.0268954C45.901 0.0185235 45.5496 0.0137396 45.1969 0.0137396C43.8177 0.0113476 42.4414 0.0723429 41.0682 0.196128C39.6944 0.319912 38.3296 0.505291 36.9733 0.753458C35.6176 1.00163 34.2757 1.31079 32.9477 1.68095C31.6203 2.0511 30.3128 2.48106 29.0252 2.97082C27.7369 3.46058 26.4746 4.00774 25.2377 4.61231C24.0007 5.21688 22.7944 5.87647 21.6184 6.59107C20.4423 7.30568 19.3017 8.0723 18.1968 8.89096C17.0918 9.70961 16.0272 10.5767 15.003 11.4922C14.7191 12.2624 14.4882 13.0482 14.3104 13.8489C13.1783 18.9684 14.4195 24.2642 14.9608 29.4781Z" fill="#E8FFD4"/>
</g>
<path d="M45.1968 87.2565C21.6188 87.2565 2.43658 68.2277 2.43658 44.839C2.43658 21.4497 21.6188 2.4209 45.1968 2.4209C68.7741 2.4209 87.9563 21.4497 87.9563 44.8384C87.9563 68.2277 68.7741 87.2565 45.1968 87.2565ZM45.1968 2.75637C21.8051 2.75637 2.77476 21.6344 2.77476 44.8384C2.77476 68.0429 21.8051 86.921 45.1968 86.921C68.5878 86.921 87.6182 68.0429 87.6182 44.8384C87.6182 21.6344 68.5878 2.75637 45.1968 2.75637Z" fill="#C7E8B5"/>
<path d="M45.1968 84.2805C23.2724 84.2805 5.43622 66.587 5.43622 44.838C5.43622 23.0895 23.2724 5.39551 45.1968 5.39551C67.1206 5.39551 84.9567 23.0895 84.9567 44.838C84.9567 66.587 67.1206 84.2805 45.1968 84.2805ZM45.1968 5.73098C23.4592 5.73098 5.7738 23.2743 5.7738 44.838C5.7738 66.4022 23.4592 83.945 45.1968 83.945C66.9343 83.945 84.6186 66.4022 84.6186 44.8386C84.6186 23.2743 66.9343 5.73098 45.1968 5.73098Z" fill="#C7E8B5"/>
<path d="M45.1968 81.1479C25.0139 81.1479 8.59436 64.8597 8.59436 44.8383C8.59436 24.8175 25.0139 8.5293 45.1968 8.5293C65.3797 8.5293 81.7992 24.8175 81.7992 44.8383C81.7992 64.8597 65.3797 81.1479 45.1968 81.1479ZM45.1968 8.86417C25.2001 8.86417 8.93254 25.0022 8.93254 44.8383C8.93254 64.6749 25.2001 80.813 45.1968 80.813C65.1928 80.813 81.461 64.6749 81.461 44.8383C81.461 25.0022 65.1928 8.86417 45.1968 8.86417Z" fill="#C7E8B5"/>
<path d="M45.1968 77.9358C26.7994 77.9358 11.8315 63.0888 11.8315 44.838C11.8315 26.5878 26.7994 11.7402 45.1968 11.7402C63.5941 11.7402 78.5614 26.5878 78.5614 44.838C78.5614 63.0888 63.5941 77.9358 45.1968 77.9358ZM45.1968 12.0757C26.9857 12.0757 12.1697 26.7732 12.1697 44.838C12.1697 62.9034 26.9857 77.6003 45.1968 77.6003C63.4072 77.6003 78.2233 62.9034 78.2233 44.838C78.2233 26.7732 63.4072 12.0757 45.1968 12.0757Z" fill="#C7E8B5"/>
<path d="M45.1967 74.8812C28.4975 74.8812 14.9113 61.4042 14.9113 44.838C14.9113 28.2724 28.4975 14.7954 45.1967 14.7954C61.896 14.7954 75.4816 28.2724 75.4816 44.838C75.4816 61.4042 61.896 74.8812 45.1967 74.8812ZM45.1967 15.1309C28.6838 15.1309 15.2494 28.4578 15.2494 44.838C15.2494 61.2189 28.6838 74.5458 45.1967 74.5458C61.7091 74.5458 75.1435 61.2189 75.1435 44.838C75.1435 28.4578 61.7091 15.1309 45.1967 15.1309Z" fill="#C7E8B5"/>
<path d="M45.1967 71.8987C30.1547 71.8987 17.9175 59.7594 17.9175 44.8382C17.9175 29.9171 30.1547 17.7778 45.1967 17.7778C60.2382 17.7778 72.4754 29.9171 72.4754 44.8382C72.4754 59.7594 60.2382 71.8987 45.1967 71.8987ZM45.1967 18.1133C30.3415 18.1133 18.2557 30.1025 18.2557 44.8382C18.2557 59.5746 30.3415 71.5632 45.1967 71.5632C60.0513 71.5632 72.1372 59.5746 72.1372 44.8382C72.1372 30.1025 60.0513 18.1133 45.1967 18.1133Z" fill="#C7E8B5"/>
<path d="M45.1968 68.7332C31.9143 68.7332 21.1088 58.0136 21.1088 44.838C21.1088 31.6624 31.9143 20.9434 45.1968 20.9434C58.4786 20.9434 69.2841 31.6624 69.2841 44.838C69.2841 58.0136 58.4786 68.7332 45.1968 68.7332ZM45.1968 21.2782C32.1012 21.2782 21.447 31.8472 21.447 44.838C21.447 57.8294 32.1012 68.3978 45.1968 68.3978C58.2924 68.3978 68.9459 57.8294 68.9459 44.838C68.9459 31.8472 58.2924 21.2782 45.1968 21.2782Z" fill="#C7E8B5"/>
<path d="M60.7163 31.9587C60.0888 31.2118 59.41 30.5139 58.6794 29.8651C57.9494 29.2163 57.1753 28.6243 56.3573 28.0879C55.5399 27.5515 54.6869 27.0773 53.799 26.6646C52.9116 26.2526 51.9984 25.9064 51.0598 25.6265V25.62C49.1476 25.0465 47.1939 24.76 45.1968 24.7612C34.0188 24.7612 24.9572 33.7497 24.9572 44.8383C24.9572 45.1672 24.9657 45.4955 24.9819 45.8238C24.9988 46.1515 25.0229 46.4792 25.0555 46.8063C25.0886 47.1328 25.129 47.4593 25.1778 47.784C25.2267 48.1087 25.2833 48.4322 25.3478 48.7545C25.4129 49.0769 25.4853 49.3974 25.5661 49.7161C25.6468 50.0348 25.7355 50.3512 25.8313 50.6651C25.9277 50.9797 26.0314 51.2918 26.1436 51.601C26.2551 51.9102 26.3744 52.2163 26.501 52.5201C26.6282 52.8233 26.762 53.1235 26.9037 53.4207C27.0454 53.7173 27.1943 54.0109 27.3504 54.3003C27.5071 54.5904 27.6699 54.8762 27.8405 55.1579C28.0105 55.4395 28.1877 55.717 28.3722 55.9903C28.556 56.2636 28.7465 56.5321 28.9442 56.7958C29.1414 57.0595 29.3451 57.3184 29.5549 57.5726C29.7653 57.8261 29.9817 58.0749 30.2041 58.3183C30.4266 58.5616 30.6544 58.7996 30.8889 59.0317C31.1228 59.2643 31.3627 59.4909 31.6081 59.7116C31.8534 59.9322 32.1042 60.1463 32.3604 60.355C32.616 60.5631 32.877 60.7652 33.1429 60.9614C33.4093 61.1569 33.68 61.3459 33.9549 61.5289C34.2303 61.7113 34.51 61.8871 34.794 62.0557C35.0779 62.225 35.366 62.387 35.6584 62.5419C35.9502 62.6968 36.2462 62.8445 36.5452 62.985C36.8448 63.1255 37.1474 63.2589 37.453 63.3845C37.7592 63.51 38.0679 63.6284 38.3795 63.7397C38.6918 63.8503 39.0059 63.9532 39.3229 64.0488C39.6394 64.1445 39.9589 64.2318 40.2802 64.3119C40.6009 64.3921 40.924 64.4638 41.2489 64.5284C41.5738 64.5924 41.9 64.6486 42.2273 64.6971C42.5552 64.7455 42.8838 64.7862 43.2129 64.8185C43.5426 64.8507 43.873 64.8753 44.2039 64.8914C44.5343 64.9076 44.8652 64.9159 45.1968 64.9159C56.3748 64.9159 65.4363 55.9269 65.4363 44.8383C65.4369 44.2552 65.4122 43.6734 65.3622 43.0921C65.3116 42.5109 65.2356 41.9332 65.1343 41.3586C65.0331 40.7839 64.9065 40.2152 64.7546 39.6519C64.6026 39.088 64.4266 38.5324 64.2259 37.9841C64.0245 37.4357 63.8003 36.8975 63.5513 36.3689C63.303 35.8403 63.0317 35.3236 62.7375 34.8183C62.4434 34.3136 62.1275 33.822 61.7899 33.3448C61.4523 32.867 61.0942 32.4054 60.7163 31.9587ZM42.6541 44.8383C42.6541 44.7558 42.6583 44.6738 42.6662 44.5913C42.6746 44.5094 42.6866 44.4275 42.7029 44.3467C42.7192 44.2654 42.7391 44.1853 42.7632 44.1063C42.7879 44.0274 42.8157 43.9497 42.8476 43.8731C42.8795 43.7972 42.9151 43.7224 42.9543 43.6495C42.9935 43.5765 43.0363 43.5059 43.0827 43.4372C43.1285 43.3684 43.1785 43.302 43.231 43.2386C43.284 43.1747 43.3401 43.1137 43.3986 43.0551C43.4576 42.9965 43.5191 42.9414 43.5836 42.8888C43.6481 42.8362 43.7151 42.7872 43.7838 42.7411C43.8531 42.6957 43.9248 42.6532 43.9978 42.6143C44.0713 42.5755 44.1467 42.5402 44.2238 42.5085C44.3004 42.4768 44.3788 42.4487 44.4583 42.4248C44.5385 42.4009 44.6187 42.3811 44.7007 42.365C44.782 42.3488 44.8646 42.3363 44.9472 42.3285C45.0304 42.3201 45.1136 42.3165 45.1968 42.3165C45.28 42.3165 45.3632 42.3201 45.4457 42.3285C45.5289 42.3363 45.6109 42.3488 45.6929 42.365C45.7743 42.3811 45.8551 42.4009 45.9346 42.4248C46.0142 42.4487 46.0926 42.4768 46.1697 42.5085C46.2463 42.5402 46.3216 42.5755 46.3952 42.6143C46.4687 42.6532 46.5399 42.6957 46.6092 42.7411C46.6785 42.7872 46.7454 42.8362 46.8099 42.8888C46.8738 42.9414 46.9359 42.9965 46.9944 43.0551C47.0534 43.1137 47.1095 43.1747 47.162 43.2386C47.215 43.302 47.2644 43.3684 47.3109 43.4372C47.3567 43.5059 47.3995 43.5765 47.4393 43.6495C47.4784 43.7224 47.514 43.7972 47.546 43.8731C47.5773 43.9497 47.6056 44.0274 47.6297 44.1063C47.6539 44.1853 47.6744 44.2654 47.6906 44.3467C47.7069 44.4275 47.719 44.5094 47.7268 44.5913C47.7352 44.6738 47.7395 44.7558 47.7395 44.8383C47.7395 44.9214 47.7352 45.0033 47.7268 45.0858C47.719 45.1678 47.7069 45.2497 47.6906 45.3304C47.6744 45.4118 47.6539 45.4919 47.6297 45.5708C47.6056 45.6498 47.5773 45.7275 47.546 45.804C47.514 45.88 47.4784 45.9547 47.4393 46.0277C47.3995 46.1006 47.3573 46.1712 47.3109 46.24C47.2644 46.3087 47.215 46.3751 47.162 46.4385C47.1095 46.5025 47.0534 46.5635 46.9944 46.6221C46.9359 46.6807 46.8738 46.7357 46.8099 46.7883C46.7454 46.841 46.6785 46.89 46.6092 46.936C46.5399 46.9815 46.4687 47.0239 46.3952 47.0628C46.3216 47.1017 46.2463 47.137 46.1697 47.1687C46.0926 47.2004 46.0142 47.2285 45.9346 47.2524C45.8551 47.2763 45.7743 47.296 45.6929 47.3122C45.6109 47.3283 45.5289 47.3409 45.4457 47.3487C45.3632 47.357 45.28 47.3606 45.1968 47.3606C45.1136 47.3612 45.0304 47.357 44.9472 47.3493C44.8646 47.3409 44.782 47.3289 44.7007 47.3128C44.6187 47.2966 44.5379 47.2769 44.4583 47.253C44.3788 47.2291 44.3004 47.201 44.2232 47.1699C44.1461 47.1382 44.0707 47.1029 43.9972 47.064C43.9242 47.0251 43.8525 46.9827 43.7832 46.9366C43.7138 46.8906 43.6469 46.8416 43.583 46.7889C43.5185 46.7369 43.4564 46.6813 43.398 46.6227C43.3389 46.5647 43.2828 46.5031 43.2304 46.4397C43.1773 46.3757 43.1279 46.3093 43.0815 46.2406C43.0351 46.1718 42.9929 46.1012 42.9531 46.0283C42.9139 45.9553 42.8783 45.8806 42.847 45.804C42.815 45.7281 42.7867 45.6504 42.7626 45.5708C42.7385 45.4919 42.7186 45.4118 42.7023 45.331C42.686 45.2497 42.674 45.1684 42.6662 45.0858C42.6577 45.0039 42.6541 44.9214 42.6541 44.8383Z" fill="#1A1A1A"/>
<path d="M45.1967 61.3727C36.0062 61.3727 28.5289 53.9551 28.5289 44.8381C28.5289 35.7211 36.0062 28.3042 45.1967 28.3042C54.3873 28.3042 61.8646 35.7211 61.8646 44.8381C61.8646 53.9551 54.3873 61.3727 45.1967 61.3727ZM45.1967 28.9751C36.3793 28.9751 29.2052 36.0913 29.2052 44.8381C29.2052 53.5856 36.3793 60.7017 45.1967 60.7017C54.0141 60.7017 61.1883 53.5856 61.1883 44.8381C61.1883 36.0913 54.0141 28.9751 45.1967 28.9751Z" fill="#5ADF93"/>
<path d="M9.46757 42.6767L8.62122 40.2896L20.815 41.4879L20.5859 43.7699L9.46757 42.6767Z" fill="black"/>
<path d="M21.5095 32.4592L23.3493 33.1098L20.7644 40.2977C20.3388 40.2325 19.9488 40.1368 19.595 40.0106C18.9282 39.775 18.3905 39.4647 17.9818 39.0802C17.5737 38.6963 17.256 38.2304 17.0294 37.6833C16.8015 37.1367 16.6098 36.4532 16.4555 35.6333C16.3446 35.064 16.2306 34.5892 16.1131 34.2077C15.9962 33.8268 15.8045 33.4674 15.5392 33.1289C15.2728 32.7911 14.9123 32.5417 14.459 32.3802C14.1684 32.2786 13.8797 32.2427 13.5933 32.2726C13.3058 32.3031 13.0436 32.4149 12.8073 32.6075C12.5697 32.8006 12.3853 33.0781 12.2551 33.4399C12.0477 34.0176 12.0682 34.5534 12.3154 35.0473C12.5631 35.5418 12.9869 35.9515 13.5861 36.2768L12.1683 37.688C11.633 37.4028 11.1965 37.0015 10.8589 36.4849C10.5202 35.9682 10.3152 35.3792 10.2441 34.7172C10.1735 34.0558 10.2652 33.3723 10.519 32.6673C10.7589 31.9993 11.1025 31.4396 11.551 30.9881C11.9995 30.5354 12.5239 30.2382 13.1231 30.0959C13.7211 29.9524 14.3517 29.9978 15.0136 30.2323C15.6923 30.4715 16.2433 30.8033 16.6677 31.2273C17.0921 31.6501 17.426 32.1686 17.6684 32.7821C17.9113 33.3944 18.1289 34.1682 18.3218 35.1023C18.4249 35.6208 18.5171 36.0196 18.5991 36.2983C18.6811 36.5776 18.8035 36.8341 18.9656 37.0685C19.1266 37.3017 19.3508 37.4991 19.6384 37.6617L21.5095 32.4592Z" fill="black"/>
<path d="M25.369 30.9072C25.0152 31.3682 24.6155 31.785 24.1706 32.1582C23.7269 32.5301 23.2815 32.7921 22.8348 32.9451L21.6943 31.2899C22.0306 31.2325 22.3899 31.0842 22.7721 30.845C23.1531 30.6058 23.4653 30.3283 23.7101 30.0126C23.9928 29.6442 24.2116 29.2771 24.3659 28.9099C24.5215 28.5433 24.5528 28.1534 24.46 27.7402C24.3665 27.3258 24.0699 26.9293 23.5702 26.5514C23.2115 26.2787 22.8378 26.1226 22.449 26.0826C22.0584 26.0413 21.6725 26.1202 21.2916 26.3194C20.9094 26.5191 20.5513 26.8348 20.2186 27.2666C19.9485 27.6176 19.714 28.0201 19.5145 28.4745C19.3137 28.929 19.201 29.2759 19.1769 29.5151L14.2314 25.4894L18.2437 20.2725L19.6881 21.368L16.8597 25.0445L18.7863 26.714C18.8845 26.4671 18.9997 26.2321 19.1311 26.0084C19.2631 25.7836 19.4265 25.5456 19.6206 25.2932C20.1028 24.6683 20.6321 24.2282 21.2072 23.9728C21.7811 23.7163 22.373 23.6422 22.9819 23.7504C23.5907 23.8592 24.1947 24.1397 24.7927 24.5924C25.4932 25.1234 25.9827 25.7399 26.2612 26.4414C26.5409 27.1434 26.6024 27.8801 26.4469 28.6515C26.2925 29.4218 25.9333 30.174 25.369 30.9072Z" fill="black"/>
<path d="M26.8174 20.9547C25.9819 21.4235 25.2139 21.5276 24.5146 21.2656C23.8154 21.0025 23.2174 20.4344 22.7207 19.5602C22.1727 18.5986 21.9864 17.7656 22.1612 17.0605C22.3367 16.3543 22.8219 15.7778 23.6177 15.3311C24.4037 14.891 25.1416 14.7822 25.8312 15.0034C26.5208 15.2253 27.1417 15.8215 27.6951 16.7926C28.7512 18.6488 28.4583 20.0362 26.8174 20.9547ZM29.3492 12.2335L30.8129 11.4131L30.9865 24.9254L29.5253 25.7434L29.3492 12.2335ZM26.1712 19.852C26.5088 19.6642 26.6516 19.3975 26.6004 19.0531C26.5485 18.7074 26.3737 18.2703 26.0747 17.7423C25.842 17.3344 25.628 17.0187 25.4333 16.795C25.2392 16.5702 25.0427 16.4309 24.845 16.3764C24.6461 16.3208 24.4345 16.3561 24.2108 16.4817C23.8925 16.6587 23.7473 16.9206 23.7744 17.2662C23.8003 17.6125 23.9805 18.0789 24.3145 18.6656C24.6219 19.2049 24.9209 19.5865 25.2115 19.8113C25.5027 20.035 25.8228 20.0481 26.1712 19.852ZM36.8748 21.9234C36.0339 22.394 35.2641 22.4969 34.5648 22.232C33.8655 21.9659 33.2651 21.3936 32.7636 20.5146C32.2198 19.5578 32.033 18.7265 32.2018 18.0197C32.3705 17.3117 32.8528 16.7352 33.6485 16.2903C34.4346 15.8502 35.1761 15.742 35.8741 15.965C36.5716 16.1887 37.1967 16.7867 37.7501 17.759C38.245 18.6285 38.4379 19.419 38.3288 20.1318C38.2191 20.8434 37.7344 21.4402 36.8748 21.9234ZM36.1779 20.8064C36.4221 20.6694 36.5668 20.4966 36.612 20.2873C36.6566 20.0768 36.6325 19.8484 36.5396 19.6008C36.448 19.3521 36.3021 19.0531 36.1032 18.7038C35.7542 18.0915 35.4407 17.6813 35.1628 17.472C34.8843 17.2633 34.5829 17.2495 34.2586 17.4313C33.9318 17.6149 33.7835 17.8774 33.8125 18.2183C33.8426 18.5597 34.0295 19.0309 34.3719 19.6319C34.6757 20.1647 34.9663 20.5421 35.2448 20.7633C35.5245 20.9834 35.8355 20.9977 36.1779 20.8064Z" fill="black"/>
<path d="M44.2831 20.7388C43.4663 20.7657 42.8225 20.6874 42.3517 20.502C41.8803 20.3155 41.5439 20.1091 41.3413 19.8825L41.92 18.2512C42.6705 18.8241 43.4572 19.0967 44.2807 19.0692C44.652 19.0585 44.9251 18.9748 45.1005 18.8181C45.2753 18.662 45.3591 18.4748 45.3513 18.256C45.3428 18.0168 45.1789 17.8027 44.8594 17.6125C44.5411 17.4212 44.0721 17.2029 43.4536 16.9571C43.0533 16.7992 42.7043 16.6318 42.4071 16.4548C42.1093 16.2778 41.8483 16.0332 41.6235 15.7205C41.3998 15.4065 41.2798 15.0196 41.2642 14.5604C41.2479 14.0533 41.3606 13.6054 41.6018 13.2161C41.8429 12.8274 42.2022 12.5236 42.6796 12.3047C43.157 12.0847 43.7357 11.9639 44.4157 11.9411C44.8208 11.9286 45.203 11.9603 45.5635 12.0368C45.9252 12.1122 46.2326 12.209 46.487 12.3286C46.7408 12.4471 46.927 12.5607 47.0464 12.6707L46.5183 14.2159C46.2483 14.0281 45.9402 13.8709 45.5948 13.7447C45.2506 13.6173 44.8992 13.5593 44.5411 13.5701C44.1119 13.5844 43.8117 13.6502 43.6417 13.7662C43.4711 13.8828 43.3897 14.067 43.3981 14.3188C43.406 14.5741 43.5404 14.7828 43.8008 14.9455C44.0612 15.1081 44.4603 15.2851 44.9992 15.4765C45.7738 15.751 46.3736 16.0876 46.798 16.4859C47.2224 16.883 47.4449 17.3757 47.4659 17.9641C47.4816 18.4557 47.384 18.9042 47.1718 19.3108C46.9608 19.7175 46.6154 20.0511 46.1349 20.3107C45.6557 20.5708 45.0384 20.7131 44.2831 20.7388Z" fill="black"/>
<path d="M50.7627 21.4363C50.1418 21.3131 49.6764 21.111 49.3665 20.8287C49.0561 20.5477 48.8722 20.1817 48.8144 19.7284C48.7565 19.2757 48.7975 18.7017 48.9373 18.0062L49.7138 14.1551L48.6215 13.9375L48.9735 12.1889L50.1502 12.4233L50.618 10.6915L52.6097 10.2729L52.0985 12.8084L54.165 13.2175L53.8129 14.966L51.7465 14.557L50.9821 18.3578C50.8868 18.8255 50.8838 19.1687 50.9724 19.3888C51.0623 19.6088 51.2365 19.7446 51.4957 19.7954C51.7254 19.842 51.9882 19.8325 52.2842 19.7667C52.5796 19.6997 52.8321 19.61 53.0413 19.4964L53.1088 21.2593C52.8255 21.3819 52.4409 21.4578 51.9538 21.4865C51.468 21.5152 51.0713 21.4985 50.7627 21.4363Z" fill="black"/>
<path d="M56.644 14.0312L58.4187 14.8015L57.9099 16.2103C58.2523 15.885 58.6676 15.6572 59.1565 15.5262C59.6448 15.3941 60.2199 15.4706 60.8806 15.7559C61.1422 15.8695 61.364 16.016 61.5461 16.196L60.2078 18.0426C60.156 17.9182 60.0776 17.81 59.9715 17.7173C59.8654 17.6234 59.7238 17.5379 59.5471 17.4613C59.1806 17.3023 58.831 17.2413 58.4982 17.2796C58.1667 17.3178 57.8894 17.4099 57.6663 17.5546C57.4445 17.6999 57.3053 17.8381 57.2492 17.9684L55.1876 22.64L53.2248 21.786L56.644 14.0312Z" fill="black"/>
<path d="M60.5419 26.1123C59.8167 25.549 59.3387 24.9319 59.1072 24.2609C58.8757 23.5894 58.8528 22.913 59.0397 22.2301C59.2278 21.5478 59.5762 20.8828 60.0862 20.2352C60.607 19.575 61.2032 19.0697 61.8753 18.7187C62.5487 18.3665 63.248 18.2134 63.9731 18.2595C64.6977 18.3061 65.3861 18.5824 66.0372 19.0895C67.0095 19.8441 67.4864 20.661 67.4671 21.5412C67.4478 22.4215 67.0023 23.413 66.1312 24.5169C65.9624 24.7303 65.7635 24.9648 65.5356 25.2201L61.4871 22.077C61.0869 22.6386 60.909 23.1714 60.9542 23.6773C61.0007 24.1844 61.2918 24.646 61.8271 25.0622C62.1068 25.2775 62.454 25.4479 62.8688 25.5741C63.2847 25.6997 63.6392 25.735 63.9321 25.6794L63.4668 27.3681C62.5023 27.2963 61.5269 26.8777 60.5419 26.1123ZM64.6724 22.864C65.1884 22.2086 65.4615 21.6937 65.4922 21.3188C65.5242 20.9444 65.3849 20.6365 65.0751 20.3955C64.6374 20.0576 64.1721 19.9554 63.679 20.0893C63.1853 20.2233 62.7241 20.5336 62.2949 21.0198L64.6724 22.864Z" fill="black"/>
<path d="M64.3499 29.8682C64.0521 29.458 63.8942 29.0466 63.8749 28.634C63.8568 28.2208 63.9551 27.8315 64.1691 27.4667C64.3825 27.1019 64.6851 26.7802 65.0757 26.5027C65.4145 26.2623 65.8329 26.1338 66.3296 26.1176C66.8275 26.1003 67.4014 26.2922 68.0512 26.6941C68.7023 27.0959 69.3798 27.7824 70.0839 28.7536L70.4022 28.5263C70.7832 28.2549 71.0111 27.9535 71.087 27.6222C71.1642 27.2921 71.037 26.8992 70.706 26.4429C70.4468 26.0841 70.1321 25.7774 69.7608 25.522C69.3895 25.2673 69.0549 25.1238 68.7577 25.0915L69.6933 23.5869C70.1334 23.7496 70.5963 24.0103 71.0822 24.3691C71.5675 24.7267 72.0009 25.168 72.3819 25.6942C72.8575 26.3514 73.1318 26.9446 73.2041 27.4739C73.2776 28.0031 73.186 28.4785 72.9292 28.8995C72.6718 29.3205 72.2697 29.7259 71.7236 30.117L67.1735 33.3605L66.1005 31.8823L66.9999 31.0523C66.4242 31.0953 65.9185 31.0188 65.4832 30.8226C65.0474 30.6277 64.6694 30.3096 64.3499 29.8682ZM66.2114 29.6482C66.3657 29.8599 66.6129 30.0219 66.9541 30.1338C67.2965 30.245 67.6485 30.2779 68.0102 30.2318L68.9964 29.5286C68.9591 29.4568 68.8837 29.3426 68.7698 29.1865C68.4322 28.7207 68.0524 28.3601 67.6317 28.1054C67.2121 27.8518 66.8287 27.8482 66.4815 28.0958C66.1536 28.3302 65.9703 28.57 65.9317 28.8158C65.8943 29.0627 65.9878 29.3402 66.2114 29.6482Z" fill="black"/>
<path d="M78.5028 40.2816C78.7084 41.0901 78.6023 41.767 78.1846 42.3124C77.768 42.8578 77.0808 43.25 76.1229 43.4892L70.6566 44.8622L70.1213 42.7716L75.3706 41.4537C75.8529 41.3323 76.2073 41.1451 76.434 40.8916C76.6618 40.638 76.7282 40.3223 76.6317 39.9443C76.5654 39.686 76.4364 39.4564 76.2435 39.2554C76.0506 39.0557 75.8179 38.914 75.5466 38.8297C75.2748 38.7465 74.992 38.7418 74.6979 38.8153L69.4485 40.1333L68.9108 38.0236L74.1602 36.7056C74.631 36.5872 74.9854 36.3887 75.2235 36.11C75.4628 35.8307 75.5346 35.5012 75.4381 35.1221C75.3706 34.8572 75.2404 34.6324 75.0475 34.4476C74.8558 34.2622 74.6231 34.1342 74.3482 34.0625C74.0734 33.9919 73.7864 33.9943 73.4874 34.0696L68.2381 35.3876L67.7004 33.2779L75.9734 31.2017L76.4557 33.0961L75.373 33.4214C76.3791 33.7575 77.0175 34.4559 77.2876 35.5168C77.4274 36.0669 77.4226 36.5573 77.2731 36.9878C77.1248 37.4196 76.8421 37.788 76.4243 38.0929C77.5203 38.4147 78.2135 39.1442 78.5028 40.2816Z" fill="black"/>
</svg>
