<svg width="91" height="91" viewBox="0 0 91 91" fill="none" xmlns="http://www.w3.org/2000/svg">
<mask id="mask0_874_3003" style="mask-type:luminance" maskUnits="userSpaceOnUse" x="0" y="0" width="91" height="91">
<path d="M0.393555 0H90.0639V90.3935H0.393555V0Z" fill="white"/>
</mask>
<g mask="url(#mask0_874_3003)">
<path d="M87.3682 29.7615C87.1762 29.2316 86.9747 28.7048 86.7636 28.1821C86.5525 27.6595 86.3319 27.1411 86.101 26.6269C85.8708 26.1127 85.631 25.6027 85.3817 25.0975C85.1323 24.5918 84.8734 24.0914 84.6055 23.5959C84.3376 23.1004 84.0607 22.6103 83.7749 22.125C83.4884 21.6404 83.1936 21.1605 82.8892 20.6867C82.5854 20.2129 82.2727 19.7445 81.9516 19.2828C81.6304 18.8204 81.3004 18.3647 80.9619 17.915C80.624 17.4653 80.2772 17.0222 79.9226 16.5852C79.568 16.1487 79.205 15.7189 78.8342 15.2957C78.4641 14.8732 78.0855 14.4572 77.6992 14.0485C77.3129 13.6398 76.9195 13.2389 76.5188 12.8447C76.1175 12.451 75.7091 12.0652 75.2941 11.6867C74.8785 11.3081 74.4563 10.938 74.0276 10.5751C73.5982 10.2128 73.1623 9.85894 72.7203 9.51292C72.2778 9.1663 71.8293 8.82933 71.3749 8.50019C70.9198 8.17105 70.4593 7.85035 69.9923 7.5387C69.5259 7.22704 69.0534 6.92443 68.5756 6.63025C68.0972 6.33668 67.6141 6.05155 67.1255 5.77606C66.6369 5.50057 66.1436 5.23413 65.6455 4.97673C65.1467 4.71993 64.6438 4.47217 64.1361 4.23466C63.6284 3.99655 63.1166 3.76808 62.6005 3.54926C62.0844 3.33044 61.5648 3.12186 61.0409 2.92233C60.5171 2.7234 59.9896 2.53412 59.4586 2.35508C58.9276 2.17604 58.3936 2.00665 57.8566 1.84751C57.3196 1.68836 56.7796 1.53947 56.2372 1.40082C55.6943 1.26217 55.1495 1.13377 54.6017 1.01562C54.0546 0.897469 53.505 0.790167 52.9537 0.692511C52.4017 0.594855 51.8492 0.50805 51.2942 0.431492C50.7393 0.354934 50.1837 0.289227 49.6264 0.233768C49.0697 0.178309 48.5112 0.133098 47.9526 0.0987372C47.3941 0.0643767 46.8344 0.040264 46.2747 0.0270021C45.9272 0.0185626 45.5786 0.0137401 45.2288 0.0137401C43.8606 0.0113289 42.4953 0.0728161 41.1331 0.197599C39.7703 0.321779 38.4164 0.509255 37.0709 0.759424C35.726 1.00959 34.3949 1.32125 33.0775 1.69439C31.7608 2.06754 30.4637 2.50096 29.1864 2.99467C27.9085 3.48837 26.6563 4.03995 25.4292 4.6494C24.2021 5.25885 23.0055 5.92375 21.8388 6.64412C20.6722 7.36448 19.5407 8.13729 18.4446 8.96255C17.3485 9.7878 16.2924 10.6619 15.2765 11.5848C6.14688 19.8566 0.403748 31.8515 0.403748 45.2002C0.404346 46.9538 0.505406 48.702 0.705734 50.4441C0.842675 51.6359 1.02626 52.8204 1.25708 53.9978C1.48791 55.1751 1.76478 56.3409 2.0883 57.4959C2.41121 58.6509 2.78018 59.7908 3.19399 60.9163C3.6072 62.0411 4.06526 63.1479 4.56638 64.236C5.0681 65.3247 5.61168 66.3911 6.19831 67.4351C6.78434 68.4798 7.41044 69.4986 8.0778 70.4926C8.74457 71.4867 9.4502 72.4524 10.1935 73.3891C10.9368 74.3265 11.7166 75.232 12.5323 76.106C20.7098 84.8945 32.3324 90.3862 45.2288 90.3862C47.076 90.3892 48.9166 90.2764 50.7506 90.0492C52.5841 89.8213 54.3966 89.4801 56.1882 89.0256C57.9804 88.5705 59.7373 88.0062 61.4589 87.3317C63.1811 86.6565 64.8555 85.8771 66.4815 84.9928C80.5158 77.3599 90.0538 62.4034 90.0538 45.2002C90.0562 42.5677 89.8319 39.9551 89.381 37.3624C88.9302 34.7697 88.2592 32.2361 87.3682 29.7615Z" fill="#CFF3C3"/>
</g>
<mask id="mask1_874_3003" style="mask-type:luminance" maskUnits="userSpaceOnUse" x="4" y="17" width="87" height="69">
<path d="M4.05267 17.1147H90.0639V85.016H4.05267V17.1147Z" fill="white"/>
</mask>
<g mask="url(#mask1_874_3003)">
<path d="M76.5941 40.5522C75.8203 43.3011 75.9363 46.2784 74.885 48.9314C72.6324 54.6159 64.5643 56.9018 59.7038 53.2325C54.7601 49.5004 54.3559 42.3818 52.9961 36.3078C52.3963 33.6367 51.5423 31.0512 50.4331 28.5508C49.3238 26.0509 47.9819 23.6848 46.4062 21.4532C45.3065 19.8979 44.022 18.3595 42.2645 17.6452C39.4856 16.5149 36.3354 17.7278 33.7239 19.2089C30.8966 20.8124 28.2014 22.8029 26.3734 25.5047C24.5453 28.2065 23.686 31.7149 24.6948 34.8231C25.4214 37.0601 27.0372 38.9391 27.6322 41.2153C29.0452 46.6232 24.2559 51.7061 19.2955 54.2114C14.3352 56.7161 8.56333 58.1243 4.85457 62.2838C4.58966 62.5809 4.3403 62.8872 4.10529 63.2018C5.13264 65.58 6.35314 67.8526 7.768 70.0197C9.18285 72.1862 10.7711 74.2153 12.5322 76.1063C19.8236 73.3858 27.2267 69.731 30.2041 62.6671C31.1514 60.4211 31.5682 57.9634 32.6505 55.78C33.7329 53.596 35.7691 51.6193 38.1903 51.6651C39.4671 51.6893 40.6654 52.271 41.7657 52.9238C42.8631 53.5785 43.906 54.3121 44.8932 55.1247C45.8811 55.9373 46.8032 56.8198 47.659 57.7723C48.5147 58.7247 49.2957 59.7363 50.0007 60.8069C50.7057 61.8781 51.3271 62.9957 51.8653 64.1609C54.9138 70.801 55.5734 79.3441 61.6933 83.2774C63.1494 84.213 64.7837 84.761 66.4814 84.9937C80.5163 77.3602 90.0537 62.4037 90.0537 45.2005C90.0561 42.568 89.8319 39.9554 89.381 37.3627C88.9301 34.77 88.2592 32.2364 87.3682 29.7618C86.8856 29.9457 86.4072 30.1428 85.9366 30.3598C81.6304 32.3473 77.8864 35.96 76.5941 40.5522Z" fill="#E8FFD4"/>
</g>
<mask id="mask2_874_3003" style="mask-type:luminance" maskUnits="userSpaceOnUse" x="0" y="0" width="88" height="64">
<path d="M0.684753 0H87.4848V63.2565H0.684753V0Z" fill="white"/>
</mask>
<g mask="url(#mask2_874_3003)">
<path d="M15.2347 29.7157C15.6671 33.9475 15.6479 38.1774 15.1767 42.405C14.9686 44.2701 14.6092 46.257 13.3026 47.5934C12.1975 48.7231 10.6015 49.1897 9.06284 49.5237C6.30848 50.1186 3.52302 50.4255 0.705872 50.4442C0.957627 52.6432 1.36785 54.8116 1.93774 56.9497C2.50703 59.0873 3.23 61.1713 4.10547 63.2016C4.34108 62.8875 4.59104 62.5813 4.85475 62.2835C8.56351 58.124 14.3353 56.7159 19.2957 54.2112C24.2561 51.7058 29.0454 46.6229 27.6323 41.215C27.0373 38.9388 25.4216 37.0598 24.695 34.8228C23.6862 31.7146 24.5455 28.2063 26.3736 25.5044C28.2016 22.8026 30.8968 20.8121 33.7241 19.2086C36.3355 17.7275 39.4858 16.5146 42.2646 17.6449C44.0222 18.3593 45.3066 19.8976 46.4064 21.4529C47.9821 23.6845 49.324 26.0506 50.4332 28.5505C51.5425 31.0509 52.3965 33.6364 52.9962 36.3075C54.3561 42.3815 54.7603 49.5001 59.7039 53.2322C64.5644 56.9015 72.6326 54.6156 74.8852 48.9311C75.9365 46.2781 75.8205 43.3008 76.5943 40.5519C77.8865 35.9597 81.6306 32.347 85.9367 30.3595C86.4074 30.1425 86.8858 29.9454 87.3683 29.7615C86.695 27.9006 85.9038 26.0916 84.9955 24.335C84.0871 22.579 83.0682 20.8899 81.9397 19.2677C80.8113 17.6461 79.5825 16.1059 78.2531 14.6465C76.9238 13.1877 75.5059 11.8223 73.999 10.551C73.1582 11.2545 72.4729 12.0869 71.9413 13.049C71.1484 14.506 70.8141 16.1644 70.4906 17.7938C69.929 20.6198 69.3681 23.4452 68.8066 26.2706C68.5602 27.5106 68.2732 28.8296 67.3792 29.7169C66.2185 30.8695 64.3581 30.9473 62.7776 30.5452C59.6286 29.7452 57.0489 27.3822 55.2884 24.6316C53.5279 21.8803 52.4808 18.739 51.451 15.6339C49.7258 10.4316 48.0006 5.22931 46.2748 0.0270021C45.9274 0.0185626 45.5787 0.0137401 45.2289 0.0137401C43.8607 0.0113289 42.4955 0.0728161 41.1332 0.197599C39.7704 0.322382 38.4166 0.509255 37.0711 0.759424C35.7262 1.00959 34.3951 1.32125 33.0777 1.69439C31.7609 2.06754 30.4638 2.50096 29.1865 2.99467C27.9086 3.48837 26.6564 4.03995 25.4293 4.6494C24.2022 5.25885 23.0057 5.92375 21.839 6.64412C20.6723 7.36448 19.5409 8.13729 18.4448 8.96255C17.3486 9.78781 16.2926 10.6619 15.2766 11.5848C14.9949 12.3612 14.7659 13.1533 14.5895 13.9605C13.4665 19.1212 14.6977 24.4598 15.2347 29.7157Z" fill="#E8FFD4"/>
</g>
<path d="M45.2288 87.9602C21.8394 87.9602 2.81067 68.778 2.81067 45.2006C2.81067 21.6226 21.8394 2.44043 45.2288 2.44043C68.6175 2.44043 87.6463 21.6226 87.6463 45.2006C87.6463 68.778 68.6175 87.9602 45.2288 87.9602ZM45.2288 2.77861C22.0242 2.77861 3.14614 21.8089 3.14614 45.2006C3.14614 68.5917 22.0242 87.622 45.2288 87.622C68.4327 87.622 87.3108 68.5917 87.3108 45.2006C87.3108 21.8089 68.4327 2.77861 45.2288 2.77861Z" fill="#C7E8B5"/>
<path d="M45.2287 84.9606C23.4797 84.9606 5.78625 67.1244 5.78625 45.2006C5.78625 23.2762 23.4797 5.43945 45.2287 5.43945C66.9772 5.43945 84.6706 23.2762 84.6706 45.2006C84.6706 67.1244 66.9772 84.9606 45.2287 84.9606ZM45.2287 5.77763C23.6651 5.77763 6.12113 23.4625 6.12113 45.2006C6.12113 66.9382 23.6651 84.6224 45.2287 84.6224C66.7924 84.6224 84.3351 66.9382 84.3351 45.2006C84.3351 23.4625 66.7924 5.77763 45.2287 5.77763Z" fill="#C7E8B5"/>
<path d="M45.2287 81.8024C25.2073 81.8024 8.91913 65.3828 8.91913 45.2006C8.91913 25.0177 25.2073 8.59814 45.2287 8.59814C65.2501 8.59814 81.5383 25.0177 81.5383 45.2006C81.5383 65.3828 65.2501 81.8024 45.2287 81.8024ZM45.2287 8.93572C25.3921 8.93572 9.2546 25.2039 9.2546 45.2006C9.2546 65.1966 25.3921 81.4648 45.2287 81.4648C65.0648 81.4648 81.2028 65.1966 81.2028 45.2006C81.2028 25.2039 65.0648 8.93572 45.2287 8.93572Z" fill="#C7E8B5"/>
<path d="M45.2287 78.5648C26.9786 78.5648 12.1304 63.5981 12.1304 45.2007C12.1304 26.8028 26.9786 11.8354 45.2287 11.8354C63.4789 11.8354 78.3265 26.8028 78.3265 45.2007C78.3265 63.5981 63.4789 78.5648 45.2287 78.5648ZM45.2287 12.1736C27.1633 12.1736 12.4658 26.9897 12.4658 45.2007C12.4658 63.4112 27.1633 78.2266 45.2287 78.2266C63.2935 78.2266 77.991 63.4112 77.991 45.2007C77.991 26.9897 63.2935 12.1736 45.2287 12.1736Z" fill="#C7E8B5"/>
<path d="M45.2288 75.4854C28.6631 75.4854 15.1855 61.8998 15.1855 45.2005C15.1855 28.5007 28.6631 14.915 45.2288 14.915C61.7944 14.915 75.2714 28.5007 75.2714 45.2005C75.2714 61.8998 61.7944 75.4854 45.2288 75.4854ZM45.2288 15.2532C28.8479 15.2532 15.521 28.6876 15.521 45.2005C15.521 61.7129 28.8479 75.1472 45.2288 75.1472C61.609 75.1472 74.9359 61.7129 74.9359 45.2005C74.9359 28.6876 61.609 15.2532 45.2288 15.2532Z" fill="#C7E8B5"/>
<path d="M45.2287 72.4787C30.307 72.4787 18.1677 60.2415 18.1677 45.2006C18.1677 30.1586 30.307 17.9214 45.2287 17.9214C60.1499 17.9214 72.2892 30.1586 72.2892 45.2006C72.2892 60.2415 60.1499 72.4787 45.2287 72.4787ZM45.2287 18.2596C30.4924 18.2596 18.5032 30.3454 18.5032 45.2006C18.5032 60.0552 30.4924 72.1405 45.2287 72.1405C59.9645 72.1405 71.9537 60.0552 71.9537 45.2006C71.9537 30.3454 59.9645 18.2596 45.2287 18.2596Z" fill="#C7E8B5"/>
<path d="M45.2287 69.2881C32.0525 69.2881 21.3335 58.482 21.3335 45.2007C21.3335 31.9183 32.0525 21.1128 45.2287 21.1128C58.4043 21.1128 69.1234 31.9183 69.1234 45.2007C69.1234 58.482 58.4043 69.2881 45.2287 69.2881ZM45.2287 21.4504C32.2379 21.4504 21.669 32.1045 21.669 45.2007C21.669 58.2963 32.2379 68.9499 45.2287 68.9499C58.2195 68.9499 68.7879 58.2963 68.7879 45.2007C68.7879 32.1045 58.2195 21.4504 45.2287 21.4504Z" fill="#C7E8B5"/>
<path d="M60.6241 32.2164C60.0016 31.4635 59.3283 30.76 58.6035 30.106C57.8793 29.4525 57.1115 28.8551 56.3 28.3144C55.4891 27.7737 54.643 27.2956 53.7621 26.8797C52.8819 26.4644 51.9759 26.1153 51.0449 25.8332V25.8266C49.148 25.2485 47.2099 24.9597 45.2288 24.9609C34.1402 24.9609 25.1511 34.0219 25.1511 45.2005C25.1511 45.5314 25.1595 45.8624 25.1756 46.1933C25.1924 46.5237 25.2163 46.854 25.2486 47.1838C25.2815 47.5135 25.3216 47.842 25.37 48.1694C25.4184 48.4967 25.4746 48.8228 25.5386 49.1477C25.6032 49.4727 25.675 49.7958 25.7551 50.1171C25.8352 50.4384 25.9231 50.7573 26.0182 51.0737C26.1139 51.3908 26.2167 51.7055 26.328 52.0172C26.4386 52.3288 26.557 52.6374 26.6826 52.9437C26.8088 53.2493 26.9415 53.5519 27.082 53.8515C27.2226 54.1511 27.3703 54.4465 27.5252 54.7389C27.6806 55.0306 27.8421 55.3188 28.0113 55.6027C28.18 55.8866 28.3558 56.1663 28.5388 56.4418C28.7211 56.7173 28.9101 56.988 29.1063 57.2538C29.3018 57.5197 29.5039 57.7807 29.712 58.0369C29.9207 58.2925 30.1354 58.5432 30.3561 58.7886C30.5767 59.0339 30.8028 59.2739 31.0354 59.5077C31.2674 59.7422 31.5054 59.9707 31.7488 60.1931C31.9922 60.4156 32.2409 60.6314 32.4951 60.8418C32.7486 61.0516 33.0076 61.2553 33.2713 61.453C33.5356 61.6502 33.8041 61.8406 34.0768 62.0251C34.3501 62.209 34.6275 62.3862 34.9092 62.5562C35.1908 62.7268 35.4767 62.8902 35.7667 63.0463C36.0561 63.2024 36.3498 63.3513 36.6464 63.493C36.9436 63.6346 37.2438 63.7691 37.5469 63.8956C37.8507 64.0222 38.1569 64.1416 38.4661 64.2537C38.7758 64.3652 39.0874 64.4689 39.4019 64.5654C39.7159 64.6618 40.0328 64.7498 40.3515 64.8306C40.6697 64.9114 40.9902 64.9837 41.3125 65.0488C41.6348 65.1133 41.9583 65.17 42.283 65.2188C42.6084 65.2677 42.9343 65.3086 43.2608 65.3412C43.5879 65.3738 43.9156 65.3985 44.2439 65.4147C44.5716 65.431 44.8999 65.4395 45.2288 65.4395C56.3174 65.4395 65.3064 56.3779 65.3064 45.2005C65.307 44.6122 65.2825 44.0256 65.2329 43.4397C65.1826 42.8537 65.1073 42.2714 65.0068 41.6921C64.9064 41.1128 64.7808 40.5395 64.6301 39.9717C64.4794 39.4032 64.3048 38.8432 64.1056 38.2904C63.9059 37.7382 63.6835 37.1951 63.4365 36.6622C63.1901 36.1293 62.921 35.6085 62.6292 35.0997C62.3374 34.5903 62.024 34.0948 61.6891 33.6138C61.3543 33.1321 60.9991 32.6667 60.6241 32.2164ZM42.7064 45.2005C42.7064 45.1167 42.7106 45.0341 42.7184 44.9509C42.7268 44.8684 42.7387 44.7858 42.7549 44.7044C42.771 44.6224 42.7907 44.5416 42.8147 44.4621C42.8392 44.3825 42.8667 44.3041 42.8984 44.227C42.9301 44.1504 42.9654 44.075 43.0042 44.0015C43.0431 43.928 43.0856 43.8568 43.1316 43.7875C43.177 43.7182 43.2267 43.6519 43.2787 43.5874C43.3313 43.5229 43.3869 43.4614 43.445 43.4023C43.5036 43.3432 43.5645 43.2878 43.6285 43.2347C43.6925 43.1817 43.7589 43.1322 43.8271 43.0858C43.8958 43.04 43.967 42.9972 44.0394 42.958C44.1123 42.9188 44.1871 42.8833 44.2636 42.8513C44.3395 42.8194 44.4173 42.791 44.4962 42.7669C44.5758 42.7428 44.6553 42.7229 44.7366 42.7067C44.8173 42.6904 44.8993 42.6777 44.9812 42.6699C45.0637 42.6614 45.1462 42.6578 45.2288 42.6578C45.3113 42.6578 45.3938 42.6614 45.4757 42.6699C45.5583 42.6777 45.6396 42.6904 45.7209 42.7067C45.8016 42.7229 45.8818 42.7428 45.9607 42.7669C46.0396 42.791 46.1174 42.8194 46.1939 42.8513C46.2699 42.8833 46.3446 42.9188 46.4176 42.958C46.4905 42.9972 46.5611 43.04 46.6299 43.0858C46.6986 43.1322 46.765 43.1817 46.829 43.2347C46.8924 43.2878 46.954 43.3432 47.012 43.4023C47.0706 43.4614 47.1262 43.5229 47.1782 43.5874C47.2308 43.6519 47.2799 43.7182 47.3259 43.7875C47.3714 43.8568 47.4138 43.928 47.4533 44.0015C47.4922 44.075 47.5275 44.1504 47.5591 44.227C47.5902 44.3041 47.6183 44.3825 47.6423 44.4621C47.6662 44.5416 47.6865 44.6224 47.7027 44.7044C47.7188 44.7858 47.7308 44.8684 47.7385 44.9509C47.7469 45.0341 47.7511 45.1167 47.7511 45.2005C47.7511 45.2837 47.7469 45.3663 47.7385 45.4495C47.7308 45.5321 47.7188 45.6146 47.7027 45.696C47.6865 45.778 47.6662 45.8588 47.6423 45.9384C47.6183 46.0179 47.5902 46.0963 47.5591 46.1734C47.5275 46.25 47.4922 46.3254 47.4533 46.3989C47.4138 46.4724 47.372 46.5436 47.3259 46.6129C47.2799 46.6822 47.2308 46.7491 47.1782 46.813C47.1262 46.8775 47.0706 46.939 47.012 46.9981C46.954 47.0572 46.8924 47.1126 46.829 47.1657C46.765 47.2187 46.6986 47.2682 46.6299 47.3146C46.5611 47.3604 46.4905 47.4032 46.4176 47.4424C46.3446 47.4822 46.2699 47.5171 46.1939 47.5491C46.1174 47.581 46.0396 47.6094 45.9607 47.6335C45.8818 47.6576 45.8016 47.6775 45.7209 47.6938C45.6396 47.71 45.5583 47.7227 45.4757 47.7305C45.3938 47.739 45.3113 47.7426 45.2288 47.7426C45.1462 47.7432 45.0637 47.739 44.9812 47.7311C44.8993 47.7227 44.8173 47.7106 44.7366 47.6944C44.6553 47.6781 44.5752 47.6582 44.4962 47.6341C44.4173 47.61 44.3395 47.5816 44.263 47.5503C44.1865 47.5183 44.1117 47.4828 44.0388 47.4436C43.9664 47.4044 43.8952 47.3616 43.8265 47.3152C43.7577 47.2688 43.6913 47.2193 43.6279 47.1669C43.564 47.1138 43.5024 47.0578 43.4444 46.9987C43.3857 46.9402 43.3301 46.8781 43.2781 46.8142C43.2255 46.7497 43.1765 46.6828 43.1304 46.6135C43.0844 46.5442 43.0425 46.473 43.003 46.3995C42.9642 46.326 42.9289 46.2506 42.8978 46.1734C42.8661 46.0969 42.838 46.0185 42.8141 45.9384C42.7901 45.8588 42.7704 45.778 42.7543 45.6966C42.7381 45.6146 42.7262 45.5327 42.7184 45.4495C42.71 45.3669 42.7064 45.2837 42.7064 45.2005Z" fill="#1A1A1A"/>
<path d="M45.2287 61.8679C36.1117 61.8679 28.6942 54.3905 28.6942 45.2C28.6942 36.0094 36.1117 28.5327 45.2287 28.5327C54.3458 28.5327 61.7633 36.0094 61.7633 45.2C61.7633 54.3905 54.3458 61.8679 45.2287 61.8679ZM45.2287 29.2091C36.4819 29.2091 29.3652 36.3826 29.3652 45.2C29.3652 54.018 36.4819 61.1915 45.2287 61.1915C53.9756 61.1915 61.0923 54.018 61.0923 45.2C61.0923 36.3826 53.9756 29.2091 45.2287 29.2091Z" fill="#5ADF93"/>
<path d="M24.9768 28.0941L26.6105 29.0803L22.7523 35.5642C22.36 35.4184 22.006 35.2502 21.6902 35.0603C21.097 34.7022 20.6438 34.2971 20.3292 33.845C20.0153 33.3917 19.8018 32.8775 19.6882 32.3018C19.5751 31.7267 19.5243 31.0274 19.5351 30.204C19.5387 29.6289 19.5207 29.1448 19.4825 28.7524C19.4442 28.3588 19.3306 27.9724 19.1404 27.5926C18.9508 27.2116 18.656 26.9006 18.2554 26.6594C17.997 26.5039 17.7279 26.4129 17.4469 26.387C17.1664 26.3616 16.8943 26.4195 16.6312 26.5606C16.3681 26.7022 16.1397 26.9367 15.9447 27.2647C15.6356 27.7855 15.5518 28.3099 15.6936 28.8368C15.8341 29.3643 16.1588 29.8435 16.6671 30.2739L15.0406 31.3735C14.5849 30.9925 14.2452 30.5187 14.0216 29.9508C13.7967 29.3836 13.7148 28.7717 13.7752 28.1158C13.8344 27.4588 14.0527 26.8113 14.4306 26.1748C14.7894 25.5738 15.2265 25.0963 15.7414 24.7425C16.2551 24.3892 16.8124 24.2011 17.4134 24.1782C18.015 24.1559 18.6094 24.3229 19.1978 24.6798C19.7994 25.0433 20.2616 25.4719 20.5852 25.965C20.9093 26.4569 21.1281 27.0235 21.2429 27.6649C21.3578 28.3063 21.417 29.0996 21.42 30.0448C21.4217 30.5693 21.4343 30.9744 21.4582 31.2601C21.4821 31.5465 21.5491 31.8189 21.6591 32.0775C21.768 32.3368 21.9432 32.5731 22.1854 32.7865L24.9768 28.0941Z" fill="black"/>
<path d="M29.7288 26.7677C28.6285 27.7244 27.4624 28.0155 26.2317 27.6406C25.0022 27.2644 23.7698 26.3548 22.5337 24.911C21.1942 23.3473 20.4682 21.9355 20.3546 20.6769C20.2416 19.4182 20.7033 18.3379 21.7396 17.4361C22.7765 16.5343 23.9037 16.2323 25.1218 16.5295C26.3399 16.8273 27.6191 17.758 28.9586 19.3217C30.194 20.7655 30.9062 22.1284 31.0946 23.4112C31.2842 24.6928 30.8291 25.8117 29.7288 26.7677ZM28.5734 25.3933C29.5267 24.5656 29.0614 23.0508 27.1765 20.8481C25.2773 18.6297 23.8511 17.9346 22.8973 18.7623C21.9279 19.6063 22.3926 21.1374 24.2918 23.3558C25.1577 24.3673 25.959 25.072 26.6957 25.4705C27.4337 25.8677 28.0598 25.8418 28.5734 25.3933Z" fill="black"/>
<path d="M27.9594 12.0751L29.7677 11.2842L32.2434 17.0471L32.9586 18.8821L33.7887 14.3344L35.9654 13.3844L34.8196 18.0912L39.5294 20.9678L37.2164 21.9781L33.15 19.3282L34.0207 21.1872L34.81 23.027L33.0017 23.8179L27.9594 12.0751Z" fill="black"/>
<path d="M46.2997 16.2277L43.0753 16.5773L43.4365 19.9603L41.6449 20.1556L41.2837 16.7726L38.1765 17.1102L38.0019 15.4705L41.1091 15.1329L40.7503 11.7837L42.5419 11.5884L42.9007 14.9376L46.125 14.588L46.2997 16.2277Z" fill="black"/>
<path d="M51.4869 14.6375L50.4034 14.353L50.8483 12.641L51.9319 12.9255L52.3194 11.4281C52.5215 10.6535 52.8241 10.079 53.2259 9.70404C53.6278 9.32788 54.0547 9.10845 54.508 9.04576C54.9607 8.98186 55.4032 9.00658 55.8356 9.12051C56.293 9.24107 56.6548 9.38032 56.9215 9.53766C57.1894 9.6956 57.3509 9.82219 57.4071 9.91864L56.9478 11.6933C56.8713 11.5233 56.726 11.3666 56.5125 11.2231C56.2984 11.0785 56.0945 10.9808 55.9001 10.929C55.0498 10.7041 54.5128 11.0266 54.2879 11.8959L53.8861 13.4415L55.8403 13.9575L55.3954 15.6695L53.4412 15.1535L51.7788 21.5554L49.8245 21.0394L51.4869 14.6375Z" fill="black"/>
<path d="M55.4023 23.1405C54.9652 22.9042 54.6495 22.6058 54.4551 22.2459C54.2602 21.8872 54.1777 21.5002 54.2064 21.0837C54.2363 20.6659 54.3624 20.2488 54.5843 19.8322C54.7756 19.4705 55.0854 19.1752 55.5148 18.9449C55.9435 18.7152 56.529 18.6387 57.2705 18.7158C58.0132 18.793 58.903 19.1113 59.9399 19.6707L60.1217 19.3307C60.337 18.9256 60.407 18.5603 60.3322 18.2336C60.2569 17.9056 59.9764 17.6103 59.4902 17.3462C59.1075 17.1407 58.6985 17.005 58.2631 16.9387C57.8278 16.8712 57.472 16.8875 57.1963 16.9869L57.3662 15.2436C57.8206 15.1954 58.3379 15.2267 58.9186 15.3376C59.4986 15.4474 60.0679 15.6535 60.6264 15.9573C61.3279 16.3353 61.8254 16.7434 62.119 17.1823C62.4138 17.6211 62.54 18.0841 62.4969 18.5711C62.4539 19.057 62.2769 19.5911 61.9659 20.1746L59.385 25.0261L57.8063 24.1749L58.2368 23.0513C57.7501 23.334 57.2735 23.4835 56.8064 23.4998C56.3406 23.5154 55.8724 23.3961 55.4023 23.1405ZM56.9404 22.1374C57.1664 22.2592 57.4529 22.2966 57.7991 22.2483C58.1465 22.2013 58.4677 22.0795 58.7631 21.8818L59.3228 20.8305C59.2606 20.7841 59.1458 20.716 58.9783 20.6255C58.482 20.3573 57.9952 20.2006 57.5169 20.1553C57.0385 20.1107 56.7 20.2735 56.5027 20.6448C56.3161 20.9939 56.2599 21.2856 56.3352 21.5201C56.41 21.7528 56.6115 21.959 56.9404 22.1374Z" fill="black"/>
<path d="M69.0103 22.4261C69.5951 23.0181 69.8505 23.6511 69.7757 24.3262C69.7004 25.0014 69.3219 25.6819 68.6395 26.3686L64.7478 30.2772L63.2385 28.7509L67.001 24.97C67.3359 24.6336 67.5321 24.2943 67.5895 23.9501C67.6469 23.6064 67.5374 23.2954 67.2618 23.0169C67.0782 22.8306 66.8587 22.7052 66.604 22.6407C66.3504 22.575 66.0927 22.578 65.8314 22.6504C65.5694 22.7227 65.3344 22.8638 65.1257 23.0724L61.3632 26.8532L59.8538 25.3269L65.7476 19.4072L67.1159 20.7913L66.3672 21.5991C67.3826 21.3953 68.264 21.6708 69.0103 22.4261Z" fill="black"/>
<path d="M66.0808 33.0991C65.6945 32.3962 65.4786 31.7958 65.4325 31.2978C65.3859 30.8011 65.4164 30.4135 65.5234 30.1356L67.2146 29.909C67.0406 30.8252 67.1476 31.636 67.5351 32.3419C67.7103 32.6614 67.9058 32.8628 68.1211 32.9447C68.3364 33.0267 68.5385 33.0147 68.7287 32.9086C68.9326 32.7958 69.0474 32.5571 69.0731 32.1924C69.1 31.8289 69.0827 31.3201 69.0205 30.6661C68.9822 30.2465 68.9739 29.8668 68.9966 29.5256C69.0205 29.185 69.1192 28.8456 69.2932 28.508C69.4666 28.1704 69.7507 27.8919 70.1447 27.6713C70.5831 27.4272 71.0256 27.3235 71.4723 27.3602C71.9202 27.3976 72.346 27.5761 72.7496 27.8955C73.1544 28.2156 73.5174 28.6672 73.8379 29.2507C74.0293 29.5997 74.171 29.9475 74.2637 30.2948C74.3576 30.6432 74.4084 30.9567 74.4168 31.2352C74.4264 31.513 74.4096 31.7277 74.3666 31.879L72.7783 32.1153C72.8226 31.7922 72.8243 31.451 72.7831 31.0929C72.743 30.736 72.6378 30.4021 72.4673 30.0922C72.2646 29.7245 72.0751 29.4918 71.8981 29.3954C71.721 29.2977 71.5231 29.3104 71.3048 29.4339C71.0848 29.5563 70.9616 29.7667 70.9365 30.0657C70.9108 30.3659 70.9329 30.7951 71.0035 31.3533C71.1051 32.1538 71.0764 32.829 70.9173 33.3788C70.7595 33.9297 70.427 34.3481 69.9199 34.6326C69.4971 34.8671 69.06 34.9829 68.6091 34.9798C68.1576 34.978 67.7121 34.8261 67.272 34.5241C66.833 34.2215 66.436 33.7465 66.0808 33.0991Z" fill="black"/>
</svg>
