<svg width="136" height="17" viewBox="0 0 136 17" fill="none" xmlns="http://www.w3.org/2000/svg">
<path d="M17.0947 4.65723C17.1067 4.95304 17.2756 7.27917 17.4444 9.83389C17.8062 14.9433 17.8424 15.1181 18.6262 15.5349C19.1327 15.8038 19.8081 15.6828 21.0623 15.1047C23.0159 14.2172 24.7766 12.4827 25.5605 10.6541C25.9705 9.68598 25.9946 9.56497 25.9946 8.28761C25.9826 7.03715 25.9585 6.8758 25.5605 5.93459C24.2822 2.93616 22.618 1.72603 19.3619 1.37644C17.1791 1.16131 16.8655 1.60502 17.0947 4.65723ZM20.1699 3.70257C21.7979 3.90426 23.0762 4.96649 23.7757 6.67411C24.4872 8.43552 24.1616 9.9549 22.7265 11.5415C22.1838 12.1331 21.6652 12.5365 20.9537 12.9264C20.399 13.2222 19.8804 13.4643 19.8081 13.4643C19.6995 13.4643 19.6634 12.55 19.6513 9.92801C19.6392 7.05059 19.5548 4.38831 19.4463 3.72947C19.4342 3.66224 19.7598 3.66224 20.1699 3.70257Z" fill="black"/>
<path d="M26.998 4.86963C27.057 5.15767 27.0924 7.42277 27.0688 9.91045C27.0452 14.0871 27.057 14.4668 27.2575 14.7942C27.5405 15.2655 28.1419 15.6714 28.5664 15.6714C29.2149 15.6714 31.88 15.1215 32.2927 14.912C32.8233 14.6239 33.0474 14.1264 32.8823 13.6289C32.6111 12.8695 32.2455 12.7909 30.7361 13.1706C30.1937 13.3015 29.5333 13.4587 29.2503 13.511L28.7551 13.6027V12.0315V10.4604L29.8871 10.2247C31.5498 9.88426 32.3988 9.17724 32.0451 8.45712C31.8328 8.01196 31.4437 8.03814 30.0522 8.58805C29.3211 8.88919 28.7079 9.12487 28.6843 9.12487C28.6725 9.12487 28.6253 8.75826 28.59 8.3C28.4367 6.66337 28.2716 5.13149 28.2126 4.922C28.1654 4.75179 28.3659 4.67323 29.3682 4.50302C30.4413 4.30663 31.7031 4.13642 33.1535 3.96621C33.7549 3.88765 34.0615 3.57342 34.0615 3.02351C34.0615 2.00225 33.2125 1.97607 30.064 2.86639C28.2598 3.37702 27.9886 3.42939 27.5169 3.33774C27.3518 3.31156 27.2339 3.42939 27.0806 3.75672C26.9744 4.00549 26.8801 4.24116 26.8919 4.28044C26.8919 4.31972 26.9391 4.58158 26.998 4.86963Z" fill="black"/>
<path d="M35.0856 14.299C36.8277 15.9216 39.1261 15.8702 40.7625 14.8509C42.1906 13.9538 42.7277 12.4352 42.2075 10.7649C41.9268 9.87712 41.4027 9.12527 40.3651 8.12983C38.6743 6.50056 38.532 6.63289 38.1699 5.70962C37.8557 4.94287 37.822 4.75382 37.9421 4.23479C38.166 3.18961 39.1435 2.72533 40.6106 2.95905C41.2836 3.05919 41.5843 3.20368 41.6686 2.66549C41.6573 1.91478 39.8103 1.33114 38.4072 1.63868C36.7683 1.99824 35.7915 4.08036 36.3612 6.01442C36.6572 7.04447 37.0068 7.30284 38.5135 8.90989C39.687 10.1487 39.8626 10.39 40.1605 11.1496C40.4859 11.9794 40.4925 12.0307 40.2469 12.5046C40.0484 12.8926 39.9006 13.0315 39.4448 13.2102C38.8371 13.4485 37.7906 13.4275 37.03 13.1729C36.3742 12.9446 36.2703 12.85 35.966 12.3491C35.4887 11.5789 34.5143 11.57 34.1921 12.3301C33.9318 12.9041 34.1915 13.463 35.0856 14.299Z" fill="black"/>
<path d="M44.3461 15.066C44.6349 15.7439 45.4759 15.882 45.953 15.3296C46.3045 14.9154 46.3045 15.1288 46.0534 8.3876C45.8274 2.11089 46.06 1.84727 45.1998 1.84727C44.4968 1.84727 44.6474 2.5126 44.4968 4.722C44.321 7.38333 44.208 14.7522 44.3461 15.066Z" fill="black"/>
<path d="M47.8006 12.7211C48.5258 14.2412 49.9754 15.4393 51.1318 15.4811C51.8469 15.5089 52.5769 15.2112 53.2297 14.6351C54.0093 13.9394 54.8808 12.3591 55.1681 11.0944C55.3033 10.5091 55.4188 10.0056 55.4376 9.97553C55.4536 9.93318 55.7726 9.97537 56.1518 10.0552C56.7889 10.1913 56.8651 10.1865 57.119 9.94743C57.5056 9.61321 57.43 8.89627 56.9867 8.6509C56.8239 8.55971 55.9299 8.31551 54.9954 8.11931C52.4227 7.58047 51.6408 7.54227 51.4199 7.97991C51.262 8.2999 51.502 8.50208 52.461 8.8601C53.0087 9.05555 53.3644 9.25673 53.3504 9.36306C53.3335 9.45716 53.3129 9.75827 53.314 10.0415C53.2628 11.213 52.3294 13.0266 51.5862 13.3788C51.3068 13.5079 51.1581 13.4778 50.6791 13.1892C49.944 12.7407 49.5005 11.9929 49.2034 10.7087C48.7376 8.63891 48.9654 6.78237 49.8624 5.4797C50.5845 4.42364 51.3238 3.94341 53.0351 3.43166C54.4463 3.01509 54.656 2.8635 54.495 2.50132C54.2585 1.92465 52.0672 2.03204 50.6702 2.67725C49.04 3.42795 47.7536 5.0526 47.3564 6.84525C46.9105 8.81669 47.0951 11.2865 47.8006 12.7211Z" fill="black"/>
<path d="M58.3955 6.66128C58.4476 7.37431 58.591 9.50044 58.6952 11.3932C58.9038 15.1139 59.008 15.6714 59.4903 15.6714C59.7249 15.6714 59.8291 15.5677 59.9334 15.2436C60.155 14.5565 60.3374 12.1192 60.3374 9.72083V7.46506L62.0219 10.3301C63.0125 11.8729 64.1594 13.4286 64.8762 14.2194C65.3324 14.6991 65.4758 14.7769 65.9189 14.7769C66.2708 14.7769 66.5184 14.6861 66.727 14.4787C67.118 14.0898 67.1831 13.1304 67.2222 7.36135C67.2353 3.47209 67.2222 2.96649 67.0267 2.66832C66.753 2.26643 66.2447 2.11086 65.8146 2.31828C65.176 2.60349 65.1108 3.04428 65.1108 6.95946C65.1108 8.94298 65.0587 10.6413 64.9935 10.732C64.9153 10.8617 64.6807 10.6283 64.1594 9.88936C63.1428 8.45034 60.3374 3.38135 60.3374 2.97946C60.3374 2.7461 59.6467 2.31828 59.2687 2.31828C59.0471 2.31828 58.7604 2.44793 58.5779 2.64239C58.2782 2.9276 58.2521 3.04428 58.2651 4.1592C58.2782 4.82037 58.3303 5.94825 58.3955 6.66128Z" fill="black"/>
<path d="M74.5958 13.3135C75.0979 14.1169 77.0939 15.3471 78.3493 15.6233C79.7302 15.912 80.8851 14.8701 80.8851 13.3135C80.8851 12.1837 80.3453 10.8907 78.7761 8.2921C77.7718 6.6225 77.3827 5.66844 77.3701 4.95289C77.3701 4.48842 77.4329 4.33777 77.8597 3.92351C78.274 3.50925 78.4246 3.43393 78.8765 3.43393C79.567 3.43393 80.0314 3.72266 80.6466 4.52608C80.9353 4.91523 81.2742 5.21651 81.4751 5.26673C82.2283 5.45503 82.8685 4.82736 82.7053 4.04905C82.5923 3.5218 81.2993 2.17859 80.5461 1.80198C79.6423 1.35006 78.5125 1.3124 77.6212 1.71411C75.826 2.50498 75.0101 4.27501 75.5499 6.14547C75.7884 6.97399 76.1022 7.57656 77.4831 9.83617C78.5752 11.5937 78.9393 12.3469 79.0648 12.9996C79.1904 13.6775 79.0523 13.9788 78.6255 13.9788C78.1108 13.9788 76.7801 13.4516 75.7131 12.8364C75.0352 12.4347 74.7716 12.3469 74.6209 12.4347C74.3322 12.623 74.3196 12.8615 74.5958 13.3135Z" fill="black"/>
<path d="M83.642 13.9845C83.6922 14.336 84.232 14.7754 84.6212 14.7754C85.4748 14.7754 86.5795 12.6539 88.6257 7.05503C89.0902 5.81225 89.743 4.20541 90.0819 3.48986C90.4208 2.77432 90.697 2.03366 90.697 1.83281C90.697 1.31812 90.2953 0.966624 89.7179 0.966624C89.0651 0.966624 88.8266 1.25535 88.1487 2.78687C87.3955 4.48158 87.1444 4.98372 87.0565 4.98372C87.0189 4.98372 86.4163 4.41882 85.7384 3.71582C84.2822 2.24707 84.1441 2.14665 83.8554 2.42282C83.4537 2.82453 84.1441 4.06732 85.8891 6.07587C86.2531 6.49013 86.5544 6.90439 86.5544 6.99227C86.5544 7.29355 85.1233 10.6202 84.4831 11.8379C83.6922 13.2941 83.5792 13.6079 83.642 13.9845Z" fill="black"/>
<path d="M89.8491 12.7799C90.3638 13.6085 91.569 14.3491 92.9498 14.663C94.0043 14.914 94.7324 14.7508 95.3978 14.1106C96.3518 13.2068 96.3016 12.2276 95.1969 10.4576C93.8286 8.24816 93.0879 6.34004 93.1633 5.23533C93.2009 4.65788 93.2386 4.60766 93.6779 4.39426C94.2805 4.09297 94.5818 4.16829 95.2973 4.80852C95.9752 5.39853 96.6029 5.4864 97.0297 5.05959C97.444 4.64532 97.3561 4.13063 96.7535 3.47785C95.4103 2.02166 93.8286 1.80825 92.2343 2.86274C91.4936 3.35232 91.0919 4.16829 91.0919 5.16001C91.0919 6.62876 92.046 8.97626 93.6152 11.3865C94.3558 12.5289 94.4311 12.918 93.9416 13.0436C93.2637 13.2193 92.2217 12.9934 91.1673 12.4661C89.7989 11.7631 89.3093 11.8887 89.8491 12.7799Z" fill="black"/>
<path d="M98.3321 3.79779C98.42 3.848 99.0602 3.91077 99.7632 3.93588L101.031 3.98609L101.119 5.70591C101.157 6.64742 101.232 8.73129 101.282 10.3381C101.357 12.9869 101.383 13.3007 101.609 13.5769C101.96 14.0288 102.663 13.9661 102.964 13.4388C103.165 13.0873 103.165 12.8865 103.002 10.7398C102.801 8.01574 102.5 5.4674 102.274 4.58866L102.111 3.96098H103.73C105.287 3.96098 105.362 3.94843 105.651 3.64715C105.827 3.48395 105.965 3.22033 105.965 3.08224C105.965 2.9316 105.827 2.68054 105.651 2.51734C105.274 2.14074 104.847 2.11563 102.286 2.39181C98.9598 2.75586 98.1815 2.94416 98.1815 3.39608C98.1815 3.55927 98.2568 3.73502 98.3321 3.79779Z" fill="black"/>
<path d="M106.983 13.8884C107.046 14.1018 107.26 14.4031 107.448 14.5537C107.837 14.8676 108 14.8676 110.8 14.4282C112.959 14.1018 113.222 14.0014 113.461 13.4616C113.674 12.9343 113.499 12.4699 112.971 12.1811C112.658 12.0054 112.469 12.0054 110.737 12.2941L108.854 12.6205V10.2856V7.96319L110.398 7.93808C112.168 7.91297 112.808 7.73723 112.934 7.23509C112.984 7.05934 112.959 6.80827 112.884 6.65763C112.607 6.14294 112.344 6.11783 110.599 6.40656C109.708 6.5572 108.954 6.65763 108.942 6.63252C108.917 6.60742 108.967 5.804 109.03 4.84994L109.092 3.68135L109.72 3.75667C111.264 3.94498 112.771 4.0203 113.034 3.93242C113.185 3.86965 113.373 3.68135 113.461 3.50561C113.587 3.22943 113.561 3.129 113.348 2.84027C113.109 2.52644 113.034 2.50133 111.967 2.46367C111.352 2.45112 110.436 2.47623 109.933 2.53899C109.243 2.62687 109.005 2.60176 108.904 2.47622C108.703 2.25026 108.314 2.27537 108.176 2.52644C108.038 2.81517 107.661 4.24737 107.398 5.85421C106.921 8.85448 106.707 12.9218 106.983 13.8884Z" fill="black"/>
<path d="M114.514 6.64861C114.777 10.2514 115.342 15.079 115.48 15.3677C115.693 15.7945 116.083 15.7694 116.321 15.305C116.472 14.9911 116.334 12.9755 116.384 9.29739L116.447 4.77815L117.112 5.53136C117.489 5.93307 118.242 6.89968 118.782 7.66544C120.351 9.8874 120.916 11.313 121.732 10.974C122.271 10.7481 122.46 10.2836 122.799 8.28759C123.138 6.35436 123.602 4.72242 123.74 4.97349C123.866 5.19945 124.192 8.08674 124.418 10.8987C124.606 13.4094 124.707 13.7358 125.309 14.012C125.749 14.2128 126.452 13.8739 126.565 13.3968C126.665 13.0077 126.238 8.08674 125.849 5.19945C125.535 2.77664 125.334 2.0862 124.857 1.64683C124.129 0.994052 123.376 1.28278 122.623 2.48791C121.958 3.52984 121.543 4.55922 121.217 5.99031C120.752 7.9612 120.715 6.7867 119.585 5.38072C118.355 3.86175 117.627 3.13366 116.974 2.79471C115.668 2.12938 114.627 2.84493 114.463 4.51453C114.426 4.85347 114.451 5.82009 114.514 6.64861Z" fill="black"/>
<path d="M133.609 3.13981C133.11 2.43342 132.141 1.80492 131.287 1.6409C130.462 1.49755 130.053 1.56519 129.532 1.9567C128.977 2.36676 128.741 3.01657 128.874 3.74524C129.001 4.43675 129.382 5.04806 130.64 6.49415C131.173 7.10564 131.81 7.95458 132.047 8.38618C132.852 9.8689 132.931 11.7264 132.177 11.9401C131.776 12.0573 130.718 11.5835 130.034 10.9842C129.496 10.5007 128.877 10.2977 128.528 10.4954C128.109 10.7302 127.958 11.0479 128.038 11.5309C128.109 11.9644 128.221 12.0986 129.019 12.6919C130.617 13.8907 132.069 14.2865 133.081 13.7883C133.857 13.4053 134.204 12.9661 134.501 11.9882C134.747 11.1713 134.758 11.0041 134.577 9.91422C134.29 8.18032 133.642 7.02799 131.844 5.08598C130.76 3.91664 130.416 3.37553 130.672 3.23136C131.007 3.02331 131.855 3.30289 132.731 3.90858C133.476 4.40887 133.667 4.49164 133.824 4.36387C134.101 4.11447 134.046 3.78008 133.609 3.13981Z" fill="black"/>
<path d="M0.180479 9.87958C0.495077 10.9919 1.15798 12.1717 1.80965 12.7559C2.11301 13.0256 2.74221 13.4413 3.19163 13.6548C3.92195 14.0031 4.01184 14.0817 3.91072 14.2615C3.58488 14.8682 4.01184 15.6997 4.75339 15.9468C5.23652 16.1041 5.91066 15.9805 7.09041 15.5199C10.8881 14.0368 13.1577 9.95823 12.2363 6.28417C11.4836 3.25054 9.37125 1.34048 6.75334 1.32925C4.11296 1.30678 1.15798 3.56514 0.304071 6.27294C-0.0329989 7.31785 -0.0891772 8.92455 0.180479 9.87958ZM2.69727 6.58753C3.29276 5.31791 4.82081 4.09322 6.15785 3.80109C9.27013 3.13819 11.2027 7.73357 9.14653 10.9357C8.71958 11.6099 7.69713 12.5537 7.00052 12.9244L6.52863 13.1829L5.9219 12.9244C4.51744 12.329 4.04554 12.0481 3.39388 11.3964C2.52873 10.5313 2.33772 9.96947 2.37143 8.36277C2.3939 7.40774 2.43885 7.13808 2.69727 6.58753Z" fill="black"/>
<path d="M5.86289 9.26403C5.95277 10.3764 6.12131 10.9269 6.46961 11.2303C6.93028 11.6123 7.40217 11.6011 7.81789 11.1853C8.24485 10.7584 8.24485 10.3988 7.80666 8.29777C7.15499 5.11808 7.02016 4.76977 6.44714 4.76977C5.90783 4.76977 5.78424 5.23043 5.80671 7.15173C5.81795 8.03935 5.84042 8.98314 5.86289 9.26403Z" fill="black"/>
</svg>
