<svg width="168" height="17" viewBox="0 0 168 17" fill="none" xmlns="http://www.w3.org/2000/svg">
<path d="M18.3447 11.1184C18.6071 12.2933 19.0271 13.0895 19.7358 13.7552C20.5495 14.5254 21.1401 14.8387 22.1769 15.0475C23.7386 15.3739 25.2873 14.8909 26.5734 13.69C27.8858 12.4629 28.2796 11.249 27.5446 10.7399C26.9278 10.3091 26.3241 10.531 25.8385 11.3665C24.8411 13.0503 23.0037 13.6116 21.5469 12.6979C20.8907 12.2802 20.5495 11.7842 20.3001 10.8574C19.7489 8.76883 20.3133 6.10594 21.5469 5.00945C22.0719 4.53953 22.1506 4.51342 22.7937 4.56564C23.1874 4.6048 23.7911 4.77449 24.2242 4.9964C24.8279 5.29663 24.9854 5.33579 25.156 5.1922C25.9828 4.51342 23.7518 2.85564 22.2031 2.99923C19.9852 3.20808 18.3709 5.64907 18.2003 9.04295C18.1609 9.82616 18.2003 10.518 18.3447 11.1184Z" fill="black"/>
<path d="M28.7616 10.9053C28.9244 13.7077 29.122 14.2505 30.0289 14.2505C30.2265 14.2505 30.4591 14.1243 30.6218 13.9349C30.866 13.6572 30.9125 13.4552 30.9474 12.4327L30.9939 11.2461L31.4241 11.4102C31.6566 11.4986 32.6914 12.0288 33.7261 12.5968C34.7958 13.1649 35.7608 13.6193 35.9584 13.6193C36.7026 13.6193 37.0979 12.6852 36.5979 12.0919C36.4816 11.9404 35.6213 11.4102 34.6912 10.9053L33.0053 9.99642L33.5983 9.66821C35.1446 8.82245 36.0282 7.58536 36.0166 6.29778C35.9817 4.15181 34.0866 2.47291 32.2844 3.00309C31.6217 3.20506 30.7614 3.97509 30.273 4.80823L29.8777 5.51513L29.6917 4.92184C29.4824 4.24018 29.0639 4.0382 28.8895 4.55576C28.75 4.98495 28.657 9.13803 28.7616 10.9053ZM31.4473 6.60074C31.9589 5.13643 32.982 4.50527 33.6913 5.2248C34.354 5.89383 34.354 6.67648 33.668 7.32027C33.2727 7.69897 32.0054 8.40588 31.3311 8.6331C31.052 8.72146 31.052 8.72146 31.1334 8.01456C31.1683 7.63586 31.3194 6.99206 31.4473 6.60074Z" fill="black"/>
<path d="M36.9638 11.3501C37.4896 13.1181 38.8166 14.4374 40.5943 14.995C42.3093 15.539 44.0995 14.587 44.9007 12.7101C45.5267 11.2549 45.7395 10.1397 45.7395 8.33086C45.7395 6.78043 45.7145 6.65803 45.3389 5.78761C45.1261 5.2844 44.7255 4.61799 44.4501 4.29158C44.1746 3.96518 43.9368 3.58437 43.9118 3.43477C43.8366 3.02676 43.1606 2.87716 42.2468 3.08116C40.0184 3.58437 37.9904 5.4612 37.1641 7.81405C36.8136 8.79327 36.7134 10.5205 36.9638 11.3501ZM38.8917 8.19485C39.3799 6.83483 40.444 5.57001 41.8086 4.74039L42.2968 4.44118L42.422 4.80839C42.4971 5.0124 42.7475 5.4068 42.9854 5.69241C43.6238 6.46762 43.8366 7.01163 43.8992 8.05885C43.9994 9.90849 43.3109 12.1933 42.4971 12.7373C41.721 13.2677 40.5317 13.0229 39.5677 12.1389C38.6038 11.2549 38.3409 9.74528 38.8917 8.19485Z" fill="black"/>
<path d="M46.186 12.7417C46.8325 13.996 48.6946 15.1469 50.0523 15.1469C51.423 15.1598 52.2506 13.9831 51.9144 12.496C51.8368 12.1339 51.3972 11.0736 50.9446 10.1555C49.2248 6.63825 49.0954 5.64257 50.2334 4.60808C50.7118 4.18136 50.7894 4.1555 51.3325 4.22015C52.3282 4.36239 52.8584 3.75464 52.4963 2.88826C52.186 2.16412 50.7894 1.9055 49.7808 2.39688C49.1084 2.73309 48.2679 3.58653 47.8929 4.36239C47.6342 4.87964 47.5825 5.17705 47.5825 6.21153C47.5954 7.34946 47.6213 7.51756 48.0868 8.59084C48.3713 9.22446 48.8886 10.2719 49.2377 10.9184C49.8972 12.1081 50.2851 13.1296 50.1558 13.3365C49.8972 13.7632 48.2937 13.1296 47.2851 12.2245C46.4834 11.4874 46.173 11.371 46.0437 11.7201C45.9273 12.0434 45.9532 12.315 46.186 12.7417Z" fill="black"/>
<path d="M52.2127 12.3409C52.4325 12.7418 52.898 13.3754 53.2601 13.7246C53.9713 14.4358 55.2515 15.147 55.8334 15.147C56.8679 15.147 57.6179 14.384 57.6179 13.3366C57.6179 12.7418 57.2041 11.7073 56.5575 10.6728C55.4325 8.88836 55.0317 7.77629 55.0317 6.48319C55.0317 4.05216 56.7256 3.28923 58.7816 4.78923C59.4282 5.25474 59.7773 5.29354 60.2558 4.91854C60.6437 4.60819 60.7084 4.00043 60.398 3.53492C60.1394 3.18578 58.911 2.46164 58.0834 2.17716C55.911 1.44009 53.7903 2.6944 53.1437 5.08664C52.6911 6.8194 53.1696 8.8237 54.6049 11.0996C55.3161 12.2375 55.8075 13.1297 55.8075 13.2849C55.8075 13.3237 55.6523 13.3237 55.4454 13.2849C54.8765 13.1427 53.8549 12.3797 53.1049 11.5263C52.6006 10.9444 52.342 10.7504 52.1351 10.7763C51.7084 10.8409 51.7342 11.4616 52.2127 12.3409Z" fill="black"/>
<path d="M68.9791 7.65579C69.0839 7.69058 69.4098 7.72537 69.724 7.72537H70.2827L70.3292 10.9376C70.3642 13.7091 70.3991 14.2078 70.5737 14.5325C70.9345 15.205 71.5863 15.3442 72.0518 14.8572C72.3195 14.5672 72.3195 14.5672 72.1798 13.3148C72.0518 12.2132 71.7143 7.59781 71.7608 7.52823C71.7725 7.50504 72.3195 7.43546 72.9946 7.37748C73.658 7.3079 74.3563 7.19194 74.5309 7.12236C75.171 6.86724 75.171 5.98591 74.5425 5.74239C74.2632 5.63802 73.1459 5.77718 71.9703 6.06709C71.7026 6.12507 71.691 6.11347 71.5281 4.79148L71.4582 4.24645H74.2981C76.9984 4.24645 77.1613 4.23486 77.4523 4.00293C77.6734 3.82898 77.7549 3.65504 77.7549 3.37672C77.7549 2.84329 77.3592 2.57657 76.6143 2.59976C75.4504 2.63455 70.6202 3.20278 70.4689 3.33034C70.2827 3.48109 70.2594 3.79419 70.4107 3.95654C70.4922 4.06091 70.3642 6.06709 70.2478 6.41498C70.2245 6.48456 70.0499 6.57733 69.8753 6.61212C69.049 6.79766 68.4787 7.45865 68.9791 7.65579Z" fill="black"/>
<path d="M77.7991 11.6432C77.9548 13.2037 78.5648 14.0973 79.4603 14.0973C80.3688 14.0973 81.2254 13.2837 81.9652 11.6966C82.1988 11.1764 82.4324 10.8029 82.4843 10.8696C82.5233 10.923 82.6401 11.6832 82.7309 12.5635C82.8996 14.2974 83.0943 14.8442 83.5875 15.0309C84.1066 15.231 84.2754 15.191 84.7036 14.7642C85.0541 14.3907 85.093 14.2974 85.0151 13.7905C84.7945 12.2301 84.1975 4.83044 84.1975 4.27026C84.1975 3.77678 84.1326 3.56338 83.873 3.30997C83.4837 2.90984 82.9256 2.88317 82.4843 3.24328C82.095 3.55004 81.9652 3.88348 81.6018 5.33726C81.2644 6.75103 80.5895 10.0961 80.1093 11.083C79.7588 11.8033 79.7069 11.8566 79.5772 11.6165C79.4863 11.4698 79.4474 8.77833 79.4214 7.17783C79.3955 5.65736 79.3046 4.44365 79.2397 4.33695C78.9931 4.03019 78.6167 4.16356 78.4221 4.61704C77.9678 5.75072 77.6304 9.97602 77.7991 11.6432Z" fill="black"/>
<path d="M86.1795 7.35977C86.4169 8.43113 86.8724 11.7243 87.123 12.4386C87.1889 12.6237 87.4 13.2851 87.5847 13.9199C87.7693 14.5548 88.0068 15.0971 88.1255 15.1368C88.231 15.1765 88.4289 15.0971 88.574 14.9516C88.9433 14.5813 88.917 13.6819 88.4421 11.3804C88.0463 9.44933 87.802 6.0371 87.9471 6.0371C87.9867 6.0371 88.3032 6.40745 88.6462 6.85716C89.8334 8.41791 92.993 13.9596 93.4679 14.449C93.8768 14.8723 94.0351 14.9516 94.4967 14.9516C95.1035 14.9516 95.4993 14.6474 95.6576 14.0654C95.6971 13.8538 95.6444 12.9808 95.5125 12.1079C95.1563 9.74031 95.0175 6.46036 95.1098 5.56094C95.2417 4.27796 94.7273 3.6034 93.7907 3.84148C93.1575 4.0002 92.986 4.50281 92.986 6.16937C92.9992 7.00265 93.0388 8.00788 93.0916 8.40468C93.1971 9.06601 93.1839 9.10569 92.986 8.94697C92.8541 8.84116 91.8252 7.58462 90.6644 6.15614C89.5168 4.72766 88.422 3.43145 88.2241 3.27273C87.3931 2.62462 86.3246 3.14046 86.074 4.33086C85.8761 5.2435 85.9025 6.03711 86.1795 7.35977Z" fill="black"/>
<path d="M96.7553 10.4135C97.0499 11.7026 97.7928 13.2134 98.5998 14.0867C99.7782 15.3897 100.931 15.4867 102.417 14.4055C103.8 13.3936 104.21 12.4233 103.557 11.758C103.057 11.259 102.353 11.4253 101.674 12.2154C101.251 12.7144 100.688 13.0055 100.393 12.9085C100.06 12.7976 99.3555 11.8412 98.9456 10.9679C98.2411 9.4293 98.2027 7.7105 98.8559 6.22733C99.6117 4.48081 100.79 4.14813 101.969 5.32635C102.25 5.61743 102.366 5.65902 102.545 5.53427C103.109 5.14615 102.507 3.81546 101.507 3.28873C98.6766 1.80557 95.7946 6.11644 96.7553 10.4135Z" fill="black"/>
<path d="M104.039 4.79171C104.2 4.87053 105.1 5.02137 105.595 5.07392C106.371 5.1396 107.73 5.31039 107.703 5.53372C107.569 6.55842 108.097 12.6409 108.365 13.4292C108.565 14.0466 108.913 14.2962 109.502 14.2437C109.85 14.2174 110.078 14.0992 110.265 13.8496L110.533 13.4949L110.158 9.54056C109.957 7.35979 109.823 5.55999 109.85 5.53372C109.877 5.50745 109.355 5.61254 110.533 5.53372C111.697 5.4549 112.902 5.33666 113.209 5.27098C114.601 4.96882 114.655 3.60255 113.29 3.15589C112.259 2.81432 104.655 2.808 104.039 3.21525C103.638 3.46486 103.665 4.59465 104.039 4.79171Z" fill="black"/>
<path d="M114.485 13.9552C114.84 14.3647 115.292 14.3523 115.647 13.8931C115.894 13.5829 115.894 13.5456 115.894 9.89724C115.894 6.06269 115.975 4.46185 115.695 3.97788C115.469 3.56837 115.05 3.69131 114.808 3.97788C114.722 4.36258 114.41 9.42567 114.313 12.1185C114.26 13.6077 114.26 13.6946 114.485 13.9552Z" fill="black"/>
<path d="M116.981 10.4812C117.409 12.2961 118.586 14.0177 119.893 14.765C121.899 15.886 123.581 14.4848 124.034 11.2819C124.228 9.97409 123.957 8.61289 123.219 7.10489C122.52 5.67696 121.407 4.42252 120.838 4.42252C120.333 4.42252 119.88 4.90294 119.88 5.45009C119.88 5.74369 120.087 6.11735 120.657 6.83799C121.718 8.1725 122.003 8.95986 122.003 10.4946C122.003 11.7757 121.679 12.87 121.239 13.0435C120.98 13.1502 120.126 12.5631 119.699 11.9892C119.518 11.749 119.207 11.1885 119.013 10.7615C118.69 10.0408 118.651 9.81395 118.651 8.55951C118.651 7.39848 118.703 7.01147 118.974 6.29084C119.363 5.22323 120.359 4.07554 120.786 4.19565C121.213 4.31576 121.433 4.16896 121.433 3.75526C121.433 2.9679 120.592 2.75437 119.557 3.27484C117.538 4.30241 116.322 7.67873 116.981 10.4812Z" fill="black"/>
<path d="M125.029 13.4853C125.08 13.9283 125.78 14.0088 126.059 13.7806C126.376 13.5256 126.323 12.3173 126.551 9.78007L126.767 7.48445L127.565 8.77322C128.314 9.99486 129.747 12.8946 129.747 13.1765C129.747 13.2436 129.924 13.5121 130.14 13.7806C130.457 14.1565 130.622 14.2505 131.002 14.2505C131.547 14.2505 131.991 13.9551 132.181 13.4584C132.257 13.2436 132.295 11.0957 132.283 7.60527C132.27 1.68498 132.27 1.67156 131.611 1.34937C131.23 1.16142 130.71 1.38964 130.419 1.8595C130.216 2.19512 130.19 2.54416 130.228 5.79294L130.266 9.35048L129.594 8.2765C129.214 7.68582 128.593 6.71924 128.212 6.12855C127.819 5.53787 127.35 4.74581 127.16 4.36992C126.64 3.34964 125.993 3.108 125.346 3.69869L124.991 4.02088V8.57185C124.991 11.0688 125.004 13.2705 125.029 13.4853Z" fill="black"/>
<path d="M133.394 9.13246C133.503 9.26531 133.509 10.8233 133.563 11.6445C133.714 13.9755 133.563 14.5673 134.578 14.5673C135.318 14.5673 135.017 13.9272 135.113 12.0069L135.3 9.33778L136.397 9.37401L137.494 9.41024L137.686 9.90541C137.796 10.1832 138.112 11.3668 138.4 12.5383C138.976 14.9054 139.126 15.147 139.922 15.147C140.484 15.147 140.813 14.9175 140.951 14.3861C141.047 14.0479 141.06 14.0479 141.348 14.2774C141.842 14.6639 142.048 14.6639 143.447 14.2291C144.187 13.9875 145.641 13.6132 146.683 13.3958C147.726 13.1663 148.727 12.9006 148.919 12.7919C149.783 12.2967 149.248 11.0286 148.178 11.0407C148.055 11.0407 146.862 11.3185 145.559 11.6445C144.242 11.9706 143.131 12.2122 143.104 12.188C143.063 12.1518 142.994 10.1228 142.939 7.6711C142.857 3.79428 142.816 3.16626 142.61 2.88848C142.349 2.53824 142.212 2.51408 141.938 2.76771C141.527 3.11795 141.348 4.47061 141.06 9.34985C140.868 12.5262 140.8 13.275 140.69 12.8523C139.881 9.28947 138.674 6.52376 137.097 4.56723C136.246 3.52858 135.437 3.26288 134.779 3.84259C134.381 4.19283 134.244 4.62762 133.846 6.75323C133.668 7.64695 133.462 8.44405 133.366 8.52859C133.161 8.70975 133.161 8.87884 133.394 9.13246ZM135.698 7.06724C135.78 6.72907 135.89 6.45129 135.931 6.45129C136.095 6.45129 136.781 7.69526 136.672 7.7798C136.617 7.82811 136.329 7.90057 136.041 7.9368C135.465 8.02135 135.451 7.99719 135.698 7.06724Z" fill="black"/>
<path d="M150.035 12.5229C150.143 13.4285 150.266 13.7883 150.558 14.024C150.943 14.3341 151.696 14.3217 152.081 14.0116C152.435 13.7263 152.481 12.9075 152.235 11.5304C152.158 11.0838 151.989 9.43388 151.85 7.87076C151.527 4.07461 151.862 3.71484 150.85 3.71484C150.016 3.71484 150.235 4.08701 150.081 5.55089C149.943 6.74184 149.912 11.4312 150.035 12.5229Z" fill="black"/>
<path d="M153.532 4.32014C153.695 4.48103 154.945 4.57488 155.163 4.57488C155.394 4.57488 155.632 4.57488 155.672 4.64192C155.822 4.88326 155.71 6.10335 155.86 9.56253C155.941 11.4396 156.064 13.1826 156.145 13.4105C156.431 14.282 157.368 14.5234 157.994 13.9066L158.347 13.558L158.252 11.1044C158.184 8.94577 158.034 6.96144 157.831 5.19163L157.776 4.64192L159.244 4.57488C160.059 4.53466 160.888 4.41399 161.106 4.32014C161.432 3.8979 161.534 3.39511 161.106 2.9426C159.852 2.84204 154.093 2.9426 153.382 3.21421C153.226 3.69678 153.247 4.03858 153.532 4.32014Z" fill="black"/>
<path d="M162.113 3.96631C162.226 4.14363 162.764 4.85291 163.315 5.53686L164.834 7.31005L164.496 8.33597C163.582 11.0338 162.793 12.8315 162.793 13.2494C162.793 13.5534 162.881 13.7814 163.081 13.9714C163.457 14.326 163.82 14.3482 164.133 14.0063C164.258 13.8669 165.147 12.018 165.595 10.6735C166.043 9.329 168 3.50888 168 3.12891C168 2.68561 167.52 2.15828 167.044 2.15828C166.493 2.15828 166.274 2.35777 165.736 3.96631L165.26 5.35954L163.992 4.18163C162.927 3.2317 162.811 3.02588 162.523 3.06388C162.197 3.11454 161.825 3.54835 162.113 3.96631Z" fill="black"/>
<path d="M0.541662 10.9672C0.732668 12.0009 1.40681 13.3941 2.11465 14.1918C2.81127 14.9783 4.13707 15.8547 5.12581 16.1581C5.82242 16.3828 6.17073 16.4165 7.73248 16.4165C10.1369 16.4053 11.429 16.0794 12.8447 15.1244C14.3615 14.0907 15.2716 12.911 15.8446 11.1919C16.1705 10.2144 16.1368 7.40551 15.7772 6.19206C15.384 4.8213 14.9233 4.05728 13.9121 3.04607C11.9459 1.06859 9.41783 0.371984 6.77745 1.06859C5.13705 1.49555 4.04719 2.10228 3.01351 3.14719C2.51914 3.64156 1.94612 4.34941 1.73264 4.69771C1.20457 5.6078 0.743904 7.01226 0.541662 8.3493C0.33942 9.69758 0.33942 9.85488 0.541662 10.9672ZM3.01351 7.98976C3.49664 6.09093 4.51909 4.68648 5.93478 3.98987C8.76617 2.59664 11.8223 3.45055 13.0132 5.96734C13.6312 7.29315 13.6986 9.68634 13.1256 10.9447C12.7324 11.8099 11.7436 12.7762 10.7661 13.2368C9.54143 13.7986 7.08082 13.9559 5.85613 13.5402C5.39547 13.3941 4.95728 13.3267 4.57526 13.3492C4.05842 13.3829 3.9573 13.3492 3.7663 13.102C2.73262 11.7762 2.48543 10.0684 3.01351 7.98976Z" fill="black"/>
<path d="M4.63162 11.6979C4.89004 12.2709 5.41811 12.7203 6.00237 12.8776C6.85628 13.1136 7.68772 12.754 8.5641 11.799L9.15959 11.1473L9.74384 11.7765C10.4292 12.5293 10.8225 12.6754 11.2494 12.3496C11.4741 12.181 11.564 12.0125 11.5865 11.6642C11.6202 11.226 11.5753 11.1586 10.8 10.3384L9.97979 9.47323V8.28225C9.97979 7.32722 9.92361 6.93397 9.71013 6.31601C9.28318 5.06885 8.48545 4.33854 7.55289 4.33854C6.77763 4.33854 6.20461 4.57449 5.62035 5.13627C5.14846 5.58569 5.08104 5.70929 5.11475 6.03512C5.15969 6.55196 5.38441 6.5632 6.10349 6.08006C6.63156 5.73176 6.77763 5.67558 7.272 5.70929C7.82254 5.74299 7.85625 5.75423 8.0922 6.2486C8.2495 6.55196 8.37309 7.09127 8.41803 7.58564L8.49668 8.41708L8.22703 8.33843C7.57536 8.13619 6.76639 8.13619 6.24955 8.3272C5.55294 8.59685 4.83386 9.32717 4.60915 10.0125C4.36196 10.7092 4.3732 11.1361 4.63162 11.6979ZM6.49674 10.2373C6.69898 10.0238 6.88998 9.95637 7.28323 9.95637C7.9349 9.95637 7.9349 10.1249 7.28323 10.7316C6.82257 11.1586 6.47426 11.2934 6.29449 11.1136C6.12596 10.9563 6.22708 10.4957 6.49674 10.2373Z" fill="black"/>
</svg>
