<svg width="155" height="70" viewBox="0 0 155 70" fill="none" xmlns="http://www.w3.org/2000/svg">
<path d="M0.26622 44.1718C0.665695 44.3237 9.62526 39.3678 13.0683 37.0703C13.8292 36.5576 14.457 36.2538 14.457 36.3867C14.457 36.5006 14.2858 38.2285 14.0956 40.2223C13.1254 49.6784 13.5629 55.8695 15.4842 59.819C17.2723 63.5407 19.3367 66.1801 22.3042 65.5345C26.8125 64.5661 29.3044 58.8127 27.8587 52.7175C27.0217 49.2427 25.0244 46.0147 21.6954 42.7867C20.459 41.6094 19.9834 41.0398 20.2117 41.0398C21.0297 41.0398 25.0815 39.8815 26.7364 39.179C28.1677 38.3831 27.6722 38.7467 29.6696 37.2656L31.1914 36.1453L31.3245 37.8732C31.6479 42.3924 32.2566 44.1963 33.6263 44.7659C34.1589 44.9938 34.4442 45.0128 34.9198 44.8419C36.0611 44.4621 37.9063 42.1455 39.7895 38.6897L40.6075 37.2086L41.2352 38.9745C42.5097 42.5253 43.3658 43.7026 44.6403 43.7026C45.7816 43.7026 46.4664 42.8671 48.1404 39.4682C49.529 36.677 51.1269 34.2085 51.5644 34.2085C51.8688 34.2085 52.1922 36.1073 52.2873 38.4429C52.4014 40.9303 52.6868 41.6139 53.5998 41.6139C54.4368 41.6139 54.7792 41.2721 55.2928 39.867C56.5864 36.4111 58.5267 33.3351 58.9832 33.9997C59.0783 34.1516 59.4778 35.5187 59.8582 37.0188C60.8284 40.9113 61.2469 41.6139 62.6165 41.6139C63.3203 41.6139 63.8529 41.1202 64.6138 39.81C65.5079 38.215 66.6112 36.5441 66.9726 36.2213C67.296 35.9364 67.315 35.9934 67.6384 37.4175C68.0569 39.3543 68.8368 40.5695 70.1113 41.2151C73.2881 42.8291 77.9851 39.9344 80.9336 34.2569C81.4852 33.1746 81.9608 32.3201 81.9988 32.3581C82.0369 32.3961 82.151 33.0417 82.2461 33.8202C82.5505 36.0038 82.5712 37.3416 83.199 37.9872C83.8648 38.6707 84.4354 38.8606 85.3485 38.7087C86.8703 38.4619 88.2019 37.0377 91.3406 32.3667C92.1205 31.2084 92.4535 30.4679 92.5296 30.5058C92.5867 30.5628 92.4725 31.5151 92.5296 32.6923C92.6818 36.0153 93.4997 37.4773 95.3449 37.7242C96.8096 37.9331 98.6929 36.5659 101.775 33.1481L102.954 31.8379V32.7683C102.973 35.6165 103.715 37.6482 104.932 38.2369C106.796 39.1103 108.813 38.047 109.897 35.5975C110.791 33.6038 110.639 31.8948 109.441 30.2239C109.117 29.8061 108.927 29.4074 109.003 29.3694C109.631 28.9897 114.256 27.6441 115.226 27.5491C115.226 27.5491 115.701 27.4101 116.077 27.7039C116.54 28.0658 116.403 28.9707 116.403 28.9707C116.346 29.7872 115.889 32.5978 115.661 33.6422C115.09 36.3385 115.052 36.5284 115.185 37.0221C115.242 37.2689 115.509 37.5727 115.794 37.6867C116.574 38.0474 117.183 37.6297 117.963 36.2056C118.343 35.522 119.009 34.4777 119.446 33.889C120.892 31.9333 123.042 28.4004 123.661 28.5551C124.014 28.6435 124.019 29.4833 123.981 31.705C123.943 35.2937 123.981 35.8634 124.305 36.5849C125.028 38.2369 126.435 38.7685 127.995 37.971C128.737 37.5913 131.564 34.9423 133.142 33.0435C133.142 33.0435 132.793 34.1269 133.142 36.2163C133.492 38.3057 134.931 38.3698 136.395 37.971C137.784 37.6103 139.401 35.9583 140.828 33.4898C141.151 32.9202 141.436 32.4645 141.493 32.4645C141.531 32.4645 142.376 35.6657 142.775 36.1024C143.65 37.0708 145.096 37.7734 146.256 37.7734H147.131L147.664 39.2355C148.501 41.6659 150.289 44.4192 150.993 44.4192C151.506 44.4192 151.468 44.1534 150.784 42.9381C150.137 41.7989 149.186 39.0456 148.996 37.7354C148.862 36.8999 148.881 36.8619 149.833 35.8936C152.914 32.7415 154.816 24.4437 153.846 18.3106C153.58 16.5257 152.819 14.0003 152.305 13.1648C151.64 12.0825 150.441 11.9306 149.623 12.823C148.767 13.7914 147.854 16.9814 147.055 21.8613C146.599 24.6526 146.542 25.4691 146.542 30.0262L146.523 35.115H145.933C144.715 35.115 143.434 30.8885 143.51 28.9517C143.586 27.4516 143.377 27.2048 141.836 26.844C139.001 26.1794 136.757 26.863 133.98 29.2175C133.409 29.6922 132.638 30.2576 130.626 32.1037C129.513 33.1252 127.615 34.876 127.291 35.1798L126.702 35.7494V31.7619C126.702 29.5783 126.447 28.7618 126.332 28.2871C126.066 27.1288 125.362 26.2554 124.449 25.9895C123.783 25.7807 123.612 25.8186 122.68 26.2744C122.109 26.5402 121.101 27.2807 120.416 27.9073C119.732 28.5339 118.786 30.2239 118.786 30.2239C118.786 30.2239 119.018 29.0968 119.066 27.9073C119.114 26.7178 117.753 24.7743 115.794 24.8123C114.519 24.8313 112.18 25.4579 109.079 26.5972C107.063 27.3377 106.283 27.5276 105.37 27.5276C104.514 27.5276 104 27.6415 103.525 27.9263C103.163 28.1352 101.489 29.7112 99.8152 31.4201C96.4863 34.8 95.7785 35.4923 95.4932 35.0555C95.398 34.9036 95.3449 34.4772 95.3449 34.2684C95.2878 31.9328 94.9264 27.9833 94.6982 27.4706C94.3558 26.6351 93.728 26.1984 92.891 26.1984C91.997 26.1984 91.5689 27.088 89.2481 30.5058C87.2317 33.468 85.5007 35.7276 85.2724 35.7276C85.1773 35.7276 85.0441 35.5377 84.9681 35.2908C84.7778 34.7402 84.6066 24.3917 84.7778 22.8916L84.892 21.7143L85.786 21.6004C86.2806 21.5434 89.4193 21.3156 92.7673 21.1067C102.507 20.4801 104.761 20.3236 109.441 18.8045C113.511 17.4944 118.201 15.3627 121.035 12.5524C121.682 11.8879 121.834 11.3942 121.339 11.3942C121.187 11.3942 120.274 11.8499 119.304 12.4195C114.111 15.4576 109.85 17.1665 105.056 18.116C102.146 18.6856 100.186 18.8945 93.11 19.3692C90.0284 19.578 87.3746 19.6701 86.5567 19.784C85.7197 19.879 85.0159 19.9549 84.9968 19.917C84.9588 19.898 85.0349 19.2334 85.13 18.4739C85.3012 17.2017 85.3012 17.0118 84.9588 16.5751C84.6925 16.2143 84.7756 16.1613 84.2429 16.1233C83.0826 16.0284 82.6744 16.4525 82.4081 18.5223C82.2559 19.6236 82.0847 20.2122 81.8944 20.3261C81.7423 20.4021 80.639 20.6489 79.4406 20.8768C75.0844 21.6933 71.1466 23.0034 65.9154 25.377C64.1844 26.1745 62.1299 27.0479 61.35 27.3327C60.475 27.6555 59.9043 27.9783 59.8663 28.1682C59.6951 29.0227 61.0739 27.782 67.5796 25.5983C72.6396 23.9084 75.9116 23.0349 79.0694 22.4843C81.276 22.1045 81.4662 22.1235 81.4662 22.5602C81.4662 23.2818 80.1346 28.0858 79.3927 30.0605C78.1182 33.4594 76.5982 35.5187 75.0764 37.2086C73.5165 38.9366 71.6331 39.5062 70.8152 38.4808C70.3396 37.8732 70.0352 36.4491 70.0352 34.8731C70.0352 34.8731 70.0704 34.285 70.1873 33.8174C70.2647 33.5078 70.4968 32.734 71.1159 32.5792C71.735 32.4244 71.8634 32.4653 72.5863 32.5792C73.8037 32.7881 74.2584 33.1262 74.6388 32.6515C74.9078 32.1149 74.9852 31.8053 73.7471 30.8767C73.128 30.4124 72.1467 30.0121 71.3668 29.9932C69.6928 29.9742 69.0265 30.637 68.2852 31.2464C66.9917 32.3097 64.5187 34.9301 63.4725 36.582L62.7496 37.7023L62.198 35.6326C61.5322 33.0692 61.0186 32.0059 60.2577 31.5312C58.793 30.6388 56.9097 31.4363 55.464 33.5819C54.7222 34.6832 54.4368 34.8731 54.4368 34.2845C54.4368 34.1516 54.2656 33.5439 54.0373 32.9743C53.5808 31.7591 52.858 31.1704 51.7927 31.1704C50.1187 31.1704 47.8741 33.8667 45.6484 38.5568L44.6973 40.5695L44.431 39.9999C44.1266 39.3163 43.2136 36.563 42.6619 34.6452C42.3195 33.506 42.1483 33.2211 41.6918 32.9743C41.3874 32.8224 41.007 32.6895 40.8548 32.6895C40.227 32.6895 39.4091 33.7528 38.0965 36.2402C36.6318 38.9745 34.9578 41.6139 34.6725 41.6139C34.4062 41.6139 34.254 40.3797 34.1018 36.8099C33.9496 33.2021 33.7974 32.6705 32.8083 32.2907C32.0664 32.0059 31.4957 32.2907 29.2511 33.9997C25.8461 36.2937 24.8342 37.1472 20.1166 37.9068C19.1845 38.0587 18.4236 38.1536 18.4046 38.1346C18.3855 38.1156 18.4426 37.2422 18.5377 36.1978C18.6138 35.1535 18.6899 33.9762 18.7089 33.5965C18.7089 33.0078 18.8992 32.685 19.8693 31.6027C23.3885 27.6722 24.7771 24.0454 23.6928 21.634C23.1602 20.4377 22.5134 19.925 21.3911 19.8111C19.6791 19.6592 18.4177 19.9193 17.5665 21.6336C16.4822 23.8173 16.0168 28.2978 15.4842 31.2599C15.313 32.2283 14.3048 33.0638 6.84798 38.4184C2.49184 41.5325 -9.15527e-05 43.5072 -9.15527e-05 43.83C-9.15527e-05 43.9629 0.114044 44.1149 0.26622 44.1718ZM17.876 46.8184C18.1994 42.7739 17.7768 43.5462 19.5269 45.4071C22.3232 48.4262 23.845 51.3314 24.2635 54.4454C24.6249 57.0848 24.0162 59.8191 22.7988 61.0153C21.2009 62.6103 19.2986 59.0933 18.4046 55.4856C18.0051 53.8716 17.5717 50.7489 17.876 46.8184ZM19.7742 25.2227C20.4019 22.8112 21.315 21.8428 21.1438 23.7796C21.0487 24.6341 20.0025 27.0646 19.622 27.2924C19.3747 27.4443 19.4508 26.4759 19.7742 25.2227ZM105.712 30.5657C106.682 30.5657 107.71 31.9898 107.71 33.3C107.71 34.2684 107.519 34.781 106.892 35.4456C106.036 36.395 105.864 36.0532 105.636 33.0341C105.541 31.9328 105.465 30.9264 105.446 30.7935C105.446 30.6796 105.56 30.5657 105.712 30.5657ZM136.262 32.1037C136.928 30.6036 137.936 29.8061 139.192 29.8061C139.553 29.8061 139.857 29.8631 139.857 29.9201C139.857 29.977 139.401 30.8315 138.83 31.7809C137.594 33.8696 136.243 35.4456 135.882 35.2178C135.539 35.0089 135.749 33.243 136.262 32.1037ZM149.091 26.6653C149.718 21.1778 150.517 16.1839 150.822 15.8421C150.936 15.7282 150.993 15.7282 150.993 15.8421C150.993 15.956 151.126 16.7535 151.297 17.646C152.077 21.9943 151.183 28.5831 149.319 32.1719L148.729 33.3112L148.71 31.6402C148.71 30.7288 148.881 28.4882 149.091 26.6653Z" fill="black"/>
<path d="M1.89471 17.489C2.88525 22.1322 6.66167 23.2878 12.1096 20.5845C17.021 18.1494 20.199 13.6301 21.4785 7.3154L21.8086 5.64387L23.3357 6.28359C24.1818 6.63441 25.1723 7.21222 25.5438 7.58367C26.4105 8.38848 26.4518 9.17266 25.7502 12.103C24.6152 16.7874 24.6358 18.5209 25.7914 19.4289C26.2454 19.8003 26.555 19.8622 27.4217 19.8003C28.7837 19.6765 30.2076 18.8304 32.7871 16.5604L34.7476 14.8476L34.5825 15.9413C34.0666 19.1606 34.9952 21.1417 37.162 21.4306C39.4113 21.7401 42.2798 19.5114 43.7656 16.2922C44.2196 15.3429 44.6736 14.0634 44.818 13.4237C45.0657 12.2887 45.0037 9.66793 44.7148 8.71866C44.5704 8.30594 44.6117 8.26467 44.9418 8.36785C45.5609 8.55357 50.947 8.59485 52.5772 8.40912L54.0424 8.24403L54.1662 9.87429C54.2488 10.7616 54.3697 10.9214 54.5761 11.7675L54.9888 13.2946L53.049 15.1931C50.2425 17.9377 49.4789 19.7537 50.5314 21.2808C51.2743 22.4158 52.2029 22.8285 53.8745 22.8079C55.4841 22.8079 56.5572 22.3745 57.5271 21.3427C58.7033 20.1045 58.9716 18.4949 58.4144 16.0185L58.1461 14.7804L58.8891 14.12C59.3224 13.7692 60.8908 13.2945 62.6036 11.9945L66.0114 9.99811L66.5067 10.9474C66.7749 11.4633 67.6417 12.9078 68.4258 14.1666C70.0561 16.7874 70.3037 17.6851 70.3037 18.3454C70.3037 19.7487 67.7448 20.2646 66.0114 19.1915C65.4336 18.8407 65.3304 18.8201 65.2272 19.109C64.9177 19.9138 67.0432 21.5131 68.7354 21.5131C70.7371 21.5131 72.1403 20.44 72.1403 18.8717C72.1403 17.7779 71.8514 16.643 69.9942 13.3412C68.9624 11.5252 68.0337 9.7092 67.9099 9.31711C67.7036 8.59485 67.7242 8.57421 69.3751 6.88204C71.1292 5.08669 72.0991 3.74534 72.4705 2.58971C72.7594 1.74363 72.3054 0.629271 71.5213 0.257818C69.0036 -0.877172 65.7844 2.05317 65.351 5.91214C65.2066 7.15031 65.2811 6.93859 63.9191 7.9704C61.5666 9.72448 57.589 11.3754 57.4652 11.3754C57.2175 11.3754 57.1791 11.6903 57.0553 9.52348L56.9315 7.33604L58.2728 6.67568C59.9237 5.87087 61.4095 4.57079 61.9667 3.47707C62.3382 2.7548 62.3794 2.5278 62.1731 1.86744C61.7191 0.381638 60.0269 0.0101852 58.0665 0.980087C56.8696 1.57854 56.0235 2.46589 55.1155 4.05488L54.4964 5.1486L53.0106 5.41687C51.5454 5.66451 45.1276 5.56133 42.6306 5.27242C41.7226 5.16924 41.4956 5.21051 41.1241 5.58196C40.5257 6.18041 40.5876 6.75822 41.4337 8.57421C42.1353 10.06 42.1766 10.2457 42.094 11.7728C41.9496 14.2492 40.4431 17.1382 38.751 18.17C37.2445 19.1193 36.935 18.459 37.5953 15.7762C38.1319 13.6714 38.7303 12.3094 39.9891 10.2664C40.4844 9.46157 40.8971 8.61548 40.8971 8.36785C40.8971 7.66622 40.1336 6.84077 39.4526 6.84077C38.7303 6.84077 38.1525 7.3154 34.2936 11.1744C32.6427 12.8046 30.5584 14.7238 29.6504 15.4461L27.9995 16.7668L27.9376 16.189C27.917 15.8794 28.1646 14.373 28.5154 12.8459C29.2996 9.42029 29.2996 8.30594 28.598 6.88204C27.8138 5.29305 26.5137 4.42633 22.8198 3.04371C21.6229 2.58971 21.2927 2.36271 21.0864 1.86744C20.9419 1.53727 20.5086 0.980087 20.1165 0.649908C19.1466 -0.216812 17.991 -0.216812 17.1242 0.649908C16.5877 1.20708 16.5051 1.39281 16.6083 2.03253C16.7528 2.83735 17.3306 3.58025 18.2799 4.11679C18.8577 4.46761 18.8577 4.48824 18.7545 6.01532C18.3005 11.8347 14.2764 17.324 9.11738 19.1606C5.48541 20.44 3.9996 19.2638 3.97897 15.0953C3.95834 11.2776 4.94887 8.53294 7.13631 6.3455C8.95229 4.52951 10.3556 4.05488 10.3556 5.27242C10.3556 5.8915 10.6857 6.13914 11.0778 5.80896C11.5112 5.43751 11.4493 4.50888 10.954 3.86916C9.55074 2.09444 5.07269 4.94224 3.25671 8.7393C2.88525 9.56475 2.41061 10.8442 2.22489 11.6077C1.81216 13.2586 1.64708 16.3541 1.89471 17.489ZM54.0395 18.0615C54.7618 17.3393 55.4428 16.7408 55.5873 16.7408C55.7523 16.7408 55.8349 17.1742 55.8349 18.0615C55.8349 19.2172 55.773 19.4235 55.3396 19.6918C54.3078 20.3728 52.7395 20.3934 52.7395 19.7124C52.7395 19.5473 53.3173 18.8044 54.0395 18.0615ZM68.7354 3.27071C69.1894 2.79607 69.6227 2.46589 69.6846 2.54844C69.7672 2.63098 69.4164 3.12626 68.8798 3.68343C68.3639 4.21997 67.9306 4.55015 67.9306 4.4057C67.9306 4.26124 68.302 3.74534 68.7354 3.27071Z" fill="black"/>
<path d="M33.5064 59.9393C34.1255 60.1869 37.9226 57.6074 41.5545 54.4913C42.3387 53.8103 43.0197 53.2738 43.061 53.2944C43.0816 53.3357 42.7514 54.1405 42.3181 55.0897C41.3998 57.8068 41.3998 58.3485 41.2451 60.4379C41.2451 62.4396 42.5244 63.4268 44.196 63.4268C46.0326 63.4268 47.6835 62.7664 50.8408 58.5154C51.7282 57.2978 52.533 56.3073 52.6155 56.3073C52.6981 56.3073 52.7806 56.8851 52.8425 57.5867C52.9457 59.217 53.9156 61.4044 54.8236 62.0442C55.938 62.849 58.4269 63.3442 59.5 62.0442C61.2953 59.9186 63.5 54.9458 63.5 51.4995C63.5 50.2407 62.4694 49.3081 62.1392 49.217C61.7729 49.1533 61.3034 49.0846 61.0145 50.5291C60.3128 54.0167 58.3783 58.8043 56.9544 60.2488C56.9544 60.2488 56.5826 60.6026 56.2579 60.5153C56.0306 60.4542 55.876 60.2488 55.876 60.2488C55.6697 60.0012 55.4014 59.444 55.2776 59.0313C54.9887 57.9375 55.03 55.1723 55.3808 53.7278C55.938 51.3959 55.649 50.5291 54.3283 50.5291C53.5854 50.5291 52.9561 51.4663 48.5193 56.646C46.7859 58.689 46.466 59.0088 45.8882 59.5867C44.8771 60.2865 44.6293 60.1869 44.5674 59.7948C44.4642 59.0519 44.3817 57.8344 47.0231 52.5309C49.2931 48.0115 49.4995 47.475 49.3137 46.9591C49.1899 46.6495 48.8597 46.2987 48.5708 46.1543C47.8073 45.8034 47.1057 46.2162 44.5468 48.4862C42.0292 50.7149 33.1969 59.4027 33.1969 59.6504C33.1969 59.7535 33.3413 59.8774 33.5064 59.9393Z" fill="black"/>
<path d="M93.2031 24.2996C93.7603 24.7949 94.6477 24.7536 95.1016 24.1964C95.8239 23.2884 95.308 22.1328 94.1524 22.1328C92.9348 22.1328 92.3158 23.4948 93.2031 24.2996Z" fill="black"/>
<path d="M63.6871 63.5334C64.3029 64.2733 66.0945 64.8883 67.0122 64.7461C68.9292 64.4492 71.0317 61.5758 71.7029 58.3603C71.9043 57.3685 71.9215 57.345 73.0006 57.0316C75.5196 56.3073 77.4698 54.8775 78.9407 52.6449L79.8352 51.2743L80.5951 51.8666C82.1559 53.0448 82.2639 54.281 81.0728 56.9714C79.7705 59.8878 79.5965 61.5855 80.5951 62.3705C82.2628 63.6992 83.8363 63.8324 86.7149 60.442C87.4718 59.5313 88.1143 58.8261 88.1238 58.8873C88.1301 58.9281 87.6955 60.4363 87.1828 62.249C86.1729 65.7048 86.0982 66.3011 86.6707 66.0871C87.1271 65.9329 89.3511 60.7436 90.6508 56.867C91.1888 55.2175 91.669 53.8692 91.7302 53.8598C91.7914 53.8503 92.3302 54.4977 92.9383 55.3223C94.6696 57.6017 96.9548 59.8163 99.5378 61.7967C101.758 63.4574 101.964 63.5718 102.607 63.4095C103.372 63.2282 103.775 62.4559 103.449 61.8381C103.336 61.6468 102.386 60.7707 101.331 59.8901C97.5335 56.6778 93.37 52.5825 92.7051 51.3908C92.5856 51.1587 93.1405 50.6969 95.199 49.2921C98.1669 47.287 101.105 44.9524 101.578 44.2318C101.781 43.9288 101.816 43.6103 101.693 43.3578C101.295 42.5424 100.665 42.7862 97.3613 45.0521C95.5865 46.2667 93.9623 47.3746 93.7302 47.494C93.368 47.7172 93.3913 47.463 94.0146 44.8815C94.3989 43.3184 94.664 41.7947 94.579 41.5155C94.494 41.2363 94.1955 40.9275 93.844 40.8149C92.8002 40.4128 92.4995 40.8979 91.1561 45.0319C90.4774 47.1209 89.5356 49.6683 89.0315 50.7279C87.0622 55.0006 85.3673 57.3293 83.7448 58.583C82.9265 59.2319 82.8935 59.1534 83.5558 57.9023C84.0725 56.9243 84.5867 54.9861 84.5919 53.9412C84.5855 52.4178 83.8138 51.0756 82.1525 49.7876L80.7267 48.672L80.8057 47.6992C80.9338 45.6955 79.5859 44.0041 77.8427 43.94C76.0619 43.9026 74.4937 46.0459 75.0854 47.7084C75.3482 48.4612 76.6142 49.8939 76.9609 49.8402C77.4096 49.7707 77.222 50.4471 76.4841 51.4802C75.6256 52.6782 73.6957 54.1048 72.7373 54.2533C72.1255 54.3481 72.1019 54.3309 71.6438 52.8565C71.3715 52.0425 70.9281 51.0671 70.6374 50.6736C69.6522 49.3018 68.0998 48.5818 67.06 49.0143C65.6282 49.612 65.1212 50.9226 65.5736 52.899C65.8746 54.168 65.4642 54.1117 64.6031 55.8321C62.8105 59.4928 62.5026 62.0881 63.6871 63.5334ZM65.9418 58.3758C66.8425 55.5633 66.7704 55.6371 68.1362 56.3652C68.7735 56.705 69.3184 57.1218 69.3468 57.3053C69.3753 57.4889 69.1722 58.3347 68.9079 59.1901C68.1307 61.5867 66.7061 63.0395 65.7671 62.3705C65.2286 61.9945 65.3021 60.3125 65.9418 58.3758ZM68.584 52.5162C68.7486 52.3654 69.0976 53.0004 69.1987 53.653C69.2414 54.064 69.2414 54.064 68.8959 53.7208C68.4797 53.3258 68.3238 52.7235 68.584 52.5162Z" fill="black"/>
</svg>
