<svg width="180" height="82" viewBox="0 0 180 82" fill="none" xmlns="http://www.w3.org/2000/svg">
<path d="M61.3475 31.5842C62.0406 32.8441 63.0309 33.6479 64.2942 33.9726C67.9873 34.8546 72.6353 31.0114 75.9137 24.3409C76.5473 23.0735 77.0273 22.3295 77.1033 22.5404C77.1551 22.7283 77.3585 23.3143 77.5365 23.83C78.5835 27.043 79.7176 29.1786 82.5876 30.0682C84.9981 30.8153 86.5675 29.7984 88.446 28.3293C89.2749 27.6811 89.3272 27.5169 89.3272 27.5169L89.9475 28.7075C90.7656 30.248 92.1724 31.6328 93.5602 32.2146C98.4419 34.2738 104.065 28.5879 106.873 20.0143C107.204 19.014 107.564 18.1784 107.635 18.1767C107.73 18.1745 108.987 19.2556 110.439 20.5448L113.101 22.9399L112.269 24.8264C111.483 26.641 111.312 27.4485 111.446 29.1232C111.493 30.091 112.685 31.41 113.806 31.7381C115.906 32.3976 118.352 29.5988 118.282 26.6228C118.27 26.1268 118.034 25.1634 117.733 24.4379L117.205 23.1269L118.953 20.9116C119.919 19.6837 121.209 18.1172 121.809 17.4414L122.94 16.1623L123.152 18.1187C123.522 21.773 124.476 24.0429 126.438 25.8873C128.063 27.456 130.968 28.3211 130.968 28.3211C130.968 28.3211 133.915 28.9607 136.713 27.0398C137.503 26.4067 138.067 26.7006 138.848 26.6822C140.837 26.6118 142.933 25.0972 144.601 22.4821C145.104 21.6668 145.566 21.1833 145.617 21.3475C145.72 21.6759 145.356 22.3225 145.75 26.9688C145.75 26.9688 144.446 30.2429 143.073 33.0579C140.829 37.6597 141.425 40.5408 142.617 41.8597C143.25 42.5774 145.029 43.6575 147.235 41.751C148.303 40.8279 149.27 37.6148 149.454 34.3729C149.525 33.0112 149.747 31.2464 149.699 29.2093C149.681 28.4403 150.099 27.6686 150.485 26.8573C152.269 23.1051 151.879 24.1539 153.643 21.5838C154.97 19.6499 158.792 15.6494 159.035 15.88C159.422 16.249 159.456 18.6823 159.154 21.9743C158.829 25.2431 158.835 25.5266 159.227 26.0845C159.522 26.503 159.833 26.6611 160.425 26.6471C161.349 26.6254 161.603 26.3595 162.759 24.1109C165.138 19.4939 168.183 15.003 169.019 15.3141C169.593 15.5133 170.137 17.4857 170.781 21.7006C171.475 26.009 171.578 26.3611 172.395 26.8617C173.141 27.3404 174.264 26.7705 175.165 25.7567C177.382 23.3177 180.197 15.3346 179.41 14.1242C179.091 13.6355 179.042 14.0858 177.812 17.1869C176.694 20.0254 175.935 21.2485 174.674 23.0506C174.056 23.9631 173.811 24.1166 173.68 23.5761C173.602 23.2943 173.259 21.5359 173.159 20.3094C172.735 15.3803 172.19 13.1127 170.561 12.3711C169.795 12.011 169.51 11.9941 168.781 12.2476C167.464 12.6567 165.909 14.0167 164.254 16.1589L162.806 18.0599L162.647 16.3621C162.354 12.966 161.025 12.1228 158.413 12.8932C156.373 13.7919 152.999 16.8962 150.354 21.2831C149.693 22.3858 149.098 23.2742 149.027 23.2758C148.956 23.2775 148.79 22.2888 148.691 21.086C147.97 13.6115 148.457 14.1674 148.186 13.7247C147.84 13.1184 146.859 12.7161 146.225 12.9438C145.896 13.046 145.537 12.8891 145.077 12.4745C144.108 11.5993 142.423 11.4735 141.113 12.1661C138.142 13.7721 134.741 20.2801 135.287 23.363C135.452 24.3044 132.992 25.282 131.335 25.0335C130.114 24.8506 129.43 24.1626 128.631 23.4016C128.122 22.9173 127.483 21.9634 127.156 21.144C126.628 19.833 126.596 19.4793 126.635 16.099C126.658 14.0897 126.567 12.2249 126.465 11.9201C126.113 11.054 125.155 10.6039 124.165 10.8162C123.528 10.9494 122.807 11.5099 121.233 13.083C119.659 14.6798 115.807 19.0951 115.12 20.1038C115.074 20.1758 114.252 19.4862 113.284 18.6109C112.315 17.7121 110.767 16.3542 109.801 15.5735C108.302 14.309 108.034 13.9844 107.772 12.9508C107.124 10.5556 105.204 9.51369 103.765 10.8C102.86 11.6012 102.895 13.0892 103.827 14.4143C104.415 15.2512 104.444 15.4632 104.275 16.3652C104.021 17.6473 102.681 21.1055 101.886 22.5658C100.886 24.3854 99.7609 26.8932 98.4857 28.0812C97.3967 29.123 97.1622 29.2231 96.1203 29.2476C95.4336 29.2637 94.6956 29.1157 94.3354 28.9115C93.5897 28.4328 92.6295 26.8956 92.4134 25.7664L92.2508 24.8958L93.9028 24.6206C96.0503 24.2629 97.3586 23.4758 98.2719 22.0128C99.2319 20.525 99.5565 19.2176 99.3513 17.5445C99.1709 15.9182 98.4558 14.7298 97.1577 13.9332C93.8873 11.8833 90.0873 15.5175 89.2334 21.5165C89.1113 22.3702 88.2135 24.1319 87.2645 25.1903C85.9659 26.6388 85.0013 27.1754 83.6572 26.6932C82.4984 26.2773 82.1171 24.1712 81.4353 21.375C80.9888 19.5186 80.8345 8.93485 81.2007 6.37397C81.5884 3.71805 81.501 2.0186 80.9611 1.22781C80.0787 -0.0275509 78.0676 0.0906709 77.27 1.43284C77.0421 1.81632 76.6938 3.12428 76.4848 4.3108C76.1735 6.18506 74.6972 13.9241 74.3729 14.2389C74.3035 14.3115 73.4098 14.5925 72.3498 14.8537C67.476 16.15 63.9958 19.2805 61.7028 24.5335C61.0055 26.1096 60.8993 26.632 60.8716 28.476C60.8197 30.2969 60.9013 30.744 61.3475 31.5842ZM63.9467 26.2531C64.8183 23.0186 67.9932 18.9973 70.7551 17.5617C72.4873 16.6702 73.5451 16.3144 73.5535 16.6687C73.5623 17.0466 71.2359 22.8912 70.2655 24.9464C69.114 27.3604 67.4404 29.7393 66.4598 30.3532C65.5265 30.966 64.2958 31.0186 63.9509 30.4595C63.5818 29.8774 63.5758 27.6089 63.9467 26.2531ZM93.0762 19.7009C93.4482 18.3924 94.4793 16.903 95.0927 16.794C96.2728 16.6008 96.4011 19.0319 95.2692 20.2638C94.6002 21.0357 92.4808 21.5819 92.7262 20.938C92.7697 20.7716 92.9464 20.2239 93.0762 19.7009ZM139.798 18.6958C140.545 17.2131 141.44 15.9868 142.001 15.6663C142.257 15.4949 142.26 15.613 141.967 16.2343C141.536 17.0716 139.361 20.2895 139.196 20.2934C139.006 20.2978 139.095 20.0594 139.798 18.6958Z" fill="black"/>
<path d="M1.1388 72.5813C1.26423 72.8944 1.5273 73.0357 1.76231 72.988C2.09172 72.9381 2.20228 72.6195 2.29748 71.648C2.427 70.1279 2.83296 69.3177 4.44234 67.4678C6.07481 65.5963 8.82719 63.1507 14.0174 58.9409C16.3574 57.0317 18.9746 54.8631 19.8305 54.1055C20.6868 53.369 21.4281 52.7616 21.4989 52.7599C21.6641 52.7561 23.4836 55.1939 23.492 55.5519C23.496 55.7203 23.0885 56.4674 22.5867 57.2166C19.8946 61.2201 18.8549 65.2057 19.8554 67.5841C20.6552 69.4616 22.5056 70.8297 24.1576 70.7908C26.6592 70.7319 28.8693 68.3201 29.4061 65.0416C29.6978 63.3913 29.2868 60.9779 28.1992 57.9063L27.5916 56.1718L28.3235 55.1642C29.7411 53.1925 33.9395 50.0517 35.2693 49.3672C35.8062 49.1017 35.4586 49.8097 35.9556 54.4725C36.3568 58.2358 36.9482 59.767 37.9672 60.923C38.8888 61.9548 39.3066 62.0962 40.3751 62.345C42.2739 62.7638 44.2551 61.6637 46.1314 59.1122L46.6288 58.1735L47.0889 60.67C47.8218 64.7192 47.8026 64.9093 46.4303 66.7957C41.9263 73.0752 41.1493 80.1941 44.8783 81.1177C46.8971 81.618 49.7291 78.5383 50.9329 74.5067C51.2601 73.3612 51.3961 72.1149 51.434 69.712L51.9572 64.6066C52.5333 64.003 52.5041 64.0248 54.3726 62.1477C56.2174 60.2712 57.4443 58.6826 58.4333 57.5637L59.5004 56.4407L60.3187 57.0957C61.3297 57.9147 62.7185 59.7384 62.7235 59.949C62.726 60.0543 62.1553 60.8894 61.4696 61.8537C59.4572 64.6402 59.1302 66.797 60.5779 68.1114C61.9051 69.3233 63.8364 69.1093 65.7349 67.5054C67.7263 65.8362 68.1974 63.7813 67.2362 61.0648L66.8825 60.0829L68.9269 57.6539C70.0521 56.3 74.5961 49.674 74.8386 49.6683C75.0812 49.6626 74.8848 50.6597 75.2542 51.9004C76.1611 55.9992 77.7695 59.4474 80.5413 60.836C81.4967 61.2981 82.4167 62.2624 83.9271 62.2269C86.0511 62.1769 88.6464 61.0278 90.684 59.3154L91.9808 58.2313L92.8719 58.9689C95.5435 61.1184 98.2972 60.7375 100.521 57.9039C101.576 56.5728 102.297 55.123 104.643 50.4325C105.499 48.7056 106.269 47.2969 106.34 47.2952C106.647 47.288 107.49 51.3979 107.905 53.9797C108.131 55.5336 107.806 58.4698 107.889 59.0157C108.11 60.3589 108.764 61.0599 109.802 61.0355C110.817 61.0116 111.207 60.4968 111.496 58.7622C111.934 56.3078 114.325 49.8252 114.915 49.8113C115.009 49.8091 115.105 49.8701 115.107 49.9332C115.131 50.9861 115.393 57.7645 115.66 58.0953C116.123 58.7165 117.12 58.9038 117.866 58.507C118.309 58.2648 118.65 57.7089 119.162 56.3905C120.25 53.4573 122.108 49.4313 122.981 49.4108C123.406 49.4008 123.237 52.9445 124.118 56.2739C125.107 60.1907 127.565 61.7379 129.297 62.1185C131.861 62.6903 136.141 58.011 138.621 53.0223L139.501 51.2739L141.347 54.4752C143.283 58.4444 143.483 59.3863 141.504 61.1271C139.137 62.7549 136.565 61.9475 135.183 60.2195C134.705 59.6224 134.278 59.1208 134.296 59.8789C134.317 60.7634 135.436 62.1698 136.583 62.7327C140.19 64.502 145.077 62.4696 145.515 59.0039C145.755 57.1441 145.095 56.199 141.975 51.026L140.401 48.3872L140.654 47.096C141.286 43.8574 139.734 41.0916 137.698 41.898C136.178 42.5027 135.834 44.9549 136.975 47.2668L137.57 48.4959L137.013 49.8997C135.855 52.8557 134.715 55.3892 132.125 58.1714C130.566 59.624 130.472 59.3621 129.764 59.3788C129.233 59.3913 127.73 58.2327 127.025 55.3838C126.113 51.7391 126.235 48.1964 125.103 47.2749C123.442 45.9023 121.492 46.3485 119.372 48.5476L118.219 49.7546L118.035 48.9583C117.615 47.1351 116.625 46.2103 115.114 46.2248C113.91 46.2531 112.797 47.101 111.682 48.9182C110.885 50.1379 110.885 50.159 110.73 49.5727C109.903 46.5581 108.868 44.7072 107.675 44.1875C105.576 43.2887 103.939 44.5916 101.866 48.8333C99.7713 53.1387 98.5052 55.5283 97.6995 56.4112C96.5488 57.6814 95.6033 57.6404 94.5096 56.3177L93.9755 55.6982L94.786 54.0146C95.7994 51.9258 96.9011 48.5709 96.7288 47.2686C96.58 45.9658 95.4498 44.0961 94.5156 43.5281C94.0125 43.2239 93.4186 43.0693 92.7578 43.0849C90.9642 43.1271 89.9811 44.4987 89.5117 47.6281C89.2853 49.0451 88.986 52.3812 89.6712 54.4088L90.0776 55.6213L88.8305 56.8095C85.1579 60.2882 80.4952 58.8776 79.0035 53.6874C78.5671 52.2017 78.3933 50.8362 78.2261 47.7429C78.1032 45.5334 78.0532 43.4065 78.1382 43.0042L78.2629 42.2849L84.3281 42.1421C89.6381 42.0172 90.7694 41.9273 93.1199 41.4717C98.2439 40.4662 103.139 38.7497 106.821 36.6824C109.734 35.0547 110.801 34.2289 110.578 33.7707C110.453 33.4786 109.961 33.6587 107.32 34.8376C98.9334 38.659 92.099 40.2315 83.4118 40.3306L78.8083 40.3758L78.9114 39.7412C78.9738 39.3816 78.9952 38.2854 78.9715 37.2746C78.9328 35.6321 78.8801 35.4016 78.3495 34.9294C77.9635 34.5803 77.5107 34.4014 77.0151 34.413C75.6463 34.4452 75.1263 35.4267 74.9375 38.4441L74.8371 40.1953L73.2765 40.1056C68.6892 39.8343 65.5499 39.8871 63.7884 40.2868C61.017 40.9209 58.7717 41.8376 58.7831 42.3219C58.7955 42.8484 59.1259 42.8406 62.059 42.0552C64.8284 41.3369 66.621 41.2525 71.3293 41.6474C75.2332 41.9769 75.0645 41.8334 74.27 44.1909C73.1211 47.547 69.7622 52.0085 65.4399 56.9774L64.9115 57.6009L64.1345 56.6921C63.7214 56.1961 63.4823 56.073 62.3243 55.0257L61.3992 53.8465L62.5475 51.4625C63.3548 49.6505 63.0827 48.4148 62.0854 47.1741C61.2823 46.1605 60.2659 45.8245 59.0859 45.8523C57.6458 45.8651 56.6208 46.4581 55.7543 47.7637C54.637 49.4546 54.8699 51.3243 56.479 53.4777C56.7958 53.8917 56.7279 54.0197 55.7163 55.1813C55.1186 55.8696 54.6405 56.4736 52.4018 58.6755C50.9653 60.0884 50.7876 60.0643 50.5024 59.2356C50.3058 58.4048 49.9516 55.8993 49.6546 53.3147C49.6546 53.3147 49.3453 47.18 48.6716 46.648C48.1179 46.1975 47.4546 46.1078 46.7285 46.3567C46.1198 46.5817 46.2306 47.2744 46.1001 48.7523C45.7369 52.3849 43.273 58.8488 41.5502 58.8893C40.8186 58.9065 39.931 57.5726 39.427 55.2246C39.2155 54.2604 38.9272 52.7958 38.8885 51.1545C38.8052 47.6115 38.7231 46.2022 36.8523 45.9723C35.2657 45.7779 34.7244 45.8327 29.3042 50.3007C27.308 51.9461 25.7652 53.4391 25.6925 53.3566C25.5956 53.2535 25.1761 52.4838 24.7304 51.6093L23.914 50.0272L24.7127 48.8496C26.9271 45.6159 26.9113 42.9404 24.6985 41.2226C23.0394 39.9553 21.1539 40.105 19.6787 41.6357C18.4797 42.8649 18.2061 44.2831 18.799 46.3972C19.0327 47.2977 19.4611 48.4464 19.709 48.9463C20.0307 49.5708 20.1114 49.9903 19.9753 50.2253C19.703 50.6952 16.7899 53.3343 11.6513 57.7324C2.903 65.2706 -0.251185 69.7064 1.1388 72.5813ZM22.126 43.2848C23.0822 42.7777 23.6214 44.6191 22.9486 46.1309C22.6134 46.9395 22.3287 46.883 21.9996 45.9426C21.5697 44.7306 21.6359 43.5281 22.126 43.2848ZM23.1243 64.0095C23.5788 62.2501 24.9815 59.6465 25.2505 60.0405C25.6651 60.5996 26.0821 63.2657 25.9722 64.6168C25.7735 67.213 24.1975 68.4722 23.2375 66.8092C22.6969 65.9159 22.6905 65.6421 23.1243 64.0095ZM46.4616 74.1484C46.7049 73.4474 47.13 72.4471 47.4244 71.9134C47.9001 71.0594 47.9695 70.9946 48.0045 71.4783C48.0588 72.7834 46.4199 77.3941 45.8771 77.4069C45.6647 77.4119 45.9967 75.4657 46.4616 74.1484ZM58.7389 49.1684C59.0418 48.9927 59.2745 50.1606 58.9777 50.5889C58.8179 50.8245 58.5381 50.6691 58.5242 50.0795C58.5143 49.6583 58.5988 49.2349 58.7389 49.1684ZM63.6963 64.1612C64.2429 63.3055 64.3353 63.219 64.416 63.6385C64.5218 64.1207 63.6828 65.5942 63.3052 65.6031C62.9512 65.6114 63.0598 65.2086 63.6963 64.1612ZM92.9871 46.8088C93.1237 46.5949 93.2191 46.6348 93.3225 47.0116C93.5758 47.7431 93.5263 48.6503 93.1946 49.6063L92.9076 50.4558L92.8444 48.7717C92.8226 47.8451 92.8726 46.959 92.9871 46.8088Z" fill="black"/>
<path d="M123.429 4.57639C123.752 5.63477 124.688 6.28393 125.829 6.25709C126.658 6.23757 127.132 6.00268 127.675 5.35822C128.784 4.01607 128.285 2.06693 126.674 1.42048C125.313 0.886617 123.725 1.71362 123.369 3.117C123.227 3.6994 123.234 3.97561 123.429 4.57639Z" fill="black"/>
</svg>
