<svg width="273" height="383" viewBox="0 0 273 383" fill="none" xmlns="http://www.w3.org/2000/svg">
<path d="M16.7415 73.5147C8.78519 74.5989 3.04974 81.8311 4.13933 89.8265L41.8069 366.23C42.8964 374.226 50.358 379.659 58.3143 378.575L256.024 351.632C263.981 350.547 269.717 343.315 268.628 335.32L230.96 58.916C229.87 50.9202 222.408 45.4869 214.451 46.5714L16.7415 73.5147Z" fill="#F87559" stroke="white" stroke-width="8"/>
<path d="M211.908 102.907C190.412 87.9391 162.612 89.302 136.671 100.564C110.599 111.885 84.756 133.735 64.6868 163.023C44.6097 192.319 33.542 224.337 32.274 252.745C31.0155 280.94 39.4805 307.354 60.8585 322.239C82.3526 337.207 110.153 335.846 136.095 324.582C162.166 313.263 188.009 291.412 208.078 262.126C228.153 232.83 239.223 200.811 240.491 172.403C241.749 144.207 233.284 117.793 211.908 102.907Z" fill="white"/>
<path d="M153.828 230.411L135.436 232.917L128.398 181.27L118.114 186.692L110.42 172.933L129.843 162.717L144.334 160.742L153.828 230.411Z" fill="#F87559"/>
<path d="M34.0188 107.493L27.888 108.329L25.5418 91.1128L22.1139 92.9203L19.5492 88.334L26.0237 84.9286L30.8541 84.2703L34.0188 107.493Z" fill="white"/>
<path d="M251.303 326.293L245.172 327.129L242.826 309.913L239.398 311.721L236.834 307.134L243.308 303.729L248.138 303.071L251.303 326.293Z" fill="white"/>
<path d="M152.138 85.4181C151.97 85.4409 151.8 85.4604 151.63 85.4767C148.467 85.7748 145.285 84.8476 142.67 82.8654C140.054 80.8835 138.307 78.0752 137.748 74.9582C137.18 71.7847 137.907 68.6733 139.795 66.197L183.428 8.97526C185.841 5.81138 189.442 3.8542 193.559 3.46605C197.623 3.08284 201.713 4.2764 205.079 6.82613C208.444 9.37635 210.692 12.9864 211.409 16.9917C212.136 21.0534 211.207 25.0329 208.795 28.1973L198.421 42.2878L193.54 42.9531L205.876 25.9849C207.66 23.6449 208.343 20.6801 207.798 17.6368C207.243 14.537 205.489 11.7319 202.858 9.73806C200.227 7.74442 197.046 6.81016 193.902 7.10657C190.814 7.39615 188.131 8.84661 186.347 11.1867L142.714 68.4089C140.077 71.8669 141.054 77.0458 144.891 79.953C146.772 81.3788 149.044 82.0475 151.287 81.8357C153.473 81.6237 155.372 80.6064 156.631 78.9542L192.106 32.431C193.66 30.3932 193.061 27.3237 190.772 25.5887C189.64 24.7308 188.277 24.3282 186.934 24.4551C185.646 24.5785 184.536 25.1743 183.801 26.1383L167.413 46.4918L162.908 47.1277L180.882 23.9264C182.245 22.1384 184.268 21.0291 186.592 20.8144C188.853 20.6009 191.126 21.2623 192.992 22.6766C196.891 25.6309 197.803 30.999 195.025 34.643L159.55 81.1663C157.762 83.5112 155.144 85.0083 152.138 85.4181Z" fill="#883B2B"/>
<path d="M54.6092 274.85C55.1996 276.304 56.2244 278.336 57.031 279.648C58.5479 282.14 59.4008 282.871 60.4069 282.52C61.2946 282.21 61.3586 281.823 61.0499 278.561C60.8834 276.943 60.7892 275.531 60.8277 275.452C60.8662 275.372 61.2765 275.644 61.7184 276.054C62.8032 277.069 64.5261 278.343 65.2144 278.651C65.9574 278.973 66.9195 279.018 67.3272 278.76C67.789 278.466 68.1068 277.807 68.0836 277.218C68.0663 276.693 65.6959 268.856 64.4233 265.067C63.6893 262.917 63.6538 262.863 63.2154 262.7C62.7222 262.524 62.0853 262.697 61.8232 263.087C61.4011 263.732 61.4858 264.118 63.0046 268.849C63.8234 271.385 64.6023 273.902 64.7239 274.44L64.9309 275.414L64.1985 274.79C63.2961 274.059 61.7724 272.499 61.2575 271.833C60.7677 271.19 59.8709 270.856 59.2495 271.073C58.3025 271.403 58.0894 272.457 58.324 275.745C58.381 276.621 58.3863 277.35 58.3419 277.365C58.12 277.442 56.6028 274.237 54.5871 269.414C53.3973 266.576 52.9667 265.913 52.4526 266.009C52.1856 266.053 52.0886 266.203 52.0787 266.555C52.052 267.477 53.4393 272.022 54.6092 274.85Z" fill="black"/>
<path d="M70.0444 277.612C70.5086 277.848 71.087 277.746 71.4579 277.334C71.8436 276.917 71.7037 276.136 70.7276 273.34L69.7773 270.617L71.1089 270.152L72.4257 269.693L72.665 270.14C72.8023 270.391 73.1611 271.229 73.4695 272.017C73.8806 273.052 74.145 273.524 74.4761 273.807C75.0378 274.275 75.7122 274.305 76.2015 273.852C76.7595 273.359 76.7274 272.839 76.105 271.579C75.2588 269.916 74.6212 268.279 74.7382 268.139C74.8744 267.958 74.5498 267.076 74.1818 266.64C74.0156 266.449 73.4434 265.238 72.915 263.961C71.1702 259.724 70.5947 258.979 69.4864 259.465C68.9937 259.67 68.8767 259.811 68.7794 260.293C68.6732 260.844 68.7145 260.963 69.7163 263.119C71.3677 266.709 71.7832 267.709 71.6811 267.845C71.6322 267.895 71.0566 268.195 70.4262 268.482L69.2491 269.009L68.3171 266.529C67.349 263.946 67.0247 263.445 66.5069 263.626C65.9742 263.811 66.0242 264.192 66.9654 268.03C67.2706 269.285 67.71 270.924 67.9386 271.674C68.1621 272.409 68.6355 274.003 68.9747 275.213C69.5942 277.32 69.6252 277.409 70.0444 277.612Z" fill="black"/>
<path d="M78.891 272.987C79.4747 273.613 80.3993 273.456 80.7749 272.678C80.9964 272.219 80.9758 272.159 79.499 267.596C77.5663 261.631 76.4605 259.129 75.7069 259.11C75.2211 259.097 75.14 259.673 75.451 260.992C75.8208 262.622 78.2242 271.742 78.3946 272.231C78.4817 272.432 78.6996 272.771 78.891 272.987Z" fill="black"/>
<path d="M78.5645 258.458C78.719 258.521 79.0466 258.556 79.304 258.532L79.7544 258.491L81.3406 263.083C82.2038 265.603 83.1635 268.638 83.4679 269.843C84.0871 272.282 84.2547 272.573 85.1229 272.635C85.7131 272.661 86.2622 272.237 86.3928 271.66C86.5613 270.954 85.9398 268.698 84.2347 263.766L82.5142 258.789L83.8637 258.185C84.9032 257.74 85.2569 257.516 85.3917 257.237C85.6421 256.718 85.4111 256.151 84.8522 255.882C84.453 255.689 84.1609 255.708 83.0254 256.021C80.5022 256.686 78.5299 257.408 78.3358 257.708C78.1277 258.063 78.2207 258.329 78.5645 258.458Z" fill="black"/>
<path d="M90.4519 269.181C91.0307 269.461 91.1298 269.459 92.2247 269.077C93.6303 268.587 94.3325 268.126 94.4883 267.573C94.6486 266.986 94.3873 266.38 93.8136 266.116C93.4092 265.908 93.1814 265.922 92.5008 266.159C92.0569 266.314 91.6819 266.428 91.6715 266.399C91.6664 266.384 91.4807 265.519 91.2634 264.516C91.0409 263.498 90.8449 262.604 90.8191 262.53C90.7985 262.471 91.3555 262.26 92.0716 262.076C93.301 261.747 93.3602 261.726 93.601 261.227C93.8995 260.608 93.8479 260.46 93.2143 260.167C92.7301 259.921 92.6658 259.927 91.5479 260.433L90.3856 260.955L90.3239 260.446C90.2753 260.164 90.0232 259.156 89.757 258.204L89.257 256.486L90.7432 256.083C92.1945 255.676 92.2241 255.666 92.4745 255.147C92.7538 254.568 92.5693 254.135 91.9815 253.925C91.6126 253.771 88.2554 255.043 87.6677 255.547C87.2318 255.915 87.1982 256.341 87.5922 256.519C87.8517 256.644 87.9034 256.792 87.9789 257.579C88.1571 259.326 89.3282 266.818 89.5907 267.855C89.828 268.868 89.8582 268.907 90.4519 269.181Z" fill="black"/>
<path d="M96.9585 266.38C97.1771 266.769 97.9941 267.064 98.4232 266.915C98.7931 266.785 100.282 265.867 101.533 264.983C102.505 264.295 102.751 263.811 102.508 263.115C102.322 262.583 101.519 262.182 100.986 262.368C100.779 262.441 100.238 262.746 99.7961 263.049C99.3492 263.338 98.9311 263.567 98.886 263.533C98.8261 263.504 98.5396 262.16 98.2592 260.548C97.3428 255.308 97.1358 254.334 96.7557 253.388C96.3911 252.486 96.3608 252.447 95.9606 252.537C95.59 252.616 95.5567 252.711 95.5345 253.598C95.5222 254.134 95.6392 255.753 95.7837 257.213C95.9281 258.673 96.1664 261.163 96.313 262.771C96.4692 264.36 96.6425 265.76 96.6838 265.878C96.74 265.992 96.867 266.213 96.9585 266.38Z" fill="black"/>
<path d="M103.408 263.743C103.639 263.977 104.403 264.259 104.585 263.83C104.676 263.615 104.495 261.195 104.547 259.965C104.607 258.616 104.612 257.394 104.736 257.367C107.255 256.787 107.834 256.734 108.056 256.989C108.177 257.146 108.837 258.276 109.494 259.491C110.802 261.906 111.204 262.346 111.94 262.173C112.682 262.013 113.014 261.682 113.06 261.101C113.078 260.63 112.95 260.31 112.009 258.613C111.404 257.546 110.419 255.865 109.801 254.902C108.027 252.102 106.331 249.242 105.816 248.193C105.224 246.972 104.694 246.643 103.836 246.942C103.392 247.097 103.206 247.278 103.009 247.712C102.62 248.595 102.333 251.484 102.39 254.07C102.428 256.082 102.389 256.494 102.126 256.785C101.759 257.162 101.836 257.666 102.278 257.744C102.526 257.79 102.35 257.81 102.5 259.335C102.68 261.181 103.177 263.508 103.408 263.743ZM104.516 253.743C104.606 251.338 104.616 251.318 105.636 253.003C106.843 254.989 106.838 254.924 105.968 255.095C105.567 255.185 105.093 255.301 104.901 255.368C104.709 255.435 104.53 255.447 104.505 255.373C104.484 255.314 104.493 254.581 104.516 253.743Z" fill="black"/>
<path d="M113.937 257.418C114.637 259.232 115.082 260.222 115.293 260.397C115.674 260.729 116.369 260.768 116.746 260.471C116.888 260.355 117.396 260.144 117.865 260.014C118.328 259.869 119.096 259.501 119.568 259.187C122.288 257.374 122.943 254.258 121.146 251.631C120.539 250.748 119.569 250.107 118.485 249.855L118.067 249.752L118.13 248.983C118.282 247.419 117.294 245.922 115.7 245.3C114.494 244.841 113.498 244.89 111.961 245.526C110.296 246.223 110.179 246.364 110.51 247.36C111.978 251.993 113.053 255.17 113.937 257.418ZM112.665 246.973C115.744 246.33 117.018 248.84 114.576 250.688C114.159 251.016 113.761 251.255 113.702 251.226C113.642 251.197 113.473 250.808 113.298 250.354C113.123 249.901 112.82 249.176 112.591 248.758C112.377 248.335 112.122 247.794 112.024 247.562L111.86 247.138L112.665 246.973ZM115.817 252.911C118.141 252.199 118.603 252.287 119.197 253.607C119.867 255.099 119.174 256.536 117.439 257.225L116.581 257.574L115.825 255.929C115.41 255.028 114.97 254.053 114.858 253.777L114.662 253.264L115.817 252.911Z" fill="black"/>
<path d="M124.435 257.353L124.999 257.638L127.399 256.717C128.715 256.208 129.938 255.715 130.114 255.603C130.965 255.091 130.873 253.828 129.95 253.42C129.461 253.209 129.352 253.23 127.518 253.87L125.609 254.537L125.145 252.873C124.879 251.97 124.699 251.169 124.713 251.115C124.742 251.055 125.561 250.736 126.537 250.395C128.12 249.842 128.317 249.741 128.422 249.422C128.563 248.924 128.373 248.426 127.954 248.224C127.659 248.094 127.427 248.142 126.23 248.66C125.476 248.973 124.723 249.335 124.546 249.447C124.252 249.649 124.247 249.634 123.623 247.943C123.278 247.001 122.917 246.015 122.824 245.749L122.644 245.281L124.183 244.793C125.501 244.383 125.757 244.26 125.931 243.951C126.187 243.496 125.945 242.85 125.456 242.639C125.107 242.495 124.925 242.542 123.674 243.095C122.901 243.448 122.033 243.817 121.738 243.921C120.929 244.219 120.723 244.723 121.043 245.64C121.399 246.661 122.389 250.781 122.943 253.509C123.557 256.598 123.721 257.021 124.435 257.353Z" fill="black"/>
<path d="M131.746 254.535C132.138 254.896 132.555 255 132.984 254.85C133.488 254.674 137.7 251.859 138.626 251.088C139.562 250.297 139.73 249.922 139.492 249.242C139.141 248.236 138.03 248.142 137.031 249.039C136.512 249.502 133.362 251.747 133.282 251.708C133.247 251.704 132.893 250.5 132.486 249.048C131.616 246.032 129.828 241.195 129.309 240.563C129.102 240.304 128.877 240.183 128.715 240.24C128.093 240.457 128.161 241.08 129.39 245.979C129.868 247.871 130.442 250.276 130.68 251.339C131.178 253.621 131.385 254.213 131.746 254.535Z" fill="black"/>
<path d="M141.427 251.389C142.006 251.668 142.105 251.667 143.2 251.285C144.606 250.794 146.505 249.453 146.66 248.901C146.821 248.314 146.559 247.708 145.986 247.444C145.581 247.236 144.157 248.129 143.476 248.367C143.032 248.522 142.657 248.636 142.647 248.606C142.642 248.592 142.456 247.727 142.239 246.724C142.016 245.706 141.82 244.812 141.794 244.738C141.774 244.678 142.331 244.467 143.047 244.284C144.276 243.954 144.336 243.934 144.576 243.435C144.605 243.046 144.54 242.789 144.19 242.375C143.705 242.129 143.641 242.134 142.523 242.641L141.366 243.085L141.299 242.653C141.251 242.371 140.999 241.364 140.732 240.411L140.232 238.693L141.719 238.291C143.17 237.884 143.199 237.873 143.45 237.354C143.729 236.776 143.545 236.342 142.957 236.132C142.588 235.979 139.231 237.25 138.643 237.754C138.207 238.122 138.174 238.549 138.568 238.727C138.827 238.852 138.879 239 138.954 239.787C139.132 241.534 140.304 249.026 140.566 250.063C140.803 251.076 140.834 251.115 141.427 251.389Z" fill="black"/>
<path d="M148.917 247.12C149.356 247.48 149.778 247.526 150.22 247.247C150.801 246.863 150.778 246.494 149.865 243.395C149.395 241.829 148.768 239.794 148.47 238.865C148.119 237.824 147.965 237.195 148.043 237.169C148.382 237.055 150.099 237.419 150.764 237.76C151.177 237.954 151.795 238.412 152.135 238.776C152.667 239.322 152.855 239.621 153.266 240.714C153.726 241.907 153.752 242.072 153.668 242.854C153.545 243.866 152.945 244.967 152.204 245.564C151.905 245.795 151.515 246.101 151.342 246.231C150.705 246.75 150.873 247.853 151.612 248.068C152.16 248.231 152.759 247.943 153.651 247.106C155.517 245.332 156.234 242.555 155.432 240.173C155.112 239.223 154.191 237.823 153.324 236.97C151.947 235.593 149.621 234.84 147.316 235.008C146.808 235.049 146.248 235.063 146.069 235.051C145.644 234.991 145.518 235.179 145.464 235.921C145.409 236.447 145.607 237.163 146.896 241.25C147.712 243.845 148.414 246.145 148.45 246.379C148.498 246.653 148.655 246.904 148.917 247.12Z" fill="black"/>
<path d="M99.326 281.823C99.753 281.943 102.69 281.092 104.486 280.313L109.154 279.039L109.06 281.472C108.971 283.808 108.935 283.941 108.302 284.427C107.198 285.233 101.795 287.308 101.178 287.932C100.693 288.41 101.322 288.962 101.795 288.962C102.346 288.962 108.666 286.402 108.768 286.475C108.898 286.559 109.001 288.039 109.042 289.756C109.063 291.482 109.169 293.077 109.272 293.314C109.734 294.38 111.195 294.614 111.937 293.729C112.451 293.131 112.488 292.459 112.225 288.446L112 285.332L117.717 282.971C120.777 281.808 122.031 281.077 122.332 280.313C122.623 279.577 122.181 278.667 121.398 278.374C120.832 278.15 120.646 278.207 118.98 279.07C117.988 279.594 113.608 281.633 113.011 281.986L111.918 282.601L111.932 280.742C111.951 279.702 111.946 278.719 111.92 278.496C111.888 278.206 115.707 276.253 117.379 275.458C119.544 274.449 119.8 274.173 119.617 273.104C119.553 272.686 119.335 272.452 118.82 272.183C118.228 271.901 117.909 271.922 116.75 272.331C115.562 272.728 111.88 274.457 111.879 274.13C111.869 273.243 111.643 271.747 111.472 271.352C111.206 270.74 110.579 270.591 110.236 271.044C110.081 271.228 109.815 272.399 109.671 273.634C109.322 276.618 110.55 275.458 101.839 278.858C99.3868 280.179 98.5876 280.877 98.8358 281.45C98.8957 281.588 99.1168 281.773 99.326 281.823Z" fill="black"/>
<path d="M92.4245 325.923C93.4464 326.518 94.2037 326.753 95.7039 326.94C98.349 327.249 100.39 326.709 101.791 325.283C102.527 324.545 103.052 322.862 102.914 321.703C102.803 320.859 102.736 320.706 102.168 320.024C101.593 319.328 101.243 319.151 98.2522 317.919C94.0755 316.218 93.0923 315.462 93.1936 314.017C93.2658 312.966 94.0806 312.285 95.5047 312.086C96.0612 312.027 96.4211 311.598 96.2484 311.2C96.1222 310.909 94.935 310.605 94.2426 310.687C92.7527 310.86 92.0206 311.395 91.4128 312.805C90.4094 315.024 91.5395 317.336 94.3718 318.874C94.7783 319.098 96.1995 319.774 97.5349 320.377C98.9735 321.009 100.026 321.59 100.106 321.774C100.325 322.279 100.198 322.826 99.7614 323.288C98.4694 324.631 95.9505 324.613 93.2791 323.278C92.4993 322.907 91.7901 323.16 91.4931 323.943C91.1982 324.69 91.5257 325.403 92.4245 325.923Z" fill="black"/>
<path d="M102.632 318.524C104.268 321.418 105.902 322.583 107.973 322.322C109.125 322.169 110.024 321.597 110.924 320.442C111.543 319.646 112.454 317.34 112.505 316.408C112.6 315.075 111.423 314.166 110.482 314.847C110.132 315.09 109.96 315.492 109.73 316.556C109.543 317.383 109.213 318.218 108.93 318.614C108.324 319.44 107.388 319.883 106.826 319.635C105.76 319.151 103.878 316.11 103.356 314.025C102.845 312.008 103.362 309.255 104.469 307.865C104.91 307.328 104.889 307.155 104.384 306.955C103.477 306.584 102.237 307.795 101.503 309.752C100.53 312.375 100.933 315.53 102.632 318.524Z" fill="black"/>
<path d="M114.562 318.796C115.265 319.074 115.411 318.446 115.327 315.608L115.261 312.979L117.385 312.004L119.509 311.028L119.829 311.344C119.998 311.526 120.692 312.371 121.371 313.223C122.727 314.964 123.261 315.315 124.011 314.99C125.191 314.478 125.139 313.518 123.853 311.856C121.59 308.943 116.329 303.527 115.209 302.957C114.343 302.514 113.308 302.853 112.941 303.686C112.804 304 112.664 304.934 112.663 305.772C112.6 308.438 113.385 315.704 113.99 317.898C114.153 318.482 114.27 318.668 114.562 318.796ZM115.083 308.835C115.027 306.02 115.003 306.049 116.157 307.241C117.438 308.56 118.015 309.219 117.972 309.329C117.92 309.461 115.784 310.914 115.417 311.074C115.248 311.147 115.139 311.103 115.131 310.961C115.124 310.819 115.094 309.867 115.083 308.835Z" fill="black"/>
<path d="M126.553 313.132L127.208 313.467L129.704 312.257C131.071 311.592 132.313 310.889 132.488 310.704C133.158 309.941 132.738 308.722 131.775 308.557C131.361 308.482 130.881 308.635 129.411 309.273L127.573 310.07L125.4 305.353C123.086 300.351 122.67 299.603 122.128 299.529C121.023 299.371 121.717 302.146 124.762 309.924L125.883 312.804L126.553 313.132Z" fill="black"/>
<path d="M135.059 310.645C135.464 311.034 136.013 310.705 136.026 310.062C136.04 309.801 135.883 308.559 135.692 307.277C135.491 306.018 135.31 304.677 135.271 304.293C135.231 303.529 135.036 303.667 137.498 302.673L138.645 302.212L139.463 303.258C139.932 303.837 140.675 304.88 141.147 305.549C141.604 306.224 142.188 306.899 142.421 307.016C143.343 307.508 144.371 306.898 144.36 305.866C144.336 304.803 143.039 303.072 137.658 296.999C134.44 293.354 134.554 293.45 133.942 293.424C133.228 293.37 133.035 293.471 132.702 294.089C132.337 294.757 132.332 296.088 132.68 300.249C133.08 304.989 134.179 309.789 135.059 310.645ZM134.982 300.143C134.979 299.507 134.958 298.788 134.942 298.54C134.927 298.128 134.936 298.106 135.208 298.316C135.646 298.654 137.162 300.471 137.11 300.603C137.025 300.785 135.128 301.571 135.068 301.434C135.035 301.357 135.006 300.787 134.982 300.143Z" fill="black"/>
<path d="M146.671 306.09C147.358 306.374 147.833 306.168 149.021 305.089C152.703 301.746 153.628 298.76 151.707 296.427C151.18 295.801 149.638 295.014 148.811 294.953L148.267 294.916L148.659 293.764C149.439 291.533 149.129 289.811 147.775 288.579C146.094 287.051 143.944 287.674 142.16 290.231C141.787 290.757 141.327 291.248 141.158 291.321C140.357 291.614 140.576 292.665 142.04 295.579C142.694 296.878 143.854 299.341 144.635 301.059C145.916 303.888 146.04 304.216 145.926 304.666C145.762 305.338 146.019 305.845 146.671 306.09ZM143.384 291.629C143.854 291.116 144.568 290.497 144.955 290.257C145.589 289.873 145.709 289.857 145.982 290.066C146.763 290.692 146.86 291.796 146.232 293.16C145.856 294.015 144.607 295.539 144.365 295.444C144.24 295.407 143.006 293.485 142.688 292.877C142.56 292.624 142.701 292.362 143.384 291.629ZM146.513 297.879C147.822 297.33 149.491 297.697 149.89 298.616C150.156 299.229 149.733 300.395 148.869 301.425C148.492 301.897 148.143 302.267 148.099 302.25C148.055 302.232 146.729 299.805 146.046 298.481C145.883 298.188 145.946 298.125 146.513 297.879Z" fill="black"/>
<path d="M155.744 301.077C156.384 301.673 157.019 301.543 158.243 300.63C158.789 300.211 160.033 299.344 160.988 298.694C162.37 297.767 162.793 297.401 162.949 297.006C163.383 295.908 162.243 294.874 161.11 295.365C160.819 295.492 159.835 296.118 158.948 296.758C158.06 297.397 157.3 297.909 157.249 297.877C157.205 297.859 156.496 296.475 155.675 294.792C153.187 289.684 151.691 286.948 151.168 286.538C150.838 286.281 150.365 286.45 150.244 286.884C150.143 287.238 151.203 290.144 153.423 295.642C154.232 297.675 154.992 299.638 155.114 300.003C155.241 300.422 155.48 300.846 155.744 301.077Z" fill="black"/>
<path d="M165.44 297.25C165.708 297.407 166.138 297.475 166.388 297.422C166.955 297.303 170.496 294.767 170.846 294.233C171.352 293.468 170.963 292.362 170.127 292.197C169.55 292.084 168.868 292.398 167.725 293.33C167.201 293.757 166.711 294.097 166.661 294.064C166.601 294.054 166.207 293.06 165.785 291.878L165.013 289.72L166.692 288.555C168.495 287.3 168.966 286.75 168.771 286.089C168.626 285.588 167.897 285.249 167.391 285.468C167.192 285.554 166.434 286.156 165.702 286.819L164.373 288.033L163.788 286.685C163.463 285.934 163.025 285.05 162.813 284.687L162.422 284.038L164.882 282.662C167.69 281.08 168.038 280.748 167.666 279.89C167.506 279.522 167.306 279.354 166.9 279.257L166.354 279.13L163.014 281.416C159.549 283.792 159.209 284.139 159.783 284.582C159.926 284.702 160.283 284.729 160.601 284.664L161.146 284.537L161.721 286.617C162.333 288.826 163.931 294.065 164.557 295.886C164.886 296.854 164.996 297.024 165.44 297.25Z" fill="black"/>
</svg>
