<svg width="278" height="392" viewBox="0 0 278 392" fill="none" xmlns="http://www.w3.org/2000/svg">
<path d="M67.9907 55.7796C60.1714 54.4363 52.6154 59.5461 51.2651 67.4063L4.80019 337.868C3.44982 345.728 8.86718 353.067 16.6865 354.41L210.146 387.646C217.966 388.99 225.523 383.88 226.873 376.02L273.338 105.558C274.688 97.6974 269.27 90.3591 261.45 89.0156L67.9907 55.7796Z" fill="#89D88A" stroke="white" stroke-width="8"/>
<path d="M242.38 141.18C226.643 120.775 200.159 113.826 172.489 116.715C144.679 119.62 113.967 132.47 86.4703 154.007C58.9641 175.55 39.1047 202.313 29.5075 228.589C19.9825 254.668 20.1067 281.955 35.7576 302.246C51.4927 322.65 77.9774 329.601 105.649 326.711C133.457 323.808 164.17 310.956 191.666 289.42C219.17 267.877 239.031 241.115 248.628 214.838C258.154 188.757 258.029 161.471 242.38 141.18Z" fill="white"/>
<path d="M158.917 246.683L113.043 238.802L114.844 228.315C120.983 224.328 126.094 220.878 130.177 217.964C134.292 215.057 137.569 212.496 140.01 210.284C142.488 208.046 144.317 205.982 145.497 204.092C146.714 202.177 147.489 200.249 147.823 198.309C148.167 196.307 148.109 194.521 147.649 192.952C147.189 191.383 146.379 190.102 145.218 189.11C144.092 188.092 142.683 187.438 140.989 187.147C138.987 186.803 136.933 187.037 134.828 187.848C132.728 188.629 130.798 189.899 129.037 191.657L122.006 178.321C125.503 175.497 129.503 173.537 134.003 172.439C138.504 171.342 142.941 171.169 147.315 171.92C151.534 172.645 155.279 174.192 158.55 176.561C161.852 178.936 164.298 181.956 165.888 185.622C167.508 189.293 167.919 193.454 167.12 198.105C166.612 201.061 165.635 203.89 164.188 206.59C162.772 209.296 160.951 211.868 158.724 214.308C156.503 216.716 153.936 219.018 151.022 221.213C148.114 223.376 144.913 225.395 141.421 227.268L161.656 230.744L158.917 246.683Z" fill="#89D88A"/>
<path d="M77.0521 93.8637L61.7605 91.2366L62.3611 87.7409C64.4073 86.412 66.111 85.2619 67.4721 84.2909C68.8436 83.3216 69.9361 82.4682 70.7498 81.7308C71.5755 80.9848 72.1852 80.2969 72.5788 79.6669C72.9844 79.0284 73.2428 78.3858 73.3539 77.7391C73.4686 77.0717 73.4493 76.4766 73.296 75.9535C73.1428 75.4304 72.8726 75.0035 72.4856 74.6728C72.1105 74.3335 71.6406 74.1154 71.076 74.0184C70.4087 73.9038 69.7242 73.9817 69.0224 74.2522C68.3224 74.5124 67.6789 74.9356 67.092 75.5218L64.7484 71.0764C65.9142 70.1352 67.2472 69.4817 68.7475 69.1158C70.2477 68.75 71.7268 68.6923 73.1846 68.9428C74.5911 69.1844 75.8395 69.7001 76.9298 70.4899C78.0305 71.2814 78.8457 72.2881 79.3756 73.5101C79.9158 74.7338 80.0528 76.1208 79.7864 77.671C79.6171 78.6565 79.2913 79.5993 78.809 80.4994C78.337 81.4013 77.7299 82.2588 76.9878 83.072C76.2474 83.8749 75.3916 84.6421 74.4204 85.3736C73.4509 86.0949 72.3841 86.7677 71.2199 87.3921L77.9649 88.5509L77.0521 93.8637Z" fill="white"/>
<path d="M216.147 363.444L200.855 360.817L201.456 357.321C203.502 355.992 205.206 354.842 206.567 353.871C207.939 352.902 209.031 352.048 209.845 351.311C210.671 350.565 211.28 349.877 211.674 349.247C212.079 348.609 212.338 347.966 212.449 347.319C212.564 346.652 212.544 346.057 212.391 345.534C212.238 345.01 211.968 344.584 211.581 344.253C211.205 343.914 210.736 343.695 210.171 343.598C209.504 343.484 208.819 343.562 208.117 343.832C207.417 344.092 206.774 344.516 206.187 345.102L203.843 340.656C205.009 339.715 206.342 339.062 207.842 338.696C209.343 338.33 210.822 338.272 212.28 338.523C213.686 338.764 214.934 339.28 216.025 340.07C217.125 340.861 217.941 341.868 218.471 343.09C219.011 344.314 219.148 345.701 218.881 347.251C218.712 348.237 218.386 349.179 217.904 350.08C217.432 350.981 216.825 351.839 216.083 352.652C215.342 353.455 214.487 354.222 213.515 354.954C212.546 355.675 211.479 356.348 210.315 356.972L217.06 358.131L216.147 363.444Z" fill="white"/>
<path d="M111.82 92.0514C111.75 92.2026 111.676 92.3534 111.599 92.5032C110.168 95.2812 107.709 97.4242 104.673 98.5372C101.638 99.6502 98.3758 99.605 95.4886 98.4105C92.5493 97.194 90.3489 94.9378 89.2926 92.0574L64.886 25.4946C63.5365 21.8143 63.821 17.7906 65.6836 14.1734C67.5215 10.6039 70.6847 7.84961 74.59 6.41747C78.4958 4.98552 82.6898 5.04195 86.3993 6.57775C90.1613 8.1347 92.9764 11.0191 94.3261 14.7001L107.631 56.2521L104.433 55.5698L90.938 15.9419C89.9401 13.2198 87.8382 11.0779 85.0193 9.91161C82.1482 8.72349 78.8853 8.6858 75.8317 9.80528C72.7784 10.9247 70.3137 13.0629 68.8912 15.8253C67.4934 18.5367 67.275 21.5305 68.2733 24.2522L92.6804 90.8152C94.1551 94.8381 98.9782 96.782 103.431 95.1494C105.614 94.3489 107.376 92.8226 108.391 90.8513C109.375 88.9278 109.537 86.8145 108.831 84.8931L88.9883 30.775C88.1191 28.4045 85.25 27.2687 82.5927 28.2431C81.2788 28.7247 80.2208 29.6398 79.6138 30.8193C79.0326 31.9522 78.9388 33.1882 79.3501 34.3094L83.9531 52.101L80.9887 51.6612L75.9623 35.5516C75.1997 33.4717 75.3513 31.2063 76.4058 29.1675C77.4285 27.1809 79.1847 25.6494 81.3505 24.8558C85.8756 23.196 90.8215 25.2945 92.3761 29.5328L112.219 83.651C113.22 86.3788 113.075 89.3429 111.82 92.0514Z" fill="#39663A"/>
<path d="M36.176 252.428C36.2551 253.424 36.3341 255.606 36.35 257.283C36.3974 260.082 36.429 260.351 36.7295 260.762C37.1881 261.379 38.0105 261.442 38.5166 260.904C38.8487 260.556 38.8961 260.367 38.8645 259.307L38.8328 258.121L40.4934 259.339C42.5809 260.889 44.0675 261.679 44.6684 261.521C45.3484 261.347 45.6489 260.983 45.6489 260.303C45.6489 259.608 45.3484 259.244 44.3521 258.738C43.5298 258.327 42.2646 257.473 41.0153 256.492L40.098 255.78L41.1101 255.227C42.233 254.594 43.5456 253.282 44.0517 252.301C44.2414 251.938 44.4945 251.226 44.621 250.72C45.1745 248.522 43.8144 246.308 41.3157 245.374C40.1771 244.947 37.0616 244.947 36.429 245.359C36.0179 245.627 35.8597 246.149 36.1444 246.323C36.2234 246.371 36.9825 246.497 37.8207 246.592C40.8571 246.924 42.486 247.984 42.486 249.613C42.486 250.372 41.8376 251.637 41.1418 252.254C40.2403 253.045 38.3742 253.835 38.3742 253.44C38.3742 253.392 38.1528 252.017 37.8998 250.403C37.4728 247.762 37.1723 246.735 36.8244 246.735C36.0337 246.75 35.8755 248.174 36.176 252.428Z" fill="black"/>
<path d="M47.088 260.737C47.3885 261.781 48.0527 261.986 49.7291 261.591C50.3933 261.433 51.8324 261.196 52.9236 261.053C56.9089 260.531 56.9247 260.531 57.3042 260.089C57.5098 259.867 57.668 259.503 57.668 259.314C57.668 258.808 57.1303 258.159 56.64 258.064C55.9916 257.954 50.1402 258.744 49.7132 259.013C49.6342 259.061 49.6184 258.649 49.6816 258.064C49.7449 257.495 49.8398 256.325 49.903 255.471L49.9979 253.921L51.9273 253.51C53.0027 253.272 53.9832 253.004 54.1097 252.893C54.2362 252.782 54.3469 252.45 54.3469 252.165C54.3469 251.77 54.2362 251.565 53.9199 251.359C53.5087 251.09 53.4613 251.106 51.8324 251.659C50.9151 251.992 50.1402 252.229 50.1244 252.197C50.0928 252.181 50.1244 251.043 50.1877 249.698L50.2826 247.231L52.1961 247.121C53.2557 247.073 54.3311 246.947 54.5999 246.868C55.2325 246.678 55.5804 245.982 55.2958 245.46C54.9479 244.812 54.5051 244.796 51.6426 245.302C50.1719 245.555 48.8276 245.84 48.6537 245.935C48.3057 246.124 48.2583 246.441 48.5113 246.852C48.6379 247.057 48.5904 247.832 48.2899 249.967C48.0685 251.533 47.8313 253.241 47.7839 253.763C47.7364 254.285 47.5466 255.74 47.3727 257.005C47.1987 258.27 47.0406 259.503 47.009 259.772C46.9773 260.025 47.009 260.468 47.088 260.737Z" fill="black"/>
<path d="M59.4709 260.949C60.151 261.502 60.5938 260.522 61.258 257.106L61.7008 254.765L62.8869 254.876C63.5353 254.939 64.326 254.986 64.6265 255.002L65.18 255.018L65.4489 256.521C65.5912 257.343 65.8126 258.703 65.9549 259.525C66.1605 260.854 66.2396 261.075 66.6824 261.455C66.9354 261.708 67.315 261.897 67.4889 261.897C67.8685 261.897 68.7383 261.091 68.7383 260.727C68.7383 260.411 68.0266 256.267 67.7103 254.765C67.1094 251.855 65.3065 246.194 64.753 245.482C64.3418 244.928 63.899 244.66 63.3455 244.66C62.3176 244.66 61.8906 245.324 61.0208 248.297C59.9138 252.124 59.4551 254.828 59.297 258.497C59.2179 260.474 59.2337 260.743 59.4709 260.949ZM62.5864 251.318C62.8553 250.4 63.1241 249.515 63.1557 249.357C63.2032 249.214 63.2981 249.088 63.3455 249.088C63.472 249.088 64.7056 252.867 64.6107 252.946C64.4842 253.041 62.0962 253.199 62.0962 253.089C62.0962 253.041 62.3176 252.235 62.5864 251.318Z" fill="black"/>
<path d="M70.4145 256.73C70.541 258.628 70.794 260.288 71.0154 260.747C71.4424 261.569 71.9801 261.617 74.0044 261.016C74.9691 260.731 76.1235 260.399 76.5663 260.288C76.9933 260.178 77.5943 259.909 77.8631 259.703C78.2901 259.387 78.385 259.213 78.385 258.707C78.385 258.233 78.2901 258.027 77.9738 257.774C77.4045 257.331 77.0091 257.347 74.9216 257.995C73.9411 258.296 73.1029 258.549 73.0871 258.549C73.0397 258.549 72.9132 257.126 72.4545 251.828C72.2331 249.297 72.0276 246.909 71.9643 246.482C71.7903 245.075 70.9838 244.695 70.6201 245.866C70.4461 246.435 70.288 254.69 70.4145 256.73Z" fill="black"/>
<path d="M85.7208 254.198C86.1003 258.942 87.0334 261.236 88.5516 261.236C89.5162 261.236 90.133 260.587 90.7656 258.911C91.0503 258.152 91.3982 257.266 91.5089 256.966L91.7303 256.412L92.2205 257.203C92.9638 258.405 94.5927 260.445 95.3993 261.188C96.0002 261.742 96.2532 261.868 96.7435 261.868C98.1036 261.868 98.5464 261.062 98.6412 258.389C98.7045 256.728 98.6254 255.78 98.151 252.458C97.8347 250.276 97.5342 247.936 97.471 247.24C97.3603 245.911 97.1072 245.2 96.6961 245.041C95.8579 244.725 94.9881 245.168 94.8458 245.959C94.7667 246.386 95.0355 248.916 95.51 252.095C95.6997 253.344 95.8895 255.179 95.937 256.175L96.0318 257.994L95.6365 257.519C95.0197 256.776 94.1974 255.432 93.4699 253.961C92.695 252.379 92.3629 252.063 91.5563 252.063C90.5758 252.063 90.2753 252.506 89.4055 255.115C88.9786 256.396 88.599 257.345 88.5357 257.234C88.2985 256.808 87.919 253.977 87.6027 250.482C87.2231 246.18 87.065 245.121 86.7329 244.788C86.4166 244.488 86.0054 244.725 85.8156 245.358C85.61 246.022 85.5468 252.142 85.7208 254.198Z" fill="black"/>
<path d="M100.283 258.264C100.694 259.941 101.722 261.016 103.035 261.143C103.968 261.222 104.521 260.969 105.328 260.083C107.289 257.916 108.665 252.081 107.906 249.203C107.621 248.143 107.194 247.463 106.324 246.656C104.901 245.344 103.541 244.996 102.924 245.771C102.734 246.008 102.592 246.277 102.592 246.356C102.592 246.451 102.307 247.115 101.96 247.811C101.185 249.392 100.599 251.622 100.299 254.216C100.014 256.541 100.014 257.173 100.283 258.264ZM102.972 250.578C103.177 249.582 103.43 248.554 103.525 248.317C103.683 247.89 103.699 247.89 104.158 248.127C104.427 248.254 104.838 248.633 105.075 248.95C105.502 249.503 105.518 249.598 105.518 251.353C105.518 253.283 105.249 254.706 104.569 256.43C104.174 257.442 103.446 258.644 103.225 258.644C103.067 258.644 102.782 258.169 102.576 257.553C102.323 256.809 102.576 252.524 102.972 250.578Z" fill="black"/>
<path d="M109.625 255.629C109.894 257.858 110.368 260.183 110.637 260.594C111.143 261.369 112.282 261.338 112.693 260.531C112.914 260.12 112.899 259.883 112.63 258.127C112.456 257.052 112.282 255.866 112.219 255.47L112.124 254.759L112.693 255.439C113.832 256.767 116.204 258.143 118.813 259.013C119.477 259.234 120.173 259.424 120.363 259.424C120.822 259.424 121.565 259.013 121.691 258.712C122.055 257.732 121.502 257.052 119.92 256.593C118.307 256.103 117.105 255.534 115.951 254.711L114.923 253.984L115.476 253.588C117.263 252.26 118.244 250.52 118.181 248.781C118.117 247.358 117.042 245.966 115.666 245.57C114.433 245.207 113.405 245.539 112.171 246.693L111.222 247.563L111.127 247.057C111.001 246.44 110.764 246.14 110.384 246.14C110.005 246.14 109.831 246.567 109.704 247.8C109.53 249.556 109.483 254.427 109.625 255.629ZM112.472 251.106C112.851 249.856 113.341 249.05 114.037 248.449C114.654 247.943 115.128 247.958 115.445 248.528C115.919 249.382 115.255 250.441 113.436 251.707C112.677 252.244 112.139 252.529 112.139 252.402C112.139 252.276 112.282 251.707 112.472 251.106Z" fill="black"/>
<path d="M121.945 255.317C122.087 258.227 122.277 259.318 122.751 259.808C123.194 260.283 123.748 260.283 126.136 259.792C129.615 259.065 130.153 258.812 130.153 257.8C130.153 257.072 129.631 256.535 128.919 256.535C128.634 256.535 127.543 256.756 126.484 257.009C125.424 257.278 124.538 257.452 124.491 257.42C124.459 257.373 124.254 255.791 124.048 253.894C123.653 250.399 123.658 246.441 123.358 245.382C123.152 244.686 122.002 244.939 121.67 245.382C121.432 245.698 121.723 250.952 121.945 255.317Z" fill="black"/>
<path d="M131.471 259.335C131.819 259.888 132.262 260.094 132.847 259.952C133.622 259.746 133.733 259.335 133.875 255.619C133.938 253.737 134.001 251.285 134.017 250.162C134.017 248.897 134.08 248.154 134.175 248.154C134.587 248.154 136.326 249.182 136.927 249.799C137.307 250.162 137.813 250.89 138.05 251.412C138.429 252.203 138.524 252.598 138.572 253.942C138.635 255.413 138.603 255.603 138.224 256.425C137.718 257.485 136.658 258.465 135.63 258.845C135.219 258.987 134.681 259.177 134.444 259.256C133.559 259.588 133.337 260.853 134.065 261.359C134.602 261.739 135.361 261.644 136.642 261.059C139.331 259.809 141.134 257.042 141.134 254.148C141.134 252.993 140.644 251.127 140.011 249.878C139.015 247.869 136.753 246.193 134.175 245.529C133.606 245.386 132.989 245.197 132.8 245.118C132.357 244.896 132.151 245.054 131.819 245.845C131.566 246.399 131.519 247.253 131.424 252.187C131.36 255.318 131.281 258.086 131.234 258.354C131.186 258.671 131.266 259.003 131.471 259.335Z" fill="black"/>
<path d="M57.6407 280.232C57.9036 282.042 59.356 284.292 60.7392 284.992C61.7905 285.539 62.6066 285.433 63.7271 284.612C64.9443 283.714 66.4797 281.206 66.4797 280.126C66.4797 279.168 65.5806 278.651 64.8613 279.199C64.6953 279.335 64.3219 279.913 64.0452 280.491C63.7686 281.084 63.2429 281.844 62.8556 282.255C62.2885 282.848 62.1225 282.939 61.8043 282.848C61.2649 282.711 60.8041 281.765 60.4307 280.883C59.7805 279.378 60.1263 276.58 61.233 274.239C62.2842 272.003 63.1461 271.231 64.059 272.28C64.8613 273.192 65.5253 272.615 65.0135 271.444C64.7092 270.744 63.8931 270.136 63.1184 270.045C61.9703 269.893 60.5456 270.942 59.4805 272.691C58.2079 274.804 57.3503 278.301 57.6407 280.232Z" fill="black"/>
<path d="M67.7411 280.745C68.1523 282.311 68.5476 283.165 69.1802 283.861C71.2836 286.09 74.0827 284.857 75.1423 281.22C75.9647 278.42 76.0912 274.641 75.4112 272.869C74.6995 271.035 73.3395 270.276 72.5645 271.272C72.1059 271.842 72.1534 272.253 72.7069 273.107C73.3078 274.008 73.5292 275.257 73.4027 276.871C73.1813 279.733 72.438 282.089 71.6473 282.453C71.2836 282.611 71.2045 282.58 70.8091 282.105C70.1924 281.378 69.8602 280.049 69.8602 278.357C69.8602 275.953 70.477 273.961 71.8845 271.747C72.5329 270.75 72.5487 270.228 71.9636 270.228C70.7459 270.228 68.769 272.901 68.0416 275.542C67.7885 276.459 67.583 280.113 67.7411 280.745Z" fill="black"/>
<path d="M77.2977 277.729C77.4393 282.629 77.6124 284.291 78.0057 284.603C78.3677 284.897 78.6509 284.707 78.8397 284.083C79.0285 283.408 79.3275 279.859 79.3275 278.092V276.794L80.067 278.092C80.4604 278.802 81.0426 279.72 81.3573 280.153C82.2857 281.451 83.9064 283.512 84.3155 283.91C84.7247 284.343 85.5744 284.447 86.1251 284.118C86.786 283.72 86.8804 283.044 86.8804 278.387C86.8646 273.071 86.7388 271.634 86.2352 271.045C85.8576 270.595 85.1967 270.491 84.6774 270.803C84.2526 271.045 84.0638 271.963 84.2211 272.985C84.2841 273.452 84.347 275.184 84.347 276.846L84.3627 279.859L83.812 279.183C82.8364 277.971 81.7507 276.136 80.602 273.746C79.9726 272.465 79.3275 271.27 79.1387 271.097C78.9656 270.941 78.5879 270.803 78.3047 270.803C77.5494 270.803 77.1246 271.461 77.156 272.517C77.156 272.95 77.2347 275.305 77.2977 277.729Z" fill="black"/>
<path d="M88.3748 282.492C88.8967 284.01 90.1619 285.212 91.2215 285.212C92.6131 285.212 93.5304 283.899 93.5304 281.891C93.5146 280.626 93.3564 280.167 92.4234 278.649C91.3163 276.893 90.7154 275.091 90.7945 273.794L90.8419 272.956L91.1266 273.857C91.5536 275.249 92.5499 275.692 93.4039 274.838C93.7518 274.49 93.7992 274.331 93.736 273.588C93.6411 272.481 92.8978 271.01 92.202 270.536C91.1108 269.824 89.5926 270.267 88.7069 271.58C88.359 272.07 88.3116 272.307 88.3116 273.572C88.3116 275.502 88.8809 277.241 90.2568 279.503C90.8261 280.452 91.3163 281.432 91.348 281.764C91.4587 282.492 91.3005 283.156 91.0159 283.156C90.7945 283.156 90.1461 282.46 89.2921 281.353C88.8335 280.768 88.7386 280.705 88.4539 280.91C88.1218 281.132 88.0902 281.654 88.3748 282.492Z" fill="black"/>
<path d="M95.2546 271.397C95.3653 271.476 95.6816 271.602 95.9505 271.65L96.4249 271.76L96.6147 273.374C96.7254 274.259 96.8519 277.122 96.9152 279.731L97.0101 284.475L97.4529 284.902C98.1329 285.582 98.9552 285.44 99.4139 284.57C99.6036 284.175 99.6195 283.479 99.4929 279.636C99.3506 275.208 99.2399 273.358 99.0818 272.804C99.0027 272.583 99.0976 272.535 99.6827 272.535C100.062 272.535 100.821 272.456 101.375 272.377C102.988 272.156 103.605 271.254 102.735 270.4C102.371 270.021 102.26 270.005 100.41 270.005C98.3227 270.005 95.65 270.337 95.2863 270.653C95.0174 270.875 95.0016 271.175 95.2546 271.397Z" fill="black"/>
<path d="M104.582 281.432C104.883 284.564 105.167 285.212 106.227 285.212C107.207 285.212 107.381 284.864 107.508 282.666L107.619 280.736L108.093 281.068C108.346 281.258 109.279 282.002 110.165 282.729C111.525 283.852 111.841 284.042 112.347 284.042C112.79 284.042 113.011 283.947 113.249 283.63C113.96 282.729 113.597 282.16 110.971 280.072L109.342 278.483L110.117 277.66C111.224 276.49 112.126 275.019 112.347 274.007C112.932 271.414 110.75 269.421 108.457 270.465C107.872 270.733 106.812 271.746 106.369 272.473C106.195 272.758 106.18 272.742 106.18 272.362C106.148 271.54 105.847 270.955 105.436 270.955C104.899 270.955 104.772 271.382 104.582 273.849C104.393 276.253 104.393 279.392 104.582 281.432ZM108.489 273.928C108.71 273.359 109.358 272.694 109.659 272.694C109.738 272.694 109.801 272.948 109.801 273.28C109.801 273.896 109.169 275.035 108.441 275.715L108.014 276.095L108.141 275.304C108.204 274.877 108.362 274.26 108.489 273.928Z" fill="black"/>
<path d="M114.904 281.291C115.03 283.41 115.315 284.406 115.774 284.311C116.232 284.232 116.438 283.552 116.612 281.654C116.691 280.674 116.786 279.851 116.802 279.836C116.833 279.804 117.592 279.741 118.526 279.678L120.186 279.567L120.755 280.816C121.072 281.496 121.451 282.429 121.594 282.904C121.941 283.963 122.432 284.501 123.096 284.501C123.729 284.501 124.361 283.837 124.361 283.204C124.361 282.208 122.542 278.365 120.566 275.17C119.886 274.079 119.063 272.719 118.747 272.118C117.925 270.632 117.245 270.363 116.311 271.138C115.157 272.118 114.572 276.262 114.904 281.291ZM117.213 275.091C117.324 274.68 117.371 274.743 118.162 276.009C118.62 276.752 118.984 277.432 118.984 277.527C118.984 277.606 118.62 277.748 118.193 277.843C116.818 278.144 116.881 278.191 116.991 276.768C117.055 276.088 117.15 275.329 117.213 275.091Z" fill="black"/>
<path d="M125.708 276.637C125.744 276.851 125.851 278.449 125.923 280.202C126.066 282.911 126.137 283.456 126.441 283.904C126.924 284.606 127.764 284.703 128.3 284.119C128.657 283.729 128.675 283.573 128.586 282.014C128.478 280.436 127.656 274.746 127.21 272.506C126.941 271.181 126.459 270.518 126.012 270.81C125.726 271.005 125.691 271.337 125.673 273.636C125.655 275.078 125.673 276.422 125.708 276.637Z" fill="black"/>
<path d="M129.92 273.359C130.41 277.961 130.41 281.583 131.059 283.671C131.502 285.094 131.644 285.331 132.071 285.331C132.64 285.331 133.32 284.445 133.051 282.136C132.656 278.767 132.577 277.455 132.767 277.629C132.846 277.708 134 279.226 135.313 280.981C136.626 282.737 137.827 284.255 138.001 284.334C138.761 284.745 139.599 284.461 140.026 283.67C140.279 283.211 140.31 282.547 140.358 277.154C140.405 270.686 140.389 270.591 139.583 270.133C139.045 269.832 138.413 270.006 138.065 270.544C137.812 270.923 137.78 271.366 137.827 274.624C137.843 276.617 137.812 278.641 137.748 279.1L137.622 279.922L135.329 276.901C134.064 275.241 132.814 273.501 132.561 273.043C131.85 271.825 131.723 271.698 131.059 271.698C130.236 271.698 129.809 272.331 129.92 273.359Z" fill="black"/>
<path d="M141.914 271.282C142.088 271.377 142.752 271.503 143.385 271.566C144.413 271.661 144.539 271.709 144.492 271.993C144.476 272.167 144.381 273.164 144.302 274.208C144.223 275.251 144.002 277.307 143.812 278.778C143.401 282.115 143.117 284.666 143.576 285.109C143.781 285.33 144.207 285.393 144.429 285.266C144.745 285.077 144.935 285.04 145.393 282.036C145.583 280.865 145.979 278.446 146.279 276.659C146.58 274.888 146.833 273.085 146.833 272.674V271.899L147.655 272.025C148.952 272.215 149.395 272.152 149.711 271.756C150.09 271.282 150.075 270.871 149.632 270.428C149.331 270.143 148.999 270.032 148.129 269.938C146.738 269.795 143.005 269.985 142.246 270.238C141.582 270.444 141.408 270.997 141.914 271.282Z" fill="black"/>
<path d="M150.133 283.799C150.512 284.606 151.24 285.302 151.92 285.507C152.521 285.697 153.359 285.428 153.865 284.922C154.861 283.91 155.083 281.965 154.577 278.723C154.434 277.758 154.498 276.734 154.498 275.785C154.466 274.187 154.498 273.982 154.861 273.333C155.225 272.685 155.741 273.152 156.294 273.136C158.224 273.088 157.297 269.696 155.367 269.696C154.466 269.696 153.138 270.961 152.505 272.416C151.746 274.203 151.524 274.753 152.22 279.008C152.6 281.364 152.679 282.376 152.505 283.024C152.284 283.847 151.556 283.104 151.177 281.68C150.971 280.953 150.623 280.383 150.37 280.383C149.658 280.383 149.516 282.471 150.133 283.799Z" fill="black"/>
<path d="M114.936 301.488C115.11 301.709 115.442 301.946 115.663 301.994L116.074 302.104L115.964 304.856C115.837 307.908 115.932 308.414 116.675 308.731C117.197 308.936 117.862 308.731 118.099 308.272C118.194 308.098 118.273 306.975 118.273 305.663V303.37L119.728 304.366C122.511 306.264 124.662 307.466 125.263 307.466C125.959 307.466 126.401 307.007 126.401 306.264C126.401 305.52 126.053 305.204 123.491 303.67C121.357 302.373 119.475 301.092 119.301 300.839C119.253 300.76 119.617 300.476 120.107 300.191C120.597 299.922 121.357 299.353 121.784 298.957C123.665 297.202 123.697 295.431 121.878 293.786C120.961 292.964 119.696 292.442 118.241 292.331C117.403 292.252 117.087 292.299 116.77 292.505C116.296 292.821 116.28 292.995 116.675 293.343C116.944 293.565 116.96 293.628 116.77 293.77C116.486 293.976 116.233 295.731 116.217 297.423C116.217 298.894 116.106 299.4 115.806 299.4C115.442 299.4 114.793 300.096 114.699 300.586C114.635 300.934 114.699 301.187 114.936 301.488ZM118.225 293.865C120.613 294.64 121.641 296.111 120.503 297.17C119.854 297.771 118.115 298.689 118.115 298.42C118.115 297.645 117.767 294.419 117.656 294.134C117.466 293.66 117.514 293.644 118.225 293.865Z" fill="black"/>
<path d="M127.072 307.297C127.151 307.471 127.34 307.74 127.514 307.882C127.783 308.135 128.1 308.151 131.089 308.009C133.809 307.898 134.457 307.819 134.868 307.582C135.785 307.06 135.817 305.969 134.947 305.399C134.615 305.178 134.236 305.178 132.053 305.304C130.662 305.384 129.507 305.431 129.475 305.399C129.46 305.368 129.381 304.435 129.333 303.343L129.254 301.351L129.634 301.446C129.839 301.493 130.598 301.556 131.326 301.572C132.48 301.604 132.67 301.572 132.876 301.288C133.208 300.829 133.081 300.228 132.607 299.959C132.259 299.769 131.927 299.754 130.756 299.88L129.333 300.022L129.222 298.204C129.175 297.207 129.112 296.069 129.096 295.689L129.064 294.978L129.934 295.057C130.409 295.088 131.879 295.12 133.192 295.12C135.327 295.12 135.627 295.088 135.928 294.819C136.355 294.424 136.355 293.712 135.928 293.285C135.548 292.906 135.485 292.906 130.756 293.301C129.048 293.444 128.78 293.444 128.558 293.222C128.226 292.874 128.005 292.985 127.688 293.633C127.483 294.06 127.388 294.978 127.261 297.887C126.977 304.292 126.929 306.965 127.072 307.297Z" fill="black"/>
<path d="M136.975 307.803C137.117 307.85 138.018 307.898 138.161 307.803C138.477 307.613 138.783 304.904 139.099 303.276C139.226 302.611 139.368 301.931 139.4 301.757C139.463 301.457 139.574 301.441 141.124 301.489L142.784 301.536L143.338 303.228C143.622 304.161 143.97 305.458 144.081 306.106C144.334 307.609 144.555 308.067 145.188 308.32C145.615 308.51 145.757 308.494 146.105 308.305C146.88 307.878 146.959 307.419 146.595 305.679C145.868 302.137 144.429 298.626 142.12 294.72C141.139 293.044 140.981 292.87 140.428 292.743C138.815 292.395 138.056 294.593 137.439 301.346C137.028 305.774 136.627 307.66 136.975 307.803ZM139.953 298.341C140.127 297.456 140.301 296.697 140.333 296.665C140.38 296.618 140.57 296.902 140.76 297.282C141.724 299.132 141.851 299.401 141.851 299.559C141.851 299.701 140.143 300.255 139.716 300.255C139.59 300.255 139.605 300.081 139.953 298.341Z" fill="black"/>
<path d="M148.025 303.977C148.182 305.751 148.374 307.077 148.53 307.409C148.844 308.055 149.506 308.271 150.273 307.956C151.231 307.591 152.012 307.398 153.528 307.15C155.758 306.768 155.793 306.752 156.246 306.288C156.803 305.707 156.786 305.077 156.176 304.497C155.758 304.099 155.619 304.05 154.835 304.133C154.051 304.215 151.614 304.69 151.022 304.905C150.76 304.988 150.22 301.556 149.75 296.765C149.436 293.566 149.435 293.095 148.843 293.095C148.547 293.095 147.677 293.254 147.538 293.569C147.242 294.265 147.747 300.628 148.025 303.977Z" fill="black"/>
<path d="M77.3349 309.466C78.0149 310.067 78.2995 309.418 79.0903 305.37C79.3433 304.057 79.5963 302.729 79.6438 302.397L79.7545 301.811L80.5768 301.827C81.0355 301.843 81.7787 301.89 82.2532 301.938L83.123 302.049L83.55 304.579C84.0877 307.805 84.1193 307.916 84.5937 308.295C85.1314 308.707 85.6375 308.691 86.1436 308.248C86.4599 307.995 86.5706 307.742 86.5706 307.346C86.5706 306.192 84.8626 297.731 84.2933 296.039C83.3602 293.24 81.668 291.326 80.3871 291.611C79.3275 291.832 79.0745 292.56 78.2995 297.304C77.9674 299.234 77.7144 300.356 77.5879 300.436C77.3349 300.578 77.3032 301.052 77.5246 301.274C77.6353 301.384 77.6037 301.985 77.4456 303.092C77.319 303.994 77.1609 305.733 77.1134 306.951C77.0186 309.07 77.0186 309.181 77.3349 309.466ZM81.2727 295.422C81.6206 295.913 82.7434 299.661 82.5695 299.819C82.522 299.882 80.4978 299.961 80.2131 299.929C80.1657 299.914 80.3396 298.838 80.5927 297.526C81.0038 295.501 81.0987 295.185 81.2727 295.422Z" fill="black"/>
<path d="M98.2884 294.279C98.4846 294.456 98.7986 294.58 98.9556 294.58C99.7013 294.58 99.5997 294.507 99.4231 295.092C99.1484 295.996 99.1518 300.784 99.1911 304.277C99.1911 304.277 99.0552 307.922 99.9382 308.254C100.821 308.587 102.821 308.443 102.821 308.443C105.196 308.248 106.216 307.964 106.452 307.432C106.707 306.829 106.569 306.156 106.118 305.784C105.627 305.358 104.195 305.269 102.821 305.553L102.095 305.695L101.978 304.897C101.919 304.454 101.86 303.532 101.86 302.823V301.547L103.822 301.44C106.373 301.299 107.158 300.944 107.158 299.916C107.158 299.473 106.53 299.012 105.922 299.012C105.627 299.012 104.587 299.171 103.606 299.366C102.605 299.579 101.781 299.703 101.762 299.685C101.742 299.65 101.624 298.693 101.487 297.558C101.369 296.424 101.212 295.342 101.134 295.183C101.016 294.899 101.193 294.881 103.469 294.988C106.216 295.13 107.08 294.97 107.354 294.296C107.609 293.694 107.276 293.02 106.628 292.79C106.255 292.665 105.196 292.665 103.135 292.807C99.6228 293.038 98.9556 293.126 98.3669 293.445C97.8371 293.747 97.8174 293.906 98.2884 294.279Z" fill="black"/>
<path d="M86.5298 303.105C86.7978 305.51 87.2706 308.017 87.5386 308.46C88.043 309.296 89.1778 309.262 89.5876 308.392C89.8083 307.949 89.7925 307.693 89.5246 305.8C89.3512 304.64 89.1778 303.36 89.1148 302.934L89.0202 302.167L89.5876 302.9C90.7225 304.333 93.0867 305.817 95.6875 306.755C96.3495 306.993 97.043 307.198 97.2321 307.198C97.6892 307.198 98.43 306.755 98.5561 306.431C98.9186 305.373 98.367 304.64 96.7908 304.145C95.1831 303.616 93.9852 303.002 92.8346 302.115L91.81 301.331L92.3617 300.904C94.1428 299.472 95.12 297.595 95.057 295.719C94.9939 294.184 93.9221 292.683 92.5508 292.257C91.3214 291.864 90.2969 292.223 89.0675 293.468L88.1218 294.406L88.0272 293.86C87.9011 293.195 87.6647 292.871 87.2864 292.871C86.9081 292.871 86.7347 293.331 86.6086 294.662C86.4352 296.555 86.388 301.808 86.5298 303.105ZM89.3669 298.226C89.7452 296.879 90.2338 296.009 90.9274 295.361C91.5421 294.815 92.0149 294.832 92.3302 295.446C92.803 296.367 92.141 297.51 90.3284 298.875C89.5719 299.455 89.0359 299.762 89.0359 299.625C89.0359 299.489 89.1778 298.875 89.3669 298.226Z" fill="black"/>
</svg>
