<svg width="283" height="321" viewBox="0 0 283 321" fill="none" xmlns="http://www.w3.org/2000/svg">
<path d="M16.5728 27.0144C8.91512 27.9189 3.27845 34.7658 4.18831 42.4693L35.1407 304.534C36.0506 312.237 43.1273 317.583 50.785 316.678L238.238 294.538C245.896 293.634 251.534 286.787 250.624 279.083L219.671 17.0186C218.761 9.31463 211.684 3.96978 204.025 4.87438L16.5728 27.0144Z" fill="#E1EA81" stroke="white" stroke-width="8"/>
<path d="M200.693 58.3297C180.615 43.8091 154.297 44.628 129.572 54.8411C104.721 65.1081 79.9088 85.3366 60.4317 112.698C40.9469 140.068 29.9375 170.164 28.2578 197.011C26.5907 223.657 34.1504 248.783 54.1184 263.223C74.1948 277.744 100.512 276.927 125.239 266.712C150.088 256.447 174.901 236.216 194.378 208.857C213.861 181.487 224.872 151.391 226.552 124.544C228.219 97.8962 220.659 72.77 200.693 58.3297Z" fill="white"/>
<path d="M105.241 181.789L110.474 167.341C113.078 168.607 115.513 169.515 117.781 170.066C120.049 170.616 122.129 170.779 124.022 170.556C125.729 170.354 127.213 169.864 128.474 169.086C129.735 168.307 130.674 167.331 131.291 166.157C131.935 164.948 132.172 163.63 132.004 162.202C131.718 159.782 130.41 158.032 128.08 156.955C125.746 155.846 122.64 155.52 118.76 155.978L115.455 156.369L113.965 143.753L117.27 143.363C119.381 143.114 121.224 142.597 122.799 141.813C124.37 140.998 125.559 140.008 126.366 138.843C127.168 137.647 127.487 136.351 127.322 134.954C127.19 133.837 126.763 132.88 126.039 132.085C125.316 131.289 124.382 130.707 123.237 130.339C122.092 129.971 120.822 129.869 119.425 130.034C117.904 130.214 116.253 130.755 114.472 131.657C112.721 132.556 110.798 133.853 108.701 135.549L99.3218 123.676C101.895 120.949 104.89 118.739 108.309 117.045C111.755 115.316 115.449 114.219 119.39 113.754C123.797 113.233 127.799 113.547 131.396 114.696C134.993 115.844 137.93 117.669 140.208 120.169C142.482 122.638 143.83 125.657 144.252 129.226C144.684 132.888 144.049 136.298 142.345 139.457C140.641 142.617 138.179 145.22 134.96 147.268C139.66 148.161 143.475 149.96 146.407 152.666C149.334 155.341 151.042 158.742 151.529 162.87C151.991 166.78 151.257 170.423 149.327 173.797C147.425 177.137 144.623 179.923 140.921 182.154C137.22 184.384 132.886 185.793 127.921 186.379C123.917 186.852 119.965 186.69 116.063 185.892C112.192 185.09 108.585 183.723 105.241 181.789Z" fill="#E1EA81"/>
<path d="M19.579 60.9587L21.323 56.1428C22.191 56.5647 23.0029 56.8674 23.7588 57.0508C24.5147 57.2343 25.2082 57.2887 25.8392 57.2142C26.4082 57.147 26.9029 56.9837 27.3233 56.7243C27.7436 56.4648 28.0566 56.1394 28.2621 55.748C28.4767 55.3451 28.556 54.9057 28.4998 54.4298C28.4045 53.6229 27.9685 53.0398 27.1918 52.6805C26.4139 52.3109 25.3784 52.2024 24.0853 52.3551L22.9836 52.4853L22.4869 48.2801L23.5886 48.15C24.2921 48.0669 24.9063 47.8947 25.4314 47.6334C25.9552 47.3618 26.3515 47.0317 26.6203 46.6434C26.8879 46.2446 26.9942 45.8125 26.9392 45.347C26.8953 44.9746 26.7527 44.6558 26.5116 44.3906C26.2705 44.1254 25.9591 43.9314 25.5775 43.8086C25.1959 43.6859 24.7723 43.652 24.3068 43.707C23.7999 43.7668 23.2496 43.9472 22.6558 44.2481C22.0723 44.5478 21.4311 44.9801 20.7321 45.5452L17.6057 41.5877C18.4634 40.6788 19.462 39.942 20.6015 39.3773C21.7502 38.8011 22.9814 38.4354 24.2952 38.2802C25.7642 38.1067 27.0982 38.2114 28.2972 38.5942C29.4962 38.9771 30.4753 39.5852 31.2346 40.4185C31.9926 41.2416 32.4418 42.2479 32.5824 43.4375C32.7265 44.6582 32.5147 45.7951 31.9468 46.8481C31.3789 47.9012 30.5583 48.769 29.4852 49.4517C31.0517 49.7492 32.3235 50.3489 33.3007 51.251C34.2766 52.1427 34.8458 53.2764 35.0083 54.6523C35.1622 55.9557 34.9175 57.1699 34.2742 58.2948C33.64 59.4081 32.706 60.3366 31.4722 61.0802C30.2384 61.8238 28.7939 62.2933 27.1388 62.4888C25.8043 62.6464 24.4868 62.5923 23.1862 62.3263C21.8959 62.0591 20.6935 61.6033 19.579 60.9587Z" fill="white"/>
<path d="M221.391 271.579L223.135 266.763C224.003 267.185 224.815 267.488 225.571 267.671C226.327 267.854 227.02 267.909 227.651 267.834C228.22 267.767 228.715 267.604 229.135 267.344C229.556 267.085 229.869 266.76 230.074 266.368C230.289 265.965 230.368 265.526 230.312 265.05C230.216 264.243 229.78 263.66 229.004 263.301C228.226 262.931 227.19 262.823 225.897 262.975L224.796 263.105L224.299 258.9L225.401 258.77C226.104 258.687 226.718 258.515 227.243 258.254C227.767 257.982 228.164 257.652 228.432 257.263C228.7 256.865 228.806 256.433 228.751 255.967C228.707 255.595 228.565 255.276 228.324 255.011C228.083 254.745 227.771 254.551 227.39 254.429C227.008 254.306 226.584 254.272 226.119 254.327C225.612 254.387 225.062 254.567 224.468 254.868C223.884 255.168 223.243 255.6 222.544 256.165L219.418 252.208C220.275 251.299 221.274 250.562 222.414 249.997C223.562 249.421 224.793 249.056 226.107 248.9C227.576 248.727 228.91 248.832 230.109 249.214C231.308 249.597 232.287 250.205 233.047 251.039C233.805 251.862 234.254 252.868 234.394 254.058C234.539 255.278 234.327 256.415 233.759 257.468C233.191 258.521 232.37 259.389 231.297 260.072C232.864 260.369 234.136 260.969 235.113 261.871C236.089 262.763 236.658 263.897 236.82 265.272C236.974 266.576 236.73 267.79 236.086 268.915C235.452 270.028 234.518 270.957 233.284 271.7C232.05 272.444 230.606 272.913 228.951 273.109C227.616 273.267 226.299 273.212 224.998 272.946C223.708 272.679 222.506 272.223 221.391 271.579Z" fill="white"/>
<path d="M69.0437 217.148C69.0797 217.606 69.7201 218.307 70.2744 218.48C71.0408 218.718 71.0327 218.859 70.2229 220.539C69.351 222.36 66.2963 229.404 65.5925 231.26C65.1298 232.458 65.1054 232.593 65.3411 233.042C65.5768 233.491 65.6858 233.543 67.1135 233.899C67.9491 234.088 69.022 234.261 69.4866 234.263C72.8896 234.251 76.134 231.934 77.5794 228.503C78.7563 225.703 77.5459 221.265 74.8736 218.589C73.7664 217.493 71.7399 216.074 70.9083 215.815C69.8648 215.49 68.9432 216.15 69.0437 217.148ZM69.7692 227.446C70.3296 225.993 71.1217 223.681 71.5486 222.312C71.9705 220.958 72.3538 219.843 72.3864 219.854C72.7452 219.965 73.7986 221.349 74.4709 222.579C75.5145 224.568 75.712 225.828 75.2088 227.442C74.3956 230.051 72.2125 231.946 69.5994 232.295C67.73 232.553 67.7738 232.584 68.3149 231.25C68.5671 230.613 69.2251 228.904 69.7692 227.446Z" fill="black"/>
<path d="M75.8548 234.466C75.8264 234.672 75.9642 235.09 76.159 235.384C76.4487 235.832 76.7168 236.005 78.1262 236.534C80.782 237.541 81.9476 237.474 82.3135 236.301C82.649 235.224 82.1198 234.684 80.1795 234.079L78.9566 233.698L79.5435 232.217C79.8628 231.422 80.405 230.142 80.7519 229.373L81.3735 228.011L82.6586 228.537C85.3767 229.688 86.1551 229.716 86.4753 228.689C86.7345 227.857 86.2575 227.494 84.0421 226.911L82.1416 226.408L82.4986 225.607C82.6899 225.165 83.0234 224.267 83.2318 223.599C83.6029 222.409 83.6029 222.409 83.98 222.634C84.8495 223.173 88.6661 224.703 89.0492 224.679C89.8316 224.637 90.2762 223.612 89.7673 223.006C89.4961 222.671 89.0171 222.486 86.5398 221.768C84.9317 221.302 83.5396 220.833 83.4346 220.71C83.1471 220.37 82.5198 220.89 82.0844 221.828C81.8718 222.28 80.8512 224.234 79.8195 226.167C78.1568 229.262 75.9164 233.752 75.8942 233.995C75.8952 234.049 75.8832 234.26 75.8548 234.466Z" fill="black"/>
<path d="M84.9655 235.962C84.7597 237.657 85.4386 238.871 86.816 239.282C88.0955 239.662 90.7636 239.094 92.5708 238.068C93.564 237.527 93.8767 236.811 93.4714 236.041C93.0551 235.25 92.3805 235.172 91.0066 235.727C89.5133 236.321 88.0189 236.63 87.7189 236.385C87.5334 236.233 87.6299 235.866 88.421 233.616C89.4648 230.612 90.4044 228.806 91.5416 227.515C93.0309 225.842 94.3138 225.693 95.6459 227.054C96.0935 227.515 96.1752 227.54 96.4791 227.37C96.9296 227.133 96.9401 227.041 96.7087 226.231C96.2676 224.6 94.4857 223.647 92.7308 224.102C90.3728 224.71 88.3857 227.06 86.3636 231.707C85.366 233.988 85.1025 234.775 84.9655 235.962Z" fill="black"/>
<path d="M93.99 240.659C94.1008 241.474 94.829 242.006 95.6932 241.869C96.4051 241.751 96.7197 241.034 97.8814 236.898C99.2964 231.891 100.354 227.62 100.376 226.846C100.398 225.546 99.5329 225.395 98.9212 226.596C98.1728 228.06 93.9421 240.168 93.99 240.659Z" fill="black"/>
<path d="M98.7144 238.841C98.7541 240.32 99.336 241.897 100.205 242.955C101.117 244.044 101.72 244.465 102.959 244.851C105.47 245.634 107.476 244.076 107.907 240.973C108.081 239.667 108.024 237.843 107.767 235.741C107.397 232.853 107.819 231.213 109.102 230.54C109.936 230.102 110.408 230.196 111.294 231.026C111.899 231.609 111.932 231.619 112.235 231.392C112.512 231.192 112.548 231.078 112.48 230.663C111.991 227.988 108.735 227.527 106.63 229.805C106.138 230.349 105.898 230.775 105.603 231.721C105.166 233.123 105.102 234.016 105.29 236.454C105.483 239.108 105.436 239.773 104.981 241.062C104.571 242.205 104.566 242.221 104.078 242.123C102.538 241.839 101.677 240.641 101.558 238.672C101.467 237.355 101.277 236.992 100.543 236.763C99.9069 236.565 99.4505 236.709 99.077 237.218C98.6505 237.783 98.681 237.685 98.7144 238.841Z" fill="black"/>
<path d="M110.016 244.001C109.698 245.256 109.693 245.505 109.985 246.033C110.379 246.761 110.74 246.894 111.482 246.563C111.949 246.354 112.081 246.166 112.335 245.349C112.844 243.716 115.34 232.721 115.448 231.671C115.537 230.803 115.495 230.644 115.128 230.53C114.363 230.291 113.974 231.128 112.069 237.181C111.122 240.158 110.203 243.226 110.016 244.001Z" fill="black"/>
<path d="M114.167 244.583C113.952 248.307 116.197 249.98 119.094 248.304C120.705 247.372 122.343 244.98 123.229 242.251C123.964 239.953 124.022 238.793 123.508 235.747C123.074 233.188 122.692 232.351 121.846 232.088C121.277 231.91 120.187 232.373 120.031 232.871C119.973 233.058 119.602 233.505 119.184 233.87C117.173 235.685 114.305 241.792 114.167 244.583ZM119.44 236.716C120.552 234.638 120.568 234.643 120.886 236.313C121.031 237.109 121.141 238.185 121.147 238.682C121.149 239.878 120.261 242.726 119.519 243.963C118.924 244.956 117.908 246.039 117.383 246.234C116.933 246.418 116.686 245.949 116.715 244.882C116.728 243.81 118.529 238.378 119.44 236.716Z" fill="black"/>
<path d="M124.727 242.566C123.152 248.766 122.884 250.406 123.837 250.22C124.047 250.178 124.312 249.957 124.454 249.732C124.741 249.214 126.652 244.025 127.383 241.909L127.898 240.37L128.471 242.606C128.945 244.472 129.44 246.558 131.001 253.199C131.188 253.919 131.487 254.28 132.074 254.463C133.281 254.839 133.634 254.395 134.579 251.362C134.991 250.041 135.514 248.076 135.753 247.023C135.975 245.965 136.606 243.425 137.155 241.378C138.196 237.409 138.22 236.987 137.498 236.547C136.897 236.181 136.288 236.241 135.821 236.704C135.451 237.09 135.291 237.487 134.753 239.556C134.396 240.875 133.911 242.889 133.658 244.044C133.405 245.2 133.043 246.536 132.857 247.015L132.529 247.896L131.84 244.998C130.935 241.246 129.853 237.599 129.275 236.47C128.313 234.507 126.741 235.072 126.013 237.636C125.876 238.076 125.304 240.313 124.727 242.566Z" fill="black"/>
<path d="M136.23 251.871C136.614 253.128 136.827 253.516 137.525 254.254C138.346 255.125 139.311 255.55 140.438 255.544C142.863 255.495 144.815 254.037 145.385 251.822C145.639 250.86 145.18 249.315 143.845 246.626C142.472 243.801 141.894 242.275 141.964 241.488C142.016 240.718 142.374 240.66 143.547 241.217C144.582 241.725 145.008 241.666 144.995 241.034C144.975 240.026 143.313 238.933 141.861 238.945C140.87 238.965 140.316 239.403 139.927 240.436C139.41 241.899 139.895 243.905 141.828 248.256C142.186 249.085 142.533 250.172 142.594 250.666C142.678 251.45 142.647 251.587 142.228 251.989C141.742 252.46 140.995 252.697 140.174 252.611C139.524 252.556 138.885 251.407 138.862 250.28C138.843 249.324 138.541 248.732 137.937 248.454C136.437 247.784 135.534 249.596 136.23 251.871Z" fill="black"/>
<path d="M135.332 232.203C135.754 233.372 136.607 233.048 138.286 231.102C139.749 229.394 140.021 228.924 139.774 228.453C139.499 227.902 138.996 228.139 137.135 229.688C135.169 231.347 135.064 231.511 135.332 232.203Z" fill="black"/>
<path d="M61.2575 196.019C61.3795 196.296 61.1842 196.788 60.0172 199.26C58.4017 202.637 58.1078 203.57 58.4002 204.312C58.6838 205.031 59.3485 205.301 61.1082 205.451C61.8771 205.524 62.8553 205.385 64.4911 205.649C66.1426 205.919 67.6688 206.135 67.8819 206.116C68.7726 206.038 69.3109 205.098 68.9654 204.222C68.7616 203.705 68.6499 203.619 67.8953 203.385C67.4206 203.234 65.5607 202.929 63.7274 202.692L61.4403 202.672L62.5562 200.103C63.1686 198.693 63.7212 197.592 63.7634 197.666C63.9126 197.88 67.3783 199.045 68.3283 199.216C69.1932 199.368 70.0041 199.087 70.2423 198.539C70.46 198.037 69.9892 197.107 69.4627 196.99C67.1465 196.449 64.8994 196.037 64.6331 195.921C64.3355 195.792 64.3654 195.637 65.1886 193.314C65.6594 191.973 66.073 190.849 66.0955 190.84C66.0955 190.84 66.6822 190.959 68.5987 191.606C70.8197 192.365 72.2417 192.778 72.5223 192.733C73.191 192.651 73.5182 191.769 73.1448 191.085C72.905 190.608 72.7462 190.502 71.6559 190.14C70.9932 189.908 70.3118 189.878 68.9116 189.587C67.5114 189.295 66.2617 188.957 66.1411 188.849C66.0049 188.734 65.8189 188.69 65.7155 188.757C65.6276 188.831 65.2552 188.874 64.9031 188.87C64.1833 188.855 63.8559 189.309 64.2415 189.793C64.4711 190.079 64.4166 190.204 63.3176 192.52C62.3411 194.553 62.0811 194.98 61.674 195.232C61.0892 195.592 61.0892 195.592 61.2575 196.019Z" fill="black"/>
<path d="M70.6142 203.215C70.502 206.042 71.3733 207.781 73.6444 209.276C76.9337 211.464 81.171 209.923 80.7963 207.338C80.7144 206.74 80.1649 206.264 79.5108 206.239C79.5108 206.239 78.0418 207.91 76.1381 207.245C74.1855 206.564 73.6339 205.981 73.3638 204.322C73.2205 203.347 73.2631 203.039 73.757 201.225C74.7073 197.889 76.0069 195.844 77.6885 195.098C78.3475 194.82 78.5686 194.8 79.3186 195.033C80.3458 195.354 80.7772 195.864 80.9613 196.995C81.1506 198.109 82.0167 198.2 82.3471 197.14C82.7069 195.929 82.019 194.176 80.8529 193.383C79.4024 192.412 77.8078 192.362 76.161 193.226C74.1128 194.287 72.5819 196.386 71.4156 199.726C70.7709 201.564 70.6521 202.117 70.6142 203.215Z" fill="black"/>
<path d="M85.3773 198.838C85.1706 199.574 84.2662 202.363 83.3759 205.045C81.7808 209.835 81.6266 210.463 81.9381 211.071C82.3589 211.922 83.7326 211.794 84.1743 210.888C84.8104 209.545 87.0246 200.915 87.4038 198.307C87.6759 196.463 87.5539 195.7 86.9736 195.721C86.6452 195.732 86.5093 195.894 86.1728 196.623C85.956 197.106 85.5992 198.111 85.3773 198.838Z" fill="black"/>
<path d="M87.1577 210.96C87.6545 212.691 88.729 213.914 90.4241 214.683C92.2047 215.494 93.6945 215.454 94.737 214.536C96.0613 213.363 96.0878 211.418 94.8064 209.19C94.5761 208.8 93.9438 207.84 93.398 207.047C91.66 204.528 92.1461 201.458 92.6646 200.656C93.0149 200.121 93.8631 199.722 94.6436 199.716C95.495 199.709 95.8242 200.042 96.5188 201.673C97.0687 202.956 97.2835 203.192 97.9363 203.187C98.9154 203.179 99.2643 202.462 98.8575 201.318C98.073 199.128 97.0414 197.933 95.619 197.539C94.2108 197.145 92.512 197.649 91.3295 198.806C90.5833 199.525 90.3455 199.947 90.1831 200.9C89.9248 202.273 89.4671 205.344 91.3199 208.029C92.9575 210.423 93.4765 211.398 93.4825 212.125C93.4851 212.447 93.417 212.783 93.3184 212.882C92.9947 213.207 91.7449 213.091 90.8187 212.637C89.3512 211.936 88.7904 211.045 88.5038 208.99C88.2785 207.481 88.1332 207.076 87.7784 207.079C87.3669 207.083 87.2133 207.378 87.0658 208.428C86.8916 209.675 86.9092 210.081 87.1577 210.96Z" fill="black"/>
<path d="M97.4235 214.813C97.2984 215.444 97.3547 215.953 97.5472 216.371C97.9184 217.134 98.2776 217.246 99.0269 216.854C99.7082 216.508 99.5051 217.16 101.68 208.344C103.477 201.085 103.6 200.23 102.914 200.016C102.473 199.879 102.078 200.515 101.079 203.086C100.1 205.595 97.6754 213.372 97.4235 214.813Z" fill="black"/>
<path d="M101.574 214.302C101.56 217.447 103.969 220.219 106.333 219.811C108.567 219.416 110.624 217.177 112.384 213.254C113.982 209.619 114.042 206.042 112.538 203.981C110.69 201.473 108.417 200.729 106.498 202.009C105.644 202.565 105.363 203.354 105.734 204.114C106.105 204.874 106.724 205.013 107.725 204.556C108.603 204.15 108.847 204.172 109.44 204.679C110.215 205.35 110.646 206.146 110.807 207.18C110.949 208.101 110.898 208.497 110.48 210.066C109.663 213.031 108.358 215.38 106.886 216.602C106.556 216.857 106.096 217.071 105.868 217.054C104.933 217.013 104.154 215.84 104.065 214.345C104.019 213.633 104.139 213.134 104.994 210.735C105.526 209.201 106.172 207.471 106.415 206.866C106.843 205.837 106.859 205.27 106.467 205.148C105.88 204.965 104.398 206.792 103.165 209.199C102.328 210.852 101.559 213.26 101.574 214.302Z" fill="black"/>
<path d="M111.963 220.191C111.8 221.232 111.972 221.768 112.48 221.748C112.938 221.712 113.235 221.16 114.843 217.207C115.72 215.083 116.561 213.073 116.738 212.735L117.056 212.118L117.841 214.42C120.173 221.23 120.715 222.472 121.433 222.696C122.069 222.894 122.541 222.755 123.056 222.254C123.464 221.862 123.689 221.199 125.427 215.623C126.774 211.302 127.359 209.194 127.36 208.676C127.395 207.416 126.593 206.773 125.543 207.215C124.901 207.498 125.008 207.209 123.419 212.939C122.788 215.193 122.172 217.112 122.029 217.283C121.792 217.584 121.72 217.472 121.153 215.847C120.794 214.876 120.301 213.416 120.036 212.6C119.363 210.512 118.959 205.235 118.596 204.907C118.167 204.505 117.449 204.513 116.986 204.906C116.63 205.188 115.546 208.41 113.943 213.438C112.941 216.596 112.049 219.628 111.963 220.191Z" fill="black"/>
<path d="M125.46 224.219C125.983 225.221 127.194 226.66 127.969 227.215C129.536 228.342 130.799 228.26 131.946 226.932C133.211 225.466 133.743 222.642 133.142 220.753C132.877 219.953 132.371 217.186 132.198 216.949C132.145 216.847 131.952 216.371 131.776 215.86C131.176 214.073 131.686 212.36 133.061 211.559C133.672 211.211 133.982 211.412 134.628 212.686C135.378 214.113 135.533 214.265 136.285 214.257C137.207 214.246 137.712 213.575 137.548 212.637C137.292 211.086 135.732 209.002 134.549 208.622C132.286 207.895 129.223 210.491 128.795 213.519C128.621 214.785 128.82 215.79 129.573 217.439C131.13 220.821 130.811 221.564 130.826 222.931C130.843 224.485 130.41 225.531 129.745 225.624C129.302 225.68 128.131 224.805 126.921 223.486C126.16 222.674 125.645 222.407 125.323 222.667C125.036 222.926 125.076 223.489 125.46 224.219Z" fill="black"/>
<path d="M49.251 182.947C50.8578 182.212 54.7314 184.758 57.2947 188.276C59.7877 191.69 60.121 195.172 58.1973 197.847C56.14 200.687 52.8363 202.314 49.2091 202.275C47.9419 202.251 46.2189 201.775 45.7632 201.324C45.345 200.885 45.5944 200.283 46.2385 200.196C46.7527 200.129 46.7585 200.11 47.3086 198.016C47.6093 196.853 48.3279 194.153 48.8956 192.002C49.9032 188.176 50.3773 186.985 50.9968 186.581C51.279 186.401 51.2158 186.34 50.6536 186.165C49.6229 185.843 48.9563 185.409 48.667 184.886C48.3073 184.259 48.6046 183.239 49.251 182.947ZM48.7098 200.183C49.197 200.335 51.7665 199.612 52.8732 199.03C54.7235 198.041 55.8546 196.787 56.3404 195.229C56.9315 193.333 56.4592 191.682 54.6972 189.485C53.6991 188.268 52.9354 187.617 53.069 188.112C53.1229 188.335 50.3042 196.19 49.5245 197.965C48.739 199.76 48.5973 200.148 48.7098 200.183Z" fill="black"/>
<g opacity="0.74">
<path d="M214.815 253.586C214.654 253.58 214.492 253.569 214.33 253.556C211.319 253.307 208.494 251.904 206.376 249.605C204.257 247.306 203.089 244.376 203.087 241.355C203.085 238.279 204.285 235.478 206.467 233.467L256.881 187.015C259.668 184.446 263.368 183.21 267.288 183.534C271.157 183.854 274.789 185.659 277.515 188.617C280.24 191.575 281.743 195.342 281.745 199.224C281.748 203.161 280.214 206.744 277.426 209.313L239.436 244.318C238.728 244.97 237.625 244.925 236.971 244.217C236.319 243.508 236.364 242.405 237.072 241.752L275.062 206.746C277.124 204.847 278.259 202.176 278.256 199.226C278.254 196.222 277.079 193.294 274.949 190.981C272.818 188.668 269.995 187.259 267.001 187.011C264.062 186.767 261.307 187.68 259.245 189.58L208.831 236.033C205.784 238.84 205.834 243.868 208.941 247.241C210.465 248.895 212.481 249.903 214.617 250.079C216.7 250.245 218.647 249.607 220.102 248.266L261.091 210.499C262.887 208.844 262.839 205.861 260.984 203.848C260.067 202.853 258.858 202.247 257.58 202.142C256.353 202.042 255.214 202.416 254.365 203.199L245.931 209.879L245.637 206.256L252 200.633C253.576 199.181 255.655 198.478 257.867 198.665C260.02 198.842 262.039 199.844 263.549 201.484C266.708 204.911 266.665 210.106 263.456 213.065L222.467 250.832C220.401 252.736 217.7 253.704 214.815 253.586Z" fill="#6A6E3B"/>
</g>
</svg>
