<svg width="176" height="250" viewBox="0 0 176 250" fill="none" xmlns="http://www.w3.org/2000/svg">
<mask id="mask0_638_24" style="mask-type:luminance" maskUnits="userSpaceOnUse" x="0" y="0" width="176" height="250">
<path d="M0 0H175.079V250H0V0Z" fill="white"/>
</mask>
<g mask="url(#mask0_638_24)">
<path d="M175.119 15.5874V234.55C175.119 240.768 171.415 246.349 165.682 248.768C163.781 249.572 161.758 249.981 159.679 249.981H15.4311C6.92316 249.981 0 243.059 0 234.551V15.5888C0 9.37111 3.70121 3.7896 9.42833 1.37067C11.3341 0.566239 13.3557 0.15625 15.434 0.15625H159.682C168.194 0.15625 175.119 7.07941 175.119 15.5874Z" fill="white"/>
</g>
<path d="M137.001 206.939L125.133 226.167C124.789 226.039 124.456 225.889 124.136 225.716C123.815 225.542 123.509 225.344 123.216 225.122C122.69 224.723 122.228 224.261 121.828 223.741C121.029 222.701 120.48 221.433 120.172 219.994C120.094 219.635 120.034 219.265 119.987 218.886C119.566 215.467 120.357 211.263 122.269 206.939H137.001ZM21.0099 53.9796C21.1456 57.1648 22.2328 59.7901 24.3351 61.3834C24.9218 61.8273 25.5636 62.1737 26.2535 62.4282L38.1206 43.1997H23.3893C21.6899 47.0437 20.8742 50.793 21.0099 53.9796Z" fill="#E1EA81"/>
<path d="M151.731 206.939C150.596 209.51 149.064 212.124 147.156 214.639C140.338 223.63 131.032 228.334 125.133 226.166L137 206.938H151.731V206.939ZM26.2534 62.4268C32.153 64.5955 41.4584 59.8905 48.2769 50.9004C50.1826 48.3839 51.7152 45.7699 52.8504 43.1997H38.1205L26.2534 62.4268Z" fill="#F87559"/>
<path d="M151.731 206.94H137.001L148.867 187.711C149.557 187.966 150.199 188.312 150.785 188.756C154.99 191.943 155.13 199.251 151.731 206.94ZM53.8441 27.2205C53.338 26.3581 52.6934 25.6159 51.9045 25.0179C51.3192 24.574 50.6759 24.2276 49.9874 23.9731L38.1204 43.2002H52.8517C53.6999 41.2789 54.3291 39.3802 54.7277 37.5636C54.9271 36.6559 55.0699 35.7681 55.1533 34.9085C55.2791 33.6192 55.2735 32.3921 55.1335 31.2526C54.9455 29.7342 54.5199 28.3699 53.8441 27.2205Z" fill="#89D88A"/>
<path d="M159.679 10.0977H15.4312C14.6734 10.0977 13.951 10.2518 13.295 10.5289C11.3214 11.3616 9.93872 13.3139 9.93872 15.5901V141.141C9.93872 141.139 9.94013 141.136 9.94155 141.133C15.434 123.677 24.9669 105.195 38.2421 87.6817C75.2118 38.9185 127.261 16.1344 154.498 36.778C159.016 40.2036 162.568 44.6103 165.178 49.7973V15.5901C165.178 12.5562 162.713 10.0977 159.679 10.0977ZM55.275 44.271C54.0238 47.1069 52.3797 49.8751 50.3891 52.5032C44.3538 60.4599 36.1059 65.6017 29.3793 65.6017C27.9372 65.6017 26.5786 65.3698 25.3388 64.916C24.3972 64.5696 23.5207 64.0918 22.7346 63.4952C17.631 59.6272 16.9368 51.2408 20.9646 42.1291C22.2214 39.2875 23.867 36.5179 25.8534 33.8996C31.8873 25.943 40.1337 20.8012 46.8618 20.7998H46.8632C48.3038 20.7998 49.6624 21.0316 50.9023 21.4869C51.8438 21.8318 52.719 22.3097 53.5064 22.9063C58.6087 26.7729 59.3028 35.1593 55.275 44.271ZM20.6182 213.365C16.1013 209.94 12.5513 205.537 9.94155 200.351C9.94013 200.35 9.93872 200.348 9.93872 200.345V234.553C9.93872 237.586 12.3958 240.045 15.4312 240.045H159.679C160.437 240.045 161.161 239.891 161.818 239.614C163.792 238.78 165.178 236.827 165.178 234.553V109.001C159.685 126.46 150.152 144.944 136.874 162.462C99.9044 211.224 47.8556 234.01 20.6182 213.365ZM145.743 184.54C147.183 184.54 148.542 184.77 149.782 185.225C150.723 185.572 151.598 186.049 152.386 186.645C157.49 190.511 158.184 198.899 154.156 208.011C152.903 210.847 151.259 213.616 149.269 216.242C143.235 224.2 134.987 229.341 128.259 229.341C126.818 229.341 125.459 229.11 124.22 228.654C123.278 228.309 122.403 227.832 121.615 227.235C116.513 223.367 115.818 214.98 119.847 205.869C121.104 203.026 122.748 200.256 124.734 197.639C130.768 189.683 139.015 184.54 145.743 184.54ZM126.845 199.24C133.662 190.25 142.969 185.545 148.867 187.713L137.001 206.94H122.269C123.405 204.369 124.936 201.756 126.845 199.24ZM49.9862 23.9737L38.1205 43.2007H23.3892C23.9575 41.9156 24.6234 40.6206 25.3868 39.3313C26.1503 38.0419 27.0098 36.7583 27.9641 35.5014C34.7812 26.5099 44.088 21.805 49.9862 23.9737Z" fill="black"/>
<path d="M79.5888 70.1952C79.8666 70.3514 81.6587 70.6158 82.4923 70.6158C82.7423 70.6158 82.7562 70.8201 82.659 76.108C82.5478 82.0569 82.5756 82.4175 83.2425 82.8621C83.7009 83.1866 84.0204 83.1746 84.465 82.8381C84.8818 82.5256 84.8679 82.6578 84.6873 79.449C84.3816 74.3775 84.2427 72.6228 84.0482 71.7215C83.9371 71.2047 83.8398 70.7721 83.8398 70.76C83.8398 70.736 84.9234 70.724 86.2293 70.748C88.8272 70.7961 88.2099 70.7597 88.4599 70.1948C88.6544 69.7502 88.3488 69.2935 87.7514 69.1252C87.3902 69.0291 87.2574 69.0174 84.6178 69.1256C80.6446 69.2939 80.0333 69.3539 79.561 69.6063C79.172 69.8226 79.172 69.9669 79.5888 70.1952Z" fill="black"/>
<path d="M88.9813 81.7032C89.1341 82.5094 90.3153 82.7983 90.8572 82.1605C91.1213 81.8596 91.1213 81.7754 90.8989 78.9233C90.7878 77.3228 90.7044 75.975 90.7461 75.951C90.7739 75.9269 91.3158 75.963 91.955 76.0352C92.5942 76.0954 93.4419 76.1555 93.8449 76.1555H94.5814V77.2025C94.5814 77.7922 94.4563 79.1159 94.3035 80.1508C94.0533 81.8355 94.0394 82.0883 94.2201 82.4613C94.4563 82.9667 94.8732 83.1713 95.4152 83.075C96.1378 82.9427 96.2628 82.69 96.5546 80.6442C96.8742 78.454 96.9298 75.7945 96.7075 72.0279C96.5824 69.6693 96.5546 69.5128 96.2489 69.236C96.0266 69.0315 95.7765 68.9352 95.4568 68.9352C94.7759 68.9352 94.8593 69.1037 94.6092 69.6813C94.3035 70.4274 94.6231 73.0027 94.6092 73.9172L94.5814 74.6994L94.095 74.7837C93.831 74.8318 92.0106 74.6994 91.4826 74.6994L90.5515 74.7115V74.2542C90.5376 73.5081 90.2283 70.0303 90.0477 69.6813C89.9504 69.5008 89.7698 69.3564 89.6447 69.3564C89.0333 69.3564 88.9535 70.7523 88.9396 76.2037C88.9257 79.0557 88.9396 81.5347 88.9813 81.7032Z" fill="black"/>
<path d="M97.6805 70.9083C97.9172 71.0285 97.9312 71.2328 97.8894 73.4798C97.8755 74.8257 97.7919 77.1689 97.6944 78.695C97.5273 81.627 97.583 82.0956 98.1261 82.336C98.2514 82.396 99.5883 82.4081 101.092 82.36C103.738 82.2879 103.836 82.2759 104.184 81.9995C104.574 81.6751 104.657 81.1103 104.365 80.7738C104.017 80.3773 103.599 80.3052 101.705 80.3052H99.8111V78.707C99.8111 77.8418 99.7693 76.8444 99.7276 76.496L99.6301 75.8711L101.023 75.9432C102.318 76.0033 102.443 75.9913 102.722 75.7509C102.875 75.6188 103.014 75.3905 103.014 75.2583C103.014 75.1261 102.875 74.8978 102.722 74.7656C102.443 74.5253 102.318 74.5133 101.05 74.5733L99.6858 74.6454L99.6022 73.8403C99.5604 73.3957 99.463 72.6267 99.3933 72.134C99.3237 71.6413 99.2819 71.2207 99.2959 71.2087C99.3237 71.1967 100.41 71.2448 101.733 71.3169C103.056 71.377 104.365 71.401 104.629 71.3649C105.548 71.2087 105.785 70.3315 105.019 69.8989C104.699 69.7067 104.407 69.7067 101.621 69.8268C98.3211 69.9831 97.5412 70.1152 97.4716 70.5358C97.4438 70.692 97.5273 70.8362 97.6805 70.9083Z" fill="black"/>
<path d="M113.205 69.3742C113.454 69.4416 114.19 69.5765 114.842 69.6574C115.494 69.7383 116.062 69.8463 116.118 69.9002C116.382 70.17 116.812 74.6347 116.881 77.818C116.95 81.325 117.034 81.905 117.519 82.3366C118.129 82.9031 119.198 82.4715 119.364 81.5813C119.531 80.7045 119.017 73.07 118.657 71.0332L118.573 70.6016H119.447C120.613 70.5881 121.376 70.4128 121.667 70.0486C122.194 69.4281 121.82 68.6458 120.876 68.4434C120.571 68.376 118.851 68.3086 117.061 68.2951C113.427 68.2546 112.761 68.3625 112.761 68.9155C112.761 69.1583 112.872 69.2662 113.205 69.3742Z" fill="black"/>
<path d="M122.491 75.5613C122.519 75.6018 122.588 76.8157 122.644 78.259C122.768 81.4423 122.852 81.9953 123.351 82.4C123.809 82.7912 124.142 82.7912 124.6 82.4C125.044 82.0358 125.044 81.9684 124.752 79.446C124.627 78.3534 124.53 77.1934 124.53 76.8697V76.2897L125.487 76.4246L126.459 76.5595L126.542 77.4362C126.805 80.1069 127.041 81.1456 127.443 81.3614C128.137 81.7256 128.64 81.5232 128.82 80.8083C128.876 80.633 128.779 79.6348 128.626 78.5962C128.307 76.5595 128.237 72.6478 128.473 70.5301C128.598 69.3296 128.432 68.7091 127.946 68.4529C127.474 68.2101 127.235 68.1156 126.916 68.4529C126.639 68.7496 126.597 68.9789 126.472 71.5957C126.403 73.1469 126.334 74.5227 126.334 74.6441C126.334 74.8464 126.195 74.8869 125.39 74.8869H124.433L124.336 73.2008C124.294 72.2701 124.294 69.5589 124.211 69.1947C124.045 68.4259 123.684 68.1156 123.351 68.4529C123.06 68.7361 122.865 70.8268 122.727 72.958C122.657 73.9831 122.56 74.9678 122.519 75.1566C122.463 75.3455 122.463 75.5208 122.491 75.5613Z" fill="black"/>
<path d="M129.554 77.8439L129.623 81.3374L130.012 81.6611C130.22 81.8365 130.511 81.9849 130.65 81.9849C131.038 81.9849 131.607 81.4858 131.704 81.0542C131.954 79.9346 131.101 70.5399 130.629 69.5417C130.414 69.0865 130.265 69.0865 129.797 69.0865C129.158 68.992 129.374 69.4945 129.554 77.8439Z" fill="black"/>
<path d="M132.449 71.854C132.963 76.3457 132.956 79.7718 133.358 81.1611C133.483 81.5927 133.705 82.0513 133.857 82.1862C134.121 82.4155 134.697 82.4964 134.947 82.1862C135.28 81.7815 135.28 81.4308 134.933 77.4517C134.78 75.7117 134.655 73.9852 134.655 73.621V72.96L135.848 74.4303C137.152 76.0354 138.234 77.5461 139.358 79.3671C139.76 80.0145 140.246 80.6755 140.44 80.8239C140.953 81.215 141.661 81.1746 142.105 80.7429L142.466 80.3922L142.382 77.681C142.327 75.7387 142.202 74.3629 141.966 72.8656C141.772 71.7191 141.564 70.4242 141.522 69.9926C141.342 68.5763 140.385 67.9693 139.58 68.7516C139.136 69.1698 139.136 69.5474 139.58 72.0563C139.774 73.1354 139.968 74.5517 140.024 75.2261L140.107 76.4401L138.442 74.2819C136.722 72.0698 135.016 69.9926 134.35 69.3316C133.892 68.8595 133.282 68.8326 132.782 69.2507C132.352 69.6284 132.269 70.3028 132.449 71.854Z" fill="black"/>
<path d="M143.937 79.2312C145.606 82.2451 148.524 82.8368 149.872 80.4552C150.421 79.4857 150.614 78.3549 150.617 76.081C150.62 75.9531 150.743 75.9301 151.08 75.9843C151.631 76.0729 152 75.8632 152.151 75.3801C152.276 74.9049 151.931 74.4581 151.349 74.3645C150.475 74.2177 148.021 74.2631 147.569 74.4412C146.95 74.6838 146.989 75.0815 147.676 75.3693C148.158 75.5631 148.166 75.5889 148.302 76.3811C148.551 77.8029 148.162 79.4585 147.552 79.6416C146.889 79.8407 145.813 78.5547 145.293 76.918C144.711 75.088 144.841 72.5492 145.814 71.4523C146.818 70.3176 147.879 70.1826 149.44 70.9841C150.533 71.5452 150.599 71.5679 150.773 71.2474C151.084 70.6738 149.919 69.4286 148.777 69.0798C147.818 68.8032 147.239 68.8078 146.205 69.1184C145.489 69.3334 145.196 69.5063 144.635 70.0276C143.3 71.2617 142.738 74.0856 142.981 76.3137C143.124 77.5412 143.308 78.1212 143.937 79.2312Z" fill="black"/>
<path d="M49.3579 103.809C49.5105 104.187 50.0793 103.998 50.44 103.445C50.8978 102.744 51.633 100.977 52.1186 99.4659C52.3266 98.7915 52.507 98.2385 52.507 98.225C52.5347 98.1845 55.1151 98.5622 55.1567 98.6162C55.2677 98.7241 55.7809 100.559 56.0584 101.759C56.3913 103.256 56.6827 103.715 57.3347 103.715C58.3196 103.715 58.6387 103.108 58.3474 101.799C58.2503 101.314 57.8757 99.992 57.515 98.8455C57.1543 97.699 56.7104 96.2557 56.5301 95.6217C55.7948 93.1533 55.0318 90.9952 54.7544 90.5905C54.3104 89.943 53.8249 89.7677 53.2284 90.0105C52.9648 90.1184 52.6873 90.3207 52.6041 90.4556C52.4515 90.7389 51.6469 93.8008 51.2584 95.5947C51.0504 96.5794 50.9671 96.7413 50.6203 96.9166C50.1902 97.1324 50.0931 97.6045 50.4538 97.7394C50.7452 97.8473 50.6897 98.1845 49.885 101.017C49.2746 103.229 49.2192 103.486 49.3579 103.809ZM53.2977 95.4464C53.4503 94.8394 53.6307 94.2594 53.6862 94.165C53.7417 94.057 53.9497 94.5426 54.1717 95.3519C54.3937 96.0938 54.5463 96.7278 54.5185 96.7413C54.4214 96.8087 53.0064 96.6738 53.0064 96.6064C53.0064 96.5794 53.1313 96.0534 53.2977 95.4464Z" fill="black"/>
<path d="M59.0537 96.643C59.1091 97.5737 59.2617 99.1653 59.3866 100.19C59.5392 101.485 59.5669 102.133 59.4698 102.308C59.2063 102.78 59.3034 103.347 59.6918 103.644C60.2051 104.035 60.7461 103.994 62.064 103.482C65.2547 102.214 67.2385 100.244 67.0721 98.5044C66.9888 97.7221 66.4339 96.8723 65.7125 96.4002C65.449 96.2249 65.2131 96.036 65.1854 95.9686C65.1576 95.9011 65.3241 95.6179 65.5599 95.3346C66.7946 93.8239 66.8778 91.9355 65.7542 90.9508C65.1993 90.4653 64.1727 90.128 63.4652 90.209C62.6189 90.3169 61.19 90.9643 60.6629 91.5039L60.2467 91.922L60.0802 91.5174C59.8583 91.0318 59.4143 90.9778 59.1785 91.4094C58.9704 91.8006 58.9011 94.4174 59.0537 96.643ZM61.8421 98.0053C62.0918 97.9244 62.6467 97.857 63.0906 97.857C63.7426 97.857 63.9646 97.9244 64.3114 98.2077C64.5472 98.3965 64.7415 98.6798 64.7415 98.8281C64.7415 99.1923 63.4374 100.406 62.5634 100.865L61.8421 101.243L61.7588 100.932C61.7172 100.757 61.634 100.137 61.5646 99.543C61.5091 98.9495 61.4398 98.3965 61.4259 98.3021C61.4259 98.2212 61.6062 98.0863 61.8421 98.0053ZM61.6756 93.8644C62.0085 93.1495 62.5912 92.6234 63.2432 92.4481C64.2559 92.1918 64.6027 92.7448 64.0339 93.6755C63.4652 94.5927 62.5773 95.3616 61.8282 95.5639L61.412 95.6853V95.0513C61.412 94.7006 61.5369 94.1746 61.6756 93.8644Z" fill="black"/>
<path d="M67.7749 100.001C68.0801 101.296 68.3853 101.984 68.8986 102.497C70.1194 103.711 71.9644 103.023 73.0326 100.959C73.9343 99.2055 74.1979 96.3324 73.6014 94.6868C73.2268 93.6617 72.3251 92.2319 71.5344 91.4226C70.8962 90.7887 70.7436 90.7077 70.2442 90.7077C69.4951 90.7077 69.0234 91.2068 69.1483 91.8947C69.2038 92.2454 69.1205 92.5287 68.8153 93.0412C67.8026 94.7947 67.3171 98.059 67.7749 100.001ZM69.8558 94.6329C70.1887 93.311 70.2303 93.284 70.7436 94.0529C71.4789 95.1724 71.6315 95.7929 71.5482 97.425C71.5205 98.2208 71.4095 99.0841 71.3263 99.3539C71.1459 99.9204 70.6326 100.716 70.3968 100.784C70.2165 100.838 69.8419 100.001 69.6477 99.0706C69.4812 98.2613 69.5922 95.6985 69.8558 94.6329Z" fill="black"/>
<path d="M74.5543 98.6116C74.8873 100.325 75.5532 101.174 76.5659 101.174C77.3289 101.174 78.0225 100.338 78.5497 98.8139L78.73 98.2744L78.8271 98.8139C78.8826 99.1107 78.9381 99.7716 78.952 100.298C78.9797 101.714 79.1462 102.483 79.5069 102.86C79.9508 103.319 80.6028 103.306 81.0468 102.847C81.4352 102.442 81.4491 102.132 81.1022 98.2744C80.9774 96.939 80.8387 94.8213 80.7832 93.5669C80.6722 91.3008 80.6722 91.2873 80.2976 90.9771C79.7566 90.532 79.1601 90.5589 78.6884 91.0445C78.3832 91.3548 78.2167 91.8538 77.7312 93.9041C77.4121 95.2664 77.0098 96.8041 76.8572 97.3167C76.4133 98.733 76.2745 98.2339 76.2052 94.9292C76.1497 92.6092 76.1081 92.0696 75.9139 91.8538C75.567 91.4357 75.2341 91.665 74.9983 92.4608C74.5127 94.1199 74.2908 97.2358 74.5543 98.6116Z" fill="black"/>
<path d="M82.3844 91.4645C82.6757 91.5724 83.3277 91.7343 83.8272 91.8287L84.7566 91.9906L84.8537 96.4553C84.9647 101.513 85.0618 102.646 85.4364 103.051C85.811 103.456 86.2965 103.604 86.7404 103.429C87.4341 103.146 87.4479 102.957 87.2953 99.4362C87.2121 97.6692 87.115 95.4166 87.0595 94.459L86.9901 92.7055L88.0028 92.7459C88.8768 92.7864 89.071 92.7594 89.404 92.5031C89.7231 92.2603 89.7924 92.112 89.7508 91.7208C89.6676 90.7496 88.8352 90.5338 84.715 90.4664C82.2457 90.4124 81.8711 90.4798 81.8711 90.9519C81.8711 91.1812 81.996 91.3026 82.3844 91.4645Z" fill="black"/>
<path d="M98.0088 93.2186C98.1614 93.2996 98.9799 93.4075 99.8262 93.4479L101.366 93.5289L101.269 95.7005C101.13 98.6545 101.116 103.214 101.255 104.252C101.408 105.574 102.129 106.208 102.989 105.763C103.364 105.561 103.516 104.981 103.391 104.144C103.336 103.74 103.239 102.391 103.183 101.15L103.086 98.9108L104.349 98.9243C105.361 98.9512 105.653 98.9108 105.847 98.7219C106.18 98.3982 106.138 97.8047 105.75 97.4945C105.458 97.2652 105.278 97.2517 104.224 97.3326L103.031 97.427L102.948 95.4982C102.906 94.4326 102.892 93.5289 102.934 93.4884C102.975 93.4479 104.487 93.4075 106.291 93.394C109.107 93.3535 109.593 93.3265 109.815 93.1242C110.189 92.8005 110.134 92.1126 109.704 91.7214C109.371 91.4112 109.26 91.3977 107.775 91.4246C106.915 91.4246 105.389 91.5056 104.376 91.6C103.059 91.7079 102.504 91.7214 102.393 91.6135C102.185 91.4112 101.879 91.4246 101.616 91.654C101.491 91.7619 100.672 91.9507 99.7291 92.0721C98.8135 92.1935 97.995 92.3554 97.8979 92.4363C97.6204 92.6521 97.6759 93.0568 98.0088 93.2186Z" fill="black"/>
<path d="M109.164 105.227C109.469 105.523 109.83 105.308 110.094 104.674C110.205 104.39 110.468 103.419 110.69 102.502L111.079 100.843L112.216 100.924C113.118 101.005 113.451 100.978 113.784 100.816C114.02 100.708 114.242 100.654 114.269 100.695C114.297 100.748 114.394 101.517 114.491 102.408C114.672 104.188 114.797 104.539 115.351 104.957C115.823 105.281 116.323 105.159 116.739 104.62C116.988 104.296 117.002 104.175 116.85 102.866C116.503 99.7773 115.712 97.1336 114.269 94.301C113.132 92.0484 112.951 91.8191 112.327 91.8191C111.634 91.8191 111.37 91.9944 111.106 92.6284C110.565 93.9503 109.664 98.3205 109.22 101.841C108.887 104.458 108.873 104.957 109.164 105.227ZM111.869 97.3224C112.105 96.3782 112.341 95.5959 112.41 95.5959C112.605 95.5959 114.061 99.1838 113.909 99.3052C113.881 99.3187 113.326 99.3727 112.646 99.4131C111.606 99.4671 111.439 99.4536 111.439 99.2647C111.439 99.1433 111.634 98.2666 111.869 97.3224Z" fill="black"/>
<path d="M117.537 103.987C117.69 104.486 118.259 104.971 118.703 104.971C119.147 104.971 119.632 104.553 119.632 104.162C119.66 102.961 118.73 93.1418 118.564 92.7506C118.314 92.1706 117.87 92.1301 117.621 92.6562C117.413 93.1283 117.329 103.339 117.537 103.987Z" fill="black"/>
<path d="M120.211 101.945C120.322 103.051 120.475 104.157 120.558 104.4C120.877 105.33 121.834 105.654 122.722 105.115C123.027 104.939 123.596 104.804 124.401 104.723C125.219 104.643 125.719 104.521 125.968 104.346C126.745 103.779 126.62 102.835 125.732 102.471C125.289 102.296 125.039 102.282 124.165 102.417C123.596 102.498 122.986 102.592 122.819 102.646C122.569 102.714 122.5 102.66 122.445 102.417C122.278 101.729 121.82 97.8039 121.668 95.8885C121.474 93.3122 121.307 92.314 121.057 92.0712C120.794 91.8015 120.447 91.9498 120.253 92.4085C120.003 92.9885 119.975 99.4899 120.211 101.945Z" fill="black"/>
<path d="M126.964 100.817C127.103 102.031 127.436 103.042 127.894 103.568C128.921 104.755 130.169 104.513 131.223 102.921C131.751 102.112 132.874 99.7241 133.263 98.5911C133.401 98.2134 133.554 97.8897 133.61 97.8897C133.734 97.8897 133.901 100.844 133.901 102.934C133.901 105.039 134.151 105.578 135.108 105.578C135.593 105.578 135.774 105.457 136.009 105.025C136.162 104.742 136.162 104.027 136.023 101.006C135.788 95.8529 135.441 93.1552 134.914 92.5887C134.511 92.1705 134.081 92.0626 133.568 92.2784C133.041 92.4943 132.833 92.9259 132.375 94.6389C131.667 97.3501 129.614 102.139 129.309 101.842C129.004 101.545 128.893 100.52 128.768 96.878C128.643 93.1822 128.574 92.3998 128.324 91.9142C128.185 91.6445 127.755 91.604 127.547 91.8603C127.284 92.1705 127.075 94.3557 126.909 98.5641C126.881 99.2655 126.909 100.277 126.964 100.817Z" fill="black"/>
<path d="M136.733 101.715C136.872 101.85 136.983 102.484 137.08 103.725C137.247 105.87 137.399 106.207 138.301 106.274C138.773 106.315 138.911 106.261 139.161 105.951C139.425 105.627 139.452 105.411 139.452 103.927V102.255L140.174 102.538C140.923 102.808 141.769 103.212 143.933 104.332C144.599 104.669 145.279 104.953 145.431 104.953C145.806 104.953 146.527 104.238 146.527 103.887C146.527 103.361 145.764 102.808 143.448 101.675L141.145 100.555L141.63 100.232C142.754 99.4897 144.1 97.6552 144.516 96.2929C144.932 94.9171 144.668 93.5412 143.808 92.5701C142.393 90.9514 140.299 91.0593 138.967 92.8263L138.37 93.6087L138.287 92.7724C138.148 91.491 137.968 91.0593 137.579 91.0593C136.969 91.0593 136.9 91.5719 136.872 96.0906C136.858 99.0311 136.816 100.285 136.705 100.393C136.47 100.623 136.497 101.486 136.733 101.715ZM139.757 96.2524C139.993 94.8091 140.798 93.4873 141.436 93.4873C141.575 93.4873 141.88 93.6626 142.102 93.8784C142.449 94.2291 142.504 94.3775 142.504 95.0654C142.504 95.6589 142.407 96.0501 142.144 96.5761C141.727 97.3855 140.576 98.5994 139.896 98.9366L139.438 99.1659L139.522 98.1138C139.577 97.5338 139.674 96.6975 139.757 96.2524Z" fill="black"/>
<path d="M146.583 93.5431C146.612 93.7046 146.729 95.9938 146.846 98.6353C147.065 103.918 147.153 104.344 148.014 104.755C148.394 104.931 148.598 104.916 149.694 104.637C150.38 104.476 151.665 104.226 152.541 104.109C153.417 103.977 154.293 103.845 154.483 103.801C154.921 103.683 155.257 103.199 155.257 102.671C155.257 101.556 154.571 101.291 152.541 101.614C151.738 101.746 150.672 101.937 150.161 102.069C149.65 102.187 149.212 102.26 149.182 102.231C149.153 102.201 149.109 101.629 149.095 100.954L149.051 99.7359L150.906 99.413C152.818 99.0902 153.359 98.8407 153.359 98.2977C153.359 97.1531 152.38 97.0944 149.869 98.0923C149.343 98.2977 148.905 98.4298 148.861 98.4005C148.832 98.3564 148.744 97.7841 148.671 97.1091C148.598 96.4341 148.438 95.4068 148.321 94.8052C148.204 94.2182 148.102 93.6605 148.102 93.5578C148.102 93.4404 148.496 93.4111 149.387 93.4404C151.198 93.5138 153.154 93.279 153.505 92.9562C153.87 92.6186 153.884 91.973 153.534 91.6648C153.373 91.518 153.023 91.4153 152.687 91.4153C152.22 91.4153 149.066 92.061 148.014 92.3692C147.795 92.4425 147.678 92.3692 147.547 92.0903C147.343 91.6354 146.861 91.5914 146.642 91.9876C146.496 92.2664 146.481 92.9268 146.583 93.5431Z" fill="black"/>
<path d="M27.0684 126.731C27.2188 127.949 27.5446 129.436 27.7702 129.862C28.0835 130.447 28.7602 130.618 29.2991 130.252C29.65 130.021 29.6625 129.448 29.3242 128.412C29.0234 127.45 28.7477 125.378 28.5722 122.649C28.3968 119.944 28.6011 118.643 28.363 118.29C28.0747 117.851 27.3817 117.994 27.1812 118.64C27.0182 119.188 26.9305 125.476 27.0684 126.731Z" fill="black"/>
<path d="M30.6087 128.764C31.6247 130.326 33.9953 131.37 34.9508 130.689C35.5555 130.255 35.7369 129.762 35.6765 128.705C35.616 127.813 35.3741 127.015 34.6847 125.535C33.2212 122.377 32.9672 120.698 33.7897 119.677C34.1888 119.184 35.0475 119.301 35.9426 119.97C36.8013 120.628 37.914 119.712 37.3939 118.773C37.0916 118.209 35.2411 117.376 34.3339 117.376C33.8502 117.388 32.9672 117.775 32.5318 118.174C32.3383 118.35 32.0601 118.726 31.9029 119.019C31.0079 120.757 31.2498 122.542 32.8342 125.888C33.6808 127.66 34.0195 128.553 34.0195 129.022C34.0195 129.421 33.9711 129.421 33.1245 129.104C32.7011 128.952 32.169 128.611 31.661 128.165C31.1046 127.672 30.7781 127.473 30.5966 127.496C30.1854 127.555 30.1854 128.13 30.6087 128.764Z" fill="black"/>
<path d="M44.31 118.291C44.4447 118.463 44.6693 118.484 46.3535 118.516L48.2398 118.559L48.251 121.569C48.251 124.332 48.4981 128.113 48.7114 128.691C48.9584 129.366 49.7332 129.569 50.216 129.077C50.5304 128.755 50.5304 128.723 50.2721 126.11C50.0925 124.225 50.0251 119.448 50.1598 118.762L50.2272 118.43H52.2707C54.4827 118.43 54.7521 118.366 55.0104 117.863C55.1339 117.627 55.1339 117.52 55.0104 117.284C54.7634 116.792 54.5876 116.887 51.8979 116.737C49.9139 116.737 50.0032 116.737 49.2453 116.737C48.6536 116.737 47.9119 116.792 47.3505 116.845C46.7891 116.909 45.9021 117.038 45.3744 117.124C43.8698 117.37 43.9843 117.863 44.31 118.291Z" fill="black"/>
<path d="M53.9632 123.455C54.1094 123.551 54.5929 123.658 55.0426 123.69C55.4811 123.723 55.8634 123.808 55.8859 123.872C55.8972 123.936 55.9759 124.824 56.0433 125.84C56.2457 128.866 56.5606 129.711 57.4601 129.711C58.2134 129.711 58.472 129.166 58.146 128.267C58.056 128.032 57.9098 127.166 57.8086 126.342C57.7074 125.519 57.595 124.631 57.5613 124.375L57.4938 123.904L59.1467 123.958C60.2598 123.99 60.822 124.043 60.8782 124.129C60.9232 124.204 61.0244 124.899 61.1031 125.679C61.3617 128.321 61.7778 129.657 62.4524 129.914C62.9134 130.107 63.4081 129.914 63.588 129.486C63.7005 129.23 63.6892 129.069 63.4419 128.406C63.1383 127.583 63.0034 126.877 62.7897 124.952L62.666 123.765L62.6751 123.599C63.1136 123.172 63.3722 122.605 63.3722 122.049C63.3722 121.899 63.271 121.332 63.1586 120.798C62.7201 118.787 61.933 116.927 61.3258 116.435C60.8648 116.071 60.6871 115.82 60.3273 116.184C59.9 116.611 59.9 117.51 60.316 119.894C60.5072 121.006 60.6646 122.012 60.6646 122.151C60.6646 122.407 60.6421 122.407 59.1242 122.471C58.2809 122.503 57.55 122.514 57.4938 122.482C57.4488 122.45 57.4039 122.076 57.4039 121.659C57.4039 120.654 57.2015 118.536 57.0665 118.044C56.9429 117.595 56.6618 117.435 56.4144 117.67C56.167 117.905 56.0658 118.568 55.9871 120.621C55.9421 121.787 55.8634 122.525 55.7847 122.568C55.7173 122.61 55.4362 122.653 55.1551 122.653C54.3118 122.653 53.7046 122.888 53.6933 123.209C53.6933 123.252 53.817 123.37 53.9632 123.455Z" fill="black"/>
<path d="M64.9934 128.428C65.0277 128.674 65.122 128.964 65.1991 129.071C65.3362 129.232 65.6078 129.114 65.7706 128.91C65.9163 128.728 65.9763 128.385 66.1134 126.927C66.319 124.783 66.499 123.208 66.5589 123.133C66.5846 123.101 67.1159 123.004 67.75 122.918C68.3841 122.833 69.0781 122.736 69.3009 122.704C69.7037 122.64 69.7037 122.64 69.8922 123.09C70.372 124.28 70.8262 126.102 71.2117 128.46C71.3231 129.103 71.4003 129.339 71.5716 129.51C71.8201 129.757 71.9315 129.767 72.2314 129.607C72.6256 129.382 72.677 128.985 72.4542 127.71C72.1115 125.695 71.5202 123.497 70.929 122.061C70.2863 120.496 68.2213 116.841 67.7757 116.477C67.4072 116.166 66.9874 116.23 66.7046 116.616C66.2847 117.216 65.762 119.617 65.4193 122.543C65.2393 124.098 64.8821 127.645 64.9934 128.428ZM67.0216 120.217C67.133 119.671 67.2787 119.06 67.3387 118.878L67.4501 118.524L68.2384 119.842C68.6754 120.571 69.0267 121.204 69.0267 121.257C69.0267 121.311 68.8039 121.407 68.5297 121.472C68.2641 121.536 67.7586 121.686 67.4158 121.804C67.0731 121.911 66.7731 122.007 66.7474 122.007C66.6875 122.007 66.7817 121.397 67.0216 120.217Z" fill="black"/>
<path d="M70.5791 116.976C70.669 117.051 71.1976 117.158 71.7486 117.222C72.7383 117.351 74.3057 117.135 74.3731 117.445C74.4069 117.617 74.4406 118.205 74.4406 118.741C74.4406 119.287 74.5193 120.818 74.6093 122.145C74.7105 123.473 74.823 125.7 74.8792 127.091C74.9579 129.393 74.9804 129.65 75.1941 129.918C75.5315 130.357 76.24 130.378 76.5773 129.971C76.8247 129.682 76.8247 129.629 76.7573 127.905C76.7123 126.931 76.5998 125.004 76.5099 123.623C76.4311 122.242 76.3524 120.336 76.3524 119.394V117.681H79.0852C81.4693 117.681 81.8516 117.659 82.1665 117.488C82.5376 117.295 82.6951 116.985 82.6276 116.557C82.5151 115.797 81.0194 115.615 76.4761 115.797C73.3723 115.925 71.1976 115.919 70.9164 116.133C70.7253 116.293 70.3766 116.826 70.5791 116.976Z" fill="black"/>
<path d="M89.5398 130.973C89.9283 131.363 90.3669 131.363 90.818 130.985L91.1689 130.693V124.222C91.1689 118.203 91.1564 117.752 90.9434 117.545C90.6175 117.216 89.7252 117.144 89.5498 117.924C89.1613 119.63 89.2264 126.184 89.2264 129.182C89.2264 130.608 89.239 130.693 89.5398 130.973Z" fill="black"/>
<path d="M91.7144 117.637C91.8147 117.723 92.3661 117.844 92.93 117.905C94.7096 118.112 94.5342 117.942 94.5467 119.38C94.6595 128.336 94.7347 130.87 94.8976 131.126C95.261 131.65 95.9503 131.796 96.414 131.431L96.7022 131.199L96.7398 125.265C96.7649 121.987 96.8025 119.294 96.8276 119.27C96.8526 119.246 97.6797 119.173 98.6573 119.124C100.7 119.014 101.089 118.856 101.151 118.112C101.214 117.369 100.85 117.174 98.9706 116.943C96.7774 116.675 92.4914 116.65 91.965 116.906C91.5389 117.113 91.4262 117.406 91.7144 117.637Z" fill="black"/>
<path d="M101.985 128.75C102.549 129.566 103.702 130.444 105.206 131.163C106.684 131.894 107.461 131.991 108.088 131.553C108.99 130.895 109.053 129.871 108.301 127.946C106.86 124.327 106.572 122.45 107.186 120.756C107.624 119.514 108.715 118.588 109.705 118.588C110.381 118.588 110.745 118.271 110.745 117.686C110.745 117.101 110.168 116.638 109.442 116.638C108.715 116.638 107.512 117.235 106.76 117.966C105.469 119.221 104.917 120.854 105.018 123.035C105.093 124.656 105.394 125.765 106.308 127.934C106.684 128.823 106.985 129.664 106.985 129.81C106.985 130.042 106.935 130.066 106.597 129.993C105.983 129.871 104.241 129.03 103.226 128.348C102.261 127.714 101.809 127.58 101.672 127.921C101.634 128.031 101.596 128.129 101.596 128.141C101.596 128.153 101.772 128.433 101.985 128.75Z" fill="black"/>
<path d="M103.395 118.15C103.608 118.272 103.708 118.235 104.046 117.87C104.272 117.651 104.635 117.066 104.873 116.59C105.237 115.859 105.287 115.652 105.187 115.384C105.099 115.116 104.974 115.031 104.66 115.006C104.435 114.982 104.159 115.031 104.071 115.104C103.896 115.25 103.131 117.468 103.131 117.833C103.131 117.931 103.244 118.077 103.395 118.15Z" fill="black"/>
<path d="M117.662 119.159C117.865 119.226 118.396 119.327 118.864 119.394L119.699 119.506L119.838 120.201C120.407 123.068 120.533 122.082 120.546 125.936C120.559 128.03 120.609 129.856 120.66 129.979C120.774 130.315 121.419 130.539 121.849 130.405C122.519 130.203 122.645 129.721 122.721 127.089C122.797 124.513 122.468 123.046 122.026 120.862C121.887 120.234 121.811 119.686 121.849 119.652C121.887 119.618 122.481 119.596 123.164 119.596C124.328 119.596 124.441 119.574 124.72 119.316C125.112 118.98 125.137 118.453 124.783 118.14C124.555 117.938 124.365 117.916 122.835 117.916C121.748 117.916 120.976 117.972 120.66 118.061C120.382 118.151 119.61 118.252 118.915 118.285C118.232 118.33 117.587 118.42 117.498 118.487C117.207 118.7 117.296 119.036 117.662 119.159Z" fill="black"/>
<path d="M125.91 129.432C126.234 130.186 127.168 130.285 127.516 129.605C127.653 129.358 127.691 128.999 127.653 128.405C127.616 127.935 127.566 126.958 127.541 126.24L127.479 124.929L128.064 125.04C128.388 125.102 129.197 125.164 129.857 125.176C130.952 125.188 131.064 125.213 131.127 125.436C131.164 125.584 131.251 126.5 131.326 127.489C131.525 130.05 131.55 130.273 131.836 130.558C132.359 131.127 133.181 130.966 133.455 130.248C133.579 129.914 133.38 127.428 132.994 124.644C132.683 122.417 131.836 118.186 131.637 117.877C131.276 117.333 130.442 117.333 130.044 117.865L129.782 118.211L130.205 120.722C130.442 122.096 130.591 123.32 130.554 123.432C130.492 123.58 130.243 123.654 129.62 123.704C129.16 123.753 128.487 123.815 128.126 123.84L127.491 123.902L127.417 122.937C127.28 121.254 127.224 119.09 127.025 118.607C126.814 118.137 126.047 118.31 125.811 118.607C125.736 118.706 125.848 120.908 125.811 123.964C125.761 128.096 125.774 129.11 125.91 129.432Z" fill="black"/>
<path d="M134.4 129.598C134.5 129.866 134.588 130.098 134.588 130.098C134.6 130.207 135.415 130.402 135.616 130.341C135.778 130.293 136.593 130.183 137.445 130.098C139.25 129.903 139.601 129.708 139.601 128.916C139.601 128.038 138.937 127.819 136.944 128.063L136.242 128.148L136.167 127.709C136.129 127.478 136.092 126.613 136.092 125.796V124.322L136.982 124.176C137.922 124.017 138.348 123.749 138.348 123.335C138.348 123.067 138.072 122.762 137.746 122.665C137.621 122.616 137.195 122.701 136.806 122.823L136.104 123.067L136.042 122.677C136.004 122.458 135.954 121.727 135.916 121.032L135.866 119.789H137.295C138.949 119.789 139.551 119.619 139.676 119.131C139.776 118.717 139.463 118.254 139.037 118.181C138.861 118.144 138.084 118.217 137.307 118.339C135.565 118.619 135.678 118.619 135.528 118.29C135.377 117.961 134.976 117.937 134.788 118.266C134.726 118.4 134.55 118.668 134.425 118.863C134.224 119.155 134.212 119.253 134.337 119.497C134.5 119.777 134.5 119.874 134.275 127.1C134.212 128.709 134.237 129.208 134.4 129.598Z" fill="black"/>
<path d="M28.6903 154.734C29.4799 156.414 30.863 157.581 32.3402 157.802C33.1259 157.919 33.8906 157.688 34.5345 157.123C35.3981 156.374 35.7834 155.311 35.7892 153.644C35.7991 153.087 35.805 152.606 35.8224 152.576C35.8278 152.549 36.1129 152.548 36.4563 152.569C36.7997 152.59 37.2328 152.562 37.4016 152.517C38.0524 152.342 38.1618 151.404 37.565 151.085C37.2145 150.902 32.0171 151.013 31.7096 151.209C31.4229 151.388 31.4286 151.727 31.7123 151.903C31.8387 151.982 32.3152 152.106 32.7663 152.187C33.5708 152.324 33.5895 152.344 33.7196 152.801C33.953 153.621 33.8749 154.715 33.5329 155.336C33.1942 155.97 33.0147 156.069 32.4077 155.942C31.4988 155.758 30.6483 154.775 30.1471 153.333C29.3588 151.11 29.4695 148.217 30.4097 146.551C30.7638 145.925 30.8764 145.819 31.3103 145.703C31.8526 145.557 32.4068 145.635 33.2131 145.96C34.271 146.395 34.6277 145.87 33.8098 145.093C32.6782 144.035 30.7538 143.884 29.7515 144.785C28.9361 145.521 28.2431 147.007 27.9555 148.687C27.6572 150.42 27.997 153.255 28.6903 154.734Z" fill="black"/>
<path d="M39.3598 152.774C39.5847 156.06 39.6597 156.576 40.0221 156.891C40.4719 157.282 40.9718 157.269 41.3592 156.853C41.6341 156.551 41.6591 156.425 41.6965 154.839C41.734 153.643 41.784 153.152 41.8965 153.152C42.1464 153.152 44.3207 153.895 45.4453 154.36C46.0451 154.612 47.517 155.626 47.9668 155.928C48.904 156.545 49.4288 156.633 49.8287 156.231C49.9911 156.067 50.0786 155.815 50.0786 155.488C50.0786 155.06 50.0036 154.921 49.5538 154.543C48.9915 154.052 46.6449 152.61 45.3453 152.144C44.8955 151.981 44.5081 151.83 44.4831 151.817C44.4581 151.792 44.733 151.515 45.0829 151.188C46.32 150.067 46.7324 148.606 46.2326 147.184C45.8827 146.176 45.4453 145.547 44.833 145.131C43.8708 144.489 42.2464 144.64 41.1967 145.484C40.6344 145.925 40.5969 145.937 40.5969 145.547C40.5969 144.968 40.372 144.59 40.0471 144.59C39.6222 144.59 39.4973 145.043 39.3473 147.234C39.2099 149.286 39.2099 150.659 39.3598 152.774ZM41.8465 147.801C42.1714 147.133 42.5213 146.856 43.1961 146.768C43.6209 146.705 43.7209 146.756 44.0083 147.096C44.6706 147.901 44.6081 148.972 43.8458 149.664C43.421 150.054 42.0589 150.634 41.5716 150.634C41.3217 150.634 41.5341 148.455 41.8465 147.801Z" fill="black"/>
<path d="M50.9018 156.097C50.952 156.341 51.0899 156.668 51.2028 156.818C51.5915 157.307 51.9928 157.294 53.2845 156.777C54.7266 156.192 55.6921 155.92 57.0214 155.716C58.4133 155.512 58.8146 155.226 58.8271 154.465C58.8271 153.852 58.3255 153.417 57.6233 153.417C56.9211 153.417 54.388 154.016 53.5102 154.383C53.0211 154.601 52.8706 154.614 52.7954 154.478C52.6073 154.179 52.6574 150.969 52.833 150.915C52.9208 150.887 53.4349 150.792 53.9742 150.711C55.8552 150.398 56.5699 149.922 56.3944 149.133C56.2314 148.439 55.8301 148.412 54.1873 148.997C53.3597 149.283 52.67 149.5 52.6324 149.459C52.5571 149.378 52.3063 146.712 52.369 146.644C52.3941 146.603 53.0587 146.562 53.8362 146.535C55.968 146.453 56.3066 146.399 56.5699 146.141C56.896 145.814 56.8834 145.189 56.5574 144.835C56.3191 144.577 56.1937 144.549 55.4288 144.631C54.9523 144.672 53.9867 144.835 53.297 144.985C52.4192 145.161 51.9552 145.202 51.7922 145.121C51.4661 144.93 51.253 145.066 51.0022 145.624C50.8391 145.991 50.8266 146.141 50.9395 146.29C51.0774 146.481 51.0649 147.759 50.8768 154.029C50.8391 154.927 50.8517 155.865 50.9018 156.097Z" fill="black"/>
<path d="M58.8882 156.998C58.9683 157.317 59.6986 157.474 59.9387 157.257C60.3924 156.851 60.4188 156.035 61.0726 153.252L61.2194 152.643L61.98 152.657C62.3936 152.657 63.0341 152.715 63.4077 152.759L64.0616 152.86L64.4218 153.803C64.6086 154.324 65.0011 155.736 65.1345 156.113C65.5348 157.316 66.629 157.519 67.1094 156.475C67.3362 155.968 67.3362 155.939 67.0026 154.924C66.202 152.517 62.8873 144.887 62.447 144.568C61.593 143.959 60.8191 144.481 60.4855 145.873C60.272 146.757 59.7649 150.004 59.4047 152.933C59.2979 153.759 59.1245 154.933 59.0177 155.542C58.7508 157.05 58.8215 156.708 58.8882 156.998ZM61.7398 149.671C61.8332 149.193 61.9399 148.714 61.9933 148.627C62.0467 148.511 62.3002 148.932 62.6338 149.656L63.1942 150.86L62.5804 150.961C61.6063 151.106 61.4462 151.077 61.5263 150.787C61.553 150.657 61.6597 150.149 61.7398 149.671Z" fill="black"/>
<path d="M66.3935 146.009C66.557 146.103 67.1702 146.168 67.925 146.219L69.1885 146.32L69.2639 147.874C69.3143 148.725 69.352 150.752 69.3646 152.374C69.3771 155.968 69.4904 156.992 70.547 156.992C70.9746 156.992 71.3771 156.614 71.4903 156.1C71.5407 155.898 71.5281 153.225 71.4903 151.036L71.4275 147.09L73.5407 147.036C75.5658 146.995 75.6539 146.982 75.9683 146.671C76.3834 146.252 76.4086 145.563 76.0312 145.184C75.8677 145.022 75.4903 144.874 75.113 144.833C74.0186 144.684 66.9621 144.833 66.5721 145.009C66.157 145.198 66.0036 145.793 66.3935 146.009Z" fill="black"/>
<path d="M75.2488 155.755C75.2568 156.016 75.3771 156.367 75.5032 156.528C75.8002 156.885 76.1146 156.904 77.5004 156.661C78.0379 156.558 79.2296 156.415 80.1308 156.34C81.0464 156.254 81.878 156.138 82.0041 156.067C82.3865 155.825 82.5466 155.39 82.4422 154.864C82.2646 154.01 81.8683 153.948 79.1163 154.314C78.1941 154.44 77.4204 154.512 77.39 154.465C77.3574 154.432 77.4826 153.744 77.6622 152.958L77.985 151.528L79.5309 151.316C81.1283 151.099 81.3514 150.977 81.4599 150.314C81.5207 149.943 81.1751 149.494 80.781 149.419C80.6456 149.394 80.0566 149.501 79.4735 149.65C78.8903 149.799 78.3999 149.925 78.3876 149.922C78.3506 149.915 79.0087 146.593 79.0543 146.547C79.0956 146.528 80.1091 146.542 81.3239 146.568C83.6486 146.64 84.1101 146.536 84.2143 145.899C84.3011 145.369 84.0106 144.972 83.4687 144.869C82.7667 144.735 79.4931 145.03 78.6108 145.3C77.7161 145.568 77.6043 145.421 77.6043 145.421C77.6043 145.421 77.5032 146.64 76.9935 148.28C76.6575 149.325 76.4969 150.534 76.4202 150.615C76.3311 150.694 76.1486 151.344 76.0212 152.044C75.8938 152.745 75.6629 153.768 75.5101 154.314C75.3595 154.846 75.2509 155.509 75.2488 155.755Z" fill="black"/>
<path d="M83.7076 154.025C84.1629 154.992 84.9919 156.178 85.5873 156.681C87.2803 158.177 89.4752 157.377 89.6387 155.224C89.6971 154.373 89.4285 153.522 88.1326 150.428C87.3153 148.468 87.1518 147.978 87.1168 147.295C87.0584 146.366 87.1869 146.108 87.7006 146.108C88.5646 146.108 89.0316 146.83 89.16 148.39C89.2417 149.319 89.4402 149.667 89.7788 149.461C90.2575 149.177 90.4677 147.359 90.1407 146.315C89.9306 145.657 89.2534 144.832 88.6696 144.548C88.1092 144.265 87.0935 144.239 86.6498 144.484C85.7858 144.987 85.2954 146.005 85.3188 147.269C85.3305 148.236 85.5056 148.829 86.5097 151.33C87.3853 153.509 87.6772 154.412 87.6772 154.902C87.6772 155.198 87.6305 155.263 87.3853 155.263C86.8716 155.263 85.9726 154.205 85.4355 152.98C85.1787 152.387 84.8751 151.846 84.7584 151.781C84.3847 151.562 83.9411 151.64 83.6492 151.975C83.2405 152.413 83.2639 153.109 83.7076 154.025Z" fill="black"/>
<path d="M90.106 145.757C90.2693 145.865 91.7009 145.972 91.9898 146.026C92.4798 146.108 92.5175 146.135 92.4547 146.472C92.417 146.661 92.5049 147.945 92.6557 149.322C92.8064 150.7 93.02 153.936 93.0703 154.814C93.1708 156.205 93.221 156.448 93.4723 156.745C93.8869 157.218 94.603 157.191 94.9673 156.691C95.2311 156.353 95.2437 156.232 95.1683 154.773C95.1306 153.922 94.9296 150.997 94.7914 149.998C94.6532 148.998 94.5402 147.85 94.5402 147.458V146.756H95.608C96.8267 146.756 97.2287 146.607 97.4423 146.067C97.5553 145.743 97.5553 145.621 97.3795 145.338C97.0654 144.838 96.8644 144.77 95.1683 144.662C92.8441 144.527 89.8296 144.538 89.8296 145.078C89.8296 145.146 89.9553 145.649 90.106 145.757Z" fill="black"/>
<path d="M34.1708 173.336C34.4144 173.533 35.402 173.704 36.9174 173.809L38.1485 173.901L38.2433 175.309C38.2974 176.072 38.3921 178.453 38.4597 180.584C38.595 184.767 38.7033 185.596 39.1633 186.07C39.5827 186.504 40.2862 186.438 40.665 185.951C40.9221 185.623 40.9221 185.53 40.7868 184.689C40.6921 184.189 40.5298 182.544 40.4215 181.031C40.205 178.098 39.6825 173.901 39.6825 173.901L41.7745 174.007C44.1692 174.007 44.2369 173.994 44.521 173.704C45.0216 173.191 44.8457 172.402 44.1963 172.152C43.9798 172.073 42.6404 172.086 40.5162 172.165C36.3085 172.336 34.4414 172.494 34.1844 172.691C33.9408 172.889 33.9408 173.139 34.1708 173.336Z" fill="black"/>
<path d="M44.9104 179.478C44.951 179.53 45.1134 179.57 45.2622 179.57C45.5192 179.57 45.5328 179.636 45.4651 181.306C45.3839 183.161 45.5328 184.661 45.8439 185.253C46.2363 186.003 46.4798 186.055 49.0099 185.99C51.0664 185.937 51.3505 185.897 51.6887 185.661C52.2164 185.279 52.2705 184.49 51.7834 184.043C51.4046 183.701 51.0528 183.674 48.7258 183.845L47.5622 183.937L47.481 183.227C47.4269 182.846 47.3863 181.872 47.3863 181.056V179.583L48.1575 179.504C49.2805 179.399 49.6052 179.202 49.6593 178.636C49.7269 177.899 49.2128 177.676 48.0222 177.899L47.5216 178.005V176.018C47.5216 173.953 47.4269 173.519 46.9804 173.519C46.5881 173.519 46.4798 173.821 46.0875 175.965C45.8981 177.044 45.7087 178.044 45.6816 178.189C45.6545 178.333 45.4516 178.557 45.2216 178.675C44.8428 178.886 44.6939 179.267 44.9104 179.478Z" fill="black"/>
<path d="M45.9582 173.898C46.3235 174.082 52.1818 174.279 52.6553 174.122C52.8177 174.056 53.0477 173.859 53.183 173.674C53.5077 173.188 53.2371 172.609 52.5877 172.438C51.8977 172.24 46.5129 172.78 45.904 173.096C45.5658 173.267 45.5929 173.701 45.9582 173.898Z" fill="black"/>
<path d="M54.1795 180.003C54.3161 180.132 54.3434 180.804 54.3161 182.634C54.2615 185.15 54.357 185.808 54.7803 185.98C55.2308 186.151 55.4083 185.665 55.8042 182.934C56.0227 181.462 56.2138 180.232 56.2411 180.218C56.2548 180.203 56.9374 180.132 57.7566 180.06L59.2447 179.932L59.6134 180.804C59.8181 181.276 60.2141 182.334 60.5008 183.134C61.1288 184.936 61.4974 185.451 62.1528 185.451C62.7672 185.451 63.1631 185.036 63.1631 184.393C63.1631 183.763 61.6203 179.732 60.61 177.73C59.2174 174.942 57.4562 172.526 56.719 172.411C56.2002 172.325 55.654 172.583 55.4356 173.04C55.3264 173.269 55.067 174.727 54.8758 176.272C54.6028 178.502 54.4662 179.145 54.2751 179.346C53.9747 179.646 53.9611 179.76 54.1795 180.003ZM56.8009 176.658L56.9647 175.814L57.306 176.3C57.4972 176.572 57.8248 177.101 58.016 177.473L58.3846 178.145L57.6064 178.302C57.1695 178.402 56.7326 178.516 56.637 178.559C56.4459 178.631 56.4459 178.545 56.8009 176.658Z" fill="black"/>
<path d="M63.9485 180.3C64.3881 183.096 66.5377 185.615 68.443 185.615C69.5666 185.602 70.507 184.995 71.5329 183.597C72.2902 182.556 72.0825 181.527 71.1055 181.527C70.7513 181.527 70.5803 181.659 69.8841 182.503C68.9681 183.611 68.6017 183.782 67.93 183.439C66.9774 182.951 65.9881 181.355 65.7682 179.957C65.5973 178.836 65.756 177.729 66.2568 176.555C66.9407 174.959 67.6369 174.273 68.5895 174.273C69.2002 174.273 69.2979 174.326 69.591 174.827C70.0063 175.539 70.6291 175.104 70.4826 174.207C70.3238 173.35 69.4322 172.691 68.4185 172.691C67.5025 172.691 66.7819 173.047 65.9514 173.93C64.4614 175.513 63.6065 178.216 63.9485 180.3Z" fill="black"/>
<path d="M72.7549 183.638C72.9173 184.954 73.1337 185.519 73.6073 185.809C74.0402 186.085 74.622 185.927 74.9061 185.454C75.0685 185.151 75.0685 184.941 74.8655 183.678C74.7302 182.888 74.5949 181.652 74.5408 180.928L74.4596 179.626L75.6908 179.613L76.922 179.6L76.9897 180.073C77.1385 180.994 77.1299 181.415 77.2382 183.231C77.3464 185.164 77.4546 185.52 78.0229 185.809C78.4288 186.019 78.9564 185.848 79.3082 185.388C79.5517 185.072 79.5653 184.954 79.4164 183.152C79.3353 182.112 79.2626 181.165 79.1544 180.297C78.965 178.797 78.965 178.718 79.2221 178.192C79.7768 177.021 79.7903 176.736 78.9379 174.039C78.4103 172.408 78.0855 172 77.3279 172C76.2861 172 76.1102 172.908 76.5296 176.328C76.6514 177.38 76.6379 177.798 76.5567 177.876C76.4214 178.008 74.6626 178.324 74.5814 178.232C74.5543 178.205 74.4596 177.061 74.3785 175.706C74.2973 174.259 74.162 173.075 74.0537 172.878C73.8373 172.43 73.4043 172.417 73.1879 172.851C72.809 173.627 72.4978 181.468 72.7549 183.638Z" fill="black"/>
<path d="M81.4124 184.97C81.7502 185.47 82.4764 185.615 84.4524 185.615C86.3102 185.615 87.1546 185.47 87.4079 185.089C87.7119 184.654 87.5937 184.102 87.1546 183.773C86.783 183.509 86.5128 183.457 85.2462 183.404L83.7768 183.351L83.7093 181.127L83.6586 178.903H84.5706C85.6008 178.903 85.8879 178.758 85.8879 178.218C85.8879 177.758 85.3982 177.547 84.4186 177.613L83.6586 177.652L83.7431 175.836C83.7937 174.836 83.8613 173.994 83.8951 173.967C83.9288 173.941 84.5199 174.007 85.2124 174.112C85.9048 174.217 86.6479 174.27 86.8506 174.23C87.3235 174.151 87.6275 173.717 87.4924 173.362C87.2728 172.835 86.6817 172.691 84.7057 172.691C82.6453 172.691 82.2569 172.796 82.392 173.362C82.4426 173.546 82.4088 173.836 82.3244 174.007C81.9866 174.704 81.6657 176.915 81.4124 180.311C81.1084 184.602 81.1084 184.536 81.4124 184.97Z" fill="black"/>
<path d="M88.6614 176.892C88.7403 177.682 88.9207 179.696 89.0447 181.369C89.1687 183.028 89.3265 184.594 89.3941 184.831C89.6196 185.621 90.4988 185.898 90.961 185.319C91.2202 184.989 91.2202 184.989 91.0737 183.515C90.8482 181.171 90.7581 181.211 92.6518 182.83C95.391 185.161 96.4168 185.911 96.8677 185.911C97.3862 185.911 97.7244 185.529 97.7244 184.95C97.7244 184.726 97.6567 184.436 97.5778 184.305C97.4989 184.186 96.8789 183.66 96.2026 183.133C95.515 182.619 94.3765 181.685 93.6663 181.066C92.4715 180.026 92.3926 179.933 92.5955 179.762C94.3878 178.327 95.0754 177.379 95.3346 176.036C95.6615 174.338 94.9401 172.639 93.8016 172.415C92.7758 172.218 91.1977 173.455 90.3974 175.101C90.1832 175.536 89.9803 175.904 89.9465 175.904C89.9126 175.904 89.7774 175.312 89.6308 174.588C89.4843 173.877 89.2701 173.139 89.1574 172.981C88.9545 172.692 88.9545 172.679 88.7178 172.929C88.5149 173.153 88.4811 173.324 88.4923 174.311C88.5036 174.93 88.5825 176.089 88.6614 176.892ZM91.502 177.116C91.626 176.76 91.874 176.207 92.0657 175.891C92.4376 175.233 93.2493 174.509 93.4296 174.654C93.4972 174.693 93.5536 174.956 93.5536 175.233C93.5536 175.957 93.0351 176.813 92.2009 177.458C91.209 178.235 91.1526 178.209 91.502 177.116Z" fill="black"/>
</svg>
