<svg width="137" height="39" viewBox="0 0 137 39" fill="none" xmlns="http://www.w3.org/2000/svg">
<path d="M1.64603 29.1311C2.42685 31.3508 3.93235 33.4454 5.76 34.8555C10.1139 38.2098 15.8478 37.8014 19.6279 33.8612C22.5826 30.7868 23.3453 26.5647 21.5465 23.1263C20.0896 20.3266 16.7714 17.7894 13.4776 16.9314C10.421 16.1414 7.41304 16.5712 6.98538 17.8543C6.91162 18.0495 6.44564 18.5109 5.91241 18.8956C2.12943 21.6386 0.444916 25.6842 1.64603 29.1311ZM3.52013 25.1172C4.05796 23.3774 5.08141 21.8579 6.74643 20.3384C8.09488 19.1178 8.96616 18.7022 10.31 18.6227C12.4458 18.4947 14.7534 19.2277 16.7267 20.6611C18.8906 22.2402 19.9693 23.8071 20.3812 25.9336C20.7446 27.9096 20.2628 29.8558 18.9676 31.5826C17.6518 33.3692 15.9709 34.4488 13.8744 34.871C12.3345 35.1905 11.1979 35.1139 9.60567 34.6134C8.57933 34.2941 8.11799 34.042 7.0524 33.2146C6.01857 32.4115 5.60298 31.968 4.92868 30.9744C3.80702 29.2991 3.48853 28.5146 3.36986 27.0905C3.29978 26.2444 3.33058 25.727 3.52013 25.1172Z" fill="black"/>
<path d="M10.7217 26.3053C10.8002 26.6798 11.0636 27.7995 11.3101 28.7931C12.1209 32.0924 12.4945 32.7555 13.4218 32.5462C13.7543 32.4734 13.9756 32.3155 14.1362 32.0232L14.3659 31.6077L13.7812 30.0033C13.1498 28.2626 12.6473 26.633 11.945 23.9323C11.3733 21.7844 11.0941 21.0803 10.7775 20.9514C10.1041 20.7133 9.97438 21.5575 10.3247 23.8632C10.4676 24.8279 10.6414 25.9168 10.7217 26.3053Z" fill="black"/>
<path d="M26.5662 18.6389C26.7315 18.7024 27.1611 18.7164 27.5393 18.6659C27.9035 18.6174 28.7356 18.5492 29.3875 18.5192C30.3493 18.4622 30.5529 18.4921 30.5053 18.6695C30.4157 19.0664 30.6783 23.4939 30.9623 26.2647C31.2819 29.5155 31.6181 30.9676 32.1458 31.3963C32.6258 31.7885 33.2982 31.6988 33.6586 31.1945C33.9098 30.8331 33.9108 30.7331 33.4119 26.5653C32.9121 22.4974 32.785 20.4755 32.8839 18.8655L32.9427 18.1306L33.5655 18.0475C35.3772 17.7346 36.2625 17.531 36.5099 17.3554C36.9404 17.0556 37.06 16.4016 36.8143 15.9496C36.2683 15.8371 31.429 16.46 31.5858 16.4332C31.5858 16.4332 29.972 16.7019 28.9961 16.9746C27.1489 17.4491 26.2935 17.8769 26.2777 18.2925C26.2665 18.4223 26.4009 18.5754 26.5662 18.6389Z" fill="black"/>
<path d="M38.9914 30.7949C39.3641 31.344 40.3185 31.231 40.6761 30.5987C40.8573 30.2466 40.8516 29.7769 40.5779 26.7624C40.3957 24.862 40.2527 23.0419 40.2518 22.7141L40.2415 22.1024L42.5901 21.8604C46.277 21.497 45.5483 21.8061 45.6651 22.1469C45.7295 22.3094 46.0596 25.3184 46.2576 26.5894C46.6257 28.9212 46.7854 29.3704 47.3261 29.6832C47.8808 29.9942 48.6335 29.6514 48.8716 28.9781C48.9846 28.6494 48.9332 28.1572 48.5923 26.3493C48.3578 25.1259 47.7755 20.6536 47.4523 18.6579C46.8031 14.7525 46.6845 14.3976 45.9318 14.0988C45.42 13.8962 44.8961 14.1372 44.5628 14.7377C44.347 15.1514 44.3452 15.3512 44.6395 17.4506L44.9702 19.7161L42.3731 20.2336C40.9573 20.5222 40.7363 20.4681 40.5122 20.498L40.078 20.5559L39.8388 18.3352C39.5856 15.9024 39.4259 15.4533 38.8908 15.6102C38.2576 15.7802 38.1662 17.6601 38.4514 24.8219C38.6599 29.9124 38.7038 30.3485 38.9914 30.7949Z" fill="black"/>
<path d="M49.9095 28.2959C50.2981 29.2849 50.7986 29.4035 52.502 28.9196C53.1753 28.73 54.0186 28.532 54.3688 28.4853C55.6117 28.291 56.2598 27.3777 55.7601 26.5176C55.3725 25.8564 54.8076 25.7892 53.2564 26.2385L52.02 26.5887L51.7725 25.4812C51.6464 24.8564 51.4773 23.9095 51.4063 23.3772L51.2755 22.3966L52.6651 22.3396C54.4086 22.2639 54.8363 22.05 54.8036 21.2702C54.7578 20.3924 54.3646 20.3308 52.2214 20.8305L51.0597 21.0995L50.8598 18.9591C50.7589 17.7749 50.6309 16.4946 50.5823 16.1304C50.5075 15.5701 50.5384 15.4804 50.7401 15.4963C51.363 15.57 55.5401 15.1412 55.8875 14.9665C56.5039 14.6705 56.4319 13.5965 55.7707 13.3425C55.4999 13.2361 55.0199 13.2716 53.9366 13.4874C51.8224 13.8834 49.6026 14.4504 49.427 14.6306C49.0357 15.0107 49.0022 17.5387 49.3237 22.0867C49.6536 27.0184 49.7339 27.8346 49.9095 28.2959Z" fill="black"/>
<path d="M65.4271 25.8022C65.6261 26.5455 65.9455 27.0162 66.2116 26.9807C66.786 26.9041 66.8112 26.5586 66.6008 21.8817C66.5419 20.4781 66.511 18.8569 66.5446 18.2537C66.6239 16.8174 66.8134 15.3521 66.9395 15.3353C66.9815 15.3297 67.4625 16.0497 67.9939 16.934C69.3463 19.1631 70.6491 20.9141 71.2608 21.3315C71.9005 21.7452 72.5645 21.6994 73.0426 21.2221C73.3937 20.8616 73.4918 20.4208 73.7896 17.6295C74.0332 15.5012 74.205 14.6514 74.3404 14.9184C74.3974 15.0249 74.9344 16.5928 75.5313 18.3952C77.3862 23.9647 77.997 25.1236 79.0476 24.9835C79.5799 24.9125 80.1112 24.2998 80.0458 23.8096C80.0216 23.6275 79.7853 23.0317 79.5125 22.4835C78.6981 20.867 77.5363 17.7143 76.407 14.0583C75.487 11.1157 75.1714 10.673 74.1068 10.815C73.3223 10.9197 72.9749 11.3082 72.5641 12.5035C72.2289 13.5177 71.6192 16.536 71.5707 17.455C71.5539 17.7566 71.4876 18.0078 71.4316 18.0153C71.3755 18.0228 70.9889 17.4755 70.5574 16.806C68.9165 14.2304 68.4784 13.6188 67.8415 13.1192C67.2662 12.6541 67.1168 12.6028 66.5565 12.6775C65.1977 12.8587 64.6393 14.2306 64.5863 17.5739C64.5714 18.9588 65.1647 24.7964 65.4271 25.8022Z" fill="black"/>
<path d="M80.7279 24.5756C80.8705 24.7592 80.9866 24.7437 81.2248 24.7581C81.4833 24.7738 81.7446 24.0491 81.8123 23.2583C81.8493 22.827 81.9667 20.068 81.9957 19.6945L82.0784 19.0154L83.1518 18.9149C83.7418 18.8504 84.2581 18.8242 84.3101 18.8599C84.3466 18.8977 84.7953 20.0176 85.2738 21.361C86.0423 23.4617 86.2164 23.8223 86.5922 24.0422C86.8331 24.1948 87.1922 24.2891 87.3779 24.2643C87.8732 24.1983 88.4425 23.6248 88.4894 23.1495C88.5536 22.6861 87.932 20.978 86.495 17.6446C85.92 16.2856 85.2109 14.2765 84.8805 13.0982C84.193 10.6598 84.0095 10.2294 83.4603 9.89042C82.5122 9.27774 81.4408 9.74758 80.9899 10.9733C80.6449 11.929 80.3541 14.0004 80.2923 15.8991C80.2648 16.7557 80.2249 17.756 80.1904 18.0875C80.1732 18.4309 80.1909 21.6125 80.3232 22.6041C80.4897 24.0886 80.5651 24.3661 80.7279 24.5756ZM82.3557 15.7803L82.5513 14.1764L83.062 15.6434C83.3285 16.4607 83.53 17.1446 83.5009 17.1627C83.4056 17.2749 82.1651 17.5398 82.1539 17.456C82.1483 17.4141 82.2372 16.6631 82.3557 15.7803Z" fill="black"/>
<path d="M88.233 19.7252C88.9621 21.3676 90.3779 22.6475 91.5095 22.6962C93.0483 22.7619 94.4398 21.8348 95.3635 20.1003C95.7322 18.6584 95.4559 18.6953 96.3971 18.9642C97.2077 18.8561 96.7779 18.0637 96.6017 18.0077C95.7112 17.7249 92.0019 16.9409 91.6031 17.5503C91.3661 17.9098 91.6891 18.1947 92.5205 18.3548C92.9187 18.4157 93.2911 18.5087 93.3428 18.5588C93.5255 18.6913 92.8126 19.8701 92.3728 20.1712C91.7654 20.5659 91.3062 20.3848 90.7184 19.465C89.5542 17.7095 89.5678 14.0999 90.734 11.9338C91.0572 11.3203 91.1382 11.2525 91.7277 11.1738C92.1699 11.1148 92.5699 11.1898 93.0955 11.4192C93.9402 11.7913 94.1798 11.7879 94.4077 11.4723C94.518 11.2865 94.4827 11.1343 94.224 10.7696C93.6622 9.93188 92.2699 9.39034 91.1055 9.54565C89.5285 9.756 88.2037 11.8578 87.7743 14.824C87.5632 16.2781 87.8055 18.7698 88.233 19.7252Z" fill="black"/>
<path d="M97.5093 22.0312C98.1154 22.4066 98.4814 21.5166 98.9118 18.6505L99.1638 16.9061L100.276 16.8005C100.882 16.7482 101.549 16.6164 101.748 16.5044C102.214 16.2569 102.214 16.2569 103.184 18.9361C103.586 20.0231 104.042 21.0886 104.21 21.2801C104.808 22.0271 105.961 21.6881 106.174 20.7187C106.26 20.2938 105.218 17.51 103.539 13.6849C103.03 12.541 102.35 10.8638 102.045 9.96353C101.178 7.5271 101.022 7.31978 100.069 7.44684C99.3829 7.53839 99.1466 7.79801 98.7768 8.87385C97.9636 11.2207 97.5929 13.4657 97.3559 17.4609C97.1497 20.9386 97.1833 21.8323 97.5093 22.0312ZM99.5839 14.0699C99.8482 12.5234 100.078 11.6801 100.223 11.8033C100.367 11.9266 101.534 14.7935 101.473 14.8729C101.386 14.97 99.4084 15.3194 99.3972 15.2353C99.3916 15.1933 99.4784 14.6685 99.5839 14.0699Z" fill="black"/>
<path d="M107.297 20.7664C107.71 21.082 107.855 21.1054 108.64 21.0007C109.13 20.9353 110.368 20.5991 111.407 20.261C112.963 19.7398 113.34 19.5754 113.595 19.242C113.947 18.7816 113.916 18.2297 113.532 17.8104C113.079 17.3005 112.709 17.3071 111.071 17.8535C110.239 18.1355 109.51 18.3326 109.476 18.2943C109.399 18.2476 109.827 16.223 110.263 14.5682C110.412 13.9779 110.464 13.9424 111.101 13.8005C111.846 13.6155 112.292 13.2139 112.232 12.7657C112.174 12.3314 111.93 12.1073 111.432 12.0028L111.007 11.9169L111.693 9.68674C112.056 8.45495 112.361 7.31655 112.338 7.14845C112.316 6.98036 112.121 6.69273 111.91 6.5069C111.554 6.1838 111.482 6.17913 110.433 6.33327C109.232 6.52197 107.471 6.99926 106.979 7.2645C106.645 7.43728 106.619 7.88274 106.945 8.08164C107.118 8.20117 109.19 8.23843 109.905 8.14314C110.073 8.12072 109.913 8.74082 109.329 10.4582C108.594 12.6379 108.506 12.835 108.099 12.9891C107.856 13.0927 107.577 13.244 107.49 13.3412C107.241 13.6167 107.383 14.0397 107.766 14.1312L108.119 14.2124L107.412 16.8161C106.609 19.7747 106.596 20.2182 107.297 20.7664Z" fill="black"/>
<path d="M114.809 19.9773C115.02 20.4909 115.43 20.6786 116.025 20.5422C116.826 20.3498 116.662 18.9734 116.579 17.1738C116.495 15.3742 116.38 12.4811 116.303 10.7236C116.146 7.19449 116.01 5.64427 115.807 5.40054C115.739 5.32397 115.532 5.26607 115.35 5.29036C115.112 5.32213 114.989 5.46688 114.889 5.89366C114.617 6.95642 114.48 9.88318 114.487 14.744C114.486 17.4102 114.62 18.9902 114.618 19.19C114.616 19.3899 114.707 19.7485 114.809 19.9773Z" fill="black"/>
<path d="M118.442 18.6221C118.671 19.3758 119.314 19.3897 119.499 18.638C119.553 18.4026 119.663 16.5489 119.732 14.5009C119.815 12.4511 119.888 10.545 119.923 10.2695C119.986 9.67652 119.884 9.54765 121.123 11.8916C122.879 15.2217 124.926 18.3846 125.576 18.7684C126.164 19.1177 126.747 18.9972 127.16 18.4574C127.585 17.9017 127.573 17.6038 127.104 13.2324C126.909 11.4477 126.678 8.96927 126.596 7.71134C126.512 6.43942 126.383 5.25901 126.315 5.0685C126.122 4.58103 125.273 4.30932 124.826 4.59697C124.062 5.06954 124.051 5.62706 124.606 11.7121L124.807 13.9665L124.354 13.2428C123.716 12.2015 122.769 10.4459 121.486 7.87968C120.825 6.55641 120.201 5.51331 119.993 5.34149C119.193 4.69248 118.176 5.29861 118.019 6.47436C117.765 8.51862 118.069 17.4315 118.442 18.6221Z" fill="black"/>
<path d="M129.039 18.1338C129.591 18.7445 130.052 18.7828 131.891 18.3522C134.533 17.7432 135.023 17.4639 135.097 16.6272C135.141 16.1079 134.745 15.5906 134.216 15.4758C133.965 15.4095 133.38 15.516 132.406 15.8027C131.609 16.0231 130.919 16.2006 130.886 16.1623C130.822 16.1137 130.593 12.7939 130.551 11.3025L130.524 10.5647L131.472 10.5096C132.704 10.4451 133.082 10.1808 133.045 9.47289C133.007 8.76502 132.663 8.6399 131.357 8.89957L130.358 9.10414L130.062 7.63237C129.911 6.82551 129.741 5.60799 129.672 5.41749L131.59 5.09031C134.151 4.62045 134.596 4.31879 134.186 3.27567C133.974 2.76205 133.423 2.69297 132.217 3.0535C129.321 3.89599 127.484 4.55445 127.358 4.78513C127.153 5.16896 127.384 5.40895 128.051 5.4911C128.632 5.57045 128.664 5.59473 128.596 5.94587C128.567 6.14945 128.552 7.53439 128.594 9.02578C128.62 10.505 128.646 12.8397 128.63 14.2106C128.618 17.1206 128.675 17.7547 129.039 18.1338Z" fill="black"/>
</svg>
