<svg width="159" height="62" viewBox="0 0 159 62" fill="none" xmlns="http://www.w3.org/2000/svg">
<path d="M18.101 56.0097C18.2892 57.4279 18.7097 58.4016 19.4511 59.1742C21.2993 61.0898 24.4532 60.4019 27.0428 57.5126C27.8949 56.5707 28.8798 55.163 29.4885 54.0306C30.0308 53.0146 30.0197 53.004 30.3185 54.4963C30.7944 56.867 31.6797 59.0789 32.5318 60.0315C33.1958 60.7617 33.8155 61.0475 34.7341 61.0581C35.7632 61.0581 36.4272 60.7194 37.5671 59.6293C39.0721 58.2005 40.8428 55.3006 42.215 52.0515C42.5802 51.1836 42.879 50.4957 42.8901 50.5275C42.9012 50.5592 42.9676 51.0037 43.045 51.5329C43.2996 53.3427 43.5652 54.4645 43.9968 55.6922C44.9817 58.4334 46.3982 59.8833 48.4566 60.2749C49.5964 60.4971 51.1236 59.9785 52.3963 58.9519C54.2001 57.4808 55.9265 54.8561 57.2987 51.4694C57.6418 50.6333 57.9849 49.7443 58.0513 49.4903C58.1287 49.2469 58.2173 49.0458 58.2615 49.0458C58.3058 49.0458 58.3722 49.4479 58.4054 49.9242C58.5825 52.115 59.1801 54.9831 59.7998 56.6977C60.2867 58.0206 60.6298 58.7085 61.2495 59.5764C62.002 60.6136 62.7546 61.2592 63.662 61.6719C64.2928 61.9577 64.5252 62 65.2335 62C66.1188 62 66.5946 61.8412 66.5393 61.5555C66.5172 61.4602 66.1299 61.2486 65.5323 61.0263C64.3149 60.5818 63.5403 59.9362 63.0423 58.9731C61.825 56.5918 61.5704 53.9671 61.7807 45.9025C61.8582 43.0661 61.9135 40.325 61.9135 39.8275V38.9279L63.3964 38.7374C65.0011 38.5469 66.6278 38.2083 66.8602 38.0178C67.1037 37.8272 67.0262 37.6473 66.65 37.5203C66.2848 37.3933 64.3039 37.2028 62.9095 37.1605L62.0795 37.1393V33.742V30.3553L61.7807 29.9108C60.7736 28.4503 58.9587 28.7995 58.2726 30.5775C58.1287 30.9268 57.6639 32.5567 57.2323 34.1971L56.4466 37.1711L55.506 37.2346C52.2081 37.4568 48.5008 37.732 48.0471 37.7849L47.5049 37.8484L47.5381 34.4299C47.5712 30.6516 47.5602 30.6305 46.863 30.0695C46.1769 29.5086 45.2141 29.5615 44.5501 30.1965C44.041 30.6834 43.8418 31.2866 42.4364 36.589C42.215 37.4462 42.0048 38.1765 41.9716 38.1977C41.9494 38.2294 40.9092 38.3247 39.6587 38.4093C37.4343 38.5681 35.9624 38.7374 35.7854 38.8433C35.6415 38.9279 35.6636 39.1608 35.8296 39.2984C36.0399 39.4571 37.1576 39.5947 39.4484 39.7429C40.5108 39.8064 41.3961 39.8805 41.4182 39.891C41.4514 39.9228 40.7543 42.4205 40.4997 43.1719C40.4223 43.4048 40.0017 44.9076 39.5591 46.5057C38.0983 51.9033 37.4786 53.6919 36.394 55.7981C36.051 56.4542 35.5751 57.2374 35.3316 57.5338L34.8779 58.0735L34.7341 57.8195C34.5349 57.4703 34.0811 56.0097 33.9262 55.2371C33.4946 52.9405 33.1958 48.2732 33.3065 45.2357C33.4393 41.2986 33.4393 41.468 33.1847 41.1505C32.7974 40.6425 32.4433 40.452 31.8789 40.452C30.8829 40.452 30.2853 41.0341 29.9865 42.2935C29.8869 42.7168 29.7873 43.0873 29.7541 43.1296C29.732 43.1825 29.4 43.0238 29.0237 42.8015C28.1384 42.2406 27.6404 42.1136 26.4452 42.1242C25.3275 42.1242 24.5639 42.3358 23.5347 42.9285C20.8566 44.4631 18.7318 48.6013 18.09 53.4909C17.9682 54.4963 17.9682 55.036 18.101 56.0097ZM21.3546 52.2208C21.4542 51.8398 21.6313 51.1519 21.753 50.6862C22.1071 49.2998 22.9482 47.0455 23.4351 46.1565C23.9774 45.1405 24.752 44.3149 25.4603 43.9657C26.1464 43.6376 27.3416 43.6058 27.9392 43.9022C28.5921 44.2303 29.0458 44.6007 29.0458 44.8124C29.0458 45.024 28.2823 46.8762 27.6515 48.1779C27.4412 48.6119 27.2752 48.9717 27.2752 48.9929C27.2752 49.0881 26.0689 51.4377 25.3828 52.6548C24.0991 54.962 23.0699 56.3167 22.1625 56.8987C21.6534 57.2268 21.5095 57.1845 21.2329 56.6236C21.0226 56.1685 21.1001 53.1839 21.3546 52.2208ZM50.6478 39.8487C52.3741 39.7746 54.2001 39.6794 54.7202 39.637C55.2404 39.5947 55.683 39.5735 55.7162 39.5947C55.7826 39.6476 54.023 46.5375 53.4365 48.506C52.2745 52.3902 50.9355 55.1207 49.6186 56.2955C49.1427 56.7188 49.0431 56.7717 48.8882 56.6447C48.4344 56.2955 47.8258 54.3905 47.6487 52.8453C47.6044 52.3584 47.5491 49.268 47.5381 45.966L47.527 39.9863L50.6478 39.8487Z" fill="black"/>
<path d="M0.093819 18.6612C0.653108 19.2132 2.94236 18.8631 7.62504 14.999C8.57912 14.2134 10.564 12.4511 13.7224 9.59548C14.183 9.18146 14.5887 8.83113 14.6216 8.83113C14.6545 8.83113 14.1281 9.96703 13.4482 11.3471C12.0116 14.2665 11.4304 15.551 10.6079 17.5362C10.2789 18.3217 9.6648 19.7336 9.23711 20.6678C7.40571 24.7337 5.89233 29.6276 5.21241 33.7254C5.11372 34.3092 4.96019 35.0842 4.87245 35.4451C4.67506 36.252 4.78472 36.7934 5.27821 37.3242C5.95813 38.0779 7.18638 38.2159 8.16239 37.6639C9.05067 37.1649 9.24807 36.7403 11.3865 30.5406C13.3166 24.9567 13.6627 21.347 15.505 18.3958C17.5009 15.2004 20.4728 12.2704 23.357 10.6144C24.5633 9.92433 25.2652 9.65893 26.1206 9.55277C26.9979 9.44661 27.7655 9.80755 28.3248 10.5931C29.4982 12.2492 29.564 14.5953 28.4784 16.7185C27.3488 18.9372 24.7498 20.5296 22.2275 20.5402C20.6702 20.5402 19.4968 20.0306 18.3344 18.8629C17.7641 18.2896 17.5009 18.0879 17.3584 18.141C17.2158 18.1941 17.1939 18.2896 17.2487 18.6612C17.4132 19.7016 18.4989 21.1028 19.6284 21.7398C21.0979 22.5572 23.3351 22.8757 25.0568 22.5041C27.4914 21.984 29.915 20.4234 31.2529 18.502C32.832 16.262 33.3913 13.332 32.7224 10.8904C31.6696 7.08989 28.6758 5.12595 24.7607 5.66736C22.9732 5.91152 20.3303 6.95188 18.3015 8.20456C17.9177 8.4381 17.5777 8.61857 17.5558 8.59734C17.5338 8.58673 17.5777 8.35318 17.6545 8.10901C17.7312 7.85423 17.797 7.06865 17.797 6.36801C17.808 4.87117 17.6545 4.59904 17.3249 4.32038C16.9953 4.04171 16.5143 3.99225 16.2337 4.00091C10.4083 4.18054 9.5661 9.40439 5.25628 13.7887C2.85462 16.2198 3.47149 15.3066 1.60719 16.899C-0.0158462 18.279 -0.147443 18.4383 0.093819 18.6612Z" fill="black"/>
<path d="M63.2051 50.532C63.5595 50.9146 64.5199 51.1615 65.6631 51.1615H66.7035L66.9321 51.9883C67.6981 54.8886 71.3129 56.9619 73.1536 56.9743C74.6055 56.9743 76.0346 56.1844 77.578 54.5183C78.5955 53.4323 79.6473 51.976 80.379 50.6308C80.5847 50.2605 81.4651 48.4217 82.3339 46.5581C83.2028 44.6946 83.6487 43.4481 83.9802 42.8433L84.5861 41.7326L84.6204 42.9668C84.6776 44.7069 84.1746 52.7412 83.8545 55.1477C83.6944 56.4683 84.2203 57.3445 85.1921 57.3445C86.3353 57.3445 87.1242 56.098 88.5418 51.5564C89.0677 49.8533 89.6965 47.9403 89.9251 47.2986C90.5425 45.6202 91.6172 43.337 92.3717 42.1152L93.0119 41.0662L93.0462 42.362C93.0691 43.0778 93.0005 46.0027 92.8862 48.866C92.669 54.4443 92.7147 55.7525 93.1834 57.0607C93.6522 58.4182 94.5439 59.1093 95.6529 58.9859C96.4646 58.8995 97.0591 58.5046 97.9394 57.5173C99.1169 56.1968 100.5 53.6174 101.678 50.5691C101.929 49.9273 101.975 49.8656 102.021 50.1371C102.558 53.1731 103.027 54.1357 104.227 54.7775C105.313 55.3452 106.399 55.0613 107.794 53.8149C109.155 52.6177 111.167 49.7422 112.653 46.879L113.282 45.6695L113.27 47.3109C113.259 48.2859 113.316 49.2732 113.408 49.7052C113.899 52.1488 115.591 53.9136 117.42 53.8889C119.753 53.8642 121.73 52.0377 124.337 47.4837C124.954 46.4224 125.309 45.8917 125.263 46.1262C125.08 47.1258 124.852 49.6928 124.852 50.6925C124.863 53.4076 125.652 55.0984 127.172 55.6414C129.642 56.53 132.729 53.4816 134.695 48.1872C135.518 46.0151 136.284 42.6829 136.284 41.313V40.5725L138.491 39.0175C139.691 38.1536 140.96 37.3144 141.28 37.1293L141.886 36.8084V37.1416C141.886 37.8574 141.314 40.0665 140.08 44.1515C139.371 46.5334 138.994 47.5824 138.342 49.1004C137.199 51.7415 137.107 52.5314 137.828 53.3089C138.159 53.6668 138.285 53.7161 138.776 53.7161C139.817 53.7161 140.045 53.3829 143.51 46.879C145.682 42.8063 146.905 40.7083 147.911 39.3384L148.46 38.5979L148.494 39.1039C148.528 39.5729 148.334 41.4734 148.071 43.2876C147.454 47.5824 147.031 51.507 147.031 53.0003C147.031 55.6908 147.762 56.9249 149.352 56.9249C152.015 56.9249 156.588 51.1368 158.395 45.4721C158.886 43.9417 159.115 42.6459 158.943 42.4608C158.738 42.2386 158.52 42.5348 157.72 44.1762C156.051 47.5948 154.508 49.8656 152.153 52.3092C150.941 53.568 149.763 54.58 149.5 54.58C149.237 54.58 149.569 51.7662 150.289 47.7305C151.181 42.7199 151.421 40.6959 151.341 38.9064C151.238 36.7714 150.769 35.6977 149.695 35.13C149.214 34.8708 148.997 34.8214 148.666 34.8955C147.568 35.1053 146.642 35.8087 145.316 37.4378L144.538 38.3757L144.493 37.3761C144.424 36.1296 144.081 35.2287 143.464 34.661C142.275 33.5626 141.029 33.9205 137.336 36.4381C136.433 37.0429 135.644 37.5489 135.587 37.5489C135.541 37.5489 135.427 37.4255 135.358 37.2774C135.095 36.7343 134.158 35.7841 133.597 35.4879C132.729 35.0065 131.688 34.9572 130.865 35.3644C130.522 35.5372 129.985 35.9321 129.676 36.2407C129.276 36.648 129.082 36.759 128.967 36.685C128.876 36.6109 128.556 36.5616 128.27 36.5616C127.39 36.5616 127.195 36.796 125.115 40.5108C121.582 46.7926 120.439 48.6808 119.41 49.8779C117.923 51.6181 116.895 51.6181 116.197 49.9026C115.763 48.8289 116.22 43.8307 117.238 38.5856C117.443 37.5489 117.375 37.1539 116.94 36.685C116.574 36.2777 116.014 36.1173 115.408 36.253C114.745 36.3764 114.174 37.1663 112.31 40.5232C109.864 44.9414 107.977 47.9403 106.399 49.9397C105.851 50.6308 105.828 50.6431 105.725 50.3716C105.553 49.8903 105.885 43.7443 106.159 42.2386C106.194 42.0658 106.297 41.0168 106.388 39.8937C106.491 38.7707 106.617 37.4995 106.674 37.0552C106.731 36.6109 106.834 35.5866 106.914 34.7721C106.983 33.9575 107.074 33.0196 107.12 32.674L107.188 32.0569L109.017 31.7114C110.87 31.3658 112.87 30.8845 113.442 30.65C113.625 30.576 113.762 30.4402 113.762 30.3291C113.762 30.2304 113.625 30.107 113.442 30.0576C113.156 29.9836 109.395 30.1811 107.931 30.3415L107.303 30.4155L107.337 28.8975C107.371 27.5276 107.348 27.3178 107.143 26.9599C106.651 26.1331 105.725 25.7875 104.902 26.1331C104.044 26.4786 103.679 27.0834 103.061 29.1444C102.764 30.1317 102.49 30.9832 102.455 31.0326C102.421 31.082 101.461 31.3165 100.329 31.5509C97.4935 32.1557 94.441 32.9332 94.2924 33.0936C94.2352 33.1553 94.2124 33.3034 94.2581 33.4268C94.3267 33.612 94.4753 33.6243 95.9044 33.5503C96.7618 33.5009 98.4767 33.3405 99.7 33.18C100.923 33.0319 101.941 32.9085 101.952 32.9208C101.975 32.9332 101.621 34.2907 101.175 35.9568C99.7114 41.4364 99.357 42.7693 98.7854 44.9537C97.7564 48.9647 96.6246 52.6548 96.1102 53.6914L95.9387 54.0247V53.4693C95.9272 52.9386 96.0987 50.8776 96.396 47.6071C96.476 46.7926 96.5332 45.1265 96.5446 43.9047C96.556 40.733 96.213 39.1162 95.2756 37.9191C94.6468 37.1046 93.4692 36.8331 92.5546 37.2897C91.5714 37.771 90.1081 39.5112 88.8047 41.7696L88.1874 42.8433L88.1074 41.8437C88.0273 40.7823 87.8901 39.9678 87.6272 38.9435C87.0441 36.7467 85.3178 36.2654 83.9802 37.9438C82.8827 39.3137 81.8538 41.2143 78.6069 47.7922C76.5719 51.939 75.0743 53.9506 73.7481 54.3332C72.6277 54.6541 71.4959 53.2842 70.9357 50.927L70.7299 50.0507L71.6559 49.0758C72.6963 47.965 73.2108 47.1628 73.9882 45.3857C74.7084 43.7443 75.1314 42.0288 75.1429 40.7206C75.1657 38.9805 74.6055 37.3267 73.8281 36.796C73.3022 36.4381 71.2101 36.8331 70.5927 37.2897C69.5981 38.0425 68.7585 38.9435 67.1722 42.1769C66.5777 44.1268 66.3719 45.5091 66.3719 47.7305L66.3605 49.8039L65.8575 49.8779C65.5831 49.9273 64.8514 49.9273 64.234 49.8903C63.308 49.8409 63.1022 49.8656 63.0565 50.0137C62.965 50.2729 62.965 50.2729 63.2051 50.532ZM70.8328 43.7689C71.1529 41.9301 71.8503 40.1406 72.6391 39.1039L72.9135 38.7337L73.0621 39.0422C73.3022 39.4988 73.3365 41.3007 73.1307 42.325C72.7992 44.0158 71.7588 46.4717 70.9242 47.4837L70.5241 47.9774L70.5927 46.373C70.6156 45.4844 70.7299 44.3243 70.8328 43.7689ZM127.653 48.8166C127.916 46.7185 128.647 42.288 128.773 42.1646C128.796 42.1275 129.002 42.2139 129.207 42.3497C129.425 42.4854 129.916 42.6582 130.305 42.7323C130.899 42.8433 131.162 42.831 132.02 42.6212C132.569 42.4854 133.117 42.3497 133.22 42.3003C133.517 42.1769 133.483 42.4731 133.083 43.9664C131.814 48.5451 129.356 53.0991 128.144 53.0991C127.973 53.0991 127.824 53.0867 127.824 53.062C127.824 53.0497 127.744 52.8152 127.653 52.5437C127.435 51.8896 127.435 50.6184 127.653 48.8166ZM130.488 39.3014C130.625 39.0052 130.945 38.5485 131.185 38.2894C131.551 37.8821 131.7 37.7957 132.066 37.7957C132.431 37.7957 132.557 37.8698 132.9 38.314C133.129 38.5979 133.312 38.9064 133.312 38.9928C133.312 39.2643 131.631 40.0295 130.877 40.1035C130.122 40.1899 130.088 40.1159 130.488 39.3014Z" fill="black"/>
<path d="M27.1178 27.8319C27.4712 28.1082 29.804 26.9363 32.1013 25.3291C33.5858 24.2996 35.8832 22.2404 37.0761 20.876C40.0538 17.4776 42.0331 12.9827 42.3247 8.9397C42.3954 7.93524 42.2275 7.94361 43.7738 8.89785C44.9579 9.63445 45.6824 10.2874 46.0359 10.9319C46.2568 11.342 46.2921 11.4843 46.3186 12.3883C46.354 13.4263 46.2744 13.8867 45.541 17.034C45.3732 17.7873 45.2936 18.1473 44.9579 19.813C44.737 20.9514 44.6928 22.6506 44.8695 23.3956C45.5499 26.2248 48.0152 27.2209 51.205 25.9486C52.5039 25.4296 53.9442 24.5088 55.411 23.2449L56.1355 22.6255L56.6038 23.0105C57.2224 23.5211 58.3004 24.015 59.2812 24.241C59.9616 24.3916 60.2443 24.4168 61.2693 24.3749C62.5505 24.3247 63.3988 24.1405 64.68 23.6383C67.1718 22.6506 69.805 20.4408 71.5457 17.8543C71.8461 17.4023 72.12 17.034 72.1465 17.034C72.2261 17.034 73.5073 19.2522 74.117 20.4659C74.6825 21.5875 75.2392 22.9938 75.354 23.5797C75.4071 23.8559 75.3452 24.0066 74.7974 24.9608C73.9845 26.3671 73.5868 27.2544 73.4101 28.0328C73.2864 28.6104 73.2864 28.7108 73.4101 29.121C73.5692 29.64 73.9756 30.0334 74.4793 30.1673C75.8577 30.5272 77.8105 28.2086 78.1021 25.8649C78.1374 25.5886 78.2081 25.2957 78.2523 25.2036C78.2965 25.1199 78.7471 24.5591 79.2419 23.948C82.3081 20.1897 84.6673 16.7494 86.0104 14.0624L86.514 13.058L87.3535 14.2717C88.5375 15.9877 88.9528 16.6573 89.589 17.8627C90.5786 19.7376 91.3474 21.7717 91.5771 23.1696C91.7097 23.9229 91.7008 23.9396 91.047 24.0317C90.4814 24.1071 89.4211 24.4502 88.7496 24.7767C86.249 25.9988 85.4891 28.3928 87.0796 30.0501C88.6966 31.7158 91.4446 31.1299 93.0793 28.7694C93.7243 27.8319 93.9894 27.179 94.4223 25.4631L94.5019 25.145L95.0939 25.1952C96.1807 25.2873 96.9141 25.4212 97.8861 25.7058C98.4163 25.8565 98.8846 25.9653 98.9288 25.9402C99.3529 25.6891 97.8066 24.6762 96.3221 24.241C95.9952 24.1489 95.465 24.0233 95.1557 23.9731C94.493 23.8643 94.5284 23.9313 94.4489 22.7259C94.281 20.2399 93.1323 16.9754 91.4623 14.2299C90.8702 13.2589 89.7392 11.6099 88.9263 10.5468C88.511 9.99438 88.1399 9.50052 88.1045 9.44193C88.0692 9.39171 88.1576 8.89785 88.2989 8.35376C88.8026 6.37832 88.8733 4.69585 88.4845 3.3482C88.078 1.93359 87.1679 0.778457 86.0457 0.267856C85.4979 0.0251117 85.3565 2.83122e-07 84.6408 2.83122e-07C83.9427 2.83122e-07 83.7837 0.0334826 83.3242 0.242745C82.3964 0.669641 81.7425 1.47321 81.451 2.51115C81.0533 3.90903 81.6454 5.75054 83.3684 8.5128C83.7042 9.04852 83.9781 9.534 83.9781 9.58423C83.9781 9.76838 81.9193 13.5351 80.7794 15.4436C79.7986 17.0675 77.4835 20.717 77.4217 20.717C77.3952 20.717 77.298 20.5161 77.2096 20.2734C77.0064 19.6623 76.2465 17.9547 75.8754 17.2432C75.7075 16.9252 75.195 16.0379 74.7355 15.2762C74.276 14.5061 73.9049 13.8281 73.9049 13.7695C73.9049 13.7025 74.064 13.2505 74.2584 12.765C74.9388 11.0993 75.089 10.4296 75.089 9.1657C75.0978 8.17798 75.0713 7.96872 74.8857 7.50834C74.6383 6.8973 74.117 6.30299 73.6222 6.06025C73.4366 5.96817 73.0302 5.87609 72.7209 5.84261C72.2261 5.80076 72.1112 5.82587 71.581 6.06025C70.5914 6.50388 69.8403 7.4916 69.4869 8.7974C69.1776 9.91905 69.2748 10.9151 69.8315 12.4972L70.1584 13.443L69.4604 14.5061C68.4531 16.0379 66.8537 18.0217 65.8994 18.9257C64.6094 20.1478 63.3458 20.9179 62.0115 21.2946C61.3223 21.4871 59.9792 21.5373 59.4137 21.3866C59.0338 21.2862 58.1767 20.8091 58.0618 20.6333C58 20.5328 58.1413 20.265 58.645 19.5451C60.695 16.5736 61.8702 13.7779 61.6758 12.313C61.4902 10.9235 60.6243 9.50052 59.5198 9.21593C57.5847 8.72207 55.3403 10.664 54.2446 13.7695C53.5642 15.6696 53.5907 18.0719 54.2446 19.7879C54.5097 20.4659 54.5362 20.4073 53.2991 21.5038C51.7528 22.8682 50.4362 23.722 49.3052 24.0652C47.9445 24.4921 47.3348 24.0819 47.2464 22.6924C47.1934 21.9475 47.4055 20.65 47.8119 19.2103C47.9356 18.775 48.0682 18.2812 48.1035 18.1221C48.1389 17.9631 48.3067 17.26 48.4835 16.5736C48.8634 15.0167 48.8899 14.8911 48.9783 13.8616C49.2876 10.5636 47.918 8.56303 43.5618 5.95143L42.1833 5.13112L42.0508 4.70422C41.9801 4.46985 41.9182 4.23548 41.9182 4.17688C41.9182 4.00947 41.4764 3.13057 41.1937 2.74553C40.8579 2.26841 40.2659 1.91685 39.7092 1.84151C38.5164 1.68247 37.5444 2.8376 37.8536 4.05133C37.9862 4.58704 38.4987 5.32364 39.0907 5.85098L39.5325 6.2444V7.18189C39.5325 10.7645 37.3853 16.2974 34.4606 20.2482C32.7199 22.592 29.8216 25.4882 27.6568 27.0284C26.9764 27.5138 26.8792 27.6478 27.1178 27.8319ZM56.5862 15.3515C56.9573 13.6188 58.1943 11.5931 58.8836 11.5931C59.4314 11.5931 59.4756 12.832 58.9808 13.9369C58.6096 14.7488 57.8674 16.0211 57.134 17.0758C56.6038 17.8375 56.542 17.8961 56.489 17.7036C56.3653 17.2851 56.4095 16.1634 56.5862 15.3515ZM72.0847 8.84762C72.1642 8.72207 72.2172 8.66347 72.2261 8.72207C72.2261 8.9397 72.0228 9.71816 71.9433 9.79349C71.8019 9.91905 71.9256 9.12385 72.0847 8.84762ZM84.0664 2.59486C84.2432 2.39397 84.632 2.44419 84.8794 2.6953C85.2328 3.05523 85.3919 3.42354 85.4714 4.07644C85.5509 4.64563 85.4891 5.75054 85.3742 5.85936C85.277 5.95143 84.199 4.25222 84.0134 3.69976C83.8809 3.30635 83.9074 2.77901 84.0664 2.59486ZM88.1222 27.4301C88.3254 27.0535 88.9175 26.5178 89.4653 26.2164C89.8452 26.0072 91.3827 25.4882 91.6301 25.4882C91.7715 25.4882 91.7715 25.4798 91.5241 26.4508C91.2502 27.5473 90.4373 28.6941 89.7481 28.9703C88.5729 29.4474 87.5567 28.4765 88.1222 27.4301Z" fill="black"/>
<path d="M117.103 33.4244C117.32 33.8955 117.683 34.0631 118.307 33.9793C119.095 33.8746 119.355 33.749 119.701 33.2778C120.004 32.88 120.022 32.8172 119.987 32.3356C119.935 31.7807 119.719 31.4142 119.277 31.1315C118.705 30.7756 117.683 31.1734 117.207 31.9482C116.982 32.3146 116.93 33.058 117.103 33.4244Z" fill="black"/>
</svg>
