<svg width="217" height="112" viewBox="0 0 217 112" fill="none" xmlns="http://www.w3.org/2000/svg">
<path d="M56.6977 19.5657C57.3154 20.1858 61.4825 20.2167 69.176 19.3263C70.3641 19.1875 71.3448 19.0916 71.3527 19.1126C71.3729 19.1366 71.2485 19.4757 71.0816 19.8801C70.769 20.6562 70.2727 21.9558 69.5255 24.047C66.5949 32.1796 65.9496 39.2997 67.726 44.027C68.6074 46.3653 70.0054 47.8457 72.0803 48.6128C73.3369 49.0893 74.58 49.2017 76.3677 49.0234C78.6834 48.7781 82.1713 47.4122 85.0292 45.6319C86.29 44.8373 88.2759 43.3985 89.1064 42.6478C89.428 42.3582 89.734 42.1311 89.7732 42.1315C89.8225 42.1439 89.8842 42.5771 89.9135 43.0876C90.0968 46.3806 90.4179 48.9675 90.76 49.9552C91.2041 51.2154 92.2881 51.9619 93.7699 52.0107C95.4826 52.0795 96.4689 51.2824 99.9394 47.0069C100.754 46.0055 101.735 44.7608 102.129 44.2331C104.026 41.7372 105.586 39.9068 106.59 39.0383C106.941 38.737 107.306 38.5343 107.273 38.6683C107.268 38.6861 107.294 39.0534 107.333 39.4715C107.392 40.2837 107.389 41.2892 107.314 43.2073C107.121 48.1053 107.627 51.1564 108.905 52.7492C109.488 53.4555 109.912 53.7517 110.836 54.0402C113.061 54.7311 115.763 52.0425 119.54 48.3755C120.512 47.4232 121.927 46.1733 122.013 46.195C122.062 46.2073 122.177 46.4829 122.265 46.8089C122.591 48.1247 123.88 49.9861 125.356 51.2583C126.563 52.3013 128.58 53.3485 130.122 53.735C134.77 54.9007 140.614 53.7553 144.994 50.8187C145.942 50.1833 146.105 49.2273 144.915 48.9288C142.586 48.8077 143.253 49.4521 140.968 50.3601C138.683 51.2681 134.75 51.3734 132.622 51.3429C131.903 51.3336 131.424 51.2607 130.4 51.0041C129.143 50.6887 129.083 50.6643 128.207 50.0837C126.939 49.2341 126.088 48.1852 125.626 46.8921C125.287 45.9432 125.121 44.6198 125.339 44.5322C125.514 44.4621 127.222 44.7576 128.556 45.0826C131.752 45.8745 133.434 45.4894 134.917 43.6016C136.438 41.6664 136.896 39.3697 136.188 37.3314C135.867 36.4155 134.997 35.3903 134.113 34.8932C132.021 33.723 128.907 34.1195 126.49 35.8678C124.692 37.1829 122.679 40.0388 122.195 41.9682C122.06 42.5042 122.041 42.5279 121.205 42.9353C119.931 43.5747 118.612 44.4971 116.378 46.3485C113.986 48.3119 112.608 49.3621 112.388 49.3542C112.086 49.3546 111.539 49.0422 111.693 46.9637C111.971 42.8751 112.02 42.052 112.008 41.1089C112.009 40.0078 111.752 38.4718 111.457 37.7143C111.245 37.1484 110.582 36.2892 110.06 35.8639C109.208 35.185 107.738 34.826 106.48 34.985C104.61 35.2282 102.032 37.0408 99.2117 40.0836C97.9397 41.4451 96.1725 43.5274 95.8151 44.0644C95.5786 44.4323 95.2985 44.6089 95.3589 44.3677C95.3746 44.3052 95.3914 43.9771 95.4104 43.6401C95.417 43.3 95.4472 42.7094 95.4773 42.3277C95.5399 41.3465 95.5879 40.3712 95.627 39.3271C95.6448 38.8379 95.666 38.1786 95.6782 37.8684C95.6905 37.5582 95.7105 36.8511 95.7317 36.2963C95.7596 35.5058 95.8088 35.2048 96.0049 34.8932C96.1372 34.6795 96.4509 34.1601 96.6963 33.7564C97.5624 32.3406 97.8426 31.8507 98.3658 30.7572C100.178 27.0341 100.935 24.7461 101.327 21.9296C101.799 18.4783 101.441 16.1954 100.275 15.096C99.1247 14.0385 97.5151 13.7678 96.0962 14.4088C94.7837 14.9912 93.7752 16.1908 92.5763 18.5675C91.2531 21.1789 90.1993 25.8515 89.8874 30.3875C89.7589 32.4155 89.7455 32.4691 89.3107 33.0531C89.09 33.3585 88.6597 33.9247 88.375 34.328C85.5635 38.1706 81.7756 41.6735 78.1769 43.7427C76.1697 44.9008 73.9841 45.6724 73.2443 45.4868C72.8004 45.3755 72.4719 44.9609 72.1254 44.0954C71.5826 42.7061 71.4411 41.2845 71.6132 38.7168C71.7596 36.5129 72.2848 34.0527 74.3154 25.9033L76.1902 18.4269L78.015 18.1534C80.1277 17.8288 80.8294 17.644 80.8943 17.3849C80.9369 17.2152 80.8898 17.1939 80.3114 17.0963C79.807 17.0173 77.7782 16.9548 76.7863 16.9908C76.6024 16.9922 76.6786 16.5841 77.5611 12.7514C78.6395 8.08492 79.2621 4.76621 79.1074 4.54702C78.9829 4.3639 78.6029 4.25911 78.446 4.36218C78.3496 4.43295 78.0494 5.00324 75.5104 9.90161C74.5401 11.785 73.2875 14.4805 72.3475 16.7132L72.1459 17.2038L70.1082 17.3859C67.8283 17.5927 64.9029 17.9699 60.4644 18.6322C59.3861 18.7511 56.6517 19.2788 56.6136 19.3263C56.5755 19.3737 56.6125 19.4874 56.6977 19.5657ZM126.494 40.502C127.703 38.3462 129.078 37.4093 130.608 36.9005C132.766 36.1884 133.224 36.9489 133.261 39.5977C133.014 41.4158 132.589 42.6666 131.755 42.8086C130.92 42.9506 129.585 43.0714 128.226 42.7402L125.741 42.1455L125.992 41.5629C126.127 41.2358 126.351 40.7603 126.494 40.502Z" fill="black"/>
<path d="M0.222394 83.8201C0.857994 84.0616 3.14616 83.1336 4.96397 81.8878C6.70552 80.7056 7.82418 79.7395 9.92166 77.642C12.6547 74.8962 15.0446 71.9343 17.8667 67.7775C20.3836 64.091 23.2184 60.2901 23.6761 60.0105C23.8667 59.8961 23.7269 62.7308 23.4727 64.3453C23.1422 66.3919 22.6337 69.6589 22.4303 70.9555C22.3286 71.6547 22.1888 72.5445 22.1252 72.9259C22.0616 73.3072 21.8837 74.7056 21.7438 76.0403C21.5913 77.3624 21.3625 79.3709 21.2354 80.4895C20.7523 84.5955 20.765 84.9006 21.5023 85.6252C22.2904 86.4133 23.46 86.4006 24.2862 85.6125C24.96 84.9514 26.1422 82.3582 28.2524 76.8666C30.7821 70.2691 31.8245 67.8792 33.1211 65.5783C33.7821 64.4215 33.9728 64.2181 33.8838 64.752C33.8584 64.9427 33.7948 65.7944 33.7567 66.6334C33.6804 68.2478 32.9177 74.5657 32.5999 76.2818C32.2567 78.1124 32.244 78.3539 32.4728 78.9641C33.0829 80.5531 34.977 80.8709 36.1084 79.5743C36.4898 79.142 37.3033 77.553 38.7525 74.3877C41.0661 69.3538 41.75 66.6588 43.1229 64.752C44.3146 63.478 44.839 62.9565 45.9354 62.9565C46.8469 63.2361 46.6409 64.2054 46.7935 65.5783C46.9333 66.8368 46.7865 69.786 46.4306 76.6759C46.2145 80.6675 46.3162 80.6548 47.1806 81.57C47.689 82.1039 48.9221 82.0912 48.8331 81.57C48.6806 80.5658 48.795 77.8708 49.0365 76.6759C50.8289 68.2097 51.0832 64.6503 50.0916 61.574C49.1764 58.7138 47.3712 57.5825 45.0704 58.4469C43.8119 58.9172 41.6 60.8113 40.0618 62.7308C39.5661 63.341 39.4135 63.2774 39.4135 62.4512C39.4135 61.841 38.9686 60.2139 38.6254 59.5401C37.9516 58.1926 36.6169 57.2901 35.3203 57.2901C33.5406 57.2901 31.8117 58.4977 29.6253 61.269L28.6719 62.4893L28.5956 61.002C28.4304 57.9638 27.5405 56.1079 25.8752 55.3197C24.1973 54.5316 22.3159 55.2053 20.0913 57.4172C18.4514 59.0444 16.4175 61.6122 13.9132 65.2351C12.7437 66.9258 12.3624 67.5106 9.41318 72.2903C8.4852 73.7903 7.44282 75.4556 7.08688 75.9768C4.74787 79.4598 2.62496 81.7353 0.603754 82.8921C-0.0191345 83.2607 -0.184391 83.6675 0.222394 83.8201Z" fill="black"/>
<path d="M50.3967 77.7566C50.6763 78.7101 50.8289 78.9897 51.3119 79.5363C52.1001 80.4135 52.634 80.6169 54.0323 80.6169C55.0874 80.6041 55.3544 80.5533 56.1425 80.2228C56.6383 80.0067 57.5027 79.5236 58.0493 79.1423C59.257 78.316 61.4816 76.1931 62.7528 74.6803L63.6807 73.5744V75.3159C63.6807 80.8584 66.2358 84.0618 70.024 83.2991C71.8546 82.9304 73.6978 81.8245 76.2275 79.5618C77.0919 78.799 77.8038 78.2906 78.4648 77.9728C80.1682 77.1338 82.431 75.2524 84.325 73.0532L85.0369 72.2269L84.7827 73.0532C84.6428 73.5108 84.4267 74.2227 84.2996 74.6422C83.4352 77.477 81.5284 82.8923 80.4352 85.5745C77.0156 94.028 72.5156 99.9264 68.0918 101.77C66.8333 102.291 66.1214 102.418 64.4307 102.418C62.1172 102.418 60.007 101.833 57.5281 100.511C56.0027 99.6976 55.723 99.6213 55.5959 99.9645C55.2908 100.753 57.8713 103.295 60.1976 104.477C62.2951 105.545 63.8333 105.914 66.1723 105.901C67.7232 105.888 68.0918 105.85 69.0961 105.545C70.9901 104.973 73.2147 103.74 75.1978 102.164C76.1639 101.388 78.5665 98.9349 79.4818 97.7781C82.5199 93.939 85.3801 88.5364 87.4395 82.7143C88.9776 78.3795 90.6175 71.96 91.5328 66.6336C92.0921 63.4302 92.2955 62.0065 92.2192 61.7014C92.0285 60.7861 90.7573 59.9853 89.7404 60.1251C89.2319 60.1886 89.2192 60.1886 89.3082 59.8581C89.3463 59.6675 89.4226 59.0573 89.4607 58.4852C89.5751 56.731 89.0158 55.4852 87.8081 54.8369C87.3886 54.6208 87.0581 54.5572 86.2573 54.5572C85.3166 54.5572 85.1513 54.5954 84.1598 55.0911C79.4436 57.392 74.5495 64.2819 72.3885 71.6549C72.0071 72.9388 71.9054 74.6041 72.1215 75.9007L72.2359 76.5363L71.2317 77.4643C70.0495 78.5829 69.0452 79.2821 68.613 79.2821C68.1427 79.2821 67.863 78.4939 67.7867 76.9304C67.7232 75.5956 68.0155 73.2312 68.5367 70.854C68.6766 70.2057 68.8799 69.3159 68.9689 68.8582C69.5791 66.0489 70.5071 62.6039 70.8122 61.981C71.1173 61.409 71.1427 60.481 70.8884 59.9725C70.7868 59.7819 70.4944 59.4386 70.2401 59.2098C69.8588 58.8793 69.6935 58.8157 69.1088 58.8157C68.6257 58.8157 68.3206 58.892 68.0028 59.1081C67.7104 59.2988 66.757 60.5954 65.1553 62.9726C62.6256 66.7353 61.5324 68.2226 59.3587 70.9557C57.9095 72.7608 55.723 75.0871 54.7315 75.888C53.9433 76.5109 53.8798 76.371 54.3374 74.96C55.9137 70.0659 61.5705 62.1082 65.6638 59.0446C69.185 56.4005 71.4478 56.5911 72.719 59.6675C73.2275 60.9005 73.469 61.1039 73.7486 60.5827C73.952 60.1886 73.6851 58.9302 73.1893 57.9895C72.0325 55.8157 69.8079 54.9513 67.113 55.625C64.9138 56.1716 62.0536 57.8623 59.4985 60.1251C55.6467 63.5192 51.8459 69.4811 50.6636 74.0066C50.2823 75.5066 50.1679 77.0066 50.3967 77.7566ZM81.0072 65.0446C81.5538 64.2438 82.1767 63.3794 82.3928 63.1378C82.7488 62.731 82.736 62.7565 82.3038 63.4556C81.8335 64.2056 80.1809 66.5192 79.9267 66.7608C79.7106 66.9769 79.9521 66.5828 81.0072 65.0446Z" fill="black"/>
<path d="M90.9928 79.3109C91.2089 80.1118 91.6156 80.633 92.2894 80.9508C93.0267 81.3194 94.0945 81.2432 95.0479 80.7728C96.6623 79.9847 99.3954 77.2897 102.103 73.8321C102.84 72.8914 103.489 72.0651 103.552 71.9888C103.603 71.9253 103.616 72.7261 103.578 73.7685C103.425 77.366 104.01 80.7855 105.014 82.2601C105.802 83.4042 107.353 83.7601 108.751 83.0991C109.768 82.6161 110.862 81.5355 113.798 78.0906C116.925 74.4422 121.146 68.4358 121.146 68.4358C121.146 68.4358 124.041 64.9432 124.626 64.7652C124.906 64.6762 125.579 64.7652 125.773 65.1625C126.281 66.6244 124.451 70.5778 123.167 73.3871C121.921 76.0821 122.099 77.5186 123.752 78.205C124.336 78.4465 124.858 78.4592 128.468 78.3448C130.133 78.2813 131.493 78.2813 131.493 78.3321C131.493 78.4211 128.684 82.4254 123.93 89.15C121.26 92.9128 119.035 96.2306 117.841 98.2391C117.002 99.6629 115.502 102.574 115.12 103.578C114.002 106.477 114.04 108.701 115.247 110.023C115.883 110.697 116.226 110.888 117.116 111.053C118.908 111.383 121.832 110.087 125.226 107.468C127.006 106.095 131.137 102.027 132.663 100.146C137.214 94.5018 140.01 88.7687 140.506 84.0017C140.659 82.5652 140.506 81.1161 140.087 79.9465C139.972 79.6415 139.883 79.3237 139.883 79.2347C139.883 79.1457 140.43 78.2813 141.104 77.3152C141.777 76.3363 143.837 73.2727 145.693 70.4888C147.536 67.7049 149.087 65.4549 149.125 65.493C149.188 65.5565 149.099 66.2049 148.744 68.0735C148.655 68.5947 148.591 69.9422 148.604 71.4803C148.616 73.6668 148.655 74.1626 148.883 75.0397C149.519 77.3533 150.727 78.955 152.303 79.5525C153.371 79.9593 154.909 79.972 156.091 79.5779C158.996 78.1605 159.11 76.9592 161.284 74.8236C163.458 72.688 165.613 70.1448 166.299 69.5727C168.422 67.7803 169.445 67.1837 170.22 67.082C170.525 67.0438 170.538 67.0693 170.576 67.8066C170.653 69.2303 170.284 71.2261 169.013 76.3236C168.136 79.8448 168.034 80.6203 168.428 81.3448C168.886 82.222 170.119 82.6033 171.059 82.1584C171.682 81.8533 172.369 81.0525 175.076 77.4168C177.581 74.0609 179.386 72.0524 180.898 70.9083C181.356 70.5651 181.826 70.2854 181.941 70.2854C182.284 70.2854 182.678 71.8108 183.059 74.6075C183.543 78.2304 184.343 80.1499 185.831 81.294C187.852 82.8322 190.649 82.5271 193.687 80.4423C194.182 80.0991 194.627 79.8194 194.678 79.8194C194.729 79.8194 195.149 80.1499 195.593 80.5694C197.767 82.5652 201.085 83.2517 204.835 82.5016C209.132 81.6372 214.395 78.5482 216.632 75.5736C217.064 74.9888 217.128 74.4041 216.759 74.2897C216.403 74.1753 216.022 74.3024 213.823 75.2049C207.988 77.6075 205.674 78.2304 202.445 78.2304C200.335 78.2304 199.712 78.0906 198.644 77.3787C197.755 76.7939 197.729 76.6668 198.327 75.866C198.619 75.4846 199.242 74.5058 199.725 73.6922C200.5 72.3956 200.805 71.7981 201.543 70.0947C201.924 69.2303 202.522 67.2218 202.7 66.2176C203.068 64.0946 202.827 62.1878 202.038 61.2599C201.276 60.3446 199.852 60.1031 198.632 60.6751C196.369 61.7302 194.068 65.6074 192.949 70.2854C192.721 71.2896 192.67 71.8617 192.657 73.7049V75.9041L192.085 76.4126C191.182 77.2007 189.721 78.116 189.085 78.294C187.648 78.7007 187.356 77.9507 187 73.082C186.86 71.0863 186.466 69.332 185.932 68.2896C185.284 67.0057 183.987 66.0777 182.602 65.8998C181.191 65.7218 179.042 66.6625 176.805 68.4294L175.458 69.4972L175.394 68.0862C175.292 65.5438 174.53 64.0565 172.877 63.1667C172.089 62.7345 172.025 62.7217 170.729 62.7345C169.165 62.7472 167.577 63.1667 165.622 64.7207C162.953 66.8433 166.756 63.9675 161.112 69.4464C159.193 71.3151 157.341 73.5516 155.195 72.3598C153.05 71.1681 154.273 67.0947 154.273 67.0947C155.659 61.2726 155.926 60.1031 156.218 58.5904C156.828 55.4632 156.777 54.6115 155.951 53.6454C154.972 52.5013 153.663 52.2344 152.316 52.8954C151.019 53.531 148.744 55.87 144.727 60.6751C141.549 64.5015 139.413 67.26 136.387 71.4803C133.998 74.7982 133.705 75.1668 133.413 75.1287C133.235 75.116 131.557 75.0651 129.675 75.027C127.807 74.9761 126.281 74.9253 126.281 74.9126C126.281 74.8872 126.739 73.9846 127.298 72.9041C128.671 70.26 129.676 65.8871 129.688 64.4379C129.701 63.1286 129.548 62.6455 128.824 61.8573C128.226 61.1836 127.425 60.8785 126.281 60.8785C125.201 60.8912 124.12 61.2217 122.341 62.0862C118.133 64.1328 113.468 71.1117 108.802 76.883L107.938 77.9635L108.014 76.1202C108.167 72.8914 109.171 67.4252 110.455 63.0014C110.696 62.1497 110.9 61.1963 110.9 60.8785C110.9 59.1243 109.222 58.0819 107.633 58.8446C106.895 59.2005 106.133 60.065 103.54 63.5353C100.705 67.3108 95.4928 73.9719 95.4293 73.9083C95.2767 73.7558 97.8572 67.5142 98.9886 65.315C101.01 61.3362 104.048 57.8149 105.459 57.8149C105.586 57.8149 105.942 58.0437 106.247 58.3234C107.048 59.0607 107.518 58.7683 107.023 57.8276C106.603 57.0014 105.472 56.442 104.556 56.6073C102.167 57.0522 98.7598 60.2048 96.1157 64.3998C93.8148 68.0608 91.7046 73.4888 90.9292 77.7728C90.8021 78.5101 90.8021 78.6118 90.9928 79.3109ZM120.091 105.04C121.222 103.349 123.942 99.7773 128.061 94.6162C130.057 92.0992 132.574 88.9085 133.642 87.5229C134.709 86.15 135.599 85.0186 135.625 85.0186C135.854 85.0186 133.603 89.3407 132.142 91.7306C129.536 95.9764 126.866 99.5103 124.12 102.345C122.62 103.896 120.459 105.752 119.544 106.299C119.061 106.578 119.035 106.629 120.091 105.04Z" fill="black"/>
<path d="M154.38 45.502C154.685 46.4323 155.355 47.0114 156.272 47.1538C157.19 47.2867 158.185 46.793 158.634 45.9767C159.169 44.9989 158.873 43.6889 157.974 43.0434C156.808 42.2175 155.211 42.5782 154.561 43.8313C154.351 44.2395 154.255 45.1223 154.38 45.502Z" fill="black"/>
</svg>
