<svg width="128" height="17" viewBox="0 0 128 17" fill="none" xmlns="http://www.w3.org/2000/svg">
<path d="M0.291323 10.0647C1.02169 12.4597 2.21066 14.1582 3.72235 14.9905C5.98139 16.2134 8.08756 15.1773 9.56528 12.12C10.6863 9.79298 10.9581 8.90974 10.7033 8.3832C10.1937 7.2282 8.80094 7.17725 8.25741 8.28129C8.08756 8.60401 7.71388 9.47026 7.42514 10.1836C6.67778 12.052 6.28712 12.5955 5.60771 12.6635C4.75845 12.7484 3.84124 11.9161 3.07691 10.3535C2.43147 9.06261 2.43147 9.06261 2.43147 6.93945C2.43147 5.00313 2.48242 4.71438 2.8561 3.96703C3.45058 2.79505 3.63742 2.71012 4.91132 3.04983C5.99837 3.33858 6.33808 3.32159 6.49095 2.91394C6.62683 2.57424 5.77756 1.65703 4.97926 1.30034C3.04294 0.417109 1.42934 1.41924 0.444191 4.1199C-0.0823528 5.54666 -0.150294 8.62099 0.291323 10.0647Z" fill="black"/>
<path d="M11.8702 14.0055C12.074 14.8378 12.7364 15.3644 13.6197 15.3644C14.9445 15.3474 18.2736 14.8888 18.6303 14.668C19.4626 14.1414 19.4286 12.9355 18.5794 12.3749C18.1717 12.1032 17.9849 12.1032 16.66 12.29C15.8448 12.3919 14.9785 12.5278 14.7067 12.5958L14.2481 12.6807V10.1163C14.2481 8.28184 13.9764 3.44104 13.8065 2.25208C13.7386 1.84443 13.5517 1.36884 13.3649 1.182C13.0592 0.876268 13.0082 0.859283 12.7195 1.13105C12.2948 1.52171 12.2439 1.8784 11.9551 7.16082C11.6834 12.3243 11.6834 13.1733 11.8702 14.0055Z" fill="black"/>
<path d="M20.234 7.0557C20.4888 11.0303 21.0663 14.3764 21.6098 14.9878C22.2213 15.6672 23.5801 15.3785 23.8009 14.5122C23.8689 14.2575 23.767 13.4252 23.5631 12.6099C23.2065 11.1152 22.3572 6.83353 22.0175 3.70824C21.7967 1.77192 21.5759 1.16045 21.0833 1.16045C20.4548 1.16045 20.268 1.97574 20.234 4.72736C20.2001 6.12015 20.2001 6.49519 20.234 7.0557Z" fill="black"/>
<path d="M24.7291 9.64303C25.0688 12.3267 26.1049 14.229 27.5996 14.8745C28.9075 15.435 30.1304 14.9934 31.3703 13.5496C32.882 11.8002 33.2557 10.4923 32.4574 9.71097C31.6761 8.91266 30.657 9.33729 29.9266 10.781C29.7058 11.2227 29.3151 11.7662 29.0603 12.004L28.6017 12.4286L28.2111 11.953C27.4298 11.0528 26.9881 8.58994 27.2769 6.63663C27.6675 3.76612 28.9414 2.59414 30.7419 3.4434C31.4383 3.78311 31.8629 3.66421 31.8629 3.13767C31.8629 2.20348 30.555 1.30326 29.2302 1.30326C27.8884 1.30326 26.4106 2.39032 25.6123 3.96995C24.9669 5.22686 24.5253 8.04641 24.7291 9.64303Z" fill="black"/>
<path d="M34.0218 14.695C34.3954 15.4594 35.0918 15.6972 35.6863 15.3065C36.2808 14.9158 36.4337 14.4063 36.3148 13.0305C36.2638 12.3681 36.2638 11.8245 36.3148 11.8245C36.3827 11.8245 37.6906 12.6228 39.2193 13.608C41.5802 15.1027 42.1407 15.3914 42.7012 15.3914C43.9072 15.3914 44.4847 14.2534 43.7543 13.3192C43.5675 13.0984 42.9051 12.6058 42.2596 12.2322C41.6312 11.8415 40.1704 10.9922 39.0324 10.3298C37.8944 9.65041 36.9093 9.02196 36.8583 8.93703C36.6885 8.64828 36.9772 8.37652 39.8137 6.23637C41.2745 5.13233 42.5993 4.06226 42.7692 3.87542C43.1768 3.41682 43.0919 2.75439 42.5993 2.68645C42.1577 2.61851 40.4082 3.48476 37.9963 4.96248C37.0282 5.55696 36.1959 6.03255 36.1789 6.01557C36.1619 5.9816 36.06 5.01344 35.9411 3.84145C35.7543 1.75226 35.4825 0.953956 35.0069 0.953956C34.3275 0.953956 34.1407 2.22785 33.8859 8.56336C33.6651 14.0836 33.6651 14.0156 34.0218 14.695Z" fill="black"/>
<path d="M49.2012 1.767C49.2316 1.87321 49.4895 2.02493 49.7474 2.10079L50.2329 2.26768L50.1874 4.95316C50.1571 6.44003 50.066 7.66897 49.9902 7.69932C49.2316 7.98759 49.1102 8.71585 49.7929 8.88275C50.0812 8.95861 50.1571 9.07998 50.1571 9.45929C50.1571 10.8248 50.3239 14.6937 50.3998 15.0882C50.5515 15.8013 51.0219 16.2261 51.7046 16.2261C52.1598 16.2261 52.3267 16.1502 52.5391 15.8164C52.8425 15.3613 52.8425 15.2095 52.5391 11.5682L52.3418 9.26205L54.4508 9.21653C56.5445 9.17102 56.5597 9.17102 56.9238 8.7462C57.379 8.21517 57.379 7.82069 56.9694 7.41105C56.6507 7.09243 56.5445 7.07726 54.8756 7.18346C53.9046 7.24415 52.9184 7.30484 52.6605 7.32001L52.2053 7.35036L52.0232 5.37798C51.9322 4.28558 51.8412 3.19318 51.8412 2.93526L51.826 2.44975L53.9956 2.52561C56.8632 2.64699 58.1224 2.49526 58.5928 2.0401C59.0479 1.58494 59.0631 1.00839 58.6383 0.583572C58.3349 0.280129 58.1983 0.264957 56.9238 0.340818C53.8135 0.538056 50.946 0.795983 50.1874 0.932532C49.4136 1.06908 49.0647 1.37252 49.2012 1.767Z" fill="black"/>
<path d="M57.8711 11.2291C58.3674 12.9887 59.8233 14.5798 61.4778 15.1413C64.9522 16.3019 67.682 11.4912 66.6563 5.98793C66.375 4.49044 65.829 3.34861 64.9852 2.52499C64.0091 1.55162 62.5697 1.10238 61.4447 1.42059C60.1046 1.81368 58.5825 4.05991 57.9041 6.60564C57.5898 7.82235 57.5732 10.1435 57.8711 11.2291ZM59.7059 7.07485C59.8383 6.38226 60.1042 5.63597 60.4455 5.04734C60.9576 4.32791 61.0718 3.87008 61.9817 3.87008C62.809 3.87008 63.4364 4.3083 63.9162 4.85113C65.5045 6.64812 64.3541 12.8957 62.5507 12.8957C61.4257 12.8957 59.9706 11.3847 59.7059 9.88719C59.5405 8.85767 59.4577 8.42259 59.7059 7.07485Z" fill="black"/>
<path d="M67.9001 13.2483C67.976 13.9766 68.1125 14.7807 68.2187 15.0234C68.5525 15.8427 69.4325 16.0248 70.0242 15.3876C70.4187 14.9779 70.4339 14.6745 70.1911 12.96C70.1001 12.3683 70.0242 11.8221 70.0242 11.7311C70.0242 11.6249 71.238 12.1711 72.7097 12.9297C74.9248 14.0524 75.4862 14.28 75.8352 14.189C76.7607 13.9614 77.1248 13.0511 76.6089 12.3076C76.4724 12.0952 75.289 11.4276 73.8476 10.7297L71.329 9.50076L72.7097 8.37432C73.7262 7.55502 74.1499 7.05434 74.4988 6.32608C75.5154 4.14129 73.089 0.750197 70.5704 0.750197C69.1594 0.750197 68.0822 0.750197 67.6877 1.64545C67.7181 1.79717 67.6877 2.19567 67.6877 2.79844C67.6877 3.70877 67.8243 4.9036 67.7939 8.10492C67.7939 10.1835 67.8394 12.5049 67.9001 13.2483ZM69.4173 2.26741C70.9952 2.28259 72.7097 3.73164 72.7097 4.733C72.7097 5.73436 71.7235 6.40564 70.5704 7.13391C70.0697 7.45252 69.6449 7.69528 69.6297 7.6801C69.5994 7.66493 69.4996 6.4361 69.4086 5.52577C69.3024 4.61544 69.4173 2.26741 69.4173 2.26741Z" fill="black"/>
<path d="M81.9114 5.7538C81.9114 5.7538 82.0136 8.91258 82.2174 10.8829C82.5911 14.7046 82.2174 14.7985 83.3127 15.401C84.714 14.8622 84.2896 14.6196 84.2896 10.6451C84.2896 8.31809 84.3406 7.75758 84.4934 7.92743C84.6123 8.06331 84.3106 7.79155 85.024 8.60684C86.9603 10.764 87.7886 10.9768 89.3637 11.2952C89.5548 11.0405 90.6163 10.2544 90.956 8.11427C91.2618 6.19493 91.7926 5.12535 91.9115 5.24425C91.9454 5.27822 92.2897 7.43486 92.5784 9.43912C92.8672 11.4434 93.1899 13.4646 93.2918 13.9402C93.6145 15.4519 94.4465 16.2162 95.3128 15.4009C95.8903 14.8744 95.9073 14.5177 95.5506 12.5644C95.3637 11.5623 95.1259 10.1185 95.024 9.37118C94.6164 6.41574 94.1408 3.71509 93.886 2.7809C93.2066 0.284061 91.4064 0.0802377 90.2175 2.4242C89.6739 3.52825 88.9776 5.60045 88.6718 7.12912L88.468 8.11427L87.7886 7.46883C87.1941 6.89133 84.8331 4.17369 83.831 2.89979C83.6442 2.662 83.2535 2.4242 82.9478 2.37325C82.4892 2.28832 82.2299 3.01493 82.2299 3.01493C81.9114 4.5436 81.9114 5.7538 81.9114 5.7538Z" fill="black"/>
<path d="M96.2755 9.74316C96.8132 12.7582 99.7055 15.7002 101.764 15.3165C102.524 15.1886 103.581 14.2932 104.026 13.4161C104.433 12.6486 104.897 10.803 105.064 9.3777C105.212 8.20821 104.841 6.27126 104.211 4.90077C103.377 3.0369 100.948 1.3375 99.1122 1.3375C97.5363 1.3375 96.498 2.26943 96.7205 3.47546C96.7761 3.87747 96.7205 4.59012 96.5721 5.17487C96.2013 6.5819 96.0715 8.5554 96.2755 9.74316ZM98.797 4.57185C98.9268 4.35257 99.5758 4.42567 100.151 4.71804C100.762 5.02868 101.374 5.75961 101.745 6.61845C102.264 7.84275 101.912 11.9908 101.263 12.3928C101.003 12.5572 99.6128 11.2233 99.2049 10.4193C99.001 10.0355 98.76 9.35942 98.6672 8.95741C98.5189 8.24476 98.6116 4.8825 98.797 4.57185Z" fill="black"/>
<path d="M105.471 6.27641C106.304 12.3911 106.779 14.5482 107.374 15.0238C108.24 15.7032 109.48 15.2616 109.48 14.2595C109.48 13.9707 109.378 13.1554 109.242 12.4251C109.106 11.6947 109.055 11.1342 109.106 11.1512C109.157 11.1852 110.703 12.1024 112.537 13.1894C115.102 14.7351 115.985 15.1937 116.444 15.1937C117.684 15.1937 118.227 13.8179 117.344 12.9346C117.106 12.6968 116.019 11.9835 114.932 11.355C113.828 10.7265 112.656 10.0132 112.299 9.77537L111.654 9.36773L112.401 8.58641C113.964 6.9728 114.423 5.10443 113.658 3.43987C112.605 1.0959 110.108 0.739211 108.172 2.64156C107.764 3.04921 107.374 3.50781 107.323 3.67766C107.17 4.18722 106.983 4.01737 106.762 3.1681C106.456 1.96215 105.964 1.23178 105.505 1.29973C105.166 1.35068 105.132 1.45259 105.098 2.3698C105.081 2.93031 105.25 4.67979 105.471 6.27641ZM109.565 5.22332C110.346 3.8645 111.161 3.81354 111.161 5.10443C111.161 5.80082 111.076 5.97067 110.499 6.54817C110.057 6.98979 109.684 7.2106 109.378 7.2106C108.936 7.2106 108.919 7.17663 109.038 6.56516C109.089 6.22545 109.344 5.61398 109.565 5.22332Z" fill="black"/>
<path d="M117.47 3.94471L117.878 4.13155L117.946 8.9214L117.997 13.6943L118.472 14.6624C118.863 15.4777 119.084 15.6985 119.814 16.0552C120.63 16.4629 120.867 16.4968 122.906 16.4968C124.689 16.4968 125.25 16.4289 125.725 16.1911C126.71 15.6985 126.863 14.4246 125.98 13.8471C125.64 13.6263 125.063 13.5584 123.143 13.5414L120.714 13.5244L120.494 12.1146C120.358 11.3333 120.086 10.1571 120.12 10.1231C120.137 10.0891 120.884 10.1401 121.768 10.242C123.772 10.4628 124.757 10.3269 125.114 9.7834C125.453 9.25686 125.368 8.88318 124.825 8.47553C124.383 8.13583 124.315 8.13583 122.277 8.40759C121.139 8.56046 120.154 8.6284 120.103 8.57744C120.018 8.49252 119.797 4.25045 119.865 4.14854C119.882 4.11457 121.309 3.94471 123.024 3.75787C126.625 3.36721 126.897 3.31626 127.288 2.95957C127.763 2.53494 127.678 1.61773 127.169 1.27803C126.659 0.93832 125.946 1.00626 122.277 1.73663C120.901 2.00839 119.746 2.2292 119.712 2.2292C119.678 2.2292 119.61 1.83854 119.559 1.34597C119.441 0.326851 119.084 -0.148737 118.642 0.123027C118.32 0.326851 118.15 0.785453 117.997 1.90648C117.929 2.51795 117.81 2.73876 117.487 2.87464C116.944 3.12942 116.927 3.70692 117.47 3.94471Z" fill="black"/>
</svg>
