<svg width="159" height="21" viewBox="0 0 159 21" fill="none" xmlns="http://www.w3.org/2000/svg">
<path d="M0.36306 12.482C1.27315 15.4662 2.75468 17.5827 4.63835 18.6198C7.45326 20.1437 10.0777 18.8526 11.919 15.0429C13.3159 12.1434 13.6545 11.0428 13.3371 10.3867C12.7021 8.94748 10.9666 8.88399 10.2893 10.2597C10.0777 10.6618 9.61207 11.7412 9.25227 12.6302C8.32102 14.9583 7.83423 15.6356 6.98764 15.7202C5.9294 15.826 4.7865 14.789 3.83408 12.8418C3.02982 11.2333 3.02982 11.2333 3.02982 8.58768C3.02982 6.1749 3.09332 5.81509 3.55894 4.88384C4.29971 3.42347 4.53252 3.31765 6.11988 3.74094C7.47443 4.10075 7.89772 4.07958 8.08821 3.57163C8.25752 3.14833 7.19929 2.00543 6.20454 1.56097C3.79175 0.460403 1.7811 1.70913 0.553543 5.07433C-0.102566 6.85217 -0.187225 10.683 0.36306 12.482Z" fill="black"/>
<path d="M14.7912 17.3926C15.0451 18.4297 15.8706 19.0858 16.9711 19.0858C18.622 19.0646 22.7703 18.4932 23.2147 18.218C24.2518 17.5619 24.2095 16.0592 23.1512 15.3608C22.6433 15.0221 22.4105 15.0221 20.7596 15.255C19.7437 15.3819 18.6643 15.5513 18.3257 15.6359L17.7542 15.7417V12.5463C17.7542 10.2605 17.4156 4.22854 17.2039 2.747C17.1193 2.23905 16.8865 1.64643 16.6537 1.41362C16.2727 1.03265 16.2092 1.01149 15.8494 1.35013C15.3203 1.83692 15.2568 2.28138 14.897 8.86362C14.5583 15.2977 14.5583 16.3555 14.7912 17.3926Z" fill="black"/>
<path d="M25.213 8.73265C25.5305 13.6852 26.2501 17.8547 26.9273 18.6166C27.6893 19.4632 29.3825 19.1034 29.6576 18.024C29.7423 17.7065 29.6153 16.6694 29.3613 15.6535C28.9168 13.791 27.8586 8.4558 27.4353 4.56148C27.1602 2.1487 26.885 1.38676 26.2712 1.38676C25.4881 1.38676 25.2553 2.40267 25.213 5.83137C25.1707 7.56688 25.1707 8.03421 25.213 8.73265Z" fill="black"/>
<path d="M30.8141 11.9566C31.2374 15.3006 32.5285 17.6711 34.391 18.4753C36.0207 19.1738 37.5445 18.6235 39.0896 16.8245C40.9732 14.6445 41.4389 13.0148 40.4441 12.0412C39.4705 11.0465 38.2006 11.5756 37.2906 13.3746C37.0154 13.9249 36.5286 14.6022 36.2112 14.8985L35.6397 15.4276L35.1529 14.835C34.1793 13.7132 33.629 10.6444 33.9888 8.2104C34.4756 4.63355 36.063 3.17318 38.3065 4.23142C39.1742 4.65472 39.7033 4.50656 39.7033 3.85046C39.7033 2.68639 38.0737 1.56466 36.4228 1.56466C34.7508 1.56466 32.9094 2.91921 31.9147 4.88753C31.1104 6.45372 30.5602 9.96708 30.8141 11.9566Z" fill="black"/>
<path d="M42.3933 18.2517C42.859 19.2041 43.7267 19.5004 44.4675 19.0136C45.2083 18.5268 45.3987 17.8919 45.2506 16.1775C45.1871 15.3521 45.1871 14.6748 45.2506 14.6748C45.3353 14.6748 46.9649 15.6696 48.8698 16.8971C51.8117 18.7596 52.5101 19.1194 53.2086 19.1194C54.7113 19.1194 55.4309 17.7014 54.5208 16.5373C54.288 16.2622 53.4625 15.6484 52.6583 15.1828C51.8752 14.696 50.055 13.6377 48.637 12.8123C47.2189 11.9657 45.9914 11.1826 45.9279 11.0768C45.7162 10.717 46.076 10.3784 49.6105 7.7116C51.4307 6.33589 53.0816 5.0025 53.2932 4.76969C53.8012 4.19824 53.6953 3.37282 53.0816 3.28816C52.5313 3.2035 50.3513 4.2829 47.3459 6.12424C46.1395 6.86501 45.1024 7.45762 45.0813 7.43646C45.0601 7.39413 44.9331 6.18773 44.785 4.72736C44.5522 2.12409 44.2135 1.12935 43.6209 1.12935C42.7743 1.12935 42.5415 2.71671 42.224 10.6112C41.9489 17.4897 41.9489 17.4051 42.3933 18.2517Z" fill="black"/>
<path d="M61.3081 2.14245C61.3459 2.27478 61.6673 2.46384 61.9887 2.55837L62.5937 2.76633L62.537 6.11261C62.4992 7.96535 62.3857 9.4967 62.2912 9.53451C61.3459 9.89372 61.1947 10.8012 62.0454 11.0091C62.4046 11.1037 62.4992 11.2549 62.4992 11.7276C62.4992 13.4291 62.7071 18.25 62.8016 18.7415C62.9907 19.6301 63.5768 20.1594 64.4275 20.1594C64.9947 20.1594 65.2027 20.0649 65.4673 19.649C65.8454 19.0818 65.8454 18.8928 65.4673 14.3554L65.2216 11.4818L67.8494 11.4251C70.4584 11.3683 70.4773 11.3683 70.931 10.839C71.4982 10.1773 71.4982 9.68576 70.9877 9.17531C70.5907 8.77829 70.4584 8.75938 68.3788 8.89172C67.1688 8.96734 65.94 9.04297 65.6186 9.06187L65.0514 9.09968L64.8245 6.64196C64.7111 5.28076 64.5977 3.91957 64.5977 3.59817L64.5788 2.99319L67.2823 3.08772C70.8554 3.23897 72.4246 3.04991 73.0106 2.48274C73.5778 1.91558 73.5967 1.19717 73.0674 0.667813C72.6892 0.289702 72.5191 0.270797 70.931 0.365324C67.0554 0.611096 63.4822 0.932491 62.537 1.10264C61.5728 1.27279 61.138 1.6509 61.3081 2.14245Z" fill="black"/>
<path d="M72.1111 13.9329C72.7296 16.1254 74.5438 18.108 76.6053 18.8078C80.9346 20.2539 84.3362 14.2595 83.0581 7.40202C82.7076 5.53605 82.0273 4.11325 80.9759 3.08697C79.7595 1.87409 77.966 1.3143 76.5641 1.71082C74.8942 2.20063 72.9976 4.99959 72.1523 8.17174C71.7606 9.68784 71.74 12.5801 72.1111 13.9329ZM74.3975 8.7564C74.5624 7.89339 74.8937 6.96347 75.3191 6.22999C75.9572 5.33353 76.0994 4.76305 77.2333 4.76305C78.2641 4.76305 79.0459 5.30909 79.6437 5.9855C81.6229 8.22467 80.1894 16.0096 77.9422 16.0096C76.5404 16.0096 74.7273 14.1267 74.3975 12.2608C74.1913 10.9779 74.0882 10.4358 74.3975 8.7564Z" fill="black"/>
<path d="M84.608 16.449C84.7026 17.3565 84.8727 18.3585 85.005 18.661C85.421 19.6819 86.5175 19.9087 87.2548 19.1147C87.7463 18.6042 87.7652 18.2261 87.4628 16.0898C87.3493 15.3525 87.2548 14.6719 87.2548 14.5585C87.2548 14.4261 88.7672 15.1067 90.6011 16.052C93.3613 17.451 94.0608 17.7346 94.4956 17.6211C95.6489 17.3376 96.1026 16.2032 95.4598 15.2769C95.2897 15.0122 93.815 14.1803 92.019 13.3107L88.8807 11.7793L90.6011 10.3757C91.8677 9.35481 92.3956 8.73093 92.8304 7.82346C94.0971 5.10107 91.0737 0.87554 87.9354 0.87554C86.1772 0.87554 84.8349 0.87554 84.3433 1.99108C84.3812 2.18013 84.3434 2.6767 84.3434 3.42779C84.3434 4.56212 84.5135 6.05096 84.4757 10.04C84.4757 12.6301 84.5324 15.5226 84.608 16.449ZM86.4986 2.76609C88.4648 2.785 90.6011 4.59062 90.6011 5.83838C90.6011 7.08615 89.3722 7.92261 87.9354 8.83007C87.3115 9.22709 86.7822 9.52958 86.7633 9.51067C86.7254 9.49177 86.6011 7.96055 86.4876 6.82622C86.3553 5.69189 86.4986 2.76609 86.4986 2.76609Z" fill="black"/>
<path d="M102.067 7.11037C102.067 7.11037 102.195 11.0464 102.449 13.5015C102.914 18.2636 102.449 18.3806 103.813 19.1314C105.559 18.46 105.031 18.1578 105.031 13.2052C105.031 10.3056 105.094 9.60721 105.285 9.81886C105.433 9.98818 105.057 9.64954 105.946 10.6654C108.358 13.3534 109.391 13.6185 111.353 14.0154C111.591 13.6979 112.914 12.7184 113.337 10.0517C113.718 7.66005 114.38 6.32728 114.528 6.47543C114.57 6.51776 114.999 9.20508 115.359 11.7025C115.719 14.2 116.121 16.7186 116.248 17.3112C116.65 19.1949 117.687 20.1473 118.766 19.1314C119.486 18.4753 119.507 18.0308 119.063 15.5968C118.83 14.3481 118.533 12.5491 118.406 11.6179C117.899 7.93519 117.306 4.56999 116.988 3.40593C116.142 0.294706 113.899 0.0407278 112.417 2.96147C111.74 4.33718 110.872 6.91928 110.491 8.82411L110.237 10.0517L109.391 9.24741C108.65 8.52781 105.708 5.14144 104.459 3.55408C104.226 3.25778 103.74 2.96147 103.359 2.89797C102.787 2.79215 102.464 3.69755 102.464 3.69755C102.067 5.60238 102.067 7.11037 102.067 7.11037Z" fill="black"/>
<path d="M119.966 12.0813C120.636 15.8383 124.24 19.5042 126.804 19.026C127.751 18.8667 129.068 17.7509 129.623 16.658C130.131 15.7017 130.709 13.402 130.917 11.6259C131.101 10.1687 130.639 7.75509 129.854 6.04737C128.814 3.72486 125.788 1.60729 123.5 1.60729C121.537 1.60729 120.243 2.76854 120.52 4.27134C120.589 4.77227 120.52 5.66028 120.335 6.38891C119.873 8.14217 119.712 10.6013 119.966 12.0813ZM123.108 5.63751C123.269 5.36428 124.078 5.45536 124.794 5.81967C125.557 6.20675 126.319 7.11754 126.781 8.18771C127.428 9.71327 126.989 14.882 126.18 15.3829C125.857 15.5878 124.124 13.9257 123.616 12.9238C123.362 12.4456 123.061 11.6032 122.946 11.1022C122.761 10.2142 122.877 6.0246 123.108 5.63751Z" fill="black"/>
<path d="M131.424 7.76151C132.461 15.3808 133.054 18.0688 133.795 18.6614C134.874 19.508 136.419 18.9577 136.419 17.709C136.419 17.3492 136.292 16.3332 136.123 15.4232C135.954 14.5131 135.89 13.8146 135.954 13.8358C136.017 13.8781 137.943 15.021 140.229 16.3756C143.425 18.3016 144.525 18.873 145.097 18.873C146.642 18.873 147.319 17.1587 146.218 16.0581C145.922 15.7618 144.568 14.8729 143.213 14.0898C141.837 13.3067 140.377 12.4178 139.933 12.1215L139.128 11.6135L140.06 10.6399C142.007 8.62926 142.578 6.30114 141.626 4.22699C140.313 1.30625 137.202 0.861786 134.789 3.23224C134.282 3.7402 133.795 4.31165 133.731 4.52329C133.541 5.15824 133.308 4.94659 133.033 3.88835C132.652 2.38565 132.038 1.47556 131.467 1.56022C131.043 1.62372 131.001 1.75071 130.959 2.89361C130.937 3.59204 131.149 5.77202 131.424 7.76151ZM136.525 6.44929C137.499 4.75611 138.514 4.69261 138.514 6.30114C138.514 7.16889 138.409 7.38054 137.689 8.10014C137.139 8.65043 136.673 8.92557 136.292 8.92557C135.742 8.92557 135.721 8.88324 135.869 8.12131C135.932 7.69801 136.25 6.93608 136.525 6.44929Z" fill="black"/>
<path d="M146.376 4.85605L146.884 5.08886L146.968 11.0573L147.032 17.0046L147.625 18.211C148.111 19.2269 148.386 19.5021 149.297 19.9465C150.312 20.4545 150.609 20.4968 153.149 20.4968C155.371 20.4968 156.069 20.4122 156.662 20.1159C157.889 19.5021 158.08 17.9147 156.979 17.1951C156.556 16.92 155.836 16.8353 153.445 16.8142L150.418 16.793L150.143 15.0363C149.974 14.0627 149.635 12.5971 149.678 12.5547C149.699 12.5124 150.63 12.5759 151.731 12.7029C154.228 12.978 155.456 12.8087 155.9 12.1314C156.323 11.4753 156.217 11.0097 155.54 10.5018C154.99 10.0785 154.905 10.0785 152.365 10.4171C150.947 10.6076 149.72 10.6922 149.656 10.6287C149.551 10.5229 149.275 5.23701 149.36 5.11002C149.381 5.0677 151.159 4.85605 153.297 4.62323C157.784 4.13644 158.122 4.07295 158.609 3.62849C159.202 3.09937 159.096 1.95647 158.461 1.53318C157.826 1.10988 156.937 1.19454 152.365 2.10462C150.651 2.44326 149.212 2.7184 149.17 2.7184C149.127 2.7184 149.043 2.23161 148.979 1.61783C148.831 0.347948 148.386 -0.244666 147.836 0.0939706C147.434 0.347948 147.222 0.919397 147.032 2.31627C146.947 3.07821 146.799 3.35335 146.397 3.52267C145.72 3.84014 145.699 4.55974 146.376 4.85605Z" fill="black"/>
</svg>
