<svg width="146" height="81" viewBox="0 0 146 81" fill="none" xmlns="http://www.w3.org/2000/svg">
<path d="M1.20197 32.9009C1.88494 35.8984 4.12684 38.3432 7.22765 39.4492C9.03867 40.0918 10.1643 40.2443 12.4338 40.137C13.9214 40.0583 14.6068 39.9534 16.0358 39.5826C19.932 38.5623 24.0135 36.5761 27.8436 33.8479C28.4515 33.4101 28.8044 33.2363 28.8596 33.3446C28.8987 33.4402 28.9881 33.7437 29.0747 34.0191C29.2647 34.7384 29.8494 35.7051 30.5291 36.4365C32.2548 38.305 36.7258 39.343 40.0762 38.6415C44.5573 37.6955 48.2658 34.9358 51.0913 30.4434C51.9621 29.0752 53.1712 26.3446 53.5585 24.8787L53.7815 23.9944L54.9387 23.4217C58.044 21.8926 61.9663 19.1985 65.222 16.3525C65.9705 15.6895 66.6008 15.1789 66.6329 15.2043C66.665 15.2297 66.5587 15.9476 66.393 16.8126C65.9637 19.0472 65.7147 21.0104 65.3208 25.5365C64.2782 37.0908 64.2781 37.9832 65.317 38.7527C66.2113 39.4079 68.8346 39.5658 71.1261 36.8501C74.8089 32.4921 78.6624 26.8721 82.8669 19.7188C87.4396 11.9511 88.9148 10.0719 89.2523 10.0412C89.5017 10.0185 89.4569 9.30722 89.4332 9.06858C89.3662 8.39476 87.0583 7.8355 86.3267 8.36952C84.6119 9.58793 79.7556 15.9932 73.3128 25.5034C69.5683 31.0285 67.2209 34.3725 67.1245 34.2963C67.0441 34.2328 67.2624 31.9607 67.8248 26.8952C68.5706 20.099 69.0509 17.3356 69.9352 14.4647C70.6866 12.0449 70.7572 11.7127 70.6944 11.081C70.5828 9.95796 69.6955 9.37296 68.5237 9.64956C67.8731 9.80791 67.4581 10.1007 62.8942 13.788C60.9208 15.3841 58.227 17.329 56.1788 18.6202C55.4402 19.0841 54.812 19.467 54.7827 19.4697C54.7387 19.4737 54.6298 18.6762 54.5307 17.6795C54.3743 16.1073 54.2954 15.7603 53.8197 14.6988C53.1743 13.2702 52.3464 12.2406 51.1468 11.3441C49.2444 9.93075 46.5131 9.41438 44.4756 10.0672C43.9585 10.2276 43.8677 10.2075 43.5288 9.92674C42.7198 9.23546 41.4236 9.15509 40.133 9.72581C37.2387 10.9949 32.8745 16.6897 30.6057 22.1655C29.8411 24.0057 29.7495 24.1273 28.6454 25.2335C26.8634 26.9679 24.0466 29.4623 22.5316 30.6059C19.213 33.1176 15.0986 35.2201 12.4015 35.7913C9.12436 36.4861 6.25271 35.6001 4.99457 33.519C4.60476 32.8746 4.50839 32.5009 4.31431 31.1445C4.13073 29.7448 4.13427 29.3337 4.33148 28.0409C4.85523 24.8203 5.99731 22.0109 8.2162 18.5652C9.91934 15.8889 12.716 12.7447 14.1283 11.908C15.9025 10.84 17.2202 11.5841 17.8138 13.9807C17.9535 14.492 18.1197 14.9727 18.2161 15.0489C18.5375 15.303 18.7856 14.9688 18.8199 14.2716C18.8935 12.4801 18.058 10.9271 16.6593 10.2612C15.9773 9.95496 15.7663 9.9175 14.7832 10.007C13.7854 10.0978 13.5416 10.1766 12.478 10.7975C10.2657 12.0753 7.60041 14.7542 5.54787 17.7881C2.00746 22.983 0.303912 28.9315 1.20197 32.9009ZM33.0132 30.4453C33.1418 29.6545 33.2292 29.4908 34.13 28.5731C35.6869 26.9583 37.7079 24.6496 38.4096 23.6651C38.7597 23.1658 39.1329 22.7494 39.2209 22.7413C39.3076 22.7193 39.4885 22.9011 39.631 23.1431C39.9552 23.7227 41.3343 24.7871 42.2755 25.1689C43.6176 25.7125 45.5712 26.0022 47.172 25.8707L48.5981 25.7692L48.3242 26.2899C45.2259 32.5069 41.1233 35.4724 36.3637 34.9565C34.9725 34.814 33.8337 34.3793 33.4243 33.8358C33.0016 33.3077 32.8118 31.696 33.0132 30.4453ZM42.2351 18.0618C43.0989 16.6234 44.0886 14.6635 44.3269 13.9336C44.4926 13.3661 44.8853 13.1462 45.8244 13.0608C47.4091 12.9166 48.8254 13.6093 49.7147 14.959C50.6592 16.417 50.8176 18.159 50.2177 20.7633L49.9374 21.9645L49.0101 22.318C48.34 22.5773 47.5693 22.7182 46.2501 22.8525C44.5347 23.0227 44.3705 23.0093 43.5579 22.7291C42.1598 22.2189 41.6876 21.6387 41.5494 20.2489C41.4601 19.3505 41.4706 19.307 42.2351 18.0618Z" fill="black"/>
<path d="M82.1658 29.5948C82.9568 31.929 85.494 33.3843 88.7775 33.3843C93.1355 33.3843 99.7621 30.6322 105.672 26.3672C107.762 24.8543 112.045 20.7766 113.597 18.8314C115 17.0591 116.373 15.0275 117.254 13.3705C117.642 12.65 118.015 12.0593 118.06 12.0593C118.254 12.0593 119.269 13.0247 119.911 13.8171C120.717 14.7825 120.97 15.4597 120.881 16.3819C120.776 17.4626 120.06 18.7017 117.373 22.6065C115.985 24.6093 114.508 26.9147 114.075 27.7216C112.627 30.4449 113.687 36.1553 114.448 35.9968C114.582 35.9679 114.821 35.5645 115.015 35.017C115.463 33.8066 116.359 32.092 117.373 30.5502C118.12 29.412 118.866 28.4322 121.925 24.5418C124.164 21.7321 124.985 20.0607 125 18.3748C125 16.6314 122.314 12.8806 120.269 10.8489L118.955 9.53773L119.209 8.6732C119.761 6.74243 119.612 4.76842 118.806 3.24109C118.344 2.34775 116.791 0.93569 115.821 0.489017C114.582 -0.0729251 113.672 -0.144972 112.732 0.244065C111.254 0.863643 110.418 2.20366 110.404 3.99035C110.404 4.85488 110.463 5.2151 110.762 5.79145C111.12 6.51189 112.687 8.15449 113.806 8.9902L114.403 9.42246L113.911 10.2726C111.374 14.624 105.404 20.791 100.314 24.3067C96.1056 27.2029 91.2401 29.4074 88.5984 29.5948C85.7776 29.8109 85.0164 29.1193 85.5985 26.8859C85.9269 25.69 87.2253 23.0676 88.2253 21.6267C92.061 16.1081 97.2265 12.705 101.047 11.8549C101.898 11.6675 103.73 11.9053 104.237 12.1791C105.416 12.7842 103.687 14.3152 100.419 16.073C98.8816 16.9087 97.2548 17.4419 95.6429 17.6436C94.9564 17.73 94.3295 17.8741 94.225 17.9606C93.4937 18.6378 96.3593 19.768 98.5383 19.2348C100.971 18.6441 104.508 16.5836 105.866 14.9843C107.896 12.5924 108.568 9.04874 105.866 8.12658C102.852 7.10356 99.0308 6.95856 94.225 10.3878C88.2551 14.6528 84.1508 19.768 82.4046 25.1136C81.9867 26.3816 81.8673 28.7158 82.1658 29.5948ZM113.463 3.32755C113.717 3.02496 113.941 3.0826 114.597 3.63013C115.373 4.26412 115.762 5.28714 115.612 6.23812C115.568 6.58393 115.478 6.8721 115.448 6.8721C115.209 6.8721 113.926 5.70499 113.568 5.14305C113.105 4.46584 113.075 3.77422 113.463 3.32755Z" fill="black"/>
<path d="M37.3511 73.4987C38.1286 76.97 40.3197 79.2459 43.9667 80.355C46.6667 81.176 50.5541 80.6719 53.6499 79.1019L54.4556 78.6841L55.0635 79.2171C58.2865 81.9827 64.2377 80.7727 71.4329 75.9041C73.7937 74.2909 75.914 72.5768 78.6564 70.0417C79.6742 69.091 79.8014 69.0046 79.7166 69.3647C79.1371 71.7558 78.9957 74.579 79.4056 75.7889C79.759 76.8548 80.7344 77.8343 81.7381 78.18C84.3815 79.073 87.8589 77.1429 92.5238 72.2167C94.0222 70.6322 94.2342 70.4594 94.1494 70.8627C94.0363 71.4533 94.2625 72.8793 94.6159 73.7003C94.9693 74.5646 95.9305 75.6017 96.7363 76.0194C99.0829 77.2293 101.726 76.9844 105.218 75.256C105.953 74.8814 106.603 74.5646 106.66 74.5357C106.73 74.5069 106.773 74.6366 106.773 74.8238C106.773 75.2848 107.112 76.3651 107.48 77.0853C108.469 79.073 111.197 80.2686 113.813 79.8509C116.145 79.4764 118.576 78.4249 121.262 76.5955C126.337 73.153 132.486 66.2246 136.176 59.8292L137.349 57.7838L137.688 58.1871C137.872 58.4032 138.452 59.2386 138.975 60.0308C141.01 63.0701 141.717 63.2861 141.038 65.6052C140.558 67.2328 139.794 68.4284 137.519 71.1364C135.257 73.8155 134.734 74.5357 134.14 75.8177C133.532 77.1285 133.377 78.0647 133.688 78.4825C133.886 78.7273 136.642 81.177 136.769 80.9898C136.84 80.8746 136.91 80.6585 136.91 80.5145C136.91 80.1976 137.518 78.9732 138.084 78.109C138.324 77.7489 139.653 76.2796 141.038 74.8392C144.869 70.8637 145.986 68.8615 146 65.9375C146.028 62.711 141.83 59.4691 139.031 55.9689L138.551 55.3639L139.399 53.1601C139.879 51.9501 140.416 50.2937 140.614 49.487C141.561 45.6555 140.586 42.9044 137.759 41.4928C136.897 41.0606 136.713 41.0174 135.469 41.0174C134.267 41.0174 134.041 41.0606 133.348 41.4351C131.808 42.2418 130.832 43.639 130.436 45.5835C130.012 47.6577 130.691 49.6023 132.854 52.4831L133.348 53.1457L132.175 55.047C129.15 59.9588 124.259 66.4406 121.064 69.7968C118.435 72.548 116.908 73.8011 114.901 74.8382C112.979 75.8321 111.523 76.0338 110.858 75.3568C110.547 75.0399 110.491 73.8876 110.731 72.4183C110.844 71.7125 110.957 71.4677 111.339 71.122C111.593 70.8771 112.526 70.0417 113.403 69.2494C118.477 64.6545 123.595 57.6109 124.514 53.9091C125.079 51.6909 124.146 49.7463 122.04 48.738C121.375 48.4211 121.064 48.3635 119.919 48.3635C118.732 48.3635 118.477 48.4067 117.728 48.7812C116.597 49.343 114.746 51.2587 113.53 53.1169C111.212 56.6891 108.907 62.1914 107.692 67.06C107.48 67.9099 107.352 68.1115 106.716 68.6877C105.543 69.7824 103.536 71.1652 102.179 71.8422C100.638 72.62 99.3797 72.8361 98.7719 72.4183C98.4326 72.1879 98.4043 72.1159 98.4892 71.4677C98.6164 70.4594 99.5494 67.809 100.539 65.6052C101.641 63.1565 106.108 54.1972 107.31 52.0366C107.819 51.1291 108.37 50.1208 108.554 49.8039L108.865 49.2134L110.929 49.0405C116.541 48.5364 122.845 47.2112 126.464 45.7564C128.231 45.0506 129.009 44.5176 128.938 44.0711C128.853 43.4805 127.298 43.4373 123.595 43.9127C119.481 44.4312 114.774 44.9353 112.922 45.0506C112.145 45.0938 111.339 45.1658 111.127 45.209L110.745 45.281L111.367 43.7254C112.328 41.3487 112.371 40.3692 111.565 39.433C110.731 38.4679 109.402 38.4679 108.455 39.4186C108.186 39.6923 107.253 41.1471 106.377 42.6451L104.78 45.3675L103.833 45.4683C103.31 45.5115 101.444 45.5547 99.6766 45.5547H96.4677L97.1038 44.2007C97.9944 42.2706 98.4326 40.9742 98.4326 40.2252C98.4326 38.3527 96.4677 36.7682 94.7714 37.2868C93.584 37.6469 91.0254 40.6717 88.905 44.2151L87.9438 45.8284L87.0673 45.9004C86.6009 45.9436 85.06 46.0445 83.6606 46.1309C77.2994 46.5054 67.277 47.773 62.6969 48.7812C60.421 49.2854 60.0959 49.4294 60.4069 49.8039C60.6472 50.092 61.354 50.0776 64.5346 49.7463C68.0544 49.3574 71.6026 49.0405 74.4015 48.8677C76.7622 48.7236 86.4171 48.666 86.4171 48.7956C86.4171 48.8389 86.1344 49.4726 85.7951 50.2072C84.7914 52.3246 79.759 59.3826 75.8292 64.136C73.9067 66.4695 70.2031 70.2289 68.323 71.7702C64.5911 74.8094 61.1985 76.6099 58.8802 76.7684C58.2017 76.8116 57.721 76.7972 57.721 76.7108C57.721 76.6387 58.0462 76.3219 58.4561 76.0194C58.8661 75.7025 59.8273 74.795 60.6189 73.9884C63.7571 70.7907 65.9623 67.4633 67.4466 63.6174C68.111 61.9322 68.323 60.8951 68.323 59.397C68.323 58.4896 68.2524 58.1583 67.9131 57.4381C67.4325 56.401 66.6691 55.6232 65.7079 55.1766C64.7608 54.7445 63.1069 54.7445 61.9477 55.191C59.4456 56.1561 56.9436 58.7921 55.2473 62.2635C54.0457 64.6977 52.8441 69.4511 52.7593 72.1015C52.7028 73.441 52.7169 73.4266 50.752 74.4205C48.9285 75.3424 47.4018 75.7169 45.8186 75.6305C43.8254 75.5152 42.6945 74.795 41.9736 73.2106C41.5071 72.1735 41.5778 69.7824 42.1432 67.4489C42.9065 64.3232 44.0374 61.2552 46.0871 56.6459C46.2709 56.2137 46.5395 55.6232 46.6526 55.3495C46.7798 55.0758 48.5185 51.4028 50.5258 47.2112C55.1059 37.6037 55.6572 36.1921 54.8939 36.1921C54.7242 36.1921 53.0612 35.7599 52.7785 36.1921C52.5241 36.5666 51.0963 38.5543 49.6121 40.6141C45.1451 46.7935 44.403 48.8973 42.2826 52.4984C37.547 60.5502 36.2909 68.7741 37.3511 73.4987ZM57.4666 67.3769C58.3854 64.3088 59.6577 61.8745 61.1702 60.3189C62.0042 59.4547 63.0786 58.8065 63.6582 58.8065C64.1671 58.8065 64.0116 59.7139 63.2341 61.3704C62.0184 63.9343 60.5058 66.0805 58.0745 68.6733L56.8588 69.9696L56.9436 69.3935C57.0001 69.0766 57.2263 68.1691 57.4666 67.3769ZM85.0035 69.9696C85.6961 67.6794 86.2757 65.9797 88.0145 61.0103C89.1312 57.8414 89.1736 57.7694 90.8416 55.2631C91.5767 54.1539 92.7217 52.3246 93.3719 51.1723L94.5735 49.0837L97.0331 49.1413C98.3902 49.1701 100.115 49.2422 100.864 49.2854L102.235 49.3718L100.313 52.1086C92.3824 63.4302 89.1312 67.7802 86.4312 70.661C85.3569 71.799 84.2967 72.7064 84.2967 72.4616C84.2967 72.3607 84.6077 71.2372 85.0035 69.9696ZM114.901 59.0225C116.018 56.1273 117.318 53.6786 118.223 52.728C118.93 51.9789 119.071 51.8925 119.566 51.8925C120.145 51.9069 120.626 52.1518 120.626 52.4543C120.626 53.016 118.972 55.6088 117.233 57.7838C115.721 59.6851 113.954 61.5721 114.109 61.1111C114.18 60.9095 114.533 59.9732 114.901 59.0225ZM133.688 45.9292C133.914 45.3819 134.536 44.8345 134.932 44.8345C135.398 44.8345 136.006 45.2378 136.147 45.67C136.317 46.1597 136.176 47.0527 135.78 48.0898C135.243 49.4726 134.861 50.3081 134.776 50.3081C134.663 50.3081 133.773 48.666 133.631 48.1763C133.447 47.5569 133.476 46.4478 133.688 45.9292Z" fill="black"/>
</svg>
