<svg width="110" height="31" viewBox="0 0 110 31" fill="none" xmlns="http://www.w3.org/2000/svg">
<path d="M0.889619 24.8934C1.81712 25.8777 8.21502 30.2692 9.02896 30.4585C9.69146 30.6288 10.5433 30.1935 10.8083 29.5499C11.2436 28.4899 10.7704 27.941 7.91216 26.2752C4.88357 24.4959 2.64999 22.9816 2.64999 22.7166C2.64999 22.6031 3.67214 21.5241 4.9025 20.3127C7.40109 17.8898 7.68502 17.5113 7.30644 17.0002C6.96573 16.508 6.43572 16.6973 4.44821 18.0223C1.13569 20.1991 -2.9737e-05 21.4863 -2.9737e-05 23.0006C-2.9737e-05 23.8334 0.075685 24.0038 0.889619 24.8934Z" fill="black"/>
<path d="M4.42961 22.5654C4.97854 23.0197 8.04499 23.228 18.7397 23.5308C22.3361 23.6444 30.6837 23.8905 37.2899 24.0987C44.4828 24.3447 57.4489 24.553 69.5633 24.6665C80.6933 24.7612 102.94 24.5907 105.079 24.6664C108.883 24.78 108.978 24.78 109.47 24.3635C109.886 24.0417 110 23.7957 110 23.2278C110 22.2814 109.394 21.7703 108.05 21.6378C107.501 21.5621 84.3466 21.7326 70.5097 21.6379C53.3603 21.5054 42.9306 21.354 37.7631 21.1458C23.8694 20.5779 6.53069 20.7294 4.65675 21.4297C4.12675 21.6379 3.99425 22.2058 4.42961 22.5654Z" fill="black"/>
<path d="M12.2417 12.2669C12.9421 14.9169 14.7592 16.753 17.6364 17.6994C21.5357 18.9866 24.6589 16.753 25.7568 11.9072C26.0029 10.8283 26.0218 10.374 25.8515 9.35187C25.7379 8.67044 25.6054 7.93222 25.5865 7.74293C25.5486 7.459 25.6811 7.34543 26.1543 7.23186C27.8768 6.87221 27.9715 4.97934 26.2679 4.97934C25.5297 4.97934 23.2961 5.45256 22.0279 5.88792C21.1761 6.19078 20.9868 6.32328 20.9868 6.68292C20.9868 7.09936 21.2139 7.30757 21.8764 7.51579C22.2739 7.62936 22.785 9.27615 22.785 10.4876C22.785 12.5697 21.4789 14.7276 20.0971 14.9548C19.2264 15.0873 17.7121 14.614 16.6143 13.8569C15.1946 12.8915 14.6078 10.9797 15.0053 8.67044C15.4596 6.11506 16.936 3.76791 18.545 3.06754C18.9614 2.87826 19.9268 2.65111 20.6839 2.59433C21.7061 2.49968 22.0846 2.38611 22.2171 2.12111C22.3496 1.87504 22.3118 1.70468 22.0846 1.47753C21.5925 0.985388 20.8921 0.777173 19.5293 0.777173C16.5196 0.739315 13.9642 3.06754 12.6392 7.02364C12.0714 8.68937 11.901 10.9419 12.2417 12.2669Z" fill="black"/>
<path d="M27.6857 12.8165C28.5564 15.6369 32.0014 17.3784 34.9921 16.5266C37.6043 15.7505 39.0807 14.0091 39.7432 10.8669C39.9893 9.7501 40.0082 9.27688 39.819 8.2358C39.2511 4.96114 37.1879 2.8222 34.0646 2.23541C32.8153 2.00827 31.7932 2.2922 31.6039 2.93577C31.5282 3.14399 31.1875 3.4847 30.8657 3.69292C30.2032 4.07149 29.0864 5.60472 28.5753 6.85401C27.7425 8.80367 27.326 11.643 27.6857 12.8165ZM30.4303 8.61438C30.5818 7.85723 30.9414 6.70258 31.2253 6.04008C31.6796 4.999 31.7932 4.84757 32.1339 4.96114C32.3611 5.03686 32.9478 5.16936 33.4778 5.28293C35.0489 5.60472 35.825 6.17258 36.5064 7.49759C36.9797 8.42509 36.8472 10.7155 36.2414 11.908C35.6546 13.1194 34.9164 13.6305 33.5725 13.7251C32.115 13.8387 30.8278 13.2898 30.4493 12.4001C30.1085 11.6051 30.0896 10.3747 30.4303 8.61438Z" fill="black"/>
<path d="M49.2095 10.6072C49.7963 15.6044 50.0802 17.043 50.5535 17.6298C51.216 18.4059 52.1056 18.3869 52.7681 17.5919C53.0331 17.2701 53.2603 16.9483 53.2603 16.8537C53.2603 16.7591 53.9985 16.7023 54.9071 16.7023C56.8567 16.7212 59.5635 16.1344 60.756 15.434C61.7593 14.8473 63.0085 14.3226 63.0085 12.9165C63.0085 10.8444 59.1411 9.35794 59.1411 9.35794C58.9708 9.30115 60.6337 8.36003 61.5321 6.97351C63.4818 4.41814 62.6678 1.63562 59.696 0.632397C56.7999 -0.351894 53.3171 2.31705 51.8974 6.61386L51.481 9.56615L51.0267 5.19421C50.7428 3.83135 50.421 2.54419 50.3074 2.29812C50.1181 1.84383 49.5692 1.74919 49.2095 2.10883C48.9067 2.41169 48.8688 7.76793 49.2095 10.6072ZM54.3203 10.4179C54.9639 7.95722 56.6864 3.79349 58.0871 3.49063C58.8632 3.32027 59.427 3.74616 59.5689 4.03009C59.7109 4.31402 59.8664 5.08596 58.5035 6.07025C57.0839 7.0924 54.4279 9.36326 54.4279 10.0258C54.4468 11.1993 57.722 11.4785 58.5035 11.7293C59.285 11.9801 59.3553 12.519 59.2228 12.6515C58.8253 13.049 56.9324 13.4465 55.3803 13.4465H53.7903L53.9228 12.4433C53.9985 11.9133 54.1878 10.9858 54.3203 10.4179Z" fill="black"/>
<path d="M63.5687 17.036C63.7769 17.8499 63.9283 18.0581 64.3447 18.0581C64.9126 18.0581 65.1019 17.4524 65.3858 14.9727C65.5373 13.7045 65.7076 12.1713 65.7833 11.5656L65.9158 10.4866H67.8466H69.7773L70.0044 11.2816C70.4966 12.9284 71.973 16.1842 72.3516 16.4492C72.9384 16.8467 73.9227 16.8088 74.3769 16.3545C74.9259 15.8056 74.8502 14.9159 74.1119 13.307C73.7712 12.5309 72.8248 10.0323 72.0109 7.74197C69.853 1.60907 69.2851 0.643711 67.733 0.643711C66.0294 0.643711 64.799 2.80158 63.9472 7.3634C63.5119 9.59698 63.2658 15.9192 63.5687 17.036ZM66.8055 6.71982C67.0326 5.94374 67.2976 5.12981 67.4301 4.88374C67.6573 4.46731 67.7141 4.54302 68.3008 6.22767C68.6605 7.23089 68.8876 8.08269 68.8308 8.13947C68.7741 8.21519 68.2062 8.36662 67.5815 8.49912C66.2187 8.78305 66.2376 8.8209 66.8055 6.71982Z" fill="black"/>
<path d="M75.3521 11.4491C76.0525 14.6481 78.1347 16.9384 80.5765 17.1845C82.1475 17.3359 83.5483 16.7113 85.1193 15.1781C86.2551 14.0613 86.4065 13.8341 86.4065 13.2095C86.4065 12.3009 85.8765 11.752 84.9679 11.752C84.419 11.752 84.1161 11.9223 83.2265 12.7741C81.4282 14.4588 80.7847 14.6102 79.6111 13.5502C77.5668 11.6952 77.4722 7.62552 79.4218 4.93764C80.6711 3.21513 81.9393 3.3287 83.4536 5.29729C84.3433 6.45194 84.9301 6.73587 85.1572 6.14908C85.6304 4.91871 84.2865 2.57156 82.5829 1.70084C78.7972 -0.248819 74.1596 5.97872 75.3521 11.4491Z" fill="black"/>
<path d="M86.9953 17.3868C87.4496 18.674 88.8882 18.8822 89.5885 17.7275C89.9103 17.1975 89.9292 16.8568 89.8346 13.6768C89.7778 11.765 89.7778 10.1939 89.8724 10.1939C89.9482 10.1939 91.2542 11.0268 92.7875 12.03C96.3461 14.3961 99.6775 16.1375 100.359 15.9672C100.984 15.8347 101.703 15.0397 101.703 14.4907C101.703 13.7147 101.116 13.2225 98.9961 12.1625C96.7814 11.0646 92.4278 8.49034 92.4278 8.28212C92.4278 8.20641 93.6582 7.43033 95.1725 6.52175C98.5418 4.49639 99.0339 4.09888 98.75 3.62567C98.6364 3.43638 98.3336 3.26602 98.0686 3.22816C97.4818 3.15245 94.6993 4.23138 91.9735 5.59425C90.8567 6.16211 89.8724 6.57854 89.8346 6.52175C89.7778 6.46497 89.6453 5.21568 89.5696 3.73924C89.4749 2.2628 89.2857 0.843149 89.1532 0.559218C88.8503 -0.103286 88.131 -0.197929 87.9039 0.38886C87.6199 1.16494 87.2603 5.78354 87.0331 11.8029C86.9764 13.355 86.9006 15.1154 86.8439 15.6832C86.806 16.2511 86.8628 17.0272 86.9953 17.3868Z" fill="black"/>
</svg>
