<svg width="119" height="77" viewBox="0 0 119 77" fill="none" xmlns="http://www.w3.org/2000/svg">
<path d="M7.13989 38.6038H37.3083V51.2196H19.7558V63.8355H37.3083V76.4513H7.13989V38.6038Z" fill="black"/>
<path d="M43.342 38.6038H73.5104V49.5741H55.9579V51.7681H73.5104V76.9998H43.342V65.481H60.8945V63.287H43.342V38.6038Z" fill="black"/>
<path d="M79.5441 38.6038H109.712V49.5741H92.1599V51.7681H109.712V76.9998H79.5441V65.481H97.0966V63.287H79.5441V38.6038Z" fill="black"/>
<path d="M0 0.523804H9.28428V9.94839H17.7753V0.523804H27.0596V29.0654H17.7753V19.5236H9.28428V29.0654H0V0.523804ZM39.266 9.99023H31.0779V0.525477H56.709V9.99023H48.5323V29.0687H39.2481V9.99023H39.266ZM60.7778 0.523804H70.4579L76.4129 10.5678L82.3613 0.523804H92.0284V29.0654H82.7832V14.9168L76.3982 25.0662H76.2386L69.8764 14.9185V29.0671H60.7941L60.7778 0.523804ZM96.6607 0.523804H105.945V19.6492H119V29.0838H96.6624L96.6607 0.523804Z" fill="black"/>
</svg>
