<svg width="791" height="216" viewBox="0 0 791 216" fill="none" xmlns="http://www.w3.org/2000/svg">
<path d="M2.60168 101C5.00168 124.867 9.29868 156.316 14.8987 180.316C16.3987 188.816 15.8987 188.316 18.3987 198.816C19.113 201.816 22.735 204.467 25.2684 201C27.8017 197.533 27.6684 173.533 25.0017 143.267C23.8017 129.933 23.0017 118.733 23.2684 118.333C23.535 118.067 28.0684 118.333 33.135 119C38.335 119.667 51.935 120.6 63.4017 121.133C75.0017 121.667 84.4684 122.467 84.4684 123C84.4684 127.8 88.6017 180.6 89.2684 183.667C91.135 192.867 101.135 197 107.135 191C111.002 187.133 110.868 186.333 106.868 147C105.268 131.933 104.068 114.867 104.202 109C104.468 92.4666 97.935 38.5999 93.6684 22.7333C92.2017 17.1333 85.6684 11 81.135 11C79.4017 11 76.335 12.4666 74.2017 14.2C69.6684 18.0666 69.6684 20.7333 73.6684 46.3333C78.735 78.4666 82.0684 101.933 81.535 102.333C81.2684 102.6 70.6017 103.533 57.8017 104.333C45.0017 105.133 31.6684 106.333 28.2017 106.867L21.8017 107.933L21.135 103.8C19.8017 96.0666 17.935 77 16.335 56.3333C13.8017 21.6666 13.4017 18.7333 10.8684 17.1333C6.86835 14.7333 1.73202 13.8156 0.398682 29.8156C-1.06799 48.3489 1.93502 93.6666 2.60168 101Z" fill="black"/>
<path d="M114.775 29.041C115.842 30.1077 119.709 31.441 123.175 31.841C126.642 32.241 131.442 32.9077 133.709 33.3077L138.109 33.9743V42.1077C138.109 46.641 139.842 68.3743 142.109 90.3743C144.242 112.508 146.909 142.641 148.109 157.441C150.242 185.308 152.109 193.974 156.909 196.508C160.909 198.774 167.309 197.974 170.242 195.041C172.642 192.641 172.909 191.174 172.375 185.308C171.309 176.641 161.309 64.3743 160.242 51.041L159.575 40.9077L174.509 40.1077C198.242 38.7743 207.442 34.9077 207.442 26.241C207.442 20.7743 203.842 16.9077 197.309 15.7077C192.109 14.7743 133.975 18.641 122.909 20.641C113.309 22.3743 110.775 25.041 114.775 29.041Z" fill="black"/>
<path d="M193.798 104.082C195.265 133.415 197.798 180.482 199.531 185.015C201.131 189.015 204.998 189.815 207.531 186.748C209.665 184.215 210.998 139.148 211.265 118.748C211.531 93.415 212.065 92.8817 219.665 110.215C229.398 131.948 238.731 149.948 242.331 153.282C247.265 157.948 253.798 158.348 258.731 154.215C264.198 149.548 265.398 143.948 266.998 114.348C268.465 89.815 271.931 66.8816 275.798 58.215C276.731 55.9483 277.665 55.015 277.665 56.215C277.798 57.415 279.531 73.415 281.798 91.5483C283.931 109.815 286.998 137.948 288.465 154.082C289.931 170.215 291.398 184.882 291.931 186.748C294.865 199.282 312.465 199.015 312.465 186.348C312.465 184.082 310.331 163.815 307.798 141.415C305.265 119.015 302.065 89.6817 300.465 76.0817C295.131 27.1483 291.931 18.7483 278.598 18.7483C274.465 18.7483 272.598 19.6816 269.131 23.2816C259.265 33.815 250.731 65.815 246.331 108.748L245.531 116.748L231.931 88.7483C217.531 59.2817 213.398 43.8333 207.531 42.5C203.131 41.3 197.665 43.5667 195.265 47.3C192.865 51.1667 192.465 75.415 193.798 104.082Z" fill="black"/>
<path d="M316.72 168.358C318.187 179.425 320.587 183.558 326.587 186.492C331.52 188.758 331.92 188.758 352.32 184.492C379.253 178.892 393.12 174.625 395.787 170.758C398.587 166.892 398.32 158.758 395.387 156.225C390.987 152.358 387.387 152.225 375.387 155.692C361.653 159.692 338.987 164.758 338.187 164.092C337.92 163.692 337.12 148.225 336.453 129.692C334.32 70.8917 331.92 43.1583 328.32 32.7583C326.32 26.8917 322.853 25.1583 319.787 28.4917C317.653 30.8917 317.387 36.3583 316.32 86.0917C315.12 151.425 315.12 157.292 316.72 168.358Z" fill="black"/>
<path d="M435.569 212.533C437.703 215.2 439.436 216 443.436 216C452.103 216 454.103 211.733 463.969 172.667C477.969 116.933 488.236 61.2 493.569 13.8667C494.503 4.66666 492.903 -1.12653e-05 488.769 -1.12653e-05C483.436 -1.12653e-05 479.169 13.8667 468.236 66C457.969 114.4 447.969 154.533 437.303 188.8C431.969 206.267 431.836 207.867 435.569 212.533Z" fill="black"/>
<path d="M528.286 137.517C531.753 161.117 535.753 172.183 544.553 181.25C553.886 190.983 562.82 193.25 574.553 188.85C588.286 183.783 598.42 169.517 608.82 141.25C613.22 129.383 613.886 125.783 612.953 123.117C611.22 118.583 605.62 114.983 601.886 115.917C596.153 117.383 594.153 120.183 589.486 133.383C582.82 151.917 578.42 160.317 572.553 165.65C566.686 170.85 565.086 171.117 560.553 167.517C551.886 160.717 548.153 142.183 549.22 112.183C550.42 81.1166 555.886 52.3166 561.886 44.8499C564.953 41.1166 566.42 41.5166 582.02 50.8499C588.686 54.8499 594.686 58.1833 595.353 58.1833C595.886 58.1833 597.22 57.2499 598.153 56.1833C600.686 53.1166 597.62 47.3833 588.686 38.8499C579.22 29.7833 568.02 24.1833 561.62 25.3833C546.286 28.3166 536.286 48.7166 530.953 88.1833C528.82 104.05 527.353 130.983 528.286 137.517Z" fill="black"/>
<path d="M621.566 148.973C635.299 166.44 658.099 181.507 676.766 185.24C694.899 189.107 711.033 177.773 711.033 161.373C711.033 154.707 707.566 146.44 697.166 128.04C674.633 88.1733 669.699 76.44 669.699 63.7733C669.699 54.3066 670.899 51.9066 677.033 48.04C681.166 45.5066 683.833 45.1066 697.433 44.9733C712.233 44.7066 713.033 44.5733 713.433 41.9066C713.699 40.04 712.633 38.04 710.366 36.3066C706.766 33.5066 691.566 29.3733 684.633 29.3733C671.699 29.3733 656.899 39.24 653.166 50.3066C647.299 67.24 651.966 83.7733 674.499 127.773C683.433 145.107 689.699 158.84 689.433 160.573C689.033 162.973 687.966 163.373 681.966 163.773C671.033 164.44 659.033 157.507 642.766 141.107C632.499 130.707 629.033 128.04 626.099 128.04C615.166 128.04 613.033 138.173 621.566 148.973Z" fill="black"/>
<path d="M720.356 153.733C725.823 164.533 736.89 175.733 747.29 180.8C752.223 183.333 755.823 184 763.29 184C771.69 184 773.423 183.6 778.49 180C791.956 170.533 793.69 156.4 783.956 136C780.89 129.867 773.956 116.8 768.223 107.067C750.223 76.2667 744.223 59.8667 747.69 50.8C749.023 47.3333 749.556 47.0667 754.356 47.7333C757.156 48.1333 762.223 49.7333 765.556 51.3333C772.356 54.8 775.69 54.1333 775.69 49.4667C775.69 40.6667 758.356 30.1333 747.156 32.1333C739.956 33.3333 732.49 40.6667 730.356 48.6667C726.89 61.3333 731.023 77.3333 744.49 103.333C761.556 136.4 767.956 150.133 768.623 155.2C769.29 159.733 769.023 160.4 765.423 161.867C757.823 165.067 747.156 157.867 739.023 144C732.223 132.4 726.89 130 720.49 135.6C715.156 140.533 715.156 143.333 720.356 153.733Z" fill="black"/>
</svg>
