<svg width="151" height="98" viewBox="0 0 151 98" fill="none" xmlns="http://www.w3.org/2000/svg">
<path d="M9.05994 49.2788H47.3408V65.2872H25.0683V81.2955H47.3408V97.3039H9.05994V49.2788Z" fill="black"/>
<path d="M54.9971 49.2788H93.2779V63.1991H71.0054V65.9832H93.2779V97.9999H54.9971V83.3836H77.2696V80.5995H54.9971V49.2788Z" fill="black"/>
<path d="M100.934 49.2788H139.215V63.1991H116.942V65.9832H139.215V97.9999H100.934V83.3836H123.207V80.5995H100.934V49.2788Z" fill="black"/>
<path d="M0 0.958862H11.7809V12.9178H22.5552V0.958862H34.3361V37.1755H22.5552V25.0679H11.7809V37.1755H0V0.958862ZM49.8249 12.9709H39.435V0.960985H71.9585V12.9709H61.5831V37.1798H49.8022V12.9709H49.8249ZM77.1214 0.958862H89.4046L96.9609 13.7037L104.509 0.958862H116.775V37.1755H105.044V19.2222L96.9423 32.1009H96.7397L88.6667 19.2244V37.1776H77.1421L77.1214 0.958862ZM122.654 0.958862H134.434V25.2272H151V37.1989H122.656L122.654 0.958862Z" fill="black"/>
</svg>
