<svg width="129" height="33" viewBox="0 0 129 33" fill="none" xmlns="http://www.w3.org/2000/svg">
<path d="M0.467043 18.482C1.15498 19.0604 1.86937 19.4021 2.95419 19.5862C8.77518 19.5862 8.77518 19.5862 8.77518 26.6055C9.43665 28.5246 9.91292 29.103 10.9184 29.3396C11.5005 29.4974 11.7915 29.3659 12.453 28.735C13.379 27.8148 13.3526 27.9989 12.8499 23.5559C12.2413 18.298 12.0296 18.8501 15.046 18.3243C16.4748 18.0877 17.8771 17.8248 18.1417 17.7459C18.6709 17.6144 18.6709 17.7722 18.5915 24.292C18.5121 30.0494 18.5386 31.101 18.909 31.7846C19.3852 32.6784 20.2584 33.0465 21.3168 32.7836C22.5339 32.4681 22.6397 31.9423 22.772 24.0817L22.9043 16.7206L22.7719 14.6174L22.7721 10.1745L22.772 4.28357C22.9097 2.78357 21.4755 1.18341 19.9938 2.4716C19.3852 2.9711 19.253 3.39174 19.0677 5.02169C18.9354 6.09957 18.8296 8.43935 18.8031 10.1745V13.3555L15.9456 13.9339C14.3845 14.2494 12.8763 14.5648 12.5588 14.6174C12.0561 14.7226 12.0032 14.5385 11.5798 9.88528C11.0507 4.36445 10.7596 3.07626 9.88645 2.9711C8.82809 2.81336 8.64288 3.68092 8.53704 9.56981L8.43121 15.0381L4.8857 14.9855C1.49894 14.9066 1.31373 14.9329 0.678715 15.5376C-0.115056 16.3 -0.247351 17.8773 0.467043 18.482Z" fill="black"/>
<path d="M23.5594 4.30853C23.9077 4.51716 24.7115 4.77793 25.3813 4.85616C27.2835 5.11694 27.2299 5.06479 26.828 6.57729C26.4797 7.85509 25.6492 21.3372 25.6492 25.6661C25.6492 28.0131 26.1047 29.2648 27.1495 29.7342C28.1141 30.1515 28.4623 30.0993 29.2929 29.4213L29.9895 28.8215L30.0966 24.1536C30.2306 18.8338 30.6593 9.81092 30.9004 8.24626L31.0612 7.17708L33.9011 6.86414C35.4818 6.70768 37.0625 6.47298 37.4376 6.39475C38.0806 6.2122 38.0806 6.23828 37.652 6.70768C36.3124 8.1941 34.303 16.6693 34.0351 21.8327C33.8475 25.6661 33.9815 26.3702 34.8924 26.3702C35.7497 26.3702 35.8837 26.0573 36.9018 21.5719C37.3305 19.6943 38.0002 17.1387 38.3753 15.8609C38.7504 14.6092 39.0451 13.54 39.0451 13.4618C39.0451 13.3836 39.1255 13.3314 39.2595 13.3314C39.3666 13.3314 39.6881 13.9573 39.9561 14.6874C40.224 15.4437 40.9741 17.3213 41.6439 18.8599C43.0103 22.0413 43.8677 22.9801 45.368 22.9801C46.6004 22.9801 47.4578 22.1456 47.9668 20.3463C49.1725 16.226 49.0653 16.0696 49.226 22.0674C49.3332 25.275 49.5208 27.8306 49.6815 28.2217C50.3513 29.7342 52.4411 30.2819 53.5395 29.2127C53.995 28.7694 54.0754 28.4564 53.9414 27.5959C53.861 26.9961 53.6735 22.7454 53.5127 18.1558C53.218 8.22018 53.0037 6.57729 51.8516 5.63849C50.8336 4.80401 49.7619 4.80401 48.7438 5.63849C47.7793 6.4469 47.0827 7.98548 45.8771 12.0797C45.3412 13.8269 44.8858 15.2872 44.8322 15.3394C44.8054 15.3915 44.1088 13.879 43.3318 11.9754C41.2421 6.86414 41.2153 6.78591 40.09 6.31651C39.1791 5.92535 39.1255 5.84712 39.4738 5.37772C39.9828 4.6997 39.9561 3.60444 39.3666 2.92642C38.6165 1.98762 37.1965 1.85724 31.5434 2.11801C25.1669 2.43094 23.8809 2.58741 23.3719 3.08288C22.8361 3.60444 22.8628 3.86521 23.5594 4.30853Z" fill="black"/>
<path d="M55.4452 28.4785C55.9736 29.4229 57.1973 30 58.6435 30C60.4512 30 67.8489 28.2162 68.4607 27.6391C69.156 26.9833 69.1838 25.4881 68.5163 24.7798C67.6542 23.8879 66.653 23.8879 63.2323 24.7274C61.4802 25.1733 59.895 25.5406 59.7003 25.5406C59.45 25.5406 59.4222 24.0716 59.6169 19.1662C59.9784 9.9063 59.9506 4.29265 59.5056 3.55816C59.0606 2.84989 58.1707 2.79743 57.7813 3.50569C57.1139 4.68613 54.9725 21.9992 55.0003 26.039C55.0281 27.062 55.1949 28.0588 55.4452 28.4785Z" fill="black"/>
<path d="M74.5714 31.3152C74.9524 31.7893 75.3878 32 75.932 32C77.7551 32 78.0273 31.4996 80.0953 24.4412C82.2178 17.2247 84.9661 4.26667 84.9933 1.44856C85.0205 0.0790124 84.9933 6.33299e-08 84.3403 6.33299e-08C82.9797 6.33299e-08 81.9457 2.55473 79.4422 11.9835C78.4082 15.8288 76.7755 21.3333 75.7959 24.2568C74.8163 27.1802 74 29.7877 74 30.0774C74 30.3671 74.2449 30.9202 74.5714 31.3152Z" fill="black"/>
<path d="M90.1118 24.2303C90.813 27.3921 92.4581 28.973 95.0742 28.9998C97.4475 29.0266 101.843 26.3203 103.516 23.748C104.217 22.7298 104.136 21.1488 103.408 20.5594C102.248 19.6215 101.331 19.9163 99.5241 21.7919C98.6341 22.7298 97.5014 23.748 97.016 24.0695C96.0181 24.7394 94.6427 24.8198 94.3999 24.2035C93.8066 22.703 94.6696 16.4061 95.9911 12.5744C97.4744 8.28721 99.7129 5.98283 101.385 7.05464C102.221 7.61733 103.111 7.59054 103.327 7.05464C103.812 5.74168 101.978 4 100.09 4C96.5305 4 93.2403 8.12644 91.4063 14.8252C90.2467 19.1124 89.7612 22.6494 90.1118 24.2303Z" fill="black"/>
<path d="M105.586 25.1232C106.277 27.0558 107.367 28.7566 108.457 29.5039C109.52 30.2254 111.115 30.1481 111.939 29.3492C113.401 27.9577 113.587 25.4839 113.109 14.7126C112.843 8.86314 112.896 8.76006 114.332 10.1516C115.82 11.6204 118 10.9246 118 8.99198C118 8.32199 117.761 7.83239 116.99 7.00779C114.385 4.199 110.823 4.35361 109.281 7.36855C108.51 8.88891 108.483 9.6362 109.254 18.2945C109.999 26.927 109.892 27.3135 107.792 23.2678C106.516 20.8456 105.932 20.3302 105.347 21.0775C104.815 21.799 104.895 23.139 105.586 25.1232Z" fill="black"/>
<path d="M118.738 28.3743C119.761 29.6871 122.051 31 123.371 31C125.121 31 126.253 29.7644 126.818 27.1901C127.222 25.2851 126.684 23.1485 124.798 19.4158C122.212 14.3188 121.808 12.7485 122.778 11.3584C123.451 10.3545 124.933 9.45347 126.199 9.22178C128.327 8.86139 129 8.26931 129 6.80198C129 5.92673 127.923 5 126.872 5C124.69 5 121.458 6.49307 119.842 8.24356C117.068 11.2812 117.364 14.0614 121.162 21.0376C123.074 24.5386 123.505 25.8515 123.209 27.1644C122.993 28.0911 122.562 28.0139 120.462 26.701C119.68 26.2119 118.845 25.8515 118.576 25.903C117.768 26.0317 117.849 27.1644 118.738 28.3743Z" fill="black"/>
</svg>
