<svg width="88" height="118" viewBox="0 0 88 118" fill="none" xmlns="http://www.w3.org/2000/svg">
<path d="M28.1277 91.226C28.1277 91.226 23.592 93.9843 31.2806 94.7734C40.5363 95.9534 45.4665 95.758 55.7105 93.7889C57.7693 95.0497 59.9468 96.1057 62.2116 96.9417C39.1645 106.795 9.99978 96.3517 28.1277 91.226ZM25.1777 78.4192C25.1777 78.4192 20.2511 82.1621 27.936 82.9549C37.9845 83.9394 45.8648 84.1349 59.4644 81.3803C60.787 82.7217 62.4064 83.7334 64.1918 84.334C36.4099 92.6089 5.27974 85.1195 25.1777 78.4192ZM79.5578 100.876C79.5578 100.876 82.9061 103.635 75.8149 105.803C62.6136 109.749 20.4503 110.929 8.62802 105.803C4.4906 104.033 12.3709 101.47 14.8968 101.075C17.4597 100.485 18.8425 100.485 18.8425 100.485C14.3068 97.3326 -11.3031 106.987 5.84024 109.741C52.9301 117.426 91.7451 106.393 79.5283 100.876H79.5578ZM30.2591 65.0187C30.2591 65.0187 8.7829 70.1444 22.5743 71.9144C28.4854 72.7035 40.1085 72.5044 50.9462 71.719C59.811 70.9298 68.6833 69.3589 68.6833 69.3589C68.6833 69.3589 65.5304 70.7381 63.3621 72.1172C41.495 77.8329 -0.476509 75.27 11.5449 69.3589C21.7888 64.4324 30.2628 65.0261 30.2628 65.0261L30.2591 65.0187ZM68.6833 86.4949C90.7495 75.0636 80.5055 64.0378 73.4107 65.4133C71.6407 65.8078 70.8478 66.2024 70.8478 66.2024C70.8478 66.2024 71.4378 65.0224 72.817 64.6278C86.8075 59.7013 97.8406 79.4038 68.2813 87.0849C68.2813 87.0849 68.4767 86.8895 68.6759 86.4949H68.6833ZM32.4348 117.625C53.7118 119.004 86.2249 116.836 87.0103 106.784C87.0103 106.784 85.4357 110.729 69.4761 113.679C51.3481 117.028 28.8873 116.629 15.686 114.469C15.686 114.469 18.4442 116.832 32.4348 117.625Z" fill="black"/>
<path d="M55.3198 0C55.3198 0 67.5366 12.4122 43.6967 31.1302C24.5842 46.3007 39.3638 54.9701 43.6967 64.8232C32.4644 54.7747 24.3887 45.9061 29.9053 37.635C37.981 25.4145 60.2463 19.5403 55.3198 0ZM49.051 56.5484C54.7666 63.0495 47.4764 68.9606 47.4764 68.9606C47.4764 68.9606 62.0569 61.4749 55.3567 52.2118C49.2501 43.347 44.5153 39.0105 70.1326 24.2345C70.1326 24.2345 29.743 34.283 49.051 56.5484Z" fill="black"/>
</svg>
