<svg width="73" height="29" viewBox="0 0 73 29" fill="none" xmlns="http://www.w3.org/2000/svg">
<path d="M0.565491 2.69781C1.23729 3.12103 5.11306 3.59715 8.13617 3.62361H9.9707L9.73815 5.05197C9.55728 6.13647 9.60896 7.32678 10.0482 10.2629C10.7459 15.077 11.0042 20.6318 10.5908 21.9543C10.2032 23.1711 8.78213 24.4407 7.56772 24.6788C6.37915 24.8904 5.52648 24.282 4.62213 22.5362C3.48524 20.3672 2.29667 19.9705 0.978907 21.3195C0.0745598 22.2453 0.0487213 22.6685 0.849714 24.3878C3.22685 29.6252 8.6271 30.551 12.6321 26.3981C14.6216 24.3614 15.0867 22.8537 15.0609 18.5686C15.0609 16.8228 14.7767 13.3312 14.4666 10.7919C14.1565 8.25257 13.9498 5.92486 14.0273 5.581C14.1565 5.07842 14.3891 4.97262 16.0427 4.81391C19.4534 4.52295 21.8047 4.12618 22.244 3.78231C23.4584 2.85652 23.1483 0.608162 21.753 0.317199C21.3655 0.211394 20.8745 0.0791377 20.6678 0.0262352C20.1252 -0.158923 2.63257 0.687516 1.46984 0.952029C-0.0804712 1.32235 -0.44221 2.01008 0.565491 2.69781Z" fill="black"/>
<path d="M20.1112 23.5178C20.3174 24.6608 20.9878 25.1659 21.5551 24.5811C21.7872 24.3419 22.3544 22.5609 22.8443 20.5939C24.1593 15.1181 23.6179 15.6763 27.666 15.4637C29.5483 15.3573 31.3274 15.2244 31.6111 15.1447C32.0752 15.0384 32.333 15.57 34.0606 20.2749C36.0718 25.7773 36.768 27 38.0056 27C38.3408 27 38.9339 26.7608 39.3207 26.4418C40.1716 25.7507 40.2231 24.3419 39.4754 22.6938C39.1917 22.0559 38.2119 19.5838 37.3095 17.1649C33.6996 7.64874 31.4822 3.23623 29.9093 2.38562C27.7692 1.2692 26.2479 2.49195 24.0046 7.17027C21.1941 13.0713 19.5439 19.9825 20.1112 23.5178ZM26.9183 9.50944C27.6145 8.18037 28.3106 7.06395 28.4396 7.06395C28.7232 7.06395 30.8375 11.5296 30.657 11.7423C30.5797 11.822 29.342 12.141 27.8981 12.4866L25.2939 13.0979L25.4486 12.5397C25.5259 12.2207 26.1963 10.8651 26.9183 9.50944Z" fill="black"/>
<path d="M35.6192 5.96263C35.901 6.70952 39.1614 12.4786 40.3451 14.7966C45.8971 25.5364 46.2071 26 48.0953 26C48.8281 26 49.3072 25.8197 49.7863 25.3304C50.66 24.4805 50.6318 24.5577 51.3363 20.0764C52.0973 15.2859 52.7737 12.3756 54.0137 8.6669C54.5492 7.01858 55.7328 2.84991 55.7328 2.46359C55.7328 0.0941308 52.379 -0.266438 51.3362 2C50.6599 3.49379 48.039 12.968 47.5035 16.0328C47.2217 17.5524 46.9117 18.7113 46.7989 18.6083C46.6862 18.5053 45.728 17.0115 44.7134 15.3117C42.1206 11.0621 37.8456 5.0612 37.0001 4.52035C35.8728 3.85072 35.1119 4.64912 35.6192 5.96263Z" fill="black"/>
<path d="M55.2611 27.2714C55.5656 27.8178 56.327 27.8959 56.6823 27.4015C56.8091 27.2453 57.1898 26.1003 57.4943 24.8772C57.7989 23.6542 58.3572 21.5984 58.7632 20.3232L59.4738 17.9812L61.2248 17.799C62.1892 17.7209 63.6611 17.5908 64.5239 17.5388L66.0719 17.4347L67.5438 22.0668C69.1934 27.2193 69.6502 28 71.0967 28C72.2387 28 73 27.2453 73 26.1003C73 25.6319 72.4924 23.7583 71.858 21.9627C71.249 20.1411 69.9801 16.1596 69.0411 13.1149C66.7825 5.67233 65.7167 2.65367 65.0061 1.87298C63.7372 0.467746 61.91 0.806044 61.0472 2.54958C60.159 4.34516 58.8901 7.96235 57.7989 11.8658C57.2152 13.9476 56.6315 15.8733 56.53 16.1596C56.4031 16.4458 56.0224 18.2674 55.6418 20.1931C54.9566 23.8363 54.8043 26.4907 55.2611 27.2714ZM61.7324 11.2673C62.3922 9.44566 63.0013 7.96235 63.0774 7.96235C63.2804 7.96235 64.8792 13.1669 64.8792 13.7655C64.8792 13.9997 64.194 14.2339 62.7221 14.4941C61.5294 14.7283 60.565 14.8324 60.565 14.7543C60.565 14.6763 61.0979 13.1149 61.7324 11.2673Z" fill="black"/>
</svg>
