<svg width="71" height="36" viewBox="0 0 71 36" fill="none" xmlns="http://www.w3.org/2000/svg">
<path d="M0.0384112 2.65645C0.0680461 2.69815 0.180659 2.75772 0.293271 2.78751C0.524424 2.859 2.77667 3.1807 3.39901 3.23432C3.62423 3.25219 4.17544 3.30581 4.61404 3.35346C5.05264 3.40708 5.88241 3.48453 6.4514 3.53219C7.02039 3.57985 7.80868 3.64538 8.19986 3.67516C13.2674 4.11005 16.2309 4.28878 19.6804 4.37218L21.3222 4.41388L21.417 4.86664C21.4704 5.11685 21.5533 5.45047 21.5948 5.61728C21.7015 5.99855 21.9623 7.30918 22.0749 8.00023C22.2883 9.38235 22.6795 12.9925 22.8099 14.8215C22.8454 15.298 22.9343 16.424 23.0114 17.3236C23.3374 21.0231 23.4263 22.6435 23.3789 24.0256C23.3077 26.4741 23.0114 27.9158 22.2764 29.4469C21.7904 30.4656 21.2392 31.1745 20.4213 31.8298C18.8803 33.069 17.363 33.2358 15.5493 32.36C14.1031 31.663 12.7992 30.5073 11.2048 28.4996C10.1083 27.1294 8.95851 25.4018 7.89758 23.5371C6.67663 21.4044 6.06615 19.9925 5.6157 18.2887C5.40233 17.4725 5.3075 17.264 5.14747 17.264C4.87483 17.264 4.63775 18.0206 4.57255 19.0631C4.48365 20.5346 4.94002 22.9176 5.75202 25.2469C5.84685 25.5269 5.96539 25.8605 6.00688 25.9916C6.3625 27.0937 7.38194 29.1847 8.12281 30.3166C9.812 32.92 12.1413 34.8621 14.4528 35.6009C15.6027 35.9643 15.816 36 17.0311 36C18.3113 36 18.7499 35.9166 19.7753 35.4757C22.6676 34.2426 24.5524 32.1098 25.643 28.8452C26.0934 27.5048 26.289 26.4741 26.4846 24.4426C26.6683 22.5899 26.6209 20.3737 26.3364 17.2044C26.1171 14.8095 26.0194 13.139 25.4267 10.9467L24.6044 6.97016C24.6044 6.97016 24.1821 4.44367 24.1821 4.41388C24.1821 4.31856 24.348 4.28282 24.8222 4.28282C25.0711 4.28282 25.6193 4.2709 27.2847 4.1875C28.9443 4.1041 30.6513 4.03856 31.078 4.03856C32.376 4.03856 33.7688 3.91942 35.138 3.70495C35.9026 3.57985 36.2048 3.47857 36.4893 3.23432C37.3606 2.48368 37.0702 1.03604 35.9737 0.678594C35.5884 0.547532 34.1363 0.428383 31.3447 0.291363C30.023 0.219874 28.3694 0.13647 27.67 0.100726C25.2755 -0.0184218 20.611 -0.0362949 18.4832 0.0709382C15.7864 0.207958 12.8051 0.458169 9.94832 0.785826C8.52585 0.952633 5.74609 1.33391 5.11783 1.4471C4.85705 1.49476 4.28213 1.59007 3.84353 1.65561C3.40493 1.7271 2.64035 1.85816 2.15434 1.95348C1.6624 2.04284 1.01636 2.16794 0.714087 2.22156C0.0799006 2.34071 -0.0860554 2.44794 0.0384112 2.65645Z" fill="black"/>
<path d="M29.0912 28.2768C29.3068 29.4271 29.5358 30.0256 30.0344 30.7703C30.634 31.6613 31.4155 32.18 32.3453 32.3063C32.8101 32.3728 32.9179 32.3661 33.4165 32.2331C34.0363 32.0669 34.5214 31.8076 35.1884 31.2756C36.044 30.5908 37.1152 29.2808 37.9574 27.8778C38.2336 27.4257 38.4627 27.0666 38.4829 27.0799C38.5031 27.1065 38.4425 28.6026 38.2875 31.9672C38.1864 34.0285 38.1999 34.8596 38.3212 34.9594C38.5974 35.1855 39.0758 34.454 39.5339 33.1109C40.6859 29.7795 41.9256 24.1874 42.5993 19.3002C42.6397 19.0076 42.7004 18.5887 42.7408 18.3626C42.7745 18.1432 42.8014 17.824 42.8014 17.6578C42.8014 17.4916 42.8486 17.2123 42.9025 17.0328C43.1046 16.3811 42.9968 15.9157 42.5387 15.4702C42.0334 14.9715 41.2586 14.8584 40.5849 15.1842C40.1739 15.3904 39.9516 15.663 39.5541 16.441C39.4059 16.7335 39.2779 16.9796 39.2644 16.9929C39.2577 17.0062 39.069 16.8399 38.8534 16.6205C38.274 16.062 37.9304 15.909 37.1759 15.909C36.6436 15.909 36.4954 15.9356 35.9632 16.1417C34.326 16.7601 32.1836 18.735 30.9978 20.7098C29.8592 22.6116 29.2394 24.3271 29.0575 26.1025C28.9699 26.9735 28.9834 27.685 29.0912 28.2768ZM32.197 25.3178C32.4531 24.1808 32.9786 22.6847 33.4906 21.6341C34.2721 20.0449 34.9054 19.1339 35.9227 18.1299C36.6301 17.4384 37.2365 17.0727 37.6744 17.0727C37.9776 17.0727 38.3279 17.2987 38.5839 17.6578L38.7726 17.9238L38.2201 19.0076C37.9169 19.6061 37.3039 20.783 36.8592 21.6208C36.4078 22.4653 35.505 24.2207 34.8448 25.524C33.7264 27.7315 33.0527 28.8885 32.6956 29.2077C32.5474 29.334 32.5474 29.334 32.4261 29.1745C31.9478 28.5561 31.8467 26.8871 32.197 25.3178Z" fill="black"/>
<path d="M45.0314 22.1614C45.2408 24.4454 45.5584 26.3846 46.1648 29.0915C46.9661 32.6965 47.2621 33.8027 47.5725 34.3493C47.9912 35.0912 48.8863 35.2213 49.4855 34.6226C49.998 34.1151 50.9364 32.1824 51.911 29.6447C52.9 27.0743 54.1272 23.0138 55.1956 18.8102C55.3038 18.4003 55.5132 17.5934 55.6648 17.0207C56.7187 13.0839 57.1158 11.2879 56.9714 11.0732C56.6177 10.5656 55.3616 12.7 53.2465 17.4112C51.384 21.5497 50.5394 23.9964 49.8247 27.3346C49.2039 30.2303 48.8719 31.7269 48.843 31.753C48.7925 31.792 48.7564 31.6619 48.4532 30.2303C48.2871 29.4755 48.1283 28.7467 48.0922 28.6035C48.0489 28.4603 47.9479 28.0504 47.8612 27.6925C47.7746 27.3346 47.327 25.6623 46.8578 23.9834C46.3886 22.2981 45.9194 20.5216 45.8039 20.0205C45.5873 19.051 45.4501 18.7907 45.2191 18.9143C45.1542 18.9534 45.0675 19.0575 45.0459 19.1421C44.9953 19.2983 44.9809 21.6734 45.0314 22.1614Z" fill="black"/>
<path d="M57.129 29.0777C57.4161 30.3523 57.9153 31.0475 58.8042 31.4402C59.823 31.8779 61.2384 31.5496 62.6811 30.5196C63.4469 29.9853 64.8965 28.5691 65.6213 27.6615C66.182 26.9469 66.8384 25.9813 67.4469 24.9578L67.7341 24.475L67.6999 24.9256C67.5495 26.7023 67.5085 28.3181 67.5427 30.7385C67.5837 34.0795 67.6999 35 68.0623 35C68.3495 35 68.6298 33.9829 69.4025 30.0754C69.5392 29.3995 69.7102 28.5498 69.7854 28.1764C69.8606 27.8031 69.97 27.2366 70.0247 26.9212C70.0794 26.5993 70.1683 26.0779 70.223 25.7624C70.8863 21.9515 71.1529 18.7264 70.9136 17.4261C70.7837 16.6987 70.5786 16.3704 70.1204 16.1515C69.3478 15.7846 68.5409 16.0936 67.9598 16.9755L67.7204 17.3424L67.1734 17.1236C65.0196 16.2481 61.8811 17.5742 59.7546 20.2585C59.1597 21.0117 58.8931 21.4301 58.3734 22.415C57.9016 23.3098 57.7512 23.7089 57.4298 24.8741C56.9922 26.477 56.8828 28.0091 57.129 29.0777ZM59.6931 26.7602C60.0144 24.8998 61.1837 21.9129 62.0999 20.6319C63.4606 18.72 65.4367 17.6579 66.9478 18.0119C67.2281 18.0827 67.2555 18.102 67.2213 18.2436C67.1324 18.5526 65.5324 21.5589 64.7597 22.8656C63.3102 25.2925 62.0931 26.9533 60.9785 28.0284C60.4247 28.5627 59.8503 29.0133 59.7204 29.0133C59.6315 29.0133 59.6042 28.8202 59.5973 28.0799C59.5973 27.6872 59.6384 27.095 59.6931 26.7602Z" fill="black"/>
</svg>
