<svg width="83" height="113" viewBox="0 0 83 113" fill="none" xmlns="http://www.w3.org/2000/svg">
<path d="M26.8313 87.46C26.8313 87.46 22.5047 90.0911 29.8388 90.8439C38.668 91.9695 43.371 91.7831 53.1428 89.9047C55.1067 91.1074 57.1838 92.1147 59.3443 92.9122C37.3594 102.311 9.53889 92.3494 26.8313 87.46ZM24.0172 75.2434C24.0172 75.2434 19.3178 78.8138 26.6484 79.5701C36.2338 80.5092 43.7509 80.6957 56.7237 78.068C57.9853 79.3476 59.53 80.3127 61.2332 80.8856C34.7318 88.7791 5.03639 81.6349 24.0172 75.2434ZM75.891 96.6655C75.891 96.6655 79.0849 99.2966 72.3206 101.365C59.7277 105.129 19.5077 106.254 8.23035 101.365C4.28363 99.6765 11.8007 97.2318 14.2102 96.8554C16.655 96.2926 17.974 96.2926 17.974 96.2926C13.6474 93.2851 -10.7822 102.494 5.57107 105.122C50.4905 112.452 87.5166 101.928 75.8628 96.6655H75.891ZM28.8645 62.4606C28.8645 62.4606 8.37809 67.35 21.5338 69.0384C27.1725 69.7912 38.2599 69.6012 48.5981 68.852C57.0543 68.0992 65.5176 66.6007 65.5176 66.6007C65.5176 66.6007 62.5101 67.9163 60.4418 69.2319C39.5825 74.6841 -0.454547 72.2394 11.0128 66.6007C20.7846 61.9013 28.868 62.4676 28.868 62.4676L28.8645 62.4606ZM65.5176 82.9469C86.5668 72.0424 76.795 61.5249 70.0272 62.8369C68.3387 63.2133 67.5825 63.5897 67.5825 63.5897C67.5825 63.5897 68.1453 62.4641 69.4608 62.0877C82.8065 57.3882 93.3311 76.1826 65.1342 83.5097C65.1342 83.5097 65.3206 83.3233 65.5106 82.9469H65.5176ZM30.9398 112.642C51.2363 113.958 82.2508 111.89 83 102.301C83 102.301 81.498 106.064 66.2739 108.879C48.9815 112.072 27.5559 111.693 14.963 109.631C14.963 109.631 17.5941 111.886 30.9398 112.642Z" fill="black"/>
<path d="M52.7701 0.438599C52.7701 0.438599 64.4238 12.2788 41.6827 30.134C23.451 44.6053 37.5495 52.8751 41.6827 62.2741C30.9681 52.6887 23.2646 44.2289 28.5269 36.339C36.2304 24.6817 57.4695 19.0782 52.7701 0.438599ZM46.7902 54.3807C52.2424 60.5822 45.2882 66.2208 45.2882 66.2208C45.2882 66.2208 59.1967 59.0801 52.8052 50.244C46.9801 41.7877 42.4636 37.6511 66.9002 23.5561C66.9002 23.5561 28.3721 33.1415 46.7902 54.3807Z" fill="black"/>
</svg>
