<svg width="196" height="270" viewBox="0 0 196 270" fill="none" xmlns="http://www.w3.org/2000/svg">
<g filter="url(#filter0_d_638_24)">
<rect x="7" y="5" width="180" height="254" rx="8" fill="#FFFCF7"/>
</g>
<path d="M26.1703 40.6207C27.2792 40.6207 28.3586 40.3172 29.2911 39.743C30.0071 39.302 30.8841 39.069 31.8276 39.069C32.771 39.069 33.6481 39.302 34.3643 39.743C35.2969 40.3172 36.3763 40.6207 37.4852 40.6207H42.9519C42.9603 40.6207 42.9674 40.6247 42.9758 40.6257C42.9901 40.4187 43 40.2104 43 40C43 39.7896 42.9901 39.5813 42.9758 39.3743C42.9677 39.375 42.9606 39.3793 42.9522 39.3793H37.1034C36.9318 39.3793 36.7931 39.2403 36.7931 39.069C36.7931 38.8977 36.9318 38.7586 37.1034 38.7586H42.9128C42.8541 38.3341 42.7657 37.9194 42.6502 37.5163C42.622 37.5247 42.5941 37.534 42.5633 37.534H33.3793C33.2077 37.534 33.069 37.395 33.069 37.2237C33.069 37.0523 33.2077 36.9133 33.3793 36.9133H42.4563C42.2933 36.4673 42.0947 36.0384 41.8666 35.6288C41.821 35.6552 41.771 35.6741 41.7146 35.6741H39.8966C39.7249 35.6741 39.5862 35.5351 39.5862 35.3638C39.5862 35.1924 39.7249 35.0534 39.8966 35.0534H41.5175C39.9077 32.6119 37.1429 31 34 31C31.5995 31 29.4199 31.9419 27.8064 33.4738H30.2954C30.467 33.4738 30.6058 33.6128 30.6058 33.7841C30.6058 33.9554 30.467 34.0944 30.2954 34.0944H27.4918C27.4111 34.0944 27.3391 34.0619 27.2838 34.0113C26.9924 34.3381 26.7246 34.6863 26.4825 35.0531H28.1034C28.2751 35.0531 28.4138 35.1921 28.4138 35.3634C28.4138 35.5348 28.2751 35.6738 28.1034 35.6738H26.2854C26.229 35.6738 26.179 35.6546 26.1334 35.6285C25.9614 35.937 25.8072 36.2566 25.6719 36.5862H27.4387C27.6103 36.5862 27.749 36.7252 27.749 36.8966C27.749 37.0679 27.6103 37.2069 27.4387 37.2069H25.6207C25.5611 37.2069 25.5083 37.1855 25.4612 37.1563C25.3529 37.4822 25.2607 37.8152 25.1896 38.1562H29.3448C29.5164 38.1562 29.6552 38.2953 29.6552 38.4666C29.6552 38.6379 29.5164 38.7769 29.3448 38.7769H25.1303C25.1145 38.7769 25.1012 38.7701 25.086 38.7679C25.0307 39.1711 25 39.582 25 40C25 40.2104 25.0099 40.4187 25.0242 40.6257C25.0323 40.6247 25.0394 40.6207 25.0478 40.6207H26.1703Z" fill="#C288D0"/>
<path d="M34.3644 44.6018C33.6481 45.0428 32.7711 45.2758 31.8276 45.2758C30.8842 45.2758 30.0071 45.0428 29.2909 44.6018C28.3583 44.0276 27.2792 43.7241 26.1704 43.7241H25.8073C26.0208 44.1931 26.2715 44.6412 26.5592 45.0629C26.6213 45.0189 26.6989 44.9959 26.7805 45.0071C27.3897 45.0909 27.9607 45.2945 28.4778 45.6129C29.4383 46.2044 30.5965 46.5172 31.8276 46.5172C33.0588 46.5172 34.217 46.2044 35.1778 45.6129C35.8658 45.1893 36.6634 44.9655 37.4849 44.9655H41.2894C41.3565 44.9655 41.4151 44.9913 41.4657 45.0273C41.7431 44.6161 41.9852 44.1797 42.1925 43.7241H37.4852C36.3764 43.7241 35.297 44.0276 34.3644 44.6018Z" fill="#C06FCD"/>
<path d="M34.0387 40.2716C33.4208 39.8908 32.6562 39.6897 31.8275 39.6897C30.9989 39.6897 30.2342 39.8908 29.6163 40.2716C28.5857 40.9059 27.394 41.2414 26.1703 41.2414H25.0872C25.1775 41.8947 25.3361 42.5256 25.5586 43.1265C25.594 43.1125 25.6318 43.1035 25.6718 43.1035H26.17C27.3936 43.1035 28.5854 43.439 29.616 44.0733C30.2342 44.4541 30.9989 44.6552 31.8275 44.6552C32.6562 44.6552 33.4208 44.4541 34.0387 44.0733C35.0694 43.439 36.2611 43.1035 37.4851 43.1035H42.3277C42.3678 43.1035 42.4056 43.1125 42.441 43.1265C42.6635 42.5259 42.8221 41.8947 42.9124 41.2414H37.4851C36.2611 41.2414 35.0694 40.9059 34.0387 40.2716Z" fill="#D3A6EF"/>
<path d="M31.8276 44.9655C35.0842 44.9655 37.7241 42.3255 37.7241 39.0689C37.7241 35.8123 35.0842 33.1724 31.8276 33.1724C28.571 33.1724 25.931 35.8123 25.931 39.0689C25.931 42.3255 28.571 44.9655 31.8276 44.9655Z" fill="#D3A6EF"/>
<path d="M35.5033 46.1414C34.4447 46.7934 33.1736 47.1379 31.8276 47.1379C30.4816 47.1379 29.2104 46.7934 28.1519 46.1414C27.8027 45.9263 27.4235 45.7746 27.0228 45.6839C28.6732 47.7074 31.1855 49 34 49C35.6644 49 37.2223 48.5463 38.5596 47.7586H35.5517C35.3801 47.7586 35.2414 47.6196 35.2414 47.4483C35.2414 47.2769 35.3801 47.1379 35.5517 47.1379H39.0108C39.1241 47.1379 39.2184 47.2015 39.2728 47.2918C39.9419 46.8071 40.5411 46.2329 41.0538 45.5862H37.4849C36.7782 45.5862 36.093 45.7783 35.5033 46.1414Z" fill="#C288D0"/>
<path d="M30.8965 41.8621C32.9533 41.8621 34.6206 40.1947 34.6206 38.138C34.6206 36.0812 32.9533 34.4138 30.8965 34.4138C28.8397 34.4138 27.1724 36.0812 27.1724 38.138C27.1724 40.1947 28.8397 41.8621 30.8965 41.8621Z" fill="#EAC7FA"/>
<path d="M37.4848 44.9656C36.6634 44.9656 35.8655 45.1893 35.1774 45.613C34.2169 46.2045 33.0587 46.5173 31.8276 46.5173C30.5964 46.5173 29.4382 46.2045 28.4774 45.613C27.9604 45.2945 27.3893 45.0906 26.7801 45.0072C26.6985 44.9957 26.6209 45.0186 26.5588 45.063C26.7047 45.2769 26.8596 45.4839 27.0228 45.684C27.4235 45.775 27.8024 45.9264 28.1518 46.1415C29.2104 46.7935 30.4816 47.138 31.8276 47.138C33.1735 47.138 34.4447 46.7935 35.5033 46.1415C36.0929 45.7784 36.7782 45.5863 37.4851 45.5863H41.0538C41.1975 45.405 41.3362 45.2197 41.4659 45.0273C41.415 44.9913 41.3564 44.9656 41.2894 44.9656H37.4848Z" fill="#8E6CA2"/>
<path d="M42.9522 40.6207H37.4852C36.3763 40.6207 35.2966 40.3172 34.3641 39.743C33.6481 39.302 32.7711 39.069 31.8276 39.069C30.8842 39.069 30.0071 39.302 29.2909 39.743C28.3583 40.3172 27.2792 40.6207 26.1703 40.6207H25.0478C25.0394 40.6207 25.0323 40.6247 25.0239 40.6257C25.0382 40.833 25.059 41.0384 25.0872 41.2414H26.17C27.3937 41.2414 28.5854 40.9059 29.6161 40.2716C30.2343 39.8908 30.999 39.6897 31.8276 39.6897C32.6562 39.6897 33.4209 39.8908 34.0388 40.2716C35.0695 40.9059 36.2612 41.2414 37.4852 41.2414H42.9125C42.9404 41.0381 42.9615 40.8327 42.9758 40.6257C42.9678 40.6247 42.9606 40.6207 42.9522 40.6207Z" fill="#8E6CA2"/>
<path d="M37.4851 43.1034C36.2611 43.1034 35.0694 43.4389 34.0388 44.0732C33.4209 44.454 32.6562 44.6551 31.8276 44.6551C30.9989 44.6551 30.2342 44.454 29.6164 44.0732C28.5857 43.4389 27.394 43.1034 26.1703 43.1034H25.6719C25.6315 43.1034 25.594 43.1124 25.5586 43.1264C25.634 43.3293 25.7178 43.5283 25.8072 43.7241H26.1703C27.2791 43.7241 28.3585 44.0276 29.2911 44.6017C30.0071 45.0427 30.8841 45.2758 31.8276 45.2758C32.771 45.2758 33.648 45.0427 34.3643 44.6017C35.2969 44.0276 36.3763 43.7241 37.4851 43.7241H42.1928C42.2818 43.5283 42.3659 43.3293 42.4414 43.1264C42.406 43.1124 42.3681 43.1034 42.3281 43.1034H37.4851Z" fill="#8E6CA2"/>
<path d="M39.0108 47.1379H35.5517C35.3801 47.1379 35.2413 47.277 35.2413 47.4483C35.2413 47.6196 35.3801 47.7586 35.5517 47.7586H38.5595C38.805 47.614 39.0427 47.4582 39.2724 47.2919C39.2184 47.2016 39.1237 47.1379 39.0108 47.1379Z" fill="#8E6CA2"/>
<path d="M36.7931 39.069C36.7931 39.2403 36.9318 39.3794 37.1034 39.3794H42.9522C42.9606 39.3794 42.9677 39.3753 42.9761 39.3744C42.9618 39.1671 42.941 38.9616 42.9128 38.7587H37.1034C36.9318 38.7587 36.7931 38.8974 36.7931 39.069Z" fill="#8E6CA2"/>
<path d="M33.069 37.2233C33.069 37.3946 33.2077 37.5337 33.3793 37.5337H42.563C42.5938 37.5337 42.622 37.5243 42.6499 37.516C42.5916 37.3121 42.5286 37.1103 42.4563 36.913H33.3793C33.2077 36.913 33.069 37.0517 33.069 37.2233Z" fill="#8E6CA2"/>
<path d="M29.3448 38.7772C29.5164 38.7772 29.6551 38.6381 29.6551 38.4668C29.6551 38.2955 29.5164 38.1565 29.3448 38.1565H25.1896C25.1477 38.3579 25.1142 38.5621 25.0859 38.7682C25.1011 38.7704 25.1145 38.7772 25.1303 38.7772H29.3448Z" fill="#8E6CA2"/>
<path d="M39.5862 35.3634C39.5862 35.5348 39.7249 35.6738 39.8965 35.6738H41.7145C41.771 35.6738 41.821 35.6545 41.8666 35.6285C41.7574 35.432 41.6407 35.2402 41.5171 35.0531H39.8965C39.7249 35.0531 39.5862 35.1918 39.5862 35.3634Z" fill="#8E6CA2"/>
<path d="M28.1034 35.6738C28.2751 35.6738 28.4138 35.5348 28.4138 35.3634C28.4138 35.1921 28.2751 35.0531 28.1034 35.0531H26.4825C26.3593 35.2402 26.2426 35.432 26.1331 35.6285C26.1787 35.6549 26.2286 35.6738 26.2851 35.6738H28.1034Z" fill="#8E6CA2"/>
<path d="M27.4387 37.2069C27.6103 37.2069 27.749 37.0678 27.749 36.8965C27.749 36.7252 27.6103 36.5862 27.4387 36.5862H25.6719C25.5953 36.773 25.5254 36.9636 25.4612 37.1563C25.5084 37.1855 25.5611 37.2069 25.6207 37.2069H27.4387Z" fill="#8E6CA2"/>
<path d="M30.2951 34.0944C30.4667 34.0944 30.6054 33.9554 30.6054 33.7841C30.6054 33.6128 30.4667 33.4738 30.2951 33.4738H27.8061C27.6249 33.6457 27.4502 33.8248 27.2838 34.0113C27.3391 34.0619 27.4111 34.0944 27.4917 34.0944H30.2951Z" fill="#8E6CA2"/>
<path d="M37.8461 34.1034H37.1494C37.1317 34.1034 37.1264 34.078 37.1432 34.0724C37.4213 33.9805 37.6124 33.6972 37.5606 33.3785C37.511 33.0734 37.2242 32.8621 36.9151 32.8621H35.3966C35.0589 32.8621 34.7843 33.1318 34.7762 33.4675C34.7759 33.4759 34.7694 33.4828 34.761 33.4828H33.8781C33.569 33.4828 33.2822 33.6941 33.2326 33.9992C33.1807 34.3179 33.3719 34.6012 33.65 34.6931C33.6667 34.6987 33.6614 34.7241 33.6438 34.7241H32.6367C32.3276 34.7241 32.0408 34.9355 31.9912 35.2405C31.9279 35.6294 32.2264 35.9655 32.6035 35.9655H35.7069C36.0446 35.9655 36.3192 35.6958 36.3273 35.36C36.3276 35.3516 36.3341 35.3448 36.3425 35.3448H37.8793C38.2564 35.3448 38.555 35.0087 38.4917 34.6199C38.442 34.3148 38.1552 34.1034 37.8461 34.1034Z" fill="#C06FCD"/>
<path d="M31.8276 43.7242C30.4816 43.7242 29.3448 43.0135 29.3448 42.1725C29.3448 41.3314 30.4816 40.6207 31.8276 40.6207C33.1736 40.6207 34.3104 41.3314 34.3104 42.1725C34.3104 43.0135 33.1736 43.7242 31.8276 43.7242Z" fill="#C06FCD"/>
<path d="M26.2414 32.5517C26.4128 32.5517 26.5517 32.4128 26.5517 32.2414C26.5517 32.07 26.4128 31.931 26.2414 31.931C26.07 31.931 25.931 32.07 25.931 32.2414C25.931 32.4128 26.07 32.5517 26.2414 32.5517Z" fill="#E85BC0"/>
<path d="M30.5862 37.2069C30.7576 37.2069 30.8966 37.0679 30.8966 36.8965C30.8966 36.7251 30.7576 36.5862 30.5862 36.5862C30.4148 36.5862 30.2759 36.7251 30.2759 36.8965C30.2759 37.0679 30.4148 37.2069 30.5862 37.2069Z" fill="#E85BC0"/>
<path d="M31.5173 38.4483C31.6887 38.4483 31.8276 38.3094 31.8276 38.138C31.8276 37.9666 31.6887 37.8276 31.5173 37.8276C31.3459 37.8276 31.2069 37.9666 31.2069 38.138C31.2069 38.3094 31.3459 38.4483 31.5173 38.4483Z" fill="#E85BC0"/>
<path d="M37.4137 42.4828C37.5851 42.4828 37.7241 42.3438 37.7241 42.1724C37.7241 42.001 37.5851 41.8621 37.4137 41.8621C37.2423 41.8621 37.1034 42.001 37.1034 42.1724C37.1034 42.3438 37.2423 42.4828 37.4137 42.4828Z" fill="#E85BC0"/>
<path d="M27.1724 48.3794C27.3438 48.3794 27.4828 48.2404 27.4828 48.069C27.4828 47.8976 27.3438 47.7587 27.1724 47.7587C27.001 47.7587 26.8621 47.8976 26.8621 48.069C26.8621 48.2404 27.001 48.3794 27.1724 48.3794Z" fill="#E85BC0"/>
<path d="M25.6206 46.2069C25.792 46.2069 25.931 46.0679 25.931 45.8965C25.931 45.7251 25.792 45.5862 25.6206 45.5862C25.4492 45.5862 25.3103 45.7251 25.3103 45.8965C25.3103 46.0679 25.4492 46.2069 25.6206 46.2069Z" fill="#E85BC0"/>
<path d="M29.0345 31.6207C29.2059 31.6207 29.3448 31.4817 29.3448 31.3103C29.3448 31.1389 29.2059 31 29.0345 31C28.8631 31 28.7241 31.1389 28.7241 31.3103C28.7241 31.4817 28.8631 31.6207 29.0345 31.6207Z" fill="#E85BC0"/>
<path d="M39.5862 34.7241C39.7576 34.7241 39.8966 34.5851 39.8966 34.4137C39.8966 34.2423 39.7576 34.1034 39.5862 34.1034C39.4148 34.1034 39.2759 34.2423 39.2759 34.4137C39.2759 34.5851 39.4148 34.7241 39.5862 34.7241Z" fill="#E85BC0"/>
<path d="M42.069 48.0689C42.2404 48.0689 42.3794 47.93 42.3794 47.7586C42.3794 47.5872 42.2404 47.4482 42.069 47.4482C41.8976 47.4482 41.7587 47.5872 41.7587 47.7586C41.7587 47.93 41.8976 48.0689 42.069 48.0689Z" fill="#E85BC0"/>
<path d="M17.696 25.096C17.3173 25.096 16.968 25.0267 16.648 24.888C16.3333 24.744 16.0747 24.5413 15.872 24.28L16.592 23.416C16.7467 23.6187 16.9093 23.7733 17.08 23.88C17.2507 23.9813 17.4347 24.032 17.632 24.032C18.16 24.032 18.424 23.7227 18.424 23.104V20.44H16.456V19.4H19.712V23.032C19.712 23.7253 19.5413 24.2427 19.2 24.584C18.8587 24.9253 18.3573 25.096 17.696 25.096ZM23.4801 25.096C22.6855 25.096 22.0641 24.8747 21.6161 24.432C21.1681 23.9893 20.9441 23.3573 20.9441 22.536V19.4H22.2401V22.488C22.2401 23.0213 22.3495 23.4053 22.5681 23.64C22.7868 23.8747 23.0935 23.992 23.4881 23.992C23.8828 23.992 24.1895 23.8747 24.4081 23.64C24.6268 23.4053 24.7361 23.0213 24.7361 22.488V19.4H26.0161V22.536C26.0161 23.3573 25.7921 23.9893 25.3441 24.432C24.8961 24.8747 24.2748 25.096 23.4801 25.096ZM27.2968 25V19.4H29.7208C30.2221 19.4 30.6541 19.4827 31.0168 19.648C31.3795 19.808 31.6595 20.04 31.8568 20.344C32.0541 20.648 32.1528 21.0107 32.1528 21.432C32.1528 21.848 32.0541 22.208 31.8568 22.512C31.6595 22.816 31.3795 23.0507 31.0168 23.216C30.6541 23.376 30.2221 23.456 29.7208 23.456H28.0168L28.5928 22.872V25H27.2968ZM28.5928 23.016L28.0168 22.4H29.6488C30.0488 22.4 30.3475 22.3147 30.5448 22.144C30.7421 21.9733 30.8408 21.736 30.8408 21.432C30.8408 21.1227 30.7421 20.8827 30.5448 20.712C30.3475 20.5413 30.0488 20.456 29.6488 20.456H28.0168L28.5928 19.84V23.016ZM33.0781 25V19.4H34.3741V25H33.0781ZM36.8631 25V20.456H35.0711V19.4H39.9511V20.456H38.1591V25H36.8631ZM41.8404 21.656H44.5364V22.664H41.8404V21.656ZM41.9364 23.96H44.9844V25H40.6484V19.4H44.8804V20.44H41.9364V23.96ZM46.0156 25V19.4H48.4396C48.9409 19.4 49.3729 19.4827 49.7356 19.648C50.0982 19.808 50.3782 20.04 50.5756 20.344C50.7729 20.648 50.8716 21.0107 50.8716 21.432C50.8716 21.848 50.7729 22.208 50.5756 22.512C50.3782 22.8107 50.0982 23.04 49.7356 23.2C49.3729 23.36 48.9409 23.44 48.4396 23.44H46.7356L47.3116 22.872V25H46.0156ZM49.5756 25L48.1756 22.968H49.5596L50.9756 25H49.5756ZM47.3116 23.016L46.7356 22.408H48.3676C48.7676 22.408 49.0662 22.3227 49.2636 22.152C49.4609 21.976 49.5596 21.736 49.5596 21.432C49.5596 21.1227 49.4609 20.8827 49.2636 20.712C49.0662 20.5413 48.7676 20.456 48.3676 20.456H46.7356L47.3116 19.84V23.016Z" fill="black"/>
<path d="M163.83 222.379C162.721 222.379 161.641 222.683 160.709 223.257C159.993 223.698 159.116 223.931 158.172 223.931C157.229 223.931 156.352 223.698 155.636 223.257C154.703 222.683 153.624 222.379 152.515 222.379H147.048C147.04 222.379 147.033 222.375 147.024 222.374C147.01 222.581 147 222.79 147 223C147 223.21 147.01 223.419 147.024 223.626C147.032 223.625 147.039 223.621 147.048 223.621H152.897C153.068 223.621 153.207 223.76 153.207 223.931C153.207 224.102 153.068 224.241 152.897 224.241H147.087C147.146 224.666 147.234 225.081 147.35 225.484C147.378 225.475 147.406 225.466 147.437 225.466H156.621C156.792 225.466 156.931 225.605 156.931 225.776C156.931 225.948 156.792 226.087 156.621 226.087H147.544C147.707 226.533 147.905 226.962 148.133 227.371C148.179 227.345 148.229 227.326 148.285 227.326H150.103C150.275 227.326 150.414 227.465 150.414 227.636C150.414 227.808 150.275 227.947 150.103 227.947H148.483C150.092 230.388 152.857 232 156 232C158.401 232 160.58 231.058 162.194 229.526H159.705C159.533 229.526 159.394 229.387 159.394 229.216C159.394 229.045 159.533 228.906 159.705 228.906H162.508C162.589 228.906 162.661 228.938 162.716 228.989C163.008 228.662 163.275 228.314 163.517 227.947H161.897C161.725 227.947 161.586 227.808 161.586 227.637C161.586 227.465 161.725 227.326 161.897 227.326H163.715C163.771 227.326 163.821 227.345 163.867 227.372C164.039 227.063 164.193 226.743 164.328 226.414H162.561C162.39 226.414 162.251 226.275 162.251 226.103C162.251 225.932 162.39 225.793 162.561 225.793H164.379C164.439 225.793 164.492 225.815 164.539 225.844C164.647 225.518 164.739 225.185 164.81 224.844H160.655C160.484 224.844 160.345 224.705 160.345 224.533C160.345 224.362 160.484 224.223 160.655 224.223H164.87C164.885 224.223 164.899 224.23 164.914 224.232C164.969 223.829 165 223.418 165 223C165 222.79 164.99 222.581 164.976 222.374C164.968 222.375 164.961 222.379 164.952 222.379H163.83Z" fill="#C288D0"/>
<path d="M155.636 218.398C156.352 217.957 157.229 217.724 158.172 217.724C159.116 217.724 159.993 217.957 160.709 218.398C161.642 218.972 162.721 219.276 163.83 219.276H164.193C163.979 218.807 163.728 218.359 163.441 217.937C163.379 217.981 163.301 218.004 163.22 217.993C162.61 217.909 162.039 217.706 161.522 217.387C160.562 216.796 159.404 216.483 158.172 216.483C156.941 216.483 155.783 216.796 154.822 217.387C154.134 217.811 153.337 218.034 152.515 218.034H148.711C148.644 218.034 148.585 218.009 148.534 217.973C148.257 218.384 148.015 218.82 147.807 219.276H152.515C153.624 219.276 154.703 218.972 155.636 218.398Z" fill="#C06FCD"/>
<path d="M155.961 222.728C156.579 223.109 157.344 223.31 158.172 223.31C159.001 223.31 159.766 223.109 160.384 222.728C161.414 222.094 162.606 221.759 163.83 221.759H164.913C164.823 221.105 164.664 220.474 164.441 219.874C164.406 219.888 164.368 219.897 164.328 219.897H163.83C162.606 219.897 161.415 219.561 160.384 218.927C159.766 218.546 159.001 218.345 158.172 218.345C157.344 218.345 156.579 218.546 155.961 218.927C154.931 219.561 153.739 219.897 152.515 219.897H147.672C147.632 219.897 147.594 219.888 147.559 219.874C147.336 220.474 147.178 221.105 147.088 221.759H152.515C153.739 221.759 154.931 222.094 155.961 222.728Z" fill="#D3A6EF"/>
<path d="M158.172 218.035C154.916 218.035 152.276 220.675 152.276 223.931C152.276 227.188 154.916 229.828 158.172 229.828C161.429 229.828 164.069 227.188 164.069 223.931C164.069 220.675 161.429 218.035 158.172 218.035Z" fill="#D3A6EF"/>
<path d="M154.497 216.859C155.555 216.207 156.826 215.862 158.172 215.862C159.518 215.862 160.79 216.207 161.848 216.859C162.197 217.074 162.577 217.225 162.977 217.316C161.327 215.293 158.815 214 156 214C154.336 214 152.778 214.454 151.44 215.241H154.448C154.62 215.241 154.759 215.38 154.759 215.552C154.759 215.723 154.62 215.862 154.448 215.862H150.989C150.876 215.862 150.782 215.798 150.727 215.708C150.058 216.193 149.459 216.767 148.946 217.414H152.515C153.222 217.414 153.907 217.222 154.497 216.859Z" fill="#C288D0"/>
<path d="M159.103 221.138C157.047 221.138 155.379 222.805 155.379 224.862C155.379 226.919 157.047 228.586 159.103 228.586C161.16 228.586 162.828 226.919 162.828 224.862C162.828 222.805 161.16 221.138 159.103 221.138Z" fill="#EAC7FA"/>
<path d="M152.515 218.034C153.337 218.034 154.135 217.811 154.823 217.387C155.783 216.796 156.941 216.483 158.172 216.483C159.404 216.483 160.562 216.796 161.523 217.387C162.04 217.705 162.611 217.909 163.22 217.993C163.302 218.004 163.379 217.981 163.441 217.937C163.295 217.723 163.14 217.516 162.977 217.316C162.577 217.225 162.198 217.074 161.848 216.859C160.79 216.206 159.518 215.862 158.172 215.862C156.826 215.862 155.555 216.206 154.497 216.859C153.907 217.222 153.222 217.414 152.515 217.414H148.946C148.803 217.595 148.664 217.78 148.534 217.973C148.585 218.009 148.644 218.034 148.711 218.034H152.515Z" fill="#8E6CA2"/>
<path d="M147.048 222.379H152.515C153.624 222.379 154.703 222.683 155.636 223.257C156.352 223.698 157.229 223.931 158.172 223.931C159.116 223.931 159.993 223.698 160.709 223.257C161.642 222.683 162.721 222.379 163.83 222.379H164.952C164.961 222.379 164.968 222.375 164.976 222.374C164.962 222.167 164.941 221.962 164.913 221.759H163.83C162.606 221.759 161.415 222.094 160.384 222.729C159.766 223.109 159.001 223.31 158.172 223.31C157.344 223.31 156.579 223.109 155.961 222.729C154.931 222.094 153.739 221.759 152.515 221.759H147.087C147.06 221.962 147.038 222.167 147.024 222.374C147.032 222.375 147.039 222.379 147.048 222.379Z" fill="#8E6CA2"/>
<path d="M152.515 219.896C153.739 219.896 154.931 219.561 155.961 218.927C156.579 218.546 157.344 218.345 158.172 218.345C159.001 218.345 159.766 218.546 160.384 218.927C161.414 219.561 162.606 219.896 163.83 219.896H164.328C164.368 219.896 164.406 219.887 164.441 219.874C164.366 219.671 164.282 219.472 164.193 219.276H163.83C162.721 219.276 161.641 218.972 160.709 218.398C159.993 217.957 159.116 217.724 158.172 217.724C157.229 217.724 156.352 217.957 155.636 218.398C154.703 218.972 153.624 219.276 152.515 219.276H147.807C147.718 219.472 147.634 219.671 147.559 219.874C147.594 219.887 147.632 219.896 147.672 219.896H152.515Z" fill="#8E6CA2"/>
<path d="M150.989 215.862H154.448C154.62 215.862 154.759 215.723 154.759 215.552C154.759 215.38 154.62 215.241 154.448 215.241H151.44C151.195 215.386 150.957 215.542 150.728 215.708C150.782 215.798 150.876 215.862 150.989 215.862Z" fill="#8E6CA2"/>
<path d="M153.207 223.931C153.207 223.76 153.068 223.621 152.897 223.621H147.048C147.039 223.621 147.032 223.625 147.024 223.626C147.038 223.833 147.059 224.038 147.087 224.241H152.897C153.068 224.241 153.207 224.103 153.207 223.931Z" fill="#8E6CA2"/>
<path d="M156.931 225.777C156.931 225.605 156.792 225.466 156.621 225.466H147.437C147.406 225.466 147.378 225.476 147.35 225.484C147.408 225.688 147.471 225.89 147.544 226.087H156.621C156.792 226.087 156.931 225.948 156.931 225.777Z" fill="#8E6CA2"/>
<path d="M160.655 224.223C160.484 224.223 160.345 224.362 160.345 224.533C160.345 224.704 160.484 224.844 160.655 224.844H164.81C164.852 224.642 164.886 224.438 164.914 224.232C164.899 224.23 164.886 224.223 164.87 224.223H160.655Z" fill="#8E6CA2"/>
<path d="M150.414 227.636C150.414 227.465 150.275 227.326 150.103 227.326H148.285C148.229 227.326 148.179 227.345 148.133 227.371C148.243 227.568 148.359 227.76 148.483 227.947H150.103C150.275 227.947 150.414 227.808 150.414 227.636Z" fill="#8E6CA2"/>
<path d="M161.897 227.326C161.725 227.326 161.586 227.465 161.586 227.636C161.586 227.808 161.725 227.947 161.897 227.947H163.517C163.641 227.76 163.757 227.568 163.867 227.371C163.821 227.345 163.771 227.326 163.715 227.326H161.897Z" fill="#8E6CA2"/>
<path d="M162.561 225.793C162.39 225.793 162.251 225.932 162.251 226.103C162.251 226.275 162.39 226.414 162.561 226.414H164.328C164.405 226.227 164.475 226.036 164.539 225.844C164.492 225.815 164.439 225.793 164.379 225.793H162.561Z" fill="#8E6CA2"/>
<path d="M159.705 228.905C159.533 228.905 159.395 229.044 159.395 229.216C159.395 229.387 159.533 229.526 159.705 229.526H162.194C162.375 229.354 162.55 229.175 162.716 228.989C162.661 228.938 162.589 228.905 162.508 228.905H159.705Z" fill="#8E6CA2"/>
<path d="M152.154 228.897H152.851C152.868 228.897 152.874 228.922 152.857 228.928C152.579 229.019 152.388 229.303 152.439 229.622C152.489 229.927 152.776 230.138 153.085 230.138H154.603C154.941 230.138 155.216 229.868 155.224 229.532C155.224 229.524 155.231 229.517 155.239 229.517H156.122C156.431 229.517 156.718 229.306 156.767 229.001C156.819 228.682 156.628 228.399 156.35 228.307C156.333 228.301 156.339 228.276 156.356 228.276H157.363C157.672 228.276 157.959 228.065 158.009 227.759C158.072 227.371 157.774 227.034 157.397 227.034H154.293C153.955 227.034 153.681 227.304 153.673 227.64C153.672 227.648 153.666 227.655 153.657 227.655H152.121C151.744 227.655 151.445 227.991 151.508 228.38C151.558 228.685 151.845 228.897 152.154 228.897Z" fill="#C06FCD"/>
<path d="M158.172 219.276C159.518 219.276 160.655 219.987 160.655 220.828C160.655 221.669 159.518 222.379 158.172 222.379C156.826 222.379 155.69 221.669 155.69 220.828C155.69 219.987 156.826 219.276 158.172 219.276Z" fill="#C06FCD"/>
<path d="M163.759 230.448C163.587 230.448 163.448 230.587 163.448 230.759C163.448 230.93 163.587 231.069 163.759 231.069C163.93 231.069 164.069 230.93 164.069 230.759C164.069 230.587 163.93 230.448 163.759 230.448Z" fill="#E85BC0"/>
<path d="M159.414 225.793C159.242 225.793 159.103 225.932 159.103 226.103C159.103 226.275 159.242 226.414 159.414 226.414C159.585 226.414 159.724 226.275 159.724 226.103C159.724 225.932 159.585 225.793 159.414 225.793Z" fill="#E85BC0"/>
<path d="M158.483 224.552C158.311 224.552 158.172 224.691 158.172 224.862C158.172 225.033 158.311 225.172 158.483 225.172C158.654 225.172 158.793 225.033 158.793 224.862C158.793 224.691 158.654 224.552 158.483 224.552Z" fill="#E85BC0"/>
<path d="M152.586 220.517C152.415 220.517 152.276 220.656 152.276 220.828C152.276 220.999 152.415 221.138 152.586 221.138C152.758 221.138 152.897 220.999 152.897 220.828C152.897 220.656 152.758 220.517 152.586 220.517Z" fill="#E85BC0"/>
<path d="M162.828 214.621C162.656 214.621 162.517 214.76 162.517 214.931C162.517 215.103 162.656 215.241 162.828 215.241C162.999 215.241 163.138 215.103 163.138 214.931C163.138 214.76 162.999 214.621 162.828 214.621Z" fill="#E85BC0"/>
<path d="M164.379 216.793C164.208 216.793 164.069 216.932 164.069 217.103C164.069 217.275 164.208 217.414 164.379 217.414C164.551 217.414 164.69 217.275 164.69 217.103C164.69 216.932 164.551 216.793 164.379 216.793Z" fill="#E85BC0"/>
<path d="M160.966 231.379C160.794 231.379 160.655 231.518 160.655 231.69C160.655 231.861 160.794 232 160.966 232C161.137 232 161.276 231.861 161.276 231.69C161.276 231.518 161.137 231.379 160.966 231.379Z" fill="#E85BC0"/>
<path d="M150.414 228.276C150.242 228.276 150.103 228.415 150.103 228.586C150.103 228.758 150.242 228.896 150.414 228.896C150.585 228.896 150.724 228.758 150.724 228.586C150.724 228.415 150.585 228.276 150.414 228.276Z" fill="#E85BC0"/>
<path d="M147.931 214.931C147.76 214.931 147.621 215.07 147.621 215.241C147.621 215.413 147.76 215.552 147.931 215.552C148.102 215.552 148.241 215.413 148.241 215.241C148.241 215.07 148.102 214.931 147.931 214.931Z" fill="#E85BC0"/>
<path d="M172.304 237.904C172.683 237.904 173.032 237.973 173.352 238.112C173.667 238.256 173.925 238.459 174.128 238.72L173.408 239.584C173.253 239.381 173.091 239.227 172.92 239.12C172.749 239.019 172.565 238.968 172.368 238.968C171.84 238.968 171.576 239.277 171.576 239.896V242.56H173.544V243.6H170.288V239.968C170.288 239.275 170.459 238.757 170.8 238.416C171.141 238.075 171.643 237.904 172.304 237.904ZM166.52 237.904C167.315 237.904 167.936 238.125 168.384 238.568C168.832 239.011 169.056 239.643 169.056 240.464V243.6H167.76V240.512C167.76 239.979 167.651 239.595 167.432 239.36C167.213 239.125 166.907 239.008 166.512 239.008C166.117 239.008 165.811 239.125 165.592 239.36C165.373 239.595 165.264 239.979 165.264 240.512V243.6H163.984V240.464C163.984 239.643 164.208 239.011 164.656 238.568C165.104 238.125 165.725 237.904 166.52 237.904ZM162.703 238V243.6H160.279C159.778 243.6 159.346 243.517 158.983 243.352C158.621 243.192 158.341 242.96 158.143 242.656C157.946 242.352 157.847 241.989 157.847 241.568C157.847 241.152 157.946 240.792 158.143 240.488C158.341 240.184 158.621 239.949 158.983 239.784C159.346 239.624 159.778 239.544 160.279 239.544H161.983L161.407 240.128V238H162.703ZM161.407 239.984L161.983 240.6H160.351C159.951 240.6 159.653 240.685 159.455 240.856C159.258 241.027 159.159 241.264 159.159 241.568C159.159 241.877 159.258 242.117 159.455 242.288C159.653 242.459 159.951 242.544 160.351 242.544H161.983L161.407 243.16V239.984ZM156.922 238V243.6H155.626V238H156.922ZM153.137 238V242.544H154.929V243.6H150.049V242.544H151.841V238H153.137ZM148.16 241.344H145.464V240.336H148.16V241.344ZM148.064 239.04H145.016V238H149.352V243.6H145.12V242.56H148.064V239.04ZM143.984 238V243.6H141.56C141.059 243.6 140.627 243.517 140.264 243.352C139.902 243.192 139.622 242.96 139.424 242.656C139.227 242.352 139.128 241.989 139.128 241.568C139.128 241.152 139.227 240.792 139.424 240.488C139.622 240.189 139.902 239.96 140.264 239.8C140.627 239.64 141.059 239.56 141.56 239.56H143.264L142.688 240.128V238H143.984ZM140.424 238L141.824 240.032H140.44L139.024 238H140.424ZM142.688 239.984L143.264 240.592H141.632C141.232 240.592 140.934 240.677 140.736 240.848C140.539 241.024 140.44 241.264 140.44 241.568C140.44 241.877 140.539 242.117 140.736 242.288C140.934 242.459 141.232 242.544 141.632 242.544H143.264L142.688 243.16V239.984Z" fill="black"/>
<path d="M60.4614 134.897C65.6361 134.897 70.6732 133.48 75.0253 130.801C78.3665 128.743 82.4593 127.655 86.8621 127.655C91.2648 127.655 95.3577 128.743 98.7003 130.801C103.052 133.48 108.089 134.897 113.264 134.897H138.776C138.815 134.897 138.848 134.915 138.887 134.92C138.954 133.954 139 132.982 139 132C139 131.018 138.954 130.046 138.887 129.08C138.849 129.083 138.816 129.103 138.777 129.103H111.483C110.682 129.103 110.034 128.455 110.034 127.655C110.034 126.856 110.682 126.207 111.483 126.207H138.593C138.319 124.226 137.907 122.291 137.368 120.409C137.236 120.449 137.106 120.492 136.962 120.492H94.1034C93.3026 120.492 92.6552 119.843 92.6552 119.044C92.6552 118.244 93.3026 117.595 94.1034 117.595H136.463C135.702 115.514 134.775 113.513 133.711 111.601C133.498 111.724 133.265 111.812 133.001 111.812H124.517C123.716 111.812 123.069 111.164 123.069 110.364C123.069 109.565 123.716 108.916 124.517 108.916H132.082C124.569 97.5223 111.667 90 97 90C85.7976 90 75.6263 94.3955 68.0968 101.544H79.7119C80.5128 101.544 81.1602 102.193 81.1602 102.992C81.1602 103.792 80.5128 104.441 79.7119 104.441H66.6282C66.2517 104.441 65.9157 104.289 65.6579 104.053C64.2979 105.578 63.0481 107.203 61.9184 108.914H69.4828C70.2837 108.914 70.931 109.563 70.931 110.363C70.931 111.162 70.2837 111.811 69.4828 111.811H60.9988C60.7352 111.811 60.502 111.721 60.2891 111.6C59.4868 113.039 58.767 114.531 58.1355 116.069H66.3806C67.1814 116.069 67.8288 116.718 67.8288 117.517C67.8288 118.317 67.1814 118.966 66.3806 118.966H57.8966C57.6185 118.966 57.3723 118.866 57.1521 118.729C56.6467 120.25 56.2166 121.804 55.8849 123.396H75.2759C76.0768 123.396 76.7241 124.045 76.7241 124.844C76.7241 125.644 76.0768 126.292 75.2759 126.292H55.6083C55.5344 126.292 55.4721 126.26 55.4012 126.25C55.1434 128.132 55 130.049 55 132C55 132.982 55.0463 133.954 55.113 134.92C55.1506 134.915 55.1839 134.897 55.223 134.897H60.4614Z" fill="#C288D0"/>
<path d="M98.7005 153.475C95.3579 155.533 91.2651 156.621 86.8623 156.621C82.4596 156.621 78.3667 155.533 75.0241 153.475C70.672 150.796 65.6364 149.379 60.4617 149.379H58.7672C59.7636 151.567 60.9338 153.659 62.2764 155.627C62.566 155.421 62.9281 155.314 63.309 155.366C66.152 155.757 68.8168 156.707 71.2296 158.193C75.712 160.954 81.117 162.414 86.8623 162.414C92.6076 162.414 98.0126 160.954 102.496 158.193C105.707 156.216 109.429 155.172 113.263 155.172H131.017C131.33 155.172 131.604 155.292 131.84 155.46C133.135 153.541 134.264 151.505 135.232 149.379H113.264C108.09 149.379 103.053 150.796 98.7005 153.475Z" fill="#C06FCD"/>
<path d="M97.1808 133.268C94.2973 131.49 90.7287 130.552 86.8618 130.552C82.9949 130.552 79.4264 131.49 76.5429 133.268C71.7332 136.228 66.1718 137.793 60.4612 137.793H55.4067C55.8282 140.842 56.5683 143.786 57.6067 146.59C57.7718 146.525 57.9485 146.483 58.1353 146.483H60.4598C66.1703 146.483 71.7317 148.049 76.5414 151.009C79.4264 152.786 82.9949 153.724 86.8618 153.724C90.7287 153.724 94.2973 152.786 97.1808 151.009C101.991 148.049 107.552 146.483 113.264 146.483H135.863C136.05 146.483 136.226 146.525 136.391 146.59C137.43 143.788 138.17 140.842 138.591 137.793H113.264C107.552 137.793 101.991 136.228 97.1808 133.268Z" fill="#D3A6EF"/>
<path d="M86.8621 155.172C102.059 155.172 114.379 142.852 114.379 127.655C114.379 112.458 102.059 100.138 86.8621 100.138C71.6647 100.138 59.3448 112.458 59.3448 127.655C59.3448 142.852 71.6647 155.172 86.8621 155.172Z" fill="#D3A6EF"/>
<path d="M104.015 160.66C99.0753 163.703 93.1432 165.31 86.862 165.31C80.5809 165.31 74.6487 163.703 69.7086 160.66C68.0793 159.656 66.3095 158.948 64.4398 158.525C72.1417 167.968 83.8655 174 97 174C104.767 174 112.037 171.883 118.278 168.207H104.241C103.44 168.207 102.793 167.558 102.793 166.759C102.793 165.959 103.44 165.31 104.241 165.31H120.384C120.912 165.31 121.353 165.607 121.606 166.029C124.729 163.766 127.525 161.087 129.918 158.069H113.263C109.965 158.069 106.767 158.965 104.015 160.66Z" fill="#C288D0"/>
<path d="M82.517 140.69C92.1153 140.69 99.8963 132.909 99.8963 123.31C99.8963 113.712 92.1153 105.931 82.517 105.931C72.9187 105.931 65.1377 113.712 65.1377 123.31C65.1377 132.909 72.9187 140.69 82.517 140.69Z" fill="#EAC7FA"/>
<path d="M113.263 155.173C109.429 155.173 105.705 156.217 102.495 158.194C98.0122 160.954 92.6072 162.414 86.8619 162.414C81.1166 162.414 75.7116 160.954 71.2278 158.194C68.8149 156.708 66.1501 155.756 63.3072 155.367C62.9263 155.313 62.5642 155.42 62.2745 155.627C62.9552 156.625 63.6779 157.591 64.4397 158.525C66.3094 158.95 68.0778 159.656 69.7085 160.66C74.6486 163.703 80.5807 165.311 86.8619 165.311C93.1431 165.311 99.0752 163.703 104.015 160.66C106.767 158.966 109.965 158.069 113.264 158.069H129.918C130.588 157.223 131.236 156.359 131.841 155.461C131.603 155.293 131.33 155.173 131.017 155.173H113.263Z" fill="#8E6CA2"/>
<path d="M138.777 134.896H113.264C108.09 134.896 103.051 133.48 98.699 130.8C95.3578 128.742 91.265 127.655 86.8622 127.655C82.4595 127.655 78.3667 128.742 75.024 130.8C70.672 133.48 65.6363 134.896 60.4616 134.896H55.2232C55.1841 134.896 55.1508 134.915 55.1117 134.919C55.1783 135.887 55.2753 136.845 55.4071 137.792H60.4602C66.1707 137.792 71.7321 136.227 76.5418 133.267C79.4268 131.49 82.9954 130.551 86.8622 130.551C90.7291 130.551 94.2977 131.49 97.1812 133.267C101.991 136.227 107.552 137.792 113.264 137.792H138.592C138.722 136.844 138.821 135.885 138.887 134.919C138.85 134.915 138.816 134.896 138.777 134.896Z" fill="#8E6CA2"/>
<path d="M113.264 146.483C107.552 146.483 101.991 148.049 97.181 151.009C94.2974 152.786 90.7289 153.725 86.862 153.725C82.9951 153.725 79.4265 152.786 76.543 151.009C71.7333 148.049 66.1719 146.483 60.4614 146.483H58.1354C57.9472 146.483 57.7719 146.525 57.6068 146.59C57.9587 147.538 58.3498 148.466 58.7669 149.38H60.4614C65.6361 149.38 70.6732 150.796 75.0252 153.475C78.3664 155.533 82.4592 156.621 86.862 156.621C91.2647 156.621 95.3576 155.533 98.7002 153.475C103.052 150.796 108.089 149.38 113.264 149.38H135.233C135.649 148.466 136.041 147.538 136.393 146.59C136.228 146.525 136.051 146.483 135.864 146.483H113.264Z" fill="#8E6CA2"/>
<path d="M120.384 165.31H104.241C103.44 165.31 102.793 165.959 102.793 166.759C102.793 167.558 103.44 168.207 104.241 168.207H118.278C119.423 167.532 120.533 166.805 121.605 166.029C121.353 165.607 120.911 165.31 120.384 165.31Z" fill="#8E6CA2"/>
<path d="M110.034 127.655C110.034 128.454 110.682 129.103 111.483 129.103H138.777C138.816 129.103 138.849 129.084 138.888 129.08C138.822 128.112 138.725 127.154 138.593 126.207H111.483C110.682 126.207 110.034 126.854 110.034 127.655Z" fill="#8E6CA2"/>
<path d="M92.6552 119.043C92.6552 119.842 93.3025 120.491 94.1034 120.491H136.961C137.104 120.491 137.236 120.448 137.366 120.408C137.094 119.457 136.8 118.516 136.463 117.594H94.1034C93.3025 117.594 92.6552 118.242 92.6552 119.043Z" fill="#8E6CA2"/>
<path d="M75.2757 126.294C76.0766 126.294 76.724 125.645 76.724 124.845C76.724 124.046 76.0766 123.397 75.2757 123.397H55.8847C55.6892 124.337 55.5328 125.29 55.401 126.252C55.472 126.262 55.5342 126.294 55.6081 126.294H75.2757Z" fill="#8E6CA2"/>
<path d="M123.069 110.363C123.069 111.163 123.716 111.812 124.517 111.812H133.001C133.265 111.812 133.498 111.722 133.711 111.6C133.201 110.683 132.656 109.788 132.08 108.915H124.517C123.716 108.915 123.069 109.562 123.069 110.363Z" fill="#8E6CA2"/>
<path d="M69.4827 111.812C70.2836 111.812 70.931 111.163 70.931 110.363C70.931 109.564 70.2836 108.915 69.4827 108.915H61.9184C61.3434 109.788 60.7988 110.683 60.2876 111.6C60.5005 111.723 60.7337 111.812 60.9973 111.812H69.4827Z" fill="#8E6CA2"/>
<path d="M66.3806 118.965C67.1815 118.965 67.8289 118.317 67.8289 117.517C67.8289 116.718 67.1815 116.069 66.3806 116.069H58.1356C57.7779 116.941 57.452 117.83 57.1522 118.729C57.3724 118.865 57.6186 118.965 57.8966 118.965H66.3806Z" fill="#8E6CA2"/>
<path d="M79.7105 104.441C80.5114 104.441 81.1587 103.792 81.1587 102.993C81.1587 102.194 80.5114 101.545 79.7105 101.545H68.0953C67.2495 102.347 66.4341 103.183 65.6578 104.053C65.9156 104.289 66.2516 104.441 66.6282 104.441H79.7105Z" fill="#8E6CA2"/>
<path d="M114.949 104.483H111.697C111.615 104.483 111.59 104.364 111.668 104.338C112.966 103.909 113.858 102.587 113.616 101.1C113.385 99.676 112.046 98.6897 110.604 98.6897H103.517C101.942 98.6897 100.66 99.9482 100.622 101.515C100.621 101.554 100.59 101.586 100.551 101.586H96.431C94.9886 101.586 93.6503 102.573 93.4186 103.996C93.1768 105.484 94.0689 106.806 95.3666 107.235C95.4448 107.261 95.4201 107.379 95.3376 107.379H90.6379C89.1954 107.379 87.8572 108.366 87.6255 109.789C87.3301 111.604 88.7233 113.172 90.483 113.172H104.966C106.541 113.172 107.823 111.914 107.861 110.347C107.862 110.308 107.893 110.276 107.932 110.276H115.104C116.863 110.276 118.257 108.707 117.961 106.893C117.729 105.469 116.391 104.483 114.949 104.483Z" fill="#C06FCD"/>
<path d="M86.8622 149.379C80.581 149.379 75.276 146.062 75.276 142.138C75.276 138.213 80.581 134.896 86.8622 134.896C93.1434 134.896 98.4484 138.213 98.4484 142.138C98.4484 146.062 93.1434 149.379 86.8622 149.379Z" fill="#C06FCD"/>
<path d="M60.7931 97.242C61.593 97.242 62.2414 96.5936 62.2414 95.7937C62.2414 94.9939 61.593 94.3455 60.7931 94.3455C59.9933 94.3455 59.3448 94.9939 59.3448 95.7937C59.3448 96.5936 59.9933 97.242 60.7931 97.242Z" fill="#E85BC0"/>
<path d="M81.069 118.965C81.8689 118.965 82.5173 118.317 82.5173 117.517C82.5173 116.717 81.8689 116.069 81.069 116.069C80.2691 116.069 79.6207 116.717 79.6207 117.517C79.6207 118.317 80.2691 118.965 81.069 118.965Z" fill="#E85BC0"/>
<path d="M85.4139 124.759C86.2137 124.759 86.8621 124.11 86.8621 123.311C86.8621 122.511 86.2137 121.862 85.4139 121.862C84.614 121.862 83.9656 122.511 83.9656 123.311C83.9656 124.11 84.614 124.759 85.4139 124.759Z" fill="#E85BC0"/>
<path d="M112.931 143.586C113.731 143.586 114.379 142.938 114.379 142.138C114.379 141.338 113.731 140.69 112.931 140.69C112.131 140.69 111.483 141.338 111.483 142.138C111.483 142.938 112.131 143.586 112.931 143.586Z" fill="#E85BC0"/>
<path d="M65.1379 171.103C65.9377 171.103 66.5861 170.455 66.5861 169.655C66.5861 168.855 65.9377 168.207 65.1379 168.207C64.338 168.207 63.6896 168.855 63.6896 169.655C63.6896 170.455 64.338 171.103 65.1379 171.103Z" fill="#E85BC0"/>
<path d="M57.8964 160.965C58.6963 160.965 59.3447 160.317 59.3447 159.517C59.3447 158.717 58.6963 158.069 57.8964 158.069C57.0965 158.069 56.4481 158.717 56.4481 159.517C56.4481 160.317 57.0965 160.965 57.8964 160.965Z" fill="#E85BC0"/>
<path d="M73.8275 92.8966C74.6274 92.8966 75.2758 92.2481 75.2758 91.4483C75.2758 90.6484 74.6274 90 73.8275 90C73.0277 90 72.3793 90.6484 72.3793 91.4483C72.3793 92.2481 73.0277 92.8966 73.8275 92.8966Z" fill="#E85BC0"/>
<path d="M123.069 107.38C123.869 107.38 124.517 106.731 124.517 105.931C124.517 105.132 123.869 104.483 123.069 104.483C122.269 104.483 121.621 105.132 121.621 105.931C121.621 106.731 122.269 107.38 123.069 107.38Z" fill="#E85BC0"/>
<path d="M134.655 169.655C135.455 169.655 136.104 169.007 136.104 168.207C136.104 167.407 135.455 166.759 134.655 166.759C133.856 166.759 133.207 167.407 133.207 168.207C133.207 169.007 133.856 169.655 134.655 169.655Z" fill="#E85BC0"/>
<defs>
<filter id="filter0_d_638_24" x="0.7" y="0.7" width="194.6" height="268.6" filterUnits="userSpaceOnUse" colorInterpolationFilters="sRGB">
<feFlood flood-opacity="0" result="BackgroundImageFix"/>
<feColorMatrix in="SourceAlpha" type="matrix" values="0 0 0 0 0 0 0 0 0 0 0 0 0 0 0 0 0 0 127 0" result="hardAlpha"/>
<feMorphology radius="1" operator="dilate" in="SourceAlpha" result="effect1_dropShadow_638_24"/>
<feOffset dx="1" dy="3"/>
<feGaussianBlur stdDeviation="3.15"/>
<feComposite in2="hardAlpha" operator="out"/>
<feColorMatrix type="matrix" values="0 0 0 0 0 0 0 0 0 0 0 0 0 0 0 0 0 0 0.25 0"/>
<feBlend mode="normal" in2="BackgroundImageFix" result="effect1_dropShadow_638_24"/>
<feBlend mode="normal" in="SourceGraphic" in2="effect1_dropShadow_638_24" result="shape"/>
</filter>
</defs>
</svg>
