<svg width="196" height="270" viewBox="0 0 196 270" fill="none" xmlns="http://www.w3.org/2000/svg">
<g filter="url(#filter0_d_724_628)">
<rect x="7" y="5" width="180" height="254" rx="8" fill="#FFFCF7"/>
</g>
<path d="M106.387 116.471L113.054 122.75C112.872 122.831 112.662 122.931 112.415 123.055C112.029 123.256 111.569 123.525 111.018 123.907C109.919 124.662 108.487 125.868 106.655 127.845L93.625 141.634C91.392 143.994 89.123 145.864 87.013 146.853L80.342 140.572C80.524 140.487 80.734 140.393 80.977 140.263C81.363 140.066 81.823 139.793 82.374 139.417C83.47 138.655 84.906 137.456 86.74 135.476L99.767 121.71C102.001 119.353 104.274 117.46 106.387 116.471Z" fill="#2D2D2D"/>
<path d="M80.579 149.803C83.526 149.803 86.235 149.219 88.073 148.266C88.913 147.828 90.112 147.074 91.143 146.27C92.17 145.469 93.626 144.221 94.857 142.912L107.9 129.162C111.19 125.697 113.167 124.627 114.367 124.206L121.057 130.543C119.661 132.036 103.01 149.77 103.01 149.77C101.875 150.996 100.679 152.179 99.866 152.924C99.085 153.644 97.749 154.717 97.059 155.222C93.143 158.091 87.912 160.418 80.868 160.418C64.907 160.418 52 147.427 52 132.468C52 113.911 66.499 103.143 79.704 103.143C83.752 103.023 87 103.704 89.568 104.576C91.941 105.383 93.733 106.359 95.033 107.023C93.496 108.008 92.009 109.351 89.558 111.969L86.88 114.844C86.264 114.607 83.532 113.654 80.025 113.761C71.552 114.011 62.285 120.879 62.619 132.146C62.93 142.681 71.614 149.803 80.579 149.803Z" fill="#2D2D2D"/>
<path d="M105.24 115.152C104.397 115.593 103.201 116.345 102.164 117.149C101.14 117.95 99.6851 119.198 98.4501 120.504L85.4101 134.257C82.1201 137.722 80.1421 138.788 78.9431 139.21L72.2531 132.879C73.6531 131.382 90.3011 113.651 90.3011 113.651C91.4391 112.425 92.6321 111.242 93.4451 110.494C94.2261 109.774 95.5621 108.705 96.2581 108.196C100.167 105.327 105.405 103 112.449 103C128.409 103 141.31 115.992 141.31 130.947C141.31 149.51 126.814 160.272 113.606 160.272C109.561 160.395 106.31 159.714 103.746 158.835C101.367 158.031 99.5681 157.049 98.2711 156.388C99.8951 155.292 101.285 154.09 103.755 151.451L106.429 148.576C107.045 148.809 109.778 149.763 113.288 149.659C121.758 149.406 131.028 142.531 130.694 131.267C130.38 120.737 121.69 113.612 112.73 113.612C109.778 113.612 107.081 114.199 105.24 115.152Z" fill="#2D2D2D"/>
<path d="M22.664 25V19.4H23.736L27.04 23.432H26.52V19.4H27.8V25H26.736L23.424 20.968H23.944V25H22.664ZM31.8049 25.096C31.3729 25.096 30.9703 25.0267 30.5969 24.888C30.2289 24.744 29.9089 24.5413 29.6369 24.28C29.3649 24.0187 29.1516 23.712 28.9969 23.36C28.8476 23.008 28.7729 22.6213 28.7729 22.2C28.7729 21.7787 28.8476 21.392 28.9969 21.04C29.1516 20.688 29.3649 20.3813 29.6369 20.12C29.9143 19.8587 30.2369 19.6587 30.6049 19.52C30.9729 19.376 31.3756 19.304 31.8129 19.304C32.2983 19.304 32.7356 19.3893 33.1249 19.56C33.5196 19.7253 33.8503 19.9707 34.1169 20.296L33.2849 21.064C33.0929 20.8453 32.8796 20.6827 32.6449 20.576C32.4103 20.464 32.1543 20.408 31.8769 20.408C31.6156 20.408 31.3756 20.4507 31.1569 20.536C30.9383 20.6213 30.7489 20.744 30.5889 20.904C30.4289 21.064 30.3036 21.2533 30.2129 21.472C30.1276 21.6907 30.0849 21.9333 30.0849 22.2C30.0849 22.4667 30.1276 22.7093 30.2129 22.928C30.3036 23.1467 30.4289 23.336 30.5889 23.496C30.7489 23.656 30.9383 23.7787 31.1569 23.864C31.3756 23.9493 31.6156 23.992 31.8769 23.992C32.1543 23.992 32.4103 23.9387 32.6449 23.832C32.8796 23.72 33.0929 23.552 33.2849 23.328L34.1169 24.096C33.8503 24.4213 33.5196 24.6693 33.1249 24.84C32.7356 25.0107 32.2956 25.096 31.8049 25.096ZM34.9921 25V19.4H37.4161C37.9175 19.4 38.3495 19.4827 38.7121 19.648C39.0748 19.808 39.3548 20.04 39.5521 20.344C39.7495 20.648 39.8481 21.0107 39.8481 21.432C39.8481 21.848 39.7495 22.208 39.5521 22.512C39.3548 22.8107 39.0748 23.04 38.7121 23.2C38.3495 23.36 37.9175 23.44 37.4161 23.44H35.7121L36.2881 22.872V25H34.9921ZM38.5521 25L37.1521 22.968H38.5361L39.9521 25H38.5521ZM36.2881 23.016L35.7121 22.408H37.3441C37.7441 22.408 38.0428 22.3227 38.2401 22.152C38.4375 21.976 38.5361 21.736 38.5361 21.432C38.5361 21.1227 38.4375 20.8827 38.2401 20.712C38.0428 20.5413 37.7441 20.456 37.3441 20.456H35.7121L36.2881 19.84V23.016Z" fill="black"/>
<path d="M35.0499 35.2229L37.1399 37.1913C37.0829 37.2167 37.017 37.2481 36.9396 37.2869C36.8186 37.3499 36.6744 37.4343 36.5017 37.554C36.1571 37.7907 35.7082 38.1688 35.1339 38.7885L31.0491 43.1113C30.3491 43.8511 29.6378 44.4373 28.9763 44.7474L26.885 42.7783C26.9421 42.7517 27.0079 42.7222 27.0841 42.6815C27.2051 42.6197 27.3493 42.5341 27.522 42.4163C27.8656 42.1774 28.3158 41.8015 28.8907 41.1808L32.9746 36.8653C33.6749 36.1264 34.3875 35.5329 35.0499 35.2229Z" fill="#2D2D2D"/>
<path d="M26.9593 45.6723C27.8831 45.6723 28.7324 45.4893 29.3086 45.1905C29.5719 45.0532 29.9478 44.8168 30.271 44.5648C30.5929 44.3137 31.0494 43.9224 31.4353 43.5121L35.5242 39.2016C36.5555 38.1153 37.1753 37.7799 37.5515 37.6479L39.6488 39.6345C39.2111 40.1025 33.9912 45.662 33.9912 45.662C33.6354 46.0463 33.2604 46.4172 33.0056 46.6507C32.7607 46.8765 32.3419 47.2128 32.1256 47.3711C30.898 48.2705 29.2581 49 27.0499 49C22.0462 49 18 44.9275 18 40.238C18 34.4205 22.5453 31.0448 26.685 31.0448C27.954 31.0072 28.9722 31.2207 29.7772 31.4941C30.5211 31.7471 31.0829 32.053 31.4905 32.2612C31.0086 32.57 30.5425 32.991 29.7741 33.8117L28.9346 34.713C28.7415 34.6387 27.885 34.3399 26.7856 34.3735C24.1294 34.4519 21.2243 36.6049 21.329 40.137C21.4265 43.4396 24.1488 45.6723 26.9593 45.6723Z" fill="#2D2D2D"/>
<path d="M34.6903 34.8095C34.426 34.9478 34.051 35.1835 33.726 35.4356C33.4049 35.6867 32.9488 36.0779 32.5616 36.4873L28.4737 40.7988C27.4423 41.885 26.8223 42.2192 26.4464 42.3515L24.3491 40.3668C24.788 39.8975 30.007 34.339 30.007 34.339C30.3638 33.9547 30.7378 33.5838 30.9926 33.3493C31.2375 33.1236 31.6563 32.7885 31.8745 32.6289C33.0999 31.7295 34.742 31 36.9502 31C41.9535 31 45.9979 35.0729 45.9979 39.7611C45.9979 45.5805 41.4535 48.9543 37.3129 48.9543C36.0448 48.9928 35.0257 48.7793 34.2219 48.5038C33.4761 48.2517 32.9121 47.9439 32.5055 47.7367C33.0146 47.3931 33.4504 47.0163 34.2247 46.189L35.063 45.2877C35.2561 45.3607 36.1129 45.6598 37.2132 45.6272C39.8685 45.5479 42.7746 43.3926 42.6699 39.8615C42.5714 36.5604 39.8472 34.3268 37.0383 34.3268C36.1129 34.3268 35.2674 34.5108 34.6903 34.8095Z" fill="#2D2D2D"/>
<path d="M171.336 239V244.6H170.264L166.96 240.568H167.48V244.6H166.2V239H167.264L170.576 243.032H170.056V239H171.336ZM162.195 238.904C162.627 238.904 163.03 238.973 163.403 239.112C163.771 239.256 164.091 239.459 164.363 239.72C164.635 239.981 164.848 240.288 165.003 240.64C165.152 240.992 165.227 241.379 165.227 241.8C165.227 242.221 165.152 242.608 165.003 242.96C164.848 243.312 164.635 243.619 164.363 243.88C164.086 244.141 163.763 244.341 163.395 244.48C163.027 244.624 162.624 244.696 162.187 244.696C161.702 244.696 161.264 244.611 160.875 244.44C160.48 244.275 160.15 244.029 159.883 243.704L160.715 242.936C160.907 243.155 161.12 243.317 161.355 243.424C161.59 243.536 161.846 243.592 162.123 243.592C162.384 243.592 162.624 243.549 162.843 243.464C163.062 243.379 163.251 243.256 163.411 243.096C163.571 242.936 163.696 242.747 163.787 242.528C163.872 242.309 163.915 242.067 163.915 241.8C163.915 241.533 163.872 241.291 163.787 241.072C163.696 240.853 163.571 240.664 163.411 240.504C163.251 240.344 163.062 240.221 162.843 240.136C162.624 240.051 162.384 240.008 162.123 240.008C161.846 240.008 161.59 240.061 161.355 240.168C161.12 240.28 160.907 240.448 160.715 240.672L159.883 239.904C160.15 239.579 160.48 239.331 160.875 239.16C161.264 238.989 161.704 238.904 162.195 238.904ZM159.008 239V244.6H156.584C156.083 244.6 155.651 244.517 155.288 244.352C154.925 244.192 154.645 243.96 154.448 243.656C154.251 243.352 154.152 242.989 154.152 242.568C154.152 242.152 154.251 241.792 154.448 241.488C154.645 241.189 154.925 240.96 155.288 240.8C155.651 240.64 156.083 240.56 156.584 240.56H158.288L157.712 241.128V239H159.008ZM155.448 239L156.848 241.032H155.464L154.048 239H155.448ZM157.712 240.984L158.288 241.592H156.656C156.256 241.592 155.957 241.677 155.76 241.848C155.563 242.024 155.464 242.264 155.464 242.568C155.464 242.877 155.563 243.117 155.76 243.288C155.957 243.459 156.256 243.544 156.656 243.544H158.288L157.712 244.16V240.984Z" fill="black"/>
<path d="M166.05 219.223L168.14 221.191C168.083 221.217 168.017 221.248 167.94 221.287C167.819 221.35 167.674 221.434 167.502 221.554C167.157 221.791 166.708 222.169 166.134 222.789L162.049 227.111C161.349 227.851 160.638 228.437 159.976 228.747L157.885 226.778C157.942 226.752 158.008 226.722 158.084 226.681C158.205 226.62 158.349 226.534 158.522 226.416C158.866 226.177 159.316 225.802 159.891 225.181L163.975 220.865C164.675 220.126 165.387 219.533 166.05 219.223Z" fill="#2D2D2D"/>
<path d="M157.959 229.672C158.883 229.672 159.732 229.489 160.309 229.19C160.572 229.053 160.948 228.817 161.271 228.565C161.593 228.314 162.049 227.922 162.435 227.512L166.524 223.202C167.556 222.115 168.175 221.78 168.552 221.648L170.649 223.634C170.211 224.103 164.991 229.662 164.991 229.662C164.635 230.046 164.26 230.417 164.006 230.651C163.761 230.876 163.342 231.213 163.126 231.371C161.898 232.271 160.258 233 158.05 233C153.046 233 149 228.927 149 224.238C149 218.421 153.545 215.045 157.685 215.045C158.954 215.007 159.972 215.221 160.777 215.494C161.521 215.747 162.083 216.053 162.49 216.261C162.009 216.57 161.542 216.991 160.774 217.812L159.935 218.713C159.741 218.639 158.885 218.34 157.786 218.373C155.129 218.452 152.224 220.605 152.329 224.137C152.426 227.44 155.149 229.672 157.959 229.672Z" fill="#2D2D2D"/>
<path d="M165.69 218.81C165.426 218.948 165.051 219.184 164.726 219.436C164.405 219.687 163.949 220.078 163.562 220.487L159.474 224.799C158.442 225.885 157.822 226.219 157.446 226.352L155.349 224.367C155.788 223.898 161.007 218.339 161.007 218.339C161.364 217.955 161.738 217.584 161.993 217.349C162.237 217.124 162.656 216.788 162.874 216.629C164.1 215.729 165.742 215 167.95 215C172.954 215 176.998 219.073 176.998 223.761C176.998 229.58 172.454 232.954 168.313 232.954C167.045 232.993 166.026 232.779 165.222 232.504C164.476 232.252 163.912 231.944 163.506 231.737C164.015 231.393 164.45 231.016 165.225 230.189L166.063 229.288C166.256 229.361 167.113 229.66 168.213 229.627C170.868 229.548 173.775 227.393 173.67 223.861C173.571 220.56 170.847 218.327 168.038 218.327C167.113 218.327 166.267 218.511 165.69 218.81Z" fill="#2D2D2D"/>
<defs>
<filter id="filter0_d_724_628" x="0.7" y="0.7" width="194.6" height="268.6" filterUnits="userSpaceOnUse" color-interpolation-filters="sRGB">
<feFlood flood-opacity="0" result="BackgroundImageFix"/>
<feColorMatrix in="SourceAlpha" type="matrix" values="0 0 0 0 0 0 0 0 0 0 0 0 0 0 0 0 0 0 127 0" result="hardAlpha"/>
<feMorphology radius="1" operator="dilate" in="SourceAlpha" result="effect1_dropShadow_724_628"/>
<feOffset dx="1" dy="3"/>
<feGaussianBlur stdDeviation="3.15"/>
<feComposite in2="hardAlpha" operator="out"/>
<feColorMatrix type="matrix" values="0 0 0 0 0 0 0 0 0 0 0 0 0 0 0 0 0 0 0.25 0"/>
<feBlend mode="normal" in2="BackgroundImageFix" result="effect1_dropShadow_724_628"/>
<feBlend mode="normal" in="SourceGraphic" in2="effect1_dropShadow_724_628" result="shape"/>
</filter>
</defs>
</svg>
