<svg width="590" height="150" viewBox="0 0 590 150" fill="none" xmlns="http://www.w3.org/2000/svg">
<path d="M3.20315 60.6667C4.53648 75.3333 6.53648 99.6 7.73648 114.667C9.86982 142 11.3365 148 15.6032 148C16.5365 148 18.1365 147.2 18.9365 146.133C22.0032 142.4 23.4698 117.333 22.6698 78.6667L22.0032 40.6667L30.1365 49.3333C41.3365 61.2 55.0698 77.8667 75.7365 104.667C95.6032 130.667 108.003 144.267 113.736 146.667C122.536 150.267 132.536 144.133 134.536 134C135.603 128.267 134.803 121.467 128.936 86.6667C124.136 57.0667 120.403 26.6667 120.403 15.3333C120.403 6.26666 117.336 2.13333 110.67 2.13333C104.67 2.13333 102.136 4.26666 100.403 10.8C98.5365 17.6 99.4698 26.1333 109.07 86.5333C111.736 102.8 113.603 116.933 113.336 117.733C112.803 119.467 100.003 104.133 75.6032 72.6667C55.3365 46.5333 28.4032 18 19.3365 13.4667C14.4032 10.9333 12.9365 10.6667 8.93648 12C3.20315 14 0.403151 19.2 0.536484 27.6C0.669817 31.0667 1.86982 46 3.20315 60.6667Z" fill="black"/>
<path d="M143.47 70.9082C145.203 74.3748 147.203 81.5748 148.137 87.8415C153.87 128.775 176.27 145.175 197.203 123.708C205.07 115.575 209.47 105.842 217.603 78.9082C224.27 57.0415 227.603 47.8415 229.47 47.1748C230.137 47.0415 236.003 53.0415 242.403 60.7748L253.87 74.9082L242.67 103.175C234.803 123.708 234.803 128.507 234.803 132.241C234.803 141.307 245.07 145.307 251.337 138.774C253.203 136.907 256.7 125.808 261.5 112.074C267.111 92.3748 266.003 92.9082 266.537 92.3748C266.803 91.9748 267.87 92.7748 268.803 93.8415C282.537 111.442 291.033 125.174 294.5 130.641C300.1 138.908 305.033 141.441 310.5 138.774C314.633 136.774 317.033 131.574 315.833 126.908C314.5 121.841 319.337 125.175 297.603 98.1082C286.403 84.2415 276.803 72.2415 276.137 71.3082C275.337 70.3748 277.47 62.1082 282.537 47.3082C288.27 30.3748 290.27 22.9083 290.27 16.9083C290.403 9.30829 290.27 8.90829 287.07 8.50829C282.937 8.10829 282.67 8.50824 271.737 33.1749C266.937 43.9749 262.803 52.9082 262.537 53.1748C262.27 53.4415 257.337 47.7082 251.337 40.3748C238.67 24.9082 231.603 20.3749 224.003 22.7749C216.937 25.1749 212.67 30.7748 207.87 44.2415L203.47 56.5082L202.537 49.0415C201.337 38.7748 198.27 31.7082 193.07 27.0416C184.537 19.5749 172.403 19.8416 163.07 27.8416C156.937 33.0416 150.537 44.9082 149.07 53.5748C148.27 57.9748 147.603 58.7748 144.67 59.1748C139.87 59.7082 139.47 63.4415 143.47 70.9082ZM171.07 51.9748C173.87 44.5082 178.27 40.2415 180.803 42.7748C182.937 44.9082 183.603 58.7748 181.87 65.1748C179.737 73.0415 175.07 78.2415 171.337 77.0415C168.67 76.1082 168.403 75.1748 168.403 67.5748C168.403 62.2415 169.47 56.2415 171.07 51.9748ZM174.403 93.5748C181.07 93.5748 189.07 89.1748 193.07 83.3082C197.203 77.0415 197.337 80.1082 193.337 90.3748C187.07 106.508 182.537 113.042 178.67 111.442C176.403 110.642 170.27 98.9082 169.87 94.5082C169.737 93.9748 171.87 93.5748 174.403 93.5748Z" fill="black"/>
<path d="M296.148 63.8463C297.481 65.713 299.481 66.113 308.015 65.5796L318.281 65.1796V72.7796C318.281 87.0463 321.215 114.38 323.748 124.38C327.215 137.713 331.348 143.98 338.415 145.98C343.348 147.58 344.415 147.446 349.881 144.513C356.148 141.18 365.748 130.246 367.081 124.913C368.148 120.646 366.015 115.846 361.748 113.046C357.615 110.38 353.348 111.313 347.881 115.846C344.681 118.513 343.748 118.78 343.215 117.18C341.881 113.713 338.415 88.113 337.481 74.513L336.681 61.0463L357.081 56.113C368.415 53.4463 379.081 50.113 380.948 48.7796C387.881 43.5796 384.548 32.513 375.881 32.513C373.881 32.513 364.148 35.1796 354.281 38.2463L336.281 44.113L334.681 27.4463C332.548 6.37963 331.215 1.8463 326.815 1.8463C322.015 1.8463 320.815 6.37963 320.015 27.1796C319.615 37.0463 318.815 46.3796 318.148 47.9796C317.615 49.713 315.481 51.1796 313.081 51.5796C306.815 52.913 295.881 57.8463 295.081 59.8463C294.815 60.7796 295.215 62.6463 296.148 63.8463Z" fill="black"/>
<path d="M420.885 12.1182C422.619 13.0515 429.285 14.3848 435.952 15.3182L447.952 16.7848L454.219 41.9848C463.819 80.5182 466.219 92.6515 466.885 108.118C467.685 123.852 466.485 128.385 461.552 127.718C457.419 127.185 450.619 117.451 447.152 107.051C444.885 100.385 443.952 94.5182 443.685 85.0515C443.419 70.6515 442.219 67.0515 437.019 65.8515C429.019 63.8515 421.952 72.6515 421.952 84.7848C421.952 99.7182 432.619 128.385 442.085 139.318C448.085 146.118 458.352 150.918 464.619 149.852C481.685 146.785 491.419 130.785 489.419 109.051C488.219 96.5182 482.885 69.5848 476.619 44.1182C473.685 32.3848 471.285 22.6515 471.285 22.3848C471.285 21.9848 478.885 21.3182 488.219 20.7848C507.952 19.7182 511.685 18.1182 512.352 10.3848C512.619 7.05149 511.952 5.18482 509.819 3.18482C507.419 1.05149 504.619 0.65149 489.819 0.25149C468.085 -0.281844 424.219 1.98482 420.619 3.98482C417.019 5.85149 417.152 10.1182 420.885 12.1182Z" fill="black"/>
<path d="M497.953 106.055C503.287 125.788 519.153 142.321 535.953 145.788C541.687 146.855 551.02 143.788 555.953 138.988C562.62 132.455 565.82 124.455 565.687 113.521C565.553 100.721 562.887 92.5881 550.22 66.5881C540.753 47.2547 539.153 42.9881 538.753 35.7881C538.087 26.0547 539.553 23.5214 546.087 23.5214C553.02 23.5214 559.153 26.7214 567.953 34.9881C576.62 43.3881 581.553 44.7214 586.487 40.1881C596.887 30.8547 576.353 8.32141 552.887 3.38808C540.087 0.588078 525.82 6.58807 520.487 16.9881C513.42 30.5881 516.087 44.9881 531.153 73.6547C546.887 103.788 549.953 116.721 543.287 124.321C540.22 127.921 539.953 128.055 534.487 126.321C526.753 124.055 518.087 115.521 510.62 102.855C504.087 91.7881 500.62 89.3881 497.553 93.6547C495.42 96.4547 495.42 96.8547 497.953 106.055Z" fill="black"/>
</svg>
