<svg width="117" height="29" viewBox="0 0 117 29" fill="none" xmlns="http://www.w3.org/2000/svg">
<path d="M0.0744869 8.98948C0.262275 10.9622 1.49631 22.9299 1.65727 24.6396C1.84506 26.7438 2.14016 27.3224 2.91814 27.2172C4.07169 27.0594 4.28631 25.6391 4.31313 18.7215V12.4088L6.43246 15.3021C11.2613 21.9041 16.8145 27.5855 18.8265 27.9537C20.0873 28.1904 21.1872 27.5066 21.7238 26.1914C22.2603 24.85 22.0725 22.4038 20.6507 12.0932C19.4703 3.59743 19.1484 2.01927 18.3704 1.41431C17.4851 0.730442 16.0365 0.91456 15.3658 1.80885L14.8024 2.54533L15.5536 6.41182C16.3852 10.9622 17.2437 16.8014 17.4583 19.7736L17.6193 21.8778L15.7146 19.9314C13.0855 17.2222 11.2613 14.9865 7.55919 9.91008C3.93756 4.91257 3.42785 4.38651 2.19381 4.38651C0.47689 4.38651 -0.247436 5.96467 0.0744869 8.98948Z" fill="black"/>
<path d="M23.6105 6.07687C23.9435 6.31408 24.5263 6.49858 24.9148 6.49858C25.5808 6.49858 25.5808 6.52493 25.3866 8.42262C24.9981 12.4025 24.6651 20.8497 24.6651 23.09C24.6651 28.3877 26.3301 29.7055 31.7416 28.6776C32.9626 28.4404 35.1827 28.1505 36.6812 28.0187C39.8449 27.7551 40.8439 27.2807 40.9827 25.9365C41.0937 24.8295 40.6219 24.0652 39.5674 23.6698C38.4851 23.2481 34.7387 23.5381 31.4918 24.3024C30.2985 24.5923 29.2717 24.8295 29.2162 24.8295C29.1607 24.8295 28.8277 23.6041 28.8277 20.3358V14.4056H29.8545C30.4373 14.3792 32.1578 14.2738 33.6564 14.1684C36.043 13.9839 36.487 13.8785 36.931 13.3513C38.0133 12.0862 37.0698 10.8211 35.0717 10.9001C34.0172 10.9265 30.687 11.6645 29.2995 12.1653C28.8832 12.3498 28.8277 12.1126 28.8277 9.60867V6.86757L34.1559 6.55129C40.1501 6.18229 40.8161 5.97144 40.9827 4.4164C41.1214 3.17763 40.4276 2.54507 38.9013 2.54507C37.819 2.54507 31.1033 3.38848 29.4382 3.73112C28.911 3.8629 28.8277 3.75748 28.8277 3.0722C28.8277 1.96522 28.1062 0.436533 27.6067 0.436533C26.9961 0.436533 26.4134 1.43809 26.2191 2.86135C26.0249 4.0474 25.9694 4.12647 24.9981 4.28461C23.999 4.44275 23 5.04896 23 5.47066C23 5.57609 23.2775 5.86601 23.6105 6.07687Z" fill="black"/>
<path d="M42.1586 26.0574C42.211 26.2407 42.5515 26.3978 42.9182 26.3978C43.6515 26.3978 44.7516 25.0102 47.3446 20.6902C48.3137 19.0931 49.2042 17.7578 49.3089 17.7578C49.3875 17.7578 50.0947 18.8836 50.8281 20.2451C52.8448 23.8843 53.8714 25.7432 54.5 26.3978C54.8929 26.8167 55.3643 27 56.0191 27C58.0621 27 58.4549 25.1411 56.9096 22.8109C54.6048 19.3025 51.5876 14.2495 51.5876 13.9876C51.5876 13.8306 53.0805 11.3957 54.8878 8.56802C57.3498 4.77167 58.2141 3.22695 58.2141 2.62477C58.2141 0.949135 56.3807 0.163684 54.9925 1.26332C54.4163 1.70841 52.7139 4.43131 49.9899 9.19638C49.5709 9.90329 49.178 10.3746 49.0732 10.2437C48.9685 10.1389 48.0779 8.88221 47.1088 7.46839C44.7778 4.09095 43.5206 2.75568 42.7086 2.88659C41.3729 3.06986 41.7657 4.19567 45.2754 10.2175C46.3493 12.024 47.2136 13.6735 47.2136 13.8306C47.2136 14.0138 46.3493 15.8727 45.2754 17.9935C43.442 21.6327 41.9491 25.0625 42.0015 25.5338C42.0015 25.6385 42.08 25.9003 42.1586 26.0574Z" fill="black"/>
<path d="M59.406 5.28287C59.6344 5.54012 60.2433 5.69446 60.9792 5.69446C61.6389 5.69446 62.6032 5.77163 63.136 5.87453C64.1003 6.02888 64.1256 6.0546 63.9988 6.95495C63.8719 8.03537 64.2525 23.0841 64.4555 24.6533C64.7346 26.7627 66.6123 27.6887 68.0587 26.4282C68.896 25.708 68.8453 26.7112 68.5408 14.8009L68.3124 6.54336L69.1498 6.38902C69.6065 6.28612 71.0782 6.20895 72.423 6.18322C75.6202 6.18322 77.2696 5.90026 77.7009 5.28287C78.2592 4.51114 78.0054 3.12203 77.1934 2.50465C76.5337 2.01589 76.1785 1.96444 71.9917 2.01589C69.2513 2.04161 67.1959 2.17023 66.7392 2.3503C66.3078 2.53037 64.6839 2.86479 63.1107 3.12203C60.421 3.55935 59 4.09956 59 4.66549C59 4.76839 59.1776 5.07708 59.406 5.28287Z" fill="black"/>
<path d="M85.2374 19.0818C87.1784 25.9444 90.4308 29.163 93.8669 27.6202C96.3324 26.5296 97.4341 23.4973 97.6439 17.2996C97.775 13.7619 97.5654 8.42123 97.1457 5.94748L96.9883 5.09631H99.3752C101.972 5.09631 103.362 4.69731 103.834 3.81953C104.28 2.94175 104.175 2.03738 103.519 1.45219C102.706 0.680806 98.0375 0.388214 95.9654 1C95.1785 1.2128 92.8441 1.58518 90.7458 1.79798C86.7851 2.22357 85.2376 2.67576 85.2376 3.34074C85.2376 4.19192 86.4179 4.59092 89.5917 4.77711L92.713 4.96331L93.0277 8.02224C93.631 14.1401 93.2898 21.1831 92.4243 22.8589C92.1882 23.3111 92.1357 23.3377 91.6898 22.9121C90.9292 22.2205 89.9587 19.9064 89.4603 17.6454C88.9882 15.4377 88.28 14.5333 87.0735 14.5333C85.3948 14.5333 84.5555 16.6346 85.2374 19.0818Z" fill="black"/>
<path d="M99.5844 20.6024C101.541 26.5995 106.648 30.5268 109.647 28.2978C110.155 27.9263 110.765 27.0506 111.171 26.1749C111.807 24.7685 111.832 24.4766 111.807 20.5758C111.781 18.0814 111.578 14.7379 111.248 12.0312C110.663 7.33438 110.536 5.45909 110.917 5.45909C111.349 5.45909 112.137 6.73282 112.696 8.37805C113.153 9.65177 113.433 10.0763 114.068 10.3948C115.085 10.899 116.05 10.5805 116.685 9.54563C117.067 8.9353 117.092 8.69648 116.812 7.6085C116.279 5.5387 114.703 2.75242 113.585 1.92981C110.968 0.0192215 107.69 1.16027 106.648 4.37112C106.216 5.72445 106.318 6.43216 107.03 11.4209C107.741 16.277 108.097 24.1316 107.665 24.795C107.03 25.8034 103.777 23.0171 102.176 20.1247C101.261 18.4529 100.296 17.1261 100.016 17.1261C99.6352 17.1261 98.9999 17.9488 98.9999 18.3999C98.9999 18.6387 99.2795 19.6471 99.5844 20.6024Z" fill="black"/>
</svg>
