<svg width="141" height="106" viewBox="0 0 141 106" fill="none" xmlns="http://www.w3.org/2000/svg">
<path d="M19.364 10.4553C19.862 10.9533 20.5714 11.1043 22.9561 11.225C24.1032 11.2854 25.0088 11.3759 24.9786 11.4212C24.9484 11.4665 24.8427 12.7796 24.7371 14.3493C24.5409 17.3528 24.6012 17.9112 25.205 18.2282C25.6578 18.4847 26.3369 18.3942 26.6388 18.0621C26.8954 17.7754 26.9407 17.398 27.0161 14.47C27.0765 12.6739 27.1218 11.1948 27.1369 11.1646C27.1369 11.1495 27.7104 11.1344 28.3896 11.1344C30.2913 11.1344 31.1516 10.5458 30.8648 9.42893C30.6988 8.74974 30.0196 8.52335 28.5103 8.629L27.2123 8.73465L27.4085 6.50088C27.6349 4.02563 27.5897 2.74272 27.2425 2.41067C26.9558 2.10881 26.5784 2.27484 26.3822 2.788C26.2464 3.15023 25.4917 6.87821 25.2653 8.29695L25.1748 8.87049H23.2731C21.8241 8.87049 21.4015 8.82521 21.4619 8.67428C21.5072 8.58372 21.9298 7.61777 22.4128 6.53107C23.3787 4.35767 23.6051 3.25588 23.1372 3.07477C22.7297 2.92384 22.1411 3.61811 20.8582 5.77642C18.8659 9.14216 18.6697 9.76097 19.364 10.4553Z" fill="black"/>
<path d="M42.1697 6.52661C42.9092 7.23599 44.3883 8.51889 45.4449 9.3641C46.5165 10.2093 47.4371 10.9489 47.5126 11.0092C47.573 11.0696 47.1806 12.428 46.6372 14.0429C45.5807 17.137 45.5203 17.6049 46.1542 18.0426C46.6372 18.3746 47.422 18.3294 47.8145 17.9218C48.3276 17.4238 50.335 11.2507 51.7688 5.80215C52.282 3.87024 52.3122 3.62875 52.1311 3.23633C51.8141 2.58733 51.2406 2.36094 50.5765 2.63261C49.9426 2.88919 49.8822 3.00994 49.1125 5.2588C48.4786 7.08505 47.9201 8.45852 47.8296 8.45852C47.7843 8.45852 46.5316 7.6284 45.0222 6.61717C42.1093 4.67017 41.4452 4.35322 41.0528 4.68526C40.932 4.79092 40.8264 4.95694 40.8264 5.0475C40.8264 5.13806 41.4301 5.80215 42.1697 6.52661Z" fill="black"/>
<path d="M51.8895 17.0573C52.3725 17.9176 52.9913 18.0383 55.7382 17.8421C58.953 17.6157 59.2398 17.5553 59.7228 17.0724C60.2359 16.5592 60.2661 16.0309 59.7831 15.4725C59.3605 14.9744 59.0134 14.9593 56.2665 15.2763C55.2401 15.3819 54.3798 15.4423 54.3346 15.397C54.2893 15.3517 54.3647 14.4009 54.5308 13.2991L54.8024 11.2766L56.5834 11.1257C58.1682 10.9899 58.3946 10.9295 58.6512 10.6125C59.1492 10.0088 58.9077 9.35982 58.1229 9.14851C57.8361 9.08814 55.8137 9.42019 55.2552 9.63149C55.1194 9.69186 55.1345 9.31454 55.3307 8.00144C55.4816 7.06568 55.6024 5.94879 55.6024 5.52619L55.6175 4.77154H59.0738C62.2584 4.78663 62.5452 4.77154 62.847 4.49986C63.2847 4.10745 63.2696 3.29242 62.8319 2.99056C62.6357 2.85472 62.1829 2.74907 61.7754 2.74907C60.9151 2.74907 56.6438 3.29242 55.9797 3.48863C55.7231 3.5641 55.3458 3.59428 55.1345 3.549C54.9232 3.50372 54.6968 3.5641 54.5911 3.68484C54.244 4.12254 51.6782 15.231 51.6933 16.3026C51.7084 16.529 51.7838 16.861 51.8895 17.0573Z" fill="black"/>
<path d="M62.2886 17.1811C62.7867 17.6791 63.2395 17.1207 63.8281 15.2944L64.2658 13.921L65.1865 13.7399C65.6996 13.6493 66.4392 13.4682 66.8467 13.3474C67.2542 13.2267 67.6165 13.1512 67.6315 13.1814C67.6617 13.1965 67.7825 14.2228 67.9032 15.4605C68.0391 16.683 68.2353 17.8754 68.3258 18.0867C68.7937 19.0375 69.9559 19.0828 70.4238 18.1772C70.6351 17.7395 70.62 17.498 70.3181 15.1888C70.137 13.8153 69.9106 11.5514 69.82 10.1628C69.3371 2.75214 69.1408 1.9673 67.8428 1.9673C66.8769 1.9673 66.6656 2.26917 65.277 5.72547C62.9225 11.6268 61.6396 16.5321 62.2886 17.1811ZM66.2883 8.83463C66.6807 7.91396 67.0429 7.11403 67.1033 7.03856C67.1637 6.97819 67.2542 7.52154 67.2995 8.246C67.3599 8.98556 67.4202 9.93642 67.4655 10.359L67.541 11.1439L66.3637 11.6117C65.7298 11.8683 65.1563 12.0796 65.0959 12.0796C64.9752 12.0796 65.2318 11.3703 66.2883 8.83463Z" fill="black"/>
<path d="M72.8387 14.769C72.9896 16.9424 73.1707 17.6669 73.6839 18.0593C74.1216 18.4215 74.4536 18.4517 74.997 18.2102C75.5403 17.9536 75.6007 17.7423 75.6912 15.6897L75.7667 13.8483L76.5968 14.9199C78.0156 16.7915 80.2342 18.3762 81.4266 18.3762C82.1058 18.3762 82.634 17.8782 82.634 17.2292C82.634 16.6104 82.4076 16.3689 81.3813 15.8708C80.3097 15.3576 78.9815 14.1804 78.1514 12.988C77.4873 12.0523 77.4722 11.8862 78.0156 11.8862C78.5589 11.8862 80.1739 11.0259 80.8983 10.3618C82.4076 8.97328 82.8001 7.23759 82.0152 5.53207C80.9889 3.32849 78.9513 2.51347 76.9742 3.50961C76.5063 3.7511 75.8724 4.23407 75.5403 4.58121C74.9064 5.27549 74.8008 5.21512 74.7706 4.21898C74.7404 2.86061 74.1367 1.89466 73.6386 2.40782C73.3669 2.6644 73.0802 5.56226 72.899 9.62228C72.8538 10.8297 72.7934 12.0824 72.7632 12.4145C72.733 12.7465 72.7632 13.8031 72.8387 14.769ZM76.3101 8.02242C76.5666 7.17721 76.7628 6.84517 77.3666 6.25654C77.9401 5.6981 78.2118 5.54717 78.6042 5.54717C79.4494 5.54717 80.189 6.63386 80.0078 7.59982C79.8116 8.59596 78.1967 9.60719 76.7779 9.62228C75.8422 9.62228 75.8271 9.577 76.3101 8.02242Z" fill="black"/>
<path d="M83.6756 13.8158C84.4 15.793 85.5018 17.1966 86.7998 17.7853C87.3734 18.0569 87.8412 18.1324 88.8374 18.1475C90.0448 18.1626 90.2108 18.1173 91.1617 17.6343C92.4899 16.9552 92.9729 16.2005 92.8521 14.9478C92.7163 13.6045 91.9616 12.4122 89.1996 9.18225C87.7054 7.43146 87.3281 6.2693 87.8563 4.9562C88.2035 4.0959 88.4902 3.99025 89.4411 4.35248C90.1354 4.63925 90.2561 4.63925 90.4523 4.44304C90.6334 4.26192 90.6485 4.14118 90.4976 3.77895C90.2108 3.08467 89.4864 2.64697 88.5053 2.57151C87.6752 2.51113 87.6299 2.52623 86.9658 3.12995C85.9848 4.03553 85.6075 5.01658 85.6829 6.45041C85.7584 7.91444 86.2867 9.06151 87.7205 10.8274C90.1052 13.7705 90.7844 14.978 90.3165 15.4459C90.0448 15.7175 88.8676 15.8986 88.1582 15.7628C87.147 15.5666 86.347 14.6006 85.849 12.9253C85.5924 12.0197 85.1849 11.5971 84.6113 11.5971C83.6001 11.5971 83.2077 12.5329 83.6756 13.8158Z" fill="black"/>
<path d="M101.651 14.7303C102.029 16.8131 102.904 18.2319 104.489 19.2733C106.934 20.8882 109.756 21.0693 113.469 19.8317C116.08 18.9563 119.703 17.0244 120.925 15.8622C121.499 15.3189 121.589 14.5944 121.151 14.202C120.729 13.8096 120.17 13.9002 119.521 14.4133C117.665 15.9226 114.661 17.5376 112.594 18.1564C108.307 19.4242 105.017 18.413 103.915 15.5151C103.644 14.7605 103.598 14.3982 103.644 13.1908C103.749 10.8061 104.67 8.97983 106.934 6.68569C109.877 3.69727 113.047 2.27853 116.82 2.26343C118.571 2.24834 118.661 2.26343 119.446 2.71622C120.578 3.35013 120.865 3.89348 120.774 5.26695C120.669 7.0932 119.31 9.2515 117.771 10.0363C116.835 10.5193 116.442 10.3986 116.246 9.56846C116.05 8.75344 115.205 8.22518 114.42 8.42139C114.028 8.51195 113.801 8.73834 111.899 10.7155C110.737 11.923 109.469 12.7229 108.987 12.5418C108.654 12.4059 108.685 11.6513 109.032 10.9419C109.454 10.1269 110.617 9.02511 111.552 8.57232C112.065 8.33083 112.745 8.14971 113.484 8.07425C114.677 7.9686 115.039 7.78748 114.888 7.39506C114.677 6.86681 113.997 6.62532 112.745 6.62532C111.673 6.62532 111.416 6.68569 110.375 7.18376C107.855 8.3912 106.134 11.0174 106.632 12.8889C107.009 14.3077 108.368 15.0321 109.877 14.6397C110.979 14.3529 111.749 13.8851 113.243 12.6022C114.209 11.772 114.511 11.5758 114.571 11.7569C114.631 11.8928 114.963 12.1645 115.341 12.3909C117.076 13.4021 119.627 12.3607 121.363 9.93069C122.268 8.67797 122.887 7.22904 123.114 5.94613C123.28 5.02546 123.265 4.73869 123.053 3.90857C122.449 1.62953 120.955 0.452271 118.208 0.0598529C116.231 -0.226915 112.745 0.54283 110.194 1.81064C106.285 3.77274 103.04 7.3196 101.968 10.8061C101.606 11.9984 101.47 13.7341 101.651 14.7303Z" fill="black"/>
<path d="M14.2119 61.7457C14.4685 62.2136 15.4194 62.6362 16.1891 62.6362C16.8985 62.6362 18.3927 62.1079 19.4643 61.4891L20.3397 60.9759L21.4868 61.957C22.7093 62.9984 22.8904 63.0739 23.1923 62.7116C23.4639 62.3796 23.2828 61.8815 22.5131 60.8854L21.8188 59.9949L22.9961 58.9384C25.2298 56.9461 25.3053 56.8555 25.3053 56.1764C25.3053 55.7085 25.2298 55.4972 24.9733 55.3312C24.2639 54.8331 23.9016 54.9991 22.181 56.599C21.2755 57.4291 20.4755 58.1083 20.385 58.1083C20.2944 58.1083 19.9775 57.7611 19.6756 57.3234L19.1172 56.5386L19.4341 56.0858C19.6001 55.8292 20.0529 54.9689 20.4453 54.1841C21.1094 52.8257 21.1396 52.6899 21.1547 51.4673C21.1547 50.3354 21.1094 50.109 20.7472 49.4751C19.9171 48.0714 18.4682 47.3469 17.2003 47.679C16.4155 47.8903 15.8873 48.3129 15.4345 49.0977C14.4836 50.7429 14.6496 52.6597 15.9325 55.2104C16.1891 55.7236 16.4004 56.2065 16.4004 56.3122C16.4004 56.4028 15.9929 57.0216 15.5099 57.7008C15.0269 58.3799 14.4836 59.2101 14.3025 59.5421C13.9403 60.2364 13.895 61.1722 14.2119 61.7457ZM17.2607 59.2855C17.5626 58.8478 17.8343 58.4554 17.8644 58.4252C17.8946 58.3799 18.1059 58.5309 18.3323 58.7573C18.6946 59.1195 18.7096 59.1799 18.4983 59.3912C18.2719 59.6327 16.7023 60.2817 16.7023 60.1458C16.7023 60.1005 16.9589 59.7081 17.2607 59.2855ZM17.3513 50.4108C17.8041 49.5052 18.8153 50.1844 18.8153 51.407C18.8153 52.0711 18.3776 53.4445 18.0003 53.9577C17.8192 54.2143 17.7739 54.169 17.4871 53.4143C17.1249 52.4786 17.0645 50.9844 17.3513 50.4108Z" fill="black"/>
<path d="M33.7604 57.5875C34.001 59.4524 35.069 61.11 36.4528 61.7476C36.7838 61.8911 37.4606 62.0026 38.1977 62.0026C41.2211 62.0345 43.7331 60.0262 44.4551 56.9978L44.6957 55.9777L45.2974 56.0096C46.0495 56.0733 46.4406 55.6748 46.3654 54.8938C46.3353 54.4635 46.2149 54.32 45.7186 54.0491C45.1921 53.7622 44.8161 53.7303 42.4695 53.7303C39.6868 53.7303 39.3258 53.81 39.3258 54.4635C39.3258 54.8619 39.7319 55.0692 41.0556 55.2923L42.1837 55.4836V56.0414C42.1687 57.205 41.2812 58.5598 40.123 59.1655C39.7771 59.3408 39.1152 59.4843 38.4083 59.5161C37.3553 59.5799 37.2501 59.548 36.7988 59.1495C35.3097 57.8266 35.6707 53.8418 37.4757 51.722C38.3481 50.7019 39.2055 50.2556 40.3487 50.2077C41.4166 50.1759 41.6573 50.0324 41.5069 49.5224C41.3565 48.9964 40.5743 48.6457 39.5514 48.6457C36.1971 48.6298 33.2189 53.2362 33.7604 57.5875Z" fill="black"/>
<path d="M47.1216 49.6257C47.2121 49.7162 47.3782 49.8068 47.4838 49.8068C47.7253 49.8068 47.846 50.169 47.846 50.8784C47.846 51.1954 47.9819 52.6745 48.1479 54.1536C48.329 55.6176 48.5554 57.9268 48.6611 59.2852C48.812 60.9455 48.9478 61.851 49.1139 62.0925C49.4006 62.5453 50.0043 62.6962 50.5326 62.4548C51.1665 62.1378 51.242 61.519 50.8948 59.1645C50.7439 58.0476 50.6232 57.1118 50.6383 57.0816C50.6684 57.0515 51.2269 57.3835 53.8833 59.0135C55.4831 59.9946 55.9812 60.1002 56.5094 59.572C56.7811 59.3003 56.9019 59.0135 56.9019 58.6513C56.9019 58.0174 56.5094 57.6552 54.487 56.493C53.7021 56.0402 52.8871 55.5572 52.6909 55.4365L52.3438 55.2101L53.2343 54.6366C54.4568 53.8668 54.9699 53.1725 55.0605 52.1613C55.1511 51.1199 54.6983 50.1841 53.6418 49.2182C52.4947 48.1768 51.6948 47.9202 49.7478 48.0409C48.4045 48.1315 48.163 48.1918 47.6196 48.5692C46.9706 49.022 46.8197 49.3238 47.1216 49.6257ZM49.8232 49.6559C51.2269 49.6559 52.6305 50.5313 52.8871 51.5576C52.9928 51.9349 52.9324 52.0557 52.5098 52.4028C52.0268 52.8103 50.1553 53.6857 50.0496 53.565C50.0043 53.5197 49.3101 50.32 49.2195 49.7615C49.2195 49.7012 49.4912 49.6559 49.8232 49.6559Z" fill="black"/>
<path d="M57.566 60.0676C57.7622 61.26 58.5017 61.4713 58.7734 60.4147C58.8489 60.1129 59.03 59.0866 59.1658 58.1206C59.3017 57.1697 59.4677 56.3094 59.5281 56.2038C59.5884 56.0981 60.011 56.068 60.811 56.1283L62.0033 56.2189L62.8183 57.9697C63.9352 60.3242 64.222 60.7015 64.9766 60.7015C65.4294 60.7015 65.6256 60.611 65.8671 60.3091C66.0482 60.0827 66.1841 59.7808 66.1841 59.6299C66.1841 59.4639 65.7162 58.4074 65.1427 57.2603C64.5691 56.1283 63.6786 54.2115 63.1655 53.0041C61.8222 49.91 61.4298 49.3968 60.4035 49.3817C59.9507 49.3817 59.7243 49.4874 59.4073 49.8194C58.2753 51.0269 57.1434 57.381 57.566 60.0676ZM60.3884 52.8531C60.4487 52.7022 60.6148 52.9437 60.8864 53.5323L61.2939 54.4379L60.7053 54.5436C60.3733 54.6039 60.0563 54.619 59.9959 54.5888C59.8903 54.5285 60.1016 53.5776 60.3884 52.8531Z" fill="black"/>
<path d="M66.9625 49.5233C67.038 49.5837 67.1436 50.1119 67.204 50.7156C67.7021 56.451 68.019 59.696 68.1096 59.9073C68.1699 60.0582 68.1548 60.179 68.0643 60.179C67.9737 60.179 67.7021 60.3601 67.4455 60.5714C66.8267 61.0845 66.7965 61.8241 67.37 62.2769C67.9284 62.7146 68.336 62.6693 69.6038 62.0807C72.4865 60.7525 75.0524 58.2772 75.7315 56.1944C76.7126 53.1758 73.7242 49.5686 69.5736 48.7535C68.6831 48.5724 68.2756 48.4215 68.1699 48.2253C67.9586 47.8329 67.4455 47.8782 67.2794 48.3158C67.204 48.5121 67.0681 48.7234 66.9927 48.7837C66.7965 48.9045 66.7814 49.4176 66.9625 49.5233ZM69.1963 50.293C70.1169 50.5043 71.6111 51.3948 72.3507 52.1193C73.9506 53.7192 74.1619 55.0775 73.0752 56.6623C72.5016 57.4924 70.7056 59.1225 70.3735 59.1225C70.2679 59.1225 70.0717 58.1716 69.8604 56.7378C69.6792 55.4398 69.3623 53.5229 69.1661 52.4815C68.7133 49.9912 68.7133 50.1723 69.1963 50.293Z" fill="black"/>
<path d="M76.5378 55.5885C77.1717 59.4674 79.164 61.7464 81.4732 61.2182C82.6354 60.9616 83.6617 60.0711 84.522 58.6222C84.7484 58.2298 84.9899 57.9581 85.0503 58.0335C85.0956 58.0939 85.2314 58.6976 85.3371 59.3617C85.6238 61.0823 85.9257 61.5502 86.786 61.5502C87.3746 61.5502 87.918 61.0823 87.918 60.5692C87.918 60.4031 87.7821 59.6334 87.6161 58.8938C87.118 56.6148 86.9671 54.2301 87.1784 52.2982C87.2841 51.3624 87.3746 50.3814 87.3746 50.1248C87.3595 49.4305 86.952 49.023 86.2426 49.023C85.5635 49.023 85.1107 49.506 84.9748 50.3663C84.4315 53.8226 83.224 57.128 82.0317 58.3958C81.0205 59.4674 80.2809 59.3014 79.3753 57.8071C78.6961 56.6752 78.3943 55.3168 78.2433 52.5699C78.1679 51.2417 78.032 49.8984 77.9415 49.5814C77.8056 49.0683 77.7453 49.0079 77.383 49.0532C77.0359 49.0985 76.9453 49.2041 76.7793 49.8531C76.5831 50.6229 76.4171 54.7734 76.5378 55.5885Z" fill="black"/>
<path d="M88.7341 59.999C89.3076 60.4669 89.8057 59.3953 90.4849 56.3314L90.832 54.7014H91.6923C92.5224 54.7014 92.5526 54.7165 92.7035 55.1844C92.8998 55.8485 93.2469 57.6445 93.6393 60.0594C93.8053 61.131 94.0468 62.1724 94.1676 62.3687C94.6807 63.1384 95.7071 63.078 96.1749 62.2328C96.3711 61.8706 96.3561 61.5989 95.9033 59.2897C95.6316 57.886 95.2995 56.3164 95.1788 55.8032C94.9675 54.9127 94.9675 54.8674 95.2694 54.5656C95.7071 54.1279 95.6769 53.5845 95.1939 53.2072C94.9675 53.0261 94.7109 52.8902 94.6053 52.8902C94.4996 52.8902 94.2279 52.362 94.0015 51.713C93.7751 51.0791 93.3073 49.9924 92.9752 49.2981C92.5073 48.302 92.2809 47.985 91.8885 47.8039C91.2848 47.5171 90.6811 47.6831 90.2736 48.2265C89.9868 48.6038 89.2472 51.7884 89.2472 52.6186C89.2472 52.8902 89.1114 53.1166 88.8699 53.2827C88.4322 53.5694 88.3718 54.0222 88.7492 54.2184C88.9756 54.3543 88.9756 54.4901 88.7492 56.2258C88.4171 58.6407 88.4171 59.7274 88.7341 59.999ZM91.3754 52.2111L91.5414 51.6224L91.7527 52.1356C92.0093 52.7393 91.9338 53.0412 91.5112 53.0412C91.1641 53.0412 91.149 53.011 91.3754 52.2111Z" fill="black"/>
<path d="M95.5359 49.449C95.7321 49.5244 96.7735 49.6603 97.8451 49.7659L99.7921 49.947L99.6713 50.5658C99.611 50.8979 99.6261 51.9242 99.7015 52.8449C99.7619 53.7505 99.8827 56.0597 99.9279 57.9463C100.018 60.6329 100.094 61.4932 100.275 61.8705C100.728 62.7761 101.89 62.8063 102.343 61.9309C102.569 61.5083 102.584 61.0857 102.509 58.6557C102.448 57.1162 102.328 54.7617 102.222 53.4184C102.132 52.0601 102.101 50.913 102.162 50.8526C102.207 50.7922 102.916 50.7017 103.716 50.6564C104.984 50.5658 105.195 50.5206 105.437 50.2187C105.769 49.8112 105.799 49.4641 105.558 48.9509C105.256 48.2868 104.803 48.1962 101.498 48.1208C98.3432 48.0604 95.7472 48.2415 95.3698 48.5585C95.0378 48.8301 95.1133 49.2829 95.5359 49.449Z" fill="black"/>
<path d="M106.732 62.1026C107.501 63.2496 108.482 63.4609 112.452 63.3251C115.154 63.2345 115.274 63.2194 115.652 62.8723C116.18 62.3742 116.18 61.68 115.652 61.1819L115.259 60.8197L111.939 60.88L108.603 60.9253L108.709 59.5217C108.754 58.7368 108.845 57.6652 108.905 57.152L108.996 56.1861L109.765 56.2767C110.188 56.3219 111.154 56.3823 111.924 56.3974C113.463 56.4427 113.931 56.2314 113.931 55.4767C113.916 54.541 113.478 54.39 111.063 54.5108L109.056 54.6013L109.147 54.2391C109.207 54.0429 109.298 53.092 109.343 52.111L109.448 50.3602L112.407 50.4357C114.369 50.4809 115.501 50.4658 115.788 50.3451C116.331 50.1338 116.603 49.5452 116.406 49.0018C116.165 48.2924 115.591 48.217 112.346 48.4585C109.313 48.6698 109.252 48.6698 109.252 47.9906C109.252 47.6434 108.86 47.0095 108.649 47.0095C108.362 47.0095 108.075 47.4774 107.984 48.1415C107.894 48.6547 107.803 48.8207 107.607 48.8207C107.064 48.8207 106.385 49.1527 106.385 49.4244C106.385 49.7716 106.671 49.998 107.275 50.1187C107.818 50.2394 107.818 49.9678 107.26 53.3486C107.109 54.2995 106.943 55.4163 106.913 55.839C106.883 56.2465 106.747 57.2879 106.611 58.1331C106.279 60.397 106.309 61.4837 106.732 62.1026Z" fill="black"/>
<path d="M117.437 62.3429C118.448 63.2485 121.874 62.2675 124.56 60.2752C127.172 58.3433 128.213 55.868 127.413 53.4682C126.553 50.9175 124.5 48.9705 121.829 48.1706C120.893 47.8989 119.519 47.8536 119.082 48.08C118.674 48.3064 118.719 48.8045 119.172 49.0158C119.534 49.1818 119.534 49.1969 119.459 50.8571C119.414 51.7778 119.323 53.921 119.248 55.6265C119.112 58.6602 119.187 59.6413 119.55 60.079C119.716 60.2752 119.655 60.3054 119.202 60.3054C118.372 60.3054 117.784 60.4714 117.452 60.7884C117.044 61.1657 117.029 61.9807 117.437 62.3429ZM120.983 49.5893C121.376 49.5893 123.096 50.7062 123.776 51.3854C124.908 52.5325 125.451 53.7097 125.451 54.9625C125.451 56.4868 124.726 57.5886 122.93 58.7961C121.919 59.4602 121.21 59.762 121.421 59.43C121.512 59.2791 121.24 52.8796 121.074 51.4005C120.908 49.9063 120.893 49.5893 120.983 49.5893Z" fill="black"/>
<path d="M0.287734 30.7842C0.740525 31.6898 1.94797 32.7765 4.13646 34.2556C6.14383 35.5989 7.38146 36.6554 7.38146 37.0176C7.38146 37.41 6.02308 37.8628 4.58925 37.9232C3.29125 37.9836 3.21578 37.9685 2.80827 37.5911C2.00834 36.8516 1.04239 36.927 0.725432 37.7572C0.227362 39.0552 2.06871 40.5192 4.21192 40.5192C5.07222 40.5192 6.92866 40.0513 7.89462 39.5985C8.84548 39.1608 9.56994 38.3911 9.78125 37.6062C10.234 35.9762 9.02659 34.5725 5.20806 32.2784C3.77422 31.4181 2.0989 30.0748 2.0989 29.788C2.0989 29.7126 2.32529 29.5013 2.58187 29.3353C3.09504 29.0183 3.21578 29.0183 6.08346 29.2447C6.35513 29.2598 6.58152 29.1843 6.67208 29.0183C6.89848 28.6863 6.49097 28.2335 5.49483 27.7203C4.86092 27.3883 4.52887 27.3279 3.53273 27.3128C2.06871 27.3128 1.08766 27.7354 0.408479 28.6561C-0.0895911 29.3503 -0.13487 29.939 0.287734 30.7842Z" fill="black"/>
<path d="M10.8075 33.6957C10.9132 34.7372 11.5924 38.9481 11.7584 39.5367C11.9999 40.3669 12.3621 40.7291 12.9508 40.7442C13.3432 40.7593 13.5545 40.6536 13.8261 40.3518C14.2488 39.8537 14.2488 39.7329 13.796 37.3935C13.5847 36.3521 13.4186 35.4767 13.4186 35.4314C13.4186 35.3862 13.9771 35.356 14.6563 35.356C15.7128 35.356 16.0448 35.2805 16.7693 34.9334C17.2674 34.6919 17.9013 34.2089 18.2484 33.8165C19.969 31.8544 19.154 29.0018 16.4825 27.6434C14.8978 26.8435 13.0262 27.1303 12.015 28.3377C11.8037 28.5792 11.4867 28.7905 11.3207 28.7905C11.1547 28.7905 10.9434 28.9263 10.8528 29.0773C10.717 29.3489 10.6868 32.3223 10.8075 33.6957ZM13.3281 30.7073C13.645 29.8168 13.9771 29.5452 14.6865 29.5452C15.743 29.5452 16.89 30.5715 16.89 31.5072C16.89 32.3977 15.8939 32.9713 14.2035 33.0467L13.1168 33.1071V32.1864C13.1319 31.6884 13.2224 31.0243 13.3281 30.7073Z" fill="black"/>
<path d="M21.6595 36.5599C22.4896 39.1257 24.6781 40.4539 26.6251 39.5634C28.4966 38.7182 29.7191 35.6845 29.2664 32.9527C28.9041 30.6585 28.1797 28.9078 27.2892 28.1531C26.7307 27.7003 26.0515 27.6701 25.644 28.0776C25.1912 28.5304 25.2667 29.1794 25.8704 30.085C26.6704 31.2472 27.0024 32.4999 27.0024 34.2507C27.0024 35.3374 26.9269 35.8505 26.7156 36.3335C25.8855 38.1598 24.5875 38.0239 23.6517 36.0015C23.3348 35.3223 23.3046 35.0355 23.3197 33.2093C23.3197 30.5831 23.5914 29.6775 24.5121 29.1945C25.2214 28.8323 25.2969 28.4097 24.7384 28.1078C24.2857 27.8814 23.5461 27.9569 23.0329 28.2889C22.8367 28.4248 22.4896 28.8625 22.2632 29.27C21.2218 31.1868 20.9501 34.3865 21.6595 36.5599Z" fill="black"/>
<path d="M30.821 28.8205C30.9417 28.911 31.3945 29.0318 31.8473 29.1072C32.451 29.1978 32.6472 29.2884 32.5868 29.4544C32.5567 29.5751 32.4963 31.6731 32.4661 34.1332C32.4057 39.1441 32.4812 39.7176 33.1906 40.0799C33.7943 40.3968 34.0056 40.3666 34.5037 39.944L34.9263 39.5818L34.8659 34.9633C34.8357 31.175 34.8508 30.3298 35.0168 30.2694C35.1376 30.2392 35.9375 30.1034 36.7978 29.9675C38.624 29.711 39.424 29.3789 39.4994 28.8507C39.6806 27.613 38.9712 27.2508 36.662 27.3866C33.5377 27.5828 31.3643 27.7941 31.0021 27.93C30.5946 28.0809 30.504 28.5488 30.821 28.8205Z" fill="black"/>
<path d="M41.7784 38.7331C41.9294 39.2765 42.5934 39.7141 43.0613 39.5934C43.9216 39.3821 43.9518 39.1557 43.9669 34.0995C43.982 29.2849 43.8764 28.2736 43.3481 28.0774C42.9859 27.9416 42.6085 28.5151 42.4878 29.3452C42.3972 30.1452 41.8388 36.0315 41.7331 37.4653C41.703 37.9634 41.7181 38.5369 41.7784 38.7331Z" fill="black"/>
<path d="M48.2232 40.7451C48.6307 41.5299 49.7627 41.4846 50.1853 40.6998C50.3966 40.2772 50.3966 39.9452 50.2306 37.5303C50.14 36.0361 50.0948 34.7833 50.1551 34.723C50.2004 34.6626 50.9853 34.572 51.8908 34.5117C52.7964 34.4513 53.6718 34.3306 53.8529 34.24C54.2906 33.9985 54.4114 33.4099 54.1095 32.942C53.7926 32.459 53.053 32.4439 51.3173 32.8816C50.6381 33.0477 50.0495 33.1684 50.0344 33.1382C50.0042 33.1231 49.9438 32.3081 49.8835 31.3421L49.7929 29.5913L50.9702 29.4857C51.6041 29.4404 52.9473 29.1838 53.9435 28.9423C55.8452 28.4594 56.4338 28.1122 56.4338 27.4783C56.4338 27.0255 55.9358 26.5275 55.4679 26.5275C55.2717 26.5275 53.868 26.935 52.3738 27.433C50.0495 28.1877 49.5816 28.3084 49.3401 28.1424C48.9175 27.8858 48.5402 28.1575 48.4044 28.8065C48.2081 29.7423 47.9817 34.2551 47.9817 37.319C47.9968 39.6886 48.0421 40.4281 48.2232 40.7451Z" fill="black"/>
<path d="M59.9655 28.8221C60.2825 29.29 62.6068 31.5086 63.9501 32.6255C64.2067 32.8519 64.4331 33.1085 64.4331 33.1991C64.4331 33.4104 63.1803 36.4139 62.3955 38.0892C61.5805 39.8249 61.5654 39.9306 61.7314 40.4437C61.9125 40.9569 62.2597 41.1984 62.803 41.1984C63.6935 41.1984 64.0557 40.5645 66.0329 35.5687C67.4215 32.0822 68.0252 30.7389 68.9006 29.2598C69.2779 28.5957 69.5647 27.9316 69.5647 27.675C69.5647 26.8298 68.6893 26.3166 67.829 26.6487C67.512 26.7845 66.7121 28.0523 65.8971 29.7277L65.233 31.1011L63.7086 29.9692C61.2333 28.1278 60.5843 27.7354 60.1165 27.7958C59.558 27.8561 59.5127 28.1731 59.9655 28.8221Z" fill="black"/>
<path d="M77.8508 40.6351C78.3489 43.1858 82.4994 43.8348 85.503 41.8274C86.001 41.4954 86.7557 40.8615 87.2085 40.3936L88.0235 39.5786L88.4008 40.0465C89.1404 40.9822 90.4686 42.2953 90.8912 42.5066C91.359 42.7632 91.7515 42.5972 91.7515 42.1444C91.7515 42.0237 91.2081 41.0728 90.544 40.0465C89.8799 39.0201 89.3366 38.0995 89.3366 37.9938C89.3517 37.9033 89.8196 37.1637 90.3931 36.3789C91.2685 35.2016 91.4496 34.8545 91.4496 34.3866C91.4496 33.6772 91.027 33.2093 90.378 33.2093C89.6837 33.2093 89.4422 33.4055 88.6574 34.5677C88.2499 35.1412 87.8726 35.6242 87.8122 35.6242C87.6763 35.6242 86.2727 33.2244 86.2727 32.998C86.2727 32.9075 86.5293 32.4245 86.8311 31.9264C87.5254 30.7794 88.1291 28.9078 88.1291 27.8664C88.1291 26.4929 87.4801 25.3761 86.4085 24.8931C84.7181 24.1233 82.8164 25.1798 82.3787 27.1268C82.1523 28.1381 82.3636 29.7681 82.9371 31.368L83.3447 32.4547L81.3524 34.4922C79.2393 36.6505 78.3036 37.9334 77.9413 39.156C77.8206 39.5635 77.73 39.9408 77.73 39.9861C77.7451 40.0314 77.8055 40.3332 77.8508 40.6351ZM80.8845 38.7938C81.292 38.1598 84.4615 34.8696 84.6577 34.8696C84.703 34.8696 84.9898 35.262 85.2917 35.745C85.5935 36.2128 85.9859 36.8317 86.1821 37.1033L86.5142 37.6014L85.4577 38.6428C84.1748 39.8955 83.3899 40.3181 82.1523 40.4238C80.326 40.5596 79.994 40.137 80.8845 38.7938ZM84.9445 27.2778C85.2464 26.9759 85.5633 27.2929 85.5633 27.8966C85.5633 28.5154 85.1407 29.9643 84.9898 29.8285C84.6879 29.5115 84.6427 27.5796 84.9445 27.2778Z" fill="black"/>
<path d="M104.822 33.4095C104.867 33.6963 105.064 35.4622 105.275 37.3337C105.486 39.2053 105.682 40.8806 105.728 41.0617C105.848 41.4994 106.15 41.7409 106.437 41.6202C107.041 41.3938 107.192 39.4769 106.98 34.8585C106.905 32.9568 106.875 31.372 106.935 31.3116C107.101 31.1456 108.641 32.9869 110.361 35.4471C112.58 38.6166 113.591 39.7939 114.391 40.1108C115.297 40.4731 115.946 40.2316 116.368 39.4015C116.746 38.6619 116.7 37.8016 116.127 34.3906C115.931 33.2284 115.583 31.055 115.372 29.5608C114.965 26.6932 114.768 26.1347 114.089 26.0442C113.455 25.9385 113.018 26.1649 112.821 26.663C112.64 27.0856 112.701 27.6591 113.35 31.6738C113.757 34.1642 114.074 36.2923 114.059 36.398C114.029 36.5187 113.138 35.4018 112.052 33.9076C108.761 29.3797 107.011 27.8704 105.788 28.5043C104.973 28.9269 104.807 29.3646 104.792 31.2211C104.777 32.1266 104.792 33.1228 104.822 33.4095Z" fill="black"/>
<path d="M117.183 36.112C117.606 38.059 118.572 39.523 119.96 40.3381C120.564 40.6852 120.821 40.7456 121.862 40.7456C122.873 40.7456 123.205 40.6852 123.93 40.323C125.349 39.6287 126.496 38.3156 127.597 36.1573C128.262 34.8291 127.96 33.8782 126.873 33.8782C126.239 33.8782 125.907 34.2254 125.213 35.6139C123.96 38.1043 122.239 39.1306 120.866 38.2099C119.809 37.5006 119.266 36.1724 119.115 34.0292C118.979 31.8709 119.613 29.7428 120.609 29.0032C120.911 28.7768 121.334 28.6862 122.451 28.6259C124.036 28.5504 124.307 28.3693 123.749 27.7656C123.341 27.3279 122.496 27.0864 121.349 27.0864C120.247 27.0864 119.553 27.3882 118.738 28.2486C117.274 29.7729 116.58 33.2896 117.183 36.112Z" fill="black"/>
<path d="M128.231 28.0297C128.261 28.2712 128.412 29.5692 128.578 30.8974C128.744 32.2256 129.046 34.7461 129.258 36.4969C129.741 40.6173 129.922 41.0852 130.978 41.0852C132.005 41.0701 132.412 40.4211 132.669 38.3533C132.759 37.5685 132.865 36.9195 132.88 36.8893C132.955 36.7988 135.31 37.9458 137.181 38.9872C139.385 40.1947 140.094 40.3758 140.608 39.8777C141.045 39.4853 141.091 38.5194 140.683 38.1873C140.547 38.0666 139.249 37.3572 137.83 36.6176C136.397 35.8781 135.219 35.2442 135.219 35.1989C135.219 35.1536 135.521 34.9876 135.868 34.8216C136.215 34.6706 136.804 34.2329 137.181 33.8405C139.37 31.6671 138.253 27.3505 135.506 27.3505C134.601 27.3505 133.695 27.8335 132.835 28.7844C131.974 29.7201 131.522 30.5955 131.144 32.0897C130.827 33.2972 130.842 33.3123 130.405 31.0483C129.997 28.9957 129.409 27.1694 129.046 26.8374C128.744 26.5657 128.277 26.6562 128.277 26.9732C128.277 27.0789 128.246 27.26 128.231 27.3807C128.201 27.4864 128.201 27.7731 128.231 28.0297ZM133.604 31.7426C133.906 30.8974 135.023 29.6145 135.431 29.6145C135.778 29.6145 135.974 30.1125 135.974 30.9578C135.974 32.0897 135.265 32.7538 133.438 33.3123C133.121 33.4028 133.106 33.3726 133.197 32.9802C133.257 32.7538 133.438 32.1954 133.604 31.7426Z" fill="black"/>
<path d="M13.266 78.2368C13.6735 79.5348 14.3074 80.5611 15.1979 81.4063C16.9336 83.0515 19.0013 83.4439 21.0087 82.493C22.684 81.7082 23.6651 80.4555 23.816 78.9311C23.8915 78.2217 23.8915 78.2217 24.4499 78.2217C25.446 78.2217 25.9139 77.135 25.1442 76.637C24.4499 76.1842 21.1144 76.6068 20.5559 77.2105C20.3144 77.4822 20.3295 77.5123 20.7974 77.8897C22.3822 79.2028 19.8465 81.3007 17.7335 80.4253C16.9034 80.0782 15.9224 78.9764 15.545 77.9802C15.0771 76.7275 15.1526 74.856 15.7412 73.6787C16.6317 71.8525 18.1712 70.6148 20.0427 70.2375C21.0389 70.0262 21.2049 69.9507 21.2502 69.664C21.3257 69.1357 20.6616 68.8037 19.5598 68.8037C17.7637 68.8037 15.3941 70.313 14.1716 72.1996C13.0698 73.9202 12.6924 76.4407 13.266 78.2368Z" fill="black"/>
<path d="M26.2482 70.6344C26.7161 70.891 29.1461 71.1174 31.3195 71.1174C33.342 71.1174 33.4174 71.1023 33.7797 70.7401C34.2626 70.2571 34.2174 69.6685 33.6589 69.2609C33.2514 68.9591 33.2363 68.9591 30.1875 69.2157C28.4971 69.3666 26.8822 69.5628 26.5954 69.6685C25.9917 69.8647 25.7955 70.3929 26.2482 70.6344Z" fill="black"/>
<path d="M26.5163 81.154C27.0144 81.7275 27.6785 81.8483 29.6104 81.6973C32.4781 81.4558 33.1724 81.32 33.5497 80.8823C34.1383 80.2031 33.9572 79.3277 33.1573 79.0108C32.8101 78.8598 32.4026 78.8598 31.1197 79.056C30.2292 79.1919 29.2784 79.2975 29.0067 79.2975H28.4935L28.5086 77.0487L28.5388 74.7998L29.6406 74.8149C30.833 74.8451 31.1801 74.6489 31.1801 73.9395C31.1801 73.3509 30.7424 73.1245 29.5199 73.0792L28.3879 73.0339L28.3426 72.5057C28.252 71.268 28.0176 70.0838 27.7157 69.9932C27.5648 69.9328 27.7157 69.9932 27.3195 69.9932C27.1082 70.129 26.8031 71.419 26.8031 72.2038C26.788 72.5811 26.6975 73.1245 26.5918 73.4263C26.4711 73.7886 26.4409 74.0753 26.5314 74.2414C26.622 74.3923 26.6069 75.1469 26.5013 76.2487C26.4107 77.2147 26.305 78.6334 26.2447 79.373C26.1692 80.671 26.1843 80.7616 26.5163 81.154Z" fill="black"/>
<path d="M34.7412 79.5875C35.028 80.4931 35.5109 81.2025 36.2807 81.8666C38.3635 83.7079 41.3821 82.6514 42.8311 79.6026C44.2196 76.6746 44.1894 73.173 42.7707 71.0147C42.0764 69.9884 40.3256 69.0526 39.4804 69.2639C39.1182 69.3545 38.9672 69.4601 37.7145 70.5317C36.8391 71.2864 35.7222 73.007 35.1185 74.5465C34.711 75.603 34.6205 76.0256 34.5903 77.3689C34.545 78.4254 34.6054 79.1649 34.7412 79.5875ZM36.9448 75.1804C37.2315 74.1541 38.5597 71.3317 38.7408 71.3317C38.7861 71.3468 38.9974 71.4373 39.2087 71.5581C39.42 71.6788 39.737 71.7694 39.903 71.7845C40.0841 71.7845 40.4313 72.0108 40.6878 72.2976C42.2424 74.0635 41.3218 79.331 39.2842 80.2969C38.3333 80.7497 37.4127 80.2667 36.8844 79.0291C36.5524 78.2594 36.5825 76.4482 36.9448 75.1804Z" fill="black"/>
<path d="M44.6323 81.9379C44.7983 82.5114 45.236 82.8888 45.7039 82.8888C46.8057 82.8888 47.0773 82.3907 47.0773 80.3229C47.0773 79.4928 47.1377 78.8136 47.2132 78.8136C47.2886 78.8136 47.7112 79.0551 48.1489 79.357C49.2356 80.0815 51.2581 81.2738 52.3599 81.8322C53.8239 82.5718 54.7748 82.3454 54.7748 81.2738C54.7748 80.7305 54.4729 80.4437 53.4919 80.0211C51.9222 79.3419 49.4922 78.1495 49.4922 78.0439C49.4922 77.9835 49.7186 77.7873 50.0054 77.6062C50.6997 77.1836 51.3638 76.4138 51.8618 75.4479C52.9334 73.3802 51.8165 70.6936 49.6884 70.2408C48.7678 70.0446 47.8924 70.3012 47.1226 71.0105C46.9264 71.1766 46.7604 71.2973 46.7302 71.252C46.7 71.2218 46.5944 70.754 46.5038 70.2257C46.3227 69.1843 46.0359 68.7466 45.6586 68.8975C45.236 69.0635 45.1303 69.6522 44.9643 72.6557C44.8738 74.2555 44.7379 75.8705 44.6625 76.2478C44.5115 77.0025 44.4813 81.4247 44.6323 81.9379ZM47.3792 75.0253C47.7716 73.8631 48.3452 72.9575 48.813 72.7462C49.3715 72.4897 49.7941 72.9274 49.7941 73.7424C49.7941 74.5423 49.2055 75.2819 48.1339 75.8403C46.9264 76.4742 46.9113 76.444 47.3792 75.0253Z" fill="black"/>
<path d="M55.5123 77.5979C55.7236 79.394 56.6594 81.2051 57.8064 82.0503C59.3761 83.1974 61.2929 82.971 62.7117 81.4617C63.3154 80.8278 63.9795 79.2883 63.9795 78.4884V77.7941L64.9303 77.8997C66.3642 78.0507 66.9679 77.6734 66.9679 76.6017C66.9679 75.9527 66.4095 75.4547 65.519 75.3339C65.1115 75.2736 64.2361 75.1377 63.572 75.017C62.0174 74.7453 61.474 74.7604 60.9307 75.0321C60.0704 75.4698 60.0704 76.4961 60.9156 77.5073C61.7457 78.4884 61.7155 79.0015 60.8099 79.9675C59.9949 80.8429 58.8931 80.3448 58.1083 78.7601C57.731 77.9903 57.6857 77.7337 57.6857 76.3904C57.6857 74.9868 57.7159 74.8057 58.1838 73.8548C58.546 73.1153 58.9082 72.6625 59.5119 72.1795C60.6892 71.2135 62.1381 70.5344 62.9682 70.5494C63.3607 70.5494 63.7078 70.474 63.7984 70.3532C64.07 70.0212 63.8285 69.5231 63.255 69.2514C61.6401 68.4817 57.5649 70.5796 56.3726 72.7983C55.6179 74.202 55.3161 75.8622 55.5123 77.5979Z" fill="black"/>
<path d="M67.7471 81.5106C67.9131 82.069 68.1093 82.2652 68.6678 82.4011C68.9998 82.4916 69.1659 82.4161 69.5432 82.0539L69.996 81.6011V79.8051C69.996 77.1638 69.7243 71.9869 69.5281 70.8096C69.347 69.7078 69.0451 69.3456 68.5772 69.6927C68.215 69.9644 68.0792 71.1869 67.8829 75.9111C67.7924 78.1448 67.7018 80.2277 67.6566 80.5144C67.6264 80.8012 67.6716 81.254 67.7471 81.5106Z" fill="black"/>
<path d="M70.4999 81.0285C70.5905 81.5417 70.6981 82.0134 70.9999 82.0285C71.2565 82.0285 71.9345 79.7966 72.176 78.5892C72.3269 77.8798 72.493 77.261 72.5382 77.2006C72.5835 77.1403 73.5495 77.0799 74.6814 77.0497L76.7341 77.0044L77.0058 78.5137C77.3529 80.5362 77.8963 82.2266 78.3641 82.7247C78.8924 83.2831 79.8433 83.2379 80.3111 82.619C80.6432 82.1663 80.6281 82.0757 79.9489 80.174C79.7678 79.691 79.4508 78.393 79.2546 77.3063C78.2283 71.8577 76.5379 68.7787 74.5909 68.7787C73.4287 68.7787 72.5533 69.7447 71.8892 71.7672C71.0591 74.2877 70.2283 79.64 70.4999 81.0285ZM73.3231 74.016C73.6551 72.8991 74.3192 71.3898 74.5305 71.254C74.7418 71.1333 75.5267 72.5067 75.9342 73.7293C76.1455 74.3481 76.2964 74.8914 76.2662 74.9216C76.236 74.9518 75.4965 75.1027 74.606 75.2536C72.7495 75.5706 72.8401 75.6461 73.3231 74.016Z" fill="black"/>
<path d="M85.227 70.6863C85.559 70.9127 87.7173 71.1693 89.9964 71.2598C90.9473 71.29 90.9774 71.3051 90.9322 71.6673C90.7359 73.4936 91.4302 81.3721 91.8377 81.9155C92.3811 82.64 93.2112 82.7607 93.7244 82.1872C94.1922 81.674 94.2073 81.508 93.9809 79.5006C93.5131 75.4708 93.3169 73.0861 93.4074 72.6786C93.4527 72.4522 93.6187 72.1956 93.7847 72.1201C93.9357 72.0296 95.0526 71.9088 96.26 71.8484C98.1164 71.7428 98.5089 71.6824 98.856 71.4258C99.4597 70.9731 99.505 70.2033 98.9767 69.7052L98.5692 69.3279L93.7244 69.3581C88.2154 69.3732 85.5741 69.5694 85.1364 69.9467C84.7742 70.2788 84.7893 70.3995 85.227 70.6863Z" fill="black"/>
<path d="M99.0759 82.865C99.2268 83.5291 99.7551 84.0724 100.464 84.2837C101.264 84.5252 106.592 84.1479 107.271 83.8158C107.875 83.514 108.102 82.9404 107.845 82.3216C107.528 81.567 107.06 81.4613 104.69 81.6726C103.559 81.7783 102.366 81.8839 102.049 81.9292L101.491 82.0198V78.8502V75.6807L103.921 75.6203L106.351 75.575L106.713 75.1524C106.909 74.926 107.075 74.6242 107.075 74.5034C107.075 74.111 106.502 73.6884 105.958 73.6884C105.294 73.6884 102.698 74.2167 102.049 74.5034L101.521 74.7147L101.43 74.1714C101.385 73.8544 101.34 72.813 101.34 71.8471V70.0812L102.125 70.0057C102.562 69.9604 104.268 69.8397 105.913 69.719C108.479 69.5378 108.962 69.4624 109.309 69.2058C109.867 68.7832 109.867 68.0285 109.309 67.6059C108.932 67.3192 108.826 67.3192 107.573 67.4852C106.849 67.5757 105.098 67.8776 103.709 68.1191C101.823 68.4662 101.129 68.5417 100.978 68.421C100.178 67.7569 99.6796 69.6435 99.4532 74.1412C99.3476 76.375 99.091 80.8123 99.0155 81.6877C98.9853 82.065 99.0155 82.5933 99.0759 82.865Z" fill="black"/>
<path d="M109.525 79.6957C109.631 80.1485 109.918 80.7824 110.159 81.1296C111.563 83.1219 114.431 82.82 117.51 80.3296C119.291 78.9109 119.789 77.9299 119.14 77.145C118.944 76.9035 118.702 76.7979 118.325 76.7979C117.857 76.7979 117.615 76.9639 116.483 78.0506C115.11 79.3637 113.706 80.1787 112.801 80.1787C111.789 80.1787 111.427 78.926 111.805 76.6469C112.167 74.3528 113.555 71.3342 114.401 71.0172C114.642 70.9267 115.019 71.2738 115.683 72.2096C115.88 72.4964 115.985 72.5266 116.212 72.3907C116.921 71.9681 116.408 70.2173 115.397 69.5985C114.416 68.9948 113.48 69.2514 112.393 70.3984C110.386 72.5266 108.922 77.2959 109.525 79.6957Z" fill="black"/>
<path d="M119.161 74.3027C119.221 74.4084 119.296 75.4951 119.357 76.7478C119.462 79.1778 119.598 79.6155 120.277 79.7815C120.76 79.9022 121.379 79.5098 121.5 79.0118C121.545 78.8155 121.485 77.7741 121.364 76.7176C121.243 75.6611 121.168 74.7706 121.198 74.7404C121.258 74.6499 125.319 74.9819 125.5 75.0876C125.62 75.163 125.635 76.3705 125.56 79.4495C125.454 83.4642 125.469 83.7057 125.726 84.0226C126.164 84.5509 126.858 84.6264 127.371 84.1887C127.764 83.8415 127.809 83.7057 127.915 82.3171C127.975 81.5021 128.035 79.5551 128.05 77.9854C128.05 75.2989 128.065 75.163 128.337 75.163C129.046 75.163 129.454 73.9707 129.107 72.9444C129.016 72.6878 128.745 71.5709 128.518 70.4238C128.277 69.2918 127.975 68.1901 127.839 67.9788C127.447 67.4052 126.949 67.2241 126.375 67.4656C125.635 67.7825 125.485 68.341 125.485 70.771C125.485 73.2915 125.726 73.0802 122.858 73.0198L120.911 72.9745L120.64 71.7973C120.489 71.1634 120.247 70.4238 120.127 70.1823C119.885 69.7145 119.417 69.5786 119.191 69.9107C119.055 70.1371 119.025 74.0461 119.161 74.3027Z" fill="black"/>
<path d="M59.4608 92.7503C59.657 92.9616 60.14 92.8408 60.7437 92.4484C61.604 91.8749 63.0982 91.7843 64.0038 92.2371C65.3471 92.9314 66.3432 94.984 66.3583 97.1725C66.3734 97.8517 66.3281 98.4554 66.2677 98.5158C66.2225 98.5611 65.7546 98.5309 65.2565 98.4252C63.5057 98.0932 61.77 98.4705 60.7437 99.4063C59.4306 100.599 59.6721 102.666 61.2267 103.647C62.3285 104.327 63.551 104.357 64.8641 103.738C65.5131 103.451 66.1621 102.983 66.6903 102.44C67.6261 101.474 67.4601 101.459 69.2562 102.681C70.4485 103.512 71.0824 103.617 71.5805 103.119C71.9125 102.787 71.9729 102.214 71.7314 101.761C71.5503 101.429 70.3278 100.523 69.2712 99.9345L68.4864 99.5119V97.7309C68.4713 95.1953 67.7921 93.203 66.4489 91.739C64.8339 89.9882 62.1926 89.626 60.4116 90.9089C59.6268 91.4824 59.1287 92.4333 59.4608 92.7503ZM62.5549 100.946C62.9322 100.674 65.0905 100.599 65.0905 100.855C65.0905 100.931 64.8339 101.172 64.532 101.383C64.1094 101.67 63.7623 101.761 63.1888 101.761C62.7662 101.761 62.3737 101.716 62.3285 101.655C62.1322 101.474 62.2228 101.172 62.5549 100.946Z" fill="black"/>
<path d="M72.5313 100.143C73.0747 101.743 74.1312 102.981 75.5499 103.63C76.38 104.022 76.6517 104.067 77.9195 104.067C79.5798 104.067 80.3193 103.796 81.3909 102.845C83.6549 100.807 83.519 96.3548 81.1192 93.3211C80.425 92.4608 78.9459 91.3288 77.8441 90.8458C77.2403 90.5741 77.0743 90.5591 76.6819 90.7251C76.2895 90.8911 76.1989 90.876 76.0782 90.6647C75.5046 89.6233 73.6633 91.7967 72.7879 94.5587C72.3653 95.8869 72.2144 99.1923 72.5313 100.143ZM74.4632 95.6001C74.6443 94.5134 75.1424 92.9588 75.5499 92.1589L75.8367 91.5552L76.0329 92.008C76.2442 92.5362 76.4404 92.7023 77.4064 93.2154C78.5685 93.8342 79.3081 94.5134 79.8967 95.5247C80.8023 97.0491 81.0438 99.2979 80.425 100.49C80.2891 100.747 79.942 101.139 79.6401 101.381C78.9308 101.909 77.4969 102.045 76.4857 101.652C75.6556 101.351 74.8104 100.4 74.5236 99.4639C74.267 98.6338 74.2368 96.8227 74.4632 95.6001Z" fill="black"/>
<path d="M83.353 101.693C83.9417 102.69 85.0284 103.203 86.4924 103.203C87.3074 103.203 88.8922 102.75 89.4506 102.358C89.9185 102.025 90.1902 102.101 90.7637 102.69C92.3787 104.41 93.4352 104.818 94.0691 104.003C94.6728 103.233 94.4011 102.75 92.5145 101.12L91.941 100.637L92.6051 99.8672C93.9634 98.3126 94.7181 96.0939 94.4011 94.5393C94.0238 92.6678 92.7711 91.0227 91.1863 90.3133C90.3713 89.936 90.1147 89.8907 89.0431 89.9511C88.047 89.9963 87.6093 90.0869 86.7942 90.4793C86.2358 90.7359 85.6774 91.1283 85.5264 91.3547C85.3 91.717 85.2849 91.7773 85.5113 91.9886C85.7226 92.1999 85.8434 92.1999 86.8546 91.9433C87.4583 91.7924 88.3639 91.6717 88.8771 91.6566C89.6317 91.6566 89.9185 91.732 90.5373 92.1094C92.6805 93.4376 92.8314 96.2298 90.8844 98.4183L90.1298 99.2786L89.4204 98.9163C87.4131 97.9202 85.7075 97.7542 84.485 98.4333C83.504 98.9616 83.1568 99.4597 83.0964 100.395C83.0512 100.984 83.1115 101.301 83.353 101.693ZM86.4773 100.365C86.915 100.411 87.3678 100.516 87.4583 100.607C87.6998 100.848 86.2962 101.029 85.8283 100.803C85.2095 100.531 85.5566 100.29 86.4773 100.365Z" fill="black"/>
<path d="M95.8048 99.23C96.2878 100.951 97.2386 102.203 98.5668 102.852C99.2913 103.199 99.6233 103.275 100.574 103.275C101.601 103.275 101.857 103.199 102.914 102.686C105.012 101.645 106.747 99.5771 107.291 97.4641C108.121 94.2191 105.932 91.8495 101.495 91.2156C100.786 91.1099 99.8648 91.4118 99.7139 91.7891C99.6686 91.9099 99.3215 92.1665 98.9442 92.3476C97.2537 93.1626 95.7746 95.4265 95.6539 97.4037C95.6086 98.0678 95.6539 98.7319 95.8048 99.23ZM98.1442 95.5775C98.3555 95.17 98.8234 94.5059 99.2007 94.1135L99.8799 93.4041L101.087 93.4795C103.095 93.6154 104.468 94.1738 104.996 95.0643C105.374 95.7133 105.313 96.966 104.83 97.932C104.332 98.9432 102.914 100.392 102.038 100.785C101.268 101.132 99.9705 101.177 99.3819 100.875C98.8083 100.573 98.3706 100.06 97.9933 99.2753C97.5556 98.3395 97.6311 96.6491 98.1442 95.5775Z" fill="black"/>
<path d="M34.0709 94.5237C34.1011 94.5538 34.1766 96.5914 34.2369 99.0365C34.2973 101.482 34.3728 103.625 34.4181 103.791C34.6746 104.742 35.701 105.059 36.35 104.394C36.682 104.078 36.7273 103.896 36.7273 102.93C36.7273 99.5044 35.5651 90.5089 35.052 89.875C34.7652 89.543 34.3124 89.6486 34.1615 90.0712C34.0106 90.4335 33.9351 94.3878 34.0709 94.5237Z" fill="black"/>
<path d="M37.6747 96.9482C37.9463 101.159 38.5048 103.936 39.35 105.249C39.7273 105.823 39.9537 105.959 40.3009 105.838C40.5876 105.717 40.5876 105.098 40.3009 103.665C40.165 103.016 40.0292 101.265 39.9688 99.5894L39.8782 96.6463L43.1836 99.8913C48.8737 105.506 49.6132 106.004 50.7603 104.978C51.4093 104.389 51.4244 103.876 50.9414 99.8762C50.6396 97.4311 50.4434 94.971 50.3679 92.6617L50.2622 89.1451L49.8245 88.7677C49.085 88.1338 48.0738 88.5715 47.8625 89.628C47.7115 90.4129 48.1492 96.8576 48.6171 100.872L48.7228 101.778L47.9077 101.099C47.4549 100.721 45.4174 98.7442 43.3496 96.6916C39.3802 92.7372 39.1538 92.5712 38.2784 93.0089C37.8256 93.2504 37.4785 94.005 37.5237 94.6842C37.5388 94.8502 37.6143 95.8615 37.6747 96.9482Z" fill="black"/>
</svg>
