<svg width="118" height="46" viewBox="0 0 118 46" fill="none" xmlns="http://www.w3.org/2000/svg">
<path d="M1.52204 20.1024C2.32464 24.3637 3.70393 29.2607 4.15009 29.4604C4.39342 29.5571 4.53891 29.4929 4.6239 29.241C4.72279 28.9455 4.28393 25.2183 3.66686 21.2805L3.21854 18.3534L4.13895 19.3293C6.71185 22.0479 10.6197 25.2107 11.8812 25.5835C12.402 25.7301 13.0381 25.62 13.3256 25.3364C13.4498 25.2028 13.6351 24.8627 13.7324 24.557C13.9008 24.0432 13.895 23.9404 13.6359 22.3527C13.2777 20.1997 12.8766 18.8313 11.1414 13.9797C9.75247 10.0799 9.33162 9.18132 8.98843 9.3077C8.74329 9.39797 8.75197 9.71813 9.02315 11.9781C9.39048 14.9179 10.2997 19.1314 11.0847 21.5597C11.1877 21.8859 11.2985 22.2626 11.3208 22.4043C11.3487 22.6488 11.3269 22.6419 10.899 22.2941C10.6499 22.0946 9.82516 21.3319 9.06905 20.6103C7.14287 18.7756 4.66318 16.5195 3.56373 15.5924C2.46587 14.6754 2.05801 14.5216 1.48396 14.8293C0.718545 15.2397 0.722617 15.8613 1.52204 20.1024Z" fill="black"/>
<path d="M43.3278 27.2478C43.5123 28.4876 43.8299 30.3729 44.0348 31.4488C44.3627 33.1907 44.5267 33.9592 45.2132 36.8794C45.5718 38.4266 46.3608 41.3571 46.5554 41.8899C46.8731 42.7096 47.4469 43.1809 48.1641 43.1809C48.6764 43.1809 49.0043 42.9965 49.2912 42.5764C49.7011 41.9616 49.5986 39.9328 49.0146 37.0843C48.8506 36.2953 48.6867 35.5576 48.6559 35.4347C48.5945 35.24 48.6354 35.2092 49.2195 35.158C50.9819 35.0043 52.7238 33.3444 53.1131 31.4488C53.4922 29.6352 52.5496 27.1556 51.0331 25.9465C50.3671 25.4137 49.4552 24.9936 48.6457 24.8297C48.1129 24.7169 47.9182 24.7272 47.3342 24.8706C46.2993 25.1268 45.623 25.6904 45.1005 26.7252L44.9468 27.0121L44.4139 25.7006C43.6557 23.7948 43.584 23.6616 43.2766 23.6616C43.0307 23.6616 43.0204 23.6923 42.9999 24.3276C42.9999 24.6965 43.1434 26.008 43.3278 27.2478ZM47.3956 27.463C47.5596 27.1556 47.6825 27.0941 48.1436 27.0941C49.117 27.0941 50.2031 27.9548 50.8384 29.2254C51.1663 29.9016 51.2073 30.0656 51.2073 30.8135C51.2073 31.5205 51.1663 31.7357 50.9409 32.1661C50.2851 33.4366 48.8814 34.2358 48.3178 33.6723C48.1026 33.4571 47.4776 30.916 47.2317 29.2971C47.1702 28.836 47.2624 27.7089 47.3956 27.463Z" fill="black"/>
<path d="M53.8941 33.3673C54.14 34.8428 54.7445 36.0519 55.677 36.9228C56.6606 37.845 57.7057 38.0704 58.7611 37.5786C60.0112 37.0048 60.8616 35.6625 61.21 33.7054C61.3125 33.1521 61.3842 32.9882 61.6711 32.7525C62.3986 32.1582 63.1875 30.693 63.6179 29.1663C63.7818 28.5823 63.7921 28.572 64.0073 28.7052C64.1302 28.7872 64.3659 29.1253 64.5401 29.4634L64.8475 30.068V32.8345C64.8475 35.4371 64.8577 35.6215 65.0626 35.9596C65.5442 36.7896 66.4152 36.9945 67.3988 36.5129C68.0136 36.2158 69.2739 34.9862 69.8579 34.1255C70.1653 33.6747 70.2268 33.6235 70.2268 33.8181C70.237 34.5866 70.5547 37.1995 70.7289 37.9474C71.4051 40.7959 73.0036 42.3021 74.8172 41.8103C75.5447 41.6054 75.5037 41.1853 74.7557 41.1853C73.6593 41.1853 72.8601 40.3041 72.5117 38.6852C72.3171 37.8245 72.2966 35.0375 72.4708 33.4493C72.5322 32.8857 72.6962 31.0721 72.8396 29.4122C72.9831 27.7523 73.1163 26.3793 73.1368 26.3588C73.1573 26.328 73.6593 26.2666 74.2434 26.2153C76.3541 26.0207 77.8604 25.6825 77.8604 25.4059C77.8604 25.2317 77.7886 25.2317 75.0938 25.3956C74.0897 25.4674 73.2495 25.4878 73.2187 25.4571C73.188 25.4264 73.2495 24.7399 73.3519 23.9202C73.5671 22.2193 73.5261 22.0041 72.9523 21.7684C72.4708 21.5635 71.9072 21.7479 71.5998 22.1988C71.4769 22.3832 71.2105 23.2132 71.0055 24.0534L70.6264 25.5698L69.3456 25.6723C68.0341 25.7747 67.7369 25.8875 67.9726 26.1744C68.0751 26.2973 68.3312 26.328 69.2124 26.328C70.278 26.328 70.3293 26.3383 70.3293 26.5432C70.3293 26.6662 70.0526 27.5986 69.7042 28.6232C69.028 30.6725 67.7984 33.2853 67.2144 33.9616L66.8557 34.3715L66.9172 32.4246C66.9787 30.2627 66.907 29.6684 66.4356 28.6232C66.0873 27.8548 65.5442 27.2297 64.7655 26.7277C64.4376 26.5125 64.1302 26.328 64.079 26.3076C64.0277 26.2871 63.8843 25.9079 63.7716 25.4571C63.5257 24.4735 63.0236 23.6947 62.3678 23.2644C61.8453 22.916 60.9641 22.7008 60.5337 22.8033C59.3247 23.0902 58.7816 23.9816 59.1197 25.1087C59.3247 25.785 60.2468 26.7379 61.1793 27.2297C61.5379 27.4142 61.8248 27.6293 61.8248 27.6908C61.8248 28.1621 61.0665 30.3241 60.9026 30.3241C60.8719 30.3241 60.7592 30.109 60.6669 29.8323C60.1854 28.531 58.9763 27.0555 58.0234 26.6047C57.7467 26.4817 57.5315 26.328 57.5418 26.2768C57.5828 25.5596 56.7221 25.8567 55.8102 26.8916C54.847 27.9675 54.1912 29.4429 53.8941 31.1336C53.7096 32.2505 53.7096 32.2505 53.8941 33.3673ZM55.472 31.0414C55.5233 31.0414 55.5745 31.0926 55.5745 31.1541C55.5745 31.4205 56.1585 32.4144 56.5581 32.8242C57.1217 33.3878 57.8184 33.7259 58.5664 33.7874C59.0275 33.8181 59.1607 33.8694 59.1607 34.0026C59.1607 34.3817 58.7816 35.2117 58.4332 35.5703C58.1258 35.8982 58.0029 35.9596 57.634 35.9596C57.2549 35.9596 57.1422 35.8982 56.7118 35.4678C56.1175 34.8735 55.6974 34.0128 55.5233 33.0394C55.3593 32.1582 55.3286 31.0414 55.472 31.0414ZM57.5418 28.7052C58.0644 29.0433 59.1607 31.0414 59.1607 31.6562C59.1607 31.7176 59.007 31.7586 58.8226 31.7586C57.9926 31.7586 57.3266 30.6418 57.3164 29.2585V28.5618L57.5418 28.7052Z" fill="black"/>
<path d="M14.4197 23.0634C14.8039 23.9263 15.5671 24.429 16.3061 24.3132C17.3994 24.1419 18.324 22.4309 18.7078 19.8505L18.8431 18.927L19.2525 19.6199C20.5173 21.7346 22.0902 22.3074 23.1469 21.0425C23.7486 20.3155 24.0281 19.1205 24.1368 16.7699C24.2266 14.6297 24.4857 13.106 24.8212 12.7319C24.9268 12.6116 25.0376 12.6565 25.4404 12.9771C25.9034 13.3505 27.1028 14.9153 27.1504 15.219C27.1631 15.3 26.9751 15.7547 26.7396 16.2376C26.1036 17.5403 25.7527 18.8087 25.7986 19.6313C25.8432 20.2466 25.8841 20.375 26.2016 20.8127C26.627 21.4098 26.9353 21.5897 27.6762 21.6188C28.1476 21.6486 28.308 21.6131 28.6603 21.4127C30.0019 20.6424 30.7396 18.9296 30.6023 16.9287L30.5489 16.1903L31.2147 15.277C31.5818 14.7735 31.904 14.3808 31.929 14.408C31.9875 14.4506 32.9645 18.1039 33.2412 19.274C33.485 20.3662 33.6502 20.693 34.0755 20.9582C34.8075 21.3932 35.6848 20.9031 35.7999 19.9827C35.8629 19.3921 36.2264 17.8727 36.482 17.0548C37.0171 15.3738 38.0173 13.6821 38.8042 13.1439C39.2163 12.8615 39.391 12.9171 39.8037 13.4332C40.5393 14.3551 41.0091 16.2936 41.2468 19.3988C41.369 21.0391 41.4413 21.5671 41.5499 21.6642C41.6217 21.7255 41.7293 21.7501 41.7751 21.7118C42.03 21.4852 42.346 19.1332 42.3673 17.2838C42.3864 15.4865 41.8423 13.4042 41.0775 12.3624C40.7616 11.9348 40.1698 11.4675 39.7753 11.3323C39.2162 11.1399 38.1191 11.3533 37.5524 11.774C36.8177 12.3143 36.0395 13.1726 35.5261 13.9998L35.064 14.7568L34.9545 14.0583C34.8958 13.6838 34.7008 12.7705 34.5344 12.0395L34.2206 10.6989L34.447 10.29C35.2802 8.79044 35.9409 6.85117 36.0056 5.74166C36.1188 3.61852 35.086 1.72682 33.5477 1.24189C32.7952 1.00717 32.2284 1.096 31.6259 1.55341C30.3106 2.55812 29.8702 5.24074 30.4863 8.57712L30.7261 9.90858L29.8595 11.1956C29.3777 11.8934 28.9509 12.4788 28.9002 12.4868C28.8597 12.4931 28.6262 12.2601 28.3932 11.9647C27.8225 11.2348 26.5861 10.3603 25.7799 10.1132C25.2575 9.95656 24.9949 9.93548 24.4701 10.0281C23.014 10.2666 22.0553 11.4955 21.5872 13.7365C21.4366 14.4964 21.2041 16.5864 21.2006 17.2922C21.1982 17.5415 21.1707 17.7636 21.135 17.8003C21.0161 17.9019 19.8788 15.145 19.2737 13.2693C18.8942 12.1049 18.5138 11.729 17.8254 11.8368C16.965 11.9717 16.8564 12.4035 16.9115 15.4026C17.0071 19.7851 16.8867 21.5982 16.4386 22.6434C16.2992 22.9452 16.1765 23.0889 16.0044 23.1159C15.7311 23.1587 15.5656 23.0291 15.1097 22.4367C14.7172 21.9175 14.3556 21.86 14.2587 22.3005C14.2303 22.4501 14.2003 22.5896 14.212 22.5982C14.2136 22.6083 14.3092 22.8215 14.4197 23.0634ZM32.9344 4.54275L32.9621 4.12356L33.0594 4.67873C33.107 4.98242 33.1173 5.31269 33.0794 5.40161C32.9881 5.61298 32.905 5.14891 32.9344 4.54275Z" fill="black"/>
<path d="M16.7544 9.89928C16.8542 10.2052 17.3402 10.4609 17.7047 10.4038C17.9071 10.372 18.0937 10.2391 18.2644 10.0049C18.4848 9.69035 18.511 9.5929 18.4096 9.2769C18.2557 8.82394 17.9108 8.60833 17.4249 8.68447C16.858 8.77331 16.558 9.30777 16.7544 9.89928Z" fill="black"/>
<path d="M74.6738 35.8879C74.8583 36.4002 75.1349 36.6974 75.3911 36.6564C75.5858 36.6256 75.6063 36.5539 75.6063 35.8572C75.6063 34.8838 75.9034 34.2382 76.7846 33.2956C77.3584 32.6808 77.3994 32.6501 77.3584 32.937C77.2149 33.7464 77.0715 37.4863 77.133 38.6647C77.3072 42.0562 77.799 43.8493 78.8851 45.0584C79.6946 45.9601 80.6167 46.1138 81.4877 45.4888C82.2562 44.9252 82.7377 43.7776 83.0964 41.5951C83.5574 38.7979 82.8914 36.5129 81.0368 34.4432C80.6167 33.9821 80.5655 33.8796 80.6885 33.7669C81.0163 33.4493 83.8546 31.359 83.8546 31.4307C83.8546 31.4717 83.7829 31.8611 83.7009 32.3017C83.3013 34.4022 83.7111 35.6727 85.0124 36.3387C85.4735 36.5642 85.6272 36.5949 86.3137 36.5539C88.3527 36.431 89.8692 34.7096 90.5147 31.7791C90.7504 30.7032 90.7709 29.8835 90.566 29.0126C90.1049 27.0555 88.8753 26.1641 87.5535 26.8301C87.2461 26.9941 87.031 27.035 86.7441 26.9838C86.2113 26.9018 85.9244 27.0555 84.4694 28.2646C83.373 29.1868 82.0615 30.2012 80.545 31.318L79.961 31.7586V31.1029V30.4368L80.586 29.7811C81.7951 28.4798 82.5635 27.2195 83.1681 25.5493C83.7624 23.9099 83.7419 22.8955 83.1066 21.9528C82.041 20.3647 80.1966 20.8155 79.2232 22.9058C78.7416 23.9406 78.0449 27.076 77.717 29.6889L77.6248 30.4368L76.7436 31.3488C75.7087 32.4246 74.9812 33.5005 74.7148 34.351C74.4997 35.058 74.4894 35.3551 74.6738 35.8879ZM79.756 36.5847V36.1236L80.0224 36.4822C80.8422 37.5888 81.1803 39.0335 80.9959 40.673C80.8729 41.7796 80.5758 43.0399 80.4221 43.0604C80.2684 43.0911 79.9815 42.1587 79.8688 41.2058C79.6946 39.8737 79.6741 39.4024 79.7151 38.1626C79.7355 37.5376 79.756 36.8306 79.756 36.5847ZM80.3196 26.4817C80.4528 24.9038 81.1086 22.9467 81.4979 22.9467C81.6824 22.9467 81.8156 23.4796 81.7541 23.9201C81.5901 24.9448 80.8012 26.9121 80.3196 27.5064L80.1556 27.7113L80.2069 27.5064C80.2274 27.3937 80.2786 26.9326 80.3196 26.4817ZM85.6067 32.0865C85.7194 31.6562 85.9551 30.9901 86.1293 30.611L86.4469 29.9245L86.7236 30.1192C87.1744 30.4368 87.5433 30.5495 88.4142 30.6213L89.2339 30.6828L89.2032 30.9901C89.1315 31.6152 88.6192 32.9472 88.2093 33.5415C87.9839 33.8796 87.6048 34.31 87.3691 34.4944C86.5801 35.0784 85.6682 35.0375 85.3813 34.3919C85.2481 34.0743 85.3506 33.0087 85.6067 32.0865ZM87.533 28.3773C87.9019 27.9162 88.2913 27.7113 88.5577 27.8548C88.8548 28.0187 89.193 28.8179 89.2544 29.5044L89.3159 30.1192L88.9675 30.0577C88.3835 29.945 87.533 29.5966 87.3179 29.3815C87.0822 29.1458 87.1334 28.8896 87.533 28.3773Z" fill="black"/>
<path d="M43.07 17.0335C43.4283 18.1286 44.2317 19.0191 44.9815 19.1712C46.1297 19.4165 47.2941 18.5081 48.1911 16.6873L48.5692 15.9228L48.7985 16.5921C49.6002 18.8623 50.5919 19.9619 51.6649 19.7937C52.5355 19.6573 53.2459 18.8303 53.9649 17.1308C54.3565 16.1879 54.3565 16.1879 54.6261 17.048C54.8485 17.7391 55.4884 18.9767 55.9357 19.5808C56.4212 20.2307 57.2605 20.8874 57.5541 20.8414C57.8274 20.7986 57.7919 20.6382 57.2556 19.6644C56.3918 18.0573 56.1114 16.4003 55.8901 11.6123C55.8444 10.5927 55.7608 9.13307 55.7042 8.37446C55.6475 7.61585 55.5996 6.64844 55.5969 6.23401L55.5941 5.48772L55.9281 5.43537C56.1103 5.40682 57.3026 5.27183 58.5775 5.13428C59.8524 4.99673 60.9994 4.83773 61.1247 4.77662C61.4173 4.65817 61.3722 4.43705 61.0362 4.34451C60.4398 4.17868 58.4195 4.05968 56.5273 4.0969L55.6782 4.1055L55.7255 3.74546C55.8349 2.7223 54.7598 1.88474 53.8948 2.32107C53.4545 2.556 53.2202 2.91423 53.1108 3.60552L53.0041 4.1823L49.8559 4.67563C47.428 5.06647 46.6735 5.21581 46.5983 5.33131C46.4004 5.5905 46.9158 5.76902 48.0658 5.82735C49.0171 5.87533 51.1756 5.81711 52.3306 5.70872C52.8431 5.6699 52.8421 5.59745 52.4696 8.05162C52.1491 10.1761 51.8401 12.5063 51.6652 14.0375C51.431 16.1174 51.3866 16.3629 51.2941 16.17C51.0183 15.6013 49.9313 10.7829 49.7371 9.27842C49.5634 7.90549 49.2235 7.52316 48.3327 7.66275C47.9885 7.71669 47.8563 7.79963 47.6343 8.10407C47.3953 8.43193 47.3391 8.66891 47.2816 9.55949C47.2404 10.1571 47.1818 10.6434 47.1413 10.6497C47.1008 10.6561 46.9176 10.6122 46.7313 10.548C45.5204 10.1674 44.1477 11.0047 43.4151 12.5508C42.7236 14.0282 42.6003 15.624 43.07 17.0335ZM44.3806 14.6086C44.4519 13.3425 44.9038 12.2553 45.5638 11.7681C45.9828 11.4639 46.9471 11.3958 46.9883 11.659C47.0153 11.8311 46.1934 15.455 45.9678 16.1334C45.7957 16.6893 45.422 17.3494 45.2803 17.3716C45.1284 17.3954 44.8125 16.9678 44.65 16.5266C44.4137 15.8791 44.343 15.3613 44.3806 14.6086Z" fill="black"/>
<path d="M92.0619 33.5005C92.1746 34.7711 92.5742 36.0211 93.0558 36.5847C93.6296 37.2507 94.1931 37.4146 95.064 37.1687C95.6378 37.0048 96.8572 35.765 97.5539 34.6379C98.1482 33.6747 98.097 33.644 98.2917 35.0784C98.4556 36.2465 98.6913 36.9535 99.0499 37.3634C100.167 38.6339 101.673 37.8245 103.241 35.1399C103.732 34.2997 103.937 34.105 103.937 34.4842C103.937 34.5661 104.091 34.9452 104.286 35.3244C104.685 36.1031 105.341 36.7998 105.905 37.0355C107.431 37.6605 109.184 36.3285 110.075 33.8489C110.485 32.7218 110.598 32.2197 110.68 31.1541L110.751 30.2934L111.264 30.1192C113.354 29.4122 116.172 27.1273 117.34 25.2112C117.534 24.8935 117.545 24.5862 117.36 24.5862C117.309 24.5862 116.817 24.9858 116.264 25.4673C115.003 26.574 114.337 27.0863 113.354 27.6908C112.667 28.1212 110.966 28.8896 110.721 28.8896C110.669 28.8896 110.557 28.6027 110.454 28.2441C109.696 25.5083 107.708 23.8997 106.038 24.6784C105.3 25.0165 104.419 26.2358 103.794 27.7625C102.165 31.7894 100.638 35.1399 100.443 35.1399C100.32 35.1399 100.218 33.2239 100.29 32.3324C100.331 31.8713 100.454 30.7647 100.556 29.8733C100.802 27.906 100.812 27.4347 100.607 27.0453C100.402 26.6457 99.9106 26.3998 99.4905 26.4715C98.8757 26.5842 98.5786 27.0555 97.6564 29.3507C96.4576 32.3529 95.3919 34.3919 94.7362 34.976C94.521 35.1604 94.521 35.1604 94.3366 34.5661C94.1624 34.0026 94.1521 33.521 94.1829 28.0187C94.2136 23.9714 94.1829 21.9836 94.1111 21.7889C93.9779 21.4405 93.7218 21.3278 93.5271 21.5327C93.3529 21.7069 92.7996 24.5144 92.4205 27.158C92.1951 28.6847 91.9184 31.8918 91.9594 32.3734C91.9696 32.4554 92.0106 32.9677 92.0619 33.5005ZM105.894 30.8467C106.058 29.8528 106.007 29.8938 106.622 30.1602C106.919 30.2934 107.503 30.4676 107.903 30.5393C108.62 30.6623 108.651 30.6725 108.651 30.9389C108.651 31.4102 108.159 33.1931 107.852 33.8489C107.503 34.5969 107.063 35.1399 106.817 35.1399C106.54 35.1399 106.181 34.6993 105.976 34.0948C105.761 33.4595 105.72 31.8918 105.894 30.8467ZM106.55 27.0145C106.54 26.3793 106.56 26.3178 106.776 26.2666C107.39 26.1129 108.261 27.3322 108.589 28.8077C108.651 29.0741 108.63 29.0946 108.354 29.0946C107.964 29.0946 107.257 28.8384 106.776 28.5208C106.438 28.2953 106.407 28.2339 106.468 27.988C106.519 27.8343 106.55 27.3937 106.55 27.0145Z" fill="black"/>
<path d="M98.9166 24.0431C99.1318 24.5862 99.9925 24.7399 100.382 24.2993C101.007 23.6025 100.279 22.4959 99.4289 22.8443C99.1215 22.9672 98.8039 23.4078 98.8244 23.6845C98.8244 23.7562 98.8654 23.9201 98.9166 24.0431Z" fill="black"/>
<path d="M59.6408 19.4491C59.7665 19.5227 59.8693 19.517 59.9695 19.4287C60.226 19.2122 60.8034 17.8668 61.6429 15.5468C62.5504 12.9985 63.1622 11.4091 63.2817 11.2452C63.3345 11.185 63.368 11.2005 63.3839 11.3018C63.3982 11.3929 63.6914 12.0729 64.0347 12.8073C64.5974 14.0156 64.6398 14.1541 64.5124 14.2675C64.1727 14.5489 63.3342 15.5515 63.0604 15.9885C62.0934 17.5609 62.241 19.3631 63.4194 20.1326C64.0204 20.5259 64.6095 20.5788 65.306 20.3245C66.3542 19.932 67.1074 19.0465 67.3372 17.9319C67.4717 17.2678 67.2875 15.7617 66.9746 15.0225C66.6092 14.1463 66.5595 14.2267 68.361 12.9487C69.9198 11.8436 70.2041 11.5398 69.7871 11.4599C69.5501 11.4037 68.1736 11.9513 67.1304 12.5089C66.6124 12.7768 66.1806 13 66.179 12.9899C66.1673 12.9813 65.8602 12.345 65.5005 11.5716C65.0828 10.6933 64.7806 9.89017 64.6757 9.41915C64.5904 9.00729 64.445 8.54262 64.3605 8.4003C64.1335 8.01064 63.7076 7.80773 63.2318 7.88228C62.8876 7.93622 62.7756 8.01599 62.5142 8.39922C62.0991 8.99321 61.1498 11.3407 60.6333 13.0085C60.2905 14.1304 59.3821 18.857 59.4376 19.2113C59.4487 19.2821 59.537 19.3824 59.6408 19.4491ZM63.9845 17.4512C64.1637 16.8735 65.1273 15.4779 65.2694 15.5905C65.3162 15.6246 65.4414 16.0924 65.5473 16.6359C65.7756 17.7617 65.7027 18.1569 65.2169 18.5649C64.8416 18.883 64.2257 18.9899 64.0459 18.7692C63.8278 18.5026 63.8038 18.0189 63.9845 17.4512Z" fill="black"/>
<path d="M61.8196 6.45764C61.9076 6.42311 62.2079 6.02342 62.4785 5.56615C62.8623 4.90447 62.9366 4.71652 62.8195 4.63116C62.704 4.55592 62.5594 4.69265 62.132 5.34043C61.6021 6.12872 61.4764 6.58402 61.8196 6.45764Z" fill="black"/>
</svg>
