<svg width="100" height="27" viewBox="0 0 100 27" fill="none" xmlns="http://www.w3.org/2000/svg">
<path d="M0.0425185 10.9769C0.0938431 11.6352 0.324804 15.0586 0.530102 18.6138C0.761063 22.1689 1.01769 25.4343 1.12033 25.8556C1.40262 26.8563 2.06984 27.304 2.58309 26.7773C3.25031 26.0663 3.50693 23.6436 3.68656 16.586L3.8662 9.68648L6.43243 13.9263C10.4614 20.6151 14.593 25.6713 16.1071 25.7766C17.9291 25.882 18.699 25.4606 19.4432 23.9069C20.0078 22.7482 20.0334 22.4322 19.9821 17.297C19.9051 9.55481 19.2892 1.83891 18.6733 0.969888C17.9548 -0.00447433 17.0053 -0.267816 16.1841 0.285201C15.0806 1.02256 14.978 1.70724 15.4399 5.39402C15.6452 7.23741 15.8762 11.3982 15.9531 14.6636L16.0815 20.5888L15.0293 19.4038C13.4896 17.6657 11.3083 14.5056 8.71637 10.2132C5.20064 4.36699 3.50693 2.78694 1.78755 3.65597C0.478777 4.28799 0.0938431 5.18335 0.0168562 7.57975C-0.0088061 8.79112 -0.0088061 10.3185 0.0425185 10.9769Z" fill="black"/>
<path d="M21.351 18.2133C22.105 21.584 23.7169 24.4696 25.4589 25.491C26.9668 26.4103 28.9428 26.0528 30.2427 24.6738C32.2707 22.5289 33.5186 16.2726 32.7907 11.6762C32.2707 8.30553 30.8667 4.85822 29.7748 4.29644C29.4628 4.11769 29.3068 3.8368 29.3848 3.63251C29.4628 3.40269 29.2548 2.96859 28.8908 2.61109C26.6548 0.415029 22.573 4.42412 21.351 10.0675C20.883 12.2125 20.883 16.145 21.351 18.2133ZM24.9909 9.07159C25.1989 8.25446 25.6149 7.13089 25.9269 6.54357L26.4728 5.49661L27.1228 7.00321C28.7868 10.7825 28.9948 11.7018 29.0208 14.6639C29.0208 17.6771 28.3708 20.869 27.6168 21.6096C27.2528 21.9926 27.1748 21.9671 26.8108 21.533C26.0569 20.5626 25.3549 19.1071 25.0169 17.626C24.5229 15.6342 24.4969 10.9102 24.9909 9.07159Z" fill="black"/>
<path d="M34.2464 1.42736C34.4073 1.50686 34.4341 2.03687 34.3536 2.56687C34.2732 3.09687 34.5682 6.46239 35.024 10.0399C35.4531 13.6174 35.9089 17.7249 35.9894 19.1825C36.0966 20.64 36.3112 22.3095 36.4721 22.8925C36.633 23.4755 36.7134 24.1645 36.6866 24.456C36.4989 25.8605 37.7056 27 39.4486 27C43.2028 27 47.1447 22.813 48.5927 17.3274C50.1212 11.4709 47.1983 4.15688 42.3179 1.58636C39.6363 0.181855 35.2922 -0.480648 34.4073 0.393856C33.9246 0.870859 33.871 1.18886 34.2464 1.42736ZM38.5101 3.25587C42.9078 4.95188 45.1603 8.7944 44.919 14.1474C44.8385 16.3204 44.7045 16.8239 43.8196 18.5995C43.2296 19.7655 42.3715 20.9845 41.7279 21.5675C41.138 22.0975 40.6017 22.495 40.548 22.442C40.4944 22.389 40.119 20.216 39.7436 17.5924C39.0464 12.8224 37.8933 7.36339 36.9547 4.34238C36.6866 3.46787 36.5257 2.69937 36.5525 2.64637C36.6061 2.59337 37.4911 2.85837 38.5101 3.25587Z" fill="black"/>
<path d="M50.1667 23.0801C50.658 25.2563 52.0165 26.0259 55.2825 25.9993C59.0978 25.9728 60.8609 25.6809 61.4678 24.9909C62.2482 24.1151 62.1615 22.9474 61.2655 22.1247C60.514 21.4612 60.4851 21.4347 57.537 21.6205L54.5889 21.7797L54.3865 20.957C54.2998 20.5059 54.2131 18.8339 54.2131 17.2416V14.3489H55.4271C58.4619 14.3489 59.9938 13.2343 58.9822 11.8012C58.4619 11.0581 57.6526 11.005 55.4849 11.5358L54.0108 11.9074L53.8085 9.41273C53.6929 8.03272 53.4905 6.30772 53.3749 5.59117L53.1437 4.26424H55.6294C58.2885 4.26424 59.2134 3.94578 59.5024 2.93732C59.5891 2.59231 59.4157 2.14116 59.0111 1.69L58.3463 1L55.6294 1.31846C52.5656 1.69 50.7447 2.06154 50.7158 2.35347C50.6291 3.22924 50.4846 6.9181 50.3401 11.5624C50.2245 14.6143 50.1089 18.197 50.0222 19.5239C49.9643 20.8243 50.0222 22.4432 50.1667 23.0801Z" fill="black"/>
<path d="M70.5 4.5C71.5 4.63323 74.0938 4.60712 77.2445 4.63323H79.224L79.3913 8.34115C79.6701 13.9814 79.6144 16.6187 79.1683 18.3682C78.7222 20.2221 78.2203 21.345 77.8578 21.345C77.4117 21.345 76.4638 18.9949 76.1013 17.0626C75.6831 14.8169 75.3206 14.0858 74.3727 13.7463C73.0343 13.2763 71.6124 14.0597 71.3336 15.4697C71.1105 16.5926 72.1421 20.5616 73.1738 22.5722C74.1496 24.4001 75.2091 25.3662 76.7705 25.8101C78.3318 26.254 79.698 25.9146 80.8412 24.844C83.5178 22.3633 84.6609 16.9581 84.1033 9.46397C83.9639 7.45334 83.9081 5.67771 83.9639 5.49493C84.0754 5.25992 84.7725 5.15547 86.3059 5.15547C88.174 5.15547 88.5922 5.07714 89.2335 4.5549C90.1815 3.77153 90.2651 2.49204 89.4008 1.70868C88.9547 1.29088 88.3692 1.1081 87.1145 1.02976C84.0754 0.820866 71.1384 1.7609 69.6328 2.30926C69.5 3.5 69.6328 4 70.5 4.5Z" fill="black"/>
<path d="M87 19C87.46 20.8678 88.7632 23.3581 89.9642 24.6552C92.5196 27.4309 94.9727 26.7305 96.1227 22.8912C96.8893 20.4527 96.8444 18.7669 95.6433 12.6967C94.3912 6.39294 94.2379 5.27747 94.5445 4.78459C94.9278 4.21388 95.2856 4.70677 95.72 6.34106C96.1544 8.0013 96.9466 8.93518 97.9432 8.93518C99.0164 8.93518 99.5786 8.54606 99.9108 7.61218C100.396 6.21135 98.812 2.13859 97.2788 0.841526C95.72 -0.481475 93.3435 -0.22206 91.7592 1.46412C90.0215 3.28 89.8682 5.06994 90.9926 10.1025C92.8069 18.0405 92.9284 17.9883 92.8007 20.0636C92.7496 21.1531 92.6218 22.1389 92.5451 22.2167C92.0852 22.7096 89.9642 19.6226 89.0954 17.1841C88.5077 15.5498 87.9199 15.0569 87.3066 15.6536C86.8467 16.1205 86.6934 17.7808 87 19Z" fill="black"/>
</svg>
