<svg width="605" height="253" viewBox="0 0 605 253" fill="none" xmlns="http://www.w3.org/2000/svg">
<path d="M3.35527 131.442C4.95527 148.242 8.02194 180.108 9.88861 202.108C11.7553 224.108 13.8886 244.242 14.6886 246.908C17.0886 256.242 23.2219 254.508 25.3553 243.842C27.0886 234.508 26.6886 185.842 24.4219 147.575C23.3553 127.975 22.5553 110.775 22.8219 109.308C23.0886 107.308 29.6219 113.842 48.5553 134.908C76.4219 165.842 103.622 193.042 113.755 199.975C125.089 207.708 135.489 206.775 140.155 197.442C143.489 191.042 143.222 179.575 139.222 147.442C135.355 115.308 133.889 99.3085 131.222 54.7751C128.955 17.9751 127.755 12.7751 121.889 11.3085C117.222 10.1085 112.289 12.5085 110.289 16.7751C108.422 20.7751 110.689 52.7751 118.022 125.708C122.955 176.108 123.222 180.108 121.222 180.108C118.689 180.108 70.6886 131.042 48.1553 105.442C35.6219 91.1751 23.3553 78.1085 20.8219 76.3751C14.2886 71.9751 7.62193 72.3751 3.35527 77.5751C0.288599 81.1751 -0.111401 82.7751 0.0219327 91.1751C0.155266 96.5085 1.62193 114.508 3.35527 131.442Z" fill="black"/>
<path d="M151.684 152.76C158.084 181.693 172.217 199.427 188.884 199.427C204.884 199.427 217.15 182.093 222.617 151.693C227.417 124.36 222.617 79.6932 213.684 68.2265C208.35 61.4265 196.484 64.8932 196.484 73.1598C196.484 75.1598 196.084 75.2932 193.55 73.9598C189.417 71.6932 177.817 71.9598 173.017 74.4932C163.15 79.5598 155.684 91.2932 151.817 107.96C149.417 117.827 149.417 142.36 151.684 152.76ZM171.284 101.427C175.017 89.2932 178.617 86.4932 196.35 81.9598C197.684 81.5598 199.15 83.9598 201.017 90.0932C203.15 97.4265 203.55 102.893 203.684 124.76C203.817 152.36 203.15 156.493 196.884 169.827C191.15 182.093 185.684 181.827 178.084 168.493C167.55 149.96 164.75 122.493 171.284 101.427Z" fill="black"/>
<path d="M233.1 164.785C234.567 176.918 237.9 186.518 242.7 191.852C253.633 204.518 268.967 195.718 278.167 171.318C282.433 160.252 289.633 134.385 291.1 124.785C291.633 121.718 292.433 119.185 293.1 119.185C293.633 119.185 294.433 124.385 294.966 130.652C296.166 145.452 301.1 164.518 306.167 174.652C317.233 196.252 328.6 200.518 344.866 186.118L349.8 181.852L353.666 186.118C362.066 195.052 372.333 197.052 382.6 191.852C392.466 186.785 395.266 178.385 388.733 173.185C384.333 169.718 383.4 169.718 377.133 173.052C371.133 176.385 368.2 175.318 365 168.518C362.2 162.518 362.333 161.052 365.933 152.785C372.066 138.918 381.4 105.185 383.533 89.0518C384.466 81.0518 381.133 69.9851 376.6 66.5184C368.6 60.1184 357.266 64.3851 351.666 76.1184C344.733 90.2517 339.266 127.052 340.733 149.452L341.666 162.652L335.5 168.518C328 175.7 326.166 171.052 326.166 171.052C313.9 155.852 308.567 110.652 311.767 48.7851C313.1 20.7851 313.1 17.3184 311.233 14.3851C308.3 9.98509 300.033 9.85174 296.167 14.1184C292.167 18.5184 291.233 22.3851 283.767 65.1851C275.633 111.185 272.833 124.785 268.3 141.452C265.1 153.452 258.3 171.718 256.433 173.585C251.5 178.652 249.367 132.785 253.633 112.652C256.433 99.9851 262.7 88.1184 270.033 81.9851C277.1 76.1184 277.367 72.1184 270.833 71.4518C262.033 70.5184 248.7 81.4518 242.567 94.5184C238.167 103.852 234.567 118.785 233.1 133.318C231.633 148.252 231.633 152.118 233.1 164.785Z" fill="black"/>
<path d="M430.717 17.9507C432.317 18.7507 439.117 20.0841 445.917 20.8841L458.317 22.3507L458.983 29.1507C459.383 32.8841 462.45 43.1507 465.917 51.8174C483.383 96.6174 490.983 126.751 491.117 151.817C491.117 169.017 489.117 178.484 484.05 184.484C479.65 189.817 475.65 189.417 469.383 183.151C458.717 172.351 451.783 153.551 451.383 134.217C451.117 118.884 449.25 115.151 442.317 115.151C434.05 115.151 431.117 122.884 432.317 141.017C434.183 169.151 452.717 200.617 470.717 206.217C498.05 214.751 516.45 182.884 510.583 137.017C507.117 109.151 501.383 87.9507 485.383 44.7507C479.65 29.5507 479.783 29.0174 488.183 27.2841C501.517 24.4841 521.917 21.8174 529.25 21.8174C542.983 21.8174 551.117 14.3507 546.45 6.08407C543.65 0.884071 536.85 -0.982596 526.45 0.484071C504.983 3.4174 479.917 5.8174 457.65 7.0174C444.317 7.8174 432.183 9.01741 430.583 9.81741C427.117 11.6841 427.117 15.9507 430.717 17.9507Z" fill="black"/>
<path d="M525.917 167.48C528.45 174.28 534.85 183.48 540.183 187.88C552.983 198.813 573.25 202.813 584.85 196.813C591.65 193.213 595.117 188.946 597.917 180.413C601.783 169.08 599.117 157.746 584.583 123.88C571.117 92.2796 567.117 79.7463 565.25 62.0129C563.917 50.2796 565.517 31.7463 567.917 29.3463C570.05 27.2129 579.117 36.9463 589.517 52.2796C597.117 63.4796 599.25 66.0129 601.65 65.6129C604.183 65.2129 604.583 64.4129 604.583 58.2796C604.45 44.6796 587.25 17.0796 575.25 11.2129C566.983 7.21293 561.65 8.27959 555.383 15.2129C548.05 23.4796 545.917 32.2796 546.05 55.2129C546.05 80.5463 549.25 92.8129 565.25 131.88C574.85 154.946 577.517 164.146 576.983 171.48C576.583 177.213 576.583 177.213 570.983 177.613C560.717 178.413 550.45 170.813 545.25 158.68C542.05 151.08 539.383 148.68 534.45 148.546C526.317 148.546 522.183 157.613 525.917 167.48Z" fill="black"/>
</svg>
