<svg width="155" height="60" viewBox="0 0 155 60" fill="none" xmlns="http://www.w3.org/2000/svg">
<path fill-rule="evenodd" clip-rule="evenodd" d="M33.2642 31.8884C33.2642 31.2404 32.9243 30.6452 32.3679 30.323L17.527 21.7408C17.2765 21.5928 16.9958 21.5154 16.7113 21.5048H16.5578C16.2733 21.5154 15.9926 21.5928 15.7379 21.7408L0.897687 30.323C0.344779 30.647 0 31.2421 0 31.8901L0.0325858 55.0061C0.0325858 55.3266 0.197267 55.626 0.477575 55.7844C0.750876 55.9535 1.09425 55.9535 1.36755 55.7844L10.1903 50.7062C10.7474 50.3731 11.0872 49.7843 11.0872 49.1426V38.3435C11.0872 37.6991 11.4271 37.1039 11.9825 36.7834L15.7386 34.6092C16.0175 34.4472 16.3238 34.3669 16.6356 34.3669C16.9425 34.3669 17.2558 34.4465 17.527 34.6088L21.2814 36.7824C21.8371 37.1028 22.1783 37.698 22.1783 38.3425V49.1409C22.1783 49.7818 22.5228 50.3734 23.0771 50.7045L31.8942 55.7791C32.171 55.9447 32.5154 55.9447 32.7912 55.7791C33.0631 55.6207 33.2355 55.3213 33.2355 55.0009L33.2642 31.8884ZM103.295 43.9239C103.295 44.0848 103.21 44.2338 103.071 44.3134L97.9734 47.2666C97.835 47.3466 97.664 47.3466 97.5259 47.2666L92.4278 44.3134C92.2877 44.2335 92.2036 44.0845 92.2036 43.9239V38.009C92.2036 37.8477 92.2877 37.6991 92.4243 37.6181L97.5189 34.6599C97.6591 34.5789 97.8308 34.5789 97.9709 34.6599L103.069 37.6181C103.209 37.6991 103.293 37.8477 103.293 38.009L103.295 43.9239ZM104.672 0.114025C104.394 -0.0416315 104.055 -0.0374056 103.781 0.123533C103.507 0.285529 103.338 0.581346 103.338 0.901815V23.7925C103.338 24.0178 103.219 24.2256 103.025 24.3383C102.833 24.451 102.592 24.451 102.398 24.3383L98.6805 22.1862C98.1268 21.8644 97.445 21.8644 96.8893 22.1862L82.0434 30.7977C81.4888 31.1182 81.1465 31.7133 81.1465 32.3543V49.5821C81.1465 50.2266 81.4888 50.8182 82.0434 51.1422L96.8893 59.7596C97.4436 60.0801 98.1261 60.0801 98.6822 59.7596L113.528 51.1387C114.082 50.8147 114.425 50.2231 114.425 49.5786V6.64279C114.425 5.98917 114.071 5.38803 113.504 5.06862L104.672 0.114025ZM154.109 37.8533C154.66 37.5314 155 36.937 155 36.296V32.1208C155 31.4784 154.66 30.8857 154.108 30.5625L139.356 21.9556C138.799 21.6316 138.116 21.6316 137.559 21.9556L122.717 30.566C122.159 30.89 121.82 31.4816 121.82 32.1261V49.3469C121.82 49.9949 122.166 50.5935 122.724 50.914L137.471 59.3624C138.014 59.6758 138.68 59.6794 139.23 59.373L148.151 54.3899C148.431 54.2314 148.61 53.932 148.61 53.6081C148.61 53.2841 148.438 52.9812 148.158 52.8227L133.225 44.2088C132.944 44.0503 132.773 43.751 132.773 43.4305V38.0283C132.773 37.7057 132.941 37.4085 133.221 37.2479L137.867 34.5539C138.144 34.3919 138.484 34.3919 138.761 34.5539L143.41 37.2479C143.687 37.4064 143.859 37.7057 143.859 38.0262V42.2733C143.859 42.5938 144.03 42.8931 144.307 43.0551C144.584 43.2136 144.927 43.2136 145.204 43.0516L154.109 37.8533Z" fill="black"/>
<path fill-rule="evenodd" clip-rule="evenodd" d="M138.313 37.0448C138.428 36.9851 138.572 36.9851 138.689 37.0448L141.812 38.6281C141.929 38.6875 142 38.7969 142 38.915V42.085C142 42.2031 141.929 42.3125 141.812 42.3719L138.689 43.9552C138.572 44.0149 138.428 44.0149 138.313 43.9552L135.192 42.3719C135.073 42.3125 135 42.2031 135 42.085V38.915C135 38.7969 135.069 38.6875 135.188 38.6281L138.313 37.0448Z" fill="black"/>
<mask id="mask0_638_24" style="mask-type:luminance" maskUnits="userSpaceOnUse" x="40" y="21" width="34" height="39">
<path d="M56.3156 22.0882L41.5539 30.6046C41.001 30.9233 40.6619 31.5117 40.6619 32.1477V49.1924C40.6619 49.8287 41.001 50.4168 41.5539 50.7355L56.3167 59.2585C56.8685 59.5762 57.549 59.5762 58.1001 59.2585L72.8604 50.7355C73.4105 50.4168 73.7504 49.8284 73.7504 49.1924V32.1477C73.7504 31.5117 73.4105 30.9233 72.8569 30.6046L58.0987 22.0882C57.8219 21.9295 57.5136 21.85 57.2053 21.85C56.8969 21.85 56.5886 21.9295 56.3118 22.0882" fill="white"/>
</mask>
<g mask="url(#mask0_638_24)">
<path d="M88.6677 29.1585L47.0718 8.77893L25.7439 52.2676L67.3387 72.6482L88.6677 29.1585Z" fill="black"/>
</g>
<mask id="mask1_638_24" style="mask-type:luminance" maskUnits="userSpaceOnUse" x="41" y="21" width="33" height="39">
<path d="M41.0275 50.2746C41.1687 50.4578 41.3453 50.6164 41.553 50.7355L54.2159 58.0464L56.3252 59.2582C56.6406 59.4403 57.0001 59.5174 57.3533 59.4911C57.471 59.4817 57.5887 59.4596 57.7037 59.427L73.2726 30.9328C73.1535 30.8032 73.014 30.6946 72.8578 30.6036L63.1921 25.0245L58.0828 22.0861C57.9377 22.0021 57.7804 21.9425 57.6203 21.9005L41.0275 50.2746Z" fill="white"/>
</mask>
<g mask="url(#mask1_638_24)">
<path d="M23.043 35.1862L52.4139 74.9202L91.2575 46.2347L61.8848 6.50183L23.043 35.1862Z" fill="black"/>
</g>
<mask id="mask2_638_24" style="mask-type:luminance" maskUnits="userSpaceOnUse" x="41" y="21" width="33" height="39">
<path d="M57.0289 21.8599C56.7811 21.8844 56.539 21.9615 56.3158 22.0883L41.5962 30.5802L57.4686 59.4771C57.6893 59.4456 57.9066 59.3721 58.1028 59.2586L72.8645 50.7355C73.32 50.4715 73.6318 50.0246 73.7264 49.5182L57.5457 21.889C57.4266 21.8655 57.3074 21.8533 57.1848 21.8533C57.1357 21.8533 57.0867 21.8557 57.0376 21.8603" fill="white"/>
</mask>
<g mask="url(#mask2_638_24)">
<path d="M41.5957 21.8533V59.4778H73.72V21.8533H41.5957Z" fill="black"/>
</g>
</svg>
