<svg width="193" height="75" viewBox="0 0 193 75" fill="none" xmlns="http://www.w3.org/2000/svg">
<path fill-rule="evenodd" clip-rule="evenodd" d="M41.3677 39.4379C41.3677 38.6365 40.945 37.9005 40.2531 37.5019L21.797 26.8879C21.4854 26.7049 21.1364 26.6091 20.7826 26.5961H20.5917C20.2379 26.6091 19.8889 26.7049 19.5721 26.8879L1.11685 37.5019C0.429254 37.9026 0.000488281 38.6387 0.000488281 39.4401L0.0410119 68.0288C0.0410119 68.4252 0.245809 68.7954 0.594399 68.9914C0.934274 69.2004 1.3613 69.2004 1.70117 68.9914L12.673 62.7109C13.3659 62.2989 13.7885 61.5707 13.7885 60.7771V47.4213C13.7885 46.6243 14.2112 45.8882 14.9018 45.4919L19.573 42.8029C19.9198 42.6025 20.3006 42.5032 20.6884 42.5032C21.0702 42.5032 21.4597 42.6017 21.797 42.8024L26.4659 45.4906C27.157 45.8869 27.5814 46.623 27.5814 47.42V60.7749C27.5814 61.5676 28.0097 62.2993 28.699 62.7087L39.664 68.9848C40.0082 69.1895 40.4365 69.1895 40.7794 68.9848C41.1176 68.7888 41.332 68.4186 41.332 68.0223L41.3677 39.4379ZM128.458 54.3229C128.458 54.5219 128.352 54.7061 128.179 54.8046L121.84 58.457C121.668 58.5559 121.455 58.5559 121.283 58.457L114.943 54.8046C114.769 54.7057 114.664 54.5215 114.664 54.3229V47.0076C114.664 46.8081 114.769 46.6243 114.939 46.5241L121.275 42.8656C121.449 42.7654 121.662 42.7654 121.837 42.8656L128.177 46.5241C128.351 46.6243 128.456 46.8081 128.456 47.0076L128.458 54.3229ZM130.17 0.14102C129.824 -0.0514878 129.403 -0.0462613 129.062 0.15278C128.722 0.353127 128.512 0.71898 128.512 1.11532V29.4253C128.512 29.7041 128.364 29.961 128.122 30.1004C127.883 30.2398 127.584 30.2398 127.342 30.1004L122.719 27.4388C122.031 27.0407 121.183 27.0407 120.492 27.4388L102.029 38.089C101.34 38.4854 100.914 39.2214 100.914 40.0141V61.3207C100.914 62.1177 101.34 62.8494 102.029 63.2501L120.492 73.9077C121.181 74.3041 122.03 74.3041 122.721 73.9077L141.183 63.2457C141.872 62.845 142.299 62.1133 142.299 61.3163V8.21547C142.299 7.40711 141.859 6.66364 141.153 6.26861L130.17 0.14102ZM191.65 46.8151C192.336 46.417 192.758 45.6818 192.758 44.8891V39.7254C192.758 38.9309 192.335 38.1979 191.648 37.7981L173.303 27.1535C172.611 26.7529 171.761 26.7529 171.068 27.1535L152.61 37.8025C151.917 38.2032 151.495 38.9349 151.495 39.7319V61.0297C151.495 61.8311 151.926 62.5715 152.619 62.9679L170.959 73.4164C171.635 73.8041 172.462 73.8084 173.147 73.4295L184.24 67.2666C184.589 67.0706 184.811 66.7004 184.811 66.2997C184.811 65.899 184.598 65.5245 184.249 65.3285L165.678 54.6752C165.329 54.4792 165.116 54.109 165.116 53.7127V47.0315C165.116 46.6326 165.325 46.265 165.674 46.0664L171.452 42.7345C171.796 42.5342 172.218 42.5342 172.563 42.7345L178.345 46.0664C178.689 46.2624 178.903 46.6326 178.903 47.0289V52.2815C178.903 52.6778 179.116 53.0481 179.46 53.2484C179.805 53.4444 180.232 53.4444 180.576 53.244L191.65 46.8151Z" fill="black"/>
<path fill-rule="evenodd" clip-rule="evenodd" d="M171.915 45.8186C172.046 45.7415 172.21 45.7415 172.342 45.8186L175.885 47.8613C176.017 47.938 176.098 48.0791 176.098 48.2315V52.3212C176.098 52.4736 176.017 52.6148 175.885 52.6914L172.342 54.7341C172.21 54.8112 172.046 54.8112 171.915 54.7341L168.375 52.6914C168.24 52.6148 168.157 52.4736 168.157 52.3212V48.2315C168.157 48.0791 168.236 47.938 168.371 47.8613L171.915 45.8186Z" fill="black"/>
<mask id="mask0_638_24" style="mask-type:luminance" maskUnits="userSpaceOnUse" x="50" y="26" width="42" height="48">
<path d="M70.0338 27.2599L51.6762 37.8509C50.9886 38.2472 50.5668 38.9789 50.5668 39.7699V60.9667C50.5668 61.758 50.9886 62.4893 51.6762 62.8857L70.0351 73.4849C70.7214 73.88 71.5676 73.88 72.253 73.4849L90.6089 62.8857C91.293 62.4893 91.7157 61.7576 91.7157 60.9667V39.7699C91.7157 38.9789 91.293 38.2472 90.6045 37.8509L72.2513 27.2599C71.907 27.0626 71.5236 26.9637 71.1401 26.9637C70.7567 26.9637 70.3732 27.0626 70.029 27.2599" fill="white"/>
</mask>
<g mask="url(#mask0_638_24)">
<path d="M110.267 36.0525L58.5381 10.7086L32.0148 64.7911L83.7421 90.1364L110.267 36.0525Z" fill="black"/>
</g>
<mask id="mask1_638_24" style="mask-type:luminance" maskUnits="userSpaceOnUse" x="51" y="27" width="41" height="47">
<path d="M51.0216 62.3125C51.1972 62.5403 51.4168 62.7376 51.6752 62.8857L67.4228 71.9776L70.0459 73.4845C70.4381 73.711 70.8852 73.8068 71.3244 73.7741C71.4708 73.7624 71.6172 73.7349 71.7601 73.6944L91.1217 38.259C90.9735 38.0979 90.8001 37.9629 90.6058 37.8496L78.5855 30.9115L72.2316 27.2573C72.0512 27.1528 71.8555 27.0788 71.6564 27.0265L51.0216 62.3125Z" fill="white"/>
</mask>
<g mask="url(#mask1_638_24)">
<path d="M28.656 43.5486L65.1817 92.9618L113.488 57.2885L76.9597 7.87671L28.656 43.5486Z" fill="black"/>
</g>
<mask id="mask2_638_24" style="mask-type:luminance" maskUnits="userSpaceOnUse" x="51" y="26" width="41" height="48">
<path d="M70.9209 26.9759C70.6129 27.0064 70.3118 27.1022 70.0342 27.2599L51.7289 37.8204L71.4678 73.7567C71.7423 73.7175 72.0125 73.626 72.2565 73.4849L90.6141 62.8856C91.1806 62.5572 91.5684 62.0015 91.686 61.3717L71.5637 27.0121C71.4155 26.9829 71.2674 26.9677 71.1149 26.9677C71.0539 26.9677 70.9928 26.9707 70.9318 26.9764" fill="white"/>
</mask>
<g mask="url(#mask2_638_24)">
<path d="M51.7283 26.9677V73.7576H91.678V26.9677H51.7283Z" fill="black"/>
</g>
</svg>
