<svg width="309" height="161" viewBox="0 0 309 161" fill="none" xmlns="http://www.w3.org/2000/svg">
<mask id="mask0_887_4771" style="mask-type:luminance" maskUnits="userSpaceOnUse" x="0" y="0" width="309" height="161">
<path d="M0 0.152832H309V161H0V0.152832Z" fill="white"/>
</mask>
<g mask="url(#mask0_887_4771)">
<path d="M275.697 34.1012C275.697 33.9462 275.635 33.7891 275.635 33.6342C275.882 29.1815 275.264 24.7289 275.326 20.2763C275.387 16.5253 274.769 12.8539 274.954 9.10495C274.954 8.94787 274.954 8.79289 274.954 8.63581C274.954 8.01169 274.708 7.69753 274.214 7.69753C273.719 7.69753 273.286 7.69753 272.793 7.69753C267.354 7.77712 261.917 7.77712 256.481 8.01169C246.965 8.47873 237.45 7.77712 227.996 8.47873C222.374 8.87038 216.751 8.32375 211.128 8.94787C206.988 9.41701 202.787 8.87038 198.647 9.33952C194.632 9.80865 190.553 9.33952 186.475 9.80865C183.014 10.1982 179.555 9.80865 176.095 10.1982C172.387 10.6673 168.68 10.1982 164.973 10.6673C161.328 11.0569 157.682 10.6673 154.036 11.1365C150.329 11.526 146.621 11.1365 142.914 11.6035C139.578 11.9952 136.241 11.6035 132.844 11.9952C129.198 12.3847 125.552 11.9952 121.907 12.4643C118.632 12.8539 115.296 12.4643 112.021 12.8539C108.685 13.2455 105.348 12.8539 101.949 13.323C98.6741 13.7126 95.3378 13.323 92.0628 13.7126C88.6039 14.1042 85.1434 13.7126 81.6829 14.1817C78.5934 14.5733 75.4426 14.4163 72.2919 14.5733C68.0279 14.8079 63.7656 15.0425 59.4404 15.12C59.7485 12.3847 59.8727 9.65158 59.1919 6.99592C59.008 6.21472 59.1306 5.35394 59.3774 4.65233C59.9953 3.01244 59.4404 1.91709 58.3901 1.0584C58.3901 0.511768 58.1416 0.199707 57.7093 0.199707C55.2377 1.13589 53.0146 2.69828 50.7269 4.18319C50.4188 4.18319 50.1719 4.26068 49.9864 4.65233C49.9251 6.99592 49.6766 9.33952 49.554 11.6831C49.7396 9.33952 49.9251 6.99592 49.9864 4.65233C48.3795 5.19896 46.8969 6.29222 45.4143 7.15091C44.7964 7.54255 44.1156 7.77712 43.6832 8.55832C43.4364 8.55832 43.1896 8.63581 42.9427 8.63581C42.8185 8.63581 42.6959 8.79289 42.633 8.94787C39.2354 10.5103 36.0217 12.4643 32.8709 14.6508C32.6241 14.6508 32.3773 14.7283 32.1917 15.0425C30.8946 15.2749 29.8427 16.5253 28.4844 16.6049C27.8052 16.2907 27.1243 16.4478 26.4451 16.4478C23.2314 16.2907 20.0194 17.0719 16.7444 16.9169C14.026 16.7599 11.3076 17.5411 8.58917 17.3861C8.46493 17.3861 8.34069 17.3861 8.2181 17.3861C7.7228 17.4636 7.53892 17.7756 7.47597 18.3997C7.29044 22.0712 6.92102 25.6651 7.22914 29.3365C6.85808 29.9627 6.24018 30.1973 5.68524 30.5094C5.06734 30.8989 4.3865 31.056 3.95414 31.7597C3.58307 31.8372 3.21366 31.7597 2.96518 32.2267C2.47153 32.5409 1.91492 32.853 1.29703 33.165C0.803378 33.3996 0.617844 33.7891 0.617844 34.4928C0.742086 36.6019 0.371018 38.7109 0.124192 40.8199C-4.93027e-05 41.6786 -4.9625e-05 42.5394 0.371018 43.1635C1.60681 45.3521 2.03917 47.7732 2.34728 50.3514C2.34728 51.2876 2.7813 51.9138 3.15071 52.6154C3.39919 53.162 3.76861 53.0845 4.13967 52.6154C5.06734 52.3033 5.99336 51.9913 6.92102 51.5996C7.04361 53.2416 6.61125 54.804 6.61125 56.3664C6.61125 61.5206 6.61125 66.677 6.61125 71.9108C6.61125 72.3799 6.61125 72.7695 6.61125 73.2386C6.24018 74.3319 6.17889 75.5047 6.24018 76.6755C6.30313 82.5355 6.73549 88.3159 6.54996 94.1739C6.48701 95.8159 6.54996 97.5332 6.61125 99.1731C6.61125 99.4873 6.61125 99.7218 6.61125 100.034C6.61125 106.751 6.61125 113.547 6.54996 120.265C6.54996 123.235 6.54996 126.126 6.54996 129.093C6.54996 130.656 6.54996 130.499 7.7228 130.578C10.9365 130.656 14.1502 129.797 17.4236 130.031C17.4865 132.061 17.6091 134.092 17.6091 136.201C17.672 142.763 17.7946 149.404 17.9802 155.966C18.0415 157.137 18.227 157.606 19.216 157.763C21.9344 158.153 24.5915 158.622 27.3099 159.168C27.9891 159.325 28.6699 159.48 29.3491 159.403C31.3883 159.168 33.3033 158.699 35.2812 157.84C37.5672 156.825 39.9146 156.044 42.2636 155.262C44.0543 154.716 45.8467 154.247 47.7617 154.481C50.8511 154.873 53.3227 156.825 55.733 159.011C58.1416 161.122 60.6761 161.512 63.4558 160.184C64.4448 159.715 65.4338 159.325 66.4211 159.091C68.5232 158.544 70.5608 158.779 72.6629 158.856C77.9142 159.011 83.1042 158.622 88.1716 156.982C92.9905 155.419 97.8724 154.326 102.877 154.169C103.68 154.169 104.484 153.934 105.285 153.622C108.56 152.372 111.897 151.591 115.296 150.732C120.115 149.559 124.934 148.466 129.63 146.435C131.113 145.81 132.411 144.872 133.584 143.389C136.551 139.795 139.702 136.514 143.038 133.389C144.398 132.141 145.818 131.594 147.61 131.983C150.206 132.53 152.8 132.765 155.396 133.156C159.968 133.858 164.602 134.562 169.174 135.186C170.843 135.42 172.449 135.889 174.117 135.108C174.549 134.874 175.167 134.951 175.662 134.951C179.617 135.108 183.324 133.937 187.031 132.453C190.553 131.045 194.014 129.405 197.721 128.936C199.265 128.702 200.686 128.781 202.045 129.874C202.479 130.264 202.972 130.499 203.529 130.499C208.78 130.578 214.094 130.344 219.099 128.312C225.771 125.656 232.446 123.001 239.241 120.812C240.911 120.423 242.579 120.423 244.247 120.423C245.605 120.423 247.027 120.345 248.387 120.345C249.066 120.345 249.56 119.796 250.116 119.484C251.846 118.391 253.515 117.22 255.367 116.517C257.221 116.205 259.013 115.89 260.867 115.578C263.957 115.032 267.107 115.189 270.26 115.109C272.175 115.109 274.09 115.032 276.005 115.423C278.972 116.047 281.998 116.359 284.965 116.986C285.891 117.141 286.262 116.829 286.57 115.658C288.795 107.065 291.699 98.8611 294.666 90.6595C296.395 85.8948 297.939 80.9731 298.31 75.5822C298.434 73.6302 298.991 71.6762 299.917 70.0363C300.659 68.7085 300.782 67.4582 300.474 65.8958C299.731 61.9123 300.349 58.4754 303.253 56.1318C303.81 55.6627 304.242 55.1161 304.799 54.7244C305.478 54.2574 305.786 53.6312 306.035 52.7725C308.135 46.8349 308.321 40.4304 309 34.1012C297.878 34.1012 286.756 34.1012 275.697 34.1012ZM41.2116 49.8047C41.1504 48.2423 41.0278 46.68 40.9648 45.038C40.1001 45.3521 39.2354 45.4296 38.3077 45.4296C37.6285 45.4296 36.9493 45.4296 36.3314 45.4296C37.0106 45.4296 37.6898 45.4296 38.3077 45.4296C39.1741 45.4296 40.1001 45.3521 40.9648 45.038C41.0891 46.6004 41.2116 48.2423 41.2116 49.8047ZM34.168 71.9883C32.9952 72.0678 31.8207 72.1453 30.6462 72.2228C31.7594 72.1453 32.9322 72.0678 34.168 71.9883ZM41.6457 71.9108C41.7683 75.9738 41.6457 79.9573 41.7683 84.0204C41.707 79.9573 41.8295 75.8943 41.6457 71.9108C39.792 71.8333 37.9996 71.9108 36.1459 71.9108C37.9996 71.8333 39.8533 71.8333 41.6457 71.9108ZM268.714 62.2243C263.71 62.2243 258.705 62.2243 253.699 62.1468C258.705 62.2243 263.71 62.3018 268.714 62.2243ZM42.078 43.7101C42.078 40.8199 41.8295 37.9297 41.707 35.0395C41.7683 37.9297 42.078 40.8199 42.078 43.7101C43.7462 43.3981 45.4143 43.3981 47.0825 43.3206C45.3514 43.3981 43.7462 43.3981 42.078 43.7101ZM18.1044 44.6484C18.7223 44.2568 19.3402 43.9447 20.0194 43.5552C19.3402 43.8672 18.7223 44.2568 18.1044 44.6484ZM276.253 63.5522C276.253 65.2716 276.314 66.9115 276.314 68.631C276.314 66.9115 276.253 65.192 276.253 63.5522ZM275.635 36.6794C275.819 36.8364 275.882 37.071 275.882 37.3056C275.819 37.071 275.758 36.9139 275.635 36.6794ZM32.5628 128.859C35.7136 128.624 38.8643 128.469 42.0151 128.624C42.078 128.235 42.1393 127.92 42.1393 127.531C42.1393 118.079 42.078 108.627 42.078 99.1731C38.8643 99.6423 35.7136 99.4873 32.4998 99.4873C35.7136 99.4077 38.8643 99.5648 42.078 99.1731C42.078 108.627 42.1393 118.079 42.1393 127.531C42.1393 127.92 42.078 128.235 42.078 128.624C38.8643 128.469 35.7136 128.624 32.5628 128.859ZM43.4364 128.235C43.1896 128.624 42.8815 128.624 42.5717 128.624C42.8815 128.702 43.1896 128.624 43.4364 128.235C47.3906 128.312 51.3448 128 55.3006 127.765C51.3448 128.077 47.3906 128.312 43.4364 128.235ZM276.561 93.9393C272.793 93.4723 269.024 93.5498 265.254 93.5498C268.961 93.5498 272.793 93.3927 276.561 93.9393C276.561 95.6588 276.623 97.2987 276.623 99.0181C276.623 97.2987 276.561 95.5813 276.561 93.9393Z" fill="#EFEAE0"/>
</g>
<path d="M43.4364 128.235C48.6894 128.313 54.0019 127.766 59.2549 127.609C62.5299 127.532 65.8662 127.609 69.1412 127.219C72.5388 126.828 75.9993 127.14 79.3969 126.75C82.6719 126.361 86.0082 126.673 89.2832 126.281C92.6808 125.892 96.1413 126.204 99.5406 125.812C102.877 125.422 106.274 125.735 109.611 125.345C112.824 124.953 115.975 125.265 119.126 124.953C122.587 124.564 126.108 124.876 129.569 124.484C132.473 124.172 135.377 124.407 138.219 124.095C141.803 123.703 145.386 123.938 148.97 123.626C152.307 123.313 155.704 123.548 159.041 123.236C162.748 122.844 166.455 123.156 170.163 122.767C173.685 122.375 177.269 122.767 180.728 122.375C184.868 121.906 188.946 122.298 193.086 121.906C196.979 121.516 200.872 121.906 204.702 121.516C209.398 121.047 214.094 121.516 218.791 121.047C223.795 120.578 228.738 120.813 233.743 120.658C235.164 120.578 236.585 120.111 238.068 120.266C238.5 120.344 238.994 120.111 239.365 120.578C232.568 122.767 225.896 125.422 219.223 128.078C214.156 130.11 208.904 130.344 203.652 130.265C203.097 130.265 202.663 130.032 202.169 129.641C200.811 128.547 199.389 128.47 197.844 128.702C194.136 129.171 190.614 130.813 187.154 132.219C183.448 133.704 179.678 134.874 175.785 134.717C175.291 134.717 174.673 134.64 174.241 134.874C172.573 135.733 170.905 135.186 169.298 134.952C164.726 134.328 160.093 133.624 155.519 132.922C152.925 132.531 150.329 132.296 147.735 131.75C146.004 131.36 144.584 131.907 143.163 133.155C139.826 136.202 136.674 139.562 133.709 143.155C132.534 144.561 131.237 145.499 129.754 146.201C125.058 148.232 120.239 149.325 115.419 150.498C112.082 151.357 108.685 152.138 105.41 153.389C104.668 153.701 103.803 153.858 102.999 153.935C97.995 154.092 93.1148 155.186 88.2942 156.748C83.2285 158.388 78.0385 158.779 72.7856 158.622C70.6851 158.545 68.6459 158.31 66.5454 158.857C65.4951 159.169 64.5061 159.481 63.5801 159.95C60.8601 161.278 58.2659 160.966 55.8556 158.779C53.447 156.591 50.9125 154.639 47.8859 154.247C46.0323 154.013 44.1786 154.482 42.3862 155.028C40.0389 155.732 37.6899 156.513 35.4038 157.607C33.4889 158.465 31.5126 158.934 29.4734 159.169C28.7925 159.246 28.1133 159.091 27.4342 158.934C24.7158 158.465 22.0586 157.919 19.3402 157.529C18.3513 157.372 18.1657 156.825 18.1045 155.732C17.9189 149.17 17.7947 142.529 17.7334 135.968C17.7334 133.936 17.6091 131.907 17.5479 129.798C20.6986 129.016 23.8494 129.251 27.0631 129.094C32.0675 128.782 37.072 128.235 42.1394 128.47C42.5104 128.625 43.0041 128.859 43.4364 128.235Z" fill="#C6B29A"/>
<mask id="mask1_887_4771" style="mask-type:luminance" maskUnits="userSpaceOnUse" x="255" y="33" width="54" height="85">
<path d="M255.006 33.9312H309V117.036H255.006V33.9312Z" fill="white"/>
</mask>
<g mask="url(#mask1_887_4771)">
<path d="M275.573 103.08C276.686 102.768 276.562 101.598 276.562 100.659C276.623 98.3931 276.562 96.2066 276.5 93.9405C276.5 93.4735 276.5 93.0043 276.5 92.5352C276.5 91.754 276.562 90.8953 276.562 90.1141C276.623 82.9262 276.129 75.818 276.253 68.6322C276.315 66.9127 276.253 65.2728 276.19 63.5534C276.19 63.0842 276.19 62.6172 276.19 62.148C276.19 61.3668 276.253 60.5082 276.253 59.727C276.253 53.3203 275.758 46.8361 275.882 40.4316C275.882 39.8054 275.819 39.1037 275.819 38.4775C275.882 37.8534 276.068 37.2272 275.635 36.6806C275.635 35.8219 275.635 34.9632 275.697 34.1024C286.819 34.1024 297.939 34.0249 309 34.0249C308.321 40.2745 308.135 46.7586 306.035 52.6962C305.725 53.5549 305.417 54.179 304.799 54.6481C304.242 55.0398 303.749 55.5864 303.254 56.0534C300.35 58.397 299.732 61.836 300.474 65.8195C300.782 67.3819 300.659 68.6322 299.917 69.96C298.991 71.5999 298.496 73.5519 298.31 75.5059C297.939 80.8968 296.395 85.739 294.666 90.5832C291.699 98.7848 288.795 106.986 286.57 115.579C286.262 116.673 285.891 117.064 284.965 116.907C281.998 116.361 278.972 115.971 276.005 115.345C274.09 114.955 272.175 115.033 270.26 115.033C267.108 115.11 264.018 114.878 260.867 115.502C259.014 115.814 257.221 116.126 255.368 116.44C255.121 116.049 255.368 115.971 255.616 115.814C261.114 112.377 266.49 108.783 272.112 105.581C273.286 104.8 274.584 104.253 275.573 103.08Z" fill="#C6B29A"/>
</g>
<path d="M42.0151 97.8471C42.0151 94.5674 42.2007 91.2855 41.9538 88.0057C41.5828 82.6148 41.8296 77.2239 41.6457 71.9126C41.6457 71.4435 41.6457 70.9764 41.6457 70.5848C41.8296 64.1802 41.2117 57.7735 41.2747 51.369C41.2747 49.3374 41.1504 47.1488 41.0278 45.0398C41.0278 44.5728 41.0278 44.1811 41.0278 43.712C41.2117 39.806 40.5938 35.9796 40.7181 32.1511C40.7794 30.9803 40.5325 30.9007 39.6678 31.2128C39.2967 31.3699 38.9886 31.7615 38.3707 31.6044C38.6788 30.1991 38.9257 28.8692 39.2967 27.4639C40.7181 21.7609 42.1394 16.058 43.5607 10.3571C43.6833 9.73089 43.9931 9.10677 43.8688 8.48056C44.3012 7.69936 44.982 7.46688 45.5999 7.07524C47.0825 6.21655 48.5651 5.20078 50.172 4.57666C50.0478 7.69936 49.7396 10.8242 49.5541 13.9489C49.4299 16.1376 49.0588 18.3241 49.1217 20.5106C49.183 22.2301 48.7507 23.87 48.7507 25.5119C48.7507 26.2931 48.3183 26.4481 47.886 26.6827C46.3404 27.4639 44.7965 28.4022 43.2509 29.1834C41.7683 29.9646 41.7683 29.9646 41.707 32.0736C41.5828 35.9796 42.1394 39.806 42.1394 43.6345C42.1394 44.1036 42.1394 44.5728 42.1394 44.9623C41.8926 46.9164 42.4475 48.8683 42.4475 50.8202C42.3249 57.384 42.9428 63.8661 42.8815 70.4277C42.8815 70.8968 42.8815 71.366 42.8815 71.7576C43.0041 80.4283 43.1283 89.0215 43.2509 97.6921C43.2509 98.1613 43.2509 98.6283 43.2509 99.0975C43.2509 102.457 43.1283 105.739 43.4365 109.096C43.6833 111.754 43.4978 114.487 43.4978 117.222C43.4978 120.894 43.4978 124.485 43.4978 128.157C43.0654 128.783 42.5717 128.471 42.0781 128.471C42.1394 128.079 42.2007 127.767 42.1394 127.376C42.1394 117.924 42.0781 108.472 42.0781 99.02C42.0151 98.7079 42.0151 98.3163 42.0151 97.8471Z" fill="#83AA7E"/>
<path d="M7.35346 29.2603C8.77478 28.8687 10.0089 27.855 11.3689 27.2288C12.1111 26.8392 12.7903 26.2926 13.5324 25.9009C14.0261 25.6664 14.5197 24.8852 15.0763 25.5114C15.5087 26.058 15.0763 26.7596 14.9521 27.3859C13.4082 34.1821 11.8626 40.9783 10.38 47.852C10.0719 49.1023 9.6395 50.1181 8.5263 50.5076C7.9084 50.7422 7.29051 50.9768 6.85815 51.6805C5.93214 51.9926 5.00447 52.3046 4.07846 52.6963C4.01551 52.3821 3.76868 52.1496 3.76868 51.9151C3.70739 47.2279 3.58315 42.5407 3.89292 37.8535C4.01551 35.822 4.07846 33.7904 4.01551 31.761C4.44952 31.0573 5.12871 30.9002 5.7466 30.5106C6.3032 30.1986 6.9211 29.964 7.35346 29.2603Z" fill="#83AA7E"/>
<path d="M42.7573 8.94971C42.9428 10.2775 42.4475 11.3729 42.2007 12.5436C40.6568 18.6361 39.0499 24.7308 37.7528 30.9803C37.5043 32.0736 37.1349 32.9323 36.146 33.3239C35.0344 33.791 34.0455 34.8067 32.6854 35.1984C32.871 30.4316 32.5628 25.824 32.9952 21.2143C33.1807 19.0278 33.0565 16.8392 33.0565 14.6527C36.146 12.4661 39.358 10.5121 42.7573 8.94971Z" fill="#83AA7E"/>
<path d="M32.3144 15.0439C32.3144 20.9794 31.7594 26.8394 31.9449 32.7748C31.9449 33.6356 31.7594 34.4943 31.6965 35.353C31.6352 35.8221 31.4496 36.1342 31.1415 36.3688C28.4844 38.0087 25.8886 39.7281 23.2315 41.368C22.7991 40.5868 22.9847 40.0402 23.1702 39.4161C24.7158 32.7748 26.1984 26.1357 27.7423 19.417C27.9891 18.4012 28.2989 17.465 28.6699 16.6063C29.967 16.5268 31.0173 15.2764 32.3144 15.0439Z" fill="#83AA7E"/>
<mask id="mask2_887_4771" style="mask-type:luminance" maskUnits="userSpaceOnUse" x="49" y="0" width="9" height="26">
<path d="M49.3289 0H57.8104V25.3523H49.3289V0Z" fill="white"/>
</mask>
<g mask="url(#mask2_887_4771)">
<path d="M57.7722 0.121094C56.7833 4.80828 55.7943 9.41798 54.8053 14.1052C54.3117 16.5263 53.7551 18.8699 53.2614 21.2909C52.7661 23.7141 51.8401 24.7299 49.5541 25.1194C49.8009 20.9789 49.9864 16.8383 50.3575 12.6999C50.6043 9.88712 50.6656 6.9969 50.7899 4.18416C53.0146 2.62177 55.3007 1.05937 57.7722 0.121094Z" fill="#83AA7E"/>
</g>
<path d="M59.4405 15.1221C59.4405 15.1996 59.4405 15.2771 59.4405 15.3567C59.9341 18.4019 58.637 19.8868 56.5978 20.9026C55.9799 21.2146 55.362 21.7613 54.7441 22.0733C54.1262 22.3875 53.8794 22.0733 54.002 21.2921C54.1875 20.2784 54.3731 19.3402 54.6199 18.3244C55.9186 12.6214 56.9689 6.7635 58.4515 1.06055C59.5017 1.84175 59.9954 2.935 59.3775 4.57699C59.1307 5.2786 58.9451 6.13729 59.192 6.91849C59.9341 9.65373 59.7486 12.3869 59.4405 15.1221Z" fill="#83AA7E"/>
<mask id="mask3_887_4771" style="mask-type:luminance" maskUnits="userSpaceOnUse" x="0" y="31" width="4" height="20">
<path d="M0 31.7861H3.52846V50.5516H0V31.7861Z" fill="white"/>
</mask>
<g mask="url(#mask3_887_4771)">
<path d="M2.41028 50.2724C2.10051 47.7739 1.66815 45.2732 0.432359 43.0867C0.0612909 42.4605 0.0612908 41.6018 0.185532 40.7431C0.432358 38.6341 0.864719 36.6025 0.679185 34.416C0.617893 33.7123 0.864719 33.3227 1.36003 33.0882C1.97792 32.774 2.53287 32.462 3.08947 32.1499C3.64607 32.774 3.46054 33.6348 3.46054 34.416C3.46054 37.8529 2.96523 41.2122 3.08947 44.6491C3.15076 45.5853 3.08947 46.5235 3.08947 47.4618C3.02818 48.4755 2.96523 49.4912 2.41028 50.2724Z" fill="#83AA7E"/>
</g>
<path d="M16.9912 45.0392C17.301 42.2285 17.6091 39.4158 17.8559 36.6031C18.1657 33.9474 18.4125 31.2918 18.7223 28.6361C18.8449 27.1512 18.9691 25.5888 19.1547 24.1039C19.2773 23.1677 19.4628 22.3069 20.3275 21.8399C22.2441 20.8241 24.0978 19.6513 26.0128 18.558C26.3209 18.401 26.6307 18.0889 26.9388 18.558C27.1873 18.8701 27.0018 19.2617 26.9388 19.5738C25.3949 26.37 23.788 33.2437 22.3054 40.1195C21.9344 41.8369 21.2552 42.9302 19.9581 43.5564C19.3402 43.8684 18.7223 44.258 18.0415 44.6496C17.7333 44.8046 17.3623 44.8842 16.9912 45.0392Z" fill="#83AA7E"/>
<path d="M18.29 23.3228C18.5981 25.5889 18.1044 27.6204 17.9189 29.7294C17.5478 33.87 17.0542 37.931 16.6202 42.0715C16.4976 43.1648 16.3733 44.258 16.2507 45.2738C16.1878 45.6654 16.0652 45.9775 15.8184 46.1346C14.2115 47.0708 12.6047 48.009 10.6897 49.1023C11.4302 45.8204 12.0481 43.0098 12.666 40.1196C13.7162 35.5099 14.8294 30.9002 15.8184 26.213C16.1878 24.3385 16.2507 24.0265 18.29 23.3228Z" fill="#83AA7E"/>
<path d="M275.572 103.08C274.583 104.252 273.286 104.799 272.112 105.503C266.552 108.705 261.114 112.376 255.616 115.736C255.43 115.891 255.121 115.97 255.367 116.36C253.515 117.064 251.846 118.314 250.116 119.33C249.56 119.642 249.066 120.188 248.387 120.188C248.387 117.064 248.201 113.861 248.448 110.737C248.634 108.313 248.572 105.815 249.005 103.394C249.19 102.533 249.498 102.221 250.177 102.221C254.688 102.221 259.199 101.909 263.71 102.298C267.107 102.612 270.507 102.455 273.904 102.612C274.522 102.69 275.14 102.455 275.572 103.08Z" fill="#D8D0C3"/>
<path d="M41.6458 70.5068C41.6458 70.976 41.6458 71.443 41.6458 71.8347C36.7026 71.6776 31.6965 72.1467 26.7534 72.3813C22.3668 72.6934 18.0415 72.6159 13.655 72.7708C11.3077 72.8504 8.95868 73.4746 6.55005 73.24C6.55005 72.7708 6.55005 72.3813 6.55005 71.9122C9.70081 71.9122 12.9145 72.1467 16.0653 71.8347C19.8952 71.5226 23.6655 71.7572 27.4955 71.3655C30.1526 71.131 32.8097 71.3655 35.4668 70.976C37.506 70.6618 39.6065 70.6618 41.6458 70.5068Z" fill="#D8D0C3"/>
<path d="M42.0152 97.8467C42.0152 98.3158 42.0152 98.7075 42.0152 99.1745C37.7529 99.8007 33.4889 99.2541 29.2249 99.6436C21.6876 100.347 14.0874 99.8007 6.55005 99.9557C6.55005 99.6436 6.55005 99.4091 6.55005 99.097C6.61134 99.097 6.67263 99.097 6.73558 99.097C14.5197 99.4091 22.3055 98.6279 30.0913 98.5504C33.4889 98.4729 36.8881 98.3158 40.2857 98.2383C40.9649 98.3158 41.4602 97.9263 42.0152 97.8467Z" fill="#D8D0C3"/>
<path d="M42.0781 45.0389C42.0781 44.5719 42.0781 44.1027 42.0781 43.7111C45.4144 43.087 48.7507 43.6336 52.087 42.8524C52.2113 42.8524 52.3338 42.8524 52.4581 42.8524C55.9186 43.1645 59.3775 42.6178 62.838 42.3058C65.9888 41.9937 69.2025 42.4608 72.3533 41.6021C72.4775 41.6021 72.6001 41.6021 72.7243 41.6021C76.6172 41.9141 80.4472 41.2125 84.3401 41.0554C87.3683 40.8984 90.4577 41.0554 93.4842 40.5863C95.8332 40.2742 98.1193 40.5088 100.405 40.1968C103.617 39.8051 106.892 40.1193 110.106 39.7276C112.947 39.3381 115.79 39.7276 118.571 39.3381C122.34 38.8689 126.108 39.3381 129.816 38.8689C133.523 38.3998 137.23 38.9464 140.877 38.4773C145.757 37.9306 150.639 38.5569 155.458 38.0081C160.586 37.4615 165.652 38.0081 170.719 37.6186C180.296 36.9149 189.935 37.6186 199.575 37.1495C212.241 36.5253 224.968 36.9149 237.636 36.8374C250.302 36.6803 263.031 36.8374 275.697 36.8374C276.129 37.384 275.944 38.0081 275.882 38.6344C275.758 38.6344 275.635 38.6344 275.511 38.6344C262.413 38.6344 249.313 38.4773 236.153 38.6344C222.992 38.7893 209.831 38.2427 196.669 38.9464C188.082 39.4156 179.431 38.7118 170.781 39.4156C165.034 39.8847 159.226 39.181 153.418 39.8051C148.785 40.2742 144.15 39.6501 139.517 40.2742C135.748 40.7434 131.916 40.1968 128.086 40.7434C124.626 41.2125 121.165 40.6659 117.705 41.2125C114.617 41.6796 111.464 41.2125 108.375 41.6796C105.41 42.1487 102.382 41.6021 99.3551 42.1487C96.7593 42.5403 94.0409 42.1487 91.3837 42.6178C88.604 43.0095 85.7614 42.6178 82.9188 43.087C80.4472 43.4765 77.9756 43.087 75.504 43.4765C73.0325 43.8682 70.5609 43.5561 68.0893 43.9457C65.6807 44.3373 63.2704 43.9457 60.7988 44.4148C58.5128 44.8044 56.1654 44.7269 53.8794 44.8044C49.9252 44.5719 46.0323 45.2735 42.0781 45.0389Z" fill="#D8D0C3"/>
<path d="M43.1896 99.1743C43.1896 98.7073 43.1896 98.2382 43.1896 97.769C45.8467 97.769 48.5038 97.769 51.1609 97.457C54.0019 97.0653 56.9058 97.457 59.8098 97.0653C62.8992 96.5983 66.0517 97.0653 69.1411 96.5983C71.9208 96.2066 74.7635 96.5983 77.6044 96.2066C80.51 95.7375 83.4753 96.2066 86.4405 95.7375C89.1589 95.3479 91.9402 95.7375 94.7199 95.2704C97.5626 94.8788 100.467 95.2704 103.37 94.8013C106.274 94.4097 109.241 94.8013 112.207 94.3322C115.172 93.9405 118.2 94.3322 121.228 93.863C124.193 93.3939 127.221 93.863 130.248 93.3939C133.523 92.9268 136.798 93.3939 140.134 92.9268C143.471 92.4577 146.807 92.9268 150.206 92.4577C153.789 91.9886 157.497 92.4577 161.143 91.9886C165.652 91.5194 170.163 91.9111 174.673 91.599C181.717 91.1299 188.824 91.2074 195.867 91.2074C213.97 91.1299 232.012 90.5833 250.116 91.5194C254.874 91.754 259.57 91.4419 264.328 91.8315C268.406 92.1457 272.546 92.3781 276.623 92.3781C276.623 92.8473 276.623 93.3164 276.623 93.7855C271.618 93.1593 266.552 93.551 261.546 93.2389C248.756 92.3781 235.905 93.0043 223.114 92.8473C210.326 92.6923 197.597 92.5352 184.807 92.9268C178.937 93.0818 173.13 92.7698 167.259 93.3164C163.18 93.708 159.165 93.2389 155.149 93.708C151.627 94.1751 148.043 93.708 144.584 94.1751C141.309 94.6442 137.973 94.1751 134.698 94.6442C131.361 95.1134 127.962 94.6442 124.626 95.1134C121.66 95.5029 118.694 95.1134 115.79 95.5029C112.7 95.9721 109.674 95.5029 106.584 95.9721C103.556 96.3637 100.528 95.9721 97.5626 96.4412C94.5344 96.9103 91.5079 96.4412 88.541 96.9103C85.4515 97.3795 82.3637 96.9103 79.3355 97.3795C76.3703 97.769 73.4034 97.3795 70.4995 97.769C67.2245 98.2382 63.8882 97.769 60.6132 98.2382C57.3382 98.7073 54.1261 98.2382 50.9124 98.7073C48.3796 99.1743 45.7854 99.0968 43.1896 99.1743Z" fill="#D8D0C3"/>
<path d="M42.7573 70.5064C45.3515 69.9597 47.9473 70.3493 50.5431 70.0372C53.1373 69.6477 55.7331 69.9597 58.3273 69.5681C60.7376 69.1785 63.2091 69.4906 65.6194 69.0989C68.2136 68.7094 70.8094 69.0215 73.4035 68.6319C75.7525 68.2403 78.1612 68.5523 80.5102 68.2403C83.043 67.8507 85.6372 68.1628 88.1088 67.7711C90.519 67.3816 92.9906 67.6936 95.4009 67.3816C98.1806 66.9899 100.96 67.3041 103.68 66.9124C106.275 66.5229 108.87 66.9124 111.464 66.5229C114.307 66.1312 117.15 66.4433 119.929 66.0537C122.711 65.6621 125.491 66.0537 128.209 65.5846C131.113 65.1155 134.017 65.5846 136.859 65.1155C140.073 64.6463 143.224 65.1155 146.375 64.6463C149.774 64.1793 153.233 64.6463 156.571 64.1793C160.462 63.6306 164.355 64.2568 168.186 63.7101C172.387 63.1635 176.651 63.7876 180.852 63.3185C186.104 62.6944 191.418 63.3981 196.608 62.8515C203.097 62.2252 209.584 62.7719 216.071 62.4598C236.09 61.5215 256.171 62.3027 276.19 61.9907C276.19 62.4598 276.19 62.9289 276.19 63.3981C261.671 63.3981 247.212 63.0839 232.693 63.4756C225.217 63.7101 217.739 63.3185 210.326 63.8651C204.208 64.3343 198.029 63.7876 191.912 64.3343C187.278 64.7259 182.645 64.2568 178.01 64.7259C173.685 65.193 169.298 64.6463 165.034 65.193C161.451 65.5846 157.868 65.193 154.283 65.6621C150.761 66.1312 147.239 65.6621 143.718 66.1312C140.691 66.5229 137.663 66.1312 134.698 66.6004C131.731 66.9899 128.766 66.6004 125.862 67.0695C123.019 67.4591 120.176 67.0695 117.397 67.4591C114.617 67.8507 111.836 67.5366 109.117 67.9282C106.46 68.3178 103.803 67.9282 101.146 68.3177C98.3048 68.7094 95.4622 68.3973 92.6808 68.7869C90.3335 69.0989 87.9232 68.8665 85.5759 69.1785C82.7962 69.5681 80.0148 69.256 77.2964 69.6477C75.0104 69.9597 72.7857 69.7252 70.5609 70.0372C67.5957 70.4268 64.6304 70.1943 61.7265 70.5064C59.3775 70.8184 56.9689 70.5839 54.6199 70.8959C51.5934 71.3651 48.6265 71.208 45.6 71.2876C44.611 71.3651 43.6833 71.8342 42.696 71.6771C42.7573 71.4425 42.7573 70.9755 42.7573 70.5064Z" fill="#D8D0C3"/>
<path d="M16.9912 45.0393C17.3623 44.8843 17.7333 44.8047 18.0414 44.6497C19.7096 45.4309 21.4407 45.0393 23.1701 44.8843C23.5412 44.8843 23.8493 44.6497 24.1591 44.6497C27.6196 44.8843 31.0785 44.1031 34.539 44.2581C36.7025 44.3376 38.803 43.6339 40.9035 43.791C40.9035 44.2581 40.9035 44.6497 40.9035 45.1188C39.1741 45.6655 37.3817 45.4309 35.5893 45.5859C31.6351 45.8205 27.6809 45.9 23.7267 46.1346C21.6875 46.2121 19.587 46.3671 17.5478 46.4467C16.6831 46.3671 16.6201 45.9 16.9912 45.0393Z" fill="#D8D0C3"/>
</svg>
