<svg width="88" height="36" viewBox="0 0 88 36" fill="none" xmlns="http://www.w3.org/2000/svg">
<path d="M0.158355 3.49056C0.161901 3.64937 0.161737 4.28362 0.163046 4.89634C0.164355 5.50907 0.197141 6.71497 0.232464 7.56787C0.267787 8.42077 0.343153 10.1629 0.393042 11.4349C0.53649 14.7097 0.594944 16.2777 0.608336 16.8192C0.612182 17.0789 0.629503 17.563 0.649469 17.9031C0.662262 18.2428 0.692102 19.4917 0.704349 20.6818C0.781731 25.3431 0.785521 26.4461 0.750986 29.4781C0.712059 33.1008 0.746918 34.4871 0.896806 34.9298C1.28553 36.0952 2.79058 36.2198 3.44059 35.1471C3.58691 34.9049 3.61206 34.748 3.66773 33.8293C3.77141 31.9985 3.82368 27.8649 3.75502 26.6566C3.72109 26.0993 3.74992 23.0453 3.79264 22.4211L3.83634 21.7827L4.22954 22.0402C5.26389 22.7236 6.33727 23.7845 10.1216 27.8851C12.5574 30.524 13.7701 31.7602 15.6277 33.473C16.7461 34.5082 17.0324 34.6431 17.6307 34.4317C18.1629 34.2375 18.4498 33.731 18.3365 33.1755C18.2621 32.7884 18.0472 32.5575 17.2232 31.9605C15.7394 30.8932 14.0259 29.392 12.6065 27.9111C12.1629 27.441 10.8024 25.9425 9.59179 24.5695C7.54535 22.2455 6.60484 21.2442 6.10048 20.8205C5.99159 20.7265 5.91091 20.6417 5.93341 20.6288C5.9564 20.6088 6.58681 20.3492 7.34358 20.0334C10.8512 18.5942 12.9033 16.9399 14.4376 14.3205C15.3189 12.8168 15.7931 11.3645 15.8952 9.87234C16.0602 7.46191 15.3224 5.71044 13.7546 4.81752C13.2137 4.50662 13.1009 4.47007 12.4648 4.3905C11.8642 4.32056 11.6834 4.32981 11.1273 4.45032C9.69996 4.77066 8.34581 5.60054 7.03375 6.97386C5.43466 8.64467 4.30963 10.5497 3.46344 13.0144C3.11296 14.0283 3.13527 14.1236 3.10516 11.4043C3.08066 9.02412 2.99897 6.53194 2.89404 5.01118C2.8783 4.7146 2.83345 4.1061 2.80552 3.67174C2.72105 2.48393 2.57771 1.31371 2.47814 1.08346C2.34664 0.793369 2.02763 0.504858 1.72977 0.434019C1.53184 0.377228 1.3864 0.396104 1.12648 0.508049C0.696154 0.687614 0.531263 0.885346 0.403633 1.38114C0.287105 1.82003 0.145263 3.05001 0.158355 3.49056ZM4.21888 17.2465C4.57667 15.0727 5.15795 13.1088 5.92469 11.4891C7.22095 8.76693 9.42853 6.52513 11.3231 6.01333C11.9107 5.85174 12.6845 5.91911 13.1069 6.17145C14.0903 6.75769 14.5773 8.06676 14.4585 9.80284C14.3627 11.2017 13.9789 12.3863 13.2133 13.6745C12.6352 14.644 12.1098 15.2639 11.1441 16.106C9.8482 17.2426 8.42152 17.9738 6.60165 18.4475C5.81686 18.646 4.43123 18.8827 4.1371 18.8626C4.01514 18.8542 4.04136 18.3659 4.21888 17.2465Z" fill="black"/>
<path d="M18.659 23.0927C19.0064 24.6516 20.1684 26.2087 21.6028 27.0493L22.1709 27.3836L22.2074 28.1141C22.3106 30.0816 22.847 31.6175 23.8098 32.714C25.0194 34.1014 26.5532 34.437 28.2765 33.69C29.1089 33.3218 30.2045 32.3733 31.0205 31.2976C31.7569 30.3317 32.144 29.7311 33.8207 26.9269C35.2532 24.5311 35.7606 23.7514 36.5459 22.7024C37.1318 21.9353 37.9854 20.9414 38.0255 20.9874C38.0389 21.0027 37.8981 21.3751 37.7027 21.8086C37.1974 22.9776 36.4472 24.9876 36.1662 25.9342C35.3343 28.717 35.4354 30.5042 36.4908 31.7224C36.8383 32.121 36.9759 32.2169 37.3759 32.374C38.0012 32.6114 38.4244 32.6404 39.0705 32.4684C40.3994 32.1125 41.7791 30.9095 43.0184 29.0195C43.7752 27.8604 44.4006 26.6203 45.4519 24.2129C46.0768 22.7709 46.5148 21.7414 46.5926 21.5521C46.6282 21.4536 46.5437 23.0047 46.4 24.9985C46.1778 28.1402 46.1524 28.7223 46.2158 29.3753C46.3986 31.2329 46.8154 32.1984 47.6544 32.6811C49.1233 33.5456 50.7732 32.0801 52.5822 28.2902C52.7665 27.9136 52.9163 27.6212 52.923 27.6288C52.9296 27.6365 52.9535 27.9192 52.9807 28.2598C53.1258 30.5618 54.3413 32.1801 56.2447 32.5915C58.872 33.1677 61.6137 31.0202 64.4999 26.1292C65.552 24.3417 66.4899 22.5391 68.4259 18.5778C69.5065 16.3742 69.5653 16.1475 69.229 15.584C69.0092 15.2157 68.54 14.9097 68.167 14.8842C67.8006 14.8663 67.3478 15.0588 67.0679 15.3568C66.8738 15.5597 66.7725 15.7762 66.5767 16.4259C65.2213 20.9603 63.7411 24.3691 62.1366 26.645C60.8592 28.4603 59.3527 29.9356 58.3202 30.3839C57.3465 30.8146 56.4824 30.6978 55.9201 30.0683C55.3845 29.4694 55.1541 28.3077 55.3288 27.1232C55.794 24.0126 57.6628 19.6646 59.6419 17.0756C60.2038 16.3429 61.2429 15.3761 61.6441 15.2018C61.793 15.1327 62.1853 15.0875 62.6397 15.0825C63.2524 15.0812 63.4567 15.0447 63.7765 14.9009C64.7736 14.443 65.0191 13.2777 64.2907 12.4423C63.5957 11.6451 62.1438 11.4809 60.8504 12.0554C58.6656 13.0159 55.848 17.0106 52.8218 23.4199C52.5433 24.0135 52.1045 24.9493 51.8443 25.4865C50.8826 27.5324 50.1447 28.8369 49.4097 29.7813C49.0219 30.2881 48.8293 30.4695 48.7783 30.3723C48.7211 30.2603 48.5232 29.3602 48.4688 28.9961C48.2392 27.402 48.3563 24.7432 48.9046 19.2598C49.0823 17.5061 49.2103 15.9508 49.1919 15.7982C49.1273 15.2677 48.4688 14.6748 47.8949 14.6355C47.7658 14.6267 47.5538 14.6699 47.4202 14.7256C47.19 14.8251 47.1756 14.8242 46.726 14.5483C46.4699 14.3939 46.0928 14.2167 45.8811 14.1518C45.1257 13.9199 44.0703 14.0711 43.1367 14.5477C42.5694 14.8332 41.5228 15.6986 40.9519 16.3514C40.6155 16.7392 40.3329 16.9722 39.9125 17.2173C39.1694 17.6493 37.9991 18.6359 37.1662 19.5375C35.7726 21.0494 34.6716 22.6029 32.4333 26.2409C30.3893 29.5678 29.5714 30.6722 28.564 31.4898C28.0065 31.949 27.3449 32.2424 26.8163 32.2783C26.092 32.3297 25.3697 31.8262 24.848 30.9184C24.4165 30.1681 24.1151 29.0951 24.0676 28.1045L24.0519 27.8079L24.4284 27.7832C26.4911 27.6577 28.5516 26.0905 30.093 23.4716C30.9978 21.9407 31.7477 20.1469 32.2608 18.3369C32.5654 17.255 32.6695 15.7341 32.5012 14.9298C32.2606 13.8106 31.7818 13.0138 31.0833 12.584C30.5921 12.2837 30.3946 12.2197 29.8207 12.1804C29.0675 12.1289 28.2501 12.3829 27.4197 12.9315C25.3049 14.3436 23.6721 17.7707 22.7281 22.8234C22.6065 23.4421 22.4907 23.9748 22.4606 23.9943C22.3609 24.0812 21.4881 22.9331 21.0127 22.0861C20.5297 21.2458 20.342 21.0384 19.918 20.9157C19.5857 20.8209 19.0889 21.0247 18.8578 21.3476C18.6027 21.705 18.5152 22.4558 18.659 23.0927ZM24.6988 22.2519C25.3786 19.4803 26.2208 17.3901 27.1807 16.108C27.8869 15.1617 28.8476 14.4995 29.4502 14.5408C29.6582 14.555 29.727 14.603 29.829 14.7973C30.5184 16.0986 29.8582 19.1094 28.3076 21.7566C27.3111 23.4686 25.6772 24.8055 24.4884 24.9043L24.1914 24.9272L24.2984 24.2066C24.3541 23.814 24.5369 22.9328 24.6988 22.2519ZM38.0214 27.3657C38.3187 25.8653 38.8401 24.2505 39.5571 22.6202C40.153 21.2843 41.6914 18.8166 42.2274 18.3559C42.3965 18.2017 42.8876 18.293 43.3946 18.5728C43.6722 18.7287 44.6752 19.5541 45.1074 19.9801C45.1613 20.0343 44.2805 22.5831 43.8492 23.6203C43.1935 25.1971 42.0327 27.3087 41.232 28.3711C40.4151 29.4612 39.1797 30.4505 38.6321 30.4491C38.2571 30.4523 38.2016 30.4196 38.0402 30.041C37.7739 29.4029 37.7681 28.6457 38.0214 27.3657ZM44.8917 16.7076C45.0265 16.7384 45.2354 16.8464 45.3576 16.9557C45.6021 17.1742 45.8903 17.5976 45.829 17.651C45.806 17.6711 45.5756 17.5616 45.3195 17.4071C45.0562 17.2522 44.715 17.0775 44.5606 17.0165C44.4062 16.9554 44.2523 16.8872 44.2179 16.8633C44.1009 16.7832 44.6646 16.656 44.8917 16.7076Z" fill="black"/>
<path d="M57.032 8.97606C57.1918 9.27529 57.4635 9.51733 57.7799 9.63268C59.2493 10.1729 61.9721 10.0926 68.2939 9.34322C68.7297 9.29377 69.5363 9.19762 70.0736 9.14069C70.6113 9.07659 71.2796 8.99981 71.5634 8.96156C71.8404 8.91566 72.0724 8.8955 72.0863 8.90365C72.0925 8.91849 71.9628 9.7601 71.7998 10.7724C71.3535 13.5023 70.5124 18.7351 70.4141 19.4347C70.3695 19.7704 70.2795 20.348 70.2181 20.7186C69.8073 23.1411 69.6518 25.8332 69.838 27.4316C70.1851 30.4681 71.4814 32.5893 73.3702 33.2159C74.6173 33.6328 76.1563 33.2625 77.8692 32.14C79.0693 31.35 79.7361 30.7686 79.8621 30.4025C80.1246 29.6204 79.4783 28.8482 78.6626 28.9726C78.4951 28.9971 78.1536 29.2477 77.4561 29.8558C76.2221 30.9317 75.3632 31.3703 74.5736 31.3234C73.3822 31.2491 72.3879 29.5594 72.1128 27.1549C72.007 26.1746 72.1392 23.6106 72.4069 21.8054C72.6258 20.2924 73.4233 16.1162 74.1619 12.5918C74.2815 12.0018 74.4547 11.1559 74.5431 10.7079C74.8428 9.1716 74.9533 8.60977 74.9615 8.59592C74.9763 8.58972 76.3751 8.47644 77.8016 8.37947C79.3157 8.26687 83.8157 8.01988 84.8561 7.98298C85.4344 7.95769 86.041 7.94155 86.2003 7.93083C86.8944 7.89905 87.5278 7.27931 87.5606 6.58964C87.5976 5.94349 87.0879 5.28156 86.442 5.13644C86.2005 5.08388 85.4189 5.13129 83.3871 5.33098C80.8119 5.57276 79.7747 5.66755 77.5411 5.86785C76.4824 5.96116 75.8151 6.0236 75.5457 6.06282L75.3644 6.07924L75.4957 4.05571C75.5965 2.47697 75.6148 1.89441 75.551 1.45759C75.4211 0.511726 75.0832 0.0777731 74.4447 0.0340746C73.7919 -0.0106059 73.3491 0.456406 73.1312 1.42892C73.069 1.70575 72.8999 2.91225 72.761 4.09919C72.6217 5.2933 72.497 6.2722 72.4822 6.27839C72.4745 6.28507 71.9315 6.31999 71.2723 6.36857C69.9185 6.4561 68.8895 6.53703 66.598 6.74057C65.039 6.87892 62.4667 7.07766 61.453 7.14522C61.1708 7.16194 60.4327 7.20512 59.8026 7.24849C58.4417 7.33553 57.8441 7.43158 57.4845 7.6304C56.9976 7.89979 56.7899 8.51262 57.032 8.97606Z" fill="black"/>
</svg>
