<svg width="92" height="27" viewBox="0 0 92 27" fill="none" xmlns="http://www.w3.org/2000/svg">
<path d="M0.644663 6.55495C1.00804 8.43044 1.76274 12.8946 2.32178 16.4607C3.60758 24.7815 3.74734 25.4419 4.36228 26.2344C5.08903 27.1853 6.6823 27.2646 7.60471 26.3928C8.47123 25.574 8.49918 24.8079 7.74447 20.5551C7.46495 18.8381 7.24134 17.3588 7.29724 17.3324C7.32519 17.2796 8.10785 17.8871 9.03027 18.6532C13.6983 22.6155 18.5899 25.9702 19.68 25.9702C20.4347 25.9702 22 24.6494 22 24.0155C22 23.0645 21.1894 22.14 19.093 20.74C16.5214 19.023 13.9778 17.0947 12.3007 15.589L11.1267 14.5324L12.7199 13.6343C15.0679 12.3399 16.8568 10.4116 17.4159 8.61534C18.2544 5.89457 17.0804 2.96247 14.425 1.16623C11.5459 -0.81492 7.63267 -0.233783 4.97722 2.61907C4.36228 3.30587 3.83119 3.96625 3.83119 4.07191C3.83119 4.20399 3.71938 4.30965 3.57962 4.30965C3.43986 4.30965 3.10444 3.75493 2.88082 3.04171C2.18202 1.06057 1.39937 0.0303697 0.672615 0.136031C0.141527 0.215277 0.0576708 0.373769 0.00176681 1.66812C-0.0261852 2.46058 0.281287 4.65305 0.644663 6.55495ZM7.04567 7.53232C7.29724 6.76627 7.88423 5.76249 8.41532 5.23419C9.19798 4.46814 9.5334 4.30965 10.5117 4.30965C12.1329 4.30965 13.0554 5.18135 13.0554 6.76627C13.0554 8.24553 12.105 9.14365 8.91846 10.6229L6.62639 11.7059V10.3059C6.62639 9.53988 6.82206 8.29836 7.04567 7.53232Z" fill="black"/>
<path d="M23.24 5.06766C23.3467 5.28225 23.9333 5.49684 24.5466 5.57732L25.64 5.71144L25.72 13.9465C25.8 22.1279 25.8 22.1547 26.4666 23.335C27.4533 25.1054 28.5199 25.5346 32.5732 25.8565C36.3064 26.1515 37.6931 26.0174 38.4931 25.2127C39.3464 24.3543 39.0797 22.3693 38.0131 21.8596C37.7464 21.7524 35.8798 21.5646 33.8798 21.4841C31.8799 21.4036 30.1732 21.2695 30.0665 21.1622C29.9066 21.0013 29.3999 14.7512 29.5332 14.5903C29.5332 14.5366 30.6799 14.3489 32.0132 14.1611C34.7065 13.7587 35.5331 13.2759 35.5331 12.0956C35.5331 10.5666 34.1731 10.2984 31.3465 11.2909C30.4132 11.6128 29.5599 11.8005 29.4532 11.7201C29.3199 11.6396 29.1332 10.6203 29.0266 9.49366C28.9199 8.34022 28.7332 6.97218 28.6266 6.43569L28.4132 5.4432L29.9066 5.28225C30.7332 5.20178 32.5465 5.06766 33.9331 4.96036C37.8531 4.71894 38.7331 4.28975 38.7331 2.62665C38.7331 1.90239 38.0931 1.25861 37.1598 1.01719C36.6531 0.88307 32.1198 1.55368 28.3866 2.33158C27.7199 2.4657 27.5333 2.41205 27.5333 2.09016C27.5333 1.84874 27.2933 1.52685 26.9733 1.36591C26.2799 0.990367 25.8 1.36591 25.5866 2.41205C25.48 2.97536 25.2133 3.24361 24.68 3.37773C23.96 3.53867 23 4.2361 23 4.55799C23 4.63847 23.1067 4.87989 23.24 5.06766Z" fill="black"/>
<path d="M40.1008 24.8472C40.37 25.897 41.0969 26.317 41.6623 25.7396C42.093 25.3196 42.3892 24.0861 43.5199 17.8658L43.9776 15.3199L47.0197 15.4774C49.6042 15.6086 50.1965 15.5561 50.7619 15.2149C51.408 14.795 51.4619 14.795 51.6772 15.2412C52.0272 15.9236 53.2118 19.3093 54.1271 22.2751C54.5848 23.7186 55.1502 25.0834 55.4194 25.3196C56.8732 26.5794 58.9731 25.7396 59 23.8761C59 22.2751 55.3925 12.6953 53.1579 8.36472C51.3811 4.92649 48.8235 1.85571 47.2082 1.19956C46.0775 0.727134 44.7314 1.12082 43.9237 2.09193C42.4699 3.92915 40.3162 14.3751 40.047 21.1203C39.9662 22.7475 39.9931 24.4273 40.1008 24.8472ZM45.7006 8.75841C46.0775 7.52485 46.4813 6.39627 46.589 6.29128C46.8582 6.02882 48.3389 8.181 49.5504 10.4906C50.0081 11.383 50.385 12.1704 50.385 12.2229C50.385 12.3016 49.3889 12.4328 48.1505 12.5116C46.939 12.6166 45.6467 12.774 45.2967 12.8528C44.6775 13.0103 44.6775 12.9578 44.8391 12.0129C44.9468 11.4617 45.3506 10.0182 45.7006 8.75841Z" fill="black"/>
<path d="M60.2071 16.7831C60.8958 20.8657 64.8235 25 68.0371 25C70.1796 25 72.424 23.3463 74.2604 20.4006C74.6684 19.7546 75 18.9019 75 18.5143C75 17.4807 74.1073 16.473 73.1891 16.473C72.0669 16.473 71.5823 16.8089 70.6642 18.2817C69.5674 20.013 68.4707 20.9432 67.7566 20.7107C66.7109 20.3747 65.3336 19.0311 64.696 17.7133C64.1859 16.6797 64.0329 15.982 64.0329 14.6642C64.0329 11.3309 65.7417 6.36976 67.374 5.00027C68.8788 3.7083 70.7407 4.40596 72.22 6.80903C72.6535 7.53254 72.9086 7.68757 73.4442 7.63589C73.9543 7.58421 74.1328 7.40334 74.1838 6.80903C74.3879 5.02611 72.628 2.41633 70.5621 1.46027C69.1594 0.81428 67.9861 0.84012 66.4558 1.58946C63.5993 2.93311 61.3804 6.86071 60.3346 12.442C59.9266 14.6125 59.9011 14.9485 60.2071 16.7831Z" fill="black"/>
<path d="M76.388 4.42172C76.6067 4.57691 77.3173 4.78384 77.9459 4.86144C79.8044 5.06837 79.7497 4.99077 79.3671 6.80138C78.4652 10.8623 78.7931 22.2153 79.8317 23.8707C80.7336 25.3709 82.6194 25.4226 83.6033 24C83.986 23.4309 83.8766 21.8036 83.6033 17.5875C83.2754 12.7247 83.412 8.12054 83.904 6.90485C84.1499 6.30993 84.3139 6.23233 85.5985 6.23233C86.3911 6.20647 87.8942 6.103 88.9601 5.97367C90.518 5.79261 90.9826 5.61155 91.5019 5.0425C92.2398 4.24066 92.1578 3.33535 91.2559 2.48178C90.764 2.01619 90.4087 1.96446 87.2383 2.01619C82.8654 2.09379 77.5086 2.55937 76.634 2.9215C75.8961 3.25775 75.7868 3.93027 76.388 4.42172Z" fill="black"/>
</svg>
