<svg width="106" height="94" viewBox="0 0 106 94" fill="none" xmlns="http://www.w3.org/2000/svg">
<path d="M105.332 47.0235C105.332 40.129 96.6698 33.5951 83.3895 29.5433C86.4542 16.0512 85.0921 5.31696 79.0905 1.8803C77.7071 1.07418 76.0896 0.692326 74.3232 0.692326V5.42303C75.3022 5.42303 76.0896 5.61395 76.7494 5.97459C79.6438 7.62928 80.8995 13.9298 79.9205 22.0335C79.6864 24.0276 79.3033 26.1278 78.8351 28.2704C74.6637 27.2522 70.1093 26.4672 65.3207 25.9581C62.4476 22.0335 59.468 18.4696 56.4672 15.3511C63.4053 8.92333 69.9177 5.40182 74.3445 5.40182V0.671112C68.4918 0.671112 60.8301 4.82904 53.0833 12.0418C45.3365 4.87147 37.6748 0.755968 31.8222 0.755968V5.48667C36.2276 5.48667 42.7613 8.98697 49.6994 15.3724C46.7199 18.4908 43.7403 22.0335 40.9098 25.9581C36.0999 26.4672 31.5455 27.2521 27.3741 28.2916C26.8846 26.1702 26.5228 24.1125 26.2674 22.1396C25.2672 14.0359 26.5015 7.73535 29.3747 6.05945C30.0131 5.6776 30.8432 5.50789 31.8222 5.50789V0.777182C30.0344 0.777182 28.417 1.15903 27.0123 1.96516C21.032 5.40182 19.6912 16.1148 22.7771 29.5645C9.53943 33.6375 0.920044 40.1502 0.920044 47.0235C0.920044 53.918 9.582 60.4519 22.8622 64.5038C19.7976 77.9958 21.1596 88.7301 27.1613 92.1667C28.5447 92.9729 30.1621 93.3547 31.9498 93.3547C37.8025 93.3547 45.4642 89.1968 53.211 81.9841C60.9578 89.1544 68.6195 93.2699 74.4722 93.2699C76.2599 93.2699 77.8774 92.888 79.282 92.0819C85.2624 88.6452 86.6032 77.9322 83.5172 64.4826C96.7123 60.4307 105.332 53.8968 105.332 47.0235ZM77.622 32.8738C76.8345 35.6104 75.8555 38.4319 74.7488 41.2533C73.8763 39.5562 72.9611 37.8591 71.9608 36.162C70.9818 34.4649 69.939 32.8102 68.8962 31.1979C71.9183 31.6434 74.834 32.195 77.622 32.8738ZM67.8746 55.4667C66.2146 58.3305 64.512 61.0459 62.7455 63.5704C59.5745 63.8462 56.3608 63.9947 53.1259 63.9947C49.9122 63.9947 46.6986 63.8462 43.5488 63.5916C41.7823 61.0671 40.0585 58.373 38.3984 55.5303C36.781 52.7513 35.3125 49.9298 33.9717 47.0872C35.2912 44.2445 36.781 41.4018 38.3771 38.6228C40.0372 35.7589 41.7398 33.0435 43.5062 30.5191C46.6773 30.2433 49.8909 30.0948 53.1259 30.0948C56.3395 30.0948 59.5532 30.2433 62.703 30.4979C64.4694 33.0223 66.1933 35.7165 67.8533 38.5592C69.4708 41.3382 70.9393 44.1596 72.2801 47.0023C70.9393 49.845 69.4708 52.6876 67.8746 55.4667ZM74.7488 52.7088C75.8981 55.5515 76.8771 58.3942 77.6858 61.152C74.8978 61.8308 71.9608 62.4036 68.9175 62.8491C69.9603 61.2156 71.0031 59.5397 71.9821 57.8214C72.9611 56.1243 73.8763 54.406 74.7488 52.7088ZM53.1684 75.3441C51.1892 73.3076 49.2099 71.0377 47.2519 68.5556C49.1673 68.6405 51.1253 68.7041 53.1046 68.7041C55.1051 68.7041 57.0844 68.6617 59.0211 68.5556C57.1057 71.0377 55.1264 73.3076 53.1684 75.3441ZM37.3343 62.8491C34.3122 62.4036 31.3965 61.8521 28.6085 61.1732C29.396 58.4366 30.3749 55.6152 31.4816 52.7937C32.3542 54.4908 33.2694 56.1879 34.2696 57.885C35.2699 59.5822 36.2915 61.2368 37.3343 62.8491ZM53.062 18.7029C55.0413 20.7395 57.0206 23.0094 58.9785 25.4914C57.0631 25.4065 55.1051 25.3429 53.1259 25.3429C51.1253 25.3429 49.1461 25.3853 47.2094 25.4914C49.1248 23.0094 51.1041 20.7395 53.062 18.7029ZM37.313 31.1979C36.2702 32.8314 35.2273 34.5073 34.2483 36.2256C33.2694 37.9228 32.3542 39.6199 31.4816 41.317C30.3324 38.4743 29.3534 35.6316 28.5447 32.8738C31.3327 32.2162 34.2696 31.6434 37.313 31.1979ZM18.0524 57.7578C10.5184 54.5545 5.64475 50.3541 5.64475 47.0235C5.64475 43.6929 10.5184 39.4714 18.0524 36.2893C19.8827 35.5044 21.8833 34.8043 23.9476 34.1467C25.1607 38.3046 26.7569 42.6322 28.7362 47.066C26.7782 51.4784 25.2033 55.7849 24.0115 59.9216C21.9045 59.2639 19.904 58.5427 18.0524 57.7578ZM29.5024 88.0724C26.608 86.4178 25.3523 80.1172 26.3313 72.0135C26.5654 70.0194 26.9485 67.9192 27.4167 65.7766C31.588 66.7949 36.1425 67.5798 40.931 68.0889C43.8042 72.0135 46.7837 75.5775 49.7845 78.6959C42.8465 85.1237 36.334 88.6452 31.9073 88.6452C30.9496 88.624 30.1408 88.4331 29.5024 88.0724ZM79.9843 71.9074C80.9846 80.0112 79.7502 86.3117 76.8771 87.9876C76.2386 88.3694 75.4086 88.5392 74.4296 88.5392C70.0241 88.5392 63.4904 85.0389 56.5524 78.6535C59.5319 75.535 62.5114 71.9923 65.342 68.0677C70.1518 67.5586 74.7063 66.7737 78.8776 65.7342C79.3671 67.8768 79.7502 69.9346 79.9843 71.9074ZM88.1781 57.7578C86.3478 58.5427 84.3472 59.2427 82.2828 59.9004C81.0697 55.7424 79.4735 51.4148 77.4943 46.9811C79.4523 42.5686 81.0272 38.2622 82.219 34.1255C84.3259 34.7831 86.3265 35.5044 88.1993 36.2893C95.7333 39.4926 100.607 43.6929 100.607 47.0235C100.586 50.3541 95.712 54.5757 88.1781 57.7578Z" fill="#050404"/>
<path d="M53.1046 56.7183C58.4762 56.7183 62.8307 52.3778 62.8307 47.0235C62.8307 41.6693 58.4762 37.3288 53.1046 37.3288C47.733 37.3288 43.3785 41.6693 43.3785 47.0235C43.3785 52.3778 47.733 56.7183 53.1046 56.7183Z" fill="#050404"/>
</svg>