<svg width="552" height="68" viewBox="0 0 552 68" fill="none" xmlns="http://www.w3.org/2000/svg">
<path d="M0.248778 10.8614C0.426477 11.004 0.604176 22.4132 0.710795 36.2112C0.888494 60.848 0.888494 61.3115 1.63483 62.2741C3.44736 64.7342 3.37628 64.6986 13.6117 64.9125C21.7504 65.0908 23.1009 65.0195 24.4158 64.4847C27.721 63.1655 27.8987 58.7801 24.7002 57.2826C23.705 56.7835 21.9991 56.6052 16.8814 56.4626C13.2919 56.3556 10.1999 56.1417 9.98668 56.0347C9.73791 55.8565 9.48913 48.4761 9.24035 34.6068C9.02711 22.948 8.77833 12.8937 8.67171 12.3232C8.45847 11.2536 8.49401 11.2536 11.0884 10.6118C16.3483 9.29262 19.4403 8.22301 20.08 7.50993C21.0396 6.44032 20.4354 4.97852 18.8361 4.40805C16.6326 3.65933 9.27589 3.98021 3.94492 5.04982C1.27943 5.58463 -9.42375e-07 6.90382 -9.42375e-07 9.04305C-9.42375e-07 9.89874 0.106618 10.7188 0.248778 10.8614Z" fill="black"/>
<path d="M26.0944 26.0946C26.5668 31.1113 28.8197 47.4421 29.1467 48.4027C29.6918 50.0394 31.0726 51 32.8895 51C35.9782 51 37.1046 49.2922 37.1046 44.5958C37.1046 42.8524 37.1773 41.3936 37.2863 41.3936C37.3953 41.3936 38.9941 42.6389 40.8473 44.1332C45.2442 47.7267 49.1323 50.1817 50.8764 50.4663C53.7108 50.9288 56 49.0787 56 46.3036C56 44.5602 54.8372 43.0303 52.548 41.7494C50.295 40.5042 45.0988 36.5549 45.0988 36.1279C45.0988 35.9856 46.1163 35.4875 47.3154 34.9894C50.1134 33.922 52.1846 32.4633 52.9113 31.1113C53.5291 29.866 53.6381 27.3043 53.0567 25.8455C51.8212 22.679 47.17 18.6941 43.2819 17.52C41.2834 16.9152 40.6657 16.8796 39.2122 17.1998C37.1046 17.6979 34.888 19.548 33.1802 22.1453L31.872 24.1377L31.1453 21.7184C30.2732 18.9788 29.4738 17.9114 28.2746 17.9114C26.7848 17.9114 26.1671 19.0144 26.0217 21.8963C25.9854 23.3194 25.9854 25.2051 26.0944 26.0946ZM40.0843 27.1264C40.5203 26.3437 40.9564 25.7388 41.0654 25.7388C41.1744 25.7388 41.7558 26.059 42.3372 26.4148C43.2819 27.0552 43.3183 27.1264 42.7006 27.4466C41.3561 28.1226 39.2848 28.9054 39.2848 28.6919C39.2848 28.5851 39.6482 27.8736 40.0843 27.1264Z" fill="black"/>
<path d="M59.1783 46.4857C59.5373 47.9793 61.1168 49.6507 62.4451 49.9352C62.9836 50.0775 64.3837 49.9708 65.5325 49.7574C66.6813 49.544 69.3737 49.2951 71.5636 49.1884C77.8819 48.8684 80 47.7303 80 44.5653C80 42.716 78.7794 41.1157 76.9485 40.5111C75.7639 40.1199 72.6765 40.3333 67.866 41.0801C66.7531 41.258 66.7172 41.2224 66.7172 39.9777V38.6974L68.0455 38.9108C68.7993 39.0531 69.8404 39.2309 70.3789 39.302C71.779 39.5865 74.1484 38.8397 74.7946 37.9151C75.5844 36.7771 75.4767 35.0701 74.5074 34.181C73.4663 33.1852 71.9226 33.1852 68.8711 34.1099C67.5788 34.5011 66.5377 34.8211 66.5018 34.8211C66.4659 34.8211 66.3582 33.1141 66.2505 30.9804C66.1069 28.8822 65.9274 26.4283 65.7838 25.5393L65.5684 23.9034L69.1583 24.0812L72.7842 24.259L73.8612 23.1566C75.2254 21.8052 75.2613 20.6672 74.0048 19.138L73.0355 18L69.9481 18.2489C68.2609 18.3556 65.6761 18.7468 64.2042 19.1024C61.9066 19.6359 61.4399 19.8848 61.045 20.7028C60.3271 22.1608 59.9681 25.2548 59.5373 33.3986C59.3578 37.4172 59.1065 41.7203 59.0347 43.0005C58.9629 44.2808 58.9988 45.8455 59.1783 46.4857Z" fill="black"/>
<path d="M85.1194 41.9118C87.4306 46.8002 94.7972 52.3357 99.8167 52.9467C103.319 53.3421 106.281 51.5089 107.111 48.3818C107.689 46.2251 106.497 40.7256 102.994 29.7626C101.622 25.4852 101.333 22.8613 102.164 22.8613C102.742 22.8613 105.197 24.5866 106.172 25.7009C107.508 27.2105 110 26.276 110 24.2631C110 22.8613 108.267 19.7341 106.822 18.548C102.994 15.4208 98.9139 15.1332 96.4222 17.901C94.725 19.7341 94.3278 21.0641 94.2917 24.8382C94.2917 28.0013 94.4722 29.1156 95.8444 33.8962C97.5056 39.7911 98.0111 42.6307 97.4694 42.6307C96.7111 42.6307 93.7861 39.3957 92.7028 37.3469C91.4389 35.0464 90.1389 34.004 88.3333 34.004C85.8778 34.004 84 35.9091 84 38.3892C84 39.0362 84.5056 40.6178 85.1194 41.9118Z" fill="black"/>
<path d="M114.214 38.2959C114.884 41.3089 115.554 42.9041 116.647 44.1448C119.432 47.2287 123.452 46.7325 127.012 42.8332C127.894 41.9116 128.846 40.7418 129.163 40.2455C129.727 39.3593 129.763 39.3948 129.974 41.8407C130.503 47.2642 131.314 49.072 133.535 49.8164C136.003 50.6317 139 48.6112 139 46.1298C139 45.4918 138.612 42.1242 138.119 38.6149C137.625 35.141 137.096 30.1074 136.885 27.4134C136.708 24.7193 136.356 22.0253 136.038 21.3518C134.875 18.4805 130.432 18.1615 128.705 20.8201C128.388 21.2809 127.506 23.6559 126.695 26.1373C125.179 30.6746 122.182 37.1615 121.548 37.197C121.089 37.2324 120.807 35.5309 120.173 28.7959C119.573 22.5925 119.08 20.7137 117.881 20.0402C115.342 18.6932 113.932 23.5141 114.003 33.1559C114.038 35.6018 114.108 37.9059 114.214 38.2959Z" fill="black"/>
<path d="M143.197 24.3913C144.357 33.7523 145.808 41.4079 146.896 43.8389C148.129 46.7052 150.341 48.084 152.698 47.4309C155.526 46.6689 156.36 44.8911 156.36 39.5212C156.397 34.7319 156.904 28.9629 157.376 28.4912C158.391 27.4753 159.842 32.954 160.567 40.3194C160.857 43.3309 161.183 46.0521 161.292 46.415C161.655 47.6486 163.939 49.245 165.281 49.245C168.037 49.245 169.778 47.3946 169.778 44.4194C169.778 41.8433 170.793 36.7274 171.7 34.623C172.498 32.8815 174.42 30.7408 175.254 30.7408C175.435 30.7408 175.761 31.1762 175.943 31.6841C176.414 32.8452 177.031 39.9929 177.031 44.0929C177.031 47.6849 177.611 49.3176 179.279 50.3335C181.6 51.7485 184.283 50.8415 185.444 48.2654C186.096 46.7778 186.133 46.2698 185.77 39.5212C185.19 28.2373 183.848 24.7541 179.279 22.3957C176.305 20.8356 171.41 21.8878 168.074 24.7541L166.659 25.9514L165.608 23.9559C163.758 20.509 160.676 18.4046 157.521 18.4046C155.127 18.4046 151.827 20.5816 150.304 23.1939C149.942 23.7382 149.579 24.2099 149.47 24.2099C149.325 24.2099 148.963 23.2665 148.6 22.1055C147.766 19.4205 146.605 17.3887 145.771 17.0984C144.756 16.7719 143.668 17.2798 143.269 18.2958C142.943 19.1303 142.907 22.1417 143.197 24.3913Z" fill="black"/>
<path d="M189.786 47.979C191.684 51.5095 194.81 51.8697 202.885 49.456C209.361 47.5467 210.663 46.9343 211.445 45.3132C212.226 43.692 212.189 42.6473 211.296 41.2423C209.733 38.7566 207.649 38.6485 201.694 40.774C199.35 41.6026 197.34 42.179 197.229 42.0349C197.08 41.8908 196.894 40.3777 196.857 38.6845L196.708 35.5504L200.764 34.8659C205.081 34.1814 206.532 33.569 207.165 32.2361C207.835 30.8311 207.649 29.9665 206.495 28.8497C204.82 27.2286 202.476 27.5168 197.861 29.9665L196.522 30.687L196.261 28.9938C196.15 28.0932 196.038 26.7242 196.038 26.0037V24.6708L200.02 24.2025C202.253 23.9503 204.374 23.59 204.783 23.4099C207.053 22.2931 207.5 19.7353 205.751 18.0422C204.262 16.6012 202.327 16.6372 197.303 18.2583C195.145 18.9428 193.172 19.5192 192.912 19.5192C192.651 19.5192 191.721 20.0236 190.902 20.6C189.711 21.4285 189.339 21.9329 189.339 22.6894C189.339 23.2298 189.525 23.8782 189.749 24.0944C190.009 24.3466 190.009 25.6435 189.749 28.5615C189.525 30.8311 189.228 35.7305 189.116 39.5131C188.893 46.2138 188.93 46.3939 189.786 47.979Z" fill="black"/>
<path d="M233.495 50.3897C234.643 53.1004 237.084 53.5598 243.904 52.4112C246.057 52.0437 248.821 51.7221 250.006 51.7221C253.451 51.6761 256.287 49.5167 256.287 46.9438C256.287 46.1628 256.466 46.2547 257.543 47.587C258.548 48.8275 259.123 49.1951 260.235 49.1951C261.886 49.1951 263.609 47.3573 263.932 45.3817C264.219 43.6818 263.537 29.0255 262.927 23.7878C262.389 18.7799 261.743 17.2637 260.235 17.2637C258.764 17.2637 258.118 18.688 257.543 23.3284C257.113 26.5445 256.287 39.4549 256.287 42.8088C256.287 43.7737 256.215 43.7277 255.103 42.3034C254.385 41.3845 253.38 40.6494 252.554 40.4657C251.334 40.144 243.042 41.2927 241.714 41.9359C241.284 42.1197 241.212 41.9359 241.355 41.1089C241.463 40.5116 241.714 37.5252 241.93 34.4929C242.109 31.4605 242.396 27.739 242.504 26.2229C242.719 23.1446 242.217 18.4123 241.499 16.4826C240.925 14.9205 239.309 14.507 238.34 15.6556C237.945 16.1151 237.479 17.6312 237.263 19.0555C236.689 22.5473 234.895 33.3443 233.818 39.5927C232.849 45.3358 232.741 48.6438 233.495 50.3897Z" fill="black"/>
<path d="M268.138 50.2434C268.642 53.4633 270.011 54.9634 272.388 55C273.469 55 274.19 54.7439 274.946 54.0853C276.207 52.9876 276.459 52.0363 276.063 49.4385C275.703 46.9504 275.018 37.6934 275.198 37.5104C275.27 37.4373 275.703 38.0959 276.135 38.974C278.621 43.9867 283.592 49.5848 285.969 50.0239C287.951 50.4264 289.68 49.4751 290.472 47.609C291.049 46.2552 291.193 44.6453 291.373 35.6078C291.517 28.0705 291.733 24.4847 292.129 22.6187C292.454 21.1917 292.814 19.033 292.922 17.8255C293.102 15.74 293.03 15.5204 292.057 14.3862C291.265 13.4714 290.652 13.1787 289.428 13.0324C284.961 12.5933 283.412 16.5449 283.015 29.534L282.763 36.8152L280.566 33.9247C278.188 30.8146 275.522 28.1436 274.442 27.7778C274.081 27.668 273.505 27.0094 273.217 26.3508C272.749 25.3629 272.496 25.1799 271.416 25.1799C269.506 25.1799 268.966 26.6435 268.534 32.7173C268.029 40.1083 267.849 48.414 268.138 50.2434Z" fill="black"/>
<path d="M297.71 48.0385C298.74 49.6791 300.48 50.3924 302.185 49.7861C302.895 49.5721 303.854 48.8944 304.244 48.3595C304.919 47.4678 304.99 46.9329 304.883 43.723C304.777 40.7985 304.848 40.1922 305.238 40.5132C310.956 45.0426 316.247 48.7518 317.17 48.8944C319.833 49.2867 322.035 47.4322 322 44.9C321.964 44.1153 321.68 43.0811 321.36 42.5818C321.041 42.0825 317.916 39.7642 314.4 37.4104C310.885 35.0565 308.008 33.0592 308.008 32.9879C308.008 32.9166 309.109 32.0606 310.459 31.062C313.157 29.0291 314.187 27.4242 313.619 26.1403C312.909 24.6423 311.701 24.7137 307.405 26.4969C306.162 26.9962 305.025 27.4242 304.883 27.4242C304.706 27.4242 304.457 25.9619 304.315 24.1787C304.031 20.5052 303.463 18.7577 302.327 18.1514C301.368 17.652 299.983 18.4367 299.486 19.7919C298.527 22.2885 297 37.018 297 43.6517C297 46.2552 297.142 47.0755 297.71 48.0385Z" fill="black"/>
<path d="M326.524 23.8891C326.815 24.2169 327.216 24.5082 327.435 24.5811C327.69 24.6539 327.617 26.2927 327.216 29.6066C326.924 32.3014 326.633 36.8899 326.596 39.8033C326.524 44.7924 326.56 45.193 327.435 46.8682C328.71 49.3809 330.022 50 334.104 50C338.441 50 344.127 49.3445 345.548 48.6526C348.901 47.0867 348.792 42.4253 345.366 41.005C344.163 40.4952 343.653 40.5316 340.19 41.0415C338.077 41.3692 335.853 41.6241 335.234 41.6241H334.104L333.885 38.638C333.776 36.9628 333.776 35.5425 333.849 35.4333C333.958 35.3604 335.307 35.2148 336.838 35.1419C340.518 34.9963 341.029 34.887 342.341 33.7581C343.215 33.0298 343.471 32.5199 343.471 31.5367C343.471 29.9343 341.83 28.1499 340.3 28.1499C339.243 28.1499 334.359 29.3152 333.703 29.7158C333.521 29.8615 333.229 29.0239 333.011 27.7129L332.646 25.4915L335.999 25.6736C340.118 25.8921 341.43 25.4551 342.231 23.5978C342.705 22.4689 342.705 22.1776 342.195 21.0486C341.357 18.9729 340.154 18.6815 334.942 19.2642C330.132 19.8105 328.018 20.2839 326.779 21.085C325.868 21.7041 325.722 23.088 326.524 23.8891Z" fill="black"/>
<path d="M351.209 21.4279C351.356 21.5721 351.504 27.5567 351.541 34.7671C351.578 46.5561 351.651 47.9982 352.241 49.3682C353.088 51.2429 354.23 52 356.294 52C357.583 52 358.099 51.7837 358.91 50.9545C359.831 50.0171 360.199 49.909 362.262 49.8729C367.863 49.8369 373.021 46.2677 375.858 40.4634C376.816 38.4805 377 37.6874 377 35.4161C377 33.1809 376.816 32.3517 375.932 30.5851C373.758 26.2228 367.531 21.0674 360.199 17.5343C356.036 15.5514 354.267 15.5154 352.425 17.2819C351.356 18.3274 350.62 20.8511 351.209 21.4279ZM357.841 26.0426C358.91 26.0426 363.957 29.2512 366.241 31.4143C368.305 33.3251 369.078 34.5869 369.078 36.065C369.078 37.6153 367.347 40.6797 365.689 42.0496C364.289 43.2394 361.562 44.4291 360.236 44.4291C359.536 44.4291 359.499 44.1407 358.394 33.6135C357.583 25.8263 357.62 26.0426 357.841 26.0426Z" fill="black"/>
<path d="M398.296 41.965C398.439 52.3067 398.547 53.8201 399.12 54.8651C400.482 57.3514 403.815 57.7478 405.607 55.6218C406.683 54.3606 406.683 54.3246 406.145 47.0097C405.93 44.0189 405.822 41.4965 405.93 41.3884C406.002 41.3163 408.367 41.4244 411.127 41.6767L416.18 42.1091L416.001 43.7306C415.893 44.6315 415.642 46.217 415.463 47.2619C414.926 50.1447 414.962 52.4869 415.607 53.712C416.18 54.8291 418.08 56.0182 419.262 56.0182C420.409 56.0182 422.165 54.9372 422.81 53.8201C424.459 51.0095 426.825 20.1644 425.713 15.9124C424.567 11.5163 419.692 10.5794 417.434 14.363C416.825 15.3719 416.754 16.4169 416.646 25.2092L416.538 34.9744L411.628 35.4068C408.94 35.659 406.396 35.9113 406.002 35.9473C405.392 36.0194 405.249 35.659 404.855 32.5961C403.959 25.8938 402.274 20.9932 400.769 20.5968C398.726 20.0563 397.902 21.8941 398.009 26.7947C398.045 28.7045 398.188 35.5149 398.296 41.965Z" fill="black"/>
<path d="M429.533 50.6366C430.426 52.4458 431.64 53.0971 434.14 52.9885C444.068 52.6629 448.854 52.2648 449.925 51.7221C452.853 50.1662 452.925 45.9326 450.104 44.1596C448.961 43.4721 448.604 43.436 443.675 43.6531C440.783 43.7978 438.14 43.9787 437.783 44.0873C437.247 44.2682 437.176 43.9787 437.176 41.5906C437.176 40.107 437.283 38.3702 437.39 37.7551L437.604 36.6334H441.14C444.854 36.6334 446.175 36.3077 447.425 35.1136C448.318 34.2452 448.532 32.3999 447.854 31.1334C447.104 29.7222 445.425 29.3604 442.175 29.9393C440.533 30.2288 438.89 30.5545 438.497 30.6992C437.747 30.9525 437.747 30.8439 438.461 23.6072L438.676 21.617L442.318 21.9065C444.282 22.0513 447.497 22.1598 449.425 22.0874C452.889 21.9789 452.961 21.9427 453.996 20.7848C455.818 18.7223 455.068 16.0085 452.496 15.2125C451.246 14.8506 450.175 14.923 445.247 15.6467C439.283 16.5513 438.14 16.5875 436.211 16.1895C435.176 15.9724 434.997 16.0447 434.354 17.0941C433.033 19.3013 430.747 30.2288 429.676 39.5281C428.819 46.7287 428.783 49.1168 429.533 50.6366Z" fill="black"/>
<path d="M458.397 49.3619C458.683 50.1066 459.255 51.0286 459.72 51.3832C460.864 52.2343 463.259 52.1989 464.403 51.3123C465.869 50.1775 466.191 48.5463 465.905 44.1489C465.69 40.9219 465.762 40.2835 466.155 40.5318C466.405 40.6736 468.05 41.8084 469.838 43.0141C474.163 45.9575 478.561 48.3689 480.527 48.9009C481.921 49.2555 482.35 49.2555 483.423 48.7236C486.176 47.4115 486.855 44.1489 484.817 42.0567C484.245 41.4538 482.493 40.319 480.849 39.4679C479.24 38.5814 477.024 37.3047 475.915 36.5955L473.949 35.2834L475.987 33.9713C477.524 32.9783 478.346 32.1627 479.097 30.7442C480.563 28.0845 480.527 25.9213 479.026 22.8361C477.667 20.141 475.772 18.3324 472.876 16.9848C470.124 15.7082 465.69 15.6727 462.938 16.8784C459.613 18.3679 457.932 21.2758 459.47 22.9425C459.863 23.368 459.899 23.7936 459.648 24.7511C459.219 26.3823 458.647 32.4109 458.397 38.014C458.29 40.5318 458.111 43.8298 458.04 45.2837C457.932 47.0923 458.04 48.4044 458.397 49.3619ZM465.941 22.2333C468.372 22.2333 469.945 22.8716 471.196 24.3255C472.233 25.5667 472.412 26.5596 471.697 27.127C471.125 27.5881 468.372 28.4746 466.548 28.7938L465.047 29.042L464.832 27.3044C464.689 26.3823 464.403 24.9638 464.153 24.1837C463.903 23.4035 463.76 22.6588 463.831 22.4815C463.939 22.3396 464.868 22.2333 465.941 22.2333Z" fill="black"/>
<path d="M489.494 49.2006C490.118 50.9436 491.402 52.1057 493.273 52.614C495.034 53.1224 508.904 53.1224 510.665 52.6504C514.738 51.5246 515.032 46.0776 511.106 44.4435C510.152 44.0441 508.537 44.0078 503.657 44.1893C499.988 44.2983 497.383 44.262 497.346 44.0804C497.309 43.8988 497.199 42.0832 497.052 40.0133L496.832 36.273L503.804 36.5272C509.895 36.7451 510.922 36.7088 511.95 36.1641C513.381 35.4378 513.894 34.6026 513.894 32.9685C513.894 31.407 513.014 30.2087 511.509 29.5551C510.482 29.1556 509.381 29.1556 504.281 29.5914C501.015 29.8819 497.86 30.245 497.309 30.354C496.392 30.5355 496.319 30.4629 496.098 28.7925C495.988 27.8483 495.658 25.8148 495.401 24.3259C495.144 22.8371 494.961 21.5661 494.998 21.4935C495.071 21.4209 496.796 21.5661 498.887 21.784C500.978 22.0019 504.978 22.2198 507.767 22.2561L512.83 22.3287L513.931 21.1304C515.802 19.0605 515.142 16.4459 512.537 15.3565C511.436 14.9208 510.372 14.8845 505.492 15.2476C499.291 15.6834 494.19 16.4459 493.016 17.0633C492.576 17.2811 492.136 17.8985 491.989 18.4069C491.879 18.9516 491.475 19.7141 491.108 20.0773C490.081 21.1667 489.677 24.798 489.31 35.8736C488.87 48.5833 488.87 47.4575 489.494 49.2006Z" fill="black"/>
<path d="M515.53 65.4415C516.546 67.418 517.177 67.5259 529.058 67.7774C535.086 67.9212 540.763 68.029 541.674 67.993C544.618 67.993 546.09 66.304 546.966 61.9915C550.19 46.0714 550.611 42.7652 551.066 29.9716C551.242 24.4372 551.592 16.6748 551.802 12.6858C552.013 8.73272 552.048 4.88745 551.943 4.13277C551.627 2.44372 550.05 0.826551 548.158 0.287494C547.141 -3.04424e-06 544.338 -0.0718773 539.326 0.0718712C530.95 0.287494 528.462 0.790614 528.076 2.29997C527.761 3.55777 528.182 4.4562 529.233 4.95932C530.284 5.46244 540.728 7.15148 542.796 7.15148H544.162L543.917 9.73896C543.812 11.1764 543.462 18.1123 543.181 25.12C542.445 42.6574 542.305 44.2027 540.132 53.9416L539.046 58.9009H528.918C517.913 58.9009 517.177 59.0088 515.74 60.8775C514.829 62.0275 514.759 64.004 515.53 65.4415Z" fill="black"/>
</svg>
