<svg width="203" height="48" viewBox="0 0 203 48" fill="none" xmlns="http://www.w3.org/2000/svg">
<path d="M0.126971 24.4137C0.190451 24.4514 0.9776 24.5517 1.86632 24.627C3.69455 24.7776 5.82748 24.627 7.80806 24.2255C14.2069 22.8953 23.2338 18.4026 32.578 11.9022C33.3652 11.3625 34.0254 10.9233 34.0762 10.9233C34.1143 10.9233 33.1494 12.4041 31.9432 14.2112C24.8462 24.878 21.0754 31.2656 16.6826 40.1253L14.2069 45.1199L14.245 45.8854C14.2831 46.4877 14.3719 46.7513 14.6385 47.1152C15.6161 48.3701 17.3555 48.2823 18.4093 46.9019C18.6505 46.5881 19.5519 45.1701 20.4025 43.7646C22.1927 40.8029 22.7259 40.0625 25.7476 36.4358C29.5945 31.7926 32.9589 28.191 37.3645 23.987C42.9253 18.6913 48.537 14.3492 52.1173 12.5798C53.3107 11.99 54.3264 11.6261 54.4406 11.739C54.6565 11.9524 53.3996 14.412 51.9395 16.5956C49.1718 20.7619 45.1344 25.2545 42.0239 27.6388C39.891 29.2702 35.6759 31.6295 34.9014 31.6295C33.6318 31.6295 32.9335 33.0726 33.7334 34.0138C33.9238 34.2397 34.3047 34.5158 34.584 34.6413C35.0919 34.8546 35.1299 34.9048 35.7901 36.5362C36.6535 38.6696 37.6311 40.6398 38.3294 41.6563C40.2972 44.505 43.4078 46.1866 47.3182 46.5128C49.8955 46.7262 53.8058 45.6093 56.5355 43.8901C56.9418 43.6265 57.3099 43.4257 57.3607 43.4257C57.4115 43.4257 57.5893 43.6767 57.7543 43.9904C58.7192 45.785 61.4615 47.2156 64.3055 47.4038C67.1621 47.5795 71.1105 46.3748 74.6527 44.2414C79.8708 41.1041 85.838 35.595 91.1703 28.9691L92.1733 27.7267V31.3534C92.1733 33.3487 92.2114 35.4821 92.2494 36.097L92.3256 37.2139L90.7259 38.5692C86.9298 41.7943 84.7969 44.7685 85.2158 46.2744C85.3809 46.8893 85.8633 47.3787 86.5362 47.6423C86.9933 47.8179 87.2091 47.8305 87.9074 47.705C88.8215 47.5419 90.18 47.0399 91.0941 46.5003C92.9985 45.4085 94.3951 42.9865 94.6617 40.3135L94.7506 39.5229L95.9948 38.6445C99.4989 36.1974 104.501 33.3236 109.249 31.0648C109.948 30.7259 110.57 30.4248 110.646 30.3871C110.709 30.3495 110.684 30.4624 110.57 30.6256C108.945 33.0726 108.488 33.9511 107.866 35.7958C107.396 37.2013 106.99 38.9833 106.786 40.6524C106.583 42.221 106.888 43.3881 107.624 43.9026C108.704 44.643 110.197 45.2077 112.203 43.9151C114.691 42.3214 117.548 39.7739 123.426 33.8883C125.838 31.4789 127.819 29.5463 127.819 29.5965C127.819 29.6467 127.641 30.0106 127.425 30.3871C125.737 33.3989 123.215 37.9668 122.707 40.3888C122.39 41.8947 122.771 42.9112 123.825 43.4132C125.665 44.2916 129.106 42.9865 133.474 39.7488C136.432 37.5527 140.101 33.5872 140.101 33.5872C140.101 33.5872 144.798 28.8812 148.48 25.8569C150.397 24.2757 150.281 24.1125 150.586 23.9368C150.675 23.8866 150.218 24.9031 149.558 26.2082C148.897 27.5008 147.996 29.2953 147.564 30.1989C145.863 33.6374 144.67 35.7331 142.042 39.8492C141.432 40.8029 140.873 41.7818 140.81 42.0202C140.543 42.9865 143.364 42.2963 144.291 42.2963C145.128 42.2963 145.624 41.8947 152.175 35.959C155.679 32.784 158.434 30.4624 160.11 29.2702C161.316 28.4043 163.106 27.3628 163.373 27.3628C163.5 27.3628 163.512 27.5259 163.449 28.0153C163.195 29.973 161.443 34.0389 158.739 38.9457C157.85 40.5394 157.786 40.7151 157.85 41.2422C157.875 41.5434 158.015 41.9198 158.142 42.0704C158.485 42.4469 159.145 42.6979 159.564 42.5849C160.021 42.4845 161.9 40.8657 164.731 38.1802C165.988 36.9754 167.474 35.6201 168.032 35.1433C169.149 34.2021 170.978 32.8844 171.155 32.8844C171.358 32.8844 171.282 33.7001 170.876 35.7331C170.66 36.8625 170.482 38.1676 170.47 38.7825C170.457 39.7488 170.495 39.912 170.825 40.5269C171.409 41.581 172.628 42.2336 174.609 42.5473C176.767 42.8987 177.886 43.1496 181.072 41.8445C181.593 41.6312 182.05 41.4555 182.101 41.4555C182.164 41.4555 182.405 41.7316 182.647 42.0579C184.246 44.2791 189.717 43.8524 194.008 42.2336C196.497 41.2924 199.214 39.661 201.004 38.0296C202.642 36.5362 203.353 35.3315 202.832 34.9048C202.565 34.6915 202.197 34.8295 202.299 35.1056C202.553 35.7331 198.363 38.5315 195.456 39.661C193.056 40.6022 191.329 41.0288 189.615 41.1292C187.876 41.2171 186.987 41.0037 186.314 40.3386C186.073 40.1002 185.87 39.8492 185.87 39.7865C185.87 39.7237 186.289 39.4351 186.784 39.1465C189.501 37.5904 191.723 35.8962 193.945 33.7127C196.395 31.2907 197.906 29.0193 198.109 27.4255C198.439 24.9659 195.659 23.1337 192.447 23.6859C188.206 24.4012 182.913 29.9353 181.847 36.5613C181.771 37.0131 181.682 37.5527 181.656 37.7786C181.593 38.1174 181.453 38.2429 180.653 38.6821C179.473 39.3221 179.306 39.3347 178.024 39.6861C176.665 40.05 173.948 40.0876 173.314 39.7488L172.882 39.5104L172.958 38.6821C172.996 38.2178 173.263 36.7872 173.542 35.4946C174.088 33.0601 174.152 32.282 173.923 31.4413C173.669 30.5377 172.577 29.7471 171.574 29.7471C170.571 29.7471 168.21 31.002 166.064 32.6962C164.896 33.6123 164.871 33.6123 165.125 33.0475C166.318 30.3244 166.813 28.1785 166.572 26.8608C166.077 24.1627 163.982 23.3219 161.062 24.627C159.107 25.5055 156.225 27.3753 153.838 29.3455C153.229 29.8475 152.733 30.224 152.733 30.1989C152.733 30.1612 153.965 27.6765 155.476 24.6772C157.393 20.8748 158.243 19.0552 158.282 18.6787C158.358 17.9885 157.926 17.1226 157.304 16.721C156.923 16.4701 156.733 16.4324 156.034 16.4701C154.841 16.5328 153.038 16.3822 149.813 18.6787C145.243 21.929 141.028 25.9196 135.784 31.9809C130.236 38.381 126.8 42.0806 127.092 40.8006C127.384 39.5205 128.425 36.6994 130.139 33.5872C131.853 30.475 133.402 27.5134 134.189 25.8318C135.306 23.4851 135.319 22.6443 134.265 22.1047C133.364 21.6529 131.137 21.2262 129.17 22.7321C125.589 25.4678 121.273 29.5463 116.626 34.5785C113.553 37.9041 111.48 40.1755 110.566 40.8155L109.97 41.2296V40.6524C109.97 39.9998 111.476 36.8005 111.476 36.8005C111.476 36.8005 114.548 31.4859 118.141 27.8592C120.198 25.776 119.466 24.8278 119.06 24.0498C118.565 23.1086 116.918 23.849 114.671 24.9659C113.718 25.4427 111.928 26.2584 110.71 26.7981C109.491 27.3251 108.069 27.9526 107.561 28.191C107.04 28.4294 106.596 28.6177 106.558 28.6177C106.38 28.6177 101.302 31.2154 100.045 31.9432C98.8514 32.646 96.2995 34.2774 95.068 35.1307L94.814 35.319L94.8902 32.4954C95.0045 28.9942 95.1822 25.9196 95.36 24.3133C95.5377 22.8325 95.4489 22.3431 94.9537 21.8537C94.4459 21.3392 93.6714 21.2262 92.9096 21.565C92.3383 21.816 92.0971 22.0545 88.9104 25.6059C85.6729 29.1949 80.239 34.6287 76.938 37.5402C73.1927 40.8657 69.6251 43.0744 66.7812 43.8273C65.3719 44.2038 63.1247 44.2289 62.0963 43.8901C60.6109 43.3881 60.0523 42.7481 60.0523 41.5183C60.0523 40.3763 60.814 38.4562 61.8678 36.9001C62.236 36.3605 62.3376 36.2852 62.4264 36.4609C62.6042 36.7747 64.0642 36.8374 65.4735 36.599C69.4728 35.9088 73.7259 33.2985 76.2905 29.9479C77.3316 28.5926 77.9156 27.5259 78.068 26.6851C78.3727 25.0537 77.1285 23.6984 75.2875 23.6859C72.3928 23.6733 66.7558 26.8608 62.9089 30.6883C59.3667 34.2146 57.2605 36.1472 57.0955 39.297L57.0193 40.6022L56.3083 40.9159C55.0768 41.4555 53.2359 42.0955 51.852 42.4343C50.6713 42.7355 50.2777 42.7606 48.4241 42.7606C45.961 42.7606 44.9961 42.5598 43.1552 41.6563C43.1552 41.6563 39.5482 40.4014 38.1008 36.1723C37.8088 35.3441 37.5803 34.6413 37.5803 34.6036C37.5803 34.566 38.05 34.3778 38.6214 34.1895C44.6266 32.2193 49.997 28.1659 54.5803 22.1298C58.3891 17.1101 60.2935 12.7681 59.8364 10.1202C59.2905 6.97032 56.3196 5.28873 52.4854 5.96639C49.3876 6.51855 45.5407 8.33819 40.8813 11.4629C40.0052 12.0527 39.2816 12.5171 39.2562 12.5045C39.2435 12.4794 39.7513 11.5382 40.3861 10.4088C41.0209 9.27938 42.0874 7.30915 42.7476 6.02913C43.4205 4.74912 44.0299 3.61969 44.1187 3.5193C44.2076 3.4189 44.3473 3.10517 44.4235 2.82909C44.8424 1.23534 43.2427 -0.383502 41.6938 0.0808179C41.4018 0.168662 40.9447 0.344351 40.6781 0.482392C39.764 0.946712 27.4996 9.26683 21.5198 13.4959C16.1621 17.2732 14.7401 18.2269 12.404 19.6325C8.3413 22.0545 5.72593 23.0835 2.41226 23.5227C1.53623 23.6482 0.634791 23.7737 0.406262 23.7988C0.114253 23.849 -4.77577e-06 23.9243 -4.77577e-06 24.1C-4.77577e-06 24.2255 0.0507949 24.3761 0.126971 24.4137ZM63.2771 35.0303C65.702 32.1064 71.174 27.7141 74.1576 26.2961C76.2778 25.2921 76.5825 25.9322 75.0844 28.2161C72.9896 31.4036 68.292 34.7417 64.6483 35.6327C63.4548 35.9213 62.5915 36.0468 62.5915 35.9464C62.5915 35.8962 62.8962 35.4821 63.2771 35.0303ZM88.8342 44.2916C89.7483 43.4132 91.8305 41.6563 91.8813 41.719C91.9701 41.8069 91.5131 42.8485 91.1576 43.3755C90.5736 44.2038 89.3421 45.0195 88.1359 45.3709C87.8693 45.4462 87.8566 45.4336 87.9582 45.2203C88.0344 45.0948 88.4279 44.6807 88.8342 44.2916ZM186.454 34.0515C187.571 30.3871 189.514 27.5134 191.545 26.5345C192.117 26.2459 192.447 26.1831 193.17 26.1706C194.161 26.1706 194.333 27.3761 194.46 27.7651C194.702 28.4929 193.208 30.2616 190.415 32.5958C189.298 33.537 186.251 35.7707 186.086 35.7707C185.934 35.7707 185.972 35.6201 186.454 34.0515Z" fill="black"/>
</svg>
