<svg width="196" height="270" viewBox="0 0 196 270" fill="none" xmlns="http://www.w3.org/2000/svg">
<g filter="url(#filter0_d_724_390)">
<rect x="7" y="5" width="180" height="254" rx="8" fill="#FFFCF7"/>
</g>
<path d="M18.504 27.096C18.056 27.096 17.6267 27.0373 17.216 26.92C16.8053 26.7973 16.4747 26.64 16.224 26.448L16.664 25.472C16.904 25.6427 17.1867 25.784 17.512 25.896C17.8427 26.0027 18.176 26.056 18.512 26.056C18.768 26.056 18.9733 26.032 19.128 25.984C19.288 25.9307 19.4053 25.8587 19.48 25.768C19.5547 25.6773 19.592 25.5733 19.592 25.456C19.592 25.3067 19.5333 25.1893 19.416 25.104C19.2987 25.0133 19.144 24.9413 18.952 24.888C18.76 24.8293 18.5467 24.776 18.312 24.728C18.0827 24.6747 17.8507 24.6107 17.616 24.536C17.3867 24.4613 17.176 24.3653 16.984 24.248C16.792 24.1307 16.6347 23.976 16.512 23.784C16.3947 23.592 16.336 23.3467 16.336 23.048C16.336 22.728 16.4213 22.4373 16.592 22.176C16.768 21.9093 17.0293 21.6987 17.376 21.544C17.728 21.384 18.168 21.304 18.696 21.304C19.048 21.304 19.3947 21.3467 19.736 21.432C20.0773 21.512 20.3787 21.6347 20.64 21.8L20.24 22.784C19.9787 22.6347 19.7173 22.5253 19.456 22.456C19.1947 22.3813 18.9387 22.344 18.688 22.344C18.4373 22.344 18.232 22.3733 18.072 22.432C17.912 22.4907 17.7973 22.568 17.728 22.664C17.6587 22.7547 17.624 22.8613 17.624 22.984C17.624 23.128 17.6827 23.2453 17.8 23.336C17.9173 23.4213 18.072 23.4907 18.264 23.544C18.456 23.5973 18.6667 23.6507 18.896 23.704C19.1307 23.7573 19.3627 23.8187 19.592 23.888C19.8267 23.9573 20.04 24.0507 20.232 24.168C20.424 24.2853 20.5787 24.44 20.696 24.632C20.8187 24.824 20.88 25.0667 20.88 25.36C20.88 25.6747 20.792 25.9627 20.616 26.224C20.44 26.4853 20.176 26.696 19.824 26.856C19.4773 27.016 19.0373 27.096 18.504 27.096ZM21.7656 27V21.4H24.1896C24.6909 21.4 25.1229 21.4827 25.4856 21.648C25.8482 21.808 26.1282 22.04 26.3256 22.344C26.5229 22.648 26.6216 23.0107 26.6216 23.432C26.6216 23.848 26.5229 24.208 26.3256 24.512C26.1282 24.816 25.8482 25.0507 25.4856 25.216C25.1229 25.376 24.6909 25.456 24.1896 25.456H22.4856L23.0616 24.872V27H21.7656ZM23.0616 25.016L22.4856 24.4H24.1176C24.5176 24.4 24.8162 24.3147 25.0136 24.144C25.2109 23.9733 25.3096 23.736 25.3096 23.432C25.3096 23.1227 25.2109 22.8827 25.0136 22.712C24.8162 22.5413 24.5176 22.456 24.1176 22.456H22.4856L23.0616 21.84V25.016ZM30.3449 27.096C29.9023 27.096 29.4916 27.024 29.1129 26.88C28.7396 26.736 28.4143 26.5333 28.1369 26.272C27.8649 26.0107 27.6516 25.704 27.4969 25.352C27.3476 25 27.2729 24.616 27.2729 24.2C27.2729 23.784 27.3476 23.4 27.4969 23.048C27.6516 22.696 27.8676 22.3893 28.1449 22.128C28.4223 21.8667 28.7476 21.664 29.1209 21.52C29.4943 21.376 29.8996 21.304 30.3369 21.304C30.7796 21.304 31.1849 21.376 31.5529 21.52C31.9263 21.664 32.2489 21.8667 32.5209 22.128C32.7983 22.3893 33.0143 22.696 33.1689 23.048C33.3236 23.3947 33.4009 23.7787 33.4009 24.2C33.4009 24.616 33.3236 25.0027 33.1689 25.36C33.0143 25.712 32.7983 26.0187 32.5209 26.28C32.2489 26.536 31.9263 26.736 31.5529 26.88C31.1849 27.024 30.7823 27.096 30.3449 27.096ZM30.3369 25.992C30.5876 25.992 30.8169 25.9493 31.0249 25.864C31.2383 25.7787 31.4249 25.656 31.5849 25.496C31.7449 25.336 31.8676 25.1467 31.9529 24.928C32.0436 24.7093 32.0889 24.4667 32.0889 24.2C32.0889 23.9333 32.0436 23.6907 31.9529 23.472C31.8676 23.2533 31.7449 23.064 31.5849 22.904C31.4303 22.744 31.2463 22.6213 31.0329 22.536C30.8196 22.4507 30.5876 22.408 30.3369 22.408C30.0863 22.408 29.8543 22.4507 29.6409 22.536C29.4329 22.6213 29.2489 22.744 29.0889 22.904C28.9289 23.064 28.8036 23.2533 28.7129 23.472C28.6276 23.6907 28.5849 23.9333 28.5849 24.2C28.5849 24.4613 28.6276 24.704 28.7129 24.928C28.8036 25.1467 28.9263 25.336 29.0809 25.496C29.2409 25.656 29.4276 25.7787 29.6409 25.864C29.8543 25.9493 30.0863 25.992 30.3369 25.992ZM35.4568 27V22.456H33.6648V21.4H38.5448V22.456H36.7528V27H35.4568ZM39.2421 27V21.4H40.5381V27H39.2421ZM43.0671 23.92H45.7551V24.96H43.0671V23.92ZM43.1631 27H41.8671V21.4H46.0991V22.44H43.1631V27ZM48.3685 27V24.712L48.6645 25.496L46.2005 21.4H47.5765L49.4645 24.544H48.6725L50.5685 21.4H51.8405L49.3765 25.496L49.6645 24.712V27H48.3685Z" fill="black"/>
<path d="M39.3238 40.9787C36.4227 39.2558 31.6374 39.0974 28.868 39.9379C28.4231 40.0729 27.9529 39.8219 27.8182 39.3771C27.6834 38.9321 27.9342 38.4621 28.3792 38.3269C31.5584 37.3619 36.8432 37.5483 40.183 39.5308C40.5831 39.7683 40.7142 40.2849 40.4771 40.6842C40.2398 41.0843 39.7228 41.2162 39.3237 40.9787M39.2287 43.5304C39.0252 43.8607 38.5933 43.9643 38.2635 43.7615C35.845 42.2749 32.1568 41.8441 29.2954 42.7127C28.9244 42.8247 28.5324 42.6156 28.4198 42.2452C28.366 42.0671 28.3851 41.875 28.4728 41.711C28.5605 41.5469 28.7097 41.4244 28.8877 41.3702C32.1564 40.3782 36.22 40.8586 38.9979 42.5658C39.3277 42.7689 39.4315 43.2009 39.2287 43.5304ZM38.1275 45.9811C38.0891 46.044 38.0388 46.0988 37.9792 46.1423C37.9197 46.1858 37.8522 46.2171 37.7805 46.2344C37.7089 46.2517 37.6345 46.2548 37.5617 46.2433C37.4889 46.2319 37.419 46.2062 37.3562 46.1678C35.2427 44.8761 32.5826 44.5844 29.4498 45.3C29.378 45.3164 29.3037 45.3185 29.2311 45.3062C29.1585 45.2939 29.089 45.2674 29.0267 45.2282C28.9643 45.1891 28.9103 45.138 28.8677 45.078C28.825 45.0179 28.7947 44.9501 28.7783 44.8783C28.7618 44.8065 28.7596 44.7321 28.7719 44.6594C28.7841 44.5868 28.8106 44.5173 28.8498 44.4549C28.889 44.3925 28.9401 44.3384 29.0002 44.2958C29.0603 44.2532 29.1282 44.2228 29.2001 44.2065C32.6284 43.4229 35.5691 43.7601 37.9413 45.2097C38.0042 45.2481 38.0589 45.2985 38.1023 45.3581C38.1457 45.4177 38.1769 45.4852 38.1942 45.5568C38.2115 45.6285 38.2145 45.7028 38.2031 45.7756C38.1916 45.8484 38.1659 45.9182 38.1275 45.9811ZM33.9998 33C29.0295 33 25 37.0294 25 41.9998C25 46.9708 29.0295 51 33.9999 51C38.9706 51 43 46.9708 43 41.9998C43 37.0294 38.9706 33 33.9998 33Z" fill="#1ED660"/>
<path d="M175.496 236.904C175.944 236.904 176.373 236.963 176.784 237.08C177.195 237.203 177.525 237.36 177.776 237.552L177.336 238.528C177.096 238.357 176.813 238.216 176.488 238.104C176.157 237.997 175.824 237.944 175.488 237.944C175.232 237.944 175.027 237.968 174.872 238.016C174.712 238.069 174.595 238.141 174.52 238.232C174.445 238.323 174.408 238.427 174.408 238.544C174.408 238.693 174.467 238.811 174.584 238.896C174.701 238.987 174.856 239.059 175.048 239.112C175.24 239.171 175.453 239.224 175.688 239.272C175.917 239.325 176.149 239.389 176.384 239.464C176.613 239.539 176.824 239.635 177.016 239.752C177.208 239.869 177.365 240.024 177.488 240.216C177.605 240.408 177.664 240.653 177.664 240.952C177.664 241.272 177.579 241.563 177.408 241.824C177.232 242.091 176.971 242.301 176.624 242.456C176.272 242.616 175.832 242.696 175.304 242.696C174.952 242.696 174.605 242.653 174.264 242.568C173.923 242.488 173.621 242.365 173.36 242.2L173.76 241.216C174.021 241.365 174.283 241.475 174.544 241.544C174.805 241.619 175.061 241.656 175.312 241.656C175.563 241.656 175.768 241.627 175.928 241.568C176.088 241.509 176.203 241.432 176.272 241.336C176.341 241.245 176.376 241.139 176.376 241.016C176.376 240.872 176.317 240.755 176.2 240.664C176.083 240.579 175.928 240.509 175.736 240.456C175.544 240.403 175.333 240.349 175.104 240.296C174.869 240.243 174.637 240.181 174.408 240.112C174.173 240.043 173.96 239.949 173.768 239.832C173.576 239.715 173.421 239.56 173.304 239.368C173.181 239.176 173.12 238.933 173.12 238.64C173.12 238.325 173.208 238.037 173.384 237.776C173.56 237.515 173.824 237.304 174.176 237.144C174.523 236.984 174.963 236.904 175.496 236.904ZM172.234 237V242.6H169.81C169.309 242.6 168.877 242.517 168.514 242.352C168.152 242.192 167.872 241.96 167.674 241.656C167.477 241.352 167.378 240.989 167.378 240.568C167.378 240.152 167.477 239.792 167.674 239.488C167.872 239.184 168.152 238.949 168.514 238.784C168.877 238.624 169.309 238.544 169.81 238.544H171.514L170.938 239.128V237H172.234ZM170.938 238.984L171.514 239.6H169.882C169.482 239.6 169.184 239.685 168.986 239.856C168.789 240.027 168.69 240.264 168.69 240.568C168.69 240.877 168.789 241.117 168.986 241.288C169.184 241.459 169.482 241.544 169.882 241.544H171.514L170.938 242.16V238.984ZM163.655 236.904C164.098 236.904 164.508 236.976 164.887 237.12C165.26 237.264 165.586 237.467 165.863 237.728C166.135 237.989 166.348 238.296 166.503 238.648C166.652 239 166.727 239.384 166.727 239.8C166.727 240.216 166.652 240.6 166.503 240.952C166.348 241.304 166.132 241.611 165.855 241.872C165.578 242.133 165.252 242.336 164.879 242.48C164.506 242.624 164.1 242.696 163.663 242.696C163.22 242.696 162.815 242.624 162.447 242.48C162.074 242.336 161.751 242.133 161.479 241.872C161.202 241.611 160.986 241.304 160.831 240.952C160.676 240.605 160.599 240.221 160.599 239.8C160.599 239.384 160.676 238.997 160.831 238.64C160.986 238.288 161.202 237.981 161.479 237.72C161.751 237.464 162.074 237.264 162.447 237.12C162.815 236.976 163.218 236.904 163.655 236.904ZM163.663 238.008C163.412 238.008 163.183 238.051 162.975 238.136C162.762 238.221 162.575 238.344 162.415 238.504C162.255 238.664 162.132 238.853 162.047 239.072C161.956 239.291 161.911 239.533 161.911 239.8C161.911 240.067 161.956 240.309 162.047 240.528C162.132 240.747 162.255 240.936 162.415 241.096C162.57 241.256 162.754 241.379 162.967 241.464C163.18 241.549 163.412 241.592 163.663 241.592C163.914 241.592 164.146 241.549 164.359 241.464C164.567 241.379 164.751 241.256 164.911 241.096C165.071 240.936 165.196 240.747 165.287 240.528C165.372 240.309 165.415 240.067 165.415 239.8C165.415 239.539 165.372 239.296 165.287 239.072C165.196 238.853 165.074 238.664 164.919 238.504C164.759 238.344 164.572 238.221 164.359 238.136C164.146 238.051 163.914 238.008 163.663 238.008ZM158.543 237V241.544H160.335V242.6H155.455V241.544H157.247V237H158.543ZM154.758 237V242.6H153.462V237H154.758ZM150.933 240.08H148.245V239.04H150.933V240.08ZM150.837 237H152.133V242.6H147.901V241.56H150.837V237ZM145.632 237V239.288L145.336 238.504L147.8 242.6H146.423L144.535 239.456H145.327L143.431 242.6H142.159L144.623 238.504L144.335 239.288V237H145.632Z" fill="black"/>
<path d="M154.676 223.021C157.577 224.744 162.363 224.903 165.132 224.062C165.577 223.927 166.047 224.178 166.182 224.623C166.317 225.068 166.066 225.538 165.621 225.673C162.442 226.638 157.157 226.452 153.817 224.469C153.417 224.232 153.286 223.715 153.523 223.316C153.76 222.916 154.277 222.784 154.676 223.021M154.771 220.47C154.975 220.139 155.407 220.036 155.736 220.238C158.155 221.725 161.843 222.156 164.705 221.287C165.076 221.175 165.468 221.384 165.58 221.755C165.634 221.933 165.615 222.125 165.527 222.289C165.439 222.453 165.29 222.576 165.112 222.63C161.844 223.622 157.78 223.141 155.002 221.434C154.672 221.231 154.568 220.799 154.771 220.47ZM155.873 218.019C155.911 217.956 155.961 217.901 156.021 217.858C156.08 217.814 156.148 217.783 156.219 217.766C156.291 217.748 156.365 217.745 156.438 217.757C156.511 217.768 156.581 217.794 156.644 217.832C158.757 219.124 161.417 219.416 164.55 218.7C164.622 218.684 164.696 218.681 164.769 218.694C164.842 218.706 164.911 218.733 164.973 218.772C165.036 218.811 165.09 218.862 165.132 218.922C165.175 218.982 165.205 219.05 165.222 219.122C165.238 219.194 165.24 219.268 165.228 219.341C165.216 219.413 165.189 219.483 165.15 219.545C165.111 219.608 165.06 219.662 165 219.704C164.94 219.747 164.872 219.777 164.8 219.793C161.372 220.577 158.431 220.24 156.059 218.79C155.996 218.752 155.941 218.701 155.898 218.642C155.854 218.582 155.823 218.515 155.806 218.443C155.788 218.372 155.785 218.297 155.797 218.224C155.808 218.152 155.834 218.082 155.873 218.019ZM160 231C164.97 231 169 226.971 169 222C169 217.029 164.97 213 160 213C155.029 213 151 217.029 151 222C151 226.971 155.029 231 160 231Z" fill="#1ED660"/>
<path d="M119.844 127.234C106.306 119.194 83.9747 118.455 71.0506 122.377C68.9747 123.007 66.7802 121.835 66.1517 119.76C65.5227 117.683 66.6929 115.49 68.7697 114.859C83.6061 110.356 108.268 111.225 123.854 120.477C125.721 121.586 126.333 123.996 125.227 125.86C124.119 127.727 121.707 128.342 119.844 127.234ZM119.401 139.142C118.451 140.683 116.436 141.167 114.896 140.22C103.61 133.283 86.3986 131.273 73.0453 135.326C71.3139 135.849 69.4847 134.873 68.9589 133.144C68.7082 132.313 68.7973 131.417 69.2066 130.651C69.6159 129.886 70.312 129.314 71.1424 129.061C86.3964 124.432 105.36 126.673 118.323 134.64C119.863 135.588 120.347 137.604 119.401 139.142ZM114.261 150.578C114.083 150.872 113.848 151.128 113.57 151.331C113.292 151.534 112.977 151.68 112.642 151.761C112.308 151.841 111.961 151.856 111.621 151.802C111.281 151.749 110.956 151.629 110.662 151.45C100.799 145.422 88.3854 144.06 73.7657 147.4C73.4307 147.477 73.0839 147.486 72.7451 147.429C72.4063 147.371 72.0821 147.248 71.7911 147.065C71.5001 146.882 71.248 146.644 71.0491 146.364C70.8502 146.084 70.7085 145.767 70.632 145.432C70.5549 145.097 70.5448 144.75 70.6021 144.411C70.6594 144.072 70.783 143.747 70.9658 143.456C71.1486 143.165 71.3871 142.913 71.6676 142.714C71.9481 142.515 72.2651 142.373 72.6004 142.297C88.5991 138.64 102.322 140.214 113.393 146.979C113.686 147.158 113.942 147.393 114.144 147.671C114.347 147.949 114.492 148.264 114.573 148.598C114.654 148.933 114.668 149.28 114.614 149.619C114.561 149.959 114.441 150.285 114.261 150.578ZM94.9993 90C71.8044 90 53 108.804 53 131.999C53 155.197 71.8044 174 94.9996 174C118.196 174 137 155.197 137 131.999C137 108.804 118.196 90 94.9993 90Z" fill="#1ED660"/>
<defs>
<filter id="filter0_d_724_390" x="0.7" y="0.7" width="194.6" height="268.6" filterUnits="userSpaceOnUse" color-interpolation-filters="sRGB">
<feFlood flood-opacity="0" result="BackgroundImageFix"/>
<feColorMatrix in="SourceAlpha" type="matrix" values="0 0 0 0 0 0 0 0 0 0 0 0 0 0 0 0 0 0 127 0" result="hardAlpha"/>
<feMorphology radius="1" operator="dilate" in="SourceAlpha" result="effect1_dropShadow_724_390"/>
<feOffset dx="1" dy="3"/>
<feGaussianBlur stdDeviation="3.15"/>
<feComposite in2="hardAlpha" operator="out"/>
<feColorMatrix type="matrix" values="0 0 0 0 0 0 0 0 0 0 0 0 0 0 0 0 0 0 0.25 0"/>
<feBlend mode="normal" in2="BackgroundImageFix" result="effect1_dropShadow_724_390"/>
<feBlend mode="normal" in="SourceGraphic" in2="effect1_dropShadow_724_390" result="shape"/>
</filter>
</defs>
</svg>
