<svg width="207" height="101" viewBox="0 0 207 101" fill="none" xmlns="http://www.w3.org/2000/svg">
<path d="M206.999 0.83237C206.999 0.83237 58.9655 1.50245 37.0326 1.58443C15.0786 1.68565 1.09915 0 1.09915 0C1.09915 0 -0.910104 29.0351 0.504565 63.0652C1.91923 97.0744 0.155756 99.917 0.155756 99.917L4.29672 98.7801C4.29672 98.7801 6.63367 96.7289 7.20714 95.8563L7.61761 92.7695C6.9411 92.7904 6.57202 92.8105 5.91578 92.9117C5.91578 92.9117 6.18267 90.1301 6.08047 88.9322C5.97744 87.7343 6.08047 86.1707 6.08047 86.1707C6.08047 86.1707 8.76539 86.4351 10.2003 86.2318C11.6353 86.0494 12.9266 86.2728 12.9266 86.2728C12.9266 86.2728 12.7417 89.4199 12.8852 90.9224C12.9883 92.4047 12.9883 92.8916 12.9883 92.8916C12.9883 92.8916 12.4554 92.8305 11.1843 92.7904L10.4461 95.1453C10.4461 95.1453 9.72905 96.2621 9.29832 97.5412C9.29832 97.5412 9.72905 98.9625 10.3025 99.8559C27.1527 99.8157 59.3556 99.8157 63.516 100.14C85.1626 101.866 206.015 99.4293 206.015 99.4293C206.015 99.4293 206.24 44.9337 206.61 35.0858C207.04 25.2379 206.999 0.83237 206.999 0.83237ZM12.9469 79.7753C12.9469 79.7753 9.21639 79.3286 5.89551 79.7753C5.89551 79.7753 6.1624 76.9938 6.05936 75.7958C5.95716 74.5979 6.05936 73.0344 6.05936 73.0344C6.05936 73.0344 8.74512 73.2979 10.1801 73.0954C11.615 72.9122 12.9064 73.1356 12.9064 73.1356C12.9064 73.1356 12.7214 76.2827 12.865 77.7851C12.9672 79.2876 12.9469 79.7753 12.9469 79.7753ZM12.9469 66.618C12.9469 66.618 9.21639 66.1713 5.89551 66.618C5.89551 66.618 6.1624 63.8365 6.05936 62.6385C5.95716 61.4406 6.05936 59.8771 6.05936 59.8771C6.05936 59.8771 8.74512 60.1414 10.1801 59.9381C11.615 59.7549 12.9064 59.9783 12.9064 59.9783C12.9064 59.9783 12.7214 63.1254 12.865 64.6287C12.9672 66.1311 12.9469 66.618 12.9469 66.618ZM12.9469 53.4406C12.9469 53.4406 9.21639 52.9939 5.89551 53.4406C5.89551 53.4406 6.1624 50.6591 6.05936 49.4612C5.95716 48.2632 6.05936 46.6997 6.05936 46.6997C6.05936 46.6997 8.74512 46.964 10.1801 46.7608C11.615 46.5776 12.9064 46.8009 12.9064 46.8009C12.9064 46.8009 12.7214 49.948 12.865 51.4513C12.9672 52.9738 12.9469 53.4406 12.9469 53.4406ZM12.9469 40.3043C12.9469 40.3043 9.21639 39.8575 5.89551 40.3043C5.89551 40.3043 6.1624 37.5227 6.05936 36.3248C5.95716 35.1268 6.05936 33.5633 6.05936 33.5633C6.05936 33.5633 8.74512 33.8268 10.1801 33.6235C11.615 33.4412 12.9064 33.6645 12.9064 33.6645C12.9064 33.6645 12.7214 36.8116 12.865 38.3141C12.9672 39.8165 12.9469 40.3043 12.9469 40.3043ZM12.9469 27.147C12.9469 27.147 9.21639 26.7002 5.89551 27.147C5.89551 27.147 6.1624 24.3654 6.05936 23.1675C5.95716 21.9695 6.05936 20.406 6.05936 20.406C6.05936 20.406 8.74512 20.6695 10.1801 20.4671C11.615 20.2839 12.9064 20.5072 12.9064 20.5072C12.9064 20.5072 12.7214 23.6544 12.865 25.1568C12.9672 26.6592 12.9469 27.147 12.9469 27.147ZM12.9469 14.0097C12.9469 14.0097 9.21639 13.5639 5.89551 14.0097C5.89551 14.0097 6.1624 11.2282 6.05936 10.0303C5.95716 8.83232 6.05936 7.2688 6.05936 7.2688C6.05936 7.2688 8.74512 7.53315 10.1801 7.32987C11.615 7.1475 12.9064 7.37086 12.9064 7.37086C12.9064 7.37086 12.7011 10.518 12.8244 12.0204C12.9672 13.5229 12.9469 14.0097 12.9469 14.0097Z" fill="#F9F4EA"/>
<path d="M68.2701 25.361C44.4869 25.361 20.934 25.0781 20.5629 25.0781V24.4591C21.2555 24.4591 89.7452 25.303 110.942 24.065C139.252 22.4907 206.355 23.8401 207 23.898V24.5171C206.355 24.5171 139.298 23.1654 110.988 24.684C102.121 25.2474 85.1271 25.361 68.2701 25.361Z" fill="#D6C6A8"/>
<path d="M206.315 55.5194C205.727 55.5194 146.842 54.7961 137.473 55.2944C128.059 55.8184 21.6035 55.2194 20.5629 55.2194V54.9451C21.6501 54.9451 128.013 55.5441 137.428 55.0201C146.842 54.4961 205.727 55.2451 206.315 55.2451V55.5194Z" fill="#D6C6A8"/>
<path d="M207 34.2713C206.41 34.2713 147.308 32.8246 137.905 33.8212C128.456 34.8692 21.6074 33.6712 20.5629 33.6712V33.1226C21.6542 33.1226 128.409 34.3206 137.86 33.2726C147.308 32.2246 206.41 33.7226 207 33.7226V34.2713Z" fill="#D6C6A8"/>
<path d="M193.156 63.745C174.483 63.745 143.554 63.6202 134.239 63.4832C121.986 63.3086 21.6025 63.1967 20.5629 63.1967V63.0596C21.6025 63.0596 121.986 63.1715 134.239 63.3461C146.583 63.5206 197.091 63.67 206.315 63.5581V63.6952C204.099 63.7322 199.261 63.745 193.156 63.745Z" fill="#D6C6A8"/>
<path d="M193.156 42.4968C174.483 42.4968 143.554 42.2473 134.239 41.9731C121.986 41.624 21.6025 41.4001 20.5629 41.4001V41.126C21.6025 41.126 121.986 41.3498 134.239 41.699C146.583 42.0481 197.091 42.3469 206.315 42.1231V42.3972C204.099 42.4712 199.261 42.4968 193.156 42.4968Z" fill="#D6C6A8"/>
<path d="M127.924 71.9704C90.0209 71.9704 21.3774 70.2075 20.5629 70.1833V69.9141C21.4689 69.9383 109.153 72.2154 140.981 71.6033C172.809 71.0153 205.997 71.5054 206.315 71.5054V71.7747C205.952 71.7747 172.854 71.2846 141.026 71.8725C137.354 71.9462 132.867 71.9704 127.924 71.9704Z" fill="#D6C6A8"/>
<path d="M127.924 50.0369C90.0209 50.0369 21.3774 48.8617 20.5629 48.8455V48.666C21.4689 48.6822 109.153 50.2003 140.981 49.7922C172.809 49.4002 205.997 49.7269 206.315 49.7269V49.9064C205.952 49.9064 172.854 49.5797 141.026 49.9717C137.354 50.0207 132.867 50.0369 127.924 50.0369Z" fill="#D6C6A8"/>
<path d="M206.315 80.1952C205.858 80.1952 162.974 79.8364 133.626 80.081C103.867 80.3256 27.8088 80.081 20.5629 79.6892L20.6549 79.5098C27.8539 79.9015 103.914 80.1461 133.626 79.9015C162.974 79.6569 205.903 80.0158 206.315 80.0158V80.1952Z" fill="#D6C6A8"/>
</svg>
