<svg width="230" height="128" viewBox="0 0 230 128" fill="none" xmlns="http://www.w3.org/2000/svg">
<path d="M229.999 15.9872C229.999 15.9872 65.5172 16.7321 41.1473 16.8232C16.754 16.9357 1.22128 15.062 1.22128 15.062C1.22128 15.062 -1.01123 47.3365 0.560628 85.1634C2.13248 122.967 0.173063 126.127 0.173063 126.127L4.77414 124.863C4.77414 124.863 7.37075 122.583 8.00793 121.613L8.46401 118.182C7.71233 118.205 7.30224 118.227 6.57309 118.34C6.57309 118.34 6.86963 115.248 6.75608 113.916C6.64159 112.585 6.75608 110.847 6.75608 110.847C6.75608 110.847 9.73932 111.141 11.3337 110.915C12.9281 110.712 14.3629 110.96 14.3629 110.96C14.3629 110.96 14.1574 114.459 14.3169 116.129C14.4314 117.776 14.4314 118.318 14.4314 118.318C14.4314 118.318 13.8393 118.25 12.427 118.205L11.6068 120.823C11.6068 120.823 10.8101 122.064 10.3315 123.486C10.3315 123.486 10.8101 125.066 11.4472 126.059C30.1697 126.014 65.9507 126.014 70.5734 126.375C94.6251 128.293 228.906 125.585 228.906 125.585C228.906 125.585 229.156 65.0091 229.566 54.0624C230.045 43.1158 229.999 15.9872 229.999 15.9872ZM14.3854 103.738C14.3854 103.738 10.2404 103.241 6.55057 103.738C6.55057 103.738 6.84711 100.646 6.73262 99.3145C6.61907 97.9829 6.73262 96.2449 6.73262 96.2449C6.73262 96.2449 9.7168 96.5378 11.3112 96.3128C12.9056 96.1091 14.3404 96.3574 14.3404 96.3574C14.3404 96.3574 14.1349 99.8557 14.2944 101.526C14.408 103.196 14.3854 103.738 14.3854 103.738ZM14.3854 89.1127C14.3854 89.1127 10.2404 88.6161 6.55057 89.1127C6.55057 89.1127 6.84711 86.0208 6.73262 84.6892C6.61907 83.3576 6.73262 81.6196 6.73262 81.6196C6.73262 81.6196 9.7168 81.9135 11.3112 81.6875C12.9056 81.4839 14.3404 81.7322 14.3404 81.7322C14.3404 81.7322 14.1349 85.2304 14.2944 86.9014C14.408 88.5715 14.3854 89.1127 14.3854 89.1127ZM14.3854 74.4651C14.3854 74.4651 10.2404 73.9685 6.55057 74.4651C6.55057 74.4651 6.84711 71.3732 6.73262 70.0416C6.61907 68.71 6.73262 66.9721 6.73262 66.9721C6.73262 66.9721 9.7168 67.2659 11.3112 67.0399C12.9056 66.8363 14.3404 67.0846 14.3404 67.0846C14.3404 67.0846 14.1349 70.5828 14.2944 72.2538C14.408 73.9462 14.3854 74.4651 14.3854 74.4651ZM14.3854 59.8631C14.3854 59.8631 10.2404 59.3665 6.55057 59.8631C6.55057 59.8631 6.84711 56.7712 6.73262 55.4396C6.61907 54.108 6.73262 52.37 6.73262 52.37C6.73262 52.37 9.7168 52.6629 11.3112 52.437C12.9056 52.2343 14.3404 52.4825 14.3404 52.4825C14.3404 52.4825 14.1349 55.9808 14.2944 57.6509C14.408 59.3209 14.3854 59.8631 14.3854 59.8631ZM14.3854 45.2378C14.3854 45.2378 10.2404 44.7412 6.55057 45.2378C6.55057 45.2378 6.84711 42.1459 6.73262 40.8143C6.61907 39.4827 6.73262 37.7448 6.73262 37.7448C6.73262 37.7448 9.7168 38.0377 11.3112 37.8126C12.9056 37.609 14.3404 37.8573 14.3404 37.8573C14.3404 37.8573 14.1349 41.3555 14.2944 43.0256C14.408 44.6957 14.3854 45.2378 14.3854 45.2378ZM14.3854 30.6348C14.3854 30.6348 10.2404 30.1392 6.55057 30.6348C6.55057 30.6348 6.84711 27.543 6.73262 26.2114C6.61907 24.8798 6.73262 23.1418 6.73262 23.1418C6.73262 23.1418 9.7168 23.4356 11.3112 23.2097C12.9056 23.007 14.3404 23.2553 14.3404 23.2553C14.3404 23.2553 14.1124 26.7535 14.2494 28.4236C14.408 30.0936 14.3854 30.6348 14.3854 30.6348Z" fill="#F9F4EA"/>
<mask id="mask0_638_24" style="mask-type:luminance" maskUnits="userSpaceOnUse" x="33" y="0" width="50" height="33">
<path d="M82.6182 0H33.5735V32.0585H82.6182V0Z" fill="white"/>
</mask>
<g mask="url(#mask0_638_24)">
<mask id="mask1_638_24" style="mask-type:luminance" maskUnits="userSpaceOnUse" x="33" y="0" width="50" height="33">
<path d="M33.8127 0.0187988H82.379V32.0586H33.8127V0.0187988Z" fill="white"/>
</mask>
<g mask="url(#mask1_638_24)">
<path d="M65.2123 32.0488C65.2123 32.0488 52.896 26.5602 45.8196 23.0211C45.8196 23.0211 40.0816 19.8231 37.4957 18.7119C37.4957 18.7119 34.1613 17.4419 33.9117 17.2372C33.9117 17.2372 33.708 17.1466 34.2061 16.784C34.2061 16.784 34.6827 15.1504 34.6827 14.1981C34.6827 14.1981 34.7285 14.1523 35.0453 14.1523C35.0453 14.1523 35.4995 13.9486 35.6584 12.7458C35.6584 12.7458 35.7032 12.4963 35.8621 12.4056C35.8621 12.4056 35.1135 11.8393 35.9079 10.6823C35.9079 10.6823 35.9986 10.2057 35.7939 9.95621C35.7939 9.95621 35.4537 9.70669 35.6808 9.45717C35.6808 9.45717 34.5696 8.43665 35.8621 7.30211C35.8621 7.30211 36.1116 7.05259 35.8173 6.1003C35.8173 6.1003 35.6126 5.62368 36.3836 5.23865C36.3836 5.23865 36.4752 3.37798 37.3817 2.721C37.3817 2.721 37.6088 1.69954 37.8583 1.97243C37.8583 1.97243 37.8359 0.996767 38.4704 0.996767C38.4704 0.996767 39.4685 -0.591018 40.3302 0.384643C40.3302 0.384643 40.5124 0.634165 40.7843 0.701452C40.7843 0.701452 41.2376 0.656594 41.2376 0.883688C41.2376 0.883688 42.5759 1.24629 43.2562 1.79019C43.2562 1.79019 45.0029 2.81165 45.7972 3.0378C45.7972 3.0378 47.8383 3.85459 47.9289 4.12654C47.9289 4.12654 49.1307 4.78446 50.5148 5.26108C50.5148 5.26108 52.7605 6.0545 52.7147 6.37225C52.7147 6.37225 56.5482 7.9376 57.0697 8.45908C57.0697 8.45908 58.8163 9.27586 59.6097 9.50296C59.6097 9.50296 61.1302 10.0927 61.1975 10.5683C61.1975 10.5683 65.1441 12.1113 68.0253 13.5177C68.0253 13.5177 68.5925 13.699 68.7738 13.8579C68.7738 13.8579 69.4766 14.2429 69.6813 14.2429C69.6813 14.2429 69.885 14.3112 69.885 14.4243C69.885 14.4243 70.157 14.4243 70.4065 14.6289C70.4065 14.6289 71.042 14.742 71.2457 15.0597C71.2457 15.0597 74.6484 16.7382 75.6689 17.0783C75.6689 17.0783 78.9127 18.4848 79.1388 18.8474C79.1388 18.8474 79.6155 18.9614 79.7519 19.211C79.7519 19.211 80.8406 19.6642 81.0444 19.6418C81.0444 19.6418 82.0649 20.1184 82.1331 20.5034C82.1331 20.5034 82.292 20.6847 82.3602 20.7081C82.3602 20.7081 82.1331 20.9118 81.9967 20.9801C81.9967 20.9801 81.7929 21.1614 81.6341 21.1389C81.6341 21.1389 81.3397 21.1389 81.4303 21.638C81.4303 21.638 81.3163 22.3407 81.135 22.4772C81.135 22.4772 80.7948 22.3865 80.636 22.5678C80.636 22.5678 80.4547 23.0669 80.4089 23.293C80.4089 23.293 80.3416 23.5659 80.1145 23.5884C80.1145 23.5884 79.8874 24.3818 79.0715 24.4958C79.0715 24.4958 79.1622 24.7902 79.0482 24.9266C79.0482 24.9266 78.5491 25.0855 78.1183 25.1304C78.1183 25.1304 77.0071 25.4257 76.4623 24.9266C76.4623 24.9266 75.8278 24.8808 75.4876 25.4257C75.4876 25.4257 74.9661 25.7434 74.7166 25.8116C74.7166 25.8116 74.6484 26.106 74.1942 26.4238C74.1942 26.4238 71.6541 28.5788 70.5429 28.9414C70.5429 28.9414 69.9074 29.5535 69.4542 29.8264C69.4542 29.8264 69.114 30.5516 67.5487 30.8236C67.458 30.7787 66.0515 31.3684 65.2123 32.0488Z" fill="#E1C591"/>
</g>
<path d="M47.7701 8.43681C47.7701 8.43681 45.616 8.98071 44.0506 11.2264C44.0506 11.2264 43.7553 12.2927 42.6666 12.8142C42.6666 12.8142 41.7825 13.6758 42.0096 14.516C42.0096 14.516 42.4853 15.4001 43.3927 13.7674C43.3927 13.7674 44.3684 12.3376 45.6384 11.6572C45.6384 11.6572 46.5001 11.3171 47.158 10.2283C47.4981 9.63863 47.9065 9.07136 48.4056 8.57232C48.6551 8.3228 48.7 8.11907 47.7701 8.43681Z" fill="#BC9661"/>
</g>
<path d="M75.969 43C49.5627 43 23.412 42.7249 23 42.7249V42.1228C23.769 42.1228 99.8127 42.9436 123.348 41.7395C154.78 40.2083 229.284 41.5207 230 41.5771V42.1792C229.284 42.1792 154.831 40.8645 123.399 42.3415C113.554 42.8895 94.6852 43 75.969 43Z" fill="#D6C6A8"/>
<path d="M229 77.062C228.349 77.062 163.045 76.0067 152.654 76.7337C142.214 77.4982 24.154 76.6243 23 76.6243V76.2241C24.2057 76.2241 142.163 77.098 152.605 76.3335C163.045 75.569 228.349 76.6618 229 76.6618V77.062Z" fill="#D6C6A8"/>
<path d="M230 53C229.345 53 163.725 51.9447 153.284 52.6717C142.793 53.4362 24.1596 52.5623 23 52.5623V52.1621C24.2116 52.1621 142.741 53.036 153.234 52.2715C163.725 51.507 229.345 52.5998 230 52.5998V53Z" fill="#D6C6A8"/>
<path d="M214.407 86.062C193.698 86.062 159.398 85.88 149.067 85.68C135.478 85.4253 24.1529 85.262 23 85.262V85.062C24.1529 85.062 135.478 85.2253 149.067 85.48C162.758 85.7347 218.771 85.9526 229 85.7894V85.9894C226.543 86.0433 221.178 86.062 214.407 86.062Z" fill="#D6C6A8"/>
<path d="M214.407 62C193.698 62 159.398 61.818 149.067 61.618C135.478 61.3633 24.1529 61.2 23 61.2V61C24.1529 61 135.478 61.1633 149.067 61.418C162.758 61.6727 218.771 61.8906 229 61.7273V61.9273C226.543 61.9813 221.178 62 214.407 62Z" fill="#D6C6A8"/>
<path d="M142.064 95.062C100.029 95.062 23.9033 93.3474 23 93.3239V93.062C24.0048 93.0856 121.248 95.3004 156.545 94.705C191.842 94.1331 228.648 94.6098 229 94.6098V94.8717C228.598 94.8717 191.892 94.395 156.595 94.9669C152.522 95.0385 147.546 95.062 142.064 95.062Z" fill="#D6C6A8"/>
<path d="M142.064 71C100.029 71 23.9033 69.2854 23 69.2619V69C24.0048 69.0235 121.248 71.2384 156.545 70.643C191.842 70.0711 228.648 70.5478 229 70.5478V70.8097C228.598 70.8097 191.892 70.333 156.595 70.9049C152.522 70.9765 147.546 71 142.064 71Z" fill="#D6C6A8"/>
<path d="M229 104.062C228.494 104.062 180.935 103.538 148.388 103.895C115.385 104.252 31.0358 103.895 23 103.324L23.102 103.062C31.0857 103.634 115.437 103.99 148.388 103.634C180.935 103.277 228.544 103.8 229 103.8V104.062Z" fill="#D6C6A8"/>
</svg>
