<svg width="104" height="105" viewBox="0 0 104 105" fill="none" xmlns="http://www.w3.org/2000/svg">
<g filter="url(#filter0_d_638_24)">
<mask id="mask0_638_24" style="mask-type:luminance" maskUnits="userSpaceOnUse" x="0" y="0" width="104" height="104">
<path d="M0.214966 0.213749H103.895V103.894H0.214966V0.213749Z" fill="white"/>
</mask>
<g mask="url(#mask0_638_24)">
<path d="M103.899 93.7637C101.315 93.7637 99.2225 91.6687 99.2225 89.0887C99.2225 86.505 101.317 84.4125 103.899 84.4125V78.9537C101.315 78.9537 99.2225 76.8587 99.2225 74.2775C99.2225 71.695 101.317 69.6025 103.899 69.6025V64.1412C101.315 64.1412 99.2225 62.0487 99.2225 59.4675C99.2225 56.88 101.317 54.7925 103.899 54.7925V49.3312C101.315 49.3312 99.2225 47.2362 99.2225 44.655C99.2225 42.0725 101.317 39.98 103.899 39.98V34.5212C101.315 34.5212 99.2225 32.4262 99.2225 29.845C99.2225 27.2625 101.317 25.1687 103.899 25.1687V19.7025C101.315 19.7025 99.2225 17.61 99.2225 15.0262C99.2225 12.4437 101.317 10.3512 103.899 10.3512V4.8925C103.749 4.8925 103.594 4.88625 103.437 4.8675C103.287 4.8525 103.135 4.8325 102.985 4.79875C102.686 4.74 102.392 4.65 102.11 4.53125C101.826 4.41625 101.555 4.2725 101.305 4.10375C101.175 4.01875 101.052 3.92875 100.934 3.83C100.815 3.7325 100.7 3.6275 100.591 3.52125C100.482 3.4125 100.379 3.29875 100.282 3.17875C100.186 3.06 100.095 2.9375 100.009 2.8125C99.84 2.5575 99.6962 2.28625 99.5812 2.0025C99.4625 1.72125 99.3725 1.42625 99.3125 1.12875C99.2837 0.977499 99.2625 0.826249 99.2437 0.674999C99.2287 0.521249 99.2225 0.366249 99.2225 0.213749H93.7637C93.7637 2.7975 91.6687 4.89 89.0887 4.89C86.505 4.89 84.4125 2.7975 84.4125 0.213749H78.9537C78.9537 2.7975 76.8587 4.89 74.2775 4.89C71.6975 4.89 69.5975 2.7975 69.5975 0.213749H64.14C64.14 2.7975 62.045 4.89 59.4637 4.89C56.8762 4.89 54.7875 2.7975 54.7875 0.213749H49.3275C49.3275 2.7975 47.235 4.89 44.6537 4.89C42.0662 4.89 39.9737 2.7975 39.9737 0.213749H34.515C34.515 2.7975 32.4225 4.89 29.8387 4.89C27.2562 4.89 25.1625 2.7975 25.1625 0.213749H19.7025C19.7025 2.7975 17.61 4.89 15.0262 4.89C12.4437 4.89 10.3487 2.7975 10.3487 0.213749H4.89247C4.89247 0.364999 4.88622 0.521249 4.87122 0.674999C4.85247 0.826249 4.83247 0.977499 4.80247 1.12875C4.74247 1.42625 4.65247 1.72125 4.53372 2.0025C4.41872 2.28625 4.27497 2.5575 4.10622 2.8125C4.01997 2.9375 3.92872 3.06 3.83247 3.17875C3.73622 3.29875 3.62997 3.4125 3.52372 3.52125C3.41497 3.63 3.29997 3.73375 3.18122 3.83C3.06247 3.92875 2.93997 4.01875 2.80997 4.10375C2.55747 4.2725 2.28872 4.41625 2.00497 4.53125C1.72497 4.65 1.42872 4.74 1.12997 4.79875C0.979966 4.83 0.827466 4.8525 0.677466 4.8675C0.521216 4.88375 0.366216 4.8925 0.214966 4.8925V10.3512C2.79747 10.3512 4.88997 12.4462 4.88997 15.0262C4.89247 17.61 2.79747 19.7025 0.214966 19.7025V25.1612C2.79747 25.1612 4.88997 27.2537 4.88997 29.8375C4.88997 32.42 2.79497 34.5125 0.214966 34.5125V39.9712C2.79747 39.9712 4.88997 42.0637 4.88997 44.6475C4.88997 47.23 2.79497 49.3225 0.214966 49.3225V54.7837C2.79747 54.7837 4.88997 56.8762 4.88997 59.46C4.88997 62.0425 2.79497 64.135 0.214966 64.135V69.5937C2.79747 69.5937 4.88997 71.6862 4.88997 74.27C4.88997 76.8525 2.79497 78.9462 0.214966 78.9462V84.4037C2.79747 84.4037 4.88997 86.4962 4.88997 89.08C4.88997 91.6625 2.79497 93.7562 0.214966 93.7562V99.2162C0.368716 99.2162 0.521216 99.22 0.674966 99.235C0.826216 99.2537 0.977466 99.275 1.12872 99.3037C1.42622 99.365 1.72122 99.4537 2.00247 99.5737C2.28622 99.6875 2.55747 99.8312 2.81247 100.001C2.93747 100.086 3.05997 100.179 3.17872 100.274C3.29872 100.37 3.41247 100.475 3.52122 100.582C3.62997 100.691 3.73372 100.806 3.82997 100.925C3.92622 101.044 4.01872 101.167 4.10372 101.292C4.27247 101.547 4.41622 101.819 4.53122 102.102C4.64997 102.381 4.73997 102.677 4.79872 102.976C4.83247 103.126 4.85247 103.279 4.86747 103.429C4.88622 103.584 4.89247 103.737 4.89247 103.89H10.3512C10.3512 101.307 12.4437 99.2137 15.0262 99.2137C17.61 99.2137 19.7025 101.309 19.7025 103.89H25.1612C25.1612 101.307 27.2562 99.2137 29.8375 99.2137C32.42 99.2137 34.5125 101.309 34.5125 103.89H39.9712C39.9712 101.307 42.0662 99.2137 44.6512 99.2137C47.23 99.2137 49.325 101.309 49.325 103.89H54.7862C54.7862 101.307 56.8762 99.2137 59.4612 99.2137C62.045 99.2137 64.1375 101.309 64.1375 103.89H69.5962C69.5962 101.307 71.6912 99.2137 74.2712 99.2137C76.8525 99.2137 78.9475 101.309 78.9475 103.89H84.4062C84.4062 101.307 86.5012 99.2137 89.0825 99.2137C91.665 99.2137 93.7575 101.309 93.7575 103.89H99.2162C99.2162 103.74 99.225 103.584 99.2412 103.429C99.2562 103.279 99.2775 103.126 99.31 102.976C99.3687 102.677 99.4587 102.381 99.5775 102.102C99.6925 101.819 99.8362 101.547 100.005 101.292C100.091 101.167 100.182 101.044 100.279 100.925C100.375 100.806 100.479 100.691 100.587 100.582C101.457 99.7125 102.664 99.2187 103.895 99.2137L103.899 93.7637Z" fill="#FDFDFD"/>
</g>
</g>
<mask id="mask1_638_24" style="mask-type:luminance" maskUnits="userSpaceOnUse" x="20" y="12" width="64" height="64">
<path d="M20.36 12.36H83.72V75.72H20.36V12.36Z" fill="white"/>
</mask>
<g mask="url(#mask1_638_24)">
<path d="M51.9987 12.36C60.735 12.36 68.645 15.9013 74.37 21.6263C80.0962 27.3525 83.6375 35.2625 83.6375 43.9987C83.6375 52.735 80.0962 60.645 74.37 66.37C68.645 72.0962 60.735 75.6375 51.9987 75.6375C43.2625 75.6375 35.3525 72.0962 29.6262 66.37C23.9012 60.645 20.36 52.735 20.36 43.9987C20.36 35.2625 23.9012 27.3525 29.6262 21.6263C35.3525 15.9013 43.2625 12.36 51.9987 12.36ZM73.8087 22.1888C68.2275 16.6063 60.5162 13.1538 51.9987 13.1538C43.4812 13.1538 35.77 16.6063 30.1887 22.1888C24.6062 27.77 21.1537 35.4813 21.1537 43.9987C21.1537 52.5162 24.6062 60.2275 30.1887 65.8087C35.77 71.3912 43.4812 74.8425 51.9987 74.8425C60.5162 74.8425 68.2275 71.3912 73.8087 65.8087C79.3912 60.2275 82.8425 52.5162 82.8425 43.9987C82.8425 35.4813 79.3912 27.77 73.8087 22.1888Z" fill="#101010"/>
</g>
<path d="M75.4788 33.6987C75.3913 33.4987 75.4825 33.265 75.6838 33.1775C75.8838 33.09 76.1175 33.1825 76.205 33.3825C76.9288 35.03 77.4888 36.765 77.8663 38.5675C78.2338 40.3237 78.4275 42.14 78.4275 43.9987C78.4275 46.065 78.1888 48.0775 77.7388 50.01C77.2763 51.9975 76.5875 53.9012 75.7025 55.6912C75.6063 55.8875 75.3688 55.9675 75.1725 55.8712C74.9763 55.7737 74.8963 55.5362 74.9925 55.34C75.85 53.6062 76.5163 51.7612 76.9663 49.83C77.4013 47.9587 77.6325 46.0062 77.6325 43.9987C77.6325 42.1887 77.4463 40.4262 77.09 38.7287C76.725 36.98 76.18 35.2975 75.4788 33.6987Z" fill="#101010"/>
<path d="M29.0049 55.34C29.1012 55.5362 29.0212 55.7737 28.8249 55.8712C28.6287 55.9675 28.3912 55.8875 28.2937 55.6912C27.4099 53.9012 26.7212 51.9975 26.2587 50.01C25.8087 48.0775 25.5699 46.065 25.5699 43.9987C25.5699 42.14 25.7637 40.3237 26.1312 38.5675C26.5087 36.765 27.0687 35.03 27.7924 33.3825C27.8799 33.1825 28.1137 33.09 28.3137 33.1775C28.5137 33.265 28.6062 33.4987 28.5187 33.6987C27.8162 35.2975 27.2724 36.98 26.9062 38.7287C26.5512 40.4262 26.3649 42.1887 26.3649 43.9987C26.3649 46.0062 26.5949 47.9587 27.0312 49.83C27.4812 51.7612 28.1474 53.6062 29.0049 55.34Z" fill="#101010"/>
<path d="M51.9988 22.7812C57.8575 22.7812 63.1625 25.1563 67.0025 28.995C70.8413 32.835 73.2163 38.14 73.2163 43.9988C73.2163 49.8575 70.8413 55.1625 67.0025 59.0025C63.1625 62.8413 57.8575 65.2163 51.9988 65.2163C46.14 65.2163 40.835 62.8413 36.995 59.0025C33.1563 55.1625 30.7812 49.8575 30.7812 43.9988C30.7812 38.14 33.1563 32.835 36.995 28.995C40.835 25.1563 46.14 22.7812 51.9988 22.7812ZM66.44 29.5563C62.745 25.8613 57.6388 23.575 51.9988 23.575C46.3588 23.575 41.2525 25.8613 37.5563 29.5563C33.8613 33.2525 31.575 38.3588 31.575 43.9988C31.575 49.6388 33.8613 54.745 37.5563 58.44C41.2525 62.1363 46.3588 64.4225 51.9988 64.4225C57.6388 64.4225 62.745 62.1363 66.44 58.44C70.1363 54.745 72.4225 49.6388 72.4225 43.9988C72.4225 38.3588 70.1363 33.2525 66.44 29.5563Z" fill="#101010"/>
<path d="M50.8033 56.1901H48.8621V29.3513H50.8033C51.0421 29.3513 51.2208 29.1413 51.2208 28.9326C51.2208 28.6938 51.0421 28.4851 50.8033 28.4851H44.9521C44.7133 28.4851 44.5333 28.6938 44.5333 28.9326V56.6088C44.5333 56.8476 44.7133 57.0563 44.9521 57.0563H50.8033C51.0421 57.0563 51.2208 56.8476 51.2208 56.6088C51.2208 56.4001 51.0421 56.1901 50.8033 56.1901ZM47.9971 56.1901H45.3696V29.3513H47.9971V56.1901Z" fill="#101010"/>
<path d="M58.9836 28.4851H53.1324C52.8936 28.4851 52.7136 28.6938 52.7136 28.9326C52.7136 29.1413 52.8936 29.3513 53.1324 29.3513H55.0724V56.1901H53.1324C52.8936 56.1901 52.7136 56.4001 52.7136 56.6088C52.7136 56.8476 52.8936 57.0563 53.1324 57.0563H58.9836C59.2224 57.0563 59.4011 56.8476 59.4011 56.6088V28.9326C59.4011 28.6938 59.2224 28.4851 58.9836 28.4851ZM58.5661 56.1901H55.9386V29.3513H58.5661V56.1901Z" fill="#101010"/>
<path d="M14.3475 90.52C14.5209 90.78 14.7409 90.9733 15.0075 91.1C15.2809 91.22 15.5609 91.28 15.8475 91.28C16.0075 91.28 16.1709 91.2567 16.3375 91.21C16.5042 91.1567 16.6542 91.08 16.7875 90.98C16.9275 90.88 17.0409 90.7567 17.1275 90.61C17.2142 90.4633 17.2575 90.2933 17.2575 90.1C17.2575 89.8267 17.1709 89.62 16.9975 89.48C16.8242 89.3333 16.6075 89.2133 16.3475 89.12C16.0942 89.02 15.8142 88.9267 15.5075 88.84C15.2075 88.7467 14.9275 88.62 14.6675 88.46C14.4142 88.3 14.2009 88.0867 14.0275 87.82C13.8542 87.5467 13.7675 87.18 13.7675 86.72C13.7675 86.5133 13.8109 86.2933 13.8975 86.06C13.9909 85.8267 14.1342 85.6133 14.3275 85.42C14.5209 85.2267 14.7675 85.0667 15.0675 84.94C15.3742 84.8067 15.7409 84.74 16.1675 84.74C16.5542 84.74 16.9242 84.7933 17.2775 84.9C17.6309 85.0067 17.9409 85.2233 18.2075 85.55L17.4275 86.26C17.3075 86.0733 17.1375 85.9233 16.9175 85.81C16.6975 85.6967 16.4475 85.64 16.1675 85.64C15.9009 85.64 15.6775 85.6767 15.4975 85.75C15.3242 85.8167 15.1842 85.9067 15.0775 86.02C14.9709 86.1267 14.8942 86.2433 14.8475 86.37C14.8075 86.4967 14.7875 86.6133 14.7875 86.72C14.7875 87.02 14.8742 87.25 15.0475 87.41C15.2209 87.57 15.4342 87.7 15.6875 87.8C15.9475 87.9 16.2275 87.99 16.5275 88.07C16.8342 88.15 17.1142 88.2633 17.3675 88.41C17.6275 88.55 17.8442 88.7433 18.0175 88.99C18.1909 89.23 18.2775 89.5633 18.2775 89.99C18.2775 90.33 18.2109 90.6367 18.0775 90.91C17.9509 91.1833 17.7775 91.4133 17.5575 91.6C17.3375 91.7867 17.0775 91.93 16.7775 92.03C16.4775 92.13 16.1575 92.18 15.8175 92.18C15.3642 92.18 14.9342 92.1 14.5275 91.94C14.1209 91.78 13.7975 91.5333 13.5575 91.2L14.3475 90.52ZM21.3642 88.98L18.6842 84.92H19.9142L21.8442 88.03L23.8342 84.92H25.0042L22.3242 88.98V92H21.3642V88.98ZM26.0272 90.52C26.2006 90.78 26.4206 90.9733 26.6872 91.1C26.9606 91.22 27.2406 91.28 27.5272 91.28C27.6872 91.28 27.8506 91.2567 28.0172 91.21C28.1839 91.1567 28.3339 91.08 28.4672 90.98C28.6072 90.88 28.7206 90.7567 28.8072 90.61C28.8939 90.4633 28.9372 90.2933 28.9372 90.1C28.9372 89.8267 28.8506 89.62 28.6772 89.48C28.5039 89.3333 28.2872 89.2133 28.0272 89.12C27.7739 89.02 27.4939 88.9267 27.1872 88.84C26.8872 88.7467 26.6072 88.62 26.3472 88.46C26.0939 88.3 25.8806 88.0867 25.7072 87.82C25.5339 87.5467 25.4472 87.18 25.4472 86.72C25.4472 86.5133 25.4906 86.2933 25.5772 86.06C25.6706 85.8267 25.8139 85.6133 26.0072 85.42C26.2006 85.2267 26.4472 85.0667 26.7472 84.94C27.0539 84.8067 27.4206 84.74 27.8472 84.74C28.2339 84.74 28.6039 84.7933 28.9572 84.9C29.3106 85.0067 29.6206 85.2233 29.8872 85.55L29.1072 86.26C28.9872 86.0733 28.8172 85.9233 28.5972 85.81C28.3772 85.6967 28.1272 85.64 27.8472 85.64C27.5806 85.64 27.3572 85.6767 27.1772 85.75C27.0039 85.8167 26.8639 85.9067 26.7572 86.02C26.6506 86.1267 26.5739 86.2433 26.5272 86.37C26.4872 86.4967 26.4672 86.6133 26.4672 86.72C26.4672 87.02 26.5539 87.25 26.7272 87.41C26.9006 87.57 27.1139 87.7 27.3672 87.8C27.6272 87.9 27.9072 87.99 28.2072 88.07C28.5139 88.15 28.7939 88.2633 29.0472 88.41C29.3072 88.55 29.5239 88.7433 29.6972 88.99C29.8706 89.23 29.9572 89.5633 29.9572 89.99C29.9572 90.33 29.8906 90.6367 29.7572 90.91C29.6306 91.1833 29.4572 91.4133 29.2372 91.6C29.0172 91.7867 28.7572 91.93 28.4572 92.03C28.1572 92.13 27.8372 92.18 27.4972 92.18C27.0439 92.18 26.6139 92.1 26.2072 91.94C25.8006 91.78 25.4772 91.5333 25.2372 91.2L26.0272 90.52ZM32.8539 85.82H30.5739V84.92H36.0939V85.82H33.8139V92H32.8539V85.82ZM37.1161 84.92H41.6861V85.82H38.0761V87.93H41.4361V88.83H38.0761V91.1H41.8661V92H37.1161V84.92ZM43.1593 84.92H44.5893L46.8393 90.28H46.8793L49.1093 84.92H50.5393V92H49.5793V86.18H49.5593L47.1693 92H46.5293L44.1393 86.18H44.1193V92H43.1593V84.92ZM54.915 84.92H57.385C57.885 84.92 58.3217 84.9767 58.695 85.09C59.075 85.2033 59.4017 85.3567 59.675 85.55C59.955 85.7367 60.185 85.9533 60.365 86.2C60.5517 86.4467 60.6984 86.7 60.805 86.96C60.9117 87.22 60.9884 87.48 61.035 87.74C61.0817 88 61.105 88.24 61.105 88.46C61.105 88.9133 61.0217 89.3533 60.855 89.78C60.6884 90.2 60.4417 90.5767 60.115 90.91C59.7884 91.2367 59.3817 91.5 58.895 91.7C58.415 91.9 57.8584 92 57.225 92H54.915V84.92ZM55.875 91.1H57.085C57.4917 91.1 57.875 91.0467 58.235 90.94C58.6017 90.8267 58.9217 90.66 59.195 90.44C59.4684 90.22 59.685 89.9467 59.845 89.62C60.005 89.2867 60.085 88.9 60.085 88.46C60.085 88.2333 60.0484 87.97 59.975 87.67C59.9017 87.3633 59.7617 87.0733 59.555 86.8C59.355 86.5267 59.075 86.2967 58.715 86.11C58.355 85.9167 57.8884 85.82 57.315 85.82H55.875V91.1ZM62.4871 84.92H67.0571V85.82H63.4471V87.93H66.8071V88.83H63.4471V91.1H67.2371V92H62.4871V84.92ZM68.8104 90.52C68.9838 90.78 69.2038 90.9733 69.4704 91.1C69.7438 91.22 70.0238 91.28 70.3104 91.28C70.4704 91.28 70.6338 91.2567 70.8004 91.21C70.9671 91.1567 71.1171 91.08 71.2504 90.98C71.3904 90.88 71.5038 90.7567 71.5904 90.61C71.6771 90.4633 71.7204 90.2933 71.7204 90.1C71.7204 89.8267 71.6338 89.62 71.4604 89.48C71.2871 89.3333 71.0704 89.2133 70.8104 89.12C70.5571 89.02 70.2771 88.9267 69.9704 88.84C69.6704 88.7467 69.3904 88.62 69.1304 88.46C68.8771 88.3 68.6638 88.0867 68.4904 87.82C68.3171 87.5467 68.2304 87.18 68.2304 86.72C68.2304 86.5133 68.2738 86.2933 68.3604 86.06C68.4538 85.8267 68.5971 85.6133 68.7904 85.42C68.9838 85.2267 69.2304 85.0667 69.5304 84.94C69.8371 84.8067 70.2038 84.74 70.6304 84.74C71.0171 84.74 71.3871 84.7933 71.7404 84.9C72.0938 85.0067 72.4038 85.2233 72.6704 85.55L71.8904 86.26C71.7704 86.0733 71.6004 85.9233 71.3804 85.81C71.1604 85.6967 70.9104 85.64 70.6304 85.64C70.3638 85.64 70.1404 85.6767 69.9604 85.75C69.7871 85.8167 69.6471 85.9067 69.5404 86.02C69.4338 86.1267 69.3571 86.2433 69.3104 86.37C69.2704 86.4967 69.2504 86.6133 69.2504 86.72C69.2504 87.02 69.3371 87.25 69.5104 87.41C69.6838 87.57 69.8971 87.7 70.1504 87.8C70.4104 87.9 70.6904 87.99 70.9904 88.07C71.2971 88.15 71.5771 88.2633 71.8304 88.41C72.0904 88.55 72.3071 88.7433 72.4804 88.99C72.6538 89.23 72.7404 89.5633 72.7404 89.99C72.7404 90.33 72.6738 90.6367 72.5404 90.91C72.4138 91.1833 72.2404 91.4133 72.0204 91.6C71.8004 91.7867 71.5404 91.93 71.2404 92.03C70.9404 92.13 70.6204 92.18 70.2804 92.18C69.8271 92.18 69.3971 92.1 68.9904 91.94C68.5838 91.78 68.2604 91.5333 68.0204 91.2L68.8104 90.52ZM74.1571 84.92H75.1171V92H74.1571V84.92ZM82.9703 88.04V91.53C82.7969 91.6367 82.6003 91.73 82.3803 91.81C82.1603 91.89 81.9303 91.9567 81.6903 92.01C81.4569 92.07 81.2169 92.1133 80.9703 92.14C80.7303 92.1667 80.5036 92.18 80.2903 92.18C79.6903 92.18 79.1536 92.08 78.6803 91.88C78.2136 91.68 77.8169 91.41 77.4903 91.07C77.1703 90.73 76.9236 90.3367 76.7503 89.89C76.5836 89.4367 76.5003 88.96 76.5003 88.46C76.5003 87.9333 76.5903 87.4433 76.7703 86.99C76.9569 86.5367 77.2103 86.1433 77.5303 85.81C77.8569 85.4767 78.2469 85.2167 78.7003 85.03C79.1536 84.8367 79.6503 84.74 80.1903 84.74C80.8436 84.74 81.3769 84.8233 81.7903 84.99C82.2036 85.15 82.5503 85.3733 82.8303 85.66L82.1503 86.39C81.8569 86.11 81.5469 85.9167 81.2203 85.81C80.8936 85.6967 80.5503 85.64 80.1903 85.64C79.7836 85.64 79.4169 85.7167 79.0903 85.87C78.7636 86.0167 78.4836 86.2167 78.2503 86.47C78.0169 86.7233 77.8369 87.0233 77.7103 87.37C77.5836 87.71 77.5203 88.0733 77.5203 88.46C77.5203 88.86 77.5903 89.2333 77.7303 89.58C77.8703 89.92 78.0636 90.2167 78.3103 90.47C78.5569 90.7233 78.8469 90.9233 79.1803 91.07C79.5136 91.21 79.8769 91.28 80.2703 91.28C80.6103 91.28 80.9303 91.25 81.2303 91.19C81.5369 91.1233 81.7969 91.03 82.0103 90.91V88.94H80.4403V88.04H82.9703ZM84.7235 84.92H85.9835L89.8835 90.74H89.9035V84.92H90.8635V92H89.6435L85.7035 86.18H85.6835V92H84.7235V84.92Z" fill="#101010"/>
<defs>
<filter id="filter0_d_638_24" x="0.214966" y="0.213749" width="103.68" height="104.676" filterUnits="userSpaceOnUse" colorInterpolationFilters="sRGB">
<feFlood flood-opacity="0" result="BackgroundImageFix"/>
<feColorMatrix in="SourceAlpha" type="matrix" values="0 0 0 0 0 0 0 0 0 0 0 0 0 0 0 0 0 0 127 0" result="hardAlpha"/>
<feOffset dy="1"/>
<feComposite in2="hardAlpha" operator="out"/>
<feColorMatrix type="matrix" values="0 0 0 0 0 0 0 0 0 0 0 0 0 0 0 0 0 0 0.25 0"/>
<feBlend mode="normal" in2="BackgroundImageFix" result="effect1_dropShadow_638_24"/>
<feBlend mode="normal" in="SourceGraphic" in2="effect1_dropShadow_638_24" result="shape"/>
</filter>
</defs>
</svg>
