<svg width="145" height="74" viewBox="0 0 145 74" fill="none" xmlns="http://www.w3.org/2000/svg">
<path d="M0.225495 40.871C0.731177 41.6915 2.02348 42.5261 3.45624 42.9646C4.48165 43.2617 5.11376 43.2475 6.19535 42.8939C8.40069 42.1583 10.1706 39.8949 12.0388 35.4388C12.7973 33.614 14.0615 29.8935 14.5812 27.9838C15.2836 25.3667 15.41 24.8292 15.5645 24.0936C15.8033 22.9053 15.9016 22.8487 16.0983 23.7682C16.8287 27.2199 18.2334 31.5203 19.2448 33.4301C21.0568 36.8393 23.4026 38.0559 25.8186 36.8252C27.0126 36.2027 28.3892 34.3496 29.0915 32.3691C29.232 31.973 29.4005 31.6052 29.4567 31.5486C29.5129 31.4779 29.7798 31.8174 30.0326 32.2842C30.6226 33.4301 31.8728 34.6042 32.8279 34.9154C33.7691 35.2266 35.3423 35.3681 36.4099 35.2408C37.7583 35.071 39.3456 34.194 40.7643 32.8501C42.6045 31.0818 44.3041 28.6628 43.9389 28.295C43.8125 28.1677 43.4332 28.493 42.3657 29.6389C37.8567 34.5052 34.5838 35.071 32.6594 31.3506C32.0975 30.2755 31.7885 29.1155 31.5637 27.3472C31.339 25.5223 31.2126 25.6921 32.856 25.678C34.5135 25.678 35.6373 25.395 36.761 24.6594C37.8426 23.9663 38.9242 22.679 39.5985 21.3068C40.1603 20.1751 40.2025 20.0053 40.2025 18.9444C40.2025 17.9258 40.1463 17.6853 39.7389 16.8507C38.9945 15.3088 37.3229 14.0498 35.3704 13.5405C33.9798 13.1868 32.5189 13.6254 31.4514 14.7429C30.4821 15.7615 28.937 18.8029 28.4735 20.6278C28.1644 21.8443 27.8835 24.7726 27.9959 25.5082C28.1785 26.6399 25.8608 32.4257 24.8634 33.3169C24.119 33.9818 23.4728 33.2745 22.6019 30.8696C21.7591 28.5213 21.3096 26.5692 20.523 21.7595C20.1999 19.8356 20.0173 18.6756 19.0622 12.7059C18.5986 9.77761 18.3739 7.91031 18.4722 7.79714C18.5284 7.74056 20.4387 7.14641 22.7143 6.48154C30.6226 4.14742 30.7912 4.09083 30.8333 3.80791C30.9597 3.19962 26.2962 3.82206 20.6354 5.16595C19.3009 5.49131 18.1632 5.7035 18.121 5.64692C18.0648 5.59033 17.9806 4.69912 17.9244 3.68059C17.826 1.55866 17.5872 0.78062 16.913 0.299649C16.3933 -0.0822987 15.4381 -0.0964449 14.9184 0.243064C14.2441 0.681597 14.0475 1.43135 13.8649 4.21815C13.7665 5.61862 13.6542 6.80691 13.612 6.86349C13.5558 6.90593 11.9967 7.45763 10.1425 8.08006C6.50438 9.31079 1.99538 10.9942 1.7004 11.2347C1.41947 11.4752 1.63017 11.7864 2.09371 11.7864C2.65558 11.7864 6.58866 10.9376 10.002 10.0605C13.8087 9.09859 13.4856 9.15518 13.3873 9.46639C13.3451 9.622 13.2468 10.2727 13.1625 10.9376C13.0782 11.6025 12.8675 13.0878 12.6709 14.262C12.4883 15.4219 12.0107 18.4492 11.6314 20.9814C10.1425 30.7281 10.0161 31.4779 9.48229 33.8545C8.49902 38.2681 7.36123 40.5881 5.77395 41.352C4.56593 41.9461 2.48702 41.5076 1.04021 40.3476C0.197402 39.6544 -0.322327 39.9798 0.225495 40.871ZM31.8868 18.3361C32.4206 16.4688 33.1791 15.6907 34.4293 15.6907C34.9771 15.6907 35.3423 15.7897 35.848 16.0868C37.8005 17.2185 38.3343 18.5624 37.4774 20.2458C36.3537 22.4526 34.7945 23.3014 32.3363 23.0326L31.3811 22.9336L31.4654 21.2219C31.5216 20.0053 31.648 19.1565 31.8868 18.3361Z" fill="black"/>
<path d="M58.8382 44.115C59.4249 46.444 61.5205 50.3349 64.9573 55.4671L66.7735 58.1586L66.3963 58.6747C63.4764 62.6214 62.3448 65.7313 62.8897 68.2835C63.5882 71.6166 65.7537 73.4714 68.7155 73.304C71.9567 73.1088 73.9405 70.2917 73.689 66.2334C73.5773 64.532 73.0883 62.8306 72.1103 60.7944C71.6912 59.9298 71.3559 59.1488 71.3559 59.0651C71.3559 58.9954 71.817 58.3818 72.3758 57.7263C74.206 55.5647 76.9442 51.7853 76.9442 51.4088C76.9442 51.353 77.0001 51.2972 77.056 51.2972C77.1258 51.2972 77.3075 52.2595 77.4891 53.417C77.992 56.8198 78.5089 59.2185 79.8222 64.4622C81.0656 69.3573 81.6384 70.9053 82.1134 70.6124C82.3788 70.4451 82.2251 68.2416 81.6244 63.2908C81.1773 59.5532 80.9119 57.1545 80.0038 48.759C79.7104 46.0814 79.7244 45.0633 80.0597 44.9518C80.1575 44.9099 81.0795 44.7565 82.1134 44.6031C83.1472 44.4497 84.8097 44.1847 85.8016 44.0453C88.3164 43.6548 88.2186 43.6408 87.6458 44.4218C87.0171 45.3004 85.8296 47.5597 85.5362 48.4383C84.7958 50.6278 85.8994 52.2734 88.1068 52.2734C89.5318 52.2734 91.6554 50.7254 93.0245 48.6614C93.4157 48.0757 94.3238 46.43 95.0363 44.9936L96.3216 42.3718L96.4054 46.5974C96.5172 52.0503 96.8664 55.3137 97.6069 57.81C97.9562 58.9675 98.2216 59.3859 98.4731 59.1488C98.5988 59.0233 98.5988 58.6607 98.4731 57.545C98.012 53.5286 97.9562 46.4719 98.3194 41.7442C98.4871 39.6941 98.3893 38.8713 97.9562 38.3971C97.2576 37.644 96.2797 38.0764 95.5392 39.471L95.2039 40.0846H93.9885C92.8988 40.0707 92.7032 40.1125 91.9488 40.503C91.2782 40.8516 90.6635 41.019 88.8193 41.3119C87.548 41.521 85.2009 41.9813 83.5943 42.316C82.0016 42.6646 80.6604 42.9156 80.6325 42.8878C80.5906 42.8599 80.6744 42.4275 80.8141 41.9394C80.9957 41.2561 81.0516 40.489 81.0516 38.7458C81.0516 36.612 81.0376 36.3889 80.7163 35.6219C80.2832 34.6038 79.8082 34.2133 78.942 34.2133C78.3972 34.2133 78.2575 34.2831 77.8523 34.7293C77.0001 35.6498 76.5251 37.9927 76.4692 41.3955C76.4273 43.9198 76.3435 44.2545 75.7008 44.3939C75.4773 44.4358 75.2118 44.5752 75.128 44.6868C74.9185 44.9239 75.0442 45.3004 75.3376 45.3004C75.4493 45.3004 75.5471 45.3841 75.5471 45.4817C75.5471 45.7049 74.192 48.0478 73.1023 49.6934C71.9706 51.4088 69.1486 55.2021 69.0088 55.2021C68.939 55.2021 68.6456 54.8395 68.3522 54.3932C68.0588 53.9609 66.9412 52.371 65.8654 50.8788C62.1073 45.663 61.7022 45.0912 61.2272 44.1011C60.361 42.3578 60.6125 40.7959 61.9257 39.8057C62.6941 39.206 63.2948 39.0247 64.4125 39.0247C65.3206 39.0247 65.5721 39.0805 66.4103 39.4989C67.8493 40.2241 68.8691 41.2003 69.4839 42.4554C70.0706 43.6408 70.1544 43.7245 70.4758 43.4735C70.6434 43.334 70.6714 43.1248 70.6015 42.5949C70.4059 40.8795 68.7853 38.941 66.7037 37.909C64.5941 36.8631 62.6242 37.0165 60.7661 38.3832C58.9918 39.6802 58.2793 41.8418 58.8382 44.115ZM66.1868 65.4385C66.6618 64.4901 68.4221 62.0775 68.8272 61.8404C69.0088 61.7288 69.903 63.6394 70.2383 64.8667C70.6434 66.3031 70.6295 68.3671 70.2103 69.2318C69.5816 70.5846 67.9052 70.9332 66.6757 69.957C66.075 69.4968 65.6279 68.395 65.6279 67.3909C65.6279 66.6657 65.7118 66.3589 66.1868 65.4385ZM87.8973 48.4801C88.5818 46.9042 89.5737 45.3841 90.6635 44.2405C91.5157 43.348 91.6973 43.2225 92.2841 43.1388C92.6473 43.0969 93.0804 43.0133 93.248 42.9714C93.4297 42.9296 93.5694 42.9575 93.5694 43.0412C93.5694 43.3201 91.4318 47.0716 90.6635 48.1315C89.6017 49.6097 88.1906 50.5023 87.6318 50.0421C87.3384 49.805 87.3664 49.6934 87.8973 48.4801Z" fill="black"/>
<path d="M42.5436 24.1961C43.1909 28.8024 45.597 31.8267 48.4393 31.5747C49.0303 31.5187 49.6212 31.3226 50.4796 30.9026C51.4786 30.4126 51.9289 30.0625 53.1108 28.9005C53.8847 28.1164 54.8556 27.0243 55.2496 26.4503C55.6999 25.8062 55.9953 25.4842 56.0376 25.6102C56.0798 25.7222 56.5019 26.9683 56.9662 28.3964C57.4446 29.8245 58.0075 31.2946 58.2045 31.6867C59.0909 33.3108 60.6669 33.4648 61.5252 31.9947C61.7081 31.6727 62.0317 30.7486 62.2428 29.9365C63.2278 26.0022 63.5795 25.1482 64.7052 23.8881C65.0851 23.468 65.7887 22.866 66.2811 22.544C68.434 21.1438 69.9396 21.1999 70.812 22.698C71.9517 24.6301 72.3316 30.0065 71.6703 34.9069C71.3467 37.3151 71.3467 37.4131 71.6281 37.4691C71.9095 37.5251 72.3879 36.6571 72.8382 35.257C74.7799 29.2505 74.5126 23.314 72.1628 20.7798C71.0371 19.5757 69.3486 19.0717 67.6179 19.4357C67.1676 19.5197 66.253 19.8697 65.5776 20.2058C62.9323 21.5359 61.2719 23.454 60.2025 26.4083C60.0196 26.8843 59.8648 27.2623 59.8508 27.2483C59.7663 27.1503 58.5 21.9279 58.4296 21.3679C58.3593 20.8498 58.4296 20.5138 58.7814 19.5897C60.2588 15.7674 61.1171 11.6371 61.0046 8.9349C60.8498 5.47663 59.6116 3.16645 57.6135 2.5924C56.8959 2.39639 56.7411 2.39639 56.122 2.5784C54.7571 2.98443 53.7159 4.45455 53.2093 6.70872C52.6324 9.24292 53.0686 14.0173 54.3913 19.5337L54.5883 20.3878L54.0114 21.7739C52.3932 25.5962 50.5218 28.2284 48.8192 29.0965C47.975 29.5165 47.4965 29.4605 46.8352 28.8725C46.202 28.2984 46.1035 28.0324 45.6955 25.6662C45.4281 24.1821 45.4 23.636 45.4844 21.0458C45.597 16.6355 45.8503 15.1514 46.5819 14.3113C47.4965 13.2752 48.2704 13.1632 49.382 13.9053C49.7901 14.1853 50.1982 14.3813 50.3107 14.3393C50.8454 14.1293 50.0715 12.9392 49.0725 12.4212C47.3418 11.5531 45.3015 12.7992 43.8381 15.6134C42.4873 18.2456 42.0793 20.8778 42.5436 24.1961ZM56.4597 6.28869C57.1351 4.20253 57.8808 8.65487 57.318 11.4551C57.1773 12.1131 57.0366 12.8132 57.0084 13.0232C56.8677 13.8073 56.713 13.3732 56.4878 11.5531C56.122 8.57087 56.1079 7.35277 56.4597 6.28869Z" fill="black"/>
<path d="M101.068 49.4236C101.096 49.5766 101.194 50.0494 101.278 50.4665C101.362 50.8837 101.711 51.8153 102.046 52.5106C103.737 56.0286 106.922 57.2801 110.22 55.7366C113 54.4295 115.375 51.7319 117.513 47.4769L118.421 45.6692L118.575 46.2254C118.659 46.5313 118.729 47.0319 118.729 47.3378C118.729 47.6438 118.882 49.5766 119.064 51.6485C119.26 53.7064 119.511 56.7795 119.637 58.462C119.916 62.3694 120.098 64.1215 120.266 64.2883C120.335 64.3579 120.475 64.3718 120.587 64.3301C120.727 64.2744 120.81 63.8851 120.88 62.9534C121.216 58.0727 121.258 56.5848 121.174 52.0934C121.118 49.3819 121.118 47.2683 121.188 47.2683C121.258 47.2683 121.621 47.3656 122.012 47.4908C124.946 48.3807 131.401 49.4375 137.171 49.9798C140.315 50.2718 144.842 50.536 144.94 50.4248C145.149 50.2162 144.8 49.8686 144.087 49.5488C142.229 48.7006 134.573 47.1432 125.645 45.8083C123.339 45.4606 121.341 45.1408 121.202 45.0991C120.699 44.9461 121.006 44.5985 122.361 43.8337C127.992 40.6216 129.878 39.3701 131.01 38.1465C131.555 37.5764 131.597 37.479 131.401 37.2983C131.205 37.1036 130.982 37.2009 129.249 38.2021C128.188 38.8139 125.938 40.0376 124.247 40.9414C122.557 41.8453 121.118 42.6101 121.048 42.6518C120.838 42.7769 121.076 38.8834 121.383 36.9784C121.886 33.9332 121.9 33.6273 121.467 33.1267C121.006 32.5844 120.447 32.4453 119.804 32.7234C119.218 32.9598 119.05 33.2518 118.309 35.3098C117.653 37.1314 115.92 41.4003 115.082 43.2358C114.02 45.558 112.078 49.2985 111.379 50.3553C109.745 52.7887 107.886 53.9567 106.28 53.5257C105.93 53.4283 105.427 53.1085 105.022 52.7331C103.066 50.9115 102.619 47.3517 103.863 43.5417C104.701 40.9553 105.93 39.092 106.95 38.8417C107.789 38.6332 109.186 39.829 110.024 41.4837C110.415 42.2624 110.569 42.4154 110.876 42.3041C111.198 42.179 111.016 41.011 110.499 39.982C109.926 38.8139 108.697 37.6598 107.761 37.3956C105.358 36.7281 102.801 39.7178 101.459 44.7654C101.124 46.0307 100.901 48.7145 101.068 49.4236Z" fill="black"/>
</svg>
