<svg width="152" height="30" viewBox="0 0 152 30" fill="none" xmlns="http://www.w3.org/2000/svg">
<path d="M0.696287 3.05646C1.07988 3.21548 2.94304 3.50702 4.861 3.74555C6.75156 3.95757 8.36813 4.1961 8.42293 4.24911C8.75172 4.56715 9.05312 9.86783 9.24491 18.2429L9.43671 27.7576L10.2039 28.3937C11.1903 29.2153 12.0671 29.1888 13.0534 28.3937L13.8206 27.7576L13.7384 18.1104C13.711 12.8097 13.6014 7.85357 13.5192 7.08497L13.3822 5.7068H17.2456C22.0679 5.7068 23.0268 5.33575 22.9994 3.50702C22.972 2.81793 22.5336 2.18185 21.7391 1.7843C20.1773 0.989194 1.38127 0.671153 0.449692 1.43975C-0.235294 1.96982 -0.125697 2.76492 0.696287 3.05646Z" fill="black"/>
<path d="M25.5769 7.10124C26.0294 8.18637 26.9042 9.96477 27.4774 11.0499L28.5633 13.0393L28.5935 21.0873C28.6237 25.5183 27.9999 28.8796 28.8047 29.5574C29.0762 30.2205 30.9163 30.0698 31.4895 29.5574C32.1531 28.9545 31.7911 25.7293 32.3944 19.7912C32.8469 15.6316 33.1427 13.5125 33.1427 13.5125C33.1427 13.5125 35.3043 10.1756 37.3254 6.82982C40.342 1.82618 38.8572 4.55322 40 2.27661C40 0.829774 39.8474 -1.19209e-07 38.3994 -1.19209e-07C36.8911 0.569152 35.9628 2.33319 34 5.5C32.9744 7.4894 31.7006 9.24135 31.4895 9.48249C31.1576 9.81406 30.7655 9.42221 29.1365 7.19167C26.9645 4.26785 26.5653 0.252914 24.1826 2.2766C23.5793 2.78902 24.5814 4.81041 25.5769 7.10124Z" fill="black"/>
<path d="M41.1074 20.7981C42.165 26.9075 42.3412 27.4558 43.3735 27.8474C44.2548 28.213 45.1864 27.8997 45.6648 27.1425C45.9922 26.6203 46.0425 25.9937 45.8914 23.2001C45.7907 21.3725 45.6648 19.075 45.5641 18.0829L45.413 16.3075L46.395 16.9602C48.6359 18.4484 50.7762 18.4223 52.5639 16.8819C57.1213 12.9917 54.8552 2.88769 49.3158 2.3133C48.1072 2.20887 47.5281 2.39163 44.9095 3.77538C44.8087 3.8276 44.7332 3.64484 44.7332 3.35764C44.7332 2.80936 44.1289 2 43.726 2C43.0966 2 42.6937 3.40986 42.4671 6.09904C42.3412 7.66555 42.0139 9.88478 41.7117 11.0074C41.183 13.0439 40.8053 19.1272 41.1074 20.7981ZM46.5209 9.12763C47.1 7.69166 48.1575 6.43845 48.787 6.43845C49.9453 6.43845 51.179 9.25817 50.9524 11.3207C50.6754 13.9316 49.0695 14.6703 47.5 14C46.6021 13.6165 46.5 13.5 46 12.5C45.5 11.5 45.8663 10.6941 46.5209 9.12763Z" fill="black"/>
<path d="M56.1633 6.10823C56.2748 6.21189 56.8881 6.28963 57.5292 6.28963H58.7L58.1704 9.96942C57.8359 12.2239 57.5013 13.8306 57.2505 14.0638C56.7766 14.5562 56.7208 15.1522 57.0832 15.4891C57.2226 15.6446 57.2505 16.2924 57.1111 17.0439C56.9996 17.7436 56.7487 19.8426 56.5536 21.7085C56.1633 25.751 56.4142 26.8135 57.9195 27.6428C58.8394 28.1351 58.8672 28.1351 63.3552 27.5391C71.2439 26.5025 73 25.8547 73 23.8852C73 22.1231 71.2996 21.4234 68.9302 22.2008C67.6479 22.6154 61.0136 23.7297 60.8185 23.5743C60.7628 23.4965 60.7906 21.7085 60.9021 19.5576L61.0973 15.6446L62.937 15.4891C67.1462 15.1522 67.5922 14.9967 68.0382 13.8047C68.2891 13.1568 67.7594 12.2498 67.0068 11.9907C66.3657 11.7575 63.1043 12.1721 61.7384 12.6645C61.4596 12.7681 61.376 12.0425 61.376 9.29565L61.3481 5.79726L62.6583 5.53812C63.3552 5.40855 65.1392 5.09759 66.5887 4.86436C70.1288 4.32017 71.1045 3.6464 70.6585 2.01382C70.3797 1.02909 69.1811 0.744037 67.1183 1.2364C63.9405 1.96199 58.3934 3.69823 57.2505 4.29425C56.2191 4.83845 55.7173 5.66769 56.1633 6.10823Z" fill="black"/>
<path d="M73.6746 9.60192C74.5191 11.7958 75.8813 13.8621 79.3684 18.1987C82.3379 21.8721 83.809 24.219 83.4004 24.6017C83.2369 24.7802 79.3956 22.9435 77.7611 21.9232C76.4262 21.0558 75.4454 20.9028 75.2002 21.515C74.7098 22.714 77.3252 25.2649 81.0575 27.2292C84.4084 28.9894 87.1599 27.6373 87.1599 24.168C87.1599 22.2293 85.9067 19.9844 82.3107 15.3671C79.5591 11.8468 77.7883 8.81112 77.6793 7.4591C77.5976 6.43871 78.2514 6.18361 79.995 6.56625C81.2209 6.84686 81.6023 6.84686 82.1472 6.59176C85.0077 5.16322 82.8828 2 79.0415 2C76.7258 2 74.2467 3.32651 73.5112 4.95914C72.9935 6.13259 73.048 7.9948 73.6746 9.60192Z" fill="black"/>
<path d="M87.3335 17.8903C87.5483 18.861 88.1391 20.4959 88.6224 21.4921C91.0926 26.4733 95.0129 27.3673 99.3358 23.9699C100.598 22.9737 101.189 21.9775 100.947 21.2111C100.464 19.5252 98.6109 19.2953 96.8387 20.7002C95.6573 21.6198 94.6906 22.003 94.0462 21.7731C93.8314 21.6965 93.3481 21.2367 92.9722 20.7513C91.1732 18.5034 90.5288 14.3141 91.3074 10.2525C91.7908 7.92799 92.5963 6.01216 93.1064 6.01216C93.724 6.01216 95.174 6.82958 96.0332 7.67255C97.0535 8.66878 97.8053 8.82205 98.047 8.05572C98.7451 5.96107 95.1471 2.69137 92.4889 3.02345C91.0389 3.20226 90.0723 3.99414 89.0788 5.73117C87.2798 8.94977 86.5012 14.3397 87.3335 17.8903Z" fill="black"/>
<path d="M102.34 23.8495C102.739 25.8242 103.989 26.7984 105.533 26.2718C106.411 25.9559 106.836 25.087 107.049 23.1386L107.209 21.5589L108.034 22.612C108.486 23.1913 109.604 24.4024 110.482 25.2976C112.371 27.2197 113.329 27.4566 114.473 26.2982C115.617 25.1923 115.378 24.2971 113.409 22.0591C111.386 19.7685 108.619 16.1877 108.779 16.056C108.832 16.0034 109.311 15.7664 109.817 15.5031C111.573 14.6342 112.531 13.7127 113.196 12.2646C113.755 11.0798 113.861 10.5532 113.755 9.18406C113.435 5.26098 110.641 2.41741 107.821 3.10198C106.916 3.33894 105.24 4.83971 104.628 5.99821C104.335 6.52479 103.909 6.94606 103.67 6.94606C102.712 6.94606 102.552 7.65696 102.34 12.5542C102.1 18.3993 102.1 22.5594 102.34 23.8495ZM108.114 8.63114C108.726 7.18303 109.284 7.63063 109.284 9.55267C109.284 10.5532 108.832 11.1588 107.874 11.5274C107.422 11.659 107.395 11.58 107.555 10.6058C107.661 10.0003 107.927 9.10507 108.114 8.63114Z" fill="black"/>
<path d="M116.645 12.3033C116.677 13.3962 116.704 16.4027 116.676 18.9526C116.676 21.5315 116.813 23.9892 116.991 24.483C117.612 26.078 120.178 26.2971 121.06 24.8304C121.498 24.1234 121.523 23.4609 121.282 20.0106C121.017 15.7342 120.2 4.78719 119.894 4.3091C119.811 4.16911 119.347 3.76057 118.94 3.72582C118.408 3.68039 117.621 3.82584 117.319 4.41152C116.862 5.32963 116.526 9.26234 116.645 12.3033Z" fill="black"/>
<path d="M124.265 23.2349C124.342 25.1253 124.548 26.705 124.755 27.0675C125.218 27.8703 126.146 28.207 127.073 27.8703C128.388 27.4042 128.491 26.8604 128.362 21.6811C128.233 17.4082 128.259 16.9939 128.645 17.1752C130.088 17.7967 131.222 17.8744 132.562 17.4341C136.195 16.2429 138.462 13.0059 138.127 9.61349C137.612 4.64141 132.433 2.31076 128.671 5.34061L127.718 6.1175L127.537 4.7191C127.331 2.80278 126.97 2 126.378 2C125.45 2 125.244 2.6992 125.012 6.48005C124.909 8.49995 124.677 11.1414 124.523 12.3585C124.162 15.233 124.059 19.1951 124.265 23.2349ZM129.856 10.1573C131.119 8.26688 132.356 7.72306 133.36 8.65533C133.953 9.19915 134.005 11.2191 133.412 12.0477C132.974 12.6951 131.763 13.3943 131.093 13.3943C130.629 13.3943 129.212 11.9182 129.186 11.4262C129.186 11.2708 129.496 10.7011 129.856 10.1573Z" fill="black"/>
<path d="M137.36 3.94707C137.606 4.12531 138.427 4.32902 139.22 4.37994C141.327 4.55819 141.3 4.53272 141.026 5.7295C140.725 6.95175 139.74 18.5376 139.494 23.7576C139.357 26.5077 139.412 27.5262 139.686 28.01C140.123 28.7739 141.382 29.2068 142.285 28.9012C143.599 28.4429 143.763 27.8317 144.064 22.2807C144.42 15.6857 145.104 6.87536 145.323 6.11146C145.432 5.65311 145.733 5.50033 146.691 5.37302C147.348 5.29663 148.47 5.14385 149.181 5.06746C150.604 4.86375 152 3.84521 152 2.97946C152 2.24102 151.015 1.19702 150.112 1.01877C149.346 0.865994 141.629 1.68082 139.084 2.19009C137.195 2.57204 136.511 3.28502 137.36 3.94707Z" fill="black"/>
</svg>
