<svg width="104" height="104" viewBox="0 0 104 104" fill="none" xmlns="http://www.w3.org/2000/svg">
<path fill-rule="evenodd" clip-rule="evenodd" d="M8 0C3.58172 0 0 3.58172 0 8V96C0 100.418 3.58172 104 8 104H96C100.418 104 104 100.418 104 96V8C104 3.58172 100.418 0 96 0H8ZM54.768 95.184C55.344 95.728 56.08 96 56.976 96C57.904 96 58.656 95.728 59.232 95.184C59.84 94.608 60.144 93.904 60.144 93.072V75.456C60.144 71.294 63.518 67.92 67.68 67.92V67.92C68.512 67.92 69.2 67.68 69.744 67.2C70.32 66.688 70.608 66.016 70.608 65.184C70.608 64.352 70.32 63.68 69.744 63.168C69.2 62.656 68.512 62.4 67.68 62.4H46.368C45.536 62.4 44.832 62.656 44.256 63.168C43.712 63.648 43.44 64.304 43.44 65.136C43.44 65.968 43.712 66.64 44.256 67.152C44.832 67.664 45.536 67.92 46.368 67.92V67.92C50.53 67.92 53.904 71.294 53.904 75.456V93.072C53.904 93.904 54.192 94.608 54.768 95.184ZM80.3989 95.664C82.1909 96.208 84.2069 96.48 86.4469 96.48C88.6229 96.48 90.6389 96.08 92.4949 95.28C94.3829 94.48 95.9029 93.328 97.0549 91.824C98.2069 90.32 98.7829 88.528 98.7829 86.448C98.7829 84.816 98.5429 83.44 98.0629 82.32C97.5829 81.168 96.8629 80.224 95.9029 79.488C94.9429 78.72 93.7269 78.096 92.2549 77.616C90.8149 77.136 89.1349 76.72 87.2149 76.368C85.7429 76.08 84.4789 75.76 83.4229 75.408C82.3669 75.024 81.5509 74.528 80.9749 73.92C80.4309 73.28 80.1589 72.48 80.1589 71.52C80.1589 70.72 80.3989 70.016 80.8789 69.408C81.3589 68.8 82.0629 68.32 82.9909 67.968C83.9509 67.616 85.1189 67.44 86.4949 67.44C87.3269 67.44 88.2229 67.584 89.1829 67.872C90.1429 68.128 91.0549 68.464 91.9189 68.88C92.7829 69.264 93.4709 69.68 93.9829 70.128C94.3669 70.416 94.7989 70.56 95.2789 70.56C96.0149 70.56 96.6549 70.272 97.1989 69.696C97.7429 69.12 98.0149 68.48 98.0149 67.776C98.0149 66.816 97.5509 65.968 96.6229 65.232C95.5029 64.272 94.0469 63.488 92.2549 62.88C90.4949 62.24 88.5749 61.92 86.4949 61.92C84.2869 61.92 82.2709 62.304 80.4469 63.072C78.6229 63.84 77.1669 64.96 76.0789 66.432C75.0229 67.904 74.4949 69.68 74.4949 71.76C74.4949 73.136 74.7189 74.384 75.1669 75.504C75.6149 76.592 76.2709 77.552 77.1349 78.384C78.0309 79.184 79.1349 79.856 80.4469 80.4C81.7589 80.912 83.2789 81.296 85.0069 81.552C86.8309 81.808 88.3349 82.176 89.5189 82.656C90.7029 83.104 91.5829 83.664 92.1589 84.336C92.7349 85.008 93.0229 85.824 93.0229 86.784C93.0229 87.584 92.7189 88.304 92.1109 88.944C91.5029 89.552 90.7029 90.048 89.7109 90.432C88.7189 90.784 87.6309 90.96 86.4469 90.96C84.6869 90.96 83.1989 90.704 81.9829 90.192C80.7989 89.68 79.5989 88.928 78.3829 87.936C77.9029 87.552 77.3589 87.36 76.7509 87.36C75.9509 87.36 75.2789 87.648 74.7349 88.224C74.2229 88.768 73.9669 89.408 73.9669 90.144C73.9669 90.592 74.0789 91.04 74.3029 91.488C74.5269 91.936 74.8469 92.336 75.2629 92.688C76.8949 94.096 78.6069 95.088 80.3989 95.664Z" fill="black"/>
</svg>
