<svg width="118" height="118" viewBox="0 0 118 118" fill="none" xmlns="http://www.w3.org/2000/svg">
<path fill-rule="evenodd" clip-rule="evenodd" d="M8 0C3.58172 0 0 3.58172 0 8V110C0 114.418 3.58172 118 8 118H110C114.418 118 118 114.418 118 110V8C118 3.58172 114.418 0 110 0H8ZM64.768 106.184C65.344 106.728 66.08 107 66.976 107C67.904 107 68.656 106.728 69.232 106.184C69.84 105.608 70.144 104.904 70.144 104.072V86.456C70.144 82.294 73.518 78.92 77.68 78.92V78.92C78.512 78.92 79.2 78.68 79.744 78.2C80.32 77.688 80.608 77.016 80.608 76.184C80.608 75.352 80.32 74.68 79.744 74.168C79.2 73.656 78.512 73.4 77.68 73.4H56.368C55.536 73.4 54.832 73.656 54.256 74.168C53.712 74.648 53.44 75.304 53.44 76.136C53.44 76.968 53.712 77.64 54.256 78.152C54.832 78.664 55.536 78.92 56.368 78.92V78.92C60.53 78.92 63.904 82.294 63.904 86.456V104.072C63.904 104.904 64.192 105.608 64.768 106.184ZM90.3989 106.664C92.1909 107.208 94.2069 107.48 96.4469 107.48C98.6229 107.48 100.639 107.08 102.495 106.28C104.383 105.48 105.903 104.328 107.055 102.824C108.207 101.32 108.783 99.528 108.783 97.448C108.783 95.816 108.543 94.44 108.063 93.32C107.583 92.168 106.863 91.224 105.903 90.488C104.943 89.72 103.727 89.096 102.255 88.616C100.815 88.136 99.1349 87.72 97.2149 87.368C95.7429 87.08 94.4789 86.76 93.4229 86.408C92.3669 86.024 91.5509 85.528 90.9749 84.92C90.4309 84.28 90.1589 83.48 90.1589 82.52C90.1589 81.72 90.3989 81.016 90.8789 80.408C91.3589 79.8 92.0629 79.32 92.9909 78.968C93.9509 78.616 95.1189 78.44 96.4949 78.44C97.3269 78.44 98.2229 78.584 99.1829 78.872C100.143 79.128 101.055 79.464 101.919 79.88C102.783 80.264 103.471 80.68 103.983 81.128C104.367 81.416 104.799 81.56 105.279 81.56C106.015 81.56 106.655 81.272 107.199 80.696C107.743 80.12 108.015 79.48 108.015 78.776C108.015 77.816 107.551 76.968 106.623 76.232C105.503 75.272 104.047 74.488 102.255 73.88C100.495 73.24 98.5749 72.92 96.4949 72.92C94.2869 72.92 92.2709 73.304 90.4469 74.072C88.6229 74.84 87.1669 75.96 86.0789 77.432C85.0229 78.904 84.4949 80.68 84.4949 82.76C84.4949 84.136 84.7189 85.384 85.1669 86.504C85.6149 87.592 86.2709 88.552 87.1349 89.384C88.0309 90.184 89.1349 90.856 90.4469 91.4C91.7589 91.912 93.2789 92.296 95.0069 92.552C96.8309 92.808 98.3349 93.176 99.5189 93.656C100.703 94.104 101.583 94.664 102.159 95.336C102.735 96.008 103.023 96.824 103.023 97.784C103.023 98.584 102.719 99.304 102.111 99.944C101.503 100.552 100.703 101.048 99.7109 101.432C98.7189 101.784 97.6309 101.96 96.4469 101.96C94.6869 101.96 93.1989 101.704 91.9829 101.192C90.7989 100.68 89.5989 99.928 88.3829 98.936C87.9029 98.552 87.3589 98.36 86.7509 98.36C85.9509 98.36 85.2789 98.648 84.7349 99.224C84.2229 99.768 83.9669 100.408 83.9669 101.144C83.9669 101.592 84.0789 102.04 84.3029 102.488C84.5269 102.936 84.8469 103.336 85.2629 103.688C86.8949 105.096 88.6069 106.088 90.3989 106.664Z" fill="black"/>
</svg>
