<svg width="151" height="58" viewBox="0 0 151 58" fill="none" xmlns="http://www.w3.org/2000/svg">
<path d="M0.077148 22.6665C0.231622 22.8329 0.695046 22.7378 2.07343 22.2744C2.85769 22.0248 3.51123 21.8347 3.535 21.8585C3.57065 21.8823 3.47558 23.2606 3.33299 24.9123C2.88145 30.3427 2.89333 33.9431 3.38052 37.5436C3.89148 41.4292 5.15104 43.7226 7.24238 44.5781C8.03852 44.8989 9.4882 44.8633 10.3319 44.4949C13.1124 43.2948 15.5127 40.0033 18.0675 33.9194C18.4834 32.9331 18.8517 32.2083 18.8993 32.2915C18.9349 32.3627 19.0062 33.2658 19.0537 34.2759C19.1844 37.6743 19.5409 38.922 20.5272 39.4805C22.7374 40.7162 25.2921 37.8288 28.1083 30.8893C28.5836 29.7129 28.9995 28.8336 29.0352 28.9287C29.0589 29.0237 29.1777 29.7486 29.2847 30.5328C29.3797 31.3171 29.5223 32.1964 29.5699 32.4935C29.6293 32.7905 29.7481 33.3728 29.8194 33.8005C30.1165 35.4641 30.1997 35.9038 30.3541 36.6524C30.4492 37.0802 30.6274 38.0427 30.77 38.7913C30.9126 39.5399 31.1146 40.6687 31.2453 41.2866C31.9702 45.0059 32.0652 45.7545 32.0771 47.7864C32.0771 50.0441 31.7325 51.4938 30.8651 52.8247C29.6055 54.7734 27.7518 55.8191 25.8981 55.5933C24.7336 55.4507 23.7355 54.9992 22.0125 53.8228C21.5847 53.5257 21.157 53.2881 21.0738 53.2881C20.4559 53.2881 21.0975 54.5595 22.3096 55.7716C23.0225 56.4726 23.4503 56.7935 24.2346 57.1737C26.2784 58.1719 28.037 58.1719 30.0333 57.1618C33.3129 55.5101 35.1547 52.4088 35.6419 47.7032C35.8796 45.4099 35.4755 40.3954 34.6794 35.9988C33.1703 27.5384 32.3623 24.3895 31.3998 23.1299C30.7938 22.3338 29.5342 22.0486 28.6549 22.5002C27.5261 23.0824 26.5992 24.4846 24.294 29.0594L22.6898 32.2558V30.2001C22.6898 27.7879 22.5235 25.6966 22.262 24.7935C21.8105 23.2369 20.5272 22.6427 19.125 23.3557C18.1507 23.8429 17.711 24.544 13.861 31.8399C12.6609 34.1214 11.3657 36.5336 10.9854 37.1871C9.86845 39.1359 8.81089 40.5261 8.51383 40.4192C8.28806 40.3479 7.97911 39.1477 7.82463 37.7575C7.69392 36.5098 7.72957 30.5804 7.94346 22.8923L8.01475 20.1236L9.79715 19.3513C10.7715 18.9235 11.8291 18.4719 12.138 18.3531C13.0886 17.961 15.9405 16.5113 17.5922 15.5488C20.1469 14.0872 21.4421 13.0534 21.359 12.5187C21.3352 12.293 21.2401 12.2217 20.9074 12.1979C19.5172 12.0553 15.1443 13.7426 10.1061 16.3449C8.97725 16.9272 8.03852 17.3906 8.02664 17.3787C7.95534 17.2243 8.20488 10.1303 8.37123 7.95579C8.597 4.87819 8.58512 4.35535 8.28806 4.16523C7.8484 3.89193 7.64639 4.35535 6.66013 7.78944C5.66199 11.2473 4.78268 14.9903 4.21231 18.1749C4.10536 18.7571 3.99842 19.3631 3.96277 19.5057C3.92712 19.684 3.41617 20.0642 2.18038 20.8128C1.22976 21.3832 0.350449 21.9536 0.21974 22.0724C-0.00603049 22.2863 -0.0654437 22.5239 0.077148 22.6665Z" fill="black"/>
<path d="M36.9083 34.0929C36.8783 35.985 36.9565 38.028 37.151 40.6035C37.6392 47.1796 37.905 48.7715 38.6374 49.5156C39.3038 50.1835 40.2875 50.2548 41.1727 49.7114C42.1707 49.0928 42.358 48.1532 43.0243 40.2788L43.5225 34.3938L43.787 34.8538C44.7367 36.5429 46.333 37.6952 47.8737 37.8069C50.8967 38.0142 54.7907 35.2466 56.3785 31.7518C56.5499 31.3592 56.56 31.3838 56.4939 32.2963C56.4273 33.5424 56.5641 35.4348 56.8094 36.489C57.2163 38.2699 57.8949 39.4271 58.9304 40.0979C59.7384 40.6211 61.575 40.8019 62.4593 40.4371C63.269 40.1146 64.4222 39.1617 65.131 38.26C66.3153 36.7137 67.7016 34.0264 68.6661 31.4038C69.1866 29.9761 69.2762 29.3988 68.9885 29.2588C68.7236 29.1324 68.1439 29.7337 66.9238 31.4442C63.9384 35.6478 61.0772 37.9303 60.4135 37.8822C60.0106 37.853 59.5594 37.0101 59.4056 36.0101C59.1988 34.5893 59.5415 31.6714 60.2386 28.958L60.4384 28.1742L60.7781 28.7469C61.8386 30.5513 63.9966 31.0652 65.2042 30.0209C66.7295 28.7019 67.8909 24.8426 67.4642 22.5123C67.0897 20.4479 65.0032 18.7835 63.4644 18.4813C62.7009 18.3306 61.7329 18.7013 60.8914 19.4623C59.783 20.4542 58.602 22.7751 57.8372 25.436C57.363 27.0458 57.2978 27.1244 57.2015 26.1524C57.0272 24.448 56.2993 22.6558 55.2501 21.3526C54.7242 20.7188 54.3656 20.4069 53.5999 19.9582L52.6168 19.3865L51.0752 19.2867C49.3914 19.1765 48.5108 19.3271 46.8778 19.995C45.0721 20.7457 43.0842 22.3648 41.9658 23.9874C41.3408 24.8832 40.4644 26.6187 40.2461 27.3296C40.0846 27.9136 39.9441 27.8796 39.8948 27.2445C39.8306 26.3225 39.2776 21.7909 39.1782 21.3548C39.0484 20.845 38.5777 20.7632 38.3656 21.2244C37.9854 22.0308 36.946 31.2721 36.9083 34.0929ZM44.4755 28.3154C44.6148 27.8727 44.9976 27.0308 45.3385 26.436C45.8432 25.5552 46.1306 25.2067 46.9831 24.4584C48.5974 23.0624 50.3853 22.3938 51.4151 22.814C52.0278 23.0728 52.7412 24.0777 53.0888 25.199C53.5106 26.6116 53.57 27.2711 53.3966 28.6763C53.148 30.7908 52.2845 32.3485 50.5677 33.8443C48.6237 35.5143 47.5537 35.4843 45.9801 33.6904C45.3425 32.9531 44.5058 31.6772 44.1561 30.9132C43.9601 30.494 44.0754 29.5611 44.4755 28.3154ZM61.6603 23.9738C62.2064 22.3574 63.76 21.0206 63.905 20.9913C64.0501 20.9621 64.1036 20.9531 64.2279 20.975C64.3804 21.0018 64.5847 21.1479 64.5847 21.1479C64.7944 21.3775 65.0893 21.9112 65.2378 22.327C65.4987 23.0012 65.5087 23.1926 65.4109 24.3768C65.2564 26.3433 64.3114 28.8601 63.7102 28.9357C63.1573 29.0028 60.9043 26.3494 61.1091 25.6614C61.1566 25.498 61.414 24.7423 61.6603 23.9738Z" fill="black"/>
<path d="M68.7125 37.1964C70.1652 38.9016 73.9338 40.1754 76.2854 39.7532C78.5182 39.3405 80.2256 37.5271 80.2218 35.5499C80.218 33.5356 80.238 31.6063 76.2624 27.6874C73.2628 24.7413 70.645 22.6748 70.4867 20.6329C70.4014 19.5099 70.5666 18.9341 71.1121 18.4225C72.1677 17.4644 73.7484 17.7584 76.8526 19.4976C78.8031 20.5892 79.2426 20.5048 77.8859 19.3099C75.9698 17.6056 73.5203 16.5242 71.9642 16.685C69.9093 16.9024 68.5459 18.4181 68.538 20.5067C68.5193 23.1801 69.4501 26.7931 73.2233 30.4432C76.568 33.6857 77.297 34.4199 77.1811 35.9703C77.1233 36.7966 77.0675 37.0496 76.2813 37.5733C75.3319 38.0973 74.8922 38.0378 73.7279 38.0307C71.9457 38.0248 71.3838 37.7196 69.8491 36.6457C69.3019 36.2569 68.8413 36.24 68.6632 36.259C68.2593 36.3061 68.2719 36.6867 68.7125 37.1964Z" fill="black"/>
<path d="M80.43 30.6581C80.6843 34.3635 82.5034 36.9842 85.3495 37.7617C85.9941 37.9312 86.3492 37.9644 86.9599 37.9057C89.738 37.6316 92.0598 36.0327 94.1486 32.9556C95.5848 30.8394 96.9947 27.1741 97.7128 23.7292C98.0179 22.2119 98.0305 22.2007 98.1871 22.5672C98.2818 22.7753 98.441 23.2967 98.5348 23.7189C98.6834 24.4182 98.6801 24.8704 98.4298 28.0576C97.9563 34.374 97.9248 35.0983 98.1209 35.8004C98.6408 37.6529 100.085 38.5845 101.925 38.2662C104.415 37.8439 107.092 35.671 109.322 32.2333L109.873 31.3854L110.134 31.9844C110.595 33.0357 111.391 33.6548 112.352 33.7123C113.764 33.7968 115.036 32.8255 116.318 30.7L116.886 29.7579L116.853 30.5178C116.811 31.2176 116.707 31.759 116.307 33.4611C116.227 33.8134 116.04 35.1473 115.893 36.4122C115.46 40.0528 115.475 45.9699 115.934 49.64C116.15 51.4028 116.54 53.2355 116.797 53.7152C117.332 54.7233 118.778 55.2147 119.748 54.7252C120.043 54.5762 120.371 54.2625 120.567 53.9648L120.896 53.4488L121.089 49.8296C121.184 47.8355 121.36 43.7034 121.472 40.6389C121.637 35.8991 121.898 32.1412 122.064 32.1512C122.088 32.1526 122.383 32.3845 122.747 32.6682C124.588 34.1236 126.511 34.0245 128.278 32.3447C129.2 31.4595 129.877 30.2977 130.284 28.8698C130.644 27.6177 130.714 26.6458 130.562 25.22C130.06 20.6784 127.92 18.0504 125.162 18.5876C124.102 18.7861 123.227 19.2813 122.231 20.2215C121.752 20.669 121.337 21.037 121.301 21.0348C121.266 21.0327 121.238 20.9001 121.248 20.734C121.283 20.141 120.791 18.814 120.365 18.3718C119.984 17.98 119.914 17.952 119.307 17.9632C118.114 17.9989 117.742 18.4409 116.831 20.9457C115.069 25.7208 113.553 29.356 113.19 29.6556C113.04 29.7776 113.267 27.5771 113.561 26.0472C113.649 25.5644 113.876 24.3638 114.065 23.3989C114.242 22.4215 114.446 21.41 114.51 21.14C114.643 20.5052 114.569 20.1437 114.217 19.6702C113.677 18.9356 112.528 18.843 111.706 19.4485C111.283 19.7564 111.054 20.2069 109.522 23.7221C108.255 26.5984 106.224 30.2861 104.983 31.9378C103.689 33.6578 101.869 35.2273 101.205 35.1875C100.885 35.1684 100.862 34.3575 101.122 32.5994C101.78 28.1748 101.879 27.1094 101.755 25.6021C101.529 22.815 100.794 20.9853 99.0388 18.8804C98.1837 17.8531 98.0103 17.5689 97.8567 16.9526C97.5031 15.5029 97.131 14.9569 96.2452 14.642C95.6516 14.416 94.8273 14.6642 94.4158 15.1752C93.9917 15.6974 93.9593 16.6359 94.3226 17.5266C94.594 18.1619 94.6085 18.3175 94.5261 19.6934C94.394 21.8996 93.9141 23.7517 92.6477 27.009C90.9741 31.3013 89.3088 33.6657 87.4268 34.4815C86.3036 34.95 85.5836 34.8473 84.8085 34.0748C84.1679 33.4412 83.8176 32.7298 83.5746 31.6201C82.7574 27.7738 85.9562 16.2995 87.8184 16.411C87.9608 16.4195 88.2948 16.6062 88.5562 16.8123C89.5664 17.6347 89.9058 16.7384 88.9656 15.7417C87.1304 13.7867 84.3596 16.3229 82.1257 22.0221C81.6611 23.2204 80.9452 25.8321 80.6749 27.3634C80.385 29.0245 80.349 29.4271 80.43 30.6581ZM122.603 28.9099C123.205 26.4222 123.631 25.2574 124.428 23.8885C124.958 22.9799 125.495 22.3573 125.733 22.3715C125.982 22.3865 126.596 23.2684 126.982 24.1724C127.743 25.9797 127.928 27.6574 127.516 29.1683C127.287 30.0117 126.629 31.0556 126.094 31.452C125.272 32.0457 123.946 31.7401 122.7 30.6656C122.293 30.3079 122.286 30.2241 122.603 28.9099Z" fill="black"/>
<path d="M112.35 15.8563C112.476 16.1376 112.734 16.3912 113.091 16.603C113.62 16.9085 113.644 16.9099 114.165 16.7507C114.602 16.6102 114.79 16.4548 115.168 15.906C115.676 15.1746 115.746 14.8097 115.497 14.1877C115.29 13.6754 114.513 13.1289 113.956 13.0955C112.734 13.0223 111.804 14.6332 112.35 15.8563Z" fill="black"/>
<path d="M118.97 16.7272C119.113 16.7823 119.897 16.9256 120.702 17.0358C122.579 17.2893 128.45 17.3114 130.712 17.0799C131.517 17.0027 132.213 16.9586 132.246 17.0027C132.279 17.0358 132.257 17.3334 132.191 17.642C131.904 18.9096 131.595 23.087 131.584 25.6111C131.562 29.4358 131.992 31.8056 133.085 34.021C135.678 39.2897 140.931 38.3307 144.131 31.9819C144.727 30.8026 145.113 29.6893 145.025 29.4027C144.882 28.9729 144.54 29.1823 143.679 30.2074C141.67 32.5992 140.037 34.0762 138.834 34.5942C138.029 34.9469 137.256 34.8587 136.737 34.3627C136.23 33.8888 135.888 33.1944 135.579 32.1032C135.38 31.3647 135.336 30.8466 135.292 28.8075C135.236 26.3275 135.248 26.1842 135.866 20.3204C135.965 19.4056 136.086 18.1821 136.13 17.5869C136.175 17.0027 136.241 16.4957 136.263 16.4737C136.285 16.4516 136.947 16.3304 137.742 16.1871C143.072 15.2723 148.855 13.9827 150.19 13.4095C150.819 13.1339 150.874 12.7923 150.322 12.6269C149.252 12.3183 140.666 12.7371 136.925 13.2883L136.439 13.3544L136.506 12.7041C136.55 12.3514 136.616 10.4445 136.649 8.47154C136.726 4.84523 136.616 2.13377 136.329 0.70088C136.208 0.0946582 136.163 0.0395474 135.899 0.00648078C135.49 -0.0376081 135.446 0.0836371 135.148 2.2991C134.916 3.9855 134.343 6.97252 133.669 10.0147C133.184 12.175 133.14 12.3624 133.007 13.1009C132.864 13.8945 132.941 13.8504 131.341 14.0929C130.977 14.148 129.068 14.4676 127.092 14.7983C125.117 15.129 122.512 15.5368 121.309 15.6911C120.107 15.8454 119.025 16.0218 118.904 16.0879C118.617 16.2422 118.65 16.617 118.97 16.7272Z" fill="black"/>
</svg>
