<svg width="295" height="91" viewBox="0 0 295 91" fill="none" xmlns="http://www.w3.org/2000/svg">
<mask id="mask0_638_24" style="mask-type:luminance" maskUnits="userSpaceOnUse" x="0" y="0" width="91" height="91">
<path d="M0 0H90.3935V90.3935H0V0Z" fill="white"/>
</mask>
<g mask="url(#mask0_638_24)">
<path d="M87.6761 29.7615C87.4826 29.2316 87.2794 28.7048 87.0666 28.1821C86.8539 27.6595 86.6314 27.1411 86.3987 26.6269C86.1666 26.1127 85.9249 25.6027 85.6735 25.0975C85.4222 24.5918 85.1611 24.0914 84.8911 23.5959C84.621 23.1004 84.3419 22.6103 84.0538 22.125C83.765 21.6404 83.4678 21.1605 83.161 20.6867C82.8548 20.2129 82.5395 19.7445 82.2158 19.2828C81.8921 18.8204 81.5593 18.3647 81.2181 17.915C80.8775 17.4653 80.5279 17.0222 80.1704 16.5852C79.813 16.1487 79.447 15.7189 79.0733 15.2957C78.7002 14.8732 78.3186 14.4572 77.9292 14.0485C77.5397 13.6398 77.1431 13.2389 76.7392 12.8447C76.3347 12.451 75.923 12.0652 75.5046 11.6867C75.0857 11.3081 74.6601 10.938 74.2279 10.5751C73.795 10.2128 73.3556 9.85894 72.9101 9.51232C72.464 9.1663 72.0119 8.82933 71.5538 8.50019C71.095 8.17105 70.6309 7.85035 70.1601 7.5387C69.6899 7.22704 69.2136 6.92443 68.732 6.63025C68.2497 6.33668 67.7627 6.05155 67.2702 5.77606C66.7777 5.50057 66.2803 5.23413 65.7782 4.97673C65.2754 4.71993 64.7685 4.47217 64.2567 4.23466C63.7449 3.99655 63.2289 3.76808 62.7086 3.54926C62.1884 3.33044 61.6646 3.12186 61.1365 2.92233C60.6084 2.7234 60.0768 2.53412 59.5414 2.35508C59.0061 2.17604 58.4678 2.00665 57.9265 1.84751C57.3852 1.68836 56.8408 1.53947 56.2941 1.40082C55.7467 1.26217 55.1976 1.13377 54.6454 1.01562C54.0938 0.897469 53.5398 0.790167 52.984 0.692511C52.4276 0.594855 51.8706 0.50805 51.3112 0.431492C50.7518 0.354934 50.1918 0.289227 49.6299 0.233768C49.0687 0.178309 48.5057 0.133098 47.9427 0.0987372C47.3796 0.0643767 46.8154 0.040264 46.2512 0.0270021C45.9009 0.0185626 45.5495 0.0137401 45.1968 0.0137401C43.8176 0.0113289 42.4414 0.0728161 41.0681 0.197599C39.6943 0.321779 38.3295 0.509255 36.9732 0.759424C35.6175 1.00959 34.2756 1.32125 32.9476 1.69439C31.6202 2.06754 30.3127 2.50096 29.0251 2.99467C27.7369 3.48837 26.4746 4.03995 25.2376 4.6494C24.0006 5.25885 22.7944 5.92375 21.6183 6.64412C20.4422 7.36448 19.3016 8.13729 18.1967 8.96255C17.0917 9.7878 16.0271 10.6619 15.003 11.5848C5.79976 19.8566 0.0103149 31.8515 0.0103149 45.2002C0.0109179 46.9538 0.112794 48.702 0.314737 50.4441C0.452782 51.6359 0.637847 52.8204 0.870534 53.9978C1.10322 55.1751 1.38233 56.3409 1.70845 57.4959C2.03397 58.6509 2.40591 59.7908 2.82306 60.9163C3.2396 62.0411 3.70136 63.1479 4.20652 64.236C4.71228 65.3247 5.26024 66.3911 5.85161 67.4351C6.44237 68.4798 7.07351 69.4986 7.74626 70.4926C8.4184 71.4867 9.12972 72.4524 9.87902 73.3891C10.6283 74.3265 11.4144 75.232 12.2366 76.106C20.4802 84.8945 32.1965 90.3862 45.1968 90.3862C47.0589 90.3892 48.9144 90.2764 50.7632 90.0492C52.6115 89.8213 54.4386 89.4801 56.2446 89.0256C58.0513 88.5705 59.8224 88.0062 61.5579 87.3317C63.294 86.6565 64.9819 85.8771 66.6209 84.9928C80.7684 77.3599 90.3833 62.4034 90.3833 45.2002C90.3858 42.5677 90.1597 39.9551 89.7052 37.3624C89.2507 34.7697 88.5743 32.2361 87.6761 29.7615Z" fill="#CFF3C3"/>
</g>
<mask id="mask1_638_24" style="mask-type:luminance" maskUnits="userSpaceOnUse" x="3" y="17" width="88" height="69">
<path d="M3.68866 17.1147H90.3936V85.016H3.68866V17.1147Z" fill="white"/>
</mask>
<g mask="url(#mask1_638_24)">
<path d="M76.8151 40.5522C76.0351 43.3011 76.152 46.2784 75.0922 48.9314C72.8214 54.6159 64.6882 56.9018 59.7885 53.2325C54.8051 49.5004 54.3976 42.3818 53.0268 36.3078C52.4221 33.6367 51.5613 31.0512 50.4431 28.5508C49.3249 26.0509 47.9721 23.6848 46.3837 21.4532C45.2751 19.8973 43.9803 18.3595 42.2086 17.6452C39.4073 16.5149 36.2317 17.7278 33.5992 19.2089C30.7491 20.8124 28.0322 22.8029 26.1894 25.5047C24.3466 28.2065 23.4803 31.7149 24.4973 34.8231C25.2297 37.0601 26.8585 38.9391 27.4583 41.2153C28.8828 46.6232 24.0548 51.7061 19.0544 54.2114C14.0541 56.7161 8.2357 58.1243 4.49703 62.2838C4.22998 62.5809 3.97861 62.8872 3.7417 63.2018C4.77734 65.58 6.00769 67.8526 7.43395 70.0197C8.86021 72.1862 10.4613 74.2153 12.2366 76.1063C19.5867 73.3858 27.0496 69.731 30.051 62.6671C31.0059 60.4211 31.426 57.9634 32.5171 55.78C33.6082 53.596 35.6608 51.6193 38.1016 51.6651C39.3886 51.6893 40.5967 52.271 41.7059 52.9238C42.812 53.5785 43.8633 54.3121 44.8586 55.1247C45.8544 55.9373 46.784 56.8198 47.6466 57.7723C48.5093 58.7247 49.2965 59.7363 50.0073 60.8069C50.718 61.8781 51.3443 62.9957 51.8868 64.1609C54.96 70.801 55.6249 79.3441 61.7941 83.2774C63.262 84.213 64.9095 84.761 66.6209 84.9937C80.769 77.3602 90.3833 62.4037 90.3833 45.2005C90.3857 42.568 90.1596 39.9554 89.7051 37.3627C89.2506 34.77 88.5742 32.2364 87.676 29.7618C87.1896 29.9457 86.7073 30.1428 86.2329 30.3598C81.892 32.3473 78.1178 35.96 76.8151 40.5522Z" fill="#E8FFD4"/>
</g>
<mask id="mask2_638_24" style="mask-type:luminance" maskUnits="userSpaceOnUse" x="0" y="0" width="88" height="64">
<path d="M0.293579 0H87.7936V63.2565H0.293579V0Z" fill="white"/>
</mask>
<g mask="url(#mask2_638_24)">
<path d="M14.9608 29.7157C15.3967 33.9475 15.3774 38.1774 14.9024 42.405C14.6926 44.2701 14.3303 46.257 13.0131 47.5934C11.8991 48.7231 10.2902 49.1897 8.73918 49.5237C5.96261 50.1186 3.15469 50.4255 0.314819 50.4442C0.568605 52.6432 0.982137 54.8116 1.55662 56.9497C2.1305 59.0873 2.85931 61.1713 3.74183 63.2016C3.97934 62.8875 4.23132 62.5813 4.49716 62.2835C8.23583 58.124 14.0542 56.7159 19.0546 54.2112C24.0549 51.7058 28.8829 46.6229 27.4584 41.215C26.8586 38.9388 25.2298 37.0598 24.4974 34.8228C23.4805 31.7146 24.3467 28.2063 26.1895 25.5044C28.0323 22.8026 30.7492 20.8121 33.5993 19.2086C36.2318 17.7275 39.4075 16.5146 42.2088 17.6449C43.9804 18.3593 45.2753 19.8976 46.3839 21.4529C47.9723 23.6845 49.325 26.0506 50.4432 28.5505C51.5614 31.0509 52.4223 33.6364 53.0269 36.3075C54.3977 42.3815 54.8052 49.5001 59.7887 53.2322C64.6884 56.9015 72.8216 54.6156 75.0924 48.9311C76.1521 46.2781 76.0352 43.3008 76.8152 40.5519C78.1179 35.9597 81.8922 32.347 86.233 30.3595C86.7075 30.1425 87.1897 29.9454 87.6762 29.7615C86.9974 27.9006 86.1999 26.0916 85.2842 24.335C84.3685 22.579 83.3413 20.8899 82.2038 19.2677C81.0663 17.6461 79.8275 16.1059 78.4874 14.6465C77.1474 13.1877 75.7181 11.8223 74.199 10.551C73.3515 11.2545 72.6606 12.0869 72.1247 13.049C71.3254 14.506 70.9884 16.1644 70.6623 17.7938C70.0962 20.6198 69.5308 23.4452 68.9648 26.2706C68.7164 27.5106 68.427 28.8296 67.5258 29.7169C66.3558 30.8695 64.4804 30.9473 62.8872 30.5452C59.7127 29.7452 57.1122 27.3822 55.3375 24.6316C53.5628 21.8803 52.5073 18.739 51.4692 15.6339C49.7301 10.4316 47.991 5.22931 46.2512 0.0270021C45.901 0.0185626 45.5496 0.0137401 45.1969 0.0137401C43.8177 0.0113289 42.4414 0.0728161 41.0682 0.197599C39.6944 0.322382 38.3296 0.509255 36.9733 0.759424C35.6176 1.00959 34.2757 1.32125 32.9477 1.69439C31.6203 2.06754 30.3128 2.50096 29.0252 2.99467C27.7369 3.48837 26.4746 4.03995 25.2377 4.6494C24.0007 5.25885 22.7944 5.92375 21.6184 6.64412C20.4423 7.36448 19.3017 8.13729 18.1968 8.96255C17.0918 9.78781 16.0272 10.6619 15.003 11.5848C14.7191 12.3612 14.4882 13.1533 14.3104 13.9605C13.1783 19.1212 14.4195 24.4598 14.9608 29.7157Z" fill="#E8FFD4"/>
</g>
<path d="M45.1968 87.9602C21.6188 87.9602 2.43658 68.778 2.43658 45.2006C2.43658 21.6226 21.6188 2.44043 45.1968 2.44043C68.7741 2.44043 87.9563 21.6226 87.9563 45.2006C87.9563 68.778 68.7741 87.9602 45.1968 87.9602ZM45.1968 2.77861C21.8051 2.77861 2.77476 21.8089 2.77476 45.2006C2.77476 68.5917 21.8051 87.622 45.1968 87.622C68.5878 87.622 87.6182 68.5917 87.6182 45.2006C87.6182 21.8089 68.5878 2.77861 45.1968 2.77861Z" fill="#C7E8B5"/>
<path d="M45.1968 84.9606C23.2724 84.9606 5.43622 67.1244 5.43622 45.2006C5.43622 23.2762 23.2724 5.43945 45.1968 5.43945C67.1206 5.43945 84.9567 23.2762 84.9567 45.2006C84.9567 67.1244 67.1206 84.9606 45.1968 84.9606ZM45.1968 5.77763C23.4592 5.77763 5.7738 23.4625 5.7738 45.2006C5.7738 66.9382 23.4592 84.6224 45.1968 84.6224C66.9343 84.6224 84.6186 66.9382 84.6186 45.2006C84.6186 23.4625 66.9343 5.77763 45.1968 5.77763Z" fill="#C7E8B5"/>
<path d="M45.1968 81.8024C25.0139 81.8024 8.59436 65.3828 8.59436 45.2006C8.59436 25.0177 25.0139 8.59814 45.1968 8.59814C65.3797 8.59814 81.7992 25.0177 81.7992 45.2006C81.7992 65.3828 65.3797 81.8024 45.1968 81.8024ZM45.1968 8.93572C25.2001 8.93572 8.93254 25.2039 8.93254 45.2006C8.93254 65.1966 25.2001 81.4648 45.1968 81.4648C65.1928 81.4648 81.461 65.1966 81.461 45.2006C81.461 25.2039 65.1928 8.93572 45.1968 8.93572Z" fill="#C7E8B5"/>
<path d="M45.1968 78.5648C26.7994 78.5648 11.8315 63.5981 11.8315 45.2007C11.8315 26.8028 26.7994 11.8354 45.1968 11.8354C63.5941 11.8354 78.5614 26.8028 78.5614 45.2007C78.5614 63.5981 63.5941 78.5648 45.1968 78.5648ZM45.1968 12.1736C26.9857 12.1736 12.1697 26.9897 12.1697 45.2007C12.1697 63.4112 26.9857 78.2266 45.1968 78.2266C63.4072 78.2266 78.2233 63.4112 78.2233 45.2007C78.2233 26.9897 63.4072 12.1736 45.1968 12.1736Z" fill="#C7E8B5"/>
<path d="M45.1967 75.4854C28.4975 75.4854 14.9113 61.8998 14.9113 45.2005C14.9113 28.5007 28.4975 14.915 45.1967 14.915C61.896 14.915 75.4816 28.5007 75.4816 45.2005C75.4816 61.8998 61.896 75.4854 45.1967 75.4854ZM45.1967 15.2532C28.6838 15.2532 15.2494 28.6876 15.2494 45.2005C15.2494 61.7129 28.6838 75.1472 45.1967 75.1472C61.7091 75.1472 75.1435 61.7129 75.1435 45.2005C75.1435 28.6876 61.7091 15.2532 45.1967 15.2532Z" fill="#C7E8B5"/>
<path d="M45.1967 72.4787C30.1547 72.4787 17.9175 60.2415 17.9175 45.2006C17.9175 30.1586 30.1547 17.9214 45.1967 17.9214C60.2382 17.9214 72.4754 30.1586 72.4754 45.2006C72.4754 60.2415 60.2382 72.4787 45.1967 72.4787ZM45.1967 18.2596C30.3415 18.2596 18.2557 30.3454 18.2557 45.2006C18.2557 60.0552 30.3415 72.1405 45.1967 72.1405C60.0513 72.1405 72.1372 60.0552 72.1372 45.2006C72.1372 30.3454 60.0513 18.2596 45.1967 18.2596Z" fill="#C7E8B5"/>
<path d="M45.1968 69.2881C31.9143 69.2881 21.1088 58.482 21.1088 45.2007C21.1088 31.9183 31.9143 21.1128 45.1968 21.1128C58.4786 21.1128 69.2841 31.9183 69.2841 45.2007C69.2841 58.482 58.4786 69.2881 45.1968 69.2881ZM45.1968 21.4504C32.1012 21.4504 21.447 32.1045 21.447 45.2007C21.447 58.2963 32.1012 68.9499 45.1968 68.9499C58.2924 68.9499 68.9459 58.2963 68.9459 45.2007C68.9459 32.1045 58.2924 21.4504 45.1968 21.4504Z" fill="#C7E8B5"/>
<path d="M60.7163 32.2164C60.0888 31.4635 59.41 30.76 58.6794 30.106C57.9494 29.4525 57.1753 28.8551 56.3573 28.3144C55.5399 27.7737 54.6869 27.2956 53.799 26.8797C52.9116 26.4644 51.9984 26.1153 51.0598 25.8332V25.8266C49.1476 25.2485 47.1939 24.9597 45.1968 24.9609C34.0188 24.9609 24.9572 34.0219 24.9572 45.2005C24.9572 45.5314 24.9657 45.8624 24.9819 46.1933C24.9988 46.5237 25.0229 46.854 25.0555 47.1838C25.0886 47.5129 25.129 47.842 25.1778 48.1694C25.2267 48.4967 25.2833 48.8228 25.3478 49.1477C25.4129 49.4727 25.4853 49.7958 25.5661 50.1171C25.6468 50.4384 25.7355 50.7573 25.8313 51.0737C25.9277 51.3908 26.0314 51.7055 26.1436 52.0172C26.2551 52.3288 26.3744 52.6374 26.501 52.9437C26.6282 53.2493 26.762 53.5519 26.9037 53.8515C27.0454 54.1511 27.1943 54.4465 27.3504 54.7389C27.5071 55.0306 27.6699 55.3188 27.8405 55.6027C28.0105 55.8866 28.1877 56.1663 28.3722 56.4418C28.556 56.7173 28.7465 56.988 28.9442 57.2538C29.1414 57.5197 29.3451 57.7807 29.5549 58.0369C29.7653 58.2925 29.9817 58.5432 30.2041 58.7886C30.4266 59.0339 30.6544 59.2739 30.8889 59.5077C31.1228 59.7422 31.3627 59.9707 31.6081 60.1931C31.8534 60.4156 32.1042 60.6314 32.3604 60.8418C32.616 61.0516 32.877 61.2553 33.1429 61.453C33.4093 61.6502 33.68 61.8406 33.9549 62.0251C34.2303 62.209 34.51 62.3862 34.794 62.5562C35.0779 62.7268 35.366 62.8902 35.6584 63.0463C35.9502 63.2024 36.2462 63.3513 36.5452 63.493C36.8448 63.6346 37.1474 63.7691 37.453 63.8956C37.7592 64.0222 38.0679 64.1416 38.3795 64.2537C38.6918 64.3652 39.0059 64.4689 39.3229 64.5654C39.6394 64.6618 39.9589 64.7498 40.2802 64.8306C40.6009 64.9114 40.924 64.9837 41.2489 65.0488C41.5738 65.1133 41.9 65.17 42.2273 65.2188C42.5552 65.2677 42.8838 65.3086 43.2129 65.3412C43.5426 65.3738 43.873 65.3985 44.2039 65.4147C44.5343 65.431 44.8652 65.4395 45.1968 65.4395C56.3748 65.4395 65.4363 56.3779 65.4363 45.2005C65.4369 44.6122 65.4122 44.0256 65.3622 43.4397C65.3116 42.8537 65.2356 42.2714 65.1343 41.6921C65.0331 41.1128 64.9065 40.5395 64.7546 39.9717C64.6026 39.4032 64.4266 38.8432 64.2259 38.2904C64.0245 37.7382 63.8003 37.1951 63.5513 36.6622C63.303 36.1293 63.0317 35.6085 62.7375 35.0997C62.4434 34.5903 62.1275 34.0948 61.7899 33.6138C61.4523 33.1321 61.0942 32.6667 60.7163 32.2164ZM42.6541 45.2005C42.6541 45.1167 42.6583 45.0341 42.6662 44.9509C42.6746 44.8684 42.6866 44.7858 42.7029 44.7044C42.7192 44.6224 42.7391 44.5416 42.7632 44.4621C42.7879 44.3825 42.8157 44.3041 42.8476 44.227C42.8795 44.1504 42.9151 44.075 42.9543 44.0015C42.9935 43.928 43.0363 43.8568 43.0827 43.7875C43.1285 43.7182 43.1785 43.6513 43.231 43.5874C43.284 43.5229 43.3401 43.4614 43.3986 43.4023C43.4576 43.3432 43.5191 43.2878 43.5836 43.2347C43.6481 43.1817 43.7151 43.1322 43.7838 43.0858C43.8531 43.04 43.9248 42.9972 43.9978 42.958C44.0713 42.9188 44.1467 42.8833 44.2238 42.8513C44.3004 42.8194 44.3788 42.791 44.4583 42.7669C44.5385 42.7428 44.6187 42.7229 44.7007 42.7067C44.782 42.6904 44.8646 42.6777 44.9472 42.6699C45.0304 42.6614 45.1136 42.6578 45.1968 42.6578C45.28 42.6578 45.3632 42.6614 45.4457 42.6699C45.5289 42.6777 45.6109 42.6904 45.6929 42.7067C45.7743 42.7229 45.8551 42.7428 45.9346 42.7669C46.0142 42.791 46.0926 42.8194 46.1697 42.8513C46.2463 42.8833 46.3216 42.9188 46.3952 42.958C46.4687 42.9972 46.5399 43.04 46.6092 43.0858C46.6785 43.1322 46.7454 43.1817 46.8099 43.2347C46.8738 43.2878 46.9359 43.3432 46.9944 43.4023C47.0534 43.4614 47.1095 43.5229 47.162 43.5874C47.215 43.6513 47.2644 43.7182 47.3109 43.7875C47.3567 43.8568 47.3995 43.928 47.4393 44.0015C47.4784 44.075 47.514 44.1504 47.546 44.227C47.5773 44.3041 47.6056 44.3825 47.6297 44.4621C47.6539 44.5416 47.6744 44.6224 47.6906 44.7044C47.7069 44.7858 47.719 44.8684 47.7268 44.9509C47.7352 45.0341 47.7395 45.1167 47.7395 45.2005C47.7395 45.2837 47.7352 45.3663 47.7268 45.4495C47.719 45.5321 47.7069 45.6146 47.6906 45.696C47.6744 45.778 47.6539 45.8588 47.6297 45.9384C47.6056 46.0179 47.5773 46.0963 47.546 46.1734C47.514 46.25 47.4784 46.3254 47.4393 46.3989C47.3995 46.4724 47.3573 46.5436 47.3109 46.6129C47.2644 46.6822 47.215 46.7491 47.162 46.813C47.1095 46.8775 47.0534 46.939 46.9944 46.9981C46.9359 47.0572 46.8738 47.1126 46.8099 47.1657C46.7454 47.2187 46.6785 47.2682 46.6092 47.3146C46.5399 47.3604 46.4687 47.4032 46.3952 47.4424C46.3216 47.4816 46.2463 47.5171 46.1697 47.5491C46.0926 47.581 46.0142 47.6094 45.9346 47.6335C45.8551 47.6576 45.7743 47.6775 45.6929 47.6938C45.6109 47.71 45.5289 47.7227 45.4457 47.7305C45.3632 47.739 45.28 47.7426 45.1968 47.7426C45.1136 47.7432 45.0304 47.739 44.9472 47.7311C44.8646 47.7227 44.782 47.7106 44.7007 47.6944C44.6187 47.6781 44.5379 47.6582 44.4583 47.6341C44.3788 47.61 44.3004 47.5816 44.2232 47.5503C44.1461 47.5183 44.0707 47.4828 43.9972 47.4436C43.9242 47.4044 43.8525 47.3616 43.7832 47.3152C43.7138 47.2688 43.6469 47.2193 43.583 47.1669C43.5185 47.1138 43.4564 47.0578 43.398 46.9987C43.3389 46.9402 43.2828 46.8781 43.2304 46.8142C43.1773 46.7497 43.1279 46.6828 43.0815 46.6135C43.0351 46.5442 42.9929 46.473 42.9531 46.3995C42.9139 46.326 42.8783 46.2506 42.847 46.1734C42.815 46.0969 42.7867 46.0185 42.7626 45.9384C42.7385 45.8588 42.7186 45.778 42.7023 45.6966C42.686 45.6146 42.674 45.5327 42.6662 45.4495C42.6577 45.3669 42.6541 45.2837 42.6541 45.2005Z" fill="#1A1A1A"/>
<path d="M45.1967 61.8679C36.0062 61.8679 28.5289 54.3905 28.5289 45.2C28.5289 36.0094 36.0062 28.5327 45.1967 28.5327C54.3873 28.5327 61.8646 36.0094 61.8646 45.2C61.8646 54.3905 54.3873 61.8679 45.1967 61.8679ZM45.1967 29.2091C36.3793 29.2091 29.2052 36.3826 29.2052 45.2C29.2052 54.018 36.3793 61.1915 45.1967 61.1915C54.0141 61.1915 61.1883 54.018 61.1883 45.2C61.1883 36.3826 54.0141 29.2091 45.1967 29.2091Z" fill="#5ADF93"/>
<path d="M28.0641 28.1381C27.5318 28.659 27.0568 29.0219 26.639 29.2256C26.2225 29.4282 25.8119 29.5312 25.4069 29.5343L24.8185 27.7523C25.1253 27.7686 25.4418 27.6872 25.7685 27.5088C26.0965 27.3304 26.3906 27.1145 26.6511 26.8602C27.0622 26.4587 27.3244 25.9963 27.4371 25.4737C27.5511 24.9498 27.5167 24.4103 27.3335 23.8557C27.1502 23.2999 26.8331 22.7707 26.3834 22.2691C26.2821 22.1485 26.1411 21.9966 25.9614 21.8134C26.1429 22.4114 26.1326 23.0039 25.9301 23.5905C25.7275 24.1776 25.3906 24.6997 24.9198 25.1578C24.3941 25.6726 23.8239 25.9939 23.2078 26.1223C22.5905 26.2495 21.9841 26.2043 21.3873 25.9873C20.7911 25.7691 20.2516 25.4128 19.7693 24.9191C19.1779 24.3133 18.7952 23.6544 18.6215 22.9419C18.4467 22.2299 18.4793 21.521 18.7204 20.8151C18.9603 20.108 19.3895 19.4521 20.008 18.8475C20.5337 18.3351 21.1721 17.9867 21.9226 17.8034C22.6719 17.6202 23.5104 17.6943 24.4375 18.0253C25.3634 18.355 26.3111 19.0157 27.2804 20.0073C28.1786 20.9272 28.8073 21.8845 29.166 22.8792C29.5241 23.8726 29.6073 24.825 29.4144 25.7365C29.2215 26.6468 28.7712 27.4473 28.0641 28.1381ZM24.1216 23.5423C24.3821 23.2867 24.5677 22.9774 24.6786 22.6139C24.7896 22.2492 24.8143 21.8833 24.7534 21.5168C24.6919 21.1491 24.5448 20.8284 24.3097 20.5547C23.9963 20.2352 23.6533 19.9923 23.2801 19.8265C22.9058 19.6613 22.5344 19.5992 22.1661 19.6408C21.7984 19.6812 21.4705 19.8428 21.1823 20.1255C20.9207 20.3811 20.7374 20.6843 20.6325 21.0345C20.5283 21.3836 20.5234 21.7495 20.6181 22.1317C20.7133 22.5145 20.9207 22.8695 21.2402 23.1974C21.7164 23.6845 22.2095 23.9666 22.7207 24.0438C23.2319 24.121 23.6991 23.954 24.1216 23.5423Z" fill="black"/>
<path d="M35.0949 23.2114C33.7687 23.8323 32.5588 23.7943 31.4659 23.0981C30.3748 22.4006 29.4248 21.1877 28.6158 19.4595C27.7399 17.5883 27.4174 16.0319 27.6489 14.7888C27.8792 13.5464 28.6194 12.6326 29.8697 12.0472C31.1199 11.4607 32.296 11.477 33.3974 12.0955C34.4999 12.7146 35.4891 13.9594 36.3656 15.8305C37.174 17.5588 37.4953 19.0658 37.3301 20.3516C37.1662 21.6362 36.4211 22.5893 35.0949 23.2114ZM34.3474 21.5741C35.4964 21.0358 35.4548 19.4492 34.222 16.8143C32.979 14.1607 31.783 13.1028 30.634 13.6411C29.4658 14.1878 29.5026 15.7883 30.745 18.4419C31.3104 19.6524 31.8976 20.5494 32.5052 21.1329C33.114 21.7164 33.7283 21.8635 34.3474 21.5741Z" fill="black"/>
<path d="M46.0525 16.2198L42.807 16.5983L43.2 19.9765L41.394 20.1887L41.0009 16.8105L37.8735 17.1746L37.683 15.535L40.8105 15.1709L40.4198 11.8264L42.2259 11.6143L42.6165 14.9587L45.8621 14.5801L46.0525 16.2198Z" fill="black"/>
<path d="M55.4886 20.6638L54.9871 22.4457L49.5569 20.9218L52.7301 9.625L54.7869 10.2013L52.1152 19.7161L55.4886 20.6638Z" fill="black"/>
<path d="M64.0401 14.2118C65.1685 14.9063 65.8992 15.7231 66.2319 16.6617C66.5647 17.5991 66.3416 18.7016 65.564 19.9699C65.1408 20.6584 64.6224 21.2111 64.0087 21.6289C63.3963 22.0466 62.7103 22.2643 61.9519 22.2823C61.1948 22.2998 60.4117 22.0605 59.6033 21.5638L58.7136 21.0164L57.0643 23.7002L55.2148 22.5645L61.3587 12.5649L64.0401 14.2118ZM60.3967 19.9796C61.0236 20.3654 61.6107 20.4685 62.1593 20.2882C62.7091 20.1086 63.2058 19.6577 63.6495 18.9355C63.9581 18.4328 64.1462 17.9867 64.2137 17.5973C64.2824 17.2084 64.2215 16.8498 64.0304 16.5218C63.8405 16.1927 63.5096 15.8828 63.037 15.5935L62.3184 15.1498L59.6371 19.5118L60.3967 19.9796Z" fill="black"/>
<path d="M62.8517 28.4488C62.308 27.8604 61.9547 27.3305 61.7908 26.8597C61.6268 26.3883 61.5641 26.0043 61.6027 25.7071L63.2038 25.0778C63.252 26.0116 63.5492 26.7753 64.0959 27.3685C64.3431 27.6368 64.5818 27.7845 64.8121 27.8122C65.0418 27.8411 65.2371 27.7814 65.398 27.6337C65.5698 27.4746 65.6259 27.2148 65.5668 26.8549C65.5071 26.4944 65.3697 26.0043 65.1545 25.384C65.0158 24.9856 64.9182 24.6185 64.8603 24.2821C64.8024 23.9445 64.8181 23.5919 64.9085 23.2235C65.0002 22.854 65.213 22.5146 65.5475 22.206C65.9189 21.8636 66.327 21.6574 66.7725 21.5863C67.2191 21.5158 67.6779 21.5875 68.1493 21.8009C68.6201 22.0149 69.0824 22.3669 69.5358 22.857C69.8058 23.15 70.0277 23.4544 70.2013 23.7709C70.3761 24.088 70.5009 24.3803 70.575 24.6486C70.6486 24.9156 70.6823 25.1278 70.6763 25.2852L69.1741 25.8928C69.1433 25.5685 69.0656 25.2369 68.9402 24.8994C68.816 24.5606 68.6346 24.2616 68.3952 24.0024C68.1089 23.6925 67.8678 23.5117 67.6719 23.4598C67.4753 23.4086 67.2842 23.4689 67.098 23.6407C66.9129 23.8113 66.8424 24.0458 66.8858 24.3448C66.9304 24.6426 67.0552 25.0531 67.2595 25.5769C67.5501 26.3305 67.6827 26.9936 67.6574 27.5662C67.6333 28.1401 67.4054 28.6254 66.975 29.0226C66.6181 29.3518 66.2179 29.5688 65.7742 29.6737C65.3317 29.7798 64.8603 29.7376 64.3588 29.5483C63.8572 29.3602 63.3545 28.9937 62.8517 28.4488Z" fill="black"/>
<mask id="mask3_638_24" style="mask-type:luminance" maskUnits="userSpaceOnUse" x="102" y="0" width="91" height="91">
<path d="M102.394 0H192.064V90.3935H102.394V0Z" fill="white"/>
</mask>
<g mask="url(#mask3_638_24)">
<path d="M189.368 29.7615C189.176 29.2316 188.975 28.7048 188.764 28.1821C188.553 27.6595 188.332 27.1411 188.101 26.6269C187.871 26.1127 187.631 25.6027 187.382 25.0975C187.132 24.5918 186.873 24.0914 186.605 23.5959C186.338 23.1004 186.061 22.6103 185.775 22.125C185.488 21.6404 185.194 21.1605 184.889 20.6867C184.585 20.2129 184.273 19.7445 183.952 19.2828C183.63 18.8204 183.3 18.3647 182.962 17.915C182.624 17.4653 182.277 17.0222 181.923 16.5852C181.568 16.1487 181.205 15.7189 180.834 15.2957C180.464 14.8732 180.086 14.4572 179.699 14.0485C179.313 13.6398 178.919 13.2389 178.519 12.8447C178.118 12.451 177.709 12.0652 177.294 11.6867C176.878 11.3081 176.456 10.938 176.028 10.5751C175.598 10.2128 175.162 9.85894 174.72 9.51292C174.278 9.1663 173.829 8.82933 173.375 8.50019C172.92 8.17105 172.459 7.85035 171.992 7.5387C171.526 7.22704 171.053 6.92443 170.576 6.63025C170.097 6.33668 169.614 6.05155 169.126 5.77606C168.637 5.50057 168.144 5.23413 167.645 4.97673C167.147 4.71993 166.644 4.47217 166.136 4.23466C165.628 3.99655 165.117 3.76808 164.6 3.54926C164.084 3.33044 163.565 3.12186 163.041 2.92233C162.517 2.7234 161.99 2.53412 161.459 2.35508C160.928 2.17604 160.394 2.00665 159.857 1.84751C159.32 1.68836 158.78 1.53947 158.237 1.40082C157.694 1.26217 157.149 1.13377 156.602 1.01562C156.055 0.897469 155.505 0.790167 154.954 0.692511C154.402 0.594855 153.849 0.50805 153.294 0.431492C152.739 0.354934 152.184 0.289227 151.626 0.233768C151.07 0.178309 150.511 0.133098 149.953 0.0987372C149.394 0.0643767 148.834 0.040264 148.275 0.0270021C147.927 0.0185626 147.579 0.0137401 147.229 0.0137401C145.861 0.0113289 144.495 0.0728161 143.133 0.197599C141.77 0.321779 140.416 0.509255 139.071 0.759424C137.726 1.00959 136.395 1.32125 135.078 1.69439C133.761 2.06754 132.464 2.50096 131.186 2.99467C129.908 3.48837 128.656 4.03995 127.429 4.6494C126.202 5.25885 125.006 5.92375 123.839 6.64412C122.672 7.36448 121.541 8.13729 120.445 8.96255C119.349 9.7878 118.292 10.6619 117.276 11.5848C108.147 19.8566 102.404 31.8515 102.404 45.2002C102.404 46.9538 102.505 48.702 102.706 50.4441C102.843 51.6359 103.026 52.8204 103.257 53.9978C103.488 55.1751 103.765 56.3409 104.088 57.4959C104.411 58.6509 104.78 59.7908 105.194 60.9163C105.607 62.0411 106.065 63.1479 106.566 64.236C107.068 65.3247 107.612 66.3911 108.198 67.4351C108.784 68.4798 109.41 69.4986 110.078 70.4926C110.745 71.4867 111.45 72.4524 112.194 73.3891C112.937 74.3265 113.717 75.232 114.532 76.106C122.71 84.8945 134.332 90.3862 147.229 90.3862C149.076 90.3892 150.917 90.2764 152.751 90.0492C154.584 89.8213 156.397 89.4801 158.188 89.0256C159.98 88.5705 161.737 88.0062 163.459 87.3317C165.181 86.6565 166.856 85.8771 168.481 84.9928C182.516 77.3599 192.054 62.4034 192.054 45.2002C192.056 42.5677 191.832 39.9551 191.381 37.3624C190.93 34.7697 190.259 32.2361 189.368 29.7615Z" fill="#CFF3C3"/>
</g>
<mask id="mask4_638_24" style="mask-type:luminance" maskUnits="userSpaceOnUse" x="106" y="17" width="87" height="69">
<path d="M106.053 17.1147H192.064V85.016H106.053V17.1147Z" fill="white"/>
</mask>
<g mask="url(#mask4_638_24)">
<path d="M178.594 40.5522C177.82 43.3011 177.936 46.2784 176.885 48.9314C174.632 54.6159 166.564 56.9018 161.704 53.2325C156.76 49.5004 156.356 42.3818 154.996 36.3078C154.396 33.6367 153.542 31.0512 152.433 28.5508C151.324 26.0509 149.982 23.6848 148.406 21.4532C147.306 19.8979 146.022 18.3595 144.264 17.6452C141.486 16.5149 138.335 17.7278 135.724 19.2089C132.897 20.8124 130.201 22.8029 128.373 25.5047C126.545 28.2065 125.686 31.7149 126.695 34.8231C127.421 37.0601 129.037 38.9391 129.632 41.2153C131.045 46.6232 126.256 51.7061 121.296 54.2114C116.335 56.7161 110.563 58.1243 106.855 62.2838C106.59 62.5809 106.34 62.8872 106.105 63.2018C107.133 65.58 108.353 67.8526 109.768 70.0197C111.183 72.1862 112.771 74.2153 114.532 76.1063C121.824 73.3858 129.227 69.731 132.204 62.6671C133.151 60.4211 133.568 57.9634 134.651 55.78C135.733 53.596 137.769 51.6193 140.19 51.6651C141.467 51.6893 142.665 52.271 143.766 52.9238C144.863 53.5785 145.906 54.3121 146.893 55.1247C147.881 55.9373 148.803 56.8198 149.659 57.7723C150.515 58.7247 151.296 59.7363 152.001 60.8069C152.706 61.8781 153.327 62.9957 153.865 64.1609C156.914 70.801 157.573 79.3441 163.693 83.2774C165.149 84.213 166.784 84.761 168.481 84.9937C182.516 77.3602 192.054 62.4037 192.054 45.2005C192.056 42.568 191.832 39.9554 191.381 37.3627C190.93 34.77 190.259 32.2364 189.368 29.7618C188.886 29.9457 188.407 30.1428 187.937 30.3598C183.63 32.3473 179.886 35.96 178.594 40.5522Z" fill="#E8FFD4"/>
</g>
<mask id="mask5_638_24" style="mask-type:luminance" maskUnits="userSpaceOnUse" x="102" y="0" width="88" height="64">
<path d="M102.685 0H189.485V63.2565H102.685V0Z" fill="white"/>
</mask>
<g mask="url(#mask5_638_24)">
<path d="M117.235 29.7157C117.667 33.9475 117.648 38.1774 117.177 42.405C116.969 44.2701 116.609 46.257 115.303 47.5934C114.198 48.7231 112.601 49.1897 111.063 49.5237C108.308 50.1186 105.523 50.4255 102.706 50.4442C102.958 52.6432 103.368 54.8116 103.938 56.9497C104.507 59.0873 105.23 61.1713 106.105 63.2016C106.341 62.8875 106.591 62.5813 106.855 62.2835C110.564 58.124 116.335 56.7159 121.296 54.2112C126.256 51.7058 131.045 46.6229 129.632 41.215C129.037 38.9388 127.422 37.0598 126.695 34.8228C125.686 31.7146 126.545 28.2063 128.374 25.5044C130.202 22.8026 132.897 20.8121 135.724 19.2086C138.336 17.7275 141.486 16.5146 144.265 17.6449C146.022 18.3593 147.307 19.8976 148.406 21.4529C149.982 23.6845 151.324 26.0506 152.433 28.5505C153.543 31.0509 154.396 33.6364 154.996 36.3075C156.356 42.3815 156.76 49.5001 161.704 53.2322C166.564 56.9015 174.633 54.6156 176.885 48.9311C177.936 46.2781 177.82 43.3008 178.594 40.5519C179.887 35.9597 183.631 32.347 187.937 30.3595C188.407 30.1425 188.886 29.9454 189.368 29.7615C188.695 27.9006 187.904 26.0916 186.995 24.335C186.087 22.579 185.068 20.8899 183.94 19.2677C182.811 17.6461 181.582 16.1059 180.253 14.6465C178.924 13.1877 177.506 11.8223 175.999 10.551C175.158 11.2545 174.473 12.0869 173.941 13.049C173.148 14.506 172.814 16.1644 172.491 17.7938C171.929 20.6198 171.368 23.4452 170.807 26.2706C170.56 27.5106 170.273 28.8296 169.379 29.7169C168.218 30.8695 166.358 30.9473 164.778 30.5452C161.629 29.7452 159.049 27.3822 157.288 24.6316C155.528 21.8803 154.481 18.739 153.451 15.6339C151.726 10.4316 150.001 5.22931 148.275 0.0270021C147.927 0.0185626 147.579 0.0137401 147.229 0.0137401C145.861 0.0113289 144.495 0.0728161 143.133 0.197599C141.77 0.322382 140.417 0.509255 139.071 0.759424C137.726 1.00959 136.395 1.32125 135.078 1.69439C133.761 2.06754 132.464 2.50096 131.187 2.99467C129.909 3.48837 128.656 4.03995 127.429 4.6494C126.202 5.25885 125.006 5.92375 123.839 6.64412C122.672 7.36448 121.541 8.13729 120.445 8.96255C119.349 9.78781 118.293 10.6619 117.277 11.5848C116.995 12.3612 116.766 13.1533 116.589 13.9605C115.466 19.1212 116.698 24.4598 117.235 29.7157Z" fill="#E8FFD4"/>
</g>
<path d="M147.229 87.9602C123.839 87.9602 104.811 68.778 104.811 45.2006C104.811 21.6226 123.839 2.44043 147.229 2.44043C170.617 2.44043 189.646 21.6226 189.646 45.2006C189.646 68.778 170.617 87.9602 147.229 87.9602ZM147.229 2.77861C124.024 2.77861 105.146 21.8089 105.146 45.2006C105.146 68.5917 124.024 87.622 147.229 87.622C170.433 87.622 189.311 68.5917 189.311 45.2006C189.311 21.8089 170.433 2.77861 147.229 2.77861Z" fill="#C7E8B5"/>
<path d="M147.229 84.9606C125.48 84.9606 107.786 67.1244 107.786 45.2006C107.786 23.2762 125.48 5.43945 147.229 5.43945C168.977 5.43945 186.671 23.2762 186.671 45.2006C186.671 67.1244 168.977 84.9606 147.229 84.9606ZM147.229 5.77763C125.665 5.77763 108.121 23.4625 108.121 45.2006C108.121 66.9382 125.665 84.6224 147.229 84.6224C168.792 84.6224 186.335 66.9382 186.335 45.2006C186.335 23.4625 168.792 5.77763 147.229 5.77763Z" fill="#C7E8B5"/>
<path d="M147.229 81.8024C127.207 81.8024 110.919 65.3828 110.919 45.2006C110.919 25.0177 127.207 8.59814 147.229 8.59814C167.25 8.59814 183.538 25.0177 183.538 45.2006C183.538 65.3828 167.25 81.8024 147.229 81.8024ZM147.229 8.93572C127.392 8.93572 111.255 25.2039 111.255 45.2006C111.255 65.1966 127.392 81.4648 147.229 81.4648C167.065 81.4648 183.203 65.1966 183.203 45.2006C183.203 25.2039 167.065 8.93572 147.229 8.93572Z" fill="#C7E8B5"/>
<path d="M147.229 78.5648C128.979 78.5648 114.13 63.5981 114.13 45.2007C114.13 26.8028 128.979 11.8354 147.229 11.8354C165.479 11.8354 180.326 26.8028 180.326 45.2007C180.326 63.5981 165.479 78.5648 147.229 78.5648ZM147.229 12.1736C129.163 12.1736 114.466 26.9897 114.466 45.2007C114.466 63.4112 129.163 78.2266 147.229 78.2266C165.294 78.2266 179.991 63.4112 179.991 45.2007C179.991 26.9897 165.294 12.1736 147.229 12.1736Z" fill="#C7E8B5"/>
<path d="M147.229 75.4854C130.663 75.4854 117.186 61.8998 117.186 45.2005C117.186 28.5007 130.663 14.915 147.229 14.915C163.794 14.915 177.271 28.5007 177.271 45.2005C177.271 61.8998 163.794 75.4854 147.229 75.4854ZM147.229 15.2532C130.848 15.2532 117.521 28.6876 117.521 45.2005C117.521 61.7129 130.848 75.1472 147.229 75.1472C163.609 75.1472 176.936 61.7129 176.936 45.2005C176.936 28.6876 163.609 15.2532 147.229 15.2532Z" fill="#C7E8B5"/>
<path d="M147.229 72.4787C132.307 72.4787 120.168 60.2415 120.168 45.2006C120.168 30.1586 132.307 17.9214 147.229 17.9214C162.15 17.9214 174.289 30.1586 174.289 45.2006C174.289 60.2415 162.15 72.4787 147.229 72.4787ZM147.229 18.2596C132.492 18.2596 120.503 30.3454 120.503 45.2006C120.503 60.0552 132.492 72.1405 147.229 72.1405C161.965 72.1405 173.954 60.0552 173.954 45.2006C173.954 30.3454 161.965 18.2596 147.229 18.2596Z" fill="#C7E8B5"/>
<path d="M147.229 69.2881C134.053 69.2881 123.333 58.482 123.333 45.2007C123.333 31.9183 134.053 21.1128 147.229 21.1128C160.404 21.1128 171.123 31.9183 171.123 45.2007C171.123 58.482 160.404 69.2881 147.229 69.2881ZM147.229 21.4504C134.238 21.4504 123.669 32.1045 123.669 45.2007C123.669 58.2963 134.238 68.9499 147.229 68.9499C160.22 68.9499 170.788 58.2963 170.788 45.2007C170.788 32.1045 160.22 21.4504 147.229 21.4504Z" fill="#C7E8B5"/>
<path d="M162.624 32.2164C162.002 31.4635 161.328 30.76 160.603 30.106C159.879 29.4525 159.112 28.8551 158.3 28.3144C157.489 27.7737 156.643 27.2956 155.762 26.8797C154.882 26.4644 153.976 26.1153 153.045 25.8332V25.8266C151.148 25.2485 149.21 24.9597 147.229 24.9609C136.14 24.9609 127.151 34.0219 127.151 45.2005C127.151 45.5314 127.159 45.8624 127.176 46.1933C127.192 46.5237 127.216 46.854 127.249 47.1838C127.281 47.5135 127.322 47.842 127.37 48.1694C127.418 48.4967 127.475 48.8228 127.539 49.1477C127.603 49.4727 127.675 49.7958 127.755 50.1171C127.835 50.4384 127.923 50.7573 128.018 51.0737C128.114 51.3908 128.217 51.7055 128.328 52.0172C128.439 52.3288 128.557 52.6374 128.683 52.9437C128.809 53.2493 128.942 53.5519 129.082 53.8515C129.223 54.1511 129.37 54.4465 129.525 54.7389C129.681 55.0306 129.842 55.3188 130.011 55.6027C130.18 55.8866 130.356 56.1663 130.539 56.4418C130.721 56.7173 130.91 56.988 131.106 57.2538C131.302 57.5197 131.504 57.7807 131.712 58.0369C131.921 58.2925 132.135 58.5432 132.356 58.7886C132.577 59.0339 132.803 59.2739 133.035 59.5077C133.267 59.7422 133.505 59.9707 133.749 60.1931C133.992 60.4156 134.241 60.6314 134.495 60.8418C134.749 61.0516 135.008 61.2553 135.271 61.453C135.536 61.6502 135.804 61.8406 136.077 62.0251C136.35 62.209 136.628 62.3862 136.909 62.5562C137.191 62.7268 137.477 62.8902 137.767 63.0463C138.056 63.2024 138.35 63.3513 138.646 63.493C138.944 63.6346 139.244 63.7691 139.547 63.8956C139.851 64.0222 140.157 64.1416 140.466 64.2537C140.776 64.3652 141.087 64.4689 141.402 64.5654C141.716 64.6618 142.033 64.7498 142.352 64.8306C142.67 64.9114 142.99 64.9837 143.313 65.0488C143.635 65.1133 143.958 65.17 144.283 65.2188C144.608 65.2677 144.934 65.3086 145.261 65.3412C145.588 65.3738 145.916 65.3985 146.244 65.4147C146.572 65.431 146.9 65.4395 147.229 65.4395C158.317 65.4395 167.306 56.3779 167.306 45.2005C167.307 44.6122 167.282 44.0256 167.233 43.4397C167.183 42.8537 167.107 42.2714 167.007 41.6921C166.906 41.1128 166.781 40.5395 166.63 39.9717C166.479 39.4032 166.305 38.8432 166.106 38.2904C165.906 37.7382 165.683 37.1951 165.436 36.6622C165.19 36.1293 164.921 35.6085 164.629 35.0997C164.337 34.5903 164.024 34.0948 163.689 33.6138C163.354 33.1321 162.999 32.6667 162.624 32.2164ZM144.706 45.2005C144.706 45.1167 144.711 45.0341 144.718 44.9509C144.727 44.8684 144.739 44.7858 144.755 44.7044C144.771 44.6224 144.791 44.5416 144.815 44.4621C144.839 44.3825 144.867 44.3041 144.898 44.227C144.93 44.1504 144.965 44.075 145.004 44.0015C145.043 43.928 145.086 43.8568 145.132 43.7875C145.177 43.7182 145.227 43.6519 145.279 43.5874C145.331 43.5229 145.387 43.4614 145.445 43.4023C145.504 43.3432 145.565 43.2878 145.629 43.2347C145.693 43.1817 145.759 43.1322 145.827 43.0858C145.896 43.04 145.967 42.9972 146.039 42.958C146.112 42.9188 146.187 42.8833 146.264 42.8513C146.34 42.8194 146.417 42.791 146.496 42.7669C146.576 42.7428 146.655 42.7229 146.737 42.7067C146.817 42.6904 146.899 42.6777 146.981 42.6699C147.064 42.6614 147.146 42.6578 147.229 42.6578C147.311 42.6578 147.394 42.6614 147.476 42.6699C147.558 42.6777 147.64 42.6904 147.721 42.7067C147.802 42.7229 147.882 42.7428 147.961 42.7669C148.04 42.791 148.117 42.8194 148.194 42.8513C148.27 42.8833 148.345 42.9188 148.418 42.958C148.491 42.9972 148.561 43.04 148.63 43.0858C148.699 43.1322 148.765 43.1817 148.829 43.2347C148.892 43.2878 148.954 43.3432 149.012 43.4023C149.071 43.4614 149.126 43.5229 149.178 43.5874C149.231 43.6519 149.28 43.7182 149.326 43.7875C149.371 43.8568 149.414 43.928 149.453 44.0015C149.492 44.075 149.527 44.1504 149.559 44.227C149.59 44.3041 149.618 44.3825 149.642 44.4621C149.666 44.5416 149.687 44.6224 149.703 44.7044C149.719 44.7858 149.731 44.8684 149.739 44.9509C149.747 45.0341 149.751 45.1167 149.751 45.2005C149.751 45.2837 149.747 45.3663 149.739 45.4495C149.731 45.5321 149.719 45.6146 149.703 45.696C149.687 45.778 149.666 45.8588 149.642 45.9384C149.618 46.0179 149.59 46.0963 149.559 46.1734C149.527 46.25 149.492 46.3254 149.453 46.3989C149.414 46.4724 149.372 46.5436 149.326 46.6129C149.28 46.6822 149.231 46.7491 149.178 46.813C149.126 46.8775 149.071 46.939 149.012 46.9981C148.954 47.0572 148.892 47.1126 148.829 47.1657C148.765 47.2187 148.699 47.2682 148.63 47.3146C148.561 47.3604 148.491 47.4032 148.418 47.4424C148.345 47.4822 148.27 47.5171 148.194 47.5491C148.117 47.581 148.04 47.6094 147.961 47.6335C147.882 47.6576 147.802 47.6775 147.721 47.6938C147.64 47.71 147.558 47.7227 147.476 47.7305C147.394 47.739 147.311 47.7426 147.229 47.7426C147.146 47.7432 147.064 47.739 146.981 47.7311C146.899 47.7227 146.817 47.7106 146.737 47.6944C146.655 47.6781 146.575 47.6582 146.496 47.6341C146.417 47.61 146.34 47.5816 146.263 47.5503C146.186 47.5183 146.112 47.4828 146.039 47.4436C145.966 47.4044 145.895 47.3616 145.826 47.3152C145.758 47.2688 145.691 47.2193 145.628 47.1669C145.564 47.1138 145.502 47.0578 145.444 46.9987C145.386 46.9402 145.33 46.8781 145.278 46.8142C145.225 46.7497 145.176 46.6828 145.13 46.6135C145.084 46.5442 145.043 46.473 145.003 46.3995C144.964 46.326 144.929 46.2506 144.898 46.1734C144.866 46.0969 144.838 46.0185 144.814 45.9384C144.79 45.8588 144.77 45.778 144.754 45.6966C144.738 45.6146 144.726 45.5327 144.718 45.4495C144.71 45.3669 144.706 45.2837 144.706 45.2005Z" fill="#1A1A1A"/>
<path d="M147.229 61.8679C138.112 61.8679 130.694 54.3905 130.694 45.2C130.694 36.0094 138.112 28.5327 147.229 28.5327C156.346 28.5327 163.763 36.0094 163.763 45.2C163.763 54.3905 156.346 61.8679 147.229 61.8679ZM147.229 29.2091C138.482 29.2091 131.365 36.3826 131.365 45.2C131.365 54.018 138.482 61.1915 147.229 61.1915C155.976 61.1915 163.092 54.018 163.092 45.2C163.092 36.3826 155.976 29.2091 147.229 29.2091Z" fill="#5ADF93"/>
<path d="M126.977 28.0941L128.611 29.0803L124.752 35.5642C124.36 35.4184 124.006 35.2502 123.69 35.0603C123.097 34.7022 122.644 34.2971 122.329 33.845C122.015 33.3917 121.802 32.8775 121.688 32.3018C121.575 31.7267 121.524 31.0274 121.535 30.204C121.539 29.6289 121.521 29.1448 121.482 28.7524C121.444 28.3588 121.331 27.9724 121.14 27.5926C120.951 27.2116 120.656 26.9006 120.255 26.6594C119.997 26.5039 119.728 26.4129 119.447 26.387C119.166 26.3616 118.894 26.4195 118.631 26.5606C118.368 26.7022 118.14 26.9367 117.945 27.2647C117.636 27.7855 117.552 28.3099 117.694 28.8368C117.834 29.3643 118.159 29.8435 118.667 30.2739L117.041 31.3735C116.585 30.9925 116.245 30.5187 116.022 29.9508C115.797 29.3836 115.715 28.7717 115.775 28.1158C115.834 27.4588 116.053 26.8113 116.431 26.1748C116.789 25.5738 117.227 25.0963 117.741 24.7425C118.255 24.3892 118.812 24.2011 119.413 24.1782C120.015 24.1559 120.609 24.3229 121.198 24.6798C121.799 25.0433 122.262 25.4719 122.585 25.965C122.909 26.4569 123.128 27.0235 123.243 27.6649C123.358 28.3063 123.417 29.0996 123.42 30.0448C123.422 30.5693 123.434 30.9744 123.458 31.2601C123.482 31.5465 123.549 31.8189 123.659 32.0775C123.768 32.3368 123.943 32.5731 124.185 32.7865L126.977 28.0941Z" fill="black"/>
<path d="M131.729 26.7677C130.628 27.7244 129.462 28.0155 128.232 27.6406C127.002 27.2644 125.77 26.3548 124.534 24.911C123.194 23.3473 122.468 21.9355 122.355 20.6769C122.242 19.4182 122.703 18.3379 123.74 17.4361C124.776 16.5343 125.904 16.2323 127.122 16.5295C128.34 16.8273 129.619 17.758 130.959 19.3217C132.194 20.7655 132.906 22.1284 133.095 23.4112C133.284 24.6928 132.829 25.8117 131.729 26.7677ZM130.573 25.3933C131.527 24.5656 131.061 23.0508 129.177 20.8481C127.277 18.6297 125.851 17.9346 124.897 18.7623C123.928 19.6063 124.393 21.1374 126.292 23.3558C127.158 24.3673 127.959 25.072 128.696 25.4705C129.434 25.8677 130.06 25.8418 130.573 25.3933Z" fill="black"/>
<path d="M129.959 12.0751L131.768 11.2842L134.243 17.0471L134.959 18.8821L135.789 14.3344L137.965 13.3844L136.82 18.0912L141.529 20.9678L139.216 21.9781L135.15 19.3282L136.021 21.1872L136.81 23.027L135.002 23.8179L129.959 12.0751Z" fill="black"/>
<path d="M148.3 16.2277L145.075 16.5773L145.436 19.9603L143.645 20.1556L143.284 16.7726L140.177 17.1102L140.002 15.4705L143.109 15.1329L142.75 11.7837L144.542 11.5884L144.901 14.9376L148.125 14.588L148.3 16.2277Z" fill="black"/>
<path d="M153.487 14.6375L152.403 14.353L152.848 12.641L153.932 12.9255L154.319 11.4281C154.521 10.6535 154.824 10.079 155.226 9.70404C155.628 9.32788 156.055 9.10845 156.508 9.04576C156.961 8.98186 157.403 9.00658 157.836 9.12051C158.293 9.24107 158.655 9.38032 158.922 9.53766C159.189 9.6956 159.351 9.82219 159.407 9.91864L158.948 11.6933C158.871 11.5233 158.726 11.3666 158.512 11.2231C158.298 11.0785 158.094 10.9808 157.9 10.929C157.05 10.7041 156.513 11.0266 156.288 11.8959L155.886 13.4415L157.84 13.9575L157.395 15.6695L155.441 15.1535L153.779 21.5554L151.825 21.0394L153.487 14.6375Z" fill="black"/>
<path d="M157.402 23.1405C156.965 22.9042 156.649 22.6058 156.455 22.2459C156.26 21.8872 156.178 21.5002 156.206 21.0837C156.236 20.6659 156.362 20.2488 156.584 19.8322C156.776 19.4705 157.085 19.1752 157.515 18.9449C157.944 18.7152 158.529 18.6387 159.27 18.7158C160.013 18.793 160.903 19.1113 161.94 19.6707L162.122 19.3307C162.337 18.9256 162.407 18.5603 162.332 18.2336C162.257 17.9056 161.976 17.6103 161.49 17.3462C161.108 17.1407 160.698 17.005 160.263 16.9387C159.828 16.8712 159.472 16.8875 159.196 16.9869L159.366 15.2436C159.821 15.1954 160.338 15.2267 160.919 15.3376C161.499 15.4474 162.068 15.6535 162.626 15.9573C163.328 16.3353 163.825 16.7434 164.119 17.1823C164.414 17.6211 164.54 18.0841 164.497 18.5711C164.454 19.057 164.277 19.5911 163.966 20.1746L161.385 25.0261L159.806 24.1749L160.237 23.0513C159.75 23.334 159.273 23.4835 158.806 23.4998C158.341 23.5154 157.872 23.3961 157.402 23.1405ZM158.94 22.1374C159.166 22.2592 159.453 22.2966 159.799 22.2483C160.147 22.2013 160.468 22.0795 160.763 21.8818L161.323 20.8305C161.261 20.7841 161.146 20.716 160.978 20.6255C160.482 20.3573 159.995 20.2006 159.517 20.1553C159.038 20.1107 158.7 20.2735 158.503 20.6448C158.316 20.9939 158.26 21.2856 158.335 21.5201C158.41 21.7528 158.611 21.959 158.94 22.1374Z" fill="black"/>
<path d="M171.01 22.4261C171.595 23.0181 171.85 23.6511 171.776 24.3262C171.7 25.0014 171.322 25.6819 170.64 26.3686L166.748 30.2772L165.238 28.7509L169.001 24.97C169.336 24.6336 169.532 24.2943 169.589 23.9501C169.647 23.6064 169.537 23.2954 169.262 23.0169C169.078 22.8306 168.859 22.7052 168.604 22.6407C168.35 22.575 168.093 22.578 167.831 22.6504C167.569 22.7227 167.334 22.8638 167.126 23.0724L163.363 26.8532L161.854 25.3269L167.748 19.4072L169.116 20.7913L168.367 21.5991C169.383 21.3953 170.264 21.6708 171.01 22.4261Z" fill="black"/>
<path d="M168.081 33.0991C167.694 32.3962 167.479 31.7958 167.433 31.2978C167.386 30.8011 167.416 30.4135 167.523 30.1356L169.215 29.909C169.041 30.8252 169.148 31.636 169.535 32.3419C169.71 32.6614 169.906 32.8628 170.121 32.9447C170.336 33.0267 170.539 33.0147 170.729 32.9086C170.933 32.7958 171.047 32.5571 171.073 32.1924C171.1 31.8289 171.083 31.3201 171.021 30.6661C170.982 30.2465 170.974 29.8668 170.997 29.5256C171.021 29.185 171.119 28.8456 171.293 28.508C171.467 28.1704 171.751 27.8919 172.145 27.6713C172.583 27.4272 173.026 27.3235 173.472 27.3602C173.92 27.3976 174.346 27.5761 174.75 27.8955C175.154 28.2156 175.517 28.6672 175.838 29.2507C176.029 29.5997 176.171 29.9475 176.264 30.2948C176.358 30.6432 176.408 30.9567 176.417 31.2352C176.426 31.513 176.41 31.7277 176.367 31.879L174.778 32.1153C174.823 31.7922 174.824 31.451 174.783 31.0929C174.743 30.736 174.638 30.4021 174.467 30.0922C174.265 29.7245 174.075 29.4918 173.898 29.3954C173.721 29.2977 173.523 29.3104 173.305 29.4339C173.085 29.5563 172.962 29.7667 172.936 30.0657C172.911 30.3659 172.933 30.7951 173.003 31.3533C173.105 32.1538 173.076 32.829 172.917 33.3788C172.759 33.9297 172.427 34.3481 171.92 34.6326C171.497 34.8671 171.06 34.9829 170.609 34.9798C170.158 34.978 169.712 34.8261 169.272 34.5241C168.833 34.2215 168.436 33.7465 168.081 33.0991Z" fill="black"/>
<mask id="mask6_638_24" style="mask-type:luminance" maskUnits="userSpaceOnUse" x="204" y="0" width="91" height="91">
<path d="M204.064 0H294.457V90.3929H204.064V0Z" fill="white"/>
</mask>
<g mask="url(#mask6_638_24)">
<path d="M291.74 29.762C291.547 29.2321 291.344 28.7053 291.131 28.1826C290.918 27.66 290.696 27.1416 290.463 26.6274C290.231 26.1132 289.989 25.6032 289.738 25.098C289.486 24.5923 289.225 24.0919 288.955 23.5964C288.685 23.1009 288.406 22.6108 288.118 22.1255C287.829 21.6409 287.532 21.161 287.225 20.6872C286.919 20.2134 286.604 19.745 286.28 19.2833C285.956 18.8209 285.623 18.3652 285.282 17.9155C284.942 17.4658 284.592 17.0227 284.235 16.5856C283.877 16.1492 283.511 15.7194 283.137 15.2962C282.764 14.8737 282.383 14.4577 281.993 14.049C281.604 13.6403 281.207 13.2394 280.803 12.8452C280.399 12.4515 279.987 12.0657 279.569 11.6872C279.15 11.3086 278.724 10.9385 278.292 10.5756C277.859 10.2133 277.42 9.85882 276.974 9.51281C276.528 9.16679 276.076 8.82921 275.618 8.50068C275.159 8.17154 274.695 7.85084 274.224 7.53918C273.754 7.22753 273.278 6.92492 272.796 6.63074C272.314 6.33717 271.827 6.05204 271.334 5.77655C270.842 5.50106 270.344 5.23462 269.842 4.97722C269.34 4.72042 268.833 4.47266 268.321 4.23515C267.809 3.99704 267.293 3.76857 266.773 3.54975C266.253 3.33092 265.729 3.12235 265.201 2.92282C264.673 2.72389 264.141 2.5346 263.606 2.35557C263.07 2.17653 262.532 2.00714 261.991 1.848C261.449 1.68885 260.905 1.53996 260.358 1.40131C259.811 1.26266 259.262 1.13426 258.709 1.01611C258.158 0.897957 257.604 0.790656 257.048 0.693C256.492 0.595343 255.935 0.508538 255.375 0.43198C254.816 0.355423 254.256 0.289715 253.694 0.234256C253.133 0.178797 252.57 0.133586 252.007 0.0992255C251.444 0.064865 250.879 0.0407522 250.315 0.0274904C249.965 0.0190509 249.614 0.0142284 249.261 0.0142284C247.882 0.0118171 246.505 0.0733044 245.132 0.198087C243.758 0.322268 242.394 0.509744 241.037 0.759912C239.682 1.01008 238.34 1.32174 237.012 1.69488C235.684 2.06802 234.377 2.50145 233.089 2.99516C231.801 3.48886 230.539 4.04044 229.302 4.64989C228.065 5.25933 226.858 5.92424 225.682 6.64461C224.506 7.36497 223.366 8.13778 222.261 8.96304C221.156 9.78829 220.091 10.6624 219.067 11.5853C209.864 19.8571 204.074 31.852 204.074 45.2007C204.075 46.9543 204.177 48.7025 204.379 50.4446C204.517 51.6364 204.702 52.8209 204.935 53.9982C205.167 55.1755 205.446 56.3414 205.773 57.4964C206.098 58.6514 206.47 59.7913 206.887 60.9168C207.304 62.0416 207.765 63.1484 208.271 64.2365C208.776 65.3252 209.324 66.3915 209.916 67.4356C210.506 68.4803 211.138 69.4991 211.81 70.4931C212.482 71.4871 213.194 72.4529 213.943 73.3896C214.692 74.327 215.478 75.2324 216.301 76.1065C224.544 84.895 236.261 90.3866 249.261 90.3866C251.123 90.3897 252.978 90.2769 254.827 90.0497C256.676 89.8218 258.503 89.4806 260.309 89.0261C262.115 88.571 263.886 88.0067 265.622 87.3322C267.358 86.657 269.046 85.8776 270.685 84.9932C284.833 77.3604 294.447 62.4039 294.447 45.2007C294.45 42.5682 294.224 39.9556 293.769 37.3629C293.315 34.7702 292.638 32.2366 291.74 29.762Z" fill="#CFF3C3"/>
</g>
<mask id="mask7_638_24" style="mask-type:luminance" maskUnits="userSpaceOnUse" x="207" y="17" width="88" height="69">
<path d="M207.753 17.1147H294.457V85.016H207.753V17.1147Z" fill="white"/>
</mask>
<g mask="url(#mask7_638_24)">
<path d="M280.879 40.5522C280.099 43.3011 280.216 46.2784 279.156 48.9314C276.885 54.6159 268.752 56.9018 263.852 53.2325C258.869 49.5004 258.461 42.3818 257.091 36.3078C256.486 33.6367 255.625 31.0512 254.507 28.5508C253.389 26.0509 252.036 23.6848 250.448 21.4532C249.339 19.8973 248.044 18.3595 246.273 17.6452C243.471 16.5149 240.296 17.7278 237.663 19.2089C234.813 20.8124 232.096 22.8029 230.253 25.5047C228.41 28.2065 227.544 31.7149 228.561 34.8231C229.294 37.0601 230.922 38.9391 231.522 41.2153C232.947 46.6232 228.119 51.7061 223.118 54.2114C218.118 56.7161 212.3 58.1243 208.561 62.2838C208.294 62.5809 208.043 62.8872 207.806 63.2018C208.841 65.58 210.072 67.8526 211.498 70.0197C212.924 72.1862 214.525 74.2153 216.3 76.1063C223.651 73.3858 231.113 69.731 234.115 62.6671C235.07 60.4211 235.49 57.9634 236.581 55.78C237.672 53.596 239.725 51.6193 242.166 51.6651C243.453 51.6893 244.661 52.271 245.77 52.9238C246.876 53.5785 247.927 54.3121 248.923 55.1247C249.918 55.9373 250.848 56.8198 251.711 57.7723C252.573 58.7247 253.36 59.7363 254.071 60.8069C254.782 61.8781 255.408 62.9957 255.951 64.1609C259.024 70.801 259.689 79.3441 265.858 83.2774C267.326 84.213 268.973 84.761 270.685 84.9937C284.833 77.3602 294.447 62.4037 294.447 45.2005C294.45 42.568 294.224 39.9554 293.769 37.3627C293.314 34.77 292.638 32.2364 291.74 29.7618C291.253 29.9457 290.771 30.1428 290.297 30.3598C285.956 32.3473 282.182 35.96 280.879 40.5522Z" fill="#E8FFD4"/>
</g>
<mask id="mask8_638_24" style="mask-type:luminance" maskUnits="userSpaceOnUse" x="204" y="0" width="88" height="64">
<path d="M204.358 0H291.858V63.2565H204.358V0Z" fill="white"/>
</mask>
<g mask="url(#mask8_638_24)">
<path d="M219.025 29.7157C219.461 33.9475 219.441 38.1774 218.966 42.405C218.756 44.2701 218.394 46.257 217.077 47.5934C215.963 48.7231 214.354 49.1897 212.803 49.5237C210.026 50.1186 207.219 50.4255 204.379 50.4442C204.632 52.6432 205.046 54.8116 205.62 56.9497C206.194 59.0873 206.923 61.1713 207.806 63.2016C208.043 62.8875 208.295 62.5813 208.561 62.2835C212.3 58.124 218.118 56.7159 223.118 54.2112C228.119 51.7058 232.947 46.6229 231.522 41.215C230.922 38.9388 229.294 37.0598 228.561 34.8228C227.544 31.7146 228.411 28.2063 230.253 25.5044C232.096 22.8026 234.813 20.8121 237.663 19.2086C240.296 17.7275 243.471 16.5146 246.273 17.6449C248.044 18.3593 249.339 19.897 250.448 21.4529C252.036 23.6845 253.389 26.0506 254.507 28.5505C255.625 31.0509 256.486 33.6364 257.091 36.3075C258.462 42.3815 258.869 49.5001 263.853 53.2322C268.752 56.9015 276.885 54.6156 279.156 48.9311C280.216 46.2781 280.099 43.3008 280.879 40.5519C282.182 35.9597 285.956 32.347 290.297 30.3595C290.771 30.1425 291.254 29.9454 291.74 29.7615C291.061 27.9006 290.264 26.0916 289.348 24.335C288.432 22.579 287.405 20.8899 286.268 19.2677C285.13 17.6461 283.891 16.1059 282.551 14.6465C281.211 13.1877 279.782 11.8223 278.263 10.551C277.415 11.2545 276.724 12.0869 276.189 13.049C275.389 14.506 275.052 16.1644 274.726 17.7938C274.16 20.6198 273.595 23.4452 273.029 26.2706C272.78 27.5106 272.491 28.829 271.59 29.7169C270.42 30.8695 268.544 30.9473 266.951 30.5452C263.777 29.7452 261.176 27.3822 259.401 24.6316C257.627 21.8803 256.571 18.739 255.533 15.6339C253.794 10.4316 252.055 5.22931 250.315 0.0270021C249.965 0.0185626 249.613 0.0137401 249.261 0.0137401C247.882 0.0113289 246.505 0.0728161 245.132 0.197599C243.758 0.322382 242.393 0.509255 241.037 0.759424C239.681 1.00959 238.34 1.32125 237.012 1.69439C235.684 2.06754 234.377 2.50096 233.089 2.99467C231.801 3.48837 230.538 4.03995 229.302 4.6494C228.065 5.25885 226.858 5.92375 225.682 6.64412C224.506 7.36448 223.366 8.13729 222.261 8.96255C221.156 9.78781 220.091 10.6619 219.067 11.5848C218.783 12.3612 218.552 13.1533 218.374 13.9605C217.242 19.1212 218.483 24.4598 219.025 29.7157Z" fill="#E8FFD4"/>
</g>
<path d="M249.261 87.9602C225.683 87.9602 206.501 68.778 206.501 45.2006C206.501 21.6226 225.683 2.44043 249.261 2.44043C272.838 2.44043 292.02 21.6226 292.02 45.2C292.02 68.778 272.838 87.9602 249.261 87.9602ZM249.261 2.77861C225.869 2.77861 206.839 21.8089 206.839 45.2C206.839 68.5917 225.869 87.622 249.261 87.622C272.652 87.622 291.682 68.5917 291.682 45.2C291.682 21.8089 272.652 2.77861 249.261 2.77861Z" fill="#C7E8B5"/>
<path d="M249.261 84.9606C227.336 84.9606 209.5 67.1244 209.5 45.2C209.5 23.2762 227.336 5.43945 249.261 5.43945C271.185 5.43945 289.021 23.2762 289.021 45.2C289.021 67.1244 271.185 84.9606 249.261 84.9606ZM249.261 5.77763C227.523 5.77763 209.838 23.4625 209.838 45.2C209.838 66.9382 227.523 84.6224 249.261 84.6224C270.998 84.6224 288.682 66.9382 288.682 45.2006C288.682 23.4625 270.998 5.77763 249.261 5.77763Z" fill="#C7E8B5"/>
<path d="M249.261 81.8024C229.078 81.8024 212.658 65.3828 212.658 45.1999C212.658 25.0177 229.078 8.59814 249.261 8.59814C269.444 8.59814 285.863 25.0177 285.863 45.1999C285.863 65.3828 269.444 81.8024 249.261 81.8024ZM249.261 8.93572C229.264 8.93572 212.997 25.2039 212.997 45.1999C212.997 65.1966 229.264 81.4648 249.261 81.4648C269.257 81.4648 285.525 65.1966 285.525 45.1999C285.525 25.2039 269.257 8.93572 249.261 8.93572Z" fill="#C7E8B5"/>
<path d="M249.261 78.5648C230.863 78.5648 215.895 63.5981 215.895 45.2001C215.895 26.8028 230.863 11.8354 249.261 11.8354C267.658 11.8354 282.625 26.8028 282.625 45.2001C282.625 63.5981 267.658 78.5648 249.261 78.5648ZM249.261 12.1736C231.05 12.1736 216.234 26.9897 216.234 45.2001C216.234 63.4112 231.05 78.2266 249.261 78.2266C267.471 78.2266 282.287 63.4112 282.287 45.2001C282.287 26.9897 267.471 12.1736 249.261 12.1736Z" fill="#C7E8B5"/>
<path d="M249.261 75.4854C232.561 75.4854 218.975 61.8998 218.975 45.1999C218.975 28.5007 232.561 14.915 249.261 14.915C265.96 14.915 279.546 28.5007 279.546 45.1999C279.546 61.8998 265.96 75.4854 249.261 75.4854ZM249.261 15.2532C232.748 15.2532 219.313 28.6876 219.313 45.1999C219.313 61.7129 232.748 75.1472 249.261 75.1472C265.773 75.1472 279.207 61.7129 279.207 45.1999C279.207 28.6876 265.773 15.2532 249.261 15.2532Z" fill="#C7E8B5"/>
<path d="M249.261 72.4787C234.219 72.4787 221.981 60.2415 221.981 45.2C221.981 30.1586 234.219 17.9214 249.261 17.9214C264.302 17.9214 276.539 30.1586 276.539 45.2C276.539 60.2415 264.302 72.4787 249.261 72.4787ZM249.261 18.2596C234.405 18.2596 222.32 30.3454 222.32 45.2C222.32 60.0552 234.405 72.1405 249.261 72.1405C264.115 72.1405 276.201 60.0552 276.201 45.2C276.201 30.3454 264.115 18.2596 249.261 18.2596Z" fill="#C7E8B5"/>
<path d="M249.261 69.2881C235.978 69.2881 225.173 58.482 225.173 45.2001C225.173 31.9183 235.978 21.1128 249.261 21.1128C262.543 21.1128 273.348 31.9183 273.348 45.2001C273.348 58.482 262.543 69.2881 249.261 69.2881ZM249.261 21.4504C236.165 21.4504 225.511 32.1045 225.511 45.2001C225.511 58.2963 236.165 68.9499 249.261 68.9499C262.356 68.9499 273.01 58.2963 273.01 45.2001C273.01 32.1045 262.356 21.4504 249.261 21.4504Z" fill="#C7E8B5"/>
<path d="M264.78 32.2164C264.153 31.4635 263.474 30.76 262.743 30.106C262.013 29.4519 261.239 28.8551 260.421 28.3144C259.604 27.7737 258.751 27.2956 257.863 26.8797C256.976 26.4644 256.062 26.1153 255.124 25.8332V25.8266C253.212 25.2485 251.258 24.9597 249.261 24.9609C238.083 24.9609 229.021 34.0219 229.021 45.1999C229.021 45.5314 229.03 45.8624 229.046 46.1933C229.063 46.5237 229.087 46.854 229.119 47.1838C229.153 47.5129 229.193 47.842 229.242 48.1694C229.291 48.4967 229.347 48.8228 229.412 49.1477C229.477 49.4727 229.549 49.7958 229.63 50.1171C229.711 50.4384 229.799 50.7573 229.895 51.0737C229.992 51.3908 230.095 51.7055 230.208 52.0172C230.319 52.3288 230.438 52.6374 230.565 52.9437C230.692 53.2493 230.826 53.5519 230.968 53.8515C231.109 54.1505 231.258 54.4465 231.414 54.7383C231.571 55.0306 231.734 55.3188 231.904 55.6027C232.074 55.8866 232.252 56.1663 232.436 56.4418C232.62 56.7173 232.81 56.988 233.008 57.2538C233.205 57.5197 233.409 57.7807 233.619 58.0369C233.829 58.2925 234.046 58.5432 234.268 58.7886C234.491 59.0339 234.718 59.2739 234.953 59.5077C235.187 59.7422 235.427 59.9707 235.672 60.1931C235.917 60.4156 236.168 60.6314 236.424 60.8418C236.68 61.0516 236.941 61.2553 237.207 61.453C237.473 61.6502 237.744 61.8406 238.019 62.0251C238.294 62.209 238.574 62.3862 238.858 62.5562C239.142 62.7268 239.43 62.8902 239.722 63.0463C240.014 63.2024 240.31 63.3513 240.609 63.493C240.909 63.6346 241.211 63.7691 241.517 63.8956C241.823 64.0222 242.132 64.1416 242.443 64.2537C242.756 64.3652 243.07 64.4689 243.387 64.5654C243.703 64.6618 244.023 64.7498 244.344 64.8306C244.665 64.9114 244.988 64.9837 245.313 65.0488C245.638 65.1133 245.964 65.17 246.291 65.2188C246.619 65.2677 246.948 65.3086 247.277 65.3412C247.607 65.3738 247.937 65.3985 248.268 65.4147C248.598 65.431 248.929 65.4395 249.261 65.4395C260.439 65.4395 269.5 56.3779 269.5 45.1999C269.501 44.6122 269.476 44.0256 269.426 43.4397C269.376 42.8537 269.3 42.2714 269.198 41.6921C269.097 41.1128 268.97 40.5395 268.819 39.9717C268.667 39.4032 268.491 38.8432 268.29 38.2904C268.089 37.7376 267.864 37.1951 267.615 36.6622C267.367 36.1293 267.096 35.6085 266.801 35.0991C266.507 34.5903 266.191 34.0948 265.854 33.6138C265.516 33.1321 265.158 32.6667 264.78 32.2164ZM246.718 45.1999C246.718 45.1167 246.722 45.0341 246.73 44.9509C246.739 44.8684 246.751 44.7858 246.767 44.7044C246.783 44.6224 246.803 44.5416 246.827 44.4621C246.852 44.3825 246.88 44.3041 246.912 44.227C246.944 44.1504 246.979 44.075 247.018 44.0015C247.057 43.928 247.1 43.8568 247.147 43.7875C247.192 43.7182 247.243 43.6513 247.295 43.5874C247.348 43.5229 247.404 43.4614 247.463 43.4023C247.522 43.3432 247.583 43.2878 247.648 43.2347C247.712 43.1817 247.779 43.1322 247.848 43.0858C247.917 43.04 247.989 42.9972 248.062 42.958C248.135 42.9188 248.211 42.8833 248.288 42.8513C248.364 42.8194 248.443 42.791 248.522 42.7669C248.602 42.7428 248.683 42.7229 248.765 42.7067C248.846 42.6904 248.929 42.6777 249.011 42.6699C249.094 42.6614 249.178 42.6578 249.261 42.6578C249.344 42.6578 249.427 42.6614 249.51 42.6699C249.593 42.6777 249.675 42.6904 249.757 42.7067C249.838 42.7229 249.919 42.7428 249.999 42.7669C250.078 42.791 250.157 42.8194 250.234 42.8513C250.31 42.8833 250.386 42.9188 250.459 42.958C250.533 42.9972 250.604 43.04 250.673 43.0858C250.742 43.1322 250.809 43.1817 250.874 43.2347C250.938 43.2878 251 43.3432 251.058 43.4023C251.117 43.4614 251.173 43.5229 251.226 43.5874C251.279 43.6513 251.328 43.7182 251.375 43.7875C251.421 43.8568 251.463 43.928 251.503 44.0015C251.542 44.075 251.578 44.1504 251.61 44.227C251.641 44.3041 251.67 44.3825 251.694 44.4621C251.718 44.5416 251.738 44.6224 251.755 44.7044C251.771 44.7858 251.783 44.8684 251.791 44.9509C251.799 45.0341 251.803 45.1167 251.803 45.1999C251.803 45.2837 251.799 45.3663 251.791 45.4495C251.783 45.5321 251.771 45.6146 251.755 45.696C251.738 45.778 251.718 45.8588 251.694 45.9384C251.67 46.0179 251.641 46.0963 251.61 46.1734C251.578 46.25 251.542 46.3254 251.503 46.3989C251.463 46.4724 251.421 46.5436 251.375 46.6129C251.328 46.6822 251.279 46.7491 251.226 46.813C251.173 46.8775 251.117 46.939 251.058 46.9981C251 47.0572 250.938 47.1126 250.874 47.1657C250.809 47.2187 250.742 47.2682 250.673 47.3146C250.604 47.3604 250.533 47.4032 250.459 47.4424C250.386 47.4816 250.31 47.5171 250.234 47.5491C250.157 47.581 250.078 47.6094 249.999 47.6335C249.919 47.6576 249.838 47.6775 249.757 47.6938C249.675 47.71 249.593 47.7227 249.51 47.7305C249.427 47.739 249.344 47.7426 249.261 47.7426C249.178 47.7432 249.094 47.739 249.011 47.7311C248.929 47.7227 248.846 47.7106 248.765 47.6944C248.683 47.6781 248.602 47.6582 248.522 47.6341C248.443 47.61 248.364 47.5816 248.287 47.5503C248.21 47.5183 248.135 47.4828 248.061 47.4436C247.988 47.4044 247.916 47.3616 247.847 47.3152C247.778 47.2688 247.711 47.2193 247.647 47.1663C247.582 47.1138 247.52 47.0578 247.462 46.9987C247.403 46.9402 247.347 46.8781 247.294 46.8142C247.241 46.7497 247.192 46.6828 247.145 46.6135C247.099 46.5442 247.057 46.473 247.017 46.3995C246.978 46.326 246.942 46.2506 246.911 46.1734C246.879 46.0969 246.851 46.0185 246.827 45.9384C246.802 45.8588 246.783 45.778 246.766 45.6966C246.75 45.6146 246.738 45.5327 246.73 45.4495C246.722 45.3669 246.718 45.2837 246.718 45.1999Z" fill="#1A1A1A"/>
<path d="M249.261 61.8679C240.07 61.8679 232.593 54.3905 232.593 45.2C232.593 36.0094 240.07 28.5327 249.261 28.5327C258.451 28.5327 265.929 36.0094 265.929 45.2C265.929 54.3905 258.451 61.8679 249.261 61.8679ZM249.261 29.2091C240.443 29.2091 233.269 36.3826 233.269 45.2C233.269 54.018 240.443 61.1915 249.261 61.1915C258.078 61.1915 265.252 54.018 265.252 45.2C265.252 36.3826 258.078 29.2091 249.261 29.2091Z" fill="#5ADF93"/>
<path d="M225.188 43.8921C225.139 44.6366 225.027 45.2243 224.853 45.6548C224.677 46.084 224.441 46.4354 224.144 46.7085L222.514 45.7753C222.754 45.5824 222.935 45.3111 223.059 44.9603C223.183 44.6083 223.256 44.2502 223.28 43.8849C223.318 43.3128 223.204 42.7944 222.94 42.3296C222.675 41.8655 222.289 41.4875 221.783 41.1963C221.277 40.904 220.688 40.7213 220.018 40.649C219.862 40.6285 219.656 40.6092 219.398 40.5911C219.932 40.913 220.319 41.3603 220.56 41.9342C220.802 42.5068 220.902 43.1205 220.859 43.7764C220.811 44.5094 220.601 45.1303 220.228 45.6379C219.853 46.1442 219.371 46.5156 218.781 46.7519C218.191 46.9882 217.552 47.084 216.864 47.0388C216.019 46.9828 215.293 46.7483 214.687 46.3347C214.081 45.9218 213.632 45.372 213.341 44.6854C213.049 43.9994 212.931 43.2242 212.987 42.361C213.035 41.6279 213.277 40.9431 213.712 40.3066C214.148 39.6688 214.822 39.163 215.733 38.7899C216.643 38.4173 217.789 38.2757 219.172 38.3655C220.456 38.4511 221.564 38.7441 222.494 39.2456C223.425 39.7459 224.124 40.3994 224.59 41.206C225.054 42.0113 225.253 42.9071 225.188 43.8921ZM219.181 43.1085C219.205 42.7438 219.138 42.3893 218.979 42.0451C218.818 41.6997 218.592 41.4103 218.301 41.177C218.009 40.9443 217.684 40.8045 217.327 40.7575C216.88 40.7285 216.463 40.778 216.076 40.9046C215.687 41.0299 215.369 41.2313 215.123 41.5074C214.876 41.7823 214.739 42.1216 214.713 42.5249C214.689 42.8884 214.755 43.2357 214.911 43.5666C215.065 43.8981 215.306 44.1742 215.632 44.3961C215.959 44.6179 216.35 44.7445 216.809 44.7746C217.487 44.818 218.042 44.6987 218.475 44.4154C218.908 44.1326 219.143 43.6968 219.181 43.1085Z" fill="black"/>
<path d="M226.687 36.3772C226.469 36.9064 226.195 37.4056 225.868 37.8746C225.54 38.3423 225.183 38.7064 224.797 38.9669L223.29 37.6672C223.599 37.5291 223.904 37.2977 224.206 36.9727C224.507 36.6466 224.732 36.3024 224.881 35.9407C225.058 35.5151 225.174 35.1064 225.229 34.7158C225.283 34.3252 225.213 33.9442 225.019 33.5729C224.825 33.2003 224.442 32.8953 223.871 32.659C223.461 32.489 223.067 32.4335 222.687 32.4926C222.308 32.5505 221.961 32.7235 221.648 33.011C221.334 33.2992 221.075 33.6922 220.869 34.1901C220.702 34.594 220.582 35.0389 220.51 35.526C220.436 36.0119 220.417 36.3699 220.454 36.6014L214.732 34.0021L217.218 27.9956L218.865 28.678L217.115 32.9098L219.369 34.0214C219.398 33.7609 219.448 33.5072 219.519 33.2594C219.588 33.0104 219.682 32.741 219.801 32.4516C220.1 31.7319 220.49 31.1761 220.97 30.7854C221.449 30.3948 221.993 30.1754 222.6 30.1272C223.207 30.0777 223.852 30.1941 224.537 30.4768C225.335 30.8083 225.956 31.2743 226.398 31.8753C226.842 32.4769 227.088 33.1666 227.136 33.9442C227.185 34.7206 227.036 35.532 226.687 36.3772Z" fill="black"/>
<path d="M225.532 26.4831C224.856 27.1408 224.154 27.4332 223.424 27.3608C222.693 27.2873 221.98 26.8948 221.285 26.1841C220.52 25.4017 220.131 24.65 220.118 23.9296C220.106 23.2098 220.42 22.5359 221.061 21.909C221.696 21.2887 222.37 20.9975 223.082 21.0361C223.792 21.0734 224.534 21.487 225.307 22.2779C226.781 23.7861 226.856 25.1877 225.532 26.4831ZM225.72 17.4963L226.899 16.3438L230.501 29.232L229.32 30.387L225.72 17.4963ZM224.637 25.5934C224.911 25.3251 224.978 25.0327 224.839 24.7157C224.701 24.3992 224.422 24.026 224.003 23.5968C223.678 23.2629 223.396 23.0133 223.156 22.8493C222.917 22.6842 222.697 22.5998 222.496 22.5962C222.293 22.5931 222.101 22.68 221.919 22.8566C221.663 23.1074 221.59 23.3955 221.702 23.7198C221.815 24.0447 222.105 24.4468 222.573 24.9254C222.999 25.3631 223.379 25.6524 223.713 25.7935C224.048 25.9334 224.356 25.867 224.637 25.5934ZM235.324 24.8724C234.645 25.5349 233.94 25.8267 233.209 25.7477C232.477 25.6693 231.763 25.2727 231.065 24.5589C230.305 23.7813 229.915 23.0326 229.896 22.314C229.877 21.5955 230.188 20.9227 230.829 20.2958C231.464 19.6755 232.141 19.3844 232.859 19.4229C233.579 19.4615 234.326 19.8763 235.099 20.6671C235.789 21.373 236.172 22.0814 236.25 22.7915C236.327 23.5004 236.018 24.1942 235.324 24.8724ZM234.381 23.9778C234.579 23.7867 234.671 23.5848 234.661 23.3726C234.649 23.1604 234.568 22.9476 234.417 22.7336C234.268 22.5184 234.054 22.2682 233.776 21.9837C233.289 21.4858 232.886 21.1723 232.568 21.0433C232.251 20.9149 231.961 20.9776 231.7 21.2314C231.435 21.4906 231.361 21.7799 231.475 22.0994C231.591 22.4177 231.888 22.8222 232.367 23.3123C232.79 23.7463 233.162 24.0345 233.484 24.1755C233.805 24.3154 234.104 24.2497 234.381 23.9778Z" fill="black"/>
<path d="M242.06 21.8684C241.293 22.1016 240.662 22.189 240.167 22.1312C239.672 22.0721 239.299 21.9594 239.048 21.7936L239.183 20.0816C240.045 20.4451 240.862 20.5102 241.636 20.2769C241.984 20.1726 242.221 20.0231 242.347 19.8284C242.472 19.6325 242.502 19.43 242.438 19.2208C242.371 18.9959 242.162 18.8326 241.814 18.7313C241.465 18.6288 240.964 18.5378 240.312 18.4588C239.892 18.4106 239.518 18.3395 239.191 18.2442C238.863 18.1478 238.553 17.9784 238.26 17.7354C237.966 17.4931 237.753 17.1537 237.621 16.7179C237.476 16.2356 237.47 15.7787 237.601 15.3459C237.732 14.9137 237.996 14.5321 238.395 14.2005C238.793 13.8696 239.312 13.6074 239.95 13.4145C240.331 13.2987 240.701 13.2324 241.062 13.2143C241.423 13.1968 241.74 13.2131 242.014 13.2625C242.289 13.3108 242.495 13.3729 242.634 13.4482L242.523 15.0638C242.219 14.9498 241.887 14.8757 241.527 14.8419C241.168 14.807 240.821 14.8407 240.483 14.9432C240.079 15.0638 239.811 15.2012 239.678 15.3555C239.546 15.5098 239.516 15.7076 239.588 15.9487C239.662 16.1916 239.843 16.358 240.131 16.4478C240.418 16.5364 240.843 16.604 241.404 16.6504C242.208 16.7179 242.861 16.8885 243.364 17.1616C243.869 17.4352 244.206 17.8512 244.375 18.4106C244.516 18.8772 244.537 19.3317 244.44 19.7754C244.343 20.219 244.1 20.6259 243.709 20.9955C243.32 21.3638 242.77 21.655 242.06 21.8684Z" fill="black"/>
<path d="M247.129 20.9389C246.63 20.9546 246.206 20.8557 245.855 20.6423C245.506 20.4289 245.241 20.1336 245.057 19.7574C244.874 19.3812 244.774 18.9581 244.758 18.4867C244.745 18.0768 244.868 17.6644 245.127 17.2497C245.388 16.8337 245.86 16.4708 246.545 16.1622C247.231 15.8536 248.167 15.6812 249.352 15.6438L249.34 15.2556C249.325 14.7962 249.202 14.4442 248.971 14.1994C248.74 13.9535 248.347 13.8402 247.792 13.8594C247.354 13.8727 246.929 13.9601 246.516 14.1223C246.104 14.2832 245.804 14.4761 245.614 14.701L244.889 13.1095C245.261 12.8395 245.728 12.6056 246.289 12.4079C246.85 12.2101 247.45 12.101 248.091 12.0799C248.892 12.0546 249.531 12.1571 250.008 12.3886C250.483 12.6201 250.824 12.957 251.03 13.3989C251.236 13.8414 251.349 14.3935 251.37 15.0554L251.548 20.5579L249.747 20.6158L249.559 19.4246C249.276 19.9165 248.935 20.2879 248.534 20.5387C248.135 20.7882 247.667 20.9208 247.129 20.9389ZM247.968 19.292C248.226 19.2824 248.496 19.1703 248.775 18.9545C249.055 18.7374 249.275 18.4698 249.434 18.1515L249.395 16.9579C249.314 16.9483 249.179 16.9471 248.988 16.9531C248.42 16.9712 247.916 17.0809 247.476 17.2834C247.037 17.486 246.825 17.7982 246.839 18.219C246.852 18.6145 246.949 18.8954 247.131 19.0605C247.312 19.2263 247.592 19.3035 247.968 19.292Z" fill="black"/>
<path d="M254.996 21.6122C254.386 21.4784 253.931 21.2698 253.631 20.9853C253.33 20.7007 253.156 20.3336 253.108 19.8833C253.06 19.4336 253.11 18.8658 253.26 18.181L254.089 14.3808L253.021 14.1469L253.4 12.418L254.55 12.6688L255.042 10.9689L257.002 10.5879L256.457 13.086L258.483 13.5272L258.104 15.2561L256.079 14.8148L255.261 18.5668C255.16 19.0267 255.151 19.3667 255.237 19.5867C255.322 19.8056 255.491 19.9424 255.743 19.9966C255.968 20.0449 256.226 20.0401 256.517 19.9822C256.808 19.9231 257.058 19.8375 257.265 19.7266L257.301 21.4748C257.021 21.5917 256.642 21.6604 256.163 21.6797C255.686 21.7002 255.296 21.6779 254.996 21.6122Z" fill="black"/>
<path d="M262.244 11.084L264.411 12.0051L263.536 14.0667L261.368 13.1456L262.244 11.084ZM260.913 14.4332L262.929 15.2892L259.649 23.0077L257.633 22.1517L260.913 14.4332Z" fill="black"/>
<path d="M262.682 24.9534C262.021 24.5001 261.559 24.0612 261.295 23.6368C261.031 23.2136 260.886 22.8538 260.859 22.5566L262.279 21.5897C262.535 22.4885 262.995 23.1654 263.661 23.6224C263.961 23.8297 264.226 23.9213 264.456 23.8972C264.686 23.8743 264.863 23.7731 264.987 23.5934C265.12 23.3987 265.117 23.1335 264.977 22.7977C264.839 22.4601 264.597 22.0128 264.252 21.4546C264.026 21.0966 263.849 20.7596 263.719 20.4443C263.588 20.1296 263.526 19.7824 263.531 19.4026C263.537 19.0217 263.669 18.6443 263.928 18.2693C264.213 17.8534 264.564 17.5604 264.982 17.3916C265.402 17.2229 265.865 17.1909 266.373 17.2952C266.881 17.4001 267.411 17.6412 267.962 18.0186C268.29 18.2452 268.573 18.4936 268.811 18.7637C269.051 19.0337 269.237 19.2911 269.371 19.5353C269.504 19.7782 269.584 19.9777 269.612 20.1333L268.283 21.0568C268.18 20.7499 268.03 20.4455 267.832 20.1429C267.636 19.8409 267.392 19.5895 267.102 19.3882C266.754 19.1507 266.478 19.0283 266.275 19.0217C266.072 19.0138 265.899 19.1133 265.756 19.3207C265.613 19.5298 265.596 19.7752 265.706 20.0561C265.816 20.3358 266.029 20.7089 266.342 21.1749C266.794 21.8471 267.071 22.4649 267.174 23.0292C267.276 23.5934 267.163 24.1167 266.832 24.5989C266.555 24.9992 266.212 25.2994 265.804 25.5007C265.397 25.7015 264.928 25.7648 264.396 25.6912C263.864 25.6189 263.292 25.3729 262.682 24.9534Z" fill="black"/>
<path d="M270.682 22.7177L269.913 21.8931L271.208 20.6875L271.977 21.5121L273.111 20.4584C273.699 19.9122 274.264 19.5891 274.808 19.4891C275.351 19.3896 275.833 19.4354 276.252 19.6265C276.672 19.8182 277.034 20.0786 277.34 20.4078C277.666 20.7586 277.9 21.0721 278.044 21.3481C278.187 21.6248 278.256 21.8195 278.251 21.9317L276.908 23.1807C276.934 22.9944 276.894 22.7841 276.79 22.549C276.685 22.3127 276.564 22.1198 276.426 21.9703C275.823 21.3228 275.193 21.3041 274.536 21.9148L273.364 23.0047L274.753 24.4973L273.458 25.7029L272.069 24.2103L267.225 28.717L265.838 27.2244L270.682 22.7177Z" fill="black"/>
<path d="M278.95 24.2358L280.23 26.2131L278.349 27.4308L277.069 25.4535L278.95 24.2358ZM275.969 26.2613L277.158 28.1011L270.115 32.6536L268.926 30.8138L275.969 26.2613Z" fill="black"/>
<path d="M271.817 36.8985C271.507 36.0497 271.43 35.2829 271.588 34.5981C271.747 33.9133 272.083 33.331 272.596 32.8524C273.11 32.3749 273.749 31.9964 274.513 31.7167C275.293 31.4321 276.055 31.3164 276.799 31.3694C277.545 31.4225 278.207 31.6576 278.786 32.0735C279.365 32.4883 279.794 33.0778 280.074 33.8434C280.49 34.9827 280.459 35.9171 279.982 36.6453C279.506 37.3747 278.618 37.9775 277.318 38.4537C277.063 38.5466 276.774 38.6406 276.449 38.7359L274.716 33.9905C274.089 34.2557 273.662 34.6132 273.435 35.0635C273.209 35.5132 273.21 36.0527 273.44 36.6815C273.561 37.0076 273.762 37.3307 274.043 37.6508C274.324 37.9721 274.601 38.1861 274.872 38.2922L273.602 39.4737C272.835 38.9107 272.24 38.0523 271.817 36.8985ZM276.961 36.3077C277.735 36.0244 278.234 35.7338 278.456 35.4348C278.679 35.1358 278.724 34.8037 278.591 34.439C278.404 33.929 278.069 33.6023 277.585 33.4576C277.103 33.3141 276.554 33.337 275.941 33.5251L276.961 36.3077Z" fill="black"/>
<path d="M273.105 43.0458C273.073 42.3719 273.226 41.7757 273.565 41.2567C273.906 40.737 274.402 40.3247 275.053 40.0197C275.705 39.7159 276.471 39.5429 277.351 39.5013C278.752 39.4319 279.85 39.6628 280.645 40.1933C281.44 40.725 281.865 41.5436 281.92 42.648C281.947 43.2249 281.827 43.7168 281.561 44.1237C281.294 44.53 280.901 44.806 280.382 44.9507L281.602 44.7385L286.227 44.5119L286.323 46.4963L273.541 47.1209L273.452 45.2883L275.166 45.2039C274.56 45.0749 274.072 44.8259 273.7 44.4564C273.33 44.0881 273.132 43.6179 273.105 43.0458ZM274.795 43.4509C274.808 43.7318 274.915 43.9868 275.118 44.2153C275.321 44.4432 275.628 44.6192 276.042 44.7434C276.454 44.8669 276.967 44.9134 277.58 44.8832C278.464 44.8398 279.135 44.6807 279.593 44.4058C280.053 44.1309 280.271 43.7409 280.247 43.2363C280.232 42.9452 280.132 42.6757 279.945 42.4285C279.76 42.1808 279.461 41.9849 279.048 41.8402C278.637 41.6955 278.106 41.6389 277.457 41.6714C276.855 41.7003 276.353 41.7956 275.95 41.9583C275.548 42.1205 275.251 42.3309 275.058 42.5901C274.866 42.8505 274.779 43.1375 274.795 43.4509Z" fill="black"/>
</svg>
