<svg width="295" height="90" viewBox="0 0 295 90" fill="none" xmlns="http://www.w3.org/2000/svg">
<mask id="mask0_638_24" style="mask-type:luminance" maskUnits="userSpaceOnUse" x="0" y="0" width="91" height="90">
<path d="M0 0H90.3935V89.6698H0V0Z" fill="white"/>
</mask>
<g mask="url(#mask0_638_24)">
<path d="M87.676 29.5235C87.4825 28.9979 87.2794 28.4753 87.0666 27.9568C86.8538 27.4383 86.6314 26.9241 86.3987 26.414C86.1666 25.9039 85.9249 25.398 85.6735 24.8969C85.4221 24.3951 85.1611 23.8988 84.891 23.4073C84.621 22.9157 84.3419 22.4295 84.0537 21.9482C83.765 21.4674 83.4678 20.9914 83.1609 20.5213C82.8547 20.0513 82.5394 19.5867 82.2157 19.1286C81.892 18.67 81.5593 18.2179 81.2181 17.7718C80.8775 17.3257 80.5278 16.8861 80.1704 16.4526C79.8129 16.0196 79.447 15.5933 79.0732 15.1735C78.7001 14.7543 78.3185 14.3417 77.9291 13.9362C77.5397 13.5308 77.143 13.1331 76.7391 12.742C76.3346 12.3515 75.9229 11.9688 75.5046 11.5933C75.0856 11.2178 74.66 10.8506 74.2278 10.4906C73.795 10.1312 73.3555 9.77958 72.91 9.43633C72.464 9.09308 72.0119 8.7582 71.5537 8.4323C71.095 8.10579 70.6308 7.78766 70.16 7.4785C69.6898 7.16933 69.2136 6.86914 68.7319 6.57732C68.2497 6.2861 67.7626 6.00325 67.2701 5.72996C66.7776 5.45668 66.2803 5.19237 65.7781 4.93702C65.2754 4.68228 64.7684 4.4365 64.2566 4.20089C63.7448 3.96469 63.2288 3.73805 62.7086 3.52097C62.1884 3.3039 61.6645 3.097 61.1364 2.89906C60.6084 2.70172 60.0767 2.51395 59.5414 2.33635C59.0061 2.15874 58.4678 1.99071 57.9264 1.83284C57.3851 1.67497 56.8408 1.52726 56.294 1.38972C55.7467 1.25218 55.1975 1.12481 54.6453 1.00761C54.0937 0.890398 53.5397 0.783956 52.984 0.687081C52.4276 0.590206 51.8705 0.504095 51.3111 0.428149C50.7517 0.352204 50.1917 0.287023 49.6299 0.232007C49.0687 0.176992 48.5056 0.132142 47.9426 0.0980567C47.3796 0.0639711 46.8153 0.0400512 46.2511 0.0268954C45.9009 0.0185235 45.5494 0.0137396 45.1968 0.0137396C43.8175 0.0113476 42.4413 0.0723429 41.0681 0.196128C39.6943 0.319315 38.3295 0.505291 36.9731 0.753458C35.6174 1.00163 34.2755 1.31079 32.9475 1.68095C31.6201 2.0511 30.3126 2.48106 29.025 2.97082C27.7368 3.46058 26.4745 4.00774 25.2375 4.61231C24.0005 5.21688 22.7943 5.87647 21.6182 6.59107C20.4421 7.30568 19.3016 8.0723 18.1966 8.89096C17.0917 9.70961 16.0271 10.5767 15.0029 11.4922C5.7997 19.6979 0.0102539 31.5968 0.0102539 44.8388C0.0108568 46.5783 0.112733 48.3125 0.314676 50.0407C0.452721 51.2229 0.637786 52.398 0.870473 53.5659C1.10316 54.7338 1.38226 55.8903 1.70839 57.036C2.03391 58.1818 2.40585 59.3126 2.823 60.4291C3.23954 61.5449 3.7013 62.6428 4.20646 63.7222C4.71222 64.8022 5.26018 65.86 5.85154 66.8958C6.4423 67.9321 7.07345 68.9427 7.7462 69.9288C8.41834 70.9149 9.12966 71.8729 9.87896 72.8021C10.6283 73.732 11.4143 74.6302 12.2366 75.4973C20.4801 84.2155 32.1964 89.6632 45.1968 89.6632C47.0589 89.6662 48.9143 89.5543 50.7632 89.3289C52.6114 89.1029 54.4385 88.7644 56.2446 88.3135C58.0512 87.862 59.8223 87.3023 61.5578 86.6331C63.2939 85.9634 64.9818 85.1902 66.6209 84.3129C80.7684 76.7411 90.3833 61.9043 90.3833 44.8388C90.3857 42.2273 90.1596 39.6356 89.7051 37.0636C89.2506 34.4917 88.5742 31.9783 87.676 29.5235Z" fill="#CFF3C3"/>
</g>
<mask id="mask1_638_24" style="mask-type:luminance" maskUnits="userSpaceOnUse" x="3" y="16" width="88" height="69">
<path d="M3.68866 16.9775H90.3936V84.3356H3.68866V16.9775Z" fill="white"/>
</mask>
<g mask="url(#mask1_638_24)">
<path d="M76.8151 40.2277C76.0351 42.9546 76.152 45.9081 75.0922 48.5398C72.8214 54.1789 64.6882 56.4465 59.7885 52.8065C54.8051 49.1043 54.3976 42.0426 53.0268 36.0172C52.4221 33.3675 51.5613 30.8027 50.4431 28.3223C49.3249 25.8424 47.9721 23.4953 46.3837 21.2815C45.2751 19.7381 43.9803 18.2126 42.2086 17.504C39.4073 16.3827 36.2317 17.5859 33.5992 19.0552C30.7491 20.6458 28.0322 22.6204 26.1894 25.3006C24.3466 27.9808 23.4803 31.4611 24.4973 34.5444C25.2297 36.7635 26.8585 38.6275 27.4583 40.8855C28.8828 46.2501 24.0548 51.2924 19.0544 53.7777C14.0541 56.2623 8.2357 57.6592 4.49703 61.7854C4.22998 62.0802 3.97861 62.384 3.7417 62.6961C4.77734 65.0552 6.00769 67.3097 7.43395 69.4595C8.86021 71.6086 10.4613 73.6215 12.2366 75.4974C19.5867 72.7987 27.0496 69.173 30.051 62.1657C31.0059 59.9376 31.426 57.4996 32.5171 55.3336C33.6082 53.1671 35.6608 51.2063 38.1016 51.2517C39.3886 51.2757 40.5967 51.8527 41.7059 52.5004C42.812 53.1498 43.8633 53.8775 44.8586 54.6836C45.8544 55.4897 46.784 56.3652 47.6466 57.31C48.5093 58.2548 49.2965 59.2583 50.0073 60.3203C50.718 61.3829 51.3443 62.4916 51.8868 63.6476C54.96 70.2345 55.6249 78.7092 61.7941 82.6111C63.262 83.5392 64.9095 84.0828 66.6209 84.3136C80.769 76.7412 90.3833 61.9044 90.3833 44.8389C90.3857 42.2274 90.1596 39.6357 89.7051 37.0637C89.2506 34.4918 88.5742 31.9784 87.676 29.5236C87.1896 29.706 86.7073 29.9016 86.2329 30.1168C81.892 32.0884 78.1178 35.6722 76.8151 40.2277Z" fill="#E8FFD4"/>
</g>
<mask id="mask2_638_24" style="mask-type:luminance" maskUnits="userSpaceOnUse" x="0" y="0" width="88" height="63">
<path d="M0.293579 0H87.7936V62.7505H0.293579V0Z" fill="white"/>
</mask>
<g mask="url(#mask2_638_24)">
<path d="M14.9608 29.4781C15.3967 33.676 15.3774 37.8721 14.9024 42.0659C14.6926 43.9161 14.3303 45.887 13.0131 47.2128C11.8991 48.3334 10.2902 48.7963 8.73918 49.1276C5.96261 49.7178 3.15469 50.0222 0.314819 50.0407C0.568605 52.2222 0.982137 54.3732 1.55662 56.4943C2.1305 58.6147 2.85931 60.682 3.74183 62.696C3.97934 62.3845 4.23132 62.0807 4.49716 61.7853C8.23583 57.6591 14.0542 56.2622 19.0546 53.7776C24.0549 51.2923 28.8829 46.25 27.4584 40.8854C26.8586 38.6274 25.2298 36.7635 24.4974 34.5443C23.4805 31.461 24.3467 27.9807 26.1895 25.3005C28.0323 22.6203 30.7492 20.6457 33.5993 19.0551C36.2318 17.5858 39.4075 16.3826 42.2088 17.5039C43.9804 18.2125 45.2753 19.738 46.3839 21.2814C47.9723 23.4952 49.325 25.8423 50.4432 28.3222C51.5614 30.8026 52.4223 33.3674 53.0269 36.0172C54.3977 42.0425 54.8052 49.1042 59.7887 52.8064C64.6884 56.4464 72.8216 54.1788 75.0924 48.5397C76.1521 45.908 76.0352 42.9545 76.8152 40.2276C78.1179 35.6721 81.8922 32.0883 86.233 30.1167C86.7075 29.9015 87.1897 29.7059 87.6762 29.5235C86.9974 27.6775 86.1999 25.883 85.2842 24.1404C84.3685 22.3984 83.3413 20.7229 82.2038 19.1137C81.0663 17.5051 79.8275 15.9772 78.4874 14.5294C77.1474 13.0823 75.7181 11.7278 74.199 10.4667C73.3515 11.1645 72.6606 11.9904 72.1247 12.9448C71.3254 14.3901 70.9884 16.0352 70.6623 17.6516C70.0962 20.455 69.5308 23.2578 68.9648 26.0606C68.7164 27.2906 68.427 28.5984 67.5258 29.4793C66.3558 30.6227 64.4804 30.6998 62.8872 30.3009C59.7127 29.5074 57.1122 27.1633 55.3375 24.4346C53.5628 21.7054 52.5073 18.5892 51.4692 15.509C49.7301 10.3483 47.991 5.18758 46.2512 0.0268954C45.901 0.0185235 45.5496 0.0137396 45.1969 0.0137396C43.8177 0.0113476 42.4414 0.0723429 41.0682 0.196128C39.6944 0.319912 38.3296 0.505291 36.9733 0.753458C35.6176 1.00163 34.2757 1.31079 32.9477 1.68095C31.6203 2.0511 30.3128 2.48106 29.0252 2.97082C27.7369 3.46058 26.4746 4.00774 25.2377 4.61231C24.0007 5.21688 22.7944 5.87647 21.6184 6.59107C20.4423 7.30568 19.3017 8.0723 18.1968 8.89096C17.0918 9.70961 16.0272 10.5767 15.003 11.4922C14.7191 12.2624 14.4882 13.0482 14.3104 13.8489C13.1783 18.9684 14.4195 24.2642 14.9608 29.4781Z" fill="#E8FFD4"/>
</g>
<path d="M45.1968 87.2565C21.6188 87.2565 2.43658 68.2277 2.43658 44.839C2.43658 21.4497 21.6188 2.4209 45.1968 2.4209C68.7741 2.4209 87.9563 21.4497 87.9563 44.8384C87.9563 68.2277 68.7741 87.2565 45.1968 87.2565ZM45.1968 2.75637C21.8051 2.75637 2.77476 21.6344 2.77476 44.8384C2.77476 68.0429 21.8051 86.921 45.1968 86.921C68.5878 86.921 87.6182 68.0429 87.6182 44.8384C87.6182 21.6344 68.5878 2.75637 45.1968 2.75637Z" fill="#C7E8B5"/>
<path d="M45.1968 84.2805C23.2724 84.2805 5.43622 66.587 5.43622 44.838C5.43622 23.0895 23.2724 5.39551 45.1968 5.39551C67.1206 5.39551 84.9567 23.0895 84.9567 44.838C84.9567 66.587 67.1206 84.2805 45.1968 84.2805ZM45.1968 5.73098C23.4592 5.73098 5.7738 23.2743 5.7738 44.838C5.7738 66.4022 23.4592 83.945 45.1968 83.945C66.9343 83.945 84.6186 66.4022 84.6186 44.8386C84.6186 23.2743 66.9343 5.73098 45.1968 5.73098Z" fill="#C7E8B5"/>
<path d="M45.1968 81.1479C25.0139 81.1479 8.59436 64.8597 8.59436 44.8383C8.59436 24.8175 25.0139 8.5293 45.1968 8.5293C65.3797 8.5293 81.7992 24.8175 81.7992 44.8383C81.7992 64.8597 65.3797 81.1479 45.1968 81.1479ZM45.1968 8.86417C25.2001 8.86417 8.93254 25.0022 8.93254 44.8383C8.93254 64.6749 25.2001 80.813 45.1968 80.813C65.1928 80.813 81.461 64.6749 81.461 44.8383C81.461 25.0022 65.1928 8.86417 45.1968 8.86417Z" fill="#C7E8B5"/>
<path d="M45.1968 77.9358C26.7994 77.9358 11.8315 63.0888 11.8315 44.838C11.8315 26.5878 26.7994 11.7402 45.1968 11.7402C63.5941 11.7402 78.5614 26.5878 78.5614 44.838C78.5614 63.0888 63.5941 77.9358 45.1968 77.9358ZM45.1968 12.0757C26.9857 12.0757 12.1697 26.7732 12.1697 44.838C12.1697 62.9034 26.9857 77.6003 45.1968 77.6003C63.4072 77.6003 78.2233 62.9034 78.2233 44.838C78.2233 26.7732 63.4072 12.0757 45.1968 12.0757Z" fill="#C7E8B5"/>
<path d="M45.1967 74.8812C28.4975 74.8812 14.9113 61.4042 14.9113 44.838C14.9113 28.2724 28.4975 14.7954 45.1967 14.7954C61.896 14.7954 75.4816 28.2724 75.4816 44.838C75.4816 61.4042 61.896 74.8812 45.1967 74.8812ZM45.1967 15.1309C28.6838 15.1309 15.2494 28.4578 15.2494 44.838C15.2494 61.2189 28.6838 74.5458 45.1967 74.5458C61.7091 74.5458 75.1435 61.2189 75.1435 44.838C75.1435 28.4578 61.7091 15.1309 45.1967 15.1309Z" fill="#C7E8B5"/>
<path d="M45.1967 71.8987C30.1547 71.8987 17.9175 59.7594 17.9175 44.8382C17.9175 29.9171 30.1547 17.7778 45.1967 17.7778C60.2382 17.7778 72.4754 29.9171 72.4754 44.8382C72.4754 59.7594 60.2382 71.8987 45.1967 71.8987ZM45.1967 18.1133C30.3415 18.1133 18.2557 30.1025 18.2557 44.8382C18.2557 59.5746 30.3415 71.5632 45.1967 71.5632C60.0513 71.5632 72.1372 59.5746 72.1372 44.8382C72.1372 30.1025 60.0513 18.1133 45.1967 18.1133Z" fill="#C7E8B5"/>
<path d="M45.1968 68.7332C31.9143 68.7332 21.1088 58.0136 21.1088 44.838C21.1088 31.6624 31.9143 20.9434 45.1968 20.9434C58.4786 20.9434 69.2841 31.6624 69.2841 44.838C69.2841 58.0136 58.4786 68.7332 45.1968 68.7332ZM45.1968 21.2782C32.1012 21.2782 21.447 31.8472 21.447 44.838C21.447 57.8294 32.1012 68.3978 45.1968 68.3978C58.2924 68.3978 68.9459 57.8294 68.9459 44.838C68.9459 31.8472 58.2924 21.2782 45.1968 21.2782Z" fill="#C7E8B5"/>
<path d="M60.7163 31.9587C60.0888 31.2118 59.41 30.5139 58.6794 29.8651C57.9494 29.2163 57.1753 28.6243 56.3573 28.0879C55.5399 27.5515 54.6869 27.0773 53.799 26.6646C52.9116 26.2526 51.9984 25.9064 51.0598 25.6265V25.62C49.1476 25.0465 47.1939 24.76 45.1968 24.7612C34.0188 24.7612 24.9572 33.7497 24.9572 44.8383C24.9572 45.1672 24.9657 45.4955 24.9819 45.8238C24.9988 46.1515 25.0229 46.4792 25.0555 46.8063C25.0886 47.1328 25.129 47.4593 25.1778 47.784C25.2267 48.1087 25.2833 48.4322 25.3478 48.7545C25.4129 49.0769 25.4853 49.3974 25.5661 49.7161C25.6468 50.0348 25.7355 50.3512 25.8313 50.6651C25.9277 50.9797 26.0314 51.2918 26.1436 51.601C26.2551 51.9102 26.3744 52.2163 26.501 52.5201C26.6282 52.8233 26.762 53.1235 26.9037 53.4207C27.0454 53.7173 27.1943 54.0109 27.3504 54.3003C27.5071 54.5904 27.6699 54.8762 27.8405 55.1579C28.0105 55.4395 28.1877 55.717 28.3722 55.9903C28.556 56.2636 28.7465 56.5321 28.9442 56.7958C29.1414 57.0595 29.3451 57.3184 29.5549 57.5726C29.7653 57.8261 29.9817 58.0749 30.2041 58.3183C30.4266 58.5616 30.6544 58.7996 30.8889 59.0317C31.1228 59.2643 31.3627 59.4909 31.6081 59.7116C31.8534 59.9322 32.1042 60.1463 32.3604 60.355C32.616 60.5631 32.877 60.7652 33.1429 60.9614C33.4093 61.1569 33.68 61.3459 33.9549 61.5289C34.2303 61.7113 34.51 61.8871 34.794 62.0557C35.0779 62.225 35.366 62.387 35.6584 62.5419C35.9502 62.6968 36.2462 62.8445 36.5452 62.985C36.8448 63.1255 37.1474 63.2589 37.453 63.3845C37.7592 63.51 38.0679 63.6284 38.3795 63.7397C38.6918 63.8503 39.0059 63.9532 39.3229 64.0488C39.6394 64.1445 39.9589 64.2318 40.2802 64.3119C40.6009 64.3921 40.924 64.4638 41.2489 64.5284C41.5738 64.5924 41.9 64.6486 42.2273 64.6971C42.5552 64.7455 42.8838 64.7862 43.2129 64.8185C43.5426 64.8507 43.873 64.8753 44.2039 64.8914C44.5343 64.9076 44.8652 64.9159 45.1968 64.9159C56.3748 64.9159 65.4363 55.9269 65.4363 44.8383C65.4369 44.2552 65.4122 43.6734 65.3622 43.0921C65.3116 42.5109 65.2356 41.9332 65.1343 41.3586C65.0331 40.7839 64.9065 40.2152 64.7546 39.6519C64.6026 39.088 64.4266 38.5324 64.2259 37.9841C64.0245 37.4357 63.8003 36.8975 63.5513 36.3689C63.303 35.8403 63.0317 35.3236 62.7375 34.8183C62.4434 34.3136 62.1275 33.822 61.7899 33.3448C61.4523 32.867 61.0942 32.4054 60.7163 31.9587ZM42.6541 44.8383C42.6541 44.7558 42.6583 44.6738 42.6662 44.5913C42.6746 44.5094 42.6866 44.4275 42.7029 44.3467C42.7192 44.2654 42.7391 44.1853 42.7632 44.1063C42.7879 44.0274 42.8157 43.9497 42.8476 43.8731C42.8795 43.7972 42.9151 43.7224 42.9543 43.6495C42.9935 43.5765 43.0363 43.5059 43.0827 43.4372C43.1285 43.3684 43.1785 43.302 43.231 43.2386C43.284 43.1747 43.3401 43.1137 43.3986 43.0551C43.4576 42.9965 43.5191 42.9414 43.5836 42.8888C43.6481 42.8362 43.7151 42.7872 43.7838 42.7411C43.8531 42.6957 43.9248 42.6532 43.9978 42.6143C44.0713 42.5755 44.1467 42.5402 44.2238 42.5085C44.3004 42.4768 44.3788 42.4487 44.4583 42.4248C44.5385 42.4009 44.6187 42.3811 44.7007 42.365C44.782 42.3488 44.8646 42.3363 44.9472 42.3285C45.0304 42.3201 45.1136 42.3165 45.1968 42.3165C45.28 42.3165 45.3632 42.3201 45.4457 42.3285C45.5289 42.3363 45.6109 42.3488 45.6929 42.365C45.7743 42.3811 45.8551 42.4009 45.9346 42.4248C46.0142 42.4487 46.0926 42.4768 46.1697 42.5085C46.2463 42.5402 46.3216 42.5755 46.3952 42.6143C46.4687 42.6532 46.5399 42.6957 46.6092 42.7411C46.6785 42.7872 46.7454 42.8362 46.8099 42.8888C46.8738 42.9414 46.9359 42.9965 46.9944 43.0551C47.0534 43.1137 47.1095 43.1747 47.162 43.2386C47.215 43.302 47.2644 43.3684 47.3109 43.4372C47.3567 43.5059 47.3995 43.5765 47.4393 43.6495C47.4784 43.7224 47.514 43.7972 47.546 43.8731C47.5773 43.9497 47.6056 44.0274 47.6297 44.1063C47.6539 44.1853 47.6744 44.2654 47.6906 44.3467C47.7069 44.4275 47.719 44.5094 47.7268 44.5913C47.7352 44.6738 47.7395 44.7558 47.7395 44.8383C47.7395 44.9214 47.7352 45.0033 47.7268 45.0858C47.719 45.1678 47.7069 45.2497 47.6906 45.3304C47.6744 45.4118 47.6539 45.4919 47.6297 45.5708C47.6056 45.6498 47.5773 45.7275 47.546 45.804C47.514 45.88 47.4784 45.9547 47.4393 46.0277C47.3995 46.1006 47.3573 46.1712 47.3109 46.24C47.2644 46.3087 47.215 46.3751 47.162 46.4385C47.1095 46.5025 47.0534 46.5635 46.9944 46.6221C46.9359 46.6807 46.8738 46.7357 46.8099 46.7883C46.7454 46.841 46.6785 46.89 46.6092 46.936C46.5399 46.9815 46.4687 47.0239 46.3952 47.0628C46.3216 47.1017 46.2463 47.137 46.1697 47.1687C46.0926 47.2004 46.0142 47.2285 45.9346 47.2524C45.8551 47.2763 45.7743 47.296 45.6929 47.3122C45.6109 47.3283 45.5289 47.3409 45.4457 47.3487C45.3632 47.357 45.28 47.3606 45.1968 47.3606C45.1136 47.3612 45.0304 47.357 44.9472 47.3493C44.8646 47.3409 44.782 47.3289 44.7007 47.3128C44.6187 47.2966 44.5379 47.2769 44.4583 47.253C44.3788 47.2291 44.3004 47.201 44.2232 47.1699C44.1461 47.1382 44.0707 47.1029 43.9972 47.064C43.9242 47.0251 43.8525 46.9827 43.7832 46.9366C43.7138 46.8906 43.6469 46.8416 43.583 46.7889C43.5185 46.7369 43.4564 46.6813 43.398 46.6227C43.3389 46.5647 43.2828 46.5031 43.2304 46.4397C43.1773 46.3757 43.1279 46.3093 43.0815 46.2406C43.0351 46.1718 42.9929 46.1012 42.9531 46.0283C42.9139 45.9553 42.8783 45.8806 42.847 45.804C42.815 45.7281 42.7867 45.6504 42.7626 45.5708C42.7385 45.4919 42.7186 45.4118 42.7023 45.331C42.686 45.2497 42.674 45.1684 42.6662 45.0858C42.6577 45.0039 42.6541 44.9214 42.6541 44.8383Z" fill="#1A1A1A"/>
<path d="M45.1967 61.3727C36.0062 61.3727 28.5289 53.9551 28.5289 44.8381C28.5289 35.7211 36.0062 28.3042 45.1967 28.3042C54.3873 28.3042 61.8646 35.7211 61.8646 44.8381C61.8646 53.9551 54.3873 61.3727 45.1967 61.3727ZM45.1967 28.9751C36.3793 28.9751 29.2052 36.0913 29.2052 44.8381C29.2052 53.5856 36.3793 60.7017 45.1967 60.7017C54.0141 60.7017 61.1883 53.5856 61.1883 44.8381C61.1883 36.0913 54.0141 28.9751 45.1967 28.9751Z" fill="#5ADF93"/>
<path d="M9.46757 42.6767L8.62122 40.2896L20.815 41.4879L20.5859 43.7699L9.46757 42.6767Z" fill="black"/>
<path d="M21.5095 32.4592L23.3493 33.1098L20.7644 40.2977C20.3388 40.2325 19.9488 40.1368 19.595 40.0106C18.9282 39.775 18.3905 39.4647 17.9818 39.0802C17.5737 38.6963 17.256 38.2304 17.0294 37.6833C16.8015 37.1367 16.6098 36.4532 16.4555 35.6333C16.3446 35.064 16.2306 34.5892 16.1131 34.2077C15.9962 33.8268 15.8045 33.4674 15.5392 33.1289C15.2728 32.7911 14.9123 32.5417 14.459 32.3802C14.1684 32.2786 13.8797 32.2427 13.5933 32.2726C13.3058 32.3031 13.0436 32.4149 12.8073 32.6075C12.5697 32.8006 12.3853 33.0781 12.2551 33.4399C12.0477 34.0176 12.0682 34.5534 12.3154 35.0473C12.5631 35.5418 12.9869 35.9515 13.5861 36.2768L12.1683 37.688C11.633 37.4028 11.1965 37.0015 10.8589 36.4849C10.5202 35.9682 10.3152 35.3792 10.2441 34.7172C10.1735 34.0558 10.2652 33.3723 10.519 32.6673C10.7589 31.9993 11.1025 31.4396 11.551 30.9881C11.9995 30.5354 12.5239 30.2382 13.1231 30.0959C13.7211 29.9524 14.3517 29.9978 15.0136 30.2323C15.6923 30.4715 16.2433 30.8033 16.6677 31.2273C17.0921 31.6501 17.426 32.1686 17.6684 32.7821C17.9113 33.3944 18.1289 34.1682 18.3218 35.1023C18.4249 35.6208 18.5171 36.0196 18.5991 36.2983C18.6811 36.5776 18.8035 36.8341 18.9656 37.0685C19.1266 37.3017 19.3508 37.4991 19.6384 37.6617L21.5095 32.4592Z" fill="black"/>
<path d="M25.369 30.9072C25.0152 31.3682 24.6155 31.785 24.1706 32.1582C23.7269 32.5301 23.2815 32.7921 22.8348 32.9451L21.6943 31.2899C22.0306 31.2325 22.3899 31.0842 22.7721 30.845C23.1531 30.6058 23.4653 30.3283 23.7101 30.0126C23.9928 29.6442 24.2116 29.2771 24.3659 28.9099C24.5215 28.5433 24.5528 28.1534 24.46 27.7402C24.3665 27.3258 24.0699 26.9293 23.5702 26.5514C23.2115 26.2787 22.8378 26.1226 22.449 26.0826C22.0584 26.0413 21.6725 26.1202 21.2916 26.3194C20.9094 26.5191 20.5513 26.8348 20.2186 27.2666C19.9485 27.6176 19.714 28.0201 19.5145 28.4745C19.3137 28.929 19.201 29.2759 19.1769 29.5151L14.2314 25.4894L18.2437 20.2725L19.6881 21.368L16.8597 25.0445L18.7863 26.714C18.8845 26.4671 18.9997 26.2321 19.1311 26.0084C19.2631 25.7836 19.4265 25.5456 19.6206 25.2932C20.1028 24.6683 20.6321 24.2282 21.2072 23.9728C21.7811 23.7163 22.373 23.6422 22.9819 23.7504C23.5907 23.8592 24.1947 24.1397 24.7927 24.5924C25.4932 25.1234 25.9827 25.7399 26.2612 26.4414C26.5409 27.1434 26.6024 27.8801 26.4469 28.6515C26.2925 29.4218 25.9333 30.174 25.369 30.9072Z" fill="black"/>
<path d="M26.8174 20.9547C25.9819 21.4235 25.2139 21.5276 24.5146 21.2656C23.8154 21.0025 23.2174 20.4344 22.7207 19.5602C22.1727 18.5986 21.9864 17.7656 22.1612 17.0605C22.3367 16.3543 22.8219 15.7778 23.6177 15.3311C24.4037 14.891 25.1416 14.7822 25.8312 15.0034C26.5208 15.2253 27.1417 15.8215 27.6951 16.7926C28.7512 18.6488 28.4583 20.0362 26.8174 20.9547ZM29.3492 12.2335L30.8129 11.4131L30.9865 24.9254L29.5253 25.7434L29.3492 12.2335ZM26.1712 19.852C26.5088 19.6642 26.6516 19.3975 26.6004 19.0531C26.5485 18.7074 26.3737 18.2703 26.0747 17.7423C25.842 17.3344 25.628 17.0187 25.4333 16.795C25.2392 16.5702 25.0427 16.4309 24.845 16.3764C24.6461 16.3208 24.4345 16.3561 24.2108 16.4817C23.8925 16.6587 23.7473 16.9206 23.7744 17.2662C23.8003 17.6125 23.9805 18.0789 24.3145 18.6656C24.6219 19.2049 24.9209 19.5865 25.2115 19.8113C25.5027 20.035 25.8228 20.0481 26.1712 19.852ZM36.8748 21.9234C36.0339 22.394 35.2641 22.4969 34.5648 22.232C33.8655 21.9659 33.2651 21.3936 32.7636 20.5146C32.2198 19.5578 32.033 18.7265 32.2018 18.0197C32.3705 17.3117 32.8528 16.7352 33.6485 16.2903C34.4346 15.8502 35.1761 15.742 35.8741 15.965C36.5716 16.1887 37.1967 16.7867 37.7501 17.759C38.245 18.6285 38.4379 19.419 38.3288 20.1318C38.2191 20.8434 37.7344 21.4402 36.8748 21.9234ZM36.1779 20.8064C36.4221 20.6694 36.5668 20.4966 36.612 20.2873C36.6566 20.0768 36.6325 19.8484 36.5396 19.6008C36.448 19.3521 36.3021 19.0531 36.1032 18.7038C35.7542 18.0915 35.4407 17.6813 35.1628 17.472C34.8843 17.2633 34.5829 17.2495 34.2586 17.4313C33.9318 17.6149 33.7835 17.8774 33.8125 18.2183C33.8426 18.5597 34.0295 19.0309 34.3719 19.6319C34.6757 20.1647 34.9663 20.5421 35.2448 20.7633C35.5245 20.9834 35.8355 20.9977 36.1779 20.8064Z" fill="black"/>
<path d="M44.2831 20.7388C43.4663 20.7657 42.8225 20.6874 42.3517 20.502C41.8803 20.3155 41.5439 20.1091 41.3413 19.8825L41.92 18.2512C42.6705 18.8241 43.4572 19.0967 44.2807 19.0692C44.652 19.0585 44.9251 18.9748 45.1005 18.8181C45.2753 18.662 45.3591 18.4748 45.3513 18.256C45.3428 18.0168 45.1789 17.8027 44.8594 17.6125C44.5411 17.4212 44.0721 17.2029 43.4536 16.9571C43.0533 16.7992 42.7043 16.6318 42.4071 16.4548C42.1093 16.2778 41.8483 16.0332 41.6235 15.7205C41.3998 15.4065 41.2798 15.0196 41.2642 14.5604C41.2479 14.0533 41.3606 13.6054 41.6018 13.2161C41.8429 12.8274 42.2022 12.5236 42.6796 12.3047C43.157 12.0847 43.7357 11.9639 44.4157 11.9411C44.8208 11.9286 45.203 11.9603 45.5635 12.0368C45.9252 12.1122 46.2326 12.209 46.487 12.3286C46.7408 12.4471 46.927 12.5607 47.0464 12.6707L46.5183 14.2159C46.2483 14.0281 45.9402 13.8709 45.5948 13.7447C45.2506 13.6173 44.8992 13.5593 44.5411 13.5701C44.1119 13.5844 43.8117 13.6502 43.6417 13.7662C43.4711 13.8828 43.3897 14.067 43.3981 14.3188C43.406 14.5741 43.5404 14.7828 43.8008 14.9455C44.0612 15.1081 44.4603 15.2851 44.9992 15.4765C45.7738 15.751 46.3736 16.0876 46.798 16.4859C47.2224 16.883 47.4449 17.3757 47.4659 17.9641C47.4816 18.4557 47.384 18.9042 47.1718 19.3108C46.9608 19.7175 46.6154 20.0511 46.1349 20.3107C45.6557 20.5708 45.0384 20.7131 44.2831 20.7388Z" fill="black"/>
<path d="M50.7627 21.4363C50.1418 21.3131 49.6764 21.111 49.3665 20.8287C49.0561 20.5477 48.8722 20.1817 48.8144 19.7284C48.7565 19.2757 48.7975 18.7017 48.9373 18.0062L49.7138 14.1551L48.6215 13.9375L48.9735 12.1889L50.1502 12.4233L50.618 10.6915L52.6097 10.2729L52.0985 12.8084L54.165 13.2175L53.8129 14.966L51.7465 14.557L50.9821 18.3578C50.8868 18.8255 50.8838 19.1687 50.9724 19.3888C51.0623 19.6088 51.2365 19.7446 51.4957 19.7954C51.7254 19.842 51.9882 19.8325 52.2842 19.7667C52.5796 19.6997 52.8321 19.61 53.0413 19.4964L53.1088 21.2593C52.8255 21.3819 52.4409 21.4578 51.9538 21.4865C51.468 21.5152 51.0713 21.4985 50.7627 21.4363Z" fill="black"/>
<path d="M56.644 14.0312L58.4187 14.8015L57.9099 16.2103C58.2523 15.885 58.6676 15.6572 59.1565 15.5262C59.6448 15.3941 60.2199 15.4706 60.8806 15.7559C61.1422 15.8695 61.364 16.016 61.5461 16.196L60.2078 18.0426C60.156 17.9182 60.0776 17.81 59.9715 17.7173C59.8654 17.6234 59.7238 17.5379 59.5471 17.4613C59.1806 17.3023 58.831 17.2413 58.4982 17.2796C58.1667 17.3178 57.8894 17.4099 57.6663 17.5546C57.4445 17.6999 57.3053 17.8381 57.2492 17.9684L55.1876 22.64L53.2248 21.786L56.644 14.0312Z" fill="black"/>
<path d="M60.5419 26.1123C59.8167 25.549 59.3387 24.9319 59.1072 24.2609C58.8757 23.5894 58.8528 22.913 59.0397 22.2301C59.2278 21.5478 59.5762 20.8828 60.0862 20.2352C60.607 19.575 61.2032 19.0697 61.8753 18.7187C62.5487 18.3665 63.248 18.2134 63.9731 18.2595C64.6977 18.3061 65.3861 18.5824 66.0372 19.0895C67.0095 19.8441 67.4864 20.661 67.4671 21.5412C67.4478 22.4215 67.0023 23.413 66.1312 24.5169C65.9624 24.7303 65.7635 24.9648 65.5356 25.2201L61.4871 22.077C61.0869 22.6386 60.909 23.1714 60.9542 23.6773C61.0007 24.1844 61.2918 24.646 61.8271 25.0622C62.1068 25.2775 62.454 25.4479 62.8688 25.5741C63.2847 25.6997 63.6392 25.735 63.9321 25.6794L63.4668 27.3681C62.5023 27.2963 61.5269 26.8777 60.5419 26.1123ZM64.6724 22.864C65.1884 22.2086 65.4615 21.6937 65.4922 21.3188C65.5242 20.9444 65.3849 20.6365 65.0751 20.3955C64.6374 20.0576 64.1721 19.9554 63.679 20.0893C63.1853 20.2233 62.7241 20.5336 62.2949 21.0198L64.6724 22.864Z" fill="black"/>
<path d="M64.3499 29.8682C64.0521 29.458 63.8942 29.0466 63.8749 28.634C63.8568 28.2208 63.9551 27.8315 64.1691 27.4667C64.3825 27.1019 64.6851 26.7802 65.0757 26.5027C65.4145 26.2623 65.8329 26.1338 66.3296 26.1176C66.8275 26.1003 67.4014 26.2922 68.0512 26.6941C68.7023 27.0959 69.3798 27.7824 70.0839 28.7536L70.4022 28.5263C70.7832 28.2549 71.0111 27.9535 71.087 27.6222C71.1642 27.2921 71.037 26.8992 70.706 26.4429C70.4468 26.0841 70.1321 25.7774 69.7608 25.522C69.3895 25.2673 69.0549 25.1238 68.7577 25.0915L69.6933 23.5869C70.1334 23.7496 70.5963 24.0103 71.0822 24.3691C71.5675 24.7267 72.0009 25.168 72.3819 25.6942C72.8575 26.3514 73.1318 26.9446 73.2041 27.4739C73.2776 28.0031 73.186 28.4785 72.9292 28.8995C72.6718 29.3205 72.2697 29.7259 71.7236 30.117L67.1735 33.3605L66.1005 31.8823L66.9999 31.0523C66.4242 31.0953 65.9185 31.0188 65.4832 30.8226C65.0474 30.6277 64.6694 30.3096 64.3499 29.8682ZM66.2114 29.6482C66.3657 29.8599 66.6129 30.0219 66.9541 30.1338C67.2965 30.245 67.6485 30.2779 68.0102 30.2318L68.9964 29.5286C68.9591 29.4568 68.8837 29.3426 68.7698 29.1865C68.4322 28.7207 68.0524 28.3601 67.6317 28.1054C67.2121 27.8518 66.8287 27.8482 66.4815 28.0958C66.1536 28.3302 65.9703 28.57 65.9317 28.8158C65.8943 29.0627 65.9878 29.3402 66.2114 29.6482Z" fill="black"/>
<path d="M78.5028 40.2816C78.7084 41.0901 78.6023 41.767 78.1846 42.3124C77.768 42.8578 77.0808 43.25 76.1229 43.4892L70.6566 44.8622L70.1213 42.7716L75.3706 41.4537C75.8529 41.3323 76.2073 41.1451 76.434 40.8916C76.6618 40.638 76.7282 40.3223 76.6317 39.9443C76.5654 39.686 76.4364 39.4564 76.2435 39.2554C76.0506 39.0557 75.8179 38.914 75.5466 38.8297C75.2748 38.7465 74.992 38.7418 74.6979 38.8153L69.4485 40.1333L68.9108 38.0236L74.1602 36.7056C74.631 36.5872 74.9854 36.3887 75.2235 36.11C75.4628 35.8307 75.5346 35.5012 75.4381 35.1221C75.3706 34.8572 75.2404 34.6324 75.0475 34.4476C74.8558 34.2622 74.6231 34.1342 74.3482 34.0625C74.0734 33.9919 73.7864 33.9943 73.4874 34.0696L68.2381 35.3876L67.7004 33.2779L75.9734 31.2017L76.4557 33.0961L75.373 33.4214C76.3791 33.7575 77.0175 34.4559 77.2876 35.5168C77.4274 36.0669 77.4226 36.5573 77.2731 36.9878C77.1248 37.4196 76.8421 37.788 76.4243 38.0929C77.5203 38.4147 78.2135 39.1442 78.5028 40.2816Z" fill="black"/>
<mask id="mask3_638_24" style="mask-type:luminance" maskUnits="userSpaceOnUse" x="102" y="0" width="91" height="90">
<path d="M102.394 0H192.064V89.6698H102.394V0Z" fill="white"/>
</mask>
<g mask="url(#mask3_638_24)">
<path d="M189.368 29.5235C189.176 28.9979 188.975 28.4753 188.764 27.9568C188.553 27.4383 188.332 26.9241 188.101 26.414C187.871 25.9039 187.631 25.398 187.382 24.8969C187.132 24.3951 186.873 23.8988 186.606 23.4073C186.338 22.9157 186.061 22.4295 185.775 21.9482C185.489 21.4674 185.194 20.9914 184.889 20.5213C184.586 20.0513 184.273 19.5867 183.952 19.1286C183.631 18.67 183.3 18.2179 182.962 17.7718C182.624 17.3257 182.277 16.8861 181.923 16.4526C181.568 16.0196 181.205 15.5933 180.834 15.1735C180.464 14.7543 180.086 14.3417 179.699 13.9362C179.313 13.5308 178.92 13.1331 178.519 12.742C178.118 12.3515 177.709 11.9688 177.294 11.5933C176.879 11.2178 176.456 10.8506 176.028 10.4906C175.598 10.1312 175.162 9.77958 174.72 9.43633C174.278 9.09308 173.829 8.7582 173.375 8.4323C172.92 8.10579 172.459 7.78766 171.992 7.4785C171.526 7.16933 171.054 6.86914 170.576 6.57732C170.097 6.2861 169.614 6.00325 169.126 5.72996C168.637 5.45668 168.144 5.19237 167.646 4.93702C167.147 4.68228 166.644 4.4365 166.136 4.20089C165.629 3.96469 165.117 3.73805 164.601 3.52097C164.085 3.3039 163.565 3.097 163.041 2.89906C162.517 2.70172 161.99 2.51395 161.459 2.33635C160.928 2.15874 160.394 1.99071 159.857 1.83284C159.32 1.67497 158.78 1.52726 158.237 1.38972C157.694 1.25218 157.15 1.12481 156.602 1.00761C156.055 0.890398 155.505 0.783956 154.954 0.687081C154.402 0.590206 153.849 0.504095 153.294 0.428149C152.739 0.352204 152.184 0.287023 151.627 0.232007C151.07 0.176992 150.511 0.132142 149.953 0.0980567C149.394 0.0639711 148.835 0.0400512 148.275 0.0268954C147.927 0.0185235 147.579 0.0137396 147.229 0.0137396C145.861 0.0113476 144.495 0.0723429 143.133 0.196128C141.77 0.319315 140.417 0.505291 139.071 0.753458C137.726 1.00163 136.395 1.31079 135.078 1.68095C133.761 2.0511 132.464 2.48106 131.187 2.97082C129.909 3.46058 128.656 4.00774 127.429 4.61231C126.202 5.21688 125.006 5.87647 123.839 6.59107C122.672 7.30568 121.541 8.0723 120.445 8.89096C119.349 9.70961 118.293 10.5767 117.277 11.4922C108.147 19.6979 102.404 31.5968 102.404 44.8388C102.404 46.5783 102.506 48.3125 102.706 50.0407C102.843 51.2229 103.026 52.398 103.257 53.5659C103.488 54.7338 103.765 55.8903 104.088 57.036C104.411 58.1818 104.78 59.3126 105.194 60.4291C105.607 61.5449 106.065 62.6428 106.567 63.7222C107.068 64.8022 107.612 65.86 108.198 66.8958C108.784 67.9321 109.411 68.9427 110.078 69.9288C110.745 70.9149 111.45 71.8729 112.194 72.8021C112.937 73.732 113.717 74.6302 114.532 75.4973C122.71 84.2155 134.333 89.6632 147.229 89.6632C149.076 89.6662 150.917 89.5543 152.751 89.3289C154.584 89.1029 156.397 88.7644 158.188 88.3135C159.981 87.862 161.737 87.3023 163.459 86.6331C165.181 85.9634 166.856 85.1902 168.482 84.3129C182.516 76.7411 192.054 61.9043 192.054 44.8388C192.056 42.2273 191.832 39.6356 191.381 37.0636C190.93 34.4917 190.259 31.9783 189.368 29.5235Z" fill="#CFF3C3"/>
</g>
<mask id="mask4_638_24" style="mask-type:luminance" maskUnits="userSpaceOnUse" x="106" y="16" width="87" height="69">
<path d="M106.053 16.9775H192.064V84.3356H106.053V16.9775Z" fill="white"/>
</mask>
<g mask="url(#mask4_638_24)">
<path d="M178.594 40.2277C177.82 42.9546 177.936 45.9081 176.885 48.5398C174.632 54.1789 166.564 56.4465 161.704 52.8065C156.76 49.1043 156.356 42.0426 154.996 36.0172C154.396 33.3675 153.542 30.8027 152.433 28.3223C151.324 25.8424 149.982 23.4953 148.406 21.2815C147.306 19.7381 146.022 18.2126 144.264 17.504C141.486 16.3827 138.335 17.5859 135.724 19.0552C132.897 20.6458 130.201 22.6204 128.373 25.3006C126.545 27.9808 125.686 31.4611 126.695 34.5444C127.421 36.7635 129.037 38.6275 129.632 40.8855C131.045 46.2501 126.256 51.2924 121.296 53.7777C116.335 56.2623 110.563 57.6592 106.855 61.7854C106.59 62.0802 106.34 62.384 106.105 62.6961C107.133 65.0552 108.353 67.3097 109.768 69.4595C111.183 71.6086 112.771 73.6215 114.532 75.4974C121.824 72.7987 129.227 69.173 132.204 62.1657C133.151 59.9376 133.568 57.4996 134.651 55.3336C135.733 53.1671 137.769 51.2063 140.19 51.2517C141.467 51.2757 142.665 51.8527 143.766 52.5004C144.863 53.1498 145.906 53.8775 146.893 54.6836C147.881 55.4897 148.803 56.3652 149.659 57.31C150.515 58.2548 151.296 59.2583 152.001 60.3203C152.706 61.3829 153.327 62.4916 153.865 63.6476C156.914 70.2345 157.573 78.7092 163.693 82.6111C165.149 83.5392 166.784 84.0828 168.481 84.3136C182.516 76.7412 192.054 61.9044 192.054 44.8389C192.056 42.2274 191.832 39.6357 191.381 37.0637C190.93 34.4918 190.259 31.9784 189.368 29.5236C188.886 29.706 188.407 29.9016 187.937 30.1168C183.63 32.0884 179.886 35.6722 178.594 40.2277Z" fill="#E8FFD4"/>
</g>
<mask id="mask5_638_24" style="mask-type:luminance" maskUnits="userSpaceOnUse" x="102" y="0" width="88" height="63">
<path d="M102.685 0H189.485V62.7505H102.685V0Z" fill="white"/>
</mask>
<g mask="url(#mask5_638_24)">
<path d="M117.235 29.4781C117.667 33.676 117.648 37.8721 117.177 42.0659C116.969 43.9161 116.609 45.887 115.303 47.2128C114.198 48.3334 112.601 48.7963 111.063 49.1276C108.308 49.7178 105.523 50.0222 102.706 50.0407C102.958 52.2222 103.368 54.3732 103.938 56.4943C104.507 58.6147 105.23 60.682 106.105 62.696C106.341 62.3845 106.591 62.0807 106.855 61.7853C110.564 57.6591 116.335 56.2622 121.296 53.7776C126.256 51.2923 131.045 46.25 129.632 40.8854C129.037 38.6274 127.422 36.7635 126.695 34.5443C125.686 31.461 126.545 27.9807 128.374 25.3005C130.202 22.6203 132.897 20.6457 135.724 19.0551C138.336 17.5858 141.486 16.3826 144.265 17.5039C146.022 18.2125 147.307 19.738 148.406 21.2814C149.982 23.4952 151.324 25.8423 152.433 28.3222C153.543 30.8026 154.396 33.3674 154.996 36.0172C156.356 42.0425 156.76 49.1042 161.704 52.8064C166.564 56.4464 174.633 54.1788 176.885 48.5397C177.936 45.908 177.82 42.9545 178.594 40.2276C179.887 35.6721 183.631 32.0883 187.937 30.1167C188.407 29.9015 188.886 29.7059 189.368 29.5235C188.695 27.6775 187.904 25.883 186.995 24.1404C186.087 22.3984 185.068 20.7229 183.94 19.1137C182.811 17.5051 181.582 15.9772 180.253 14.5294C178.924 13.0823 177.506 11.7278 175.999 10.4667C175.158 11.1645 174.473 11.9904 173.941 12.9448C173.148 14.3901 172.814 16.0352 172.491 17.6516C171.929 20.455 171.368 23.2578 170.807 26.0606C170.56 27.2906 170.273 28.5984 169.379 29.4793C168.218 30.6227 166.358 30.6998 164.778 30.3009C161.629 29.5074 159.049 27.1633 157.288 24.4346C155.528 21.7054 154.481 18.5892 153.451 15.509C151.726 10.3483 150.001 5.18758 148.275 0.0268954C147.927 0.0185235 147.579 0.0137396 147.229 0.0137396C145.861 0.0113476 144.495 0.0723429 143.133 0.196128C141.77 0.319912 140.417 0.505291 139.071 0.753458C137.726 1.00163 136.395 1.31079 135.078 1.68095C133.761 2.0511 132.464 2.48106 131.187 2.97082C129.909 3.46058 128.656 4.00774 127.429 4.61231C126.202 5.21688 125.006 5.87647 123.839 6.59107C122.672 7.30568 121.541 8.0723 120.445 8.89096C119.349 9.70961 118.293 10.5767 117.277 11.4922C116.995 12.2624 116.766 13.0482 116.589 13.8489C115.466 18.9684 116.698 24.2642 117.235 29.4781Z" fill="#E8FFD4"/>
</g>
<path d="M147.229 87.2565C123.839 87.2565 104.811 68.2277 104.811 44.839C104.811 21.4497 123.839 2.4209 147.229 2.4209C170.617 2.4209 189.646 21.4497 189.646 44.8384C189.646 68.2277 170.617 87.2565 147.229 87.2565ZM147.229 2.75637C124.024 2.75637 105.146 21.6344 105.146 44.8384C105.146 68.0429 124.024 86.921 147.229 86.921C170.433 86.921 189.311 68.0429 189.311 44.8384C189.311 21.6344 170.433 2.75637 147.229 2.75637Z" fill="#C7E8B5"/>
<path d="M147.229 84.2805C125.48 84.2805 107.786 66.587 107.786 44.838C107.786 23.0895 125.48 5.39551 147.229 5.39551C168.977 5.39551 186.671 23.0895 186.671 44.838C186.671 66.587 168.977 84.2805 147.229 84.2805ZM147.229 5.73098C125.665 5.73098 108.121 23.2743 108.121 44.838C108.121 66.4022 125.665 83.945 147.229 83.945C168.792 83.945 186.335 66.4022 186.335 44.8386C186.335 23.2743 168.792 5.73098 147.229 5.73098Z" fill="#C7E8B5"/>
<path d="M147.229 81.1479C127.207 81.1479 110.919 64.8597 110.919 44.8383C110.919 24.8175 127.207 8.5293 147.229 8.5293C167.25 8.5293 183.538 24.8175 183.538 44.8383C183.538 64.8597 167.25 81.1479 147.229 81.1479ZM147.229 8.86417C127.392 8.86417 111.255 25.0022 111.255 44.8383C111.255 64.6749 127.392 80.813 147.229 80.813C167.065 80.813 183.203 64.6749 183.203 44.8383C183.203 25.0022 167.065 8.86417 147.229 8.86417Z" fill="#C7E8B5"/>
<path d="M147.229 77.9358C128.979 77.9358 114.13 63.0888 114.13 44.838C114.13 26.5878 128.979 11.7402 147.229 11.7402C165.479 11.7402 180.326 26.5878 180.326 44.838C180.326 63.0888 165.479 77.9358 147.229 77.9358ZM147.229 12.0757C129.163 12.0757 114.466 26.7732 114.466 44.838C114.466 62.9034 129.163 77.6003 147.229 77.6003C165.294 77.6003 179.991 62.9034 179.991 44.838C179.991 26.7732 165.294 12.0757 147.229 12.0757Z" fill="#C7E8B5"/>
<path d="M147.229 74.8812C130.663 74.8812 117.186 61.4042 117.186 44.838C117.186 28.2724 130.663 14.7954 147.229 14.7954C163.794 14.7954 177.271 28.2724 177.271 44.838C177.271 61.4042 163.794 74.8812 147.229 74.8812ZM147.229 15.1309C130.848 15.1309 117.521 28.4578 117.521 44.838C117.521 61.2189 130.848 74.5458 147.229 74.5458C163.609 74.5458 176.936 61.2189 176.936 44.838C176.936 28.4578 163.609 15.1309 147.229 15.1309Z" fill="#C7E8B5"/>
<path d="M147.229 71.8987C132.307 71.8987 120.168 59.7594 120.168 44.8382C120.168 29.9171 132.307 17.7778 147.229 17.7778C162.15 17.7778 174.289 29.9171 174.289 44.8382C174.289 59.7594 162.15 71.8987 147.229 71.8987ZM147.229 18.1133C132.492 18.1133 120.503 30.1025 120.503 44.8382C120.503 59.5746 132.492 71.5632 147.229 71.5632C161.965 71.5632 173.954 59.5746 173.954 44.8382C173.954 30.1025 161.965 18.1133 147.229 18.1133Z" fill="#C7E8B5"/>
<path d="M147.229 68.7332C134.053 68.7332 123.333 58.0136 123.333 44.838C123.333 31.6624 134.053 20.9434 147.229 20.9434C160.404 20.9434 171.123 31.6624 171.123 44.838C171.123 58.0136 160.404 68.7332 147.229 68.7332ZM147.229 21.2782C134.238 21.2782 123.669 31.8472 123.669 44.838C123.669 57.8294 134.238 68.3978 147.229 68.3978C160.22 68.3978 170.788 57.8294 170.788 44.838C170.788 31.8472 160.22 21.2782 147.229 21.2782Z" fill="#C7E8B5"/>
<path d="M162.624 31.9587C162.002 31.2118 161.328 30.5139 160.603 29.8651C159.879 29.2163 159.112 28.6243 158.3 28.0879C157.489 27.5515 156.643 27.0773 155.762 26.6646C154.882 26.2526 153.976 25.9064 153.045 25.6265V25.62C151.148 25.0465 149.21 24.76 147.229 24.7612C136.14 24.7612 127.151 33.7497 127.151 44.8383C127.151 45.1672 127.159 45.4955 127.176 45.8238C127.192 46.1515 127.216 46.4792 127.249 46.8063C127.281 47.1328 127.322 47.4593 127.37 47.784C127.418 48.1087 127.475 48.4322 127.539 48.7545C127.603 49.0769 127.675 49.3974 127.755 49.7161C127.835 50.0348 127.923 50.3512 128.018 50.6651C128.114 50.9797 128.217 51.2918 128.328 51.601C128.439 51.9102 128.557 52.2163 128.683 52.5201C128.809 52.8233 128.942 53.1235 129.082 53.4207C129.223 53.7173 129.37 54.0109 129.525 54.3003C129.681 54.5904 129.842 54.8762 130.011 55.1579C130.18 55.4395 130.356 55.717 130.539 55.9903C130.721 56.2636 130.91 56.5321 131.106 56.7958C131.302 57.0595 131.504 57.3184 131.712 57.5726C131.921 57.8261 132.135 58.0749 132.356 58.3183C132.577 58.5616 132.803 58.7996 133.035 59.0317C133.267 59.2643 133.505 59.4909 133.749 59.7116C133.992 59.9322 134.241 60.1463 134.495 60.355C134.749 60.5631 135.008 60.7652 135.271 60.9614C135.536 61.1569 135.804 61.3459 136.077 61.5289C136.35 61.7113 136.628 61.8871 136.909 62.0557C137.191 62.225 137.477 62.387 137.767 62.5419C138.056 62.6968 138.35 62.8445 138.646 62.985C138.944 63.1255 139.244 63.2589 139.547 63.3845C139.851 63.51 140.157 63.6284 140.466 63.7397C140.776 63.8503 141.087 63.9532 141.402 64.0488C141.716 64.1445 142.033 64.2318 142.352 64.3119C142.67 64.3921 142.99 64.4638 143.313 64.5284C143.635 64.5924 143.958 64.6486 144.283 64.6971C144.608 64.7455 144.934 64.7862 145.261 64.8185C145.588 64.8507 145.916 64.8753 146.244 64.8914C146.572 64.9076 146.9 64.9159 147.229 64.9159C158.317 64.9159 167.306 55.9269 167.306 44.8383C167.307 44.2552 167.282 43.6734 167.233 43.0921C167.183 42.5109 167.107 41.9332 167.007 41.3586C166.906 40.7839 166.781 40.2152 166.63 39.6519C166.479 39.088 166.305 38.5324 166.106 37.9841C165.906 37.4357 165.683 36.8975 165.436 36.3689C165.19 35.8403 164.921 35.3236 164.629 34.8183C164.337 34.3136 164.024 33.822 163.689 33.3448C163.354 32.867 162.999 32.4054 162.624 31.9587ZM144.706 44.8383C144.706 44.7558 144.711 44.6738 144.718 44.5913C144.727 44.5094 144.739 44.4275 144.755 44.3467C144.771 44.2654 144.791 44.1853 144.815 44.1063C144.839 44.0274 144.867 43.9497 144.898 43.8731C144.93 43.7972 144.965 43.7224 145.004 43.6495C145.043 43.5765 145.086 43.5059 145.132 43.4372C145.177 43.3684 145.227 43.302 145.279 43.2386C145.331 43.1747 145.387 43.1137 145.445 43.0551C145.504 42.9965 145.565 42.9414 145.629 42.8888C145.693 42.8362 145.759 42.7872 145.827 42.7411C145.896 42.6957 145.967 42.6532 146.039 42.6143C146.112 42.5755 146.187 42.5402 146.264 42.5085C146.34 42.4768 146.417 42.4487 146.496 42.4248C146.576 42.4009 146.655 42.3811 146.737 42.365C146.817 42.3488 146.899 42.3363 146.981 42.3285C147.064 42.3201 147.146 42.3165 147.229 42.3165C147.311 42.3165 147.394 42.3201 147.476 42.3285C147.558 42.3363 147.64 42.3488 147.721 42.365C147.802 42.3811 147.882 42.4009 147.961 42.4248C148.04 42.4487 148.117 42.4768 148.194 42.5085C148.27 42.5402 148.345 42.5755 148.418 42.6143C148.491 42.6532 148.561 42.6957 148.63 42.7411C148.699 42.7872 148.765 42.8362 148.829 42.8888C148.892 42.9414 148.954 42.9965 149.012 43.0551C149.071 43.1137 149.126 43.1747 149.178 43.2386C149.231 43.302 149.28 43.3684 149.326 43.4372C149.371 43.5059 149.414 43.5765 149.453 43.6495C149.492 43.7224 149.527 43.7972 149.559 43.8731C149.59 43.9497 149.618 44.0274 149.642 44.1063C149.666 44.1853 149.687 44.2654 149.703 44.3467C149.719 44.4275 149.731 44.5094 149.739 44.5913C149.747 44.6738 149.751 44.7558 149.751 44.8383C149.751 44.9214 149.747 45.0033 149.739 45.0858C149.731 45.1678 149.719 45.2497 149.703 45.3304C149.687 45.4118 149.666 45.4919 149.642 45.5708C149.618 45.6498 149.59 45.7275 149.559 45.804C149.527 45.88 149.492 45.9547 149.453 46.0277C149.414 46.1006 149.372 46.1712 149.326 46.24C149.28 46.3087 149.231 46.3751 149.178 46.4385C149.126 46.5025 149.071 46.5635 149.012 46.6221C148.954 46.6807 148.892 46.7357 148.829 46.7883C148.765 46.841 148.699 46.89 148.63 46.936C148.561 46.9815 148.491 47.0239 148.418 47.0628C148.345 47.1017 148.27 47.137 148.194 47.1687C148.117 47.2004 148.04 47.2285 147.961 47.2524C147.882 47.2763 147.802 47.296 147.721 47.3122C147.64 47.3283 147.558 47.3409 147.476 47.3487C147.394 47.357 147.311 47.3606 147.229 47.3606C147.146 47.3612 147.064 47.357 146.981 47.3493C146.899 47.3409 146.817 47.3289 146.737 47.3128C146.655 47.2966 146.575 47.2769 146.496 47.253C146.417 47.2291 146.34 47.201 146.263 47.1699C146.186 47.1382 146.112 47.1029 146.039 47.064C145.966 47.0251 145.895 46.9827 145.826 46.9366C145.758 46.8906 145.691 46.8416 145.628 46.7889C145.564 46.7369 145.502 46.6813 145.444 46.6227C145.386 46.5647 145.33 46.5031 145.278 46.4397C145.225 46.3757 145.176 46.3093 145.13 46.2406C145.084 46.1718 145.043 46.1012 145.003 46.0283C144.964 45.9553 144.929 45.8806 144.898 45.804C144.866 45.7281 144.838 45.6504 144.814 45.5708C144.79 45.4919 144.77 45.4118 144.754 45.331C144.738 45.2497 144.726 45.1684 144.718 45.0858C144.71 45.0039 144.706 44.9214 144.706 44.8383Z" fill="#1A1A1A"/>
<path d="M147.229 61.3727C138.112 61.3727 130.694 53.9551 130.694 44.8381C130.694 35.7211 138.112 28.3042 147.229 28.3042C156.346 28.3042 163.763 35.7211 163.763 44.8381C163.763 53.9551 156.346 61.3727 147.229 61.3727ZM147.229 28.9751C138.482 28.9751 131.365 36.0913 131.365 44.8381C131.365 53.5856 138.482 60.7017 147.229 60.7017C155.976 60.7017 163.092 53.5856 163.092 44.8381C163.092 36.0913 155.976 28.9751 147.229 28.9751Z" fill="#5ADF93"/>
<path d="M121.157 51.769L121.75 53.0679L123.698 52.1781L124.621 54.2041L122.674 55.0939L125.004 60.2008L124.879 60.3825L114.405 60.3634L112.917 57.0984L120.248 53.752L119.655 52.4531L121.157 51.769ZM122.293 58.2369L121.131 55.6871L114.874 58.457L119.976 58.2322L122.293 58.2369Z" fill="black"/>
<path d="M120.414 42.6201L120.538 44.041L122.672 43.8544L122.865 46.0741L120.732 46.2607L121.217 51.8507L121.043 51.9847L111.178 48.4589L110.867 44.8829L118.895 44.1845L118.77 42.7636L120.414 42.6201ZM119.323 49.0976L119.079 46.3038L112.257 46.8204L117.139 48.313L119.323 49.0976Z" fill="black"/>
<path d="M122.778 33.7486L122.419 35.1312L124.491 35.6694L123.931 37.8245L121.86 37.2863L120.446 42.7161L120.233 42.7831L112.117 36.1597L113.021 32.689L120.822 34.715L121.18 33.3324L122.778 33.7486ZM119.58 39.4846L120.286 36.7721L113.684 34.9781L117.784 38.0183L119.58 39.4846Z" fill="black"/>
<path d="M121.433 29.4418C120.836 30.1833 120.167 30.5612 119.426 30.5756C118.683 30.5899 117.921 30.2832 117.139 29.6547C116.278 28.961 115.798 28.2548 115.699 27.5354C115.599 26.8148 115.832 26.1014 116.4 25.3946C116.961 24.6961 117.601 24.323 118.318 24.2751C119.036 24.2273 119.83 24.5538 120.701 25.2534C122.361 26.5882 122.605 27.9845 121.433 29.4418ZM120.538 20.4097L121.583 19.1108L126.745 31.5993L125.702 32.8958L120.538 20.4097ZM120.428 28.6548C120.669 28.3552 120.702 28.0544 120.528 27.753C120.353 27.4517 120.028 27.1114 119.555 26.7317C119.19 26.4369 118.877 26.2216 118.615 26.0858C118.353 25.9489 118.121 25.8915 117.919 25.9136C117.717 25.9363 117.535 26.047 117.376 26.2461C117.148 26.5284 117.11 26.825 117.263 27.1359C117.415 27.4469 117.753 27.8146 118.278 28.2386C118.761 28.6261 119.178 28.8701 119.529 28.9706C119.88 29.0698 120.179 28.9646 120.428 28.6548ZM131.055 26.6456C130.456 27.3919 129.784 27.771 129.041 27.7818C128.3 27.7913 127.536 27.4798 126.75 26.8465C125.894 26.1594 125.412 25.4562 125.305 24.7368C125.2 24.018 125.431 23.3058 125.999 22.6007C126.56 21.9023 127.203 21.5291 127.929 21.4813C128.655 21.4323 129.453 21.7564 130.324 22.4548C131.1 23.0803 131.57 23.7441 131.732 24.4473C131.896 25.1494 131.671 25.8819 131.055 26.6456ZM130.003 25.8658C130.176 25.6493 130.245 25.4346 130.209 25.2223C130.173 25.0106 130.068 24.8061 129.891 24.61C129.714 24.4138 129.468 24.1902 129.156 23.9378C128.607 23.4977 128.166 23.2322 127.831 23.1413C127.497 23.0504 127.215 23.1485 126.984 23.4355C126.75 23.7262 126.71 24.024 126.865 24.3301C127.019 24.6363 127.365 25.0065 127.903 25.44C128.379 25.8227 128.787 26.0655 129.125 26.1672C129.465 26.2694 129.757 26.169 130.003 25.8658Z" fill="black"/>
<path d="M140.917 12.34C141.714 12.0948 142.396 12.1654 142.962 12.5529C143.528 12.9392 143.955 13.6 144.242 14.5358L145.887 19.8819L143.826 20.5158L142.247 15.3802C142.102 14.9102 141.896 14.5693 141.63 14.3588C141.365 14.1471 141.046 14.0981 140.673 14.2129C140.418 14.2912 140.195 14.4306 140.006 14.6315C139.815 14.8324 139.686 15.0704 139.616 15.3443C139.545 15.617 139.555 15.8963 139.644 16.1815L141.223 21.3171L139.145 21.9557L137.566 16.8202C137.423 16.3609 137.207 16.0206 136.915 15.7988C136.625 15.5775 136.293 15.5237 135.92 15.6385C135.658 15.7186 135.44 15.858 135.265 16.0571C135.089 16.2568 134.973 16.4942 134.916 16.7699C134.859 17.0462 134.877 17.3296 134.968 17.6215L136.547 22.757L134.466 23.3957L131.976 15.3036L133.844 14.7296L134.224 15.7892C134.509 14.7738 135.174 14.1053 136.219 13.7847C136.763 13.6173 137.254 13.597 137.693 13.7225C138.131 13.8487 138.512 14.1112 138.836 14.5095C139.102 13.408 139.796 12.6844 140.917 12.34Z" fill="black"/>
<path d="M149.523 20.8365C148.699 20.7612 148.012 20.522 147.462 20.1189C146.911 19.7159 146.513 19.1717 146.268 18.4876C146.024 17.8035 145.943 17.0016 146.026 16.0813C146.109 15.1628 146.336 14.3878 146.708 13.7563C147.081 13.1236 147.581 12.6602 148.208 12.3666C148.835 12.0735 149.56 11.9635 150.385 12.0365C151.203 12.11 151.882 12.3522 152.422 12.7636C152.963 13.1738 153.351 13.7216 153.585 14.4069C153.819 15.0928 153.897 15.8846 153.817 16.7821C153.736 17.6755 153.512 18.4398 153.147 19.076C152.782 19.7123 152.291 20.1829 151.674 20.4873C151.058 20.7935 150.341 20.9095 149.523 20.8365ZM149.708 19.1454C150.234 19.1933 150.654 19.0013 150.968 18.5689C151.282 18.1354 151.48 17.4722 151.561 16.5788C151.641 15.6812 151.565 14.9906 151.334 14.5074C151.103 14.0242 150.724 13.7587 150.198 13.7108C149.646 13.6618 149.209 13.8418 148.887 14.2514C148.567 14.6599 148.364 15.3374 148.28 16.2846C148.193 17.2336 148.271 17.9351 148.514 18.3896C148.758 18.844 149.156 19.0964 149.708 19.1454Z" fill="black"/>
<path d="M156.638 13.3726L158.442 14.028L158.03 15.4679C158.349 15.1223 158.746 14.8675 159.219 14.7049C159.694 14.541 160.268 14.5805 160.939 14.8245C161.207 14.922 161.437 15.0541 161.63 15.2216L160.422 17.1519C160.361 17.0293 160.277 16.9246 160.167 16.8385C160.056 16.7524 159.912 16.6771 159.734 16.6113C159.36 16.4761 159.01 16.4385 158.683 16.4989C158.356 16.5581 158.087 16.6663 157.875 16.8242C157.665 16.982 157.535 17.128 157.487 17.2619L155.746 22.0554L153.749 21.3283L156.638 13.3726Z" fill="black"/>
<path d="M161.269 25.1831C160.514 24.6665 160.001 24.0804 159.728 23.425C159.457 22.7696 159.391 22.0951 159.532 21.4014C159.674 20.7077 159.977 20.0224 160.441 19.3443C160.914 18.6524 161.473 18.1095 162.118 17.7154C162.762 17.3219 163.443 17.1258 164.163 17.127C164.883 17.1288 165.582 17.3608 166.261 17.823C167.271 18.5155 167.794 19.3013 167.83 20.1815C167.866 21.0618 167.489 22.0795 166.698 23.2337C166.545 23.4585 166.364 23.7049 166.155 23.9728L161.945 21.0952C161.585 21.6789 161.444 22.2219 161.522 22.7242C161.6 23.2277 161.917 23.6702 162.474 24.0517C162.764 24.2491 163.119 24.3974 163.538 24.4966C163.959 24.5953 164.312 24.6079 164.596 24.5349L164.247 26.25C163.285 26.2386 162.292 25.8828 161.269 25.1831ZM165.148 21.6765C165.618 20.9894 165.857 20.4584 165.863 20.0834C165.869 19.7073 165.712 19.4089 165.39 19.1888C164.935 18.8779 164.468 18.8055 163.988 18.9712C163.51 19.1356 163.073 19.4747 162.68 19.9878L165.148 21.6765Z" fill="black"/>
<path d="M167.364 31.2333C166.908 30.5636 166.633 29.9811 166.539 29.4872C166.444 28.9926 166.44 28.6003 166.525 28.3103L168.213 27.9204C168.125 28.8581 168.311 29.6642 168.771 30.3387C168.978 30.6431 169.194 30.8273 169.419 30.8913C169.644 30.9546 169.847 30.9247 170.029 30.8004C170.226 30.6664 170.321 30.4141 170.313 30.0445C170.305 29.6761 170.241 29.1666 170.12 28.516C170.041 28.0968 169.998 27.7147 169.988 27.3703C169.98 27.0258 170.049 26.676 170.194 26.3202C170.339 25.965 170.601 25.6576 170.981 25.3993C171.402 25.1122 171.84 24.9663 172.296 24.9615C172.752 24.9568 173.199 25.0967 173.638 25.3801C174.078 25.6624 174.488 26.0822 174.868 26.6383C175.094 26.972 175.27 27.3099 175.396 27.6525C175.524 27.9958 175.605 28.3043 175.64 28.5806C175.675 28.8581 175.677 29.0757 175.648 29.2336L174.059 29.6187C174.075 29.2898 174.046 28.9472 173.971 28.5902C173.895 28.2344 173.758 27.9097 173.557 27.6142C173.318 27.2638 173.103 27.0473 172.914 26.966C172.725 26.8847 172.527 26.9158 172.318 27.0593C172.107 27.2028 172.002 27.4271 172.002 27.7315C172.003 28.0364 172.067 28.4646 172.191 29.0183C172.369 29.8155 172.404 30.4978 172.294 31.0659C172.184 31.6352 171.886 32.0854 171.399 32.4173C170.991 32.6948 170.559 32.8533 170.103 32.8933C169.647 32.9328 169.181 32.8216 168.706 32.5585C168.232 32.2953 167.785 31.8534 167.364 31.2333Z" fill="black"/>
<path d="M169.799 35.8332C169.632 35.356 169.597 34.9177 169.696 34.5176C169.797 34.1169 169.999 33.7713 170.304 33.4795C170.61 33.1889 170.988 32.9652 171.44 32.8073C171.829 32.6722 172.263 32.6656 172.741 32.7882C173.219 32.9114 173.711 33.2558 174.217 33.8239C174.724 34.3914 175.174 35.24 175.568 36.369L175.937 36.2422C176.375 36.0873 176.677 35.8625 176.843 35.5677C177.011 35.2723 177.001 34.8597 176.815 34.3286C176.669 33.9124 176.456 33.5297 176.176 33.1805C175.895 32.8331 175.617 32.6016 175.341 32.4868L176.659 31.3052C177.032 31.5826 177.399 31.9618 177.759 32.4414C178.119 32.9216 178.406 33.4663 178.621 34.0775C178.888 34.8411 178.982 35.4869 178.903 36.015C178.824 36.5442 178.603 36.9748 178.238 37.3066C177.874 37.6379 177.377 37.9148 176.745 38.1367L171.5 39.9737L170.897 38.2563L171.988 37.7133C171.428 37.5901 170.967 37.3742 170.607 37.0651C170.249 36.7571 169.979 36.3463 169.799 35.8332ZM171.634 36.1417C171.72 36.3887 171.909 36.6136 172.203 36.8163C172.496 37.0202 172.821 37.1512 173.176 37.2086L174.315 36.8091C174.301 36.7308 174.261 36.5998 174.198 36.4168C174.008 35.8774 173.749 35.4265 173.42 35.063C173.092 34.6994 172.727 34.5876 172.327 34.7281C171.948 34.862 171.706 35.0414 171.603 35.2663C171.498 35.4923 171.509 35.7841 171.634 36.1417Z" fill="black"/>
<path d="M179.934 38.749L180.092 41.1243L175.968 42.868L174.602 43.332L176.016 43.5784L180.331 44.705L180.482 46.9415L171.818 44.2482L171.718 42.7412L179.934 38.749Z" fill="black"/>
<path d="M171.004 50.3678C171.196 49.4744 171.542 48.7771 172.045 48.2748C172.547 47.7737 173.146 47.4567 173.841 47.3228C174.536 47.1888 175.286 47.208 176.09 47.3802C176.911 47.5536 177.625 47.864 178.233 48.3107C178.842 48.7568 179.283 49.3135 179.556 49.9803C179.829 50.6464 179.882 51.3808 179.711 52.1833C179.456 53.3804 178.928 54.1638 178.128 54.5322C177.327 54.9017 176.242 54.9412 174.872 54.6494C174.605 54.592 174.309 54.5166 173.982 54.4245L175.044 49.4373C174.365 49.3272 173.808 49.4038 173.372 49.6669C172.937 49.93 172.649 50.3917 172.509 51.0519C172.437 51.3945 172.435 51.779 172.502 52.2048C172.57 52.6318 172.693 52.963 172.87 53.1975L171.15 53.5252C170.795 52.6336 170.746 51.5811 171.004 50.3678ZM175.721 52.621C176.536 52.7944 177.118 52.813 177.467 52.676C177.818 52.5385 178.034 52.2795 178.116 51.8986C178.23 51.3592 178.12 50.8994 177.786 50.5184C177.451 50.1387 176.97 49.8636 176.346 49.6932L175.721 52.621Z" fill="black"/>
<path d="M169.016 56.0741C169.388 55.3529 169.769 54.8332 170.16 54.5145C170.551 54.197 170.894 54.0056 171.191 53.9404L172.336 55.2417C171.469 55.61 170.847 56.1566 170.473 56.8826C170.304 57.2091 170.246 57.4865 170.298 57.715C170.35 57.9428 170.473 58.1073 170.669 58.2077C170.881 58.3177 171.147 58.2807 171.468 58.0977C171.789 57.9159 172.206 57.6169 172.721 57.2007C173.051 56.931 173.365 56.7109 173.664 56.5405C173.963 56.3695 174.304 56.2636 174.685 56.2224C175.068 56.1805 175.463 56.2654 175.872 56.4759C176.323 56.7103 176.659 57.0261 176.881 57.4231C177.104 57.8202 177.195 58.2795 177.154 58.8009C177.114 59.3224 176.939 59.8827 176.63 60.4825C176.445 60.8395 176.232 61.1552 175.991 61.4297C175.752 61.7054 175.518 61.9248 175.29 62.0875C175.064 62.2502 174.874 62.3554 174.721 62.4032L173.628 61.1905C173.923 61.05 174.209 60.8616 174.487 60.626C174.765 60.3898 174.987 60.1141 175.149 59.7984C175.345 59.4187 175.434 59.1268 175.415 58.9229C175.396 58.7184 175.274 58.5581 175.049 58.4421C174.822 58.3237 174.574 58.3375 174.305 58.4828C174.037 58.6293 173.69 58.8882 173.264 59.2602C172.648 59.7972 172.064 60.153 171.511 60.327C170.959 60.5004 170.422 60.4526 169.899 60.1835C169.461 59.9568 169.115 59.6525 168.863 59.2698C168.611 58.8882 168.489 58.4266 168.495 57.8848C168.5 57.3424 168.674 56.739 169.016 56.0741Z" fill="black"/>
<mask id="mask6_638_24" style="mask-type:luminance" maskUnits="userSpaceOnUse" x="204" y="0" width="91" height="90">
<path d="M204.064 0H294.457V89.6704H204.064V0Z" fill="white"/>
</mask>
<g mask="url(#mask6_638_24)">
<path d="M291.74 29.5235C291.546 28.9979 291.343 28.4753 291.131 27.9568C290.918 27.4383 290.695 26.9241 290.463 26.414C290.231 25.9039 289.989 25.398 289.737 24.8969C289.486 24.3951 289.225 23.8988 288.955 23.4073C288.685 22.9157 288.406 22.4295 288.118 21.9482C287.829 21.4674 287.532 20.9914 287.225 20.5213C286.919 20.0513 286.603 19.5867 286.28 19.1286C285.956 18.67 285.623 18.2179 285.282 17.7718C284.941 17.3257 284.592 16.8861 284.234 16.4526C283.877 16.0196 283.511 15.5933 283.137 15.1735C282.764 14.7543 282.382 14.3417 281.993 13.9362C281.604 13.5308 281.207 13.1331 280.803 12.742C280.399 12.3515 279.987 11.9688 279.569 11.5933C279.15 11.2178 278.724 10.8506 278.292 10.4906C277.859 10.1312 277.419 9.78018 276.974 9.43633C276.528 9.09308 276.076 8.7588 275.618 8.4323C275.159 8.10579 274.695 7.78766 274.224 7.4785C273.754 7.16933 273.278 6.86914 272.796 6.57732C272.314 6.2861 271.827 6.00325 271.334 5.72996C270.842 5.45668 270.344 5.19237 269.842 4.93702C269.339 4.68228 268.832 4.4365 268.321 4.20089C267.809 3.96469 267.293 3.73805 266.773 3.52097C266.252 3.3039 265.728 3.097 265.2 2.89906C264.672 2.70172 264.141 2.51395 263.605 2.33635C263.07 2.15874 262.532 1.99071 261.99 1.83284C261.449 1.67497 260.905 1.52726 260.358 1.38972C259.811 1.25218 259.261 1.12481 258.709 1.00761C258.158 0.890398 257.604 0.783956 257.048 0.687081C256.492 0.590206 255.935 0.504095 255.375 0.428149C254.816 0.352204 254.256 0.287023 253.694 0.232007C253.133 0.176992 252.57 0.132142 252.007 0.0980567C251.444 0.0639711 250.879 0.0400512 250.315 0.0268954C249.965 0.0185235 249.613 0.0137396 249.261 0.0137396C247.881 0.0113476 246.505 0.0723429 245.132 0.196128C243.758 0.319315 242.393 0.505291 241.037 0.753458C239.681 1.00163 238.34 1.31079 237.012 1.68095C235.684 2.0511 234.377 2.48106 233.089 2.97082C231.801 3.46058 230.538 4.00774 229.301 4.61231C228.065 5.21688 226.858 5.87647 225.682 6.59107C224.506 7.30568 223.366 8.0723 222.261 8.89096C221.156 9.70961 220.091 10.5767 219.067 11.4922C209.864 19.6979 204.074 31.5968 204.074 44.8388C204.075 46.5783 204.177 48.3125 204.379 50.0407C204.517 51.2229 204.702 52.398 204.934 53.5659C205.167 54.7338 205.446 55.8903 205.772 57.036C206.098 58.1818 206.47 59.3126 206.887 60.4291C207.304 61.5449 207.765 62.6428 208.27 63.7222C208.776 64.8022 209.324 65.86 209.916 66.8958C210.506 67.9321 211.137 68.9427 211.81 69.9288C212.482 70.9149 213.194 71.8729 213.943 72.8021C214.692 73.732 215.478 74.6302 216.301 75.4973C224.544 84.2155 236.26 89.6632 249.261 89.6632C251.123 89.6662 252.978 89.5543 254.827 89.3289C256.675 89.1029 258.503 88.7644 260.309 88.3135C262.115 87.862 263.886 87.3023 265.622 86.6331C267.358 85.9634 269.046 85.1902 270.685 84.3129C284.832 76.7411 294.447 61.9043 294.447 44.8388C294.45 42.2273 294.224 39.6356 293.769 37.0636C293.315 34.4917 292.638 31.9783 291.74 29.5235Z" fill="#CFF3C3"/>
</g>
<mask id="mask7_638_24" style="mask-type:luminance" maskUnits="userSpaceOnUse" x="207" y="16" width="88" height="69">
<path d="M207.753 16.9775H294.457V84.3356H207.753V16.9775Z" fill="white"/>
</mask>
<g mask="url(#mask7_638_24)">
<path d="M280.879 40.2277C280.099 42.9546 280.216 45.9081 279.156 48.5398C276.885 54.1789 268.752 56.4465 263.852 52.8065C258.869 49.1043 258.461 42.0426 257.091 36.0172C256.486 33.3675 255.625 30.8027 254.507 28.3223C253.389 25.8424 252.036 23.4953 250.448 21.2815C249.339 19.7381 248.044 18.2126 246.273 17.504C243.471 16.3827 240.296 17.5859 237.663 19.0552C234.813 20.6458 232.096 22.6204 230.253 25.3006C228.41 27.9808 227.544 31.4611 228.561 34.5444C229.294 36.7635 230.922 38.6275 231.522 40.8855C232.947 46.2501 228.119 51.2924 223.118 53.7777C218.118 56.2623 212.3 57.6592 208.561 61.7854C208.294 62.0802 208.043 62.384 207.806 62.6961C208.841 65.0552 210.072 67.3097 211.498 69.4595C212.924 71.6086 214.525 73.6215 216.3 75.4974C223.651 72.7987 231.113 69.173 234.115 62.1657C235.07 59.9376 235.49 57.4996 236.581 55.3336C237.672 53.1671 239.725 51.2063 242.166 51.2517C243.453 51.2757 244.661 51.8527 245.77 52.5004C246.876 53.1498 247.927 53.8775 248.923 54.6836C249.918 55.4897 250.848 56.3652 251.711 57.31C252.573 58.2548 253.36 59.2583 254.071 60.3203C254.782 61.3829 255.408 62.4916 255.951 63.6476C259.024 70.2345 259.689 78.7092 265.858 82.6111C267.326 83.5392 268.973 84.0828 270.685 84.3136C284.833 76.7412 294.447 61.9044 294.447 44.8389C294.45 42.2274 294.224 39.6357 293.769 37.0637C293.314 34.4918 292.638 31.9784 291.74 29.5236C291.253 29.706 290.771 29.9016 290.297 30.1168C285.956 32.0884 282.182 35.6722 280.879 40.2277Z" fill="#E8FFD4"/>
</g>
<mask id="mask8_638_24" style="mask-type:luminance" maskUnits="userSpaceOnUse" x="204" y="0" width="88" height="63">
<path d="M204.357 0H291.857V62.7505H204.357V0Z" fill="white"/>
</mask>
<g mask="url(#mask8_638_24)">
<path d="M219.025 29.4781C219.46 33.676 219.441 37.8721 218.966 42.0659C218.756 43.9161 218.394 45.887 217.077 47.2128C215.963 48.3334 214.354 48.7963 212.803 49.1276C210.026 49.7178 207.218 50.0222 204.379 50.0407C204.632 52.2222 205.046 54.3732 205.62 56.4943C206.194 58.6147 206.923 60.682 207.806 62.696C208.043 62.3845 208.295 62.0807 208.561 61.7853C212.3 57.6591 218.118 56.2622 223.118 53.7776C228.119 51.2923 232.947 46.25 231.522 40.8854C230.922 38.6274 229.294 36.7635 228.561 34.5443C227.544 31.461 228.41 27.9807 230.253 25.3005C232.096 22.6203 234.813 20.6457 237.663 19.0551C240.296 17.5858 243.471 16.3826 246.273 17.5039C248.044 18.2125 249.339 19.7386 250.448 21.2814C252.036 23.4952 253.389 25.8423 254.507 28.3222C255.625 30.8026 256.486 33.3674 257.091 36.0172C258.461 42.0425 258.869 49.1042 263.852 52.8064C268.752 56.4464 276.885 54.1788 279.156 48.5397C280.216 45.908 280.099 42.9545 280.879 40.2276C282.182 35.6721 285.956 32.0883 290.297 30.1167C290.771 29.9015 291.253 29.7059 291.74 29.5235C291.061 27.6775 290.264 25.883 289.348 24.1404C288.432 22.3984 287.405 20.7229 286.268 19.1137C285.13 17.5051 283.891 15.9772 282.551 14.5294C281.211 13.0823 279.782 11.7278 278.263 10.4667C277.415 11.1645 276.724 11.9904 276.189 12.9448C275.389 14.3901 275.052 16.0352 274.726 17.6516C274.16 20.455 273.595 23.2578 273.029 26.0606C272.78 27.2906 272.491 28.599 271.59 29.4793C270.42 30.6227 268.544 30.6998 266.951 30.3009C263.777 29.5074 261.176 27.1633 259.401 24.4346C257.627 21.7054 256.571 18.5892 255.533 15.509C253.794 10.3483 252.055 5.18758 250.315 0.0268954C249.965 0.0185235 249.613 0.0137396 249.261 0.0137396C247.881 0.0113476 246.505 0.0723429 245.132 0.196128C243.758 0.319912 242.393 0.505291 241.037 0.753458C239.681 1.00163 238.339 1.31079 237.011 1.68095C235.684 2.0511 234.377 2.48106 233.089 2.97082C231.801 3.46058 230.538 4.00774 229.301 4.61231C228.064 5.21688 226.858 5.87647 225.682 6.59107C224.506 7.30568 223.366 8.0723 222.261 8.89096C221.156 9.70961 220.091 10.5767 219.067 11.4922C218.783 12.2624 218.552 13.0482 218.374 13.8489C217.242 18.9684 218.483 24.2642 219.025 29.4781Z" fill="#E8FFD4"/>
</g>
<path d="M249.261 87.2565C225.683 87.2565 206.5 68.2277 206.5 44.839C206.5 21.4497 225.683 2.4209 249.261 2.4209C272.838 2.4209 292.02 21.4497 292.02 44.839C292.02 68.2277 272.838 87.2565 249.261 87.2565ZM249.261 2.75637C225.869 2.75637 206.839 21.6344 206.839 44.839C206.839 68.0429 225.869 86.921 249.261 86.921C272.652 86.921 291.682 68.0429 291.682 44.839C291.682 21.6344 272.652 2.75637 249.261 2.75637Z" fill="#C7E8B5"/>
<path d="M249.261 84.2805C227.336 84.2805 209.5 66.587 209.5 44.8386C209.5 23.0895 227.336 5.39551 249.261 5.39551C271.185 5.39551 289.021 23.0895 289.021 44.8386C289.021 66.587 271.185 84.2805 249.261 84.2805ZM249.261 5.73098C227.523 5.73098 209.838 23.2743 209.838 44.8386C209.838 66.4022 227.523 83.945 249.261 83.945C270.998 83.945 288.682 66.4022 288.682 44.8386C288.682 23.2743 270.998 5.73098 249.261 5.73098Z" fill="#C7E8B5"/>
<path d="M249.261 81.1479C229.078 81.1479 212.658 64.8597 212.658 44.8389C212.658 24.8175 229.078 8.5293 249.261 8.5293C269.444 8.5293 285.863 24.8175 285.863 44.8389C285.863 64.8597 269.444 81.1479 249.261 81.1479ZM249.261 8.86417C229.264 8.86417 212.996 25.0022 212.996 44.8389C212.996 64.6749 229.264 80.813 249.261 80.813C269.257 80.813 285.525 64.6749 285.525 44.8389C285.525 25.0022 269.257 8.86417 249.261 8.86417Z" fill="#C7E8B5"/>
<path d="M249.261 77.9358C230.863 77.9358 215.895 63.0888 215.895 44.8386C215.895 26.5878 230.863 11.7402 249.261 11.7402C267.658 11.7402 282.625 26.5878 282.625 44.8386C282.625 63.0888 267.658 77.9358 249.261 77.9358ZM249.261 12.0757C231.05 12.0757 216.234 26.7732 216.234 44.8386C216.234 62.9034 231.05 77.6003 249.261 77.6003C267.471 77.6003 282.287 62.9034 282.287 44.8386C282.287 26.7732 267.471 12.0757 249.261 12.0757Z" fill="#C7E8B5"/>
<path d="M249.261 74.8812C232.561 74.8812 218.975 61.4042 218.975 44.8386C218.975 28.2724 232.561 14.7954 249.261 14.7954C265.96 14.7954 279.546 28.2724 279.546 44.8386C279.546 61.4042 265.96 74.8812 249.261 74.8812ZM249.261 15.1309C232.748 15.1309 219.313 28.4578 219.313 44.8386C219.313 61.2189 232.748 74.5458 249.261 74.5458C265.773 74.5458 279.207 61.2189 279.207 44.8386C279.207 28.4578 265.773 15.1309 249.261 15.1309Z" fill="#C7E8B5"/>
<path d="M249.261 71.8987C234.219 71.8987 221.981 59.7594 221.981 44.8388C221.981 29.9171 234.219 17.7778 249.261 17.7778C264.302 17.7778 276.539 29.9171 276.539 44.8388C276.539 59.7594 264.302 71.8987 249.261 71.8987ZM249.261 18.1133C234.405 18.1133 222.32 30.1025 222.32 44.8388C222.32 59.5746 234.405 71.5632 249.261 71.5632C264.115 71.5632 276.201 59.5746 276.201 44.8388C276.201 30.1025 264.115 18.1133 249.261 18.1133Z" fill="#C7E8B5"/>
<path d="M249.261 68.7332C235.978 68.7332 225.173 58.0136 225.173 44.8386C225.173 31.6624 235.978 20.9434 249.261 20.9434C262.543 20.9434 273.348 31.6624 273.348 44.8386C273.348 58.0136 262.543 68.7332 249.261 68.7332ZM249.261 21.2782C236.165 21.2782 225.511 31.8472 225.511 44.8386C225.511 57.8294 236.165 68.3978 249.261 68.3978C262.356 68.3978 273.01 57.8294 273.01 44.8386C273.01 31.8472 262.356 21.2782 249.261 21.2782Z" fill="#C7E8B5"/>
<path d="M264.78 31.9587C264.153 31.2118 263.474 30.5139 262.743 29.8651C262.013 29.2169 261.239 28.6243 260.421 28.0879C259.604 27.5515 258.751 27.0773 257.863 26.6646C256.976 26.2526 256.062 25.9064 255.124 25.6265V25.62C253.212 25.0465 251.258 24.76 249.261 24.7612C238.083 24.7612 229.021 33.7497 229.021 44.8389C229.021 45.1672 229.03 45.4955 229.046 45.8238C229.063 46.1515 229.087 46.4792 229.119 46.8063C229.153 47.1328 229.193 47.4593 229.242 47.784C229.291 48.1087 229.347 48.4322 229.412 48.7545C229.477 49.0769 229.549 49.3974 229.63 49.7161C229.711 50.0348 229.799 50.3512 229.895 50.6651C229.992 50.9797 230.095 51.2918 230.207 51.601C230.319 51.9102 230.438 52.2163 230.565 52.5201C230.692 52.8233 230.826 53.1235 230.968 53.4207C231.109 53.7179 231.258 54.0109 231.414 54.3009C231.571 54.5904 231.734 54.8762 231.904 55.1579C232.074 55.4395 232.252 55.717 232.436 55.9903C232.62 56.2636 232.81 56.5321 233.008 56.7958C233.205 57.0595 233.409 57.3184 233.619 57.5726C233.829 57.8261 234.046 58.0749 234.268 58.3183C234.49 58.5616 234.718 58.7996 234.953 59.0317C235.187 59.2643 235.427 59.4909 235.672 59.7116C235.917 59.9322 236.168 60.1463 236.424 60.355C236.68 60.5631 236.941 60.7652 237.207 60.9614C237.473 61.1569 237.744 61.3459 238.019 61.5289C238.294 61.7113 238.574 61.8871 238.858 62.0557C239.142 62.225 239.43 62.387 239.722 62.5419C240.014 62.6968 240.31 62.8445 240.609 62.985C240.909 63.1255 241.211 63.2589 241.517 63.3845C241.823 63.51 242.132 63.6284 242.443 63.7397C242.756 63.8503 243.07 63.9532 243.387 64.0488C243.703 64.1445 244.023 64.2318 244.344 64.3119C244.665 64.3921 244.988 64.4638 245.313 64.5284C245.638 64.5924 245.964 64.6486 246.291 64.6971C246.619 64.7455 246.948 64.7862 247.277 64.8185C247.607 64.8507 247.937 64.8753 248.268 64.8914C248.598 64.9076 248.929 64.9159 249.261 64.9159C260.439 64.9159 269.5 55.9269 269.5 44.8389C269.501 44.2552 269.476 43.6734 269.426 43.0921C269.375 42.5109 269.3 41.9332 269.198 41.3586C269.097 40.7839 268.97 40.2152 268.818 39.6519C268.667 39.088 268.491 38.5324 268.29 37.9841C268.088 37.4363 267.864 36.8975 267.615 36.3689C267.367 35.8403 267.096 35.3236 266.801 34.8189C266.507 34.3136 266.191 33.822 265.854 33.3448C265.516 32.867 265.158 32.4054 264.78 31.9587ZM246.718 44.8389C246.718 44.7558 246.722 44.6738 246.73 44.5913C246.738 44.5094 246.751 44.4275 246.767 44.3467C246.783 44.2654 246.803 44.1853 246.827 44.1063C246.852 44.0274 246.88 43.9497 246.912 43.8731C246.943 43.7972 246.979 43.7224 247.018 43.6495C247.057 43.5765 247.1 43.5059 247.147 43.4372C247.192 43.3684 247.242 43.302 247.295 43.2386C247.348 43.1747 247.404 43.1137 247.462 43.0551C247.522 42.9965 247.583 42.9414 247.648 42.8888C247.712 42.8362 247.779 42.7872 247.848 42.7411C247.917 42.6957 247.989 42.6532 248.062 42.6143C248.135 42.5755 248.211 42.5402 248.288 42.5085C248.364 42.4768 248.443 42.4487 248.522 42.4248C248.602 42.4009 248.683 42.3811 248.765 42.365C248.846 42.3488 248.929 42.3363 249.011 42.3285C249.094 42.3201 249.177 42.3165 249.261 42.3165C249.344 42.3165 249.427 42.3201 249.51 42.3285C249.593 42.3363 249.675 42.3488 249.757 42.365C249.838 42.3811 249.919 42.4009 249.999 42.4248C250.078 42.4487 250.156 42.4768 250.234 42.5085C250.31 42.5402 250.386 42.5755 250.459 42.6143C250.533 42.6532 250.604 42.6957 250.673 42.7411C250.742 42.7872 250.809 42.8362 250.874 42.8888C250.938 42.9414 251 42.9965 251.058 43.0551C251.117 43.1137 251.173 43.1747 251.226 43.2386C251.279 43.302 251.328 43.3684 251.375 43.4372C251.421 43.5059 251.463 43.5765 251.503 43.6495C251.542 43.7224 251.578 43.7972 251.61 43.8731C251.641 43.9497 251.67 44.0274 251.694 44.1063C251.718 44.1853 251.738 44.2654 251.755 44.3467C251.771 44.4275 251.783 44.5094 251.791 44.5913C251.799 44.6738 251.803 44.7558 251.803 44.8389C251.803 44.9214 251.799 45.0033 251.791 45.0858C251.783 45.1678 251.771 45.2497 251.755 45.3304C251.738 45.4118 251.718 45.4919 251.694 45.5708C251.67 45.6498 251.641 45.7275 251.61 45.804C251.578 45.88 251.542 45.9547 251.503 46.0277C251.463 46.1006 251.421 46.1712 251.375 46.24C251.328 46.3087 251.279 46.3751 251.226 46.4385C251.173 46.5025 251.117 46.5635 251.058 46.6221C251 46.6807 250.938 46.7357 250.874 46.7883C250.809 46.841 250.742 46.89 250.673 46.936C250.604 46.9815 250.533 47.0239 250.459 47.0628C250.386 47.1017 250.31 47.137 250.234 47.1687C250.156 47.2004 250.078 47.2285 249.999 47.2524C249.919 47.2763 249.838 47.296 249.757 47.3122C249.675 47.3283 249.593 47.3409 249.51 47.3487C249.427 47.357 249.344 47.3606 249.261 47.3606C249.177 47.3612 249.094 47.357 249.011 47.3493C248.929 47.3409 248.846 47.3289 248.765 47.3128C248.683 47.2966 248.602 47.2769 248.522 47.253C248.443 47.2291 248.364 47.201 248.287 47.1699C248.21 47.1382 248.135 47.1029 248.061 47.064C247.988 47.0251 247.916 46.9827 247.847 46.9366C247.778 46.8906 247.711 46.8416 247.647 46.7895C247.582 46.7369 247.52 46.6813 247.462 46.6227C247.403 46.5647 247.347 46.5031 247.294 46.4397C247.241 46.3757 247.192 46.3093 247.145 46.2406C247.099 46.1718 247.057 46.1012 247.017 46.0283C246.978 45.9553 246.942 45.8806 246.911 45.804C246.879 45.7281 246.851 45.6504 246.827 45.5708C246.802 45.4919 246.783 45.4118 246.766 45.331C246.75 45.2497 246.738 45.1684 246.73 45.0858C246.722 45.0039 246.718 44.9214 246.718 44.8389Z" fill="#1A1A1A"/>
<path d="M249.261 61.3727C240.07 61.3727 232.593 53.9551 232.593 44.8381C232.593 35.7211 240.07 28.3042 249.261 28.3042C258.451 28.3042 265.929 35.7211 265.929 44.8381C265.929 53.9551 258.451 61.3727 249.261 61.3727ZM249.261 28.9751C240.443 28.9751 233.269 36.0913 233.269 44.8381C233.269 53.5856 240.443 60.7017 249.261 60.7017C258.078 60.7017 265.252 53.5856 265.252 44.8381C265.252 36.0913 258.078 28.9751 249.261 28.9751Z" fill="#5ADF93"/>
<path d="M222.053 45.3604L222.327 46.762L224.445 46.353L224.874 48.5393L222.757 48.9483L223.842 54.4546L223.675 54.6077L213.413 52.144L212.721 48.623L220.693 47.0802L220.418 45.6785L222.053 45.3604ZM221.645 51.9191L221.103 49.166L214.32 50.4002L219.374 51.369L221.645 51.9191Z" fill="black"/>
<path d="M223.475 36.2923L223.263 37.7036L225.397 38.0193L225.064 40.2223L222.93 39.9066L222.093 45.456L221.888 45.5445L213.049 39.8157L213.584 36.266L221.616 37.4596L221.828 36.0483L223.475 36.2923ZM220.88 42.3368L221.298 39.5622L214.491 38.4762L218.925 41.0643L220.88 42.3368Z" fill="black"/>
<path d="M221.668 32.1493C221.149 32.9518 220.518 33.3991 219.776 33.4912C219.033 33.5839 218.237 33.359 217.386 32.8166C216.449 32.2186 215.892 31.5674 215.715 30.8624C215.538 30.1562 215.697 29.4212 216.192 28.657C216.681 27.9059 217.282 27.4694 217.996 27.3462C218.71 27.2218 219.54 27.4622 220.487 28.0662C222.294 29.2179 222.688 30.5789 221.668 32.1493ZM219.807 23.2679L220.716 21.8638L227.224 33.7351L226.315 35.1344L219.807 23.2679ZM220.578 31.4747C220.789 31.153 220.791 30.8516 220.583 30.5706C220.375 30.2883 220.014 29.9839 219.501 29.6568C219.102 29.4021 218.765 29.2203 218.488 29.1115C218.21 29.0032 217.971 28.9703 217.769 29.0134C217.569 29.0564 217.398 29.1856 217.258 29.4009C217.06 29.7059 217.055 30.0055 217.241 30.3003C217.426 30.5939 217.805 30.9234 218.377 31.2882C218.903 31.623 219.348 31.8216 219.71 31.8838C220.074 31.9459 220.363 31.8096 220.578 31.4747ZM231.017 28.3556C230.496 29.1593 229.863 29.606 229.119 29.6951C228.377 29.7848 227.577 29.5558 226.722 29.0086C225.79 28.4154 225.232 27.7672 225.049 27.0639C224.866 26.3595 225.021 25.6263 225.517 24.8657C226.005 24.1116 226.61 23.6721 227.332 23.5477C228.056 23.4221 228.89 23.6613 229.835 24.2653C230.682 24.8047 231.225 25.4153 231.463 26.0976C231.7 26.7787 231.552 27.5316 231.017 28.3556ZM229.879 27.6858C230.029 27.4532 230.075 27.2338 230.016 27.028C229.956 26.8211 229.828 26.6298 229.63 26.454C229.433 26.277 229.163 26.0802 228.823 25.8632C228.226 25.484 227.756 25.2664 227.412 25.2101C227.068 25.1545 226.795 25.2813 226.595 25.5905C226.39 25.905 226.381 26.2064 226.568 26.4946C226.754 26.7835 227.141 27.1142 227.728 27.4873C228.247 27.8192 228.682 28.0177 229.032 28.0829C229.383 28.1487 229.665 28.0159 229.879 27.6858Z" fill="black"/>
<path d="M239.377 13.085C240.15 12.7585 240.841 12.7573 241.448 13.0826C242.057 13.4067 242.556 14.0196 242.946 14.922L245.164 20.0624L243.165 20.9115L241.034 15.9721C240.839 15.5194 240.597 15.2013 240.308 15.0177C240.02 14.8347 239.695 14.8192 239.334 14.9723C239.086 15.0775 238.878 15.2413 238.709 15.4626C238.54 15.6827 238.435 15.9326 238.393 16.2113C238.353 16.4888 238.392 16.7656 238.509 17.0413L240.641 21.9807L238.627 22.8371L236.496 17.8976C236.306 17.4545 236.053 17.1388 235.736 16.9504C235.421 16.7609 235.083 16.7423 234.721 16.8954C234.468 17.0042 234.264 17.1657 234.109 17.381C233.954 17.5962 233.863 17.8444 233.834 18.1249C233.806 18.4059 233.853 18.6864 233.974 18.9669L236.105 23.9063L234.089 24.7626L230.733 16.9791L232.544 16.2113L233.036 17.2231C233.214 16.1838 233.81 15.4483 234.825 15.0177C235.35 14.7946 235.839 14.7229 236.291 14.8024C236.744 14.8826 237.155 15.1032 237.525 15.465C237.673 14.3408 238.29 13.5478 239.377 13.085Z" fill="black"/>
<path d="M248.91 20.6246C248.076 20.6389 247.361 20.4751 246.766 20.1318C246.173 19.7892 245.716 19.2899 245.397 18.6345C245.079 17.9791 244.912 17.1897 244.898 16.2664C244.883 15.3431 245.029 14.5484 245.334 13.8816C245.641 13.2137 246.092 12.7 246.689 12.3412C247.287 11.9824 248.003 11.797 248.838 11.7839C249.665 11.7713 250.372 11.9405 250.957 12.291C251.544 12.642 251.99 13.1467 252.298 13.8051C252.607 14.4623 252.768 15.2415 252.783 16.142C252.797 17.0384 252.655 17.8224 252.356 18.4933C252.058 19.1631 251.616 19.6834 251.03 20.0529C250.444 20.4213 249.738 20.6114 248.91 20.6246ZM248.917 18.9239C249.449 18.9161 249.849 18.6811 250.118 18.2183C250.388 17.7542 250.516 17.0743 250.501 16.1779C250.487 15.2773 250.338 14.5986 250.053 14.1423C249.77 13.6849 249.362 13.46 248.83 13.4678C248.271 13.4774 247.852 13.7022 247.572 14.1423C247.293 14.5825 247.162 15.2785 247.179 16.2305C247.193 17.1825 247.346 17.8726 247.639 18.2996C247.932 18.7254 248.358 18.9335 248.917 18.9239Z" fill="black"/>
<path d="M255.248 12.4546L257.126 12.9162L256.866 14.3897C257.15 14.0106 257.522 13.7152 257.98 13.5047C258.438 13.293 259.017 13.2726 259.716 13.4449C259.994 13.5136 260.237 13.6195 260.447 13.763L259.441 15.8129C259.37 15.6969 259.275 15.6018 259.154 15.5283C259.035 15.4535 258.882 15.3931 258.694 15.3465C258.306 15.2508 257.952 15.2502 257.63 15.3441C257.308 15.4386 257.05 15.5755 256.856 15.7555C256.663 15.9343 256.549 16.0922 256.514 16.2291L255.279 21.1805L253.198 20.671L255.248 12.4546Z" fill="black"/>
<path d="M261.146 23.7089C260.336 23.2748 259.76 22.7462 259.417 22.1231C259.075 21.4993 258.937 20.8356 259.005 20.1305C259.072 19.4261 259.302 18.7121 259.695 17.9897C260.096 17.2518 260.599 16.6526 261.202 16.1933C261.806 15.7341 262.469 15.4674 263.191 15.392C263.912 15.3173 264.638 15.4752 265.366 15.8656C266.452 16.4463 267.061 17.1717 267.191 18.0423C267.323 18.913 267.054 19.9649 266.383 21.1974C266.253 21.4366 266.097 21.7009 265.916 21.9915L261.39 19.5708C261.091 20.1897 261.007 20.7453 261.139 21.238C261.272 21.7308 261.638 22.1362 262.236 22.4555C262.548 22.623 262.919 22.733 263.35 22.7856C263.782 22.8395 264.137 22.8155 264.413 22.7139L264.245 24.4552C263.28 24.5461 262.247 24.2974 261.146 23.7089ZM264.662 19.8124C265.06 19.0805 265.243 18.5273 265.209 18.1524C265.177 17.778 264.987 17.4982 264.64 17.3128C264.153 17.0515 263.677 17.0281 263.213 17.2434C262.748 17.4587 262.346 17.8426 262.007 18.394L264.662 19.8124Z" fill="black"/>
<path d="M282.242 27.8685L272.324 34.8315L271.097 33.1117L275.28 30.1743L276.976 29.0788L275.869 29.1171L272.259 28.7942L273.156 25.3138L273.559 24.2925L271.965 25.5243L267.781 28.4617L266.554 26.7418L276.472 19.7788L276.57 19.9175L274.711 27.0959L282.133 27.7154L282.242 27.8685Z" fill="black"/>
<path d="M275.425 40.5687L274.378 36.4641L272.543 36.2751L271.955 33.9692L284.976 35.8756L285.017 36.0383L274.482 43.872L273.91 41.6331L275.425 40.5687ZM276.881 39.5545L279.731 37.5572L280.592 37.0453L279.594 37.0118L276.141 36.653L276.881 39.5545Z" fill="black"/>
<path d="M273.66 47.016C273.769 45.7339 274.202 44.7418 274.957 44.0404C275.712 43.3383 276.891 43.0537 278.492 43.1865L286.143 43.8251L285.955 46.0281L278.063 45.3703C277.164 45.295 276.527 45.4397 276.153 45.8033C275.778 46.1669 275.568 46.6106 275.523 47.1356C275.478 47.6666 275.608 48.1319 275.912 48.5325C276.217 48.9326 276.824 49.1712 277.735 49.2477L285.627 49.9055L285.441 52.1085L277.79 51.4699C276.189 51.3371 275.074 50.8719 274.446 50.0729C273.818 49.2752 273.555 48.2562 273.66 47.016Z" fill="black"/>
</svg>
