<svg width="104" height="105" viewBox="0 0 104 105" fill="none" xmlns="http://www.w3.org/2000/svg">
<g filter="url(#filter0_d_638_24)">
<mask id="mask0_638_24" style="mask-type:luminance" maskUnits="userSpaceOnUse" x="0" y="0" width="104" height="104">
<path d="M0.214966 0.214996H103.895V103.895H0.214966V0.214996Z" fill="white"/>
</mask>
<g mask="url(#mask0_638_24)">
<path d="M103.899 93.7638C101.315 93.7638 99.2225 91.6688 99.2225 89.0888C99.2225 86.505 101.317 84.4125 103.899 84.4125V78.9538C101.315 78.9538 99.2225 76.8588 99.2225 74.2775C99.2225 71.695 101.317 69.6025 103.899 69.6025V64.1413C101.315 64.1413 99.2225 62.0488 99.2225 59.4675C99.2225 56.88 101.317 54.7925 103.899 54.7925V49.3312C101.315 49.3312 99.2225 47.2362 99.2225 44.655C99.2225 42.0725 101.317 39.98 103.899 39.98V34.5212C101.315 34.5212 99.2225 32.4262 99.2225 29.845C99.2225 27.2625 101.317 25.1687 103.899 25.1687V19.7025C101.315 19.7025 99.2225 17.61 99.2225 15.0262C99.2225 12.4437 101.317 10.3512 103.899 10.3512V4.8925C103.749 4.8925 103.594 4.88625 103.437 4.8675C103.287 4.8525 103.135 4.8325 102.985 4.79875C102.686 4.74 102.392 4.65 102.11 4.53125C101.826 4.41625 101.555 4.2725 101.305 4.10375C101.175 4.01875 101.052 3.92875 100.934 3.83C100.815 3.7325 100.7 3.6275 100.591 3.52125C100.482 3.4125 100.379 3.29875 100.282 3.17875C100.186 3.06 100.095 2.9375 100.009 2.8125C99.84 2.5575 99.6962 2.28625 99.5812 2.0025C99.4625 1.72125 99.3725 1.42625 99.3125 1.12875C99.2837 0.977496 99.2625 0.826246 99.2437 0.674996C99.2287 0.521246 99.2225 0.366246 99.2225 0.214996H93.7637C93.7637 2.7975 91.6687 4.89 89.0887 4.89C86.505 4.89 84.4125 2.7975 84.4125 0.214996H78.9537C78.9537 2.7975 76.8587 4.89 74.2775 4.89C71.6975 4.89 69.5975 2.7975 69.5975 0.214996H64.14C64.14 2.7975 62.045 4.89 59.4637 4.89C56.8762 4.89 54.7875 2.7975 54.7875 0.214996H49.3275C49.3275 2.7975 47.235 4.89 44.6537 4.89C42.0662 4.89 39.9737 2.7975 39.9737 0.214996H34.515C34.515 2.7975 32.4225 4.89 29.8387 4.89C27.2562 4.89 25.1625 2.7975 25.1625 0.214996H19.7025C19.7025 2.7975 17.61 4.89 15.0262 4.89C12.4437 4.89 10.3487 2.7975 10.3487 0.214996H4.89247C4.89247 0.364996 4.88622 0.521246 4.87122 0.674996C4.85247 0.826246 4.83247 0.977496 4.80247 1.12875C4.74247 1.42625 4.65247 1.72125 4.53372 2.0025C4.41872 2.28625 4.27497 2.5575 4.10622 2.8125C4.01997 2.9375 3.92872 3.06 3.83247 3.17875C3.73622 3.29875 3.62997 3.4125 3.52372 3.52125C3.41497 3.63 3.29997 3.735 3.18122 3.83C3.06247 3.92875 2.93997 4.01875 2.80997 4.10375C2.55747 4.2725 2.28872 4.41625 2.00497 4.53125C1.72497 4.65 1.42872 4.74 1.12997 4.79875C0.979966 4.83 0.827466 4.8525 0.677466 4.8675C0.521216 4.88375 0.366216 4.8925 0.214966 4.8925V10.3512C2.79747 10.3512 4.88997 12.4462 4.88997 15.0262C4.89247 17.61 2.79747 19.7025 0.214966 19.7025V25.1612C2.79747 25.1612 4.88997 27.2537 4.88997 29.8375C4.88997 32.42 2.79497 34.5125 0.214966 34.5125V39.9712C2.79747 39.9712 4.88997 42.0637 4.88997 44.6475C4.88997 47.23 2.79497 49.3225 0.214966 49.3225V54.7838C2.79747 54.7838 4.88997 56.8763 4.88997 59.46C4.88997 62.0425 2.79497 64.135 0.214966 64.135V69.5938C2.79747 69.5938 4.88997 71.6863 4.88997 74.27C4.88997 76.8525 2.79497 78.9463 0.214966 78.9463V84.4038C2.79747 84.4038 4.88997 86.4963 4.88997 89.08C4.88997 91.6625 2.79497 93.7563 0.214966 93.7563V99.2163C0.368716 99.2163 0.521216 99.22 0.674966 99.235C0.826216 99.2538 0.977466 99.275 1.12872 99.3038C1.42622 99.365 1.72122 99.4538 2.00247 99.5738C2.28622 99.6875 2.55747 99.8325 2.81247 100.001C2.93747 100.086 3.05997 100.179 3.17872 100.274C3.29872 100.37 3.41247 100.475 3.52122 100.583C3.62997 100.691 3.73372 100.806 3.82997 100.925C3.92622 101.044 4.01872 101.168 4.10372 101.293C4.27247 101.548 4.41622 101.819 4.53122 102.103C4.64997 102.381 4.73997 102.678 4.79872 102.976C4.83247 103.126 4.85247 103.279 4.86747 103.429C4.88622 103.584 4.89247 103.738 4.89247 103.89H10.3512C10.3512 101.308 12.4437 99.2138 15.0262 99.2138C17.61 99.2138 19.7025 101.309 19.7025 103.89H25.1612C25.1612 101.308 27.2562 99.2138 29.8375 99.2138C32.42 99.2138 34.5125 101.309 34.5125 103.89H39.9712C39.9712 101.308 42.0662 99.2138 44.6512 99.2138C47.23 99.2138 49.325 101.309 49.325 103.89H54.7862C54.7862 101.308 56.8762 99.2138 59.4612 99.2138C62.045 99.2138 64.1375 101.309 64.1375 103.89H69.5962C69.5962 101.308 71.6912 99.2138 74.2712 99.2138C76.8525 99.2138 78.9475 101.309 78.9475 103.89H84.4062C84.4062 101.308 86.5012 99.2138 89.0825 99.2138C91.665 99.2138 93.7575 101.309 93.7575 103.89H99.2162C99.2162 103.74 99.225 103.584 99.2412 103.429C99.2562 103.279 99.2775 103.126 99.31 102.976C99.3687 102.678 99.4587 102.381 99.5775 102.103C99.6925 101.819 99.8362 101.548 100.005 101.293C100.091 101.168 100.182 101.044 100.279 100.925C100.375 100.806 100.479 100.691 100.587 100.583C101.457 99.7125 102.664 99.2188 103.895 99.2138L103.899 93.7638Z" fill="#FDFDFD"/>
</g>
</g>
<mask id="mask1_638_24" style="mask-type:luminance" maskUnits="userSpaceOnUse" x="20" y="12" width="64" height="64">
<path d="M20.36 12.36H83.72V75.72H20.36V12.36Z" fill="white"/>
</mask>
<g mask="url(#mask1_638_24)">
<path d="M51.9987 12.36C60.735 12.36 68.645 15.9013 74.37 21.6263C80.0962 27.3525 83.6375 35.2625 83.6375 43.9987C83.6375 52.735 80.0962 60.645 74.37 66.37C68.645 72.0962 60.735 75.6375 51.9987 75.6375C43.2625 75.6375 35.3525 72.0962 29.6262 66.37C23.9012 60.645 20.36 52.735 20.36 43.9987C20.36 35.2625 23.9012 27.3525 29.6262 21.6263C35.3525 15.9013 43.2625 12.36 51.9987 12.36ZM73.8087 22.1888C68.2275 16.6063 60.5162 13.1538 51.9987 13.1538C43.4812 13.1538 35.77 16.6063 30.1887 22.1888C24.6062 27.77 21.1537 35.4813 21.1537 43.9987C21.1537 52.5162 24.6062 60.2275 30.1887 65.8087C35.77 71.3912 43.4812 74.8425 51.9987 74.8425C60.5162 74.8425 68.2275 71.3912 73.8087 65.8087C79.3912 60.2275 82.8425 52.5162 82.8425 43.9987C82.8425 35.4813 79.3912 27.77 73.8087 22.1888Z" fill="#101010"/>
</g>
<path d="M75.4788 33.6987C75.3913 33.4987 75.4825 33.265 75.6838 33.1775C75.8838 33.09 76.1175 33.1825 76.205 33.3825C76.9288 35.03 77.4888 36.765 77.8663 38.5675C78.2338 40.3237 78.4275 42.14 78.4275 43.9987C78.4275 46.065 78.1888 48.0775 77.7388 50.01C77.2763 51.9975 76.5875 53.9012 75.7025 55.6912C75.6063 55.8875 75.3688 55.9675 75.1725 55.8712C74.9763 55.7737 74.8963 55.5362 74.9925 55.34C75.85 53.6062 76.5163 51.7612 76.9663 49.83C77.4013 47.9587 77.6325 46.0062 77.6325 43.9987C77.6325 42.1887 77.4463 40.4262 77.09 38.7287C76.725 36.98 76.18 35.2975 75.4788 33.6987Z" fill="#101010"/>
<path d="M29.0049 55.34C29.1012 55.5362 29.0212 55.7737 28.8249 55.8712C28.6287 55.9675 28.3912 55.8875 28.2937 55.6912C27.4099 53.9012 26.7212 51.9975 26.2587 50.01C25.8087 48.0775 25.5699 46.065 25.5699 43.9987C25.5699 42.14 25.7637 40.3237 26.1312 38.5675C26.5087 36.765 27.0687 35.03 27.7924 33.3825C27.8799 33.1825 28.1137 33.09 28.3137 33.1775C28.5137 33.265 28.6062 33.4987 28.5187 33.6987C27.8162 35.2975 27.2724 36.98 26.9062 38.7287C26.5512 40.4262 26.3649 42.1887 26.3649 43.9987C26.3649 46.0062 26.5949 47.9587 27.0312 49.83C27.4812 51.7612 28.1474 53.6062 29.0049 55.34Z" fill="#101010"/>
<path d="M51.9988 22.7812C57.8575 22.7812 63.1625 25.1563 67.0025 28.995C70.8413 32.835 73.2163 38.14 73.2163 43.9988C73.2163 49.8575 70.8413 55.1625 67.0025 59.0025C63.1625 62.8413 57.8575 65.2163 51.9988 65.2163C46.14 65.2163 40.835 62.8413 36.995 59.0025C33.1563 55.1625 30.7812 49.8575 30.7812 43.9988C30.7812 38.14 33.1563 32.835 36.995 28.995C40.835 25.1563 46.14 22.7812 51.9988 22.7812ZM66.44 29.5563C62.745 25.8613 57.6388 23.575 51.9988 23.575C46.3588 23.575 41.2525 25.8613 37.5563 29.5563C33.8613 33.2525 31.575 38.3588 31.575 43.9988C31.575 49.6388 33.8613 54.745 37.5563 58.44C41.2525 62.1363 46.3588 64.4225 51.9988 64.4225C57.6388 64.4225 62.745 62.1363 66.44 58.44C70.1363 54.745 72.4225 49.6388 72.4225 43.9988C72.4225 38.3588 70.1363 33.2525 66.44 29.5563Z" fill="#101010"/>
<path d="M40.9356 42.7563L44.3694 39.3526C44.5481 39.1726 44.5481 38.9051 44.3694 38.7251C44.1906 38.5763 43.9219 38.5763 43.7719 38.7251L40.0406 42.4576C39.8606 42.6363 39.8606 42.9051 40.0406 43.0838L43.7719 46.8163C43.8319 46.8763 43.9519 46.9351 44.0706 46.9351C44.1606 46.9351 44.2794 46.8763 44.3694 46.8163C44.5481 46.6363 44.5481 46.3688 44.3694 46.1888L40.9356 42.7563Z" fill="#101010"/>
<path d="M57.5352 32.3063H56.1627H54.7589C54.5202 32.3063 54.3414 32.5151 54.3414 32.7538C54.3414 32.9926 54.5202 33.1726 54.7589 33.1726C54.9077 33.1726 55.0877 33.2026 55.2064 33.3513C55.2964 33.5001 55.2964 33.7101 55.1764 33.9788L47.9514 51.2351C47.6827 51.8613 46.9664 52.3688 46.3702 52.3688C46.1314 52.3688 45.9514 52.5488 45.9514 52.7876C45.9514 53.0263 46.1314 53.2351 46.3702 53.2351H49.1464C49.3852 53.2351 49.5639 53.0263 49.5639 52.7876C49.5639 52.5488 49.3852 52.3688 49.1464 52.3688C48.9964 52.3688 48.8177 52.3388 48.6989 52.1901C48.6089 52.0413 48.6089 51.8313 48.7277 51.5626L55.9527 34.3063C56.2214 33.6801 56.9389 33.1726 57.5352 33.1726C57.7739 33.1726 57.9839 32.9926 57.9839 32.7538C57.9839 32.5151 57.7739 32.3063 57.5352 32.3063Z" fill="#101010"/>
<path d="M63.9246 42.4576L60.1921 38.7251C60.0133 38.5763 59.7446 38.5763 59.5958 38.7251C59.4158 38.9051 59.4158 39.1726 59.5958 39.3526L63.0283 42.7563L59.5958 46.1888C59.4158 46.3688 59.4158 46.6363 59.5958 46.8163C59.6846 46.8763 59.7746 46.9351 59.8946 46.9351C60.0133 46.9351 60.1033 46.8763 60.1921 46.8163L63.9246 43.0838C64.1033 42.9051 64.1033 42.6363 63.9246 42.4576Z" fill="#101010"/>
<path d="M41.4944 84.92H42.4944L44.0544 90.58H44.0744L45.7444 84.92H46.8444L48.5144 90.58H48.5344L50.0944 84.92H51.0944L49.0344 92H48.0244L46.3044 86.22H46.2844L44.5744 92H43.5644L41.4944 84.92ZM52.0135 84.92H56.5835V85.82H52.9735V87.93H56.3335V88.83H52.9735V91.1H56.7635V92H52.0135V84.92ZM58.1268 84.92H60.5868C60.8935 84.92 61.1768 84.9567 61.4368 85.03C61.7035 85.1033 61.9301 85.2133 62.1168 85.36C62.3101 85.5 62.4601 85.6833 62.5668 85.91C62.6801 86.13 62.7368 86.39 62.7368 86.69C62.7368 87.0967 62.6235 87.43 62.3968 87.69C62.1701 87.9433 61.8768 88.13 61.5168 88.25V88.27C61.7301 88.2833 61.9301 88.34 62.1168 88.44C62.3035 88.5333 62.4635 88.66 62.5968 88.82C62.7368 88.9733 62.8468 89.1533 62.9268 89.36C63.0068 89.5667 63.0468 89.79 63.0468 90.03C63.0468 90.35 62.9801 90.6333 62.8468 90.88C62.7201 91.12 62.5435 91.3233 62.3168 91.49C62.0901 91.6567 61.8268 91.7833 61.5268 91.87C61.2268 91.9567 60.9035 92 60.5568 92H58.1268V84.92ZM59.0868 87.86H60.3968C60.5768 87.86 60.7468 87.8433 60.9068 87.81C61.0668 87.77 61.2068 87.7067 61.3268 87.62C61.4468 87.5333 61.5401 87.4233 61.6068 87.29C61.6801 87.1567 61.7168 86.9933 61.7168 86.8C61.7168 86.52 61.6268 86.2767 61.4468 86.07C61.2668 85.8633 60.9835 85.76 60.5968 85.76H59.0868V87.86ZM59.0868 91.16H60.4968C60.6435 91.16 60.8035 91.1467 60.9768 91.12C61.1568 91.0867 61.3235 91.0267 61.4768 90.94C61.6301 90.8467 61.7601 90.7233 61.8668 90.57C61.9735 90.4167 62.0268 90.2133 62.0268 89.96C62.0268 89.54 61.8901 89.2267 61.6168 89.02C61.3435 88.8067 60.9735 88.7 60.5068 88.7H59.0868V91.16Z" fill="#101010"/>
<defs>
<filter id="filter0_d_638_24" x="0.214966" y="0.214996" width="103.68" height="104.675" filterUnits="userSpaceOnUse" colorInterpolationFilters="sRGB">
<feFlood flood-opacity="0" result="BackgroundImageFix"/>
<feColorMatrix in="SourceAlpha" type="matrix" values="0 0 0 0 0 0 0 0 0 0 0 0 0 0 0 0 0 0 127 0" result="hardAlpha"/>
<feOffset dy="1"/>
<feComposite in2="hardAlpha" operator="out"/>
<feColorMatrix type="matrix" values="0 0 0 0 0 0 0 0 0 0 0 0 0 0 0 0 0 0 0.25 0"/>
<feBlend mode="normal" in2="BackgroundImageFix" result="effect1_dropShadow_638_24"/>
<feBlend mode="normal" in="SourceGraphic" in2="effect1_dropShadow_638_24" result="shape"/>
</filter>
</defs>
</svg>
