<svg width="92" height="24" viewBox="0 0 92 24" fill="none" xmlns="http://www.w3.org/2000/svg">
<mask id="mask0_968_3937" style="mask-type:luminance" maskUnits="userSpaceOnUse" x="0" y="0" width="92" height="24">
<path d="M0.258301 0.159668H91.6736V23.4745H0.258301V0.159668Z" fill="white"/>
</mask>
<g mask="url(#mask0_968_3937)">
<path d="M90.9602 22.2685C84.0581 23.2542 77.156 23.3949 70.2539 23.5356H69.5496C69.1267 23.5356 68.5632 23.5356 68.141 23.5356C67.7182 23.5356 67.1546 23.5356 66.7324 23.5356C65.3239 23.5356 63.7739 23.5356 62.3653 23.5356C57.1539 23.5356 51.8011 23.3949 46.5897 23.3949C46.4483 23.3949 46.3076 23.3949 46.3076 23.3949C46.1668 23.3949 46.0261 23.3949 45.744 23.3949H45.1811C37.2926 23.2542 29.2641 23.2542 21.2348 23.1134C20.9534 23.1134 20.5305 23.1134 20.2491 23.1134C19.4034 23.1134 18.4177 23.1134 17.5727 23.1134H17.4313C13.4877 23.1134 9.40275 23.1134 5.45849 22.9727C4.19064 22.9727 2.78207 22.9727 1.65565 22.2685C0.528512 21.5642 -0.0350549 20.0142 0.669227 18.8878C1.23279 18.0421 1.93708 18.0421 2.35993 17.0563C2.78207 16.2113 2.50064 15.5071 2.35993 14.8028C2.21851 13.6756 2.35993 12.1264 3.90921 9.8728C3.20493 9.0271 2.35993 7.61853 1.79636 5.78782C1.37351 4.23854 0.669227 2.12499 1.51422 0.998564C2.64136 -0.41 5.88134 0.716427 7.99418 0.716427C8.1349 0.716427 8.27561 0.716427 8.41633 0.716427C9.12061 0.716427 9.68418 0.716427 10.3885 0.716427C11.0927 0.716427 11.797 0.716427 12.5013 0.857849C13.347 0.857849 14.3327 0.857849 15.1777 0.998564C18.1356 1.13928 21.0941 1.27999 24.052 1.27999C39.4054 1.84356 54.9004 2.40713 70.2539 0.998564C77.4374 0.294282 84.9031 -0.692137 91.523 2.12499C88.8473 2.9707 87.5795 6.63282 89.2695 9.0271C89.833 9.8728 90.678 10.7178 90.3966 11.7035C90.2559 12.2671 89.6923 12.5492 89.2695 12.9714C87.1566 15.6478 92.2273 19.3099 90.9602 22.2685Z" fill="#857999"/>
</g>
<mask id="mask1_968_3937" style="mask-type:luminance" maskUnits="userSpaceOnUse" x="5" y="0" width="81" height="24">
<path d="M5.86987 0.702637H85.5188V23.4744H5.86987V0.702637Z" fill="white"/>
</mask>
<g mask="url(#mask1_968_3937)">
<path d="M67.8589 2.68844C68.141 3.53414 68.4224 4.51986 68.7046 5.50557C68.8453 6.06914 69.1267 6.77342 69.4089 7.33698C68.986 6.91413 68.5632 6.49199 68.141 6.06914C67.2953 5.36485 66.4503 4.80129 65.746 4.37914C69.4089 4.37914 70.3946 4.51986 70.3946 4.66057C70.3946 4.66057 70.3946 4.66057 69.5496 5.08342C68.986 5.36485 68.986 5.36485 68.8453 5.50557C68.4224 5.78771 68.2817 5.78771 67.5775 6.35127C66.7325 7.05555 66.7325 7.05555 66.591 7.05555C66.4503 6.91413 66.8732 6.06914 67.296 4.51986C67.5775 3.81557 67.8589 3.11129 67.8589 2.68844ZM82.3674 18.3241C81.9452 19.7326 81.3817 20.7183 81.6631 20.8598C81.6631 20.8598 81.8038 20.8598 82.6495 20.1555C83.3538 19.5919 83.4945 19.4512 83.9167 19.3098C84.0581 19.1691 84.0581 19.3098 84.6216 18.8876C85.4666 18.4648 85.4666 18.4648 85.4666 18.4648C85.4666 18.3241 84.4802 18.1834 80.8181 18.1834C81.5224 18.6055 82.3674 19.1691 83.2124 19.8733C83.7759 20.2962 84.1988 20.7183 84.4802 21.1412C84.1988 20.5776 84.0581 20.0141 83.7759 19.3098C83.4945 18.3241 83.2124 17.3376 82.9309 16.4927C82.9309 16.7748 82.6495 17.4791 82.3674 18.3241ZM55.0411 18.3241C54.6182 19.7326 54.0547 20.7183 54.3368 20.8598C54.3368 20.8598 54.4775 20.8598 55.3225 20.1555C56.0268 19.5919 56.1675 19.4512 56.5904 19.3098C56.7311 19.1691 56.7311 19.3098 57.2946 18.8876C58.1396 18.4648 58.1396 18.4648 58.1396 18.4648C58.1396 18.3241 57.1539 18.1834 53.4918 18.1834C54.1961 18.6055 55.0411 19.1691 55.8861 19.8733C56.4497 20.2962 56.8718 20.7183 57.1539 21.1412C56.8718 20.5776 56.7311 20.0141 56.4497 19.3098C56.1675 18.3241 55.8861 17.3376 55.6047 16.4927C55.4632 16.7748 55.3225 17.4791 55.0411 18.3241ZM63.6332 13.5348C63.3518 14.3798 63.0696 14.9434 63.211 15.0841C63.211 15.0841 63.211 15.0841 63.7739 14.6619C64.1968 14.3798 64.3375 14.2391 64.4782 14.0984C64.6196 14.0984 64.6196 14.0984 64.901 13.8162C65.3239 13.5348 65.4646 13.5348 65.4646 13.5348C65.4646 13.3941 64.901 13.3941 62.5068 13.2534C62.9289 13.5348 63.4925 13.8162 64.056 14.2391C64.3375 14.5205 64.6196 14.8027 64.901 14.9434C64.7603 14.5205 64.6196 14.2391 64.4782 13.8162C64.3375 13.2534 64.056 12.5491 63.9153 11.9855C63.9153 12.5491 63.9153 12.9712 63.6332 13.5348ZM82.0859 4.80129C81.6631 6.06914 81.2409 6.91413 81.3817 7.05555C81.3817 7.05555 81.5224 7.05555 82.2267 6.49199C82.9309 5.92842 83.0717 5.92842 83.3538 5.64699C83.4945 5.50557 83.4945 5.64699 83.9174 5.36485C84.6216 4.94271 84.6216 4.94271 84.6216 4.94271C84.6216 4.80129 83.7759 4.66057 80.3952 4.66057C81.0995 5.08342 81.8038 5.50557 82.6495 6.20985C83.0717 6.6327 83.4945 6.91413 83.9174 7.33698C83.7759 6.77342 83.4945 6.20985 83.3538 5.64699C83.0717 4.66057 82.7902 3.81557 82.5081 2.97058C82.5081 3.39272 82.3674 3.95629 82.0859 4.80129ZM46.1669 22.1269C46.0261 21.7048 45.8854 21.2819 45.8854 21.0005C45.8854 21.2819 45.744 21.7048 45.6033 22.1269C45.3219 22.1269 44.899 22.1269 44.4769 22.1269C44.7583 22.2683 45.0397 22.409 45.4626 22.6905C45.3219 22.9726 45.3219 23.1133 45.1811 23.3948H45.6033C45.744 23.254 45.744 23.254 45.8854 23.1133C46.0261 23.254 46.0261 23.254 46.1669 23.3948C46.3076 23.3948 46.4483 23.3948 46.4483 23.3948C46.4483 23.254 46.3076 23.1133 46.3076 22.8312C46.4483 22.8312 46.4483 22.8312 46.7304 22.5498C47.1526 22.2683 47.294 22.2683 47.294 22.2683C47.294 22.2683 47.0118 22.1269 46.1669 22.1269ZM9.54347 18.4648C9.26204 19.3098 8.97991 19.8733 9.12062 20.0141C9.12062 20.0141 9.12062 20.0141 9.68419 19.5919C10.107 19.3098 10.2478 19.1691 10.3885 19.0284C10.5292 19.0284 10.5292 19.0284 10.8113 18.7462C11.2342 18.4648 11.3749 18.4648 11.3749 18.4648C11.3749 18.3241 10.8113 18.3241 8.41634 18.1834C8.83919 18.4648 9.40276 18.7462 9.96633 19.1691C10.2478 19.4505 10.5292 19.7326 10.8113 19.8733C10.6706 19.4505 10.5292 19.1691 10.3885 18.7462C10.2478 18.1834 9.96633 17.4791 9.8249 16.9155C9.8249 17.4791 9.68419 17.9012 9.54347 18.4648ZM26.4462 5.78771C26.1648 6.6327 25.8834 7.19627 26.0241 7.33698C26.0241 7.33698 26.0241 7.33698 26.5877 6.91413C27.0098 6.6327 27.1512 6.49199 27.2919 6.35127C27.4327 6.35127 27.4327 6.35127 27.7141 6.06914C28.1369 5.78771 28.2777 5.78771 28.2777 5.78771C28.2777 5.64699 27.7141 5.64699 25.3198 5.50557C25.742 5.78771 26.3055 6.06914 26.8691 6.49199C27.1512 6.77342 27.4327 7.05555 27.7141 7.19627C27.5734 6.77342 27.4327 6.49199 27.2919 6.06914C27.1512 5.50557 26.8691 4.80129 26.7284 4.23843C26.7284 4.80129 26.5877 5.22414 26.4462 5.78771ZM7.00777 10.7177C6.72634 11.5627 6.44491 12.1262 6.58563 12.267C6.58563 12.267 6.58563 12.267 7.1492 11.8448C7.57134 11.5627 7.71206 11.422 7.85348 11.2812C7.99419 11.2812 7.99419 11.2812 8.27562 10.9991C8.69848 10.7177 8.83919 10.7177 8.83919 10.7177C8.83919 10.577 8.27562 10.577 5.88135 10.4355C6.30349 10.7177 6.86706 10.9991 7.43063 11.422C7.71206 11.7034 7.99419 11.9855 8.27562 12.1262C8.13491 11.7034 7.99419 11.422 7.85348 10.9991C7.71206 10.4355 7.43063 9.73126 7.28991 9.1684C7.28991 9.73126 7.1492 10.2948 7.00777 10.7177ZM75.8881 11.8448C75.0431 14.3798 74.3388 15.9291 74.6203 16.0705C74.6203 16.0705 74.761 16.0705 76.3103 14.9434C77.5781 13.9577 77.7195 13.8162 78.4238 13.3941C78.7053 13.2534 78.7053 13.2534 79.5502 12.8305C80.9588 12.1262 80.9588 11.9855 80.9588 11.9855C80.9588 11.7034 79.2688 11.422 72.9303 11.422C74.1974 12.1262 75.606 12.9712 77.0153 14.2391C77.8603 14.9434 78.7053 15.6477 79.2688 16.3519C78.846 15.3662 78.5645 14.3798 78.1417 13.2534C77.5781 11.5627 77.156 9.87268 76.7331 8.3227C76.5924 9.1684 76.311 10.2948 75.8881 11.8448ZM14.0513 1.56201C14.6142 1.27988 14.8963 1.13916 15.1777 0.998446C14.3327 0.998446 13.347 0.998446 12.5013 0.857731C11.797 0.857731 11.0928 0.857731 10.3885 0.716309C9.68419 0.716309 9.12062 0.716309 8.41634 0.716309C8.97991 0.998446 9.40276 1.42059 9.96633 1.84344C9.40276 3.67486 8.83919 4.66057 9.12062 4.94271C9.12062 4.94271 9.26204 4.94271 10.8113 3.81557C11.2342 3.53414 11.5156 3.25201 11.6563 3.11129C12.5013 3.81557 13.2056 4.51986 13.9099 5.08342C13.6285 4.23843 13.2056 3.25201 12.9242 2.26629C13.0649 1.98416 13.0649 1.98416 14.0513 1.56201ZM19.6856 21.564C19.4034 20.4369 18.9813 19.4512 18.8399 18.3241C18.6991 19.0284 18.4177 20.1555 17.9949 21.4226C17.1499 21.4226 16.1641 21.4226 14.8963 21.4226C15.6006 21.8455 16.4456 22.409 17.2906 22.9726C17.2906 22.9726 17.2906 22.9726 17.4313 22.9726C18.277 22.9726 19.2627 22.9726 20.1077 22.9726C20.3898 22.9726 20.812 22.9726 21.0941 22.9726C21.2348 22.9726 21.2348 22.8312 21.3756 22.8312C22.7841 22.1269 22.7841 21.9862 22.7841 21.9862C22.7841 21.8455 22.0798 21.7048 19.6856 21.564ZM69.4089 21.0005C68.986 19.7326 68.7046 18.6055 68.4224 17.4791C68.2817 18.3241 68.0003 19.4512 67.5775 20.8598C66.591 20.8598 65.4646 20.8598 64.1968 20.8598C65.0418 21.4226 66.0282 21.9862 67.0139 22.5498C66.8732 22.8312 66.8732 23.1133 66.7325 23.3948C67.1546 23.3948 67.7182 23.3948 68.141 23.3948C68.5632 23.3948 69.1267 23.3948 69.5496 23.3948H70.2539C70.2539 23.254 70.1132 23.1133 70.1132 22.9726C70.3946 22.8312 70.3946 22.8312 71.3803 22.2683C72.7889 21.4226 72.9303 21.4226 72.9303 21.4226C72.9303 21.4226 72.0846 21.1412 69.4089 21.0005ZM39.969 5.64699C39.5462 7.05555 38.9833 8.04127 39.2647 8.18198C39.2647 8.18198 39.4055 8.18198 40.2505 7.4777C40.9547 6.91413 41.0962 6.77342 41.5183 6.6327C41.659 6.49199 41.659 6.6327 42.2226 6.20985C43.0676 5.78771 43.0676 5.78771 43.0676 5.78771C43.0676 5.64699 42.0819 5.50557 38.4197 5.50557C39.124 5.92842 39.969 6.49199 40.814 7.19627C41.3776 7.61841 41.8004 8.04127 42.0819 8.46412C41.8004 7.90055 41.659 7.33698 41.3776 6.6327C41.0962 5.64699 40.814 4.66057 40.5326 3.81557C40.3919 4.097 40.2505 4.80129 39.969 5.64699ZM18.277 11.1398C17.8541 12.5491 17.2906 13.5348 17.5727 13.6755C17.5727 13.6755 17.7134 13.6755 18.5584 12.9712C19.2627 12.4077 19.4034 12.267 19.8263 12.1262C19.967 11.9855 19.967 12.1262 20.5306 11.7034C21.3756 11.2812 21.3756 11.2812 21.3756 11.2812C21.3756 11.1405 20.3898 10.9991 16.727 10.9991C17.4313 11.422 18.277 11.9855 19.122 12.6898C19.6856 13.112 20.1077 13.5348 20.3898 13.9577C20.1077 13.3941 19.967 12.8305 19.6856 12.1262C19.4034 11.1405 19.122 10.1541 18.8406 9.30912C18.6991 9.59055 18.5584 10.2948 18.277 11.1398ZM42.9269 14.6619C42.5047 16.0705 41.9412 17.0562 42.2226 17.1969C42.2226 17.1969 42.3633 17.1969 43.209 16.4927C43.9133 15.9291 44.054 15.7884 44.4769 15.6477C44.6176 15.5069 44.6176 15.6477 45.1811 15.2248C46.0261 14.8027 46.0261 14.8027 46.0261 14.8027C46.0261 14.6619 45.0397 14.5205 41.3776 14.5205C42.0819 14.9434 42.9269 15.5069 43.7726 16.2112C44.3354 16.6334 44.7583 17.0562 45.0397 17.4791C44.7583 16.9155 44.6176 16.3519 44.3354 15.6477C44.054 14.6619 43.7726 13.6755 43.4904 12.8305C43.3497 13.112 43.209 13.8162 42.9269 14.6619ZM52.224 6.49199C51.379 9.02698 50.674 10.577 50.9561 10.7177C50.9561 10.7177 51.0968 10.7177 52.6461 9.59055C53.914 8.60483 54.0547 8.46412 54.759 8.04127C55.0411 7.90055 55.0411 7.90055 55.8861 7.4777C57.2946 6.77342 57.2946 6.6327 57.2946 6.6327C57.2946 6.35127 55.6047 6.06914 49.2654 6.06914C50.5333 6.77342 51.9418 7.61841 53.3504 8.88626C54.1961 9.59055 55.0411 10.2948 55.6047 10.9991C55.1818 10.0134 54.9004 9.02698 54.4775 7.90055C53.914 6.20985 53.4918 4.51986 53.069 2.97058C53.069 3.81557 52.6461 4.94271 52.224 6.49199ZM29.5455 15.7884C28.7005 18.4648 27.8555 20.1555 28.1369 20.4369C28.1369 20.4369 28.2777 20.4369 29.9684 19.3098C31.3769 18.3241 31.5176 18.0419 32.2219 17.6198C32.5034 17.4791 32.5034 17.4791 33.4898 16.9155C34.8983 16.0705 35.0391 16.0705 35.0391 16.0705C35.0391 15.7884 33.2076 15.5069 26.3055 15.3662C27.7141 16.0705 29.2641 17.0562 30.8134 18.4648C31.7991 19.1691 32.6441 20.0141 33.3484 20.7183C32.9262 19.5919 32.5034 18.4648 32.0812 17.3376C31.5176 15.5069 30.9541 13.6755 30.5312 11.9855C30.3905 12.8305 30.1091 14.0984 29.5455 15.7884Z" fill="#BBB6C6"/>
</g>
</svg>
