<svg width="96" height="28" viewBox="0 0 96 28" fill="none" xmlns="http://www.w3.org/2000/svg">
<mask id="mask0_968_3903" style="mask-type:luminance" maskUnits="userSpaceOnUse" x="0" y="0" width="96" height="28">
<path d="M0.448242 0.87793H95.6649V27.7594H0.448242V0.87793Z" fill="white"/>
</mask>
<g mask="url(#mask0_968_3903)">
<path d="M92.9615 25.6124L94.4012 27.7458C94.4012 27.7458 0.845483 27.7458 0.704768 27.7458C2.37921 25.9836 2.58639 25.3812 2.79287 24.609C3.26663 22.8434 2.49729 21.613 1.42602 20.0722C0.631935 18.9309 1.49532 18.5569 3.47735 17.1794C4.53519 16.4454 5.10017 15.6733 5.32432 14.8707C5.4014 14.6034 5.43887 14.334 5.44382 14.0589C5.47423 12.6772 4.69358 11.2149 3.83515 9.69959C3.72625 9.50867 3.61594 9.31563 3.50563 9.12329C3.47876 9.07309 3.45048 9.025 3.42361 8.97692C3.19945 8.57952 2.92085 8.18001 2.62882 7.80382C2.45982 7.5825 2.28304 7.36824 2.10838 7.1653C1.33551 6.26444 0.614258 5.60471 0.614258 5.60471C0.614258 5.60471 1.0364 5.17337 1.54057 4.6593C2.24627 3.943 3.11177 3.07113 3.21006 3.00325L2.92156 2.57686L1.77038 0.870605C1.77038 0.870605 60.0179 0.870605 84.6628 0.870605H95.4668C94.8735 1.49428 94.4655 1.97441 94.1756 2.36473C94.0186 2.57686 93.8977 2.76425 93.7994 2.93325C93.5675 3.33984 93.4734 3.65733 93.3787 4.00664C93.3221 4.21736 93.2846 4.4203 93.2613 4.61688C93.2295 4.88417 93.2295 5.14085 93.2542 5.39046C93.2613 5.47107 93.2719 5.55097 93.286 5.63158C93.3341 5.9222 93.4183 6.20222 93.5307 6.48011C93.6481 6.77498 93.7959 7.0656 93.9705 7.35976C94.1254 7.62563 94.2979 7.89292 94.4867 8.1694C94.5709 8.29244 94.6564 8.41901 94.7455 8.54558C95.5403 9.68686 94.6762 10.0595 92.6949 11.4363C90.3537 13.0626 90.4265 14.8707 91.2404 16.7926C91.3259 16.9927 91.4207 17.1943 91.5183 17.3972C91.7467 17.8611 92.0055 18.332 92.2742 18.8079C92.4304 19.0822 92.5895 19.3608 92.7479 19.6387C92.7889 19.7102 92.83 19.7816 92.8724 19.853C93.1064 20.2327 93.3787 20.611 93.6615 20.966C93.9062 21.2757 94.1586 21.5684 94.3962 21.8308C95.0319 22.5329 95.5573 23.0131 95.5573 23.0131C95.5573 23.0131 95.1457 23.4338 94.6508 23.9366C94.5009 24.09 94.3425 24.2505 94.1855 24.4089C93.605 24.9979 93.0421 25.5594 92.9615 25.6124Z" fill="#8DAAA6"/>
</g>
<mask id="mask1_968_3903" style="mask-type:luminance" maskUnits="userSpaceOnUse" x="30" y="0" width="14" height="15">
<path d="M30.4976 0.87793H43.531V14.0662H30.4976V0.87793Z" fill="white"/>
</mask>
<g mask="url(#mask1_968_3903)">
<path d="M41.2725 6.63935C41.3079 6.62521 41.3446 6.61177 41.3786 6.59692L41.4005 6.58632C42.3325 6.08851 43.4391 5.32342 43.4172 4.50458C43.4066 4.09304 43.1308 3.75858 42.5863 3.50473C41.6056 3.09177 40.4869 3.27279 39.3513 4.03082C39.0812 4.21113 38.8436 4.40629 38.6223 4.60641C38.681 4.3073 38.7213 3.99617 38.7587 3.69494C38.9878 2.20223 38.6682 1.31622 37.8077 1.06307C37.3594 0.931552 36.8877 1.02843 36.4776 1.33673C36.0533 1.65634 35.7408 2.1796 35.6489 2.68519C35.3215 2.28001 34.8859 1.91656 34.4128 1.75321C33.961 1.59765 33.5219 1.63583 33.1407 1.86423C32.609 2.14 32.4195 2.84924 32.4195 3.42341L32.4209 3.45664C32.4817 4.06334 32.773 4.45084 33.0821 4.86026L33.1513 4.95148C33.3345 5.18765 33.5106 5.36584 33.6909 5.5108C33.6258 5.51363 33.5615 5.51787 33.4992 5.52211C32.8317 5.5702 30.6545 5.83395 30.6545 7.23261L30.656 7.26585C30.7245 7.95104 31.2068 8.46511 31.9132 8.60653C32.0553 8.63482 32.1897 8.64754 32.3177 8.64754C32.5446 8.64754 32.7532 8.60724 32.959 8.54572C32.9399 8.5641 32.9208 8.58107 32.9024 8.59946L32.8848 8.61784C32.5673 8.98908 31.5512 10.2583 31.8283 11.0015C31.8842 11.1521 32.0433 11.4138 32.4782 11.4795C32.5821 11.4958 32.6847 11.5036 32.7851 11.5036C33.3904 11.5036 33.9334 11.2221 34.3973 10.853C34.2403 11.3784 34.1201 11.8479 34.3732 12.5444C34.5535 12.9949 34.8887 13.8335 35.8101 13.9113C35.8582 13.9155 35.9041 13.9169 35.9494 13.9169C36.7095 13.9169 37.1112 13.3442 37.3367 12.6837C37.5559 13.0323 37.8713 13.3223 38.2249 13.463C38.3896 13.5287 38.5558 13.5605 38.7191 13.5605C39.1278 13.5605 39.5196 13.3583 39.8399 12.9694C40.4091 12.338 40.1319 11.3317 39.7324 10.4606C39.8321 10.508 39.9325 10.5504 40.0365 10.5829C40.3123 10.6755 40.5866 10.7208 40.8504 10.7208C41.2096 10.7208 41.549 10.6366 41.846 10.4691C42.3657 10.1763 42.7362 9.64103 42.8925 8.95372C43.0318 8.2551 42.8967 7.68799 42.4894 7.26656C42.1896 6.95543 41.7647 6.75744 41.2725 6.63935ZM36.1 7.63425C35.9812 7.48293 35.948 7.25524 35.9996 6.95826C36.0781 6.50924 36.1601 6.47106 36.7682 6.3459C37.1925 6.31832 37.4654 6.7235 37.4972 6.94765C37.5397 7.24534 37.4789 7.51404 37.3304 7.68587C37.2095 7.82447 37.0327 7.89801 36.8177 7.89801C36.7944 7.89801 36.7696 7.8973 36.7435 7.89518C36.4359 7.87467 36.2195 7.78699 36.1 7.63425ZM39.7183 4.58236C40.6736 3.94455 41.5518 3.78757 42.3176 4.11001C42.5149 4.20194 42.7511 4.3476 42.7553 4.52226C42.7645 4.86309 42.0843 5.46837 41.0993 5.99588C40.5032 6.25822 39.7388 6.36923 38.9999 6.47601C38.6852 6.52197 38.3833 6.56581 38.0941 6.62026C38.0516 6.50146 37.9908 6.38479 37.9137 6.27589C38.0127 6.11821 38.2708 5.86718 38.3804 5.76112C38.4243 5.7194 38.4646 5.6798 38.5006 5.64374C38.8853 5.25907 39.2495 4.89491 39.7183 4.58236ZM36.8757 1.86635C37.044 1.73907 37.3106 1.60684 37.621 1.69877C38.1195 1.84585 38.2779 2.46527 38.1032 3.60514C38.0502 4.02657 37.9958 4.46145 37.8968 4.80935C37.819 5.04411 37.6959 5.25483 37.5658 5.47898C37.5029 5.58717 37.4386 5.69889 37.3792 5.81344C37.1769 5.71445 36.945 5.66354 36.6911 5.68828L36.6798 5.6897C36.6459 5.40049 36.583 5.07168 36.5165 4.72874C36.4076 4.16163 36.2831 3.51887 36.2803 2.98005C36.2789 2.59538 36.5292 2.12657 36.8757 1.86635ZM33.611 4.46074C33.331 4.08951 33.1273 3.8201 33.0813 3.40644C33.0849 3.03026 33.2001 2.57488 33.4497 2.44972L33.4745 2.43628C33.6902 2.30476 33.9263 2.28567 34.1972 2.37901C34.7827 2.58124 35.3349 3.23956 35.5308 3.76282C35.7585 4.3568 35.8985 5.1134 36.0109 5.86436C35.8582 5.80991 35.6906 5.73425 35.5265 5.66071C35.2805 5.54969 35.0266 5.43443 34.7841 5.37079C34.2615 5.15937 33.9999 4.9642 33.6774 4.54913L33.611 4.46074ZM32.0433 7.95599C31.6261 7.87255 31.3624 7.60385 31.3171 7.21635C31.3376 6.5248 32.7243 6.24125 33.5466 6.18256C34.0812 6.14437 34.765 6.14508 35.4565 6.44701C35.4113 6.55874 35.3752 6.68955 35.3476 6.8437C35.3356 6.91159 35.3285 6.97593 35.3229 7.03745C35.2805 7.04664 35.2359 7.05442 35.2013 7.06079C35.0669 7.08554 34.9403 7.10958 34.8519 7.13857L34.8223 7.15059C34.3407 7.36484 33.8436 7.53031 33.3628 7.69082L33.2928 7.7184C32.7865 7.92134 32.481 8.04367 32.0433 7.95599ZM32.5793 10.824C32.5595 10.8212 32.4612 10.8049 32.4485 10.7703C32.3629 10.5391 32.7971 9.74144 33.3797 9.05837C33.6513 8.78967 33.9603 8.60441 34.2884 8.40854C34.3853 8.34985 34.4828 8.29187 34.5698 8.23742C34.6851 8.17095 34.8053 8.096 34.9269 8.01892C35.0881 7.9178 35.2522 7.81527 35.4063 7.73466C35.4551 7.86265 35.518 7.96518 35.5796 8.04296C35.6199 8.09529 35.6708 8.14974 35.733 8.20348C35.7252 8.21974 35.7175 8.23459 35.709 8.25085C35.4254 8.7225 35.0874 9.22808 34.8329 9.48193L34.8145 9.50244C34.2325 10.1905 33.4533 10.9605 32.5793 10.824ZM36.9705 11.1281C36.8439 12.1902 36.6409 13.3187 35.8667 13.2501C35.4339 13.2141 35.2239 12.8874 34.992 12.3083C34.8074 11.7991 34.8979 11.4887 35.0506 10.9796C35.2423 10.4542 35.4169 10.1636 35.7054 9.68417L35.7705 9.57527C35.8603 9.45011 35.9642 9.23869 36.1212 8.91342C36.1693 8.8123 36.2301 8.68785 36.286 8.57683C36.3022 8.54996 36.3178 8.5238 36.3326 8.49905C36.4422 8.52592 36.5617 8.54713 36.6982 8.55633C36.7095 8.55633 36.7208 8.55633 36.7322 8.55703C36.834 9.02514 36.9627 9.94651 37.0108 10.7173C37.0072 10.7738 37.0072 10.8318 37.0009 10.887C36.991 10.9598 36.9811 11.0404 36.9705 11.1281ZM39.3456 12.5289L39.3336 12.543C39.0677 12.8669 38.7771 12.9694 38.4695 12.8471C38.0233 12.6696 37.6472 12.0763 37.6811 11.6026C37.6981 11.3621 37.6938 11.0602 37.6747 10.7356C37.6981 10.2859 37.6528 9.81003 37.6026 9.35678C37.5913 9.19697 37.4958 8.81725 37.3933 8.44248C37.4619 8.41137 37.5262 8.3746 37.5878 8.33359C37.6853 8.45521 37.79 8.58885 37.8961 8.72886C37.9717 8.83422 38.0495 8.93887 38.1294 9.04211C38.4398 9.4685 38.7234 9.8963 38.8323 10.141L38.8436 10.1629C39.4984 11.3812 39.6674 12.1774 39.3456 12.5289ZM42.2455 8.81513C42.1317 9.31647 41.8813 9.68841 41.5214 9.89135C41.165 10.0922 40.7238 10.1141 40.2408 9.95287C39.6462 9.76478 39.0932 9.20899 38.6307 8.60653C38.5756 8.53228 38.5211 8.45874 38.4667 8.38662C38.3154 8.17661 38.174 7.96589 38.0474 7.76719C38.1096 7.62223 38.1485 7.46455 38.1633 7.29625C40.0768 7.0127 41.4733 7.16685 42.0143 7.72689C42.2639 7.98569 42.3395 8.34419 42.2455 8.81513Z" fill="#D5D7CC"/>
</g>
<path d="M48.8909 18.7055C48.9263 18.6914 48.9623 18.6786 48.9963 18.6631L49.0182 18.6525C49.9502 18.1554 51.0568 17.3896 51.0356 16.5707C51.0243 16.1599 50.7485 15.8247 50.2047 15.5709C49.224 15.1579 48.1053 15.3397 46.969 16.0977C46.6996 16.278 46.4613 16.4724 46.24 16.6726C46.2987 16.3742 46.339 16.0623 46.3764 15.7611C46.6062 14.2684 46.2859 13.3831 45.4261 13.1299C44.9778 12.9977 44.5061 13.0946 44.096 13.4029C43.6717 13.7225 43.3592 14.2465 43.2673 14.7513C42.9392 14.3462 42.5043 13.9827 42.0312 13.8194C41.5794 13.6638 41.1403 13.702 40.7591 13.9304C40.2274 14.2069 40.0379 14.9154 40.0379 15.4896L40.0393 15.5228C40.1001 16.1302 40.3915 16.517 40.7005 16.9264L40.769 17.0176C40.9529 17.2538 41.129 17.432 41.3093 17.577C41.2442 17.5805 41.1799 17.584 41.1177 17.5883C40.4501 17.6364 38.2729 17.9001 38.2729 19.2988L38.2744 19.332C38.343 20.0172 38.8252 20.5313 39.5323 20.6727C39.6744 20.701 39.8081 20.7137 39.9361 20.7137C40.1631 20.7137 40.3717 20.6734 40.5774 20.6119C40.5583 20.6303 40.5399 20.6472 40.5209 20.6656L40.5039 20.684C40.1857 21.0552 39.1696 22.3245 39.4468 23.0684C39.5026 23.2183 39.6617 23.4799 40.0966 23.545C40.2012 23.5619 40.3031 23.5697 40.4042 23.5697C41.0095 23.569 41.5525 23.2883 42.0164 22.9192C41.8594 23.4446 41.7392 23.9141 41.9924 24.6113C42.1727 25.061 42.5078 25.8996 43.4292 25.9767C43.4773 25.9817 43.5232 25.9831 43.5685 25.9831C44.3286 25.9831 44.7303 25.4103 44.9559 24.7499C45.1751 25.0985 45.4897 25.3884 45.844 25.5291C46.0087 25.5949 46.1749 25.6274 46.3383 25.6274C46.747 25.6274 47.1387 25.4245 47.459 25.0356C48.0282 24.4041 47.7511 23.3979 47.3515 22.5267C47.4512 22.5741 47.5524 22.6165 47.6556 22.6491C47.9314 22.7417 48.2057 22.7869 48.4695 22.7869C48.8287 22.7869 49.1681 22.7021 49.4651 22.5345C49.9848 22.2418 50.3561 21.7072 50.5116 21.0199C50.6509 20.3213 50.5159 19.7541 50.1093 19.3327C49.8073 19.0216 49.3824 18.8236 48.8909 18.7055ZM43.7184 19.7011C43.5996 19.5498 43.5657 19.3221 43.618 19.0244C43.6965 18.5761 43.7785 18.5379 44.3866 18.4128C44.8109 18.3852 45.0831 18.7896 45.1157 19.0145C45.1581 19.3115 45.0973 19.5809 44.9481 19.752C44.8279 19.8913 44.6511 19.9649 44.4368 19.9649C44.4128 19.9649 44.3887 19.9635 44.3619 19.962C44.0543 19.9415 43.8379 19.8531 43.7184 19.7011ZM47.336 16.6485C48.292 16.0107 49.1702 15.8537 49.936 16.1762C50.1333 16.2688 50.3688 16.4145 50.3737 16.5884C50.3829 16.9299 49.702 17.5345 48.717 18.0627C48.1209 18.3251 47.3565 18.4354 46.6176 18.5429C46.3029 18.5881 46.001 18.632 45.7118 18.6864C45.6693 18.5676 45.6085 18.4509 45.5314 18.342C45.6311 18.1844 45.8892 17.934 45.9981 17.828C46.042 17.7856 46.083 17.746 46.1183 17.7106C46.5037 17.3259 46.8679 16.9618 47.336 16.6485ZM44.4934 13.9325C44.6624 13.8059 44.9283 13.673 45.2394 13.7656C45.7379 13.912 45.8956 14.5321 45.7209 15.672C45.6686 16.0927 45.6142 16.5283 45.5152 16.8755C45.4374 17.1103 45.3144 17.3217 45.1842 17.5451C45.1206 17.654 45.057 17.765 44.9969 17.8803C44.7953 17.7813 44.5627 17.7297 44.3096 17.7544L44.2975 17.7566C44.2643 17.4674 44.2007 17.1385 44.1349 16.7949C44.0253 16.2278 43.9008 15.585 43.8987 15.0469C43.8966 14.6615 44.1469 14.1934 44.4934 13.9325ZM41.2287 16.5269C40.9487 16.1557 40.745 15.8863 40.6998 15.4726C40.7026 15.0957 40.8185 14.641 41.0682 14.5159L41.0929 14.5024C41.3086 14.3709 41.5447 14.3525 41.8156 14.4452C42.4011 14.6474 42.9526 15.3064 43.1485 15.829C43.3769 16.4229 43.5169 17.1796 43.6286 17.9305C43.4759 17.8768 43.3083 17.8004 43.1449 17.7269C42.8989 17.6158 42.6443 17.5013 42.4025 17.4377C41.8792 17.2262 41.6176 17.0304 41.2951 16.6153L41.2287 16.5269ZM39.6617 20.0228C39.2445 19.9394 38.9808 19.67 38.9348 19.2832C38.956 18.5917 40.3427 18.3074 41.1643 18.2487C41.6996 18.2105 42.3827 18.2119 43.0749 18.5132C43.0297 18.6256 42.9929 18.7557 42.966 18.9106C42.954 18.9784 42.9469 19.0421 42.9413 19.1043C42.8982 19.1128 42.8536 19.1213 42.8197 19.1276C42.6846 19.1524 42.558 19.1757 42.4697 19.2054L42.4407 19.2167C41.9584 19.431 41.4613 19.5972 40.9812 19.7577L40.9105 19.7853C40.4042 19.9875 40.0987 20.1098 39.6617 20.0228ZM40.197 22.8902C40.1779 22.8874 40.0796 22.8711 40.0669 22.8364C39.9806 22.6059 40.4148 21.8076 40.9974 21.1252C41.269 20.8558 41.5787 20.6706 41.9061 20.4747C42.0037 20.4167 42.1012 20.358 42.1875 20.3036C42.3028 20.2378 42.423 20.1622 42.5453 20.0858C42.7058 19.9847 42.8699 19.8821 43.0247 19.8008C43.0735 19.9295 43.1357 20.0313 43.1973 20.1098C43.2383 20.1614 43.2892 20.2166 43.3514 20.2703C43.3429 20.2859 43.3352 20.3015 43.3267 20.3177C43.0438 20.7894 42.7051 21.2942 42.4513 21.5488L42.4329 21.5686C41.8509 22.2566 41.071 23.0267 40.197 22.8902ZM44.5889 23.1942C44.4616 24.257 44.2593 25.3856 43.4851 25.317C43.0516 25.2802 42.8416 24.9542 42.6104 24.3744C42.4251 23.8653 42.5156 23.5556 42.6683 23.0465C42.86 22.5204 43.0346 22.2304 43.3231 21.7503L43.3889 21.6421C43.478 21.5163 43.5819 21.3055 43.7389 20.9796C43.787 20.8792 43.8478 20.7547 43.9037 20.6437C43.9199 20.6161 43.9355 20.5907 43.9503 20.5652C44.0599 20.5928 44.1794 20.614 44.3159 20.6225C44.3272 20.6232 44.3385 20.6232 44.3499 20.6239C44.451 21.092 44.5797 22.0134 44.6285 22.7834C44.6249 22.8407 44.6242 22.8987 44.6186 22.9538C44.6087 23.0259 44.5995 23.1073 44.5889 23.1942ZM46.964 24.595L46.952 24.6092C46.6869 24.9337 46.3955 25.0356 46.0872 24.9132C45.6417 24.7357 45.2656 24.1425 45.2995 23.6687C45.3165 23.4283 45.3122 23.1264 45.2931 22.8011C45.3165 22.3521 45.2712 21.8762 45.221 21.4229C45.2097 21.2631 45.1142 20.8827 45.0117 20.5086C45.0796 20.4775 45.1446 20.4408 45.2055 20.399C45.3037 20.5207 45.4084 20.655 45.5145 20.795C45.5901 20.9004 45.6679 21.005 45.7478 21.1083C46.0575 21.5339 46.3418 21.9625 46.4507 22.2064L46.4613 22.229C47.1168 23.4474 47.2858 24.2436 46.964 24.595ZM49.8639 20.8813C49.7501 21.3826 49.499 21.7546 49.1398 21.9575C48.7834 22.1583 48.3422 22.1802 47.8592 22.019C47.2646 21.8309 46.7116 21.2751 46.2492 20.6727C46.194 20.5984 46.1396 20.5249 46.0851 20.4528C45.9338 20.2428 45.7924 20.032 45.6658 19.8333C45.7273 19.6884 45.7669 19.5307 45.7818 19.3631C47.6945 19.0796 49.091 19.233 49.632 19.793C49.8823 20.0518 49.9572 20.4111 49.8639 20.8813Z" fill="#D5D7CC"/>
<path d="M24.3357 7.57929C24.3704 7.56444 24.4071 7.55171 24.4411 7.53616L24.463 7.52626C25.395 7.02845 26.5016 6.26336 26.4797 5.44452C26.4691 5.03298 26.1933 4.69852 25.6488 4.44467C24.6681 4.03101 23.5494 4.21344 22.4138 4.97147C22.1437 5.15107 21.9054 5.34623 21.6848 5.54635C21.7435 5.24795 21.7838 4.93611 21.8212 4.63488C22.0503 3.14217 21.7307 2.25616 20.8702 2.00302C20.4219 1.87149 19.9502 1.96837 19.5408 2.27667C19.1165 2.59557 18.8033 3.11954 18.7121 3.62513C18.384 3.21995 17.9491 2.85579 17.4753 2.69245C17.0242 2.53688 16.5844 2.57578 16.2039 2.80417C15.6722 3.07995 15.4827 3.78847 15.4827 4.36335L15.4841 4.39658C15.5449 5.00329 15.8363 5.39008 16.1446 5.79949L16.2138 5.89142C16.397 6.12759 16.5731 6.30508 16.7541 6.45074C16.6883 6.45357 16.624 6.45711 16.5617 6.46205C15.8942 6.50943 13.717 6.77389 13.717 8.17256L13.7185 8.20508C13.787 8.89098 14.2693 9.40434 14.9764 9.54576C15.1185 9.57476 15.2522 9.58748 15.3802 9.58748C15.6071 9.58748 15.8157 9.54718 16.0215 9.48566C16.0031 9.50334 15.984 9.52031 15.9657 9.53869L15.948 9.55708C15.6298 9.92831 14.6144 11.1976 14.8908 11.9415C14.9467 12.0914 15.1058 12.353 15.5414 12.4188C15.6453 12.435 15.7479 12.4428 15.8483 12.4428C16.4536 12.4428 16.9966 12.1614 17.4605 11.7923C17.3035 12.3183 17.1833 12.7879 17.4364 13.4844C17.6168 13.9348 17.9519 14.7734 18.8733 14.8505C18.9214 14.8548 18.9673 14.8562 19.0126 14.8562C19.772 14.8562 20.1744 14.2834 20.3992 13.623C20.6191 13.9716 20.9338 14.2615 21.2874 14.4022C21.4528 14.468 21.619 14.4998 21.7823 14.4998C22.1911 14.4998 22.5828 14.2975 22.9031 13.9086C23.4723 13.2772 23.1944 12.271 22.7956 11.3998C22.8953 11.4472 22.9957 11.4896 23.0997 11.5221C23.3755 11.6141 23.6498 11.66 23.9136 11.66C24.2728 11.66 24.6122 11.5752 24.9092 11.4076C25.4289 11.1148 25.7994 10.5803 25.9557 9.89296C26.095 9.19433 25.9592 8.62723 25.5527 8.20579C25.2521 7.89537 24.8272 7.69738 24.3357 7.57929ZM19.1625 8.57419C19.0437 8.42287 19.0105 8.19518 19.0621 7.8982C19.1406 7.44918 19.2233 7.411 19.8307 7.28655C20.255 7.25826 20.5279 7.66344 20.5597 7.88759C20.6022 8.18528 20.5414 8.45469 20.3929 8.62581C20.272 8.76441 20.0952 8.83795 19.8809 8.83795C19.8569 8.83795 19.8328 8.83724 19.806 8.83512C19.4984 8.81461 19.282 8.72693 19.1625 8.57419ZM22.7808 5.5223C23.7361 4.88449 24.615 4.72751 25.3808 5.04996C25.5781 5.14188 25.8136 5.28825 25.8185 5.4622C25.8277 5.80373 25.1468 6.40831 24.1618 6.93582C23.5657 7.19886 22.802 7.30917 22.0624 7.41595C21.7477 7.4612 21.4465 7.50575 21.1566 7.5602C21.1141 7.4414 21.0533 7.32473 20.9762 7.21583C21.0759 7.05815 21.334 6.80712 21.4436 6.70177C21.4868 6.65934 21.5278 6.61974 21.5631 6.58368C21.9478 6.19901 22.312 5.83485 22.7808 5.5223ZM19.9382 2.80559C20.1065 2.67901 20.3731 2.54678 20.6835 2.63871C21.182 2.78579 21.3404 3.40522 21.165 4.54508C21.1127 4.96652 21.0583 5.40139 20.9593 5.74929C20.8815 5.98405 20.7584 6.19477 20.6283 6.41821C20.5647 6.52711 20.5011 6.63813 20.4417 6.75338C20.2394 6.65439 20.0075 6.60348 19.7536 6.62823L19.7423 6.62964C19.7084 6.34043 19.6455 6.01163 19.579 5.66868C19.4694 5.10157 19.3456 4.45881 19.3428 3.91999C19.3414 3.53532 19.5917 3.06651 19.9382 2.80559ZM16.6728 5.40068C16.3935 5.02945 16.1898 4.75933 16.1438 4.34638C16.1474 3.96949 16.2633 3.51482 16.513 3.38966L16.537 3.37622C16.7527 3.24399 16.9888 3.22561 17.2597 3.31895C17.8452 3.52118 18.3967 4.18021 18.5926 4.70276C18.821 5.29674 18.961 6.05335 19.0734 6.8043C18.9207 6.74985 18.7524 6.67419 18.589 6.60065C18.343 6.48963 18.0891 6.37508 17.8466 6.31144C17.324 6.09931 17.0624 5.90414 16.7399 5.48907L16.6728 5.40068ZM15.1058 8.89664C14.6886 8.81249 14.4249 8.54379 14.3796 8.15629C14.4001 7.46545 15.7868 7.18119 16.6091 7.1225C17.1444 7.08431 17.8275 7.08502 18.5197 7.38625C18.4745 7.49868 18.4377 7.62949 18.4101 7.78364C18.3988 7.85153 18.3917 7.91587 18.3861 7.9781C18.343 7.98659 18.2991 7.99436 18.2638 8.00073C18.1294 8.02618 18.0028 8.04952 17.9144 8.07851L17.8848 8.09053C17.4032 8.30479 16.9061 8.47025 16.4253 8.63076L16.3553 8.65834C15.849 8.86128 15.5435 8.98361 15.1058 8.89664ZM15.6418 11.764C15.622 11.7611 15.5237 11.7449 15.511 11.7102C15.4254 11.4797 15.8596 10.6814 16.4422 9.99902C16.7131 9.72961 17.0228 9.54435 17.3509 9.34848C17.4478 9.2905 17.5453 9.23181 17.6316 9.17736C17.7476 9.1116 17.8671 9.03594 17.9894 8.95957C18.1506 8.85845 18.314 8.75521 18.4688 8.6746C18.5176 8.8033 18.5805 8.90512 18.6414 8.98361C18.6824 9.03523 18.7333 9.09039 18.7955 9.14413C18.7877 9.15968 18.7792 9.17524 18.7708 9.1915C18.4879 9.66314 18.1499 10.168 17.8954 10.4226L17.877 10.4424C17.2957 11.1304 16.5151 11.8997 15.6418 11.764ZM20.0337 12.068C19.9064 13.1301 19.7041 14.2587 18.9292 14.1901C18.4964 14.154 18.2864 13.828 18.0545 13.2482C17.8699 12.7384 17.9604 12.4287 18.1131 11.9195C18.3048 11.3942 18.4794 11.1035 18.7679 10.6241L18.833 10.5152C18.9228 10.3901 19.0267 10.1793 19.1837 9.85336C19.2318 9.75224 19.2919 9.62779 19.3485 9.51677C19.3647 9.4899 19.3803 9.46374 19.3951 9.43899C19.5047 9.46586 19.6242 9.48707 19.7607 9.49627C19.772 9.49697 19.7833 9.49697 19.7947 9.49768C19.8958 9.96579 20.0245 10.8872 20.0733 11.6572C20.0697 11.7138 20.069 11.7725 20.0634 11.8269C20.0535 11.8997 20.0436 11.9811 20.0337 12.068ZM22.4081 13.4688L22.3961 13.483C22.1309 13.8068 21.8396 13.9093 21.532 13.7863C21.0858 13.6095 20.7104 13.0163 20.7443 12.5425C20.7613 12.3021 20.7563 12.0001 20.7379 11.6749C20.7606 11.2259 20.716 10.75 20.6658 10.2967C20.6538 10.1369 20.559 9.75648 20.4558 9.38242C20.5244 9.35131 20.5887 9.31454 20.6503 9.27282C20.7478 9.39444 20.8525 9.52879 20.9593 9.6688C21.0342 9.77416 21.112 9.87881 21.1919 9.98205C21.5023 10.4077 21.7866 10.8355 21.8948 11.0802L21.9061 11.1028C22.5609 12.3212 22.7306 13.1174 22.4081 13.4688ZM25.308 9.75507C25.1942 10.2564 24.9438 10.6284 24.5846 10.8306C24.2282 11.0314 23.787 11.0533 23.3033 10.8921C22.7087 10.7047 22.1564 10.1489 21.6932 9.54647C21.6388 9.47152 21.5836 9.39798 21.5292 9.32656C21.3779 9.11655 21.2372 8.90583 21.1099 8.70642C21.1721 8.56217 21.211 8.40449 21.2258 8.2362C23.1393 7.95335 24.5358 8.10679 25.0768 8.66683C25.3271 8.92563 25.402 9.28413 25.308 9.75507Z" fill="#D5D7CC"/>
<path d="M7.52929 8.00188C7.56465 7.98703 7.6 7.97289 7.63607 7.95875L7.65728 7.94814C8.58925 7.45104 9.69517 6.68595 9.67466 5.86711C9.66335 5.45487 9.38758 5.1197 8.8424 4.86655C7.86234 4.45289 6.74369 4.63533 5.60807 5.39264C5.33796 5.57295 5.10107 5.76741 4.87763 5.96894C4.93632 5.66912 4.97804 5.35729 5.01481 5.05606C5.24462 3.56335 4.9243 2.67875 4.06586 2.42561C3.68473 2.31318 3.28521 2.36692 2.92176 2.57693L3.21026 3.00332C3.11268 3.0712 2.24647 3.94307 1.54077 4.65937C1.64613 4.81705 1.73169 4.97686 1.78685 5.12535C2.01454 5.71933 2.15596 6.47523 2.26768 7.22618C2.21606 7.20779 2.16444 7.18658 2.10929 7.16537C2.28394 7.36831 2.46072 7.58256 2.62972 7.80389C2.7273 7.77136 2.856 7.74308 3.025 7.70772C3.44926 7.68085 3.72221 8.08532 3.75403 8.31018C3.79716 8.60787 3.73635 8.87728 3.58644 9.0484C3.56169 9.07669 3.53694 9.10214 3.50654 9.12336C3.61685 9.31569 3.72716 9.50803 3.83605 9.69895C3.83959 9.69753 3.84171 9.69541 3.84525 9.694C3.94283 9.81703 4.04819 9.95068 4.15355 10.0914C4.22991 10.1968 4.30628 10.3007 4.38689 10.4039C4.69661 10.8303 4.98157 11.2581 5.09047 11.5021L5.10107 11.5254C5.75657 12.7431 5.92415 13.5386 5.60383 13.89L5.5911 13.9041C5.54302 13.9628 5.49493 14.0144 5.44544 14.059C5.43978 14.3341 5.4023 14.6035 5.32593 14.8708C5.60736 14.7887 5.869 14.607 6.09739 14.3305C6.66732 13.6991 6.38943 12.6936 5.99062 11.821C6.09032 11.8698 6.19002 11.9122 6.29468 11.944C6.56974 12.0367 6.84339 12.0819 7.10715 12.0819C7.46707 12.0819 7.80577 11.9978 8.10347 11.8302C8.6239 11.5374 8.99442 11.0029 9.14928 10.3141C9.29 9.61692 9.15494 9.0484 8.74694 8.62767C8.44641 8.31725 8.02073 8.11926 7.52929 8.00188ZM3.82262 6.8408C3.75898 6.9497 3.69463 7.06001 3.63594 7.17597C3.43441 7.07627 3.20107 7.02607 2.94792 7.0494L2.93519 7.05082C2.90196 6.76232 2.83903 6.43422 2.77327 6.08985C2.66296 5.52275 2.53992 4.88069 2.53638 4.34258C2.53426 3.95721 2.78599 3.48839 3.13177 3.22747C3.30077 3.1009 3.56594 2.96937 3.87777 3.05988C4.37699 3.20626 4.53397 3.8271 4.35931 4.96625C4.3077 5.38699 4.25183 5.82257 4.15425 6.17046C4.07576 6.40593 3.95273 6.61594 3.82262 6.8408ZM4.63721 7.12436C4.68176 7.08122 4.72065 7.04233 4.75671 7.00627C5.14138 6.62089 5.50625 6.25744 5.97506 5.94348C6.93037 5.30708 7.8086 5.1501 8.5744 5.47113C8.77239 5.56376 9.00715 5.71013 9.01281 5.88267C9.022 6.22562 8.34105 6.8302 7.35605 7.3577C6.75925 7.62004 5.99415 7.73035 5.25664 7.83712C4.94127 7.88379 4.64074 7.92834 4.35012 7.98208C4.30699 7.86258 4.24618 7.74661 4.16981 7.63772C4.27022 7.47933 4.52831 7.22972 4.63721 7.12436ZM8.50157 10.177C8.38772 10.6783 8.13811 11.0509 7.77819 11.2525C7.42181 11.454 6.98057 11.4752 6.49762 11.3147C5.90223 11.1259 5.34998 10.5708 4.88682 9.96835C4.83308 9.8934 4.77792 9.82057 4.72277 9.74703C4.57145 9.53843 4.43073 9.32842 4.30416 9.12831C4.36639 8.98406 4.40528 8.82566 4.42013 8.65808C6.33357 8.37453 7.73011 8.52797 8.27034 9.08942C8.52137 9.34751 8.59632 9.70672 8.50157 10.177Z" fill="#D5D7CC"/>
<path d="M31.9534 19.6455C31.9888 19.6313 32.0249 19.6186 32.0595 19.6031L32.0807 19.5924C33.0134 19.0946 34.12 18.3295 34.0981 17.5114C34.0875 17.0999 33.8117 16.7654 33.2673 16.5116C32.2865 16.0979 31.1678 16.2796 30.0322 17.0377C29.7621 17.218 29.5245 17.4124 29.3032 17.6132C29.3612 17.3141 29.4022 17.003 29.4397 16.7011C29.6688 15.2084 29.3492 14.3231 28.4886 14.0699C28.041 13.9384 27.5687 14.0353 27.1592 14.3436C26.735 14.6625 26.4217 15.1857 26.3305 15.6913C26.0024 15.2868 25.5675 14.9227 25.0938 14.7593C24.6426 14.6038 24.2028 14.642 23.8224 14.8711C23.2906 15.1468 23.1004 15.8554 23.1004 16.4302L23.1025 16.4628C23.1634 17.0702 23.4547 17.457 23.763 17.8664L23.8323 17.9583C24.0154 18.1938 24.1915 18.372 24.3725 18.5169C24.3068 18.5205 24.2424 18.524 24.1809 18.5289C23.5134 18.5763 21.3362 18.8408 21.3362 20.2387L21.3376 20.272C21.4062 20.9572 21.8877 21.4712 22.5948 21.6127C22.737 21.6417 22.8706 21.6537 22.9993 21.6537C23.2263 21.6537 23.4342 21.6141 23.6399 21.5526C23.6216 21.5702 23.6025 21.5872 23.5841 21.6056L23.5671 21.624C23.2489 21.9952 22.2328 23.2652 22.5093 24.0083C22.5651 24.1583 22.7242 24.4199 23.1598 24.4856C23.2638 24.5019 23.3663 24.5097 23.4667 24.5097C24.072 24.5097 24.6151 24.2283 25.0789 23.8591C24.9226 24.3852 24.8017 24.8541 25.0556 25.5513C25.2352 26.0017 25.5704 26.8403 26.4924 26.9174C26.5398 26.9216 26.5865 26.9238 26.631 26.9238C27.3912 26.9238 27.7928 26.3503 28.0184 25.6899C28.2376 26.0392 28.553 26.3284 28.9065 26.4691C29.072 26.5349 29.2374 26.5674 29.4008 26.5674C29.8095 26.5674 30.2012 26.3644 30.5215 25.9762C31.0908 25.3448 30.8136 24.3379 30.4141 23.4667C30.5138 23.5141 30.6142 23.5565 30.7181 23.5897C30.9939 23.6817 31.2683 23.7269 31.532 23.7269C31.8912 23.7269 32.2306 23.6428 32.5276 23.4752C33.0473 23.1824 33.4179 22.6472 33.5741 21.9599C33.7134 21.2612 33.5784 20.6941 33.1711 20.2734C32.8706 19.9616 32.4449 19.7636 31.9534 19.6455ZM26.7809 20.6404C26.6621 20.4898 26.6282 20.2621 26.6805 19.9644C26.759 19.5161 26.841 19.4779 27.4492 19.3527C27.8734 19.3252 28.1457 19.7296 28.1782 19.9545C28.2206 20.2515 28.1598 20.5209 28.0106 20.692C27.8904 20.8313 27.7136 20.9041 27.4987 20.9041C27.4753 20.9041 27.4506 20.9034 27.4244 20.902C27.1168 20.8815 26.9004 20.7931 26.7809 20.6404ZM30.3985 17.5885C31.3545 16.9507 32.2328 16.7944 32.9986 17.1168C33.1958 17.2088 33.4313 17.3544 33.4363 17.5284C33.4455 17.8699 32.7645 18.4752 31.7795 19.0027C31.1834 19.2651 30.4197 19.3754 29.6808 19.4828C29.3654 19.5281 29.0642 19.5726 28.7743 19.6271C28.7319 19.5083 28.671 19.3916 28.594 19.2827C28.6937 19.125 28.9518 18.874 29.0614 18.768C29.1045 18.7255 29.1455 18.6866 29.1809 18.6506C29.5662 18.2652 29.9297 17.9017 30.3985 17.5885ZM27.5566 14.8725C27.7249 14.7459 27.9915 14.613 28.3019 14.7049C28.8004 14.852 28.9588 15.4721 28.7835 16.612C28.7311 17.0327 28.6767 17.4683 28.5777 17.8155C28.4999 18.0502 28.3769 18.2617 28.2468 18.4851C28.1831 18.5933 28.1195 18.705 28.0594 18.8196C27.8579 18.7206 27.6252 18.6697 27.3721 18.6944L27.3608 18.6958C27.3268 18.4073 27.2639 18.0778 27.1974 17.7349C27.0878 17.1678 26.9641 16.525 26.9612 15.9869C26.9591 15.6015 27.2094 15.1334 27.5566 14.8725ZM24.2912 17.4669C24.0119 17.0963 23.8082 16.8262 23.7623 16.4133C23.7658 16.0357 23.8811 15.5817 24.1307 15.4566L24.1554 15.4424C24.3711 15.3109 24.6073 15.2918 24.8781 15.3851C25.4636 15.5874 26.0151 16.2464 26.211 16.7697C26.4394 17.3636 26.5794 18.1195 26.6911 18.8712C26.5384 18.8167 26.3708 18.7411 26.2075 18.6668C25.9614 18.5558 25.7075 18.4413 25.465 18.3776C24.9417 18.1662 24.6801 17.971 24.3577 17.5553L24.2912 17.4669ZM22.7242 20.9628C22.307 20.8794 22.0433 20.61 21.9973 20.2232C22.0185 19.5316 23.4052 19.2481 24.2268 19.1894C24.7621 19.1505 25.4452 19.1512 26.1375 19.4531C26.0922 19.5656 26.0554 19.6957 26.0286 19.8505C26.0165 19.9184 26.0095 19.9821 26.0038 20.0443C25.9614 20.0528 25.9168 20.0606 25.8822 20.0676C25.7478 20.0924 25.6206 20.1157 25.5329 20.1454L25.5032 20.1567C25.0209 20.371 24.5245 20.5371 24.0437 20.697L23.973 20.7252C23.4667 20.9282 23.1612 21.0498 22.7242 20.9628ZM23.2595 23.8309C23.2404 23.8273 23.1421 23.8111 23.1294 23.7764C23.0431 23.5459 23.478 22.7476 24.06 22.0652C24.3315 21.7965 24.6412 21.6112 24.9693 21.4147C25.0662 21.3567 25.1638 21.298 25.25 21.2443C25.3653 21.1778 25.4855 21.1028 25.6078 21.0258C25.7684 20.9246 25.9324 20.8221 26.0873 20.7408C26.136 20.8695 26.199 20.972 26.2605 21.0498C26.3008 21.1021 26.3517 21.1566 26.4139 21.2103C26.4062 21.2259 26.3977 21.2414 26.3892 21.2577C26.1063 21.73 25.7684 22.2342 25.5138 22.4888L25.4954 22.5093C24.9135 23.1966 24.1335 23.9666 23.2595 23.8309ZM27.6514 24.1342C27.5241 25.197 27.3219 26.3256 26.5476 26.257C26.1141 26.2209 25.9048 25.8942 25.6729 25.3144C25.4876 24.8053 25.5788 24.4955 25.7309 23.9864C25.9232 23.4603 26.0979 23.1697 26.3857 22.6903L26.4514 22.5814C26.5405 22.4562 26.6445 22.2455 26.8014 21.9195C26.8502 21.8191 26.9103 21.6947 26.9662 21.5837C26.9832 21.5561 26.998 21.5306 27.0129 21.5052C27.1225 21.5328 27.242 21.5533 27.3784 21.5625C27.3898 21.5632 27.4011 21.5632 27.4124 21.5639C27.5142 22.032 27.6429 22.9526 27.691 23.7234C27.6874 23.78 27.6867 23.8379 27.6811 23.8931C27.6712 23.9659 27.662 24.0472 27.6514 24.1342ZM30.0266 25.535L30.0146 25.5491C29.7487 25.8737 29.4581 25.9755 29.1505 25.8532C28.7036 25.6757 28.3281 25.0832 28.362 24.6094C28.379 24.369 28.3748 24.067 28.3557 23.7418C28.379 23.292 28.3337 22.8169 28.2835 22.3629C28.2722 22.2038 28.1768 21.8234 28.0742 21.4486C28.1421 21.4182 28.2072 21.3814 28.2687 21.3397C28.3663 21.4613 28.4709 21.5957 28.577 21.7357C28.6527 21.8411 28.7304 21.9457 28.8103 22.0489C29.1201 22.4746 29.4043 22.9024 29.5132 23.1471L29.5245 23.1697C30.1793 24.3874 30.3483 25.1836 30.0266 25.535ZM32.9264 21.8213C32.8119 22.3226 32.5623 22.6952 32.2024 22.8975C31.846 23.0983 31.4047 23.1202 30.9218 22.959C30.3271 22.7709 29.7741 22.2158 29.3117 21.6134C29.2565 21.5384 29.2021 21.4649 29.1476 21.3927C28.9956 21.1834 28.8549 20.9727 28.7283 20.7733C28.7898 20.6284 28.8287 20.4707 28.8443 20.3031C30.757 20.0195 32.1536 20.1737 32.6945 20.7337C32.9448 20.9918 33.0198 21.351 32.9264 21.8213Z" fill="#D5D7CC"/>
<path d="M15.1478 20.0674C15.1831 20.0532 15.2192 20.0405 15.2538 20.0249L15.275 20.0143C16.207 19.5165 17.3136 18.7514 17.2924 17.9333C17.2811 17.5218 17.0053 17.1873 16.4616 16.9334C15.4808 16.5198 14.3614 16.7015 13.2258 17.4595C12.9557 17.6398 12.7181 17.8343 12.4968 18.0351C12.5555 17.736 12.5958 17.4249 12.634 17.1229C12.8631 15.6302 12.5435 14.7449 11.6829 14.4918C11.2346 14.3603 10.763 14.4571 10.3528 14.7654C9.92857 15.0843 9.61603 15.6076 9.52411 16.1132C9.19671 15.7087 8.76113 15.3446 8.28808 15.1812C7.83623 15.0257 7.39712 15.0638 7.01599 15.2929C6.48424 15.5687 6.29473 16.2772 6.29473 16.8514L6.29615 16.8846C6.35696 17.4921 6.64829 17.8788 6.9573 18.2883L7.02659 18.3802C7.20973 18.6157 7.3858 18.7938 7.56612 18.9388C7.50106 18.9423 7.43672 18.9459 7.37449 18.9501C6.70698 18.9982 4.52979 19.2627 4.52979 20.6606L4.5312 20.6939C4.59979 21.379 5.08133 21.8931 5.78844 22.0345C5.93128 22.0628 6.06492 22.0755 6.19291 22.0755C6.41989 22.0755 6.62849 22.0352 6.83426 21.9744C6.81517 21.9921 6.79607 22.0091 6.77769 22.0275L6.76072 22.0458C6.44252 22.4171 5.4264 23.6871 5.70359 24.4302C5.75945 24.5801 5.91855 24.8418 6.35342 24.9075C6.45737 24.9238 6.5599 24.9316 6.66102 24.9316C7.2663 24.9316 7.80936 24.6501 8.27323 24.281C8.11625 24.8071 7.99604 25.2759 8.24919 25.9731C8.42879 26.4236 8.76396 27.2622 9.68603 27.3393C9.73341 27.3435 9.78008 27.3456 9.82534 27.3456C10.5848 27.3456 10.9864 26.7722 11.212 26.1117C11.4312 26.461 11.7466 26.7503 12.1001 26.891C12.2656 26.9567 12.431 26.9893 12.5944 26.9893C13.0031 26.9893 13.3948 26.7863 13.7152 26.3981C14.2844 25.766 14.0065 24.7597 13.6077 23.8886C13.7074 23.936 13.8078 23.9784 13.9117 24.0116C14.1875 24.1035 14.4619 24.1488 14.7256 24.1488C15.0841 24.1488 15.4242 24.0646 15.7212 23.8971C16.2409 23.6043 16.6115 23.069 16.7677 22.3824C16.907 21.6838 16.772 21.116 16.3647 20.6953C16.0642 20.3834 15.6392 20.1854 15.1478 20.0674ZM9.97524 21.0623C9.85645 20.9116 9.82251 20.684 9.87483 20.3863C9.95332 19.9372 10.0353 19.8998 10.6435 19.7746C11.0677 19.747 11.34 20.1515 11.3725 20.3764C11.4149 20.6733 11.3541 20.9428 11.2056 21.1139C11.0847 21.2532 10.9079 21.326 10.693 21.326C10.6696 21.326 10.6449 21.3253 10.6187 21.3239C10.3111 21.3034 10.0947 21.215 9.97524 21.0623ZM13.5928 18.0104C14.5481 17.3726 15.4271 17.2163 16.1929 17.538C16.3901 17.6299 16.6256 17.7763 16.6306 17.9503C16.6398 18.2911 15.9588 18.8964 14.9738 19.4239C14.3777 19.6869 13.614 19.7972 12.8744 19.904C12.5597 19.95 12.2578 19.9938 11.9686 20.0483C11.9262 19.9295 11.8653 19.8128 11.7883 19.7039C11.888 19.5462 12.1454 19.2959 12.255 19.1898C12.2988 19.1474 12.3391 19.1078 12.3752 19.0724C12.7606 18.6871 13.124 18.3236 13.5928 18.0104ZM10.7509 15.2944C10.9192 15.1671 11.1851 15.0348 11.4962 15.1268C11.9948 15.2738 12.1531 15.8933 11.9778 17.0331C11.9247 17.4546 11.871 17.8902 11.772 18.2374C11.6935 18.4721 11.5705 18.6835 11.4411 18.907C11.3774 19.0152 11.3138 19.1269 11.2537 19.2414C11.0522 19.1425 10.8202 19.0915 10.5664 19.1163L10.5551 19.1177C10.5211 18.8285 10.4582 18.4997 10.3917 18.1567C10.2821 17.5896 10.1584 16.9469 10.1556 16.4088C10.1534 16.0234 10.4038 15.5553 10.7509 15.2944ZM7.48551 17.8887C7.20549 17.5182 7.00255 17.2481 6.95659 16.8344C6.96012 16.4576 7.07538 16.0029 7.32499 15.8784L7.34974 15.8643C7.56541 15.7328 7.80159 15.7137 8.07241 15.807C8.6579 16.0092 9.20944 16.6683 9.40531 17.1915C9.63371 17.7855 9.77372 18.5414 9.88544 19.2931C9.7327 19.2386 9.56512 19.1623 9.40178 19.0887C9.1557 18.9777 8.90185 18.8631 8.65931 18.7995C8.13676 18.5881 7.87512 18.3929 7.55198 17.9771L7.48551 17.8887ZM5.91855 21.3847C5.50135 21.3013 5.2369 21.0319 5.19164 20.6451C5.21285 19.9535 6.5995 19.67 7.42116 19.6113C7.95644 19.5724 8.63951 19.5731 9.33177 19.875C9.28652 19.9874 9.24975 20.1176 9.22288 20.2724C9.21086 20.3396 9.20379 20.4039 9.19813 20.4662C9.1557 20.4746 9.11115 20.4824 9.07651 20.4895C8.94215 20.5142 8.81487 20.5376 8.72649 20.5673L8.69679 20.5786C8.21525 20.7928 7.71815 20.9583 7.23802 21.1188L7.16731 21.1464C6.66102 21.3501 6.35554 21.4717 5.91855 21.3847ZM6.45383 24.2527C6.43474 24.2492 6.33645 24.2329 6.32372 24.1983C6.23746 23.9678 6.67162 23.1694 7.25428 22.4871C7.52581 22.2184 7.83553 22.0331 8.16363 21.8365C8.2605 21.7786 8.35808 21.7199 8.44506 21.6661C8.55961 21.5997 8.67982 21.5247 8.80215 21.4476C8.96337 21.3465 9.12671 21.244 9.28157 21.1627C9.33036 21.2914 9.39329 21.3939 9.45481 21.4717C9.49512 21.524 9.54603 21.5784 9.60825 21.6322C9.60047 21.6477 9.59199 21.6633 9.58421 21.6796C9.30066 22.1512 8.96266 22.6561 8.7081 22.9106L8.68972 22.9312C8.10776 23.6185 7.32782 24.3885 6.45383 24.2527ZM10.8457 24.5561C10.7184 25.6189 10.5162 26.7474 9.7419 26.6788C9.30844 26.6428 9.09913 26.3161 8.8672 25.7363C8.68194 25.2271 8.77316 24.9174 8.92518 24.4083C9.11681 23.8822 9.29217 23.5916 9.57997 23.1122L9.64573 23.0033C9.73483 22.8781 9.83877 22.6674 9.99575 22.3414C10.0445 22.241 10.1046 22.1166 10.1605 22.0048C10.1775 21.978 10.1923 21.9525 10.2072 21.9271C10.3168 21.9546 10.4363 21.9751 10.5728 21.9843C10.5841 21.985 10.5954 21.985 10.6067 21.9857C10.7085 22.4539 10.8372 23.3745 10.8853 24.1453C10.8818 24.2018 10.8811 24.2605 10.8754 24.315C10.8655 24.3878 10.8556 24.4691 10.8457 24.5561ZM13.2209 25.9569L13.2082 25.971C12.943 26.2956 12.6524 26.3974 12.3441 26.2751C11.8979 26.0976 11.5224 25.505 11.5563 25.0313C11.5733 24.7901 11.5691 24.4889 11.55 24.1636C11.5733 23.7139 11.5281 23.2387 11.4779 22.7848C11.4665 22.625 11.3711 22.2453 11.2685 21.8705C11.3364 21.8401 11.4008 21.8026 11.4623 21.7616C11.5606 21.8832 11.6652 22.0176 11.7713 22.1576C11.8463 22.2629 11.9247 22.3669 12.0039 22.4701C12.3144 22.8965 12.5986 23.3243 12.7068 23.569L12.7181 23.5916C13.3736 24.8092 13.5426 25.6054 13.2209 25.9569ZM16.12 22.2431C16.0062 22.7445 15.7559 23.1171 15.3967 23.3194C15.0403 23.5202 14.599 23.5421 14.1154 23.3809C13.5214 23.1928 12.9684 22.6377 12.5053 22.0352C12.4508 21.9603 12.3957 21.8867 12.3419 21.8146C12.1899 21.6046 12.0492 21.3946 11.9219 21.1952C11.9841 21.0502 12.023 20.8926 12.0379 20.725C13.9513 20.4414 15.3479 20.5956 15.8888 21.1556C16.1391 21.4137 16.2141 21.7722 16.12 22.2431Z" fill="#D5D7CC"/>
<mask id="mask2_968_3903" style="mask-type:luminance" maskUnits="userSpaceOnUse" x="82" y="0" width="13" height="13">
<path d="M82.2695 0.87793H94.5789V12.9801H82.2695V0.87793Z" fill="white"/>
</mask>
<g mask="url(#mask2_968_3903)">
<path d="M93.9709 7.35976C93.9688 7.47007 93.9568 7.58603 93.9313 7.71119C93.8175 8.21395 93.5679 8.58447 93.2079 8.78812C92.8516 8.98823 92.4117 9.01086 91.9274 8.84893C91.3334 8.66155 90.7797 8.10505 90.318 7.50401C90.2628 7.42906 90.2077 7.3541 90.1539 7.28268C90.0012 7.07267 89.8605 6.86266 89.7339 6.66396C89.7961 6.51971 89.835 6.36132 89.8499 6.19373C91.5865 5.93705 92.8982 6.03888 93.5311 6.48082C93.4187 6.20222 93.3345 5.9222 93.2864 5.63158C93.1818 5.5941 93.0708 5.56228 92.959 5.53541C92.9944 5.52127 93.0319 5.50854 93.0658 5.49299L93.087 5.48379C93.1422 5.45339 93.1973 5.42298 93.2546 5.39116C93.2299 5.14155 93.2299 4.88487 93.2617 4.61688C93.1139 4.71163 92.9534 4.80285 92.7858 4.89336C92.189 5.1557 91.4267 5.266 90.6871 5.37349C90.3717 5.41803 90.0705 5.46258 89.7806 5.51774C89.7396 5.39823 89.6766 5.28227 89.6003 5.17337C89.7 5.01498 89.9581 4.76537 90.067 4.65789C90.1115 4.61546 90.1525 4.57657 90.1879 4.54051C90.5725 4.15513 90.9367 3.79168 91.4048 3.47914C92.2767 2.89648 93.0835 2.71616 93.7998 2.93395C93.8981 2.76425 94.019 2.57686 94.176 2.36544C93.2171 2.00128 92.1353 2.19573 91.0385 2.9283C90.767 3.10861 90.5301 3.30307 90.3095 3.50318C90.3682 3.20548 90.4071 2.89294 90.4453 2.59171C90.5556 1.87824 90.5393 1.30406 90.3986 0.870605H89.6731C89.8725 1.17749 89.91 1.71631 89.7891 2.50262C89.7374 2.92335 89.6823 3.35822 89.584 3.70612C89.5055 3.94159 89.3832 4.15231 89.2524 4.37505C89.1887 4.48394 89.1265 4.59637 89.0657 4.71022C88.8642 4.61193 88.6308 4.56031 88.3777 4.58506L88.3671 4.58718C88.3331 4.29868 88.2695 3.96846 88.2037 3.62622C88.0948 3.05911 87.9704 2.41493 87.9683 1.87824C87.9668 1.54165 88.157 1.14001 88.4385 0.871313H87.6083C87.4747 1.09547 87.3799 1.34013 87.3354 1.58267C87.1148 1.31184 86.8475 1.0587 86.5519 0.871313H84.6632C84.2566 1.19234 84.1074 1.81106 84.1074 2.32089V2.35342C84.1697 2.96082 84.4596 3.34832 84.7679 3.75632L84.8379 3.84895C85.021 4.08442 85.1971 4.26261 85.3774 4.40687C85.3131 4.41111 85.2473 4.41394 85.1851 4.41959C84.519 4.46626 82.3411 4.73214 82.3411 6.13009L82.3432 6.16191C82.4111 6.84852 82.8933 7.36188 83.6011 7.5033C83.7433 7.53159 83.8776 7.54431 84.0035 7.54431C84.2319 7.54431 84.4398 7.50472 84.6448 7.44249C84.6272 7.46017 84.6081 7.47785 84.5897 7.49552L84.572 7.51532C84.2552 7.88656 83.2377 9.15582 83.5156 9.8997C83.5707 10.0496 83.7291 10.3119 84.1661 10.3763C84.2694 10.394 84.3705 10.401 84.4723 10.401C85.0776 10.401 85.6214 10.1189 86.0845 9.74979C85.9282 10.2759 85.8066 10.7447 86.0598 11.4419C86.2401 11.8916 86.5745 12.7317 87.4973 12.808C87.5454 12.8116 87.5921 12.8137 87.6366 12.8137C88.3953 12.8137 88.7984 12.2409 89.0226 11.5812C89.2439 11.9291 89.5571 12.2197 89.9121 12.3604C90.0776 12.4269 90.243 12.4587 90.405 12.4587C90.8151 12.4587 91.2068 12.2558 91.5257 11.8669C92.0964 11.2354 91.8185 10.2278 91.419 9.35735C91.5187 9.40614 91.6205 9.44715 91.7237 9.48038C91.9995 9.5716 92.2724 9.61827 92.5376 9.61827C92.8961 9.61827 93.2348 9.53412 93.5318 9.36654C93.9681 9.11834 94.2997 8.70327 94.4871 8.17011C94.2983 7.89292 94.1258 7.62493 93.9709 7.35976ZM85.3633 3.44519L85.2975 3.35822C85.0175 2.98699 84.8145 2.71616 84.7679 2.30392C84.7714 1.92632 84.8874 1.47094 85.137 1.34649L85.1617 1.33235C85.3774 1.20224 85.6122 1.18244 85.8837 1.27507C86.4692 1.47872 87.02 2.13633 87.218 2.65889C87.4457 3.25428 87.585 4.01088 87.6967 4.76113C87.544 4.70597 87.3764 4.63102 87.2123 4.55819C86.9663 4.44576 86.7131 4.33191 86.4713 4.26756C85.9473 4.05685 85.6857 3.86098 85.3633 3.44519ZM83.7291 6.85347C83.3126 6.76932 83.0489 6.49991 83.0043 6.11312C83.0241 5.42157 84.4115 5.13802 85.2331 5.07862C85.767 5.04114 86.4515 5.04114 87.1431 5.34308C87.0985 5.4548 87.061 5.58562 87.0342 5.74048C87.0214 5.80836 87.0151 5.87271 87.0094 5.93493C86.9663 5.94342 86.9224 5.95119 86.8885 5.95827C86.7527 5.98301 86.6262 6.00635 86.5392 6.03675L86.5088 6.04736C86.0279 6.26091 85.5308 6.42708 85.0493 6.58759L84.98 6.61588C84.4723 6.8174 84.1675 6.94044 83.7291 6.85347ZM86.5017 8.39921C85.919 9.08723 85.1384 9.85586 84.2658 9.7208C84.246 9.71656 84.1477 9.701 84.1357 9.66706C84.0502 9.43513 84.4829 8.63821 85.0656 7.95515C85.3385 7.68574 85.6468 7.50047 85.9742 7.3039C86.0725 7.24733 86.1708 7.18864 86.2556 7.1349C86.3716 7.06914 86.4911 6.99206 86.6141 6.91569C86.7746 6.81599 86.938 6.71275 87.0928 6.63214C87.1416 6.76013 87.2053 6.86195 87.2661 6.94044C87.3064 6.99206 87.3566 7.04722 87.4195 7.10096C87.4118 7.11651 87.4033 7.13136 87.3962 7.14692C87.1126 7.61927 86.7746 8.12414 86.5194 8.37941L86.5017 8.39921ZM88.6881 9.78303C88.6775 9.85586 88.6683 9.93788 88.6577 10.0234C88.5311 11.0862 88.3282 12.2155 87.5532 12.1476C87.1197 12.1101 86.9097 11.7834 86.6785 11.2043C86.4946 10.6966 86.5837 10.3862 86.7372 9.87566C86.9295 9.35169 87.1042 9.06107 87.3927 8.58094L87.457 8.47275C87.5482 8.34759 87.6508 8.13546 87.8077 7.8109C87.8558 7.70907 87.9166 7.58462 87.9718 7.4736C87.9895 7.44744 88.0036 7.42057 88.0199 7.39582C88.1288 7.42198 88.2483 7.4439 88.3847 7.45239C88.3961 7.45451 88.4067 7.45451 88.4187 7.45451C88.5205 7.92333 88.6485 8.84328 88.6966 9.61403C88.693 9.6706 88.693 9.72929 88.6881 9.78303ZM89.0176 6.58194C88.896 6.72124 88.7199 6.79407 88.5042 6.79407C88.4809 6.79407 88.4562 6.79407 88.4293 6.79266C88.1231 6.77144 87.906 6.68376 87.7865 6.53032C87.6684 6.38041 87.6345 6.15201 87.6868 5.85432C87.7646 5.40672 87.8473 5.36783 88.4547 5.24267C88.8804 5.2158 89.1512 5.62097 89.1831 5.84371C89.2262 6.14141 89.1654 6.41082 89.0176 6.58194ZM91.0329 11.4256L91.0201 11.4398C90.755 11.7643 90.4644 11.8655 90.1561 11.7431C89.7106 11.5664 89.3344 10.9724 89.3683 10.4993C89.3846 10.2589 89.3811 9.95768 89.3613 9.6317C89.3846 9.18198 89.34 8.70751 89.2905 8.25284C89.2778 8.09445 89.1831 7.71473 89.0798 7.33784C89.1491 7.30743 89.2142 7.27208 89.2743 7.22894C89.3719 7.35057 89.4772 7.48562 89.584 7.62493C89.659 7.73028 89.7353 7.83564 89.8159 7.93888C90.1256 8.36527 90.4106 8.79307 90.5195 9.03702L90.5301 9.05895C91.1856 10.2787 91.3553 11.0742 91.0329 11.4256Z" fill="#D5D7CC"/>
</g>
<path d="M94.2967 23.2715C94.1107 22.7617 94.2019 22.4534 94.3554 21.9429C94.3695 21.904 94.3836 21.8665 94.3964 21.8304C94.1595 21.5688 93.9063 21.276 93.6617 20.9656C93.154 21.4719 92.5452 21.8912 91.884 21.788C91.8642 21.7845 91.7666 21.7682 91.7539 21.7328C91.6662 21.5023 92.1011 20.7054 92.6838 20.0223C92.7446 19.9622 92.8089 19.905 92.8725 19.8533C92.8301 19.7819 92.7891 19.7105 92.7481 19.6391C92.5897 19.3612 92.4306 19.0826 92.2743 18.8082C91.9427 18.9313 91.6846 18.9885 91.3473 18.9207C90.9301 18.8365 90.6671 18.5671 90.6204 18.1803C90.6317 17.8133 91.027 17.5616 91.5184 17.3975C91.4209 17.1939 91.3261 16.9931 91.2405 16.793C90.5695 17.0341 89.96 17.4548 89.96 18.1945L89.9614 18.2284C90.0293 18.9136 90.5108 19.427 91.2179 19.5698C91.36 19.5981 91.4937 19.6108 91.6224 19.6108C91.8501 19.6108 92.0587 19.5698 92.2637 19.509C92.2439 19.5267 92.2263 19.5429 92.2065 19.5627L92.1902 19.5804C91.8713 19.953 90.8559 21.2209 91.1324 21.9648C91.1896 22.1147 91.3473 22.3763 91.7822 22.4428C91.8875 22.4583 91.9894 22.4661 92.0905 22.4661C92.6944 22.4661 93.2381 22.1861 93.7013 21.8163C93.5464 22.341 93.4248 22.8112 93.6779 23.507C93.7762 23.7545 93.9226 24.1172 94.1864 24.4093C94.3426 24.2509 94.501 24.0896 94.6509 23.9369C94.5194 23.7778 94.4105 23.5572 94.2967 23.2715Z" fill="#D5D7CC"/>
<path d="M76.5855 7.45331C76.6209 7.43846 76.6569 7.42574 76.6916 7.41018L76.7128 7.39957C77.6455 6.90247 78.7521 6.13738 78.7302 5.31855C78.7189 4.90701 78.4431 4.57254 77.8993 4.31869C76.9185 3.90503 75.7999 4.08676 74.6643 4.84478C74.3942 5.0251 74.1559 5.21955 73.9345 5.42037C73.9932 5.12126 74.0342 4.81013 74.0717 4.5082C74.3008 3.01549 73.9812 2.13018 73.1207 1.87704C72.6731 1.74552 72.2007 1.84239 71.7906 2.15069C71.3663 2.4696 71.0538 2.99357 70.9619 3.49915C70.6345 3.09398 70.1989 2.72981 69.7258 2.56647C69.274 2.41091 68.8349 2.4498 68.4537 2.6782C67.9227 2.95397 67.7325 3.66249 67.7325 4.23737L67.7339 4.27061C67.7947 4.87731 68.0867 5.2641 68.395 5.67352L68.4643 5.76544C68.6475 6.00162 68.8235 6.1791 69.0046 6.32476C68.9388 6.32759 68.8745 6.33113 68.8122 6.33608C68.1447 6.38346 65.9675 6.64791 65.9675 8.04587L65.9697 8.07911C66.0375 8.765 66.5198 9.27837 67.2269 9.41979C67.3697 9.44878 67.5034 9.46151 67.6314 9.46151C67.8583 9.46151 68.0662 9.42049 68.272 9.35968C68.2536 9.37807 68.2345 9.39433 68.2161 9.41272L68.1985 9.43181C67.8803 9.80304 66.8649 11.0716 67.1413 11.8155C67.1972 11.9661 67.3563 12.2277 67.7912 12.2928C67.8958 12.309 67.9976 12.3168 68.0988 12.3168C68.704 12.3168 69.2471 12.0354 69.711 11.6663C69.554 12.1924 69.4338 12.6619 69.6869 13.3584C69.8672 13.8088 70.2024 14.6475 71.1238 14.7245C71.1719 14.7288 71.2178 14.7309 71.2631 14.7309C72.0232 14.7309 72.4249 14.1574 72.6497 13.4977C72.8696 13.8463 73.1843 14.1355 73.5379 14.2769C73.7033 14.342 73.8688 14.3745 74.0328 14.3745C74.4415 14.3745 74.8333 14.1716 75.1536 13.7834C75.7228 13.1512 75.4456 12.145 75.0454 11.2745C75.1458 11.3212 75.2462 11.3636 75.3502 11.3969C75.626 11.4888 75.9003 11.534 76.1641 11.534C76.5226 11.534 76.862 11.4499 77.1597 11.2823C77.6787 10.9896 78.0499 10.4543 78.2062 9.76769C78.3455 9.06906 78.2097 8.50125 77.8031 8.08052C77.5026 7.76939 77.0769 7.57069 76.5855 7.45331ZM71.413 8.44822C71.2942 8.2969 71.2603 8.06921 71.3126 7.77151C71.3911 7.3232 71.4731 7.28502 72.0812 7.15986C72.5055 7.13229 72.7777 7.53746 72.8102 7.76161C72.8527 8.05931 72.7919 8.32801 72.6427 8.49984C72.5224 8.63843 72.3457 8.71197 72.1314 8.71197C72.1074 8.71197 72.0826 8.71056 72.0565 8.70914C71.7489 8.68864 71.5325 8.60095 71.413 8.44822ZM75.0313 5.39562C75.9866 4.75781 76.8648 4.60154 77.6306 4.92327C77.8279 5.0159 78.0634 5.16157 78.0683 5.33622C78.0775 5.67705 77.3966 6.28234 76.4116 6.80984C75.8155 7.07218 75.0518 7.1832 74.3128 7.28997C73.9975 7.33523 73.6962 7.37977 73.4063 7.43351C73.3639 7.31472 73.3031 7.19805 73.226 7.08915C73.3257 6.93147 73.5838 6.68115 73.6934 6.57508C73.7366 6.53266 73.7776 6.49376 73.8129 6.4577C74.1983 6.07233 74.5625 5.70887 75.0313 5.39562ZM72.1887 2.67961C72.357 2.55304 72.6229 2.4201 72.934 2.51273C73.4325 2.6591 73.5902 3.27924 73.4155 4.4191C73.3632 4.83983 73.3088 5.27541 73.2098 5.6226C73.1313 5.85807 73.0082 6.06879 72.8788 6.29224C72.8152 6.40113 72.7515 6.51215 72.6914 6.62741C72.4899 6.52841 72.2573 6.4775 72.0034 6.50225L71.9921 6.50366C71.9589 6.21446 71.8952 5.88565 71.8288 5.5427C71.7199 4.9756 71.5954 4.33283 71.5926 3.79402C71.5912 3.40864 71.8422 2.94053 72.1887 2.67961ZM68.9233 5.27471C68.6432 4.90347 68.4403 4.63336 68.3943 4.2204C68.3979 3.84351 68.5131 3.38813 68.7627 3.26368L68.7875 3.24954C69.0032 3.11802 69.2393 3.09963 69.5102 3.19226C70.0956 3.3945 70.6472 4.05353 70.8431 4.57679C71.0715 5.17076 71.2115 5.92666 71.3232 6.67832C71.1704 6.62317 71.0029 6.5475 70.8395 6.47397C70.5934 6.36295 70.3389 6.2484 70.0971 6.18476C69.5738 5.97333 69.3122 5.77746 68.9897 5.36239L68.9233 5.27471ZM67.3563 8.76995C66.9391 8.68651 66.6753 8.4171 66.6294 8.03032C66.6506 7.33876 68.0372 7.05521 68.8596 6.99652C69.3942 6.95763 70.0773 6.95904 70.7695 7.26027C70.7243 7.3727 70.6875 7.50281 70.6606 7.65767C70.6486 7.72555 70.6415 7.7899 70.6359 7.85142C70.5934 7.86061 70.5489 7.86839 70.5142 7.87475C70.3799 7.8995 70.2533 7.92283 70.1642 7.95253L70.1352 7.96455C69.6537 8.1781 69.1566 8.34427 68.6758 8.50479L68.6051 8.53236C68.0995 8.7353 67.7933 8.85763 67.3563 8.76995ZM67.8916 11.638C67.8725 11.6352 67.7742 11.6182 67.7615 11.5835C67.6752 11.353 68.1101 10.5554 68.692 9.87234C68.9636 9.60364 69.2733 9.41837 69.6014 9.2218C69.6982 9.16381 69.7958 9.10512 69.8821 9.05138C69.9974 8.98491 70.1176 8.90996 70.2399 8.83289C70.4004 8.73177 70.5645 8.62924 70.7193 8.54863C70.7674 8.67661 70.8303 8.77915 70.8918 8.85693C70.9329 8.90925 70.9838 8.9637 71.046 9.01744C71.0375 9.033 71.0297 9.04855 71.0212 9.06482C70.7377 9.53646 70.3997 10.0413 70.1458 10.2959L70.1268 10.3164C69.5462 11.0037 68.7656 11.7738 67.8916 11.638ZM72.2834 11.9413C72.1562 13.0041 71.9539 14.1327 71.1796 14.0641C70.7462 14.028 70.5369 13.7013 70.3049 13.1215C70.1197 12.6124 70.2109 12.3027 70.3636 11.7936C70.5553 11.2682 70.7299 10.9776 71.0184 10.4974L71.0835 10.3892C71.1733 10.2634 71.2772 10.0527 71.4335 9.72667C71.4823 9.62626 71.5424 9.50181 71.599 9.3908C71.6152 9.36393 71.6301 9.33776 71.6449 9.31301C71.7552 9.33988 71.8747 9.3611 72.0112 9.37029C72.0225 9.37029 72.0331 9.37029 72.0444 9.371C72.1463 9.8391 72.275 10.7605 72.323 11.5312C72.3195 11.5878 72.3188 11.6458 72.3131 11.7009C72.3032 11.7738 72.294 11.8544 72.2834 11.9413ZM74.6586 13.3421L74.6459 13.3563C74.3814 13.6808 74.0901 13.7834 73.7818 13.6603C73.3363 13.4836 72.9601 12.8903 72.9941 12.4165C73.0111 12.1761 73.0068 11.8742 72.9877 11.5489C73.0111 11.0992 72.9658 10.624 72.9156 10.17C72.9043 10.0109 72.8088 9.63051 72.7063 9.25574C72.7742 9.22533 72.8392 9.18786 72.9007 9.14684C72.9983 9.26847 73.103 9.40211 73.2098 9.54212C73.2847 9.64818 73.3625 9.75213 73.4424 9.85537C73.7528 10.2818 74.0371 10.7096 74.1453 10.9542L74.1566 10.9768C74.8114 12.1952 74.9804 12.9907 74.6586 13.3421ZM77.5585 9.62839C77.4439 10.1297 77.1943 10.5017 76.8344 10.7046C76.478 10.9054 76.0368 10.9273 75.5538 10.7661C74.9591 10.5787 74.4062 10.023 73.9437 9.42049C73.8886 9.34554 73.8341 9.272 73.7797 9.19988C73.6277 8.99057 73.4869 8.77985 73.3604 8.58115C73.4219 8.4362 73.4615 8.2778 73.4763 8.11022C75.3891 7.82667 76.7856 7.98011 77.3266 8.54014C77.5769 8.79965 77.6518 9.15816 77.5585 9.62839Z" fill="#D5D7CC"/>
<path d="M84.2042 19.5195C84.2395 19.5053 84.2756 19.4919 84.3102 19.477L84.3314 19.4664C85.2634 18.9686 86.3707 18.2035 86.3488 17.3847C86.3375 16.9732 86.0617 16.6387 85.518 16.3848C84.5372 15.9719 83.4178 16.1536 82.2822 16.9116C82.0128 17.092 81.7745 17.2864 81.5539 17.4865C81.6126 17.1881 81.6529 16.8763 81.6904 16.5751C81.9195 15.0823 81.5992 14.197 80.7393 13.9439C80.291 13.8117 79.8194 13.9085 79.4092 14.2168C78.985 14.5365 78.6724 15.0597 78.5805 15.5653C78.2524 15.1601 77.8175 14.7967 77.3445 14.6333C76.8926 14.4778 76.4535 14.516 76.0724 14.7444C75.5406 15.0201 75.3511 15.7294 75.3511 16.3035L75.3525 16.3368C75.4134 16.9442 75.7054 17.331 76.0137 17.7404L76.083 17.8316C76.2661 18.0678 76.4422 18.246 76.6225 18.3909C76.5575 18.3945 76.4931 18.398 76.4309 18.4022C75.7641 18.4496 73.5862 18.7141 73.5862 20.1127L73.5883 20.1453C73.6569 20.8312 74.1384 21.3445 74.8455 21.4859C74.9877 21.5149 75.1213 21.5277 75.2493 21.5277C75.4763 21.5277 75.6849 21.4874 75.8907 21.4258C75.8716 21.4435 75.8525 21.4605 75.8341 21.4796L75.8171 21.498C75.4989 21.8692 74.4835 23.1385 74.76 23.8816C74.8158 24.0322 74.9749 24.2939 75.4098 24.3589C75.5145 24.3759 75.6163 24.3837 75.7174 24.3837C76.3227 24.383 76.8658 24.1023 77.3296 23.7331C77.1726 24.2585 77.0517 24.728 77.3056 25.4245C77.4859 25.875 77.8204 26.7136 78.7424 26.7907C78.7898 26.7949 78.8365 26.7971 78.8817 26.7971C79.6412 26.7971 80.0428 26.2236 80.2684 25.5638C80.4876 25.9125 80.803 26.2024 81.1565 26.3431C81.322 26.4088 81.4874 26.4407 81.6515 26.4407C82.0595 26.4407 82.4519 26.2384 82.7723 25.8495C83.3415 25.2181 83.0636 24.2119 82.6641 23.3407C82.7638 23.3881 82.8649 23.4305 82.9688 23.463C83.2446 23.5549 83.5183 23.6009 83.7827 23.6009C84.1412 23.6009 84.4806 23.5161 84.7783 23.3485C85.2973 23.0557 85.6686 22.5212 85.8241 21.8338C85.9642 21.1352 85.8284 20.5674 85.4218 20.1467C85.1206 19.8355 84.6956 19.6376 84.2042 19.5195ZM79.0309 20.5144C78.9121 20.3631 78.8789 20.1354 78.9305 19.8384C79.0097 19.3894 79.0917 19.3519 79.6999 19.226C80.1241 19.1984 80.3964 19.6036 80.4282 19.8278C80.4706 20.1255 80.4098 20.3949 80.2613 20.566C80.1411 20.7046 79.9643 20.7781 79.7494 20.7781C79.7253 20.7781 79.7013 20.7774 79.6751 20.7753C79.3675 20.7548 79.1511 20.6671 79.0309 20.5144ZM82.6492 17.4625C83.6045 16.8247 84.4835 16.6677 85.2493 16.9901C85.4458 17.0821 85.682 17.2284 85.687 17.4024C85.6962 17.7432 85.0152 18.3485 84.0302 18.876C83.4341 19.1383 82.6697 19.2494 81.9308 19.3561C81.6161 19.4021 81.3142 19.4459 81.025 19.5004C80.9826 19.3816 80.9217 19.2649 80.8447 19.156C80.9437 18.9983 81.2018 18.7473 81.3114 18.6419C81.3552 18.5995 81.3955 18.5599 81.4316 18.5246C81.8169 18.1392 82.1804 17.775 82.6492 17.4625ZM79.8073 14.7465C79.9756 14.6192 80.2415 14.487 80.5526 14.5789C81.0511 14.7253 81.2088 15.3454 81.0342 16.4853C80.9811 16.906 80.9267 17.3416 80.8277 17.6888C80.7499 17.9242 80.6269 18.1349 80.4968 18.3584C80.4338 18.4673 80.3695 18.579 80.3101 18.6936C80.1079 18.5946 79.8759 18.5437 79.6221 18.5684L79.6108 18.5698C79.5768 18.2806 79.5139 17.9518 79.4474 17.6089C79.3378 17.0418 79.2141 16.399 79.2112 15.8602C79.2098 15.4755 79.4601 15.0074 79.8073 14.7465ZM76.5419 17.3409C76.2619 16.9696 76.0582 16.6995 76.013 16.2866C76.0158 15.9097 76.1318 15.455 76.3814 15.3298L76.4054 15.3164C76.6211 15.1842 76.858 15.1658 77.1281 15.2591C77.7136 15.4614 78.2658 16.1197 78.4617 16.6429C78.6894 17.2369 78.8294 17.9935 78.9418 18.7445C78.7891 18.69 78.6215 18.6144 78.4575 18.5408C78.2114 18.4291 77.9575 18.3153 77.715 18.2509C77.1924 18.0395 76.9308 17.8443 76.6084 17.4292L76.5419 17.3409ZM74.9742 20.8368C74.557 20.7527 74.2933 20.484 74.248 20.0965C74.2685 19.4049 75.6559 19.1214 76.4776 19.0627C77.0128 19.0245 77.6959 19.0252 78.3882 19.3271C78.3429 19.4389 78.3061 19.5697 78.2786 19.7238C78.2665 19.7917 78.2602 19.8561 78.2545 19.9183C78.2121 19.9261 78.1676 19.9345 78.1329 19.9409C77.9986 19.9664 77.8713 19.9897 77.7829 20.0187L77.7532 20.0307C77.2716 20.245 76.7745 20.4111 76.2944 20.5709L76.2237 20.5985C75.7174 20.8015 75.4119 20.9238 74.9742 20.8368ZM75.5102 23.7041C75.4904 23.7013 75.3921 23.6851 75.3794 23.6504C75.2939 23.4192 75.728 22.6216 76.3107 21.9385C76.5822 21.6698 76.8912 21.4845 77.2193 21.2887C77.3162 21.2307 77.4138 21.172 77.5007 21.1175C77.616 21.0518 77.7362 20.9761 77.8578 20.899C78.0191 20.7986 78.1831 20.6954 78.3373 20.6148C78.3868 20.7428 78.449 20.8453 78.5105 20.9238C78.5508 20.9754 78.6024 21.0299 78.6646 21.0843C78.6562 21.0999 78.6484 21.1147 78.6399 21.131C78.3563 21.6033 78.0184 22.1075 77.7645 22.3621L77.7454 22.3826C77.1642 23.0706 76.3842 23.8399 75.5102 23.7041ZM79.9021 24.0075C79.7748 25.0703 79.5726 26.1988 78.7983 26.1302C78.3648 26.0942 78.1548 25.7682 77.9236 25.1884C77.7383 24.6793 77.8296 24.3688 77.9816 23.8597C78.1732 23.3343 78.3486 23.0437 78.6364 22.5643L78.7021 22.4554C78.7912 22.3302 78.8952 22.1188 79.0521 21.7935C79.1002 21.6924 79.161 21.568 79.2169 21.457C79.2332 21.4301 79.2487 21.4039 79.2636 21.3792C79.3732 21.406 79.4927 21.4273 79.6291 21.4364C79.6405 21.4372 79.6518 21.4364 79.6631 21.4372C79.7642 21.906 79.8929 22.8266 79.9417 23.5974C79.9382 23.6539 79.9374 23.7119 79.9311 23.7671C79.9219 23.8399 79.912 23.9205 79.9021 24.0075ZM82.2773 25.409L82.2645 25.4231C81.9994 25.747 81.7088 25.8495 81.4005 25.7265C80.9543 25.5497 80.5788 24.9564 80.6127 24.4827C80.6297 24.2423 80.6248 23.9403 80.6064 23.6151C80.6297 23.166 80.5845 22.6902 80.5342 22.2369C80.5229 22.0771 80.4275 21.6974 80.3249 21.3226C80.3928 21.2915 80.4579 21.2547 80.5187 21.213C80.617 21.3346 80.7216 21.469 80.8277 21.609C80.9027 21.715 80.9811 21.819 81.061 21.9222C81.3708 22.3479 81.655 22.7764 81.7632 23.0211L81.7745 23.043C82.43 24.2614 82.599 25.0576 82.2773 25.409ZM85.1764 21.6945C85.0626 22.1959 84.8123 22.5685 84.4531 22.7708C84.0967 22.9716 83.6554 22.9935 83.1718 22.833C82.5778 22.6449 82.0248 22.0891 81.5624 21.4866C81.5072 21.4117 81.4521 21.3382 81.3983 21.2667C81.2463 21.0567 81.1056 20.846 80.9783 20.6466C81.0405 20.5024 81.0794 20.344 81.095 20.1764C83.0077 19.8928 84.4043 20.0463 84.9452 20.6063C85.1955 20.8658 85.2705 21.2243 85.1764 21.6945Z" fill="#D5D7CC"/>
<path d="M59.2161 6.89837C59.2508 6.88423 59.2875 6.8708 59.3215 6.85595L59.3434 6.84534C60.2754 6.34753 61.382 5.58244 61.3608 4.76361C61.3495 4.35207 61.0737 4.01761 60.5292 3.76375C59.5492 3.3508 58.4298 3.53182 57.2942 4.29055C57.0241 4.47086 56.7865 4.66532 56.5652 4.86543C56.6238 4.56632 56.6642 4.25519 56.7016 3.95397C56.9314 2.46126 56.6111 1.57525 55.7513 1.32281C55.303 1.19058 54.8306 1.28745 54.4212 1.59575C53.9969 1.91537 53.6844 2.43863 53.5925 2.94421C53.2644 2.53904 52.8295 2.17558 52.3557 2.01224C51.9046 1.85668 51.4648 1.89486 51.0843 2.12326C50.5526 2.39903 50.3631 3.10826 50.3631 3.68244L50.3645 3.71567C50.4253 4.32308 50.7166 4.70987 51.0257 5.11928L51.0942 5.2105C51.2781 5.44668 51.4535 5.62487 51.6345 5.76983C51.5687 5.77336 51.5051 5.7769 51.4429 5.78114C50.7753 5.82922 48.5981 6.09297 48.5981 7.49164L48.6003 7.52487C48.6681 8.21006 49.1497 8.72413 49.8575 8.86556C49.9996 8.89384 50.1333 8.90657 50.2613 8.90657C50.4883 8.90657 50.6968 8.86626 50.9026 8.80474C50.8835 8.82313 50.8651 8.8401 50.846 8.85848L50.8291 8.87687C50.5109 9.2481 49.4948 10.5174 49.7719 11.2605C49.8278 11.4112 49.9869 11.6728 50.4218 11.7378C50.5257 11.7548 50.6283 11.7626 50.7287 11.7626C51.334 11.7626 51.8777 11.4812 52.3409 11.112C52.1846 11.6374 52.0637 12.107 52.3175 12.8042C52.4972 13.2546 52.8323 14.0925 53.7544 14.1696C53.8025 14.1745 53.8484 14.176 53.8937 14.176C54.6531 14.176 55.0548 13.6032 55.2803 12.9428C55.4995 13.2914 55.8149 13.5813 56.1685 13.722C56.3339 13.7878 56.4994 13.8203 56.6627 13.8203C57.0714 13.8203 57.4632 13.6173 57.7835 13.2284C58.3534 12.597 58.0755 11.5908 57.676 10.7196C57.7757 10.767 57.8768 10.8094 57.9801 10.8419C58.2559 10.9339 58.5302 10.9798 58.794 10.9798C59.1525 10.9798 59.4926 10.895 59.7903 10.7274C60.3093 10.4346 60.6805 9.89935 60.8361 9.21275C60.9754 8.51412 60.8403 7.94631 60.4338 7.52558C60.1325 7.21445 59.7076 7.01646 59.2161 6.89837ZM54.0429 7.89328C53.9241 7.74196 53.8902 7.51427 53.9425 7.21728C54.021 6.76827 54.1037 6.73079 54.7118 6.60492C55.1354 6.57735 55.4083 6.98252 55.4401 7.20738C55.4826 7.50437 55.4218 7.77378 55.2733 7.9449C55.1531 8.0842 54.9756 8.15703 54.7613 8.15703C54.7373 8.15703 54.7125 8.15632 54.6864 8.15491C54.3795 8.1337 54.1624 8.04601 54.0429 7.89328ZM57.6612 4.84139C58.6165 4.20358 59.4954 4.0466 60.2612 4.36904C60.4585 4.46096 60.694 4.60734 60.6982 4.78128C60.7074 5.12211 60.0272 5.7274 59.0422 6.2549C58.4461 6.51724 57.6817 6.62826 56.9428 6.73503C56.6281 6.78029 56.3262 6.82483 56.0369 6.87928C55.9945 6.75978 55.9337 6.64381 55.8566 6.53421C55.9556 6.37723 56.2137 6.12621 56.324 6.02085C56.3672 5.97842 56.4082 5.93882 56.4435 5.90347C56.8289 5.51809 57.1924 5.15393 57.6612 4.84139ZM54.8186 2.12467C54.9869 1.9981 55.2535 1.86516 55.5639 1.95779C56.0624 2.10416 56.2208 2.7243 56.0461 3.86416C55.9931 4.28489 55.9387 4.72047 55.8397 5.06766C55.7619 5.30313 55.6388 5.51385 55.5087 5.7373C55.4458 5.84619 55.3815 5.95721 55.3221 6.07247C55.1198 5.97347 54.8872 5.92256 54.634 5.9466L54.6227 5.94872C54.5888 5.65952 54.5259 5.33071 54.4594 4.98776C54.3498 4.42066 54.226 3.77789 54.2232 3.23908C54.2218 2.85441 54.4721 2.3863 54.8186 2.12467ZM51.5539 4.71977C51.2739 4.34853 51.0709 4.07842 51.0242 3.66546C51.0278 3.28857 51.1437 2.8339 51.3934 2.70874L51.4174 2.69531C51.6331 2.56379 51.8699 2.54469 52.1401 2.63803C52.7255 2.84027 53.2778 3.49929 53.4737 4.02185C53.7014 4.61582 53.8414 5.37243 53.9538 6.12338C53.8011 6.06893 53.6335 5.99327 53.4694 5.91973C53.2234 5.80872 52.9695 5.69416 52.727 5.62982C52.2044 5.41839 51.9428 5.22323 51.6196 4.80815L51.5539 4.71977ZM49.9862 8.21501C49.569 8.13157 49.3053 7.86287 49.26 7.47538C49.2805 6.78382 50.6679 6.50027 51.4895 6.44158C52.0241 6.40269 52.7079 6.4041 53.4001 6.70533C53.3549 6.81776 53.3181 6.94787 53.2912 7.10273C53.2792 7.17061 53.2714 7.23496 53.2665 7.29718C53.2234 7.30496 53.1795 7.31345 53.1449 7.31981C53.0098 7.34527 52.8832 7.3686 52.7948 7.39759L52.7659 7.40891C52.2836 7.62387 51.7865 7.78933 51.3057 7.94985L51.2357 7.97742C50.7294 8.18037 50.4239 8.3027 49.9862 8.21501ZM50.5222 11.0831C50.5024 11.0802 50.4041 11.064 50.3914 11.0293C50.3058 10.7981 50.74 10.0005 51.3226 9.3174C51.5935 9.0487 51.9032 8.86343 52.2313 8.66756C52.3282 8.60958 52.4257 8.55089 52.5127 8.49644C52.628 8.43068 52.7482 8.35502 52.8698 8.27865C53.031 8.17754 53.1951 8.0743 53.3492 7.99369C53.398 8.12238 53.4609 8.22421 53.5225 8.3027C53.5628 8.35431 53.6137 8.40947 53.6759 8.46321C53.6681 8.47877 53.6603 8.49362 53.6519 8.51059C53.3683 8.98223 53.0303 9.48711 52.7758 9.74096L52.7574 9.76146C52.1761 10.4495 51.3962 11.2188 50.5222 11.0831ZM54.9133 11.3864C54.7868 12.4492 54.5838 13.5777 53.8095 13.5092C53.3768 13.4731 53.1668 13.1471 52.9349 12.5673C52.7503 12.0582 52.8408 11.7477 52.9935 11.2386C53.1852 10.7132 53.3598 10.4226 53.6483 9.94319L53.7141 9.8343C53.8032 9.70914 53.9078 9.49771 54.0641 9.17244C54.1129 9.07203 54.173 8.94687 54.2289 8.83586C54.2451 8.80899 54.2607 8.78353 54.2755 8.75807C54.3851 8.78565 54.5053 8.80616 54.6411 8.81535C54.6524 8.81606 54.6637 8.81606 54.6751 8.81676C54.7762 9.28487 54.9056 10.2055 54.9537 10.9763C54.9501 11.0328 54.9494 11.0915 54.9438 11.146C54.9339 11.2188 54.924 11.2994 54.9133 11.3864ZM57.2892 12.7879L57.2765 12.802C57.0113 13.1259 56.72 13.2284 56.4124 13.1054C55.9662 12.9286 55.5908 12.3353 55.6247 11.8616C55.6417 11.6212 55.6367 11.3192 55.6183 10.994C55.641 10.5449 55.5964 10.0691 55.5462 9.6158C55.5349 9.45599 55.4394 9.07557 55.3362 8.7008C55.4048 8.67039 55.4691 8.63362 55.5307 8.5919C55.6282 8.71353 55.7336 8.84788 55.8397 8.98789C55.9146 9.09325 55.9931 9.1979 56.0723 9.30114C56.3827 9.72682 56.667 10.1553 56.7752 10.3993L56.7865 10.4219C57.442 11.6403 57.611 12.4365 57.2892 12.7879ZM60.1884 9.07345C60.0745 9.57479 59.8242 9.94743 59.4643 10.1497C59.1086 10.3505 58.6674 10.3724 58.1837 10.2119C57.5891 10.0238 57.0368 9.46801 56.5736 8.86556C56.5185 8.7906 56.464 8.71706 56.4103 8.64564C56.2583 8.43563 56.1176 8.22491 55.9903 8.02622C56.0525 7.88126 56.0914 7.72286 56.1062 7.55528C58.0197 7.27244 59.4162 7.42588 59.9572 7.98591C60.2075 8.24471 60.2824 8.60322 60.1884 9.07345Z" fill="#D5D7CC"/>
<path d="M67.1309 19.8086C67.1663 19.7944 67.2023 19.7817 67.237 19.7662L67.2582 19.7555C68.1909 19.2584 69.2975 18.4934 69.2756 17.6745C69.265 17.263 68.9892 16.9278 68.4447 16.6747C67.464 16.261 66.3453 16.4427 65.2097 17.2008C64.9396 17.3811 64.7013 17.5755 64.48 17.7756C64.5386 17.4772 64.5797 17.1654 64.6171 16.8642C64.8462 15.3715 64.5266 14.4862 63.6661 14.233C63.2178 14.1015 62.7461 14.1984 62.336 14.506C61.9117 14.8256 61.5992 15.3495 61.5073 15.8551C61.1792 15.4492 60.7443 15.0858 60.2712 14.9224C59.8194 14.7669 59.3803 14.8051 58.9991 15.0335C58.4674 15.3099 58.2779 16.0185 58.2779 16.5933L58.2793 16.6259C58.3401 17.2333 58.6314 17.6201 58.9404 18.0295L59.0097 18.1214C59.1929 18.3576 59.369 18.5351 59.5493 18.6807C59.4842 18.6836 59.4199 18.6871 59.3576 18.6913C58.6901 18.7394 56.5129 19.0032 56.5129 20.4018L56.5151 20.4351C56.5837 21.1203 57.0652 21.6343 57.7723 21.7758C57.9151 21.8048 58.0488 21.8168 58.1768 21.8168C58.403 21.8168 58.6116 21.7772 58.8174 21.7157C58.7983 21.7333 58.7799 21.7503 58.7608 21.7687L58.7439 21.7871C58.4257 22.159 57.4103 23.4276 57.6867 24.1715C57.7426 24.3221 57.9017 24.583 58.3366 24.6488C58.4405 24.665 58.5431 24.6728 58.6442 24.6728C59.2495 24.6728 59.7925 24.3914 60.2564 24.0223C60.0994 24.5483 59.9792 25.0179 60.2323 25.7144C60.4119 26.1648 60.7471 27.0034 61.6692 27.0805C61.7173 27.0847 61.7632 27.0869 61.8085 27.0869C62.5686 27.0869 62.9703 26.5134 63.1951 25.853C63.4143 26.2023 63.7297 26.4915 64.084 26.6322C64.2487 26.698 64.4142 26.7305 64.5775 26.7305C64.987 26.7305 65.3787 26.5275 65.699 26.1393C66.2682 25.5072 65.991 24.501 65.5908 23.6305C65.6905 23.6772 65.7916 23.7196 65.8956 23.7528C66.1714 23.8448 66.4457 23.89 66.7095 23.89C67.068 23.89 67.4081 23.8059 67.7051 23.6383C68.2248 23.3455 68.5953 22.8103 68.7509 22.123C68.8909 21.4243 68.7551 20.8572 68.3486 20.4358C68.048 20.1247 67.6231 19.9267 67.1309 19.8086ZM61.9584 20.8042C61.8396 20.6529 61.8057 20.4252 61.858 20.1275C61.9365 19.6792 62.0185 19.641 62.6266 19.5158C63.0509 19.4883 63.3238 19.8934 63.3556 20.1176C63.3981 20.4153 63.3373 20.6847 63.1888 20.8558C63.0679 20.9944 62.8911 21.0679 62.6761 21.0679C62.6528 21.0679 62.628 21.0672 62.6019 21.0651C62.2943 21.0446 62.0779 20.9562 61.9584 20.8042ZM65.576 17.7516C66.5313 17.1145 67.4102 16.9575 68.176 17.2792C68.3733 17.3719 68.6088 17.5175 68.6137 17.6915C68.6229 18.033 67.942 18.6376 66.957 19.1651C66.3609 19.4282 65.5972 19.5385 64.8576 19.6459C64.5429 19.6912 64.241 19.735 63.9517 19.7895C63.9093 19.6707 63.8485 19.554 63.7714 19.4451C63.8711 19.2874 64.1292 19.0371 64.2388 18.9311C64.282 18.8886 64.323 18.8497 64.3583 18.8137C64.7437 18.4283 65.1072 18.0648 65.576 17.7516ZM62.7341 15.0356C62.9024 14.909 63.1683 14.7761 63.4794 14.868C63.9779 15.0151 64.1363 15.6352 63.9609 16.7751C63.9086 17.1958 63.8542 17.6314 63.7552 17.9786C63.6767 18.2133 63.5536 18.4248 63.4242 18.6482C63.3606 18.7571 63.297 18.8681 63.2369 18.9834C63.0353 18.8837 62.8027 18.8328 62.5488 18.8575L62.5375 18.8589C62.5036 18.5704 62.4406 18.2409 62.3749 17.898C62.2653 17.3309 62.1408 16.6888 62.1387 16.15C62.1366 15.7646 62.3869 15.2965 62.7341 15.0356ZM59.4687 17.63C59.1886 17.2594 58.9857 16.9893 58.9397 16.5764C58.9433 16.1995 59.0585 15.7441 59.3081 15.6197L59.3329 15.6055C59.5479 15.474 59.7847 15.4556 60.0556 15.5489C60.6411 15.7505 61.1926 16.4095 61.3885 16.9328C61.6169 17.5267 61.7569 18.2833 61.8686 19.0343C61.7159 18.9798 61.5483 18.9042 61.3849 18.8299C61.1389 18.7189 60.885 18.6044 60.6425 18.5407C60.1192 18.3293 59.8576 18.1341 59.5351 17.7191L59.4687 17.63ZM57.901 21.1259C57.4845 21.0425 57.22 20.7731 57.1748 20.3863C57.196 19.6947 58.5827 19.4105 59.4043 19.3518C59.9396 19.3136 60.6227 19.315 61.3149 19.6162C61.2697 19.7287 61.2329 19.8588 61.206 20.0136C61.194 20.0808 61.1869 20.1452 61.1813 20.2074C61.1389 20.2159 61.0943 20.2237 61.0597 20.2307C60.9253 20.2555 60.798 20.2788 60.7103 20.3085L60.6806 20.3198C60.1984 20.5341 59.702 20.7002 59.2212 20.8601L59.1505 20.8876C58.6442 21.0913 58.3394 21.2136 57.901 21.1259ZM58.437 23.9933C58.4179 23.9911 58.3196 23.9742 58.3069 23.9395C58.2206 23.709 58.6555 22.9114 59.2381 22.2283C59.509 21.9596 59.8187 21.7743 60.1468 21.5778C60.2437 21.5198 60.3412 21.4611 60.4275 21.4066C60.5428 21.3409 60.663 21.2659 60.7853 21.1889C60.9465 21.0877 61.1099 20.9852 61.2647 20.9039C61.3135 21.0326 61.3757 21.1351 61.4373 21.2129C61.4783 21.2652 61.5292 21.3197 61.5914 21.3734C61.5836 21.389 61.5751 21.4045 61.5667 21.4208C61.2838 21.8924 60.9458 22.3973 60.6913 22.6519L60.6729 22.6724C60.0909 23.3597 59.311 24.1297 58.437 23.9933ZM62.8289 24.2973C62.7016 25.3601 62.4993 26.4887 61.7251 26.4201C61.2916 26.384 61.0823 26.0573 60.8504 25.4782C60.6658 24.9684 60.7563 24.6587 60.9083 24.1495C61.1007 23.6241 61.2753 23.3335 61.5631 22.8534L61.6289 22.7452C61.7187 22.6201 61.8226 22.4086 61.9789 22.0834C62.0277 21.9822 62.0878 21.8578 62.1437 21.7468C62.1606 21.7199 62.1755 21.6937 62.1903 21.669C62.2999 21.6959 62.4201 21.7171 62.5566 21.7263C62.5679 21.727 62.5785 21.727 62.5898 21.7277C62.6917 22.1958 62.8204 23.1164 62.8684 23.8872C62.8649 23.9438 62.8642 24.0025 62.8585 24.0569C62.8486 24.129 62.8395 24.2103 62.8289 24.2973ZM65.204 25.6981L65.192 25.7122C64.9261 26.0368 64.6355 26.1386 64.3272 26.0163C63.8817 25.8388 63.5056 25.2463 63.5395 24.7725C63.5572 24.5321 63.5522 24.2301 63.5331 23.9049C63.5565 23.4559 63.5112 22.98 63.461 22.526C63.4497 22.3669 63.3542 21.9865 63.2517 21.6117C63.3203 21.5813 63.3846 21.5445 63.4462 21.5028C63.5437 21.6244 63.6484 21.7588 63.7545 21.8988C63.8301 22.0042 63.9079 22.1088 63.9878 22.212C64.2982 22.6377 64.5818 23.0662 64.6907 23.3102L64.702 23.3328C65.3568 24.5512 65.5258 25.3467 65.204 25.6981ZM68.1039 21.9844C67.9901 22.4857 67.7397 22.8576 67.3798 23.0606C67.0234 23.2614 66.5822 23.2833 66.0992 23.1221C65.5046 22.934 64.9516 22.3789 64.4891 21.7765C64.434 21.7015 64.3795 21.628 64.3251 21.5559C64.1731 21.3458 64.0324 21.1358 63.9058 20.9364C63.9673 20.7922 64.0069 20.6338 64.0217 20.4662C65.9352 20.1826 67.3317 20.3361 67.8727 20.8961C68.1223 21.1556 68.1972 21.5141 68.1039 21.9844Z" fill="#D5D7CC"/>
</svg>
