<svg width="98" height="34" viewBox="0 0 98 34" fill="none" xmlns="http://www.w3.org/2000/svg">
<mask id="mask0_968_3824" style="mask-type:luminance" maskUnits="userSpaceOnUse" x="0" y="0" width="98" height="34">
<path d="M0.567139 0.561035H97.6393V33.1447H0.567139V0.561035Z" fill="white"/>
</mask>
<g mask="url(#mask0_968_3824)">
<path d="M97.6265 20.1485C97.6265 20.1485 97.4993 20.2758 97.4993 20.4031C97.372 20.6576 97.1167 20.9122 96.8622 21.1674C96.7349 21.2947 96.4803 21.422 96.353 21.5493C95.8432 21.8038 95.7159 21.9311 95.7159 21.9311C95.0788 22.0591 94.9515 22.0591 94.697 22.441C94.4424 22.9508 94.4424 23.3326 94.697 23.7145C94.9515 24.3516 95.9705 24.8614 95.0788 25.3705C94.8243 25.4978 94.4424 25.6251 94.1872 25.7531C93.8053 25.8803 93.5508 25.8803 93.2955 26.0076C93.2955 26.0076 93.2955 26.0076 93.1682 26.0076C93.0409 26.0076 92.9137 26.1349 92.7864 26.1349C92.1493 26.2622 91.5122 26.3895 91.003 26.5167C90.2387 26.5167 89.4743 26.5167 88.7106 26.5167C88.328 26.5167 87.9462 26.644 87.6909 26.644C87.0545 26.772 86.2902 26.644 85.653 26.644C83.8697 26.772 82.2144 27.2811 80.431 27.2811C76.9916 27.2811 73.9348 28.5546 70.7507 29.319C68.5848 29.8288 66.4196 29.8288 64.2545 30.2107C61.1976 30.5932 58.1401 31.2296 55.0832 31.4849C53.4272 31.6122 51.6446 31.8667 49.9885 32.1213C49.2241 32.2486 48.4597 32.2486 47.6954 32.3759C47.5681 32.3759 47.4408 32.3759 47.4408 32.3759C47.3135 32.3759 47.1862 32.3759 47.059 32.3759C46.4218 32.3759 45.6575 32.5038 45.0211 32.5038C44.2567 32.5038 43.4923 32.6311 42.7279 32.6311C39.2892 32.7584 35.8498 33.2675 32.5384 32.8857C28.9718 32.5038 25.4051 32.3759 21.8384 32.2486C19.0362 32.1213 16.2339 32.2486 13.4316 32.2486C11.521 32.2486 9.4831 32.1213 7.57248 31.6122C6.42626 31.3569 5.28003 30.9751 4.1338 30.7205C4.00652 30.2107 4.26108 29.9561 4.64292 29.5743C4.89748 29.319 4.89748 29.0645 5.02547 28.8099C4.7702 28.4274 4.38836 28.0455 4.1338 27.5357C4.38836 26.644 4.7702 26.1349 5.15275 25.7524C5.53459 25.2432 5.78915 24.9887 6.42626 24.3516C6.8081 23.9697 7.4452 23.4599 7.57248 22.9508C7.31792 22.6955 7.19064 22.6955 6.8081 22.5682C6.29898 22.3137 5.91714 22.1864 5.53459 21.9311C5.28003 21.8038 5.02547 21.6766 4.7702 21.6766C4.00652 21.422 4.00652 21.6766 3.4967 21.422C3.24214 21.2947 3.11486 21.1674 2.85959 21.0402C2.73231 20.9122 2.60503 20.9122 2.47775 20.7849C2.35047 20.7849 2.35047 20.6576 2.22319 20.5303L2.09591 20.4031C2.22319 20.2758 2.47775 20.1485 2.60503 20.0205C2.98687 19.766 3.24214 19.6387 3.62398 19.5114C3.75126 19.5114 4.00652 19.3841 4.26108 19.2568C4.7702 19.1296 5.28003 18.8743 5.53459 18.3652C5.78915 18.1099 5.78915 17.9826 5.66187 17.7281C5.66187 17.6008 5.40731 17.4735 5.40731 17.3462C5.40731 17.2189 5.28003 17.091 5.28003 17.091C5.28003 16.9637 5.28003 16.7091 5.28003 16.5818C5.28003 16.072 5.40731 15.4356 5.15275 14.9258C5.02547 14.7985 4.89748 14.7985 4.7702 14.6712C4.7702 14.5439 4.7702 14.4167 4.7702 14.2887C4.51564 13.7796 4.26108 13.3977 4.26108 12.8879C4.26108 12.7606 4.26108 12.5061 4.26108 12.2508C4.38836 11.6144 4.7702 11.2318 5.02547 11.1046C4.64292 10.5954 4.38836 10.2129 4.1338 10.0856C3.11486 9.4485 2.22319 9.70377 1.07626 8.81211C0.821698 8.68483 0.694419 8.55684 0.567139 8.42956C0.567139 8.30228 0.694419 8.04772 0.948978 7.66588C1.58608 7.02877 2.22319 6.77421 2.60503 6.64623C3.4967 6.13711 4.38836 5.5 5.28003 5.24544C6.42626 4.8636 7.82775 4.8636 8.97398 5.24544C9.22854 5.24544 9.99292 5.62728 9.86564 5.11816C9.35582 4.60833 8.8467 4.48105 8.20959 4.22649C7.95503 4.09921 7.06336 4.09921 7.06336 3.71667C7.4452 3.33483 7.95503 2.95299 8.8467 2.57044C9.10126 2.44316 9.35582 2.44316 9.61038 2.44316C10.1202 2.44316 10.502 2.825 11.0119 2.95299C12.0308 3.20755 13.177 3.08027 14.196 3.08027C16.9983 3.08027 19.6733 2.69772 22.4755 2.31588C23.1127 2.1886 23.6218 2.1886 24.2589 2.1886C24.3862 2.1886 24.5134 2.1886 24.6407 2.1886C25.4051 2.1886 26.1695 2.06132 26.9339 2.06132C27.1884 2.06132 27.443 2.06132 27.6976 2.06132C27.9528 2.06132 28.2074 2.06132 28.4619 2.06132C29.099 2.06132 29.8634 2.1886 30.4998 2.1886C30.6271 2.1886 30.8824 2.1886 31.0097 2.1886H31.1369C31.5188 2.1886 32.0286 2.1886 32.4104 2.1886C32.9203 2.1886 33.4294 2.31588 34.0665 2.31588C34.8309 2.44316 35.7226 2.57044 36.6142 2.69772C39.4165 2.95299 42.2188 3.33483 45.0211 3.33483C47.8233 3.33483 50.7529 3.46211 53.5552 3.20755C59.9234 2.69772 66.2924 2.1886 72.6613 1.55149C75.2083 1.29693 77.756 1.04237 80.1765 0.914387C80.3038 0.914387 80.3038 0.914387 80.431 0.914387C80.5583 0.914387 80.5583 0.914387 80.6856 0.914387C81.7045 0.914387 82.7235 0.914387 83.6152 0.914387C84.3795 0.914387 85.0166 0.787107 85.7803 0.659827C86.672 0.659827 87.4364 0.787107 88.2008 0.914387C88.5826 0.914387 88.9652 0.914387 89.347 0.914387H89.7295C90.3659 0.914387 91.003 0.914387 91.6402 0.914387C92.2766 0.914387 92.9137 0.914387 93.4228 0.787107C93.9326 0.659827 94.5697 0.532547 95.0788 0.787107C95.0788 0.914387 94.8243 1.16965 94.697 1.29693C94.4424 1.55149 94.3144 1.80605 94.1872 2.1886C93.9326 2.69772 93.8053 2.825 94.0599 3.33483C94.0599 3.46211 94.1872 3.46211 94.1872 3.58939C94.4424 3.71667 94.5697 3.84465 94.697 3.84465C94.8243 3.84465 95.2061 4.09921 95.4614 4.60833C94.8243 5.11816 94.5697 5.62728 94.4424 6.00983C94.1872 6.90149 94.4424 7.79316 94.4424 9.32122C94.4424 9.70377 94.5697 10.3402 94.4424 10.7227C94.4424 10.85 94.3144 11.1046 93.678 11.8689C93.2955 12.2508 93.0409 12.6333 92.7864 13.0152C93.0409 13.3977 93.2955 13.6523 93.4228 13.9068C93.678 14.1614 94.0599 14.4167 94.3144 14.7985C94.5697 15.0531 94.5697 15.0531 94.5697 15.4356C94.5697 15.9447 94.4424 16.4546 94.5697 16.8364C94.697 17.3462 95.2061 18.1099 95.5887 18.3652C95.7159 18.4924 95.8432 18.4924 96.0978 18.6197C96.0978 18.6197 96.4803 18.8743 96.6076 19.0016C97.244 19.3841 97.4993 19.8932 97.6265 20.1485Z" fill="#F1EAC9"/>
</g>
<path d="M7.06318 7.66574C7.19046 7.53775 7.95485 6.77408 8.71853 7.02864C9.10107 7.15592 9.48291 7.53775 9.61019 8.04758C9.73818 8.42942 9.73818 8.93925 9.73818 9.32109C10.12 8.81197 10.7571 8.5567 11.3935 8.68469C12.0306 8.68469 12.6677 9.06653 12.9223 9.70363C13.1769 10.34 13.0496 10.9771 12.5398 11.487C13.4314 11.1044 14.7056 11.6142 15.0875 12.5059C15.47 13.5249 14.9602 14.6711 13.9412 15.0529C14.5784 15.0529 15.342 15.5628 15.47 16.1992C15.7246 16.8363 15.47 17.6006 14.9602 18.1098C14.4504 18.4923 13.9412 18.4923 13.3041 18.6196C12.6677 18.6196 12.0306 18.4923 11.3935 18.365C10.6291 18.1098 9.10107 17.6006 7.95485 16.3271C7.06318 15.3082 6.80792 14.2885 6.55336 13.3976C6.2988 12.2506 5.53441 9.19381 7.06318 7.66574Z" fill="#A66362"/>
<path d="M13.0497 18.6197C12.9224 18.6197 12.7951 18.6197 12.6678 18.6197C12.158 18.6197 11.6489 18.6197 11.139 18.3652C11.0118 18.3652 11.0118 18.3652 10.8845 18.2379C10.1201 17.9826 8.7186 17.6008 7.69966 16.3273C6.93598 15.4356 6.68071 14.4167 6.42615 13.525C6.29887 13.1425 6.17159 12.3781 6.04431 11.4871C5.91703 10.5955 6.04431 9.70378 6.42615 8.9394C6.55343 8.68484 6.68071 8.42957 6.93598 8.30229C7.06326 8.17501 7.82765 7.5379 8.46404 7.79317C8.84659 7.92045 9.10115 8.30229 9.22843 8.68484C9.35571 9.06668 9.35571 9.44852 9.35571 9.95834C9.73826 9.5765 10.3747 9.32124 10.8845 9.32124C11.5209 9.32124 12.0307 9.70378 12.2853 10.2129C12.5398 10.7227 12.4125 11.4871 11.9034 11.869C12.7951 11.4871 13.9413 11.9962 14.3232 12.8879C14.7057 13.7796 14.1959 14.9258 13.3042 15.1804C13.9413 15.1804 14.5784 15.6902 14.833 16.3273C15.0875 16.9637 14.833 17.7281 14.3232 18.1099C13.814 18.4925 13.4315 18.6197 13.0497 18.6197Z" fill="#E18B86"/>
<path d="M3.36951 19.384C3.49679 19.384 3.75135 19.2567 4.00662 19.1294C3.75135 19.384 3.62407 19.5112 3.49679 19.7658C3.11495 20.1483 2.85968 20.5302 2.60512 20.912C2.47784 20.7847 2.35056 20.7847 2.22328 20.6575C2.096 20.6575 2.096 20.5302 1.96802 20.4029C2.096 20.2756 2.22328 20.0204 2.35056 19.8931C2.7324 19.6385 3.11495 19.5112 3.36951 19.384Z" fill="#74846A"/>
<path d="M8.46407 15.6903C8.20951 15.8176 8.08223 15.9449 7.82767 16.0722C7.69968 16.1994 7.5724 16.1994 7.44512 16.3274C6.80802 16.7093 6.04434 17.2191 5.40723 17.7282C5.40723 17.6009 5.15267 17.4736 5.15267 17.3464C5.15267 17.2191 5.02539 17.0911 5.02539 17.0911C5.66179 16.582 6.2989 16.0722 6.936 15.6903C7.06328 15.563 7.19056 15.563 7.31784 15.4358C7.5724 15.3085 7.82767 15.1805 8.08223 15.0532C8.20951 14.9259 8.46407 15.0532 8.59135 15.1805C8.71863 15.4358 8.71863 15.6903 8.46407 15.6903Z" fill="#74846A"/>
<path d="M11.012 18.4923C10.8847 18.4923 10.8847 18.4923 10.7574 18.365C9.99302 18.1098 8.59153 17.7279 7.57258 16.4544C6.8082 15.5628 6.55364 14.5438 6.29908 13.6522C6.1718 13.2696 6.04452 12.5059 5.91724 11.6143C6.04452 11.7415 6.1718 11.8688 6.29908 11.8688L6.42636 11.9961C7.4453 12.8878 8.33697 13.9067 9.10135 14.9257C9.73846 15.9446 10.3749 16.9635 10.8847 18.1098C10.8847 18.2378 11.012 18.365 11.012 18.4923Z" fill="#74846A"/>
<path d="M8.5912 19.2566C8.71848 19.5112 7.06313 21.1672 5.15252 21.8036C4.89725 21.6763 4.64269 21.549 4.38813 21.549C3.62374 21.2945 3.62374 21.549 3.11462 21.2945C2.85936 21.1672 2.73208 21.0399 2.47752 20.9119C2.35024 20.7847 2.22296 20.7847 2.09497 20.6574C2.35024 20.2755 2.85936 20.0203 3.2419 19.893C3.49646 19.7657 3.75102 19.7657 3.8783 19.6384C4.13357 19.5112 4.38813 19.5112 4.38813 19.5112C4.76997 19.5112 5.40708 19.5112 5.66164 19.5112C6.04418 19.5112 6.29874 19.5112 6.5533 19.5112C7.82752 19.3839 8.33664 19.0013 8.5912 19.2566C8.5912 19.1293 8.5912 19.1293 8.5912 19.2566Z" fill="#74846A"/>
<path d="M49.224 18.6197C49.224 18.4924 48.8422 17.3462 48.0778 17.2189C47.6952 17.0909 47.1861 17.3462 46.9316 17.728C46.549 17.9826 46.4217 18.4924 46.1672 18.8743C46.0399 18.2379 45.5301 17.728 45.0209 17.4735C44.3838 17.2189 43.7467 17.2189 43.2376 17.6008C42.7278 17.9826 42.4732 18.747 42.7278 19.2568C42.0914 18.4924 40.8172 18.2379 39.9255 19.0015C39.1611 19.6386 39.0338 21.0401 39.7982 21.8038C39.1611 21.5493 38.3974 21.6765 37.8876 22.0591C37.3785 22.5682 37.2505 23.3326 37.5058 23.9697C37.7603 24.6061 38.1422 24.8614 38.7793 25.2432C39.2891 25.625 39.9255 25.753 40.5626 25.8803C41.4543 26.0076 42.8551 26.3894 44.6384 25.625C45.9126 25.1159 46.549 24.3515 47.3134 23.7144C47.6952 22.9507 49.8611 20.6576 49.224 18.6197Z" fill="#A66362"/>
<path d="M38.7793 25.3703C38.9066 25.4976 39.0339 25.4976 39.1612 25.6249C39.5437 25.8802 40.0528 26.0074 40.6899 26.262C40.8172 26.262 40.8172 26.262 40.9445 26.262C41.7089 26.3893 43.1104 26.6438 44.6385 26.1347C45.7847 25.6249 46.4218 24.9885 47.0589 24.3514C47.3135 24.0968 47.9506 23.4597 48.3324 22.8226C48.8422 22.0589 49.2241 21.2946 49.2241 20.4029C49.2241 20.1483 49.2241 19.8931 49.0968 19.6385C49.0968 19.5112 48.7149 18.4923 47.9506 18.365C47.568 18.365 47.1862 18.4923 46.8036 18.7468C46.5491 19.0014 46.2945 19.3839 46.1672 19.7658C46.0399 19.2567 45.6574 18.7468 45.021 18.4923C44.5112 18.2377 43.8741 18.365 43.3649 18.6196C42.8551 19.0014 42.7278 19.6385 42.8551 20.1483C42.2187 19.3839 41.0718 19.2567 40.3081 19.8931C39.5437 20.5302 39.5437 21.8037 40.1808 22.4408C39.5437 22.1862 38.7793 22.3135 38.3975 22.6953C37.8877 23.0779 37.7604 23.8416 38.0149 24.4787C38.1422 24.8612 38.3975 25.1158 38.7793 25.3703Z" fill="#E18B86"/>
<path d="M47.6951 32.2487C47.5679 32.2487 47.4406 32.2487 47.4406 32.2487C47.3133 32.2487 47.186 32.2487 47.0587 32.2487C47.0587 31.7396 46.9315 31.2297 46.8035 30.8479C46.4216 29.0646 45.7845 27.4085 44.8929 25.8804C44.8929 25.7532 44.7656 25.6252 44.6383 25.4979C44.511 25.2433 44.3837 25.1161 44.2565 24.8615C44.1292 24.7335 44.1292 24.479 44.3837 24.3517C44.511 24.2244 44.7656 24.2244 44.8929 24.479C45.0208 24.7335 45.2754 24.9888 45.2754 25.2433C45.4027 25.3706 45.4027 25.4979 45.53 25.6252C46.6762 27.6638 47.4406 29.9562 47.6951 32.2487Z" fill="#74846A"/>
<path d="M40.6899 26.1347C40.8172 26.1347 40.8172 26.1347 40.9445 26.1347C41.7089 26.262 43.1104 26.5165 44.6384 26.0074C45.7847 25.4976 46.4218 24.8612 47.0589 24.2241C47.3134 23.9695 47.9506 23.3324 48.3324 22.6953C48.2051 22.6953 48.0778 22.6953 47.8233 22.8226H47.6953C46.4218 23.0779 45.1483 23.587 43.8741 24.0968C42.7278 24.6059 41.7089 25.243 40.8172 26.0074C40.8172 26.0074 40.6899 26.0074 40.6899 26.1347Z" fill="#74846A"/>
<path d="M47.3135 32.2486C47.1862 32.2486 47.0589 32.2486 46.9316 32.2486C46.2945 32.2486 45.5302 32.3759 44.893 32.3759C43.1104 31.1024 42.0915 28.0456 42.4733 27.791C42.7279 27.791 43.1104 28.3001 43.8741 28.81C44.1294 29.0645 44.3839 29.1918 44.6385 29.3191C44.893 29.4464 45.5302 29.7016 45.7847 29.9562C45.7847 29.9562 46.04 30.0835 46.1673 30.338C46.2945 30.4653 46.5491 30.7206 46.6764 30.8479C46.9316 31.2297 47.1862 31.6122 47.3135 32.1214V32.2486Z" fill="#74846A"/>
<path d="M36.487 7.02897C36.2317 7.66608 35.8499 7.92064 35.2128 8.30248C35.0855 8.30248 35.0855 8.42976 34.9582 8.42976C34.4484 8.68503 33.9393 8.81231 33.4295 8.93959C33.3022 8.93959 33.0476 8.93959 32.9203 9.06687C32.0287 9.19415 30.7552 9.32143 29.3537 8.81231H29.2264C28.9718 8.68503 28.7166 8.55704 28.5893 8.42976C27.8256 8.04792 27.3158 7.41081 26.806 6.90169C26.5514 6.64643 26.2968 6.39187 25.915 5.88275C25.4052 5.24564 24.7681 4.35398 24.5135 3.46231C24.3862 3.08047 24.3862 2.69792 24.3862 2.1888C24.5135 2.1888 24.6408 2.1888 24.7681 2.1888C25.5325 2.1888 26.2968 2.06152 27.0612 2.06152C27.3158 2.06152 27.5703 2.06152 27.8256 2.06152C28.0802 2.06152 28.3347 2.06152 28.5893 2.06152C29.2264 2.06152 29.9908 2.1888 30.6272 2.1888C30.7552 2.1888 31.0097 2.1888 31.137 2.1888C31.137 2.31608 31.137 2.31608 31.137 2.44336C31.137 2.31608 31.2643 2.31608 31.3916 2.1888C31.7741 2.1888 32.2832 2.1888 32.6658 2.1888C33.1749 2.1888 33.6847 2.31608 34.3211 2.31608C34.831 3.08047 34.831 4.09942 34.1939 4.73582C34.831 4.48126 35.5953 4.60854 36.1045 4.99108C36.6143 5.62748 36.7416 6.39187 36.487 7.02897Z" fill="#A66362"/>
<path d="M35.7225 7.53766C35.5953 7.92021 35.34 8.17477 34.9582 8.42933C34.8309 8.42933 34.7036 8.55661 34.5763 8.6846C34.1938 8.93916 33.6847 9.06644 33.0475 9.321C32.9203 9.321 32.9203 9.321 32.793 9.321C32.0286 9.44828 30.6271 9.70354 29.099 9.06644H28.9718C28.7165 8.93916 28.4619 8.81188 28.3347 8.6846C27.6975 8.30205 27.1884 7.79293 26.6786 7.2831C26.424 7.02854 25.7869 6.39144 25.4051 5.62705C24.8953 4.99065 24.5134 4.09898 24.5134 3.3346C24.5134 3.08004 24.5134 2.82477 24.6407 2.57021C24.6407 2.57021 24.768 2.31565 24.8953 2.06109C25.6597 2.06109 26.424 1.93311 27.1884 1.93311C27.3157 2.18837 27.443 2.44293 27.6975 2.69749C27.8255 2.44293 27.9528 2.18837 28.0801 1.93311C28.3347 1.93311 28.5892 1.93311 28.8445 1.93311C29.4809 1.93311 30.2453 2.06109 30.8824 2.06109C31.0097 2.44293 31.1369 2.69749 31.0097 3.08004C31.6468 2.31565 32.793 2.18837 33.5574 2.82477C34.3211 3.46188 34.3211 4.73538 33.6847 5.37249C34.3211 5.11793 34.9582 5.24521 35.468 5.62705C35.8498 6.13688 35.9771 6.90126 35.7225 7.53766Z" fill="#E18B86"/>
<path d="M26.6786 21.6767C26.5513 21.6767 26.5513 21.5495 26.424 21.4222C25.2778 16.7093 26.2967 11.6145 28.9717 7.66604C29.099 7.53805 29.3536 7.41077 29.4808 7.53805C29.6081 7.66604 29.7361 7.9206 29.6081 8.04788C27.0611 11.8691 26.0422 16.7093 27.1884 21.1676C27.1884 21.4222 27.0611 21.5495 26.9338 21.6767C26.8058 21.6767 26.6786 21.6767 26.6786 21.6767Z" fill="#74846A"/>
<path d="M33.1747 9.19378C33.0474 9.19378 33.0474 9.19378 32.9201 9.19378C32.1557 9.32106 30.7549 9.57633 29.2262 9.0665C28.0799 8.55667 27.4428 7.92027 26.8057 7.28317C26.5512 7.02861 25.9148 6.3915 25.5322 5.75439C25.6595 5.75439 25.7868 5.75439 26.0421 5.88238H26.1693C27.4428 6.13694 28.7163 6.64606 29.9906 7.15589C31.1368 7.66571 32.1557 8.30211 33.0474 9.0665C32.9201 9.0665 33.0474 9.19378 33.1747 9.19378Z" fill="#74846A"/>
<path d="M26.4242 15.1803C26.5514 14.4166 27.0613 13.9068 27.5704 13.3977C27.6977 13.2697 27.9529 13.0151 27.9529 13.0151C28.2075 12.8879 28.8446 12.506 29.0992 12.378C29.3537 12.2507 29.6083 12.1235 29.8635 11.8689C30.4999 11.3591 30.8825 10.7227 31.2643 10.85C31.6469 11.1045 30.3727 14.6712 28.3348 15.6901C27.9529 15.9447 27.1885 16.072 26.6787 15.8174C26.4242 15.6901 26.2969 15.4356 26.2969 15.4356C26.4242 15.5629 26.4242 15.3083 26.4242 15.1803Z" fill="#74846A"/>
<path d="M97.4992 20.4029C97.3719 20.6575 97.1166 20.912 96.862 21.1673C96.7348 21.2946 96.4802 21.4218 96.3529 21.5491C95.8431 21.8037 95.7158 21.931 95.7158 21.931C95.0787 22.0589 94.9514 22.0589 94.6969 22.4408C94.4423 22.9506 94.4423 23.3325 94.6969 23.7143C94.9514 24.3514 95.9704 24.8612 95.0787 25.3703C94.8242 25.4976 94.4423 25.6249 94.187 25.7529C93.8052 25.8802 93.5506 25.8802 93.2954 26.0075C93.1681 25.8802 92.9135 25.6249 92.7863 25.3703C92.2764 24.7332 91.64 23.8416 91.3848 22.9506C91.2575 22.4408 91.2575 21.931 91.3848 21.2946C91.3848 21.1673 91.7673 20.0203 92.5317 19.8931C92.9135 19.8931 93.4227 20.0203 93.6779 20.4029C93.9325 20.7847 94.187 21.04 94.4423 21.5491C94.5696 20.912 95.0787 20.4029 95.5885 20.1483C96.3529 20.0203 96.9893 20.0203 97.4992 20.4029Z" fill="#A66362"/>
<path d="M96.8621 21.0402C96.7348 21.1675 96.4803 21.2947 96.353 21.422C95.8432 21.6766 95.7159 21.8039 95.7159 21.8039C95.0788 22.0591 94.9515 22.0591 94.697 22.441C94.4424 22.9508 94.4424 23.3326 94.697 23.7145C94.9515 24.3516 95.9705 24.8614 95.0788 25.3705C94.8242 25.4978 94.4424 25.6251 94.1871 25.7531C93.8053 25.8803 93.5507 25.8803 93.2955 26.0076C93.2955 26.0076 93.2955 26.0076 93.1682 26.0076C93.0409 26.0076 92.9136 26.1349 92.7863 26.1349C92.5318 25.8803 92.4038 25.6251 92.1492 25.3705C91.6401 24.7334 91.2576 23.8417 91.2576 23.0781C91.2576 22.8228 91.2576 22.5682 91.3848 22.3137C91.3848 22.1864 91.7674 21.1675 92.5318 21.0402C92.9136 21.0402 93.4227 21.1675 93.678 21.422C93.9326 21.6766 94.1871 22.0591 94.3144 22.441C94.4424 21.9311 94.8242 21.422 95.4613 21.1675C95.9705 20.9122 96.4803 20.9122 96.8621 21.0402Z" fill="#E18B86"/>
<path d="M94.1871 25.8801C93.8052 26.0074 93.5507 26.0074 93.2954 26.1347C93.2954 26.1347 93.2954 26.1347 93.1681 26.1347C93.0408 26.1347 92.9136 26.2619 92.7863 26.2619C92.5317 26.0074 92.4037 25.7528 92.1492 25.4976C92.2764 25.4976 92.5317 25.4976 92.659 25.6248H92.7863C93.4227 25.6248 93.8052 25.7528 94.1871 25.8801Z" fill="#74846A"/>
<path d="M68.203 5.37263C68.203 5.24535 67.8212 4.09912 67.0568 3.97184C66.6742 3.84385 66.1651 4.09912 65.9106 4.48096C65.528 4.73552 65.4007 5.24535 65.1462 5.62719C65.0189 4.99079 64.5091 4.48096 63.9999 4.2264C63.3628 3.97184 62.7257 3.97184 62.2166 4.35368C61.7068 4.73552 61.4522 5.49991 61.7068 6.00973C61.0697 5.24535 59.7962 4.99079 58.9045 5.75447C58.1401 6.39157 58.0128 7.79307 58.7772 8.55675C58.1401 8.30219 57.3764 8.42947 56.8666 8.81201C56.3575 9.32113 56.2295 10.0855 56.4848 10.7226C56.7393 11.359 57.1212 11.6143 57.7583 11.9961C58.2681 12.378 58.9045 12.506 59.5416 12.6332C60.4333 12.7605 61.8341 13.1424 63.6174 12.378C64.8909 11.8689 65.528 11.1045 66.2924 10.4674C66.6742 9.83096 68.8401 7.41052 68.203 5.37263Z" fill="#A66362"/>
<path d="M57.7583 12.1238C57.8856 12.251 58.0129 12.251 58.1402 12.3783C58.5227 12.6336 59.0318 12.7609 59.669 13.0154C59.7962 13.0154 59.7962 13.0154 59.9235 13.0154C60.6879 13.1427 62.0894 13.398 63.6175 12.8881C64.7637 12.3783 65.4008 11.7419 66.0379 11.1048C66.2925 10.8502 66.9296 10.2131 67.3114 9.57674C67.8212 8.81236 68.2031 8.04797 68.2031 7.1563C68.2031 6.90174 68.2031 6.64648 68.0758 6.39192C68.0758 6.26464 67.6932 5.24569 66.9296 5.11841C66.547 5.11841 66.1652 5.24569 65.7826 5.50025C65.5281 5.75481 65.2735 6.13736 65.1462 6.5192C65.019 6.01008 64.6364 5.50025 64 5.24569C63.4902 4.99113 62.8531 5.11841 62.344 5.37297C61.8341 5.75481 61.7068 6.39192 61.8341 6.90174C61.1977 6.13736 60.0508 6.01008 59.2871 6.64648C58.5227 7.28358 58.5227 8.55709 59.1591 9.1942C58.5227 8.93964 57.7583 9.06692 57.3765 9.44876C56.8667 9.8313 56.7394 10.5957 56.994 11.2321C57.1212 11.6146 57.3765 11.9965 57.7583 12.1238Z" fill="#E18B86"/>
<path d="M66.0378 25.3706C66.165 25.3706 66.165 25.2433 66.2923 25.116C67.4386 20.4031 66.4196 15.3084 63.7446 11.3592C63.6173 11.2319 63.3628 11.1046 63.2355 11.2319C63.1082 11.3592 62.9802 11.6145 63.1082 11.7417C65.6552 15.563 66.6742 20.4031 65.5279 24.8615C65.5279 25.116 65.6552 25.2433 65.7825 25.3706C65.9105 25.4979 65.9105 25.3706 66.0378 25.3706Z" fill="#74846A"/>
<path d="M59.5415 13.0153C59.6688 13.0153 59.6688 13.0153 59.7961 13.0153C60.5605 13.1426 61.9612 13.3979 63.49 12.8881C64.6362 12.3782 65.2733 11.7418 65.9104 11.1047C66.165 10.8502 66.8021 10.2131 67.184 9.57666C67.0567 9.57666 66.9294 9.57666 66.6741 9.70394H66.5468C65.2733 9.9585 63.9998 10.4676 62.7256 10.9774C61.5794 11.4873 60.5605 12.1237 59.6688 12.8881C59.6688 12.8881 59.6688 12.8881 59.5415 13.0153Z" fill="#74846A"/>
<path d="M66.2924 19.0011C66.1651 18.2374 65.6553 17.7276 65.1462 17.2185C65.0189 17.0905 64.7636 16.8359 64.7636 16.8359C64.5091 16.7087 63.8719 16.3268 63.6174 16.1988C63.3628 16.0715 63.1083 15.9443 62.853 15.6897C62.2166 15.1799 61.8341 14.5435 61.4522 14.6708C61.0697 14.9253 62.3439 18.492 64.3818 19.5109C64.7636 19.7655 65.528 19.8928 66.0378 19.6382C66.2924 19.5109 66.4197 19.2564 66.4197 19.2564C66.2924 19.2564 66.2924 19.0011 66.2924 19.0011Z" fill="#74846A"/>
<path d="M92.0219 3.46195C91.7674 4.09905 91.2576 4.35361 90.7484 4.73545C90.6212 4.73545 90.6212 4.86344 90.4932 4.86344H90.3659C89.9841 5.118 89.4742 5.24528 88.9651 5.37256C88.8378 5.37256 88.5826 5.37256 88.4553 5.49984C87.5636 5.62712 86.2901 5.7544 84.8886 5.24528C84.8886 5.24528 84.7613 5.24528 84.7613 5.118C84.5068 4.99072 84.2522 4.86344 84.1249 4.73545C83.3605 4.22633 82.8507 3.71651 82.3416 3.20739C82.087 2.95283 81.8318 2.57028 81.4499 2.18844C81.1954 1.80589 80.8128 1.42405 80.6855 0.914228C80.8128 0.914228 80.8128 0.914228 80.9401 0.914228C81.9591 0.914228 82.978 0.914228 83.8697 0.914228C84.6341 0.914228 85.2712 0.786948 86.0355 0.659668C86.9272 0.659668 87.6909 0.786948 88.4553 0.914228C88.8378 0.914228 89.2197 0.914228 89.6015 0.914228H89.9841C89.9841 1.04221 89.8568 1.16949 89.7295 1.16949C90.3659 0.914228 91.1303 0.914228 91.6401 1.42405C92.0219 2.06116 92.1492 2.82484 92.0219 3.46195Z" fill="#A66362"/>
<path d="M91.2576 3.97194C91.1303 4.35378 90.7484 4.60834 90.4932 4.86361H90.3659C90.2386 4.86361 90.2386 4.99089 90.1113 4.99089C89.7295 5.24545 89.2197 5.37273 88.5826 5.62728C88.4553 5.62728 88.4553 5.62728 88.328 5.62728C87.5636 5.75456 86.1628 6.00983 84.6341 5.37273H84.5068C84.2522 5.24545 83.9977 5.11817 83.8697 4.99089C83.7424 4.86361 83.4878 4.73562 83.3606 4.60834C83.106 4.35378 82.8507 4.2265 82.7234 3.97194C82.5962 3.84395 82.3416 3.58939 82.2143 3.46211C81.9591 3.20755 81.4499 2.57045 80.9401 1.80606C80.6856 1.42422 80.5583 1.04238 80.3037 0.659833C80.431 0.659833 80.431 0.659833 80.5583 0.659833C80.6856 0.659833 80.6856 0.659833 80.8128 0.659833C81.8318 0.659833 82.8507 0.659833 83.7424 0.659833C84.5068 0.659833 85.1439 0.532553 85.9083 0.405273C86.7999 0.405273 87.5636 0.532553 88.328 0.659833C88.7105 0.659833 89.0924 0.659833 89.4742 0.659833C89.4742 1.04238 89.3469 1.29694 89.0924 1.5515C89.7295 1.29694 90.3659 1.42422 90.8757 1.80606C91.2576 2.57045 91.5121 3.33483 91.2576 3.97194Z" fill="#E18B86"/>
<path d="M82.087 18.1099C81.959 18.1099 81.959 17.9827 81.8317 17.8554C80.6855 13.1425 81.7044 8.04776 84.3794 4.09926C84.5067 3.97198 84.7613 3.84399 84.8893 3.97198C85.0165 4.09926 85.1438 4.35382 85.0165 4.4811C82.4688 8.30232 81.4499 13.1425 82.5961 17.6008C82.5961 17.8554 82.4688 17.9827 82.3415 18.1099C82.2143 18.1099 82.2143 18.1099 82.087 18.1099Z" fill="#74846A"/>
<path d="M88.5826 5.62716C88.4554 5.62716 88.4554 5.62716 88.3281 5.62716C87.5637 5.75444 86.1629 6.0097 84.6341 5.49988C83.4879 4.99076 82.8508 4.35365 82.2144 3.71654C81.9591 3.46198 81.3227 2.82488 80.9402 2.18848C81.0675 2.18848 81.1955 2.18848 81.45 2.31576H81.5773C82.8508 2.57032 84.125 3.08014 85.3985 3.58926C86.5447 4.09909 87.5637 4.73549 88.4554 5.49988C88.4554 5.49988 88.4554 5.62716 88.5826 5.62716Z" fill="#74846A"/>
<path d="M81.9591 11.6141C82.0871 10.8497 82.5962 10.3399 83.106 9.83077C83.2333 9.70349 83.4878 9.44823 83.4878 9.44823C83.7424 9.32095 84.3795 8.93911 84.6341 8.81183C84.8893 8.68455 85.1439 8.55656 85.3985 8.302C86.0356 7.79288 86.4174 7.15577 86.7999 7.28305C87.1818 7.53761 85.9083 11.1043 83.8697 12.1232C83.4878 12.3778 82.7235 12.5058 82.2143 12.2505C81.9591 12.1232 81.8318 11.8687 81.8318 11.8687C81.8318 11.8687 81.8318 11.7414 81.9591 11.6141Z" fill="#74846A"/>
</svg>
