<svg width="95" height="28" viewBox="0 0 95 28" fill="none" xmlns="http://www.w3.org/2000/svg">
<mask id="mask0_968_5071" style="mask-type:luminance" maskUnits="userSpaceOnUse" x="5" y="2" width="56" height="26">
<path d="M5.65454 2.08154H60.1417V27.9335H5.65454V2.08154Z" fill="white"/>
</mask>
<g mask="url(#mask0_968_5071)">
<path d="M49.3759 12.7027C51.5679 10.8169 53.772 8.94301 55.8905 6.99563C57.2128 5.78364 58.5478 4.57165 59.6254 3.1143C59.8333 2.83216 60.1522 2.57548 60.0292 2.14697C58.6701 2.14697 57.2983 2.15899 55.9393 2.15899C55.2781 2.20778 54.6778 2.41638 54.0782 2.70983C50.9923 4.22871 48.1391 6.12659 45.3468 8.13479C40.8283 11.3924 36.6281 15.0779 32.2313 18.4947C29.8681 20.3317 27.4187 22.0585 24.7126 23.3688C23.5373 23.9444 22.3247 24.4705 20.9536 24.4337C19.7041 24.3969 18.9942 23.8341 18.7488 22.6341C18.4794 21.3111 18.8591 20.0623 19.3124 18.8624C20.1206 16.7311 21.2958 14.7965 22.6429 12.9721C24.8109 10.0206 27.2228 7.30181 29.9664 4.87713C30.5788 4.32629 31.2399 3.81222 31.8028 3.21188C31.9131 3.08955 32.0602 2.93045 31.9866 2.75862C31.9131 2.56275 31.6925 2.63629 31.5334 2.64902C30.9578 2.67306 30.3702 2.5875 29.7946 2.69781C28.9984 2.70983 28.2149 2.72185 27.4187 2.70983C26.5984 2.69781 25.7902 2.85691 24.982 2.88166C24.6758 2.96722 24.4064 3.12632 24.1497 3.29744C21.0879 5.37988 18.3083 7.81659 15.5406 10.2533C13.0304 12.4701 10.5569 14.735 8.13224 17.0373C7.97243 17.1964 7.691 17.2827 7.76454 17.6009C7.80131 17.6497 7.8501 17.6864 7.8996 17.7112C8.81743 18.1029 9.71192 18.5435 10.581 19.0335C10.9607 19.2421 11.3157 19.4988 11.6833 19.7441C11.7569 19.7929 11.8177 19.8785 11.8912 19.952C11.928 20.0008 11.916 20.0991 11.8672 20.1479C11.5115 20.4541 11.071 20.6132 10.6545 20.797C10.1645 21.0049 9.66243 21.2008 9.17311 21.3966C9.03805 21.4461 8.9037 21.507 8.76864 21.5685C8.54802 21.6788 8.36488 21.8379 8.2178 22.0338C8.13224 22.1561 8.09547 22.2911 8.15628 22.4502C8.22982 22.6093 8.31538 22.7564 8.46246 22.842C8.65833 22.9523 8.8542 23.0499 9.05007 23.1234C9.42979 23.2705 9.82153 23.4055 10.214 23.5519C10.4339 23.6382 10.6665 23.7237 10.8871 23.8341C11.1325 23.9444 11.1445 24.0787 10.9359 24.2746C10.7896 24.4096 10.6425 24.532 10.4954 24.6423C10.0669 24.9605 9.61364 25.2419 9.13634 25.4873C8.35215 25.879 7.56867 26.2708 6.76044 26.6017C6.49104 26.7113 6.22163 26.8343 5.97697 26.9807C5.68281 27.1525 5.68281 27.4955 5.97697 27.6913C6.05051 27.7401 6.14809 27.8017 6.24638 27.8017C6.93157 27.8017 7.61746 27.8504 8.29134 27.7769C8.9037 27.7161 9.50333 27.6913 10.1037 27.6793C10.3243 27.6666 10.5442 27.6793 10.7528 27.6298C11.083 27.5563 11.426 27.5563 11.7689 27.5322C12.0631 27.5195 12.3565 27.5322 12.6387 27.4835C12.9569 27.4219 13.263 27.4099 13.5812 27.4099C14.1936 27.4099 14.7939 27.4099 15.4056 27.4099C15.5774 27.4099 15.7485 27.3972 15.9204 27.434C16.3977 27.5443 16.8877 27.5195 17.3777 27.5195C18.2595 27.5195 19.1285 27.5195 20.0103 27.5075C20.2062 27.5075 20.402 27.4835 20.5979 27.4707C20.8433 27.4587 21.0759 27.4219 21.3206 27.4219C22.6061 27.4099 23.9043 27.4219 25.1906 27.4219C25.3617 27.4219 25.5328 27.4099 25.7046 27.434C26.1819 27.5322 26.672 27.5075 27.162 27.5195C27.7496 27.5322 28.3252 27.5443 28.9128 27.5563C29.1087 27.5563 29.3045 27.581 29.4884 27.5931C29.7578 27.6178 30.0152 27.6546 30.2846 27.6546C31.4966 27.6666 32.7213 27.6666 33.934 27.6793C34.1787 27.6793 34.4233 27.6666 34.6687 27.6546C34.9621 27.4587 35.1219 27.1525 35.3178 26.8831C36.505 25.1564 37.8521 23.5646 39.3094 22.0585C42.4568 18.7393 45.8976 15.703 49.3759 12.7027Z" fill="#EFC77F"/>
</g>
<path d="M82.3901 18.2005C82.6107 17.9806 82.8554 17.7847 83.088 17.5641C84.8636 15.9229 86.6151 14.2456 88.4027 12.6044C88.5745 12.4453 88.8559 12.2614 88.6481 11.9312C88.1333 11.7841 87.6312 11.6491 87.1172 11.49C86.799 11.3924 86.456 11.3189 86.2234 11.0495C86.1371 10.9512 86.3945 10.6697 86.9213 10.2653C87.4969 9.82474 88.0845 9.40825 88.6601 8.96772C88.8927 8.7959 89.1133 8.60003 89.3092 8.39214C89.6274 8.06121 89.5539 7.65745 89.1501 7.42481C89.0886 7.38804 89.0271 7.35127 88.9542 7.32652C88.6113 7.21621 88.2804 7.05711 87.9134 7.06913C87.5945 7.1554 87.3498 7.35127 87.1051 7.54714C83.4798 10.4124 79.9534 13.4006 76.3408 16.2785C73.5732 18.4699 70.7935 20.6379 67.7197 22.4014C66.4094 23.1601 65.0624 23.846 63.5315 24.0419C62.3563 24.189 61.6584 23.4175 61.915 22.2664C62.1724 21.1399 62.7728 20.2094 63.4459 19.3029C66.0785 15.7765 69.2874 12.7882 72.5203 9.83676C75.3614 7.25298 78.3122 4.79153 81.3245 2.40362C81.5451 2.21977 81.9001 1.97511 81.7657 1.71772C81.6187 1.44831 81.2022 1.58337 80.896 1.64489C79.6352 1.66893 78.3737 1.62014 77.1123 1.81601C76.8916 1.96309 76.635 2.04865 76.4143 2.21977C73.6099 4.42454 70.8055 6.64062 68.0747 8.94297C64.0335 12.347 60.0419 15.8253 56.0496 19.3029C53.1108 21.8746 50.1346 24.4096 47.0735 26.8343C46.8529 27.0054 46.5347 27.1157 46.6082 27.4954C46.8529 27.4954 47.0982 27.5075 47.3309 27.5075C49.7556 27.4707 52.1923 27.5075 54.6169 27.5442C54.8376 27.5442 55.0575 27.5442 55.2661 27.581C55.5595 27.6425 55.8417 27.6425 56.1351 27.6425C58.2784 27.6425 60.4089 27.6425 62.5521 27.6425C62.9927 27.6425 63.4212 27.6545 63.8624 27.5562C64.0463 27.5195 64.2542 27.5322 64.438 27.5322C65.4053 27.5195 66.3847 27.5075 67.3527 27.4954C67.5486 27.4954 67.7445 27.5075 67.9276 27.4587C68.2465 27.3971 68.5527 27.3851 68.8709 27.3851C69.1891 27.3851 69.508 27.3731 69.8135 27.3731C70.6344 27.3484 71.4667 27.4099 72.2876 27.2628C72.4347 27.238 72.5811 27.2501 72.7282 27.2501C72.924 27.238 73.1199 27.226 73.3038 27.214C73.9776 26.9446 74.2711 26.2707 74.7491 25.8054C77.3201 23.2952 79.8551 20.7482 82.3901 18.2005Z" fill="#EFC77F"/>
<path d="M75.3486 2.46475C75.5445 2.30565 75.8507 2.20737 75.7899 1.86442C75.3246 1.86442 74.8586 1.82765 74.406 1.88917C73.928 1.94998 73.4387 1.96271 72.9607 1.97473C72.214 1.98675 71.4546 1.99948 70.7079 2.0115C70.512 2.0115 70.3154 1.99948 70.1323 2.03625C69.7525 2.12181 69.3608 2.12181 68.9684 2.12181C68.0993 2.12181 67.2296 2.12181 66.3478 2.10978C66.1279 2.10978 65.9193 2.08504 65.6994 2.06029C65.1726 1.99948 64.6338 1.99948 64.107 2.04827C63.74 2.08504 63.3843 2.09706 63.0173 2.10978C62.3194 2.12181 61.6088 2.13383 60.9108 2.14655C60.5071 2.51354 60.3352 3.05236 59.9923 3.45683C58.5597 5.14612 56.956 6.66499 55.3148 8.15912C52.4368 10.7797 49.4493 13.2652 46.5346 15.8489C44.0243 18.0778 41.5381 20.3433 39.2358 22.78C38.0238 24.0663 36.8479 25.4133 35.8685 26.8947C35.7214 27.1153 35.44 27.3232 35.6479 27.6662C35.9421 27.6789 36.2235 27.6909 36.5176 27.6789C38.2812 27.6789 40.044 27.6662 41.8075 27.6662C42.3831 27.6662 42.9707 27.6542 43.5463 27.6662C44.1346 27.6789 44.6975 27.5559 45.2731 27.5318C45.6648 27.336 46.0078 27.0665 46.3507 26.7844C51.5918 22.6704 56.5395 18.2128 61.572 13.8655C66.1032 9.97144 70.6711 6.13819 75.3486 2.46475Z" fill="#EFC77F"/>
<path d="M22.6306 13.8409C21.2836 15.7635 20.1204 17.7844 19.4465 20.0373C19.2019 20.8703 18.994 21.7273 19.2386 22.6211C19.496 23.5516 19.8878 23.8578 20.8303 23.9193C22.1286 24.0049 23.2678 23.5396 24.3942 23.0008C27.6639 21.4331 30.5291 19.2538 33.3582 17.025C36.3458 14.6491 39.2485 12.1756 42.2728 9.84923C45.6648 7.2407 49.1671 4.77924 52.9388 2.73428C53.1474 2.62397 53.4776 2.55043 53.3185 2.17071C53.245 2.17071 53.1715 2.15869 53.0979 2.15869C51.3959 2.15869 49.7059 2.15869 48.0039 2.17071C47.8568 2.17071 47.7097 2.17071 47.5754 2.20748C47.2812 2.269 46.9998 2.269 46.7056 2.269C45.7143 2.28102 44.7102 2.29304 43.7181 2.30577C43.4975 2.30577 43.2769 2.30577 43.069 2.34254C42.7508 2.40335 42.4446 2.40335 42.1257 2.41608C40.7666 2.4281 39.4076 2.44012 38.0485 2.46487C37.8279 2.46487 37.6072 2.45214 37.3994 2.48891C37.0564 2.55043 36.7255 2.55043 36.3825 2.56245C35.464 2.57518 34.5334 2.5872 33.6149 2.59922C33.3823 2.73428 33.1256 2.78307 32.905 2.96692C31.6435 4.03253 30.3947 5.11017 29.1948 6.24862C26.7573 8.55097 24.5653 11.086 22.6306 13.8409Z" fill="#EFC77F"/>
<mask id="mask1_968_5071" style="mask-type:luminance" maskUnits="userSpaceOnUse" x="62" y="0" width="31" height="24">
<path d="M62.3137 0.916504H92.7251V23.6232H62.3137V0.916504Z" fill="white"/>
</mask>
<g mask="url(#mask1_968_5071)">
<path d="M71.1851 11.7845C68.5158 14.2827 65.9073 16.8177 63.752 19.7805C63.1884 20.5647 62.6376 21.3849 62.4297 22.365C62.2579 23.1732 62.6376 23.6505 63.4706 23.6017C64.0094 23.577 64.5234 23.3931 65.0135 23.1972C67.6828 22.1323 70.0099 20.4911 72.2995 18.8011C77.1857 15.1885 81.7777 11.1969 86.5294 7.40039C86.7126 7.25331 86.9452 7.13098 86.8844 6.8248C86.8229 6.77601 86.7861 6.71449 86.8349 6.64095C86.8717 6.58014 86.9332 6.53064 86.982 6.48185C87.46 5.99182 87.9988 5.57604 88.5496 5.17158C89.2476 4.68155 89.9335 4.1795 90.6194 3.67745C91.2317 3.23692 91.8073 2.75892 92.3334 2.20808C92.4805 2.04898 92.6028 1.86513 92.6763 1.65724C92.7131 1.55895 92.6891 1.46137 92.6523 1.37581C92.554 1.13044 92.3829 0.97134 92.1135 0.959319C91.9664 0.946591 91.8193 0.93457 91.6722 0.93457C90.7537 0.946591 89.8232 0.959319 88.9046 0.97134C88.7575 0.97134 88.6112 0.97134 88.4641 1.00811C88.1332 1.09367 87.7902 1.08165 87.4473 1.1064C86.7741 1.14246 86.1002 1.27752 85.415 1.28954C85.0841 1.38783 84.7411 1.38783 84.3982 1.38783C84.0553 1.38783 83.725 1.4246 83.3941 1.53491C83.1494 1.69401 82.88 1.79159 82.6474 1.97544C80.676 3.55512 78.7166 5.14683 76.7812 6.78803C74.8833 8.41651 73.0095 10.0697 71.1851 11.7845Z" fill="#EFC77F"/>
</g>
<mask id="mask2_968_5071" style="mask-type:luminance" maskUnits="userSpaceOnUse" x="74" y="12" width="21" height="16">
<path d="M74.4421 12.2188H94.5248V27.2434H74.4421V12.2188Z" fill="white"/>
</mask>
<g mask="url(#mask2_968_5071)">
<path d="M94.3295 14.2455C94.2687 14.1472 94.1704 14.0616 94.0848 13.9881C93.7786 13.7434 93.4357 13.5596 93.068 13.4125C92.6027 13.2166 92.1254 13.0208 91.6474 12.8489C91.0598 12.641 90.4602 12.4204 89.8351 12.3228C89.4561 12.1878 89.2475 12.4699 89.0269 12.6778C86.8355 14.7475 84.6067 16.7677 82.4267 18.8622C79.9532 21.2374 77.5526 23.6988 75.1406 26.1363C74.8465 26.4297 74.4795 26.7239 74.4915 27.2259C75.1279 27.2139 75.753 27.2139 76.3894 27.2012C76.7444 27.1036 77.1121 27.1156 77.4797 27.1156C78.0186 27.1036 78.5447 27.0908 79.0835 27.0788C79.2553 27.0788 79.4264 27.0908 79.5983 27.0421C80.002 26.9445 80.4185 26.9565 80.835 26.9445C81.704 26.9317 82.5738 26.7479 83.4428 26.7726C83.4676 26.7726 83.4923 26.7726 83.5164 26.7606C83.8961 26.6503 84.2878 26.6623 84.6675 26.6503C84.8146 26.6503 84.9617 26.6503 85.1088 26.6135C85.4637 26.5153 85.8307 26.5032 86.1984 26.5032C86.3208 26.5032 86.4431 26.4912 86.5534 26.4545C86.8108 26.3809 87.0802 26.3809 87.3496 26.3562C87.5455 26.3441 87.7293 26.3194 87.9252 26.2954C88.1211 26.2706 88.3049 26.2459 88.5008 26.2218C88.6719 26.1971 88.8437 26.1971 89.0028 26.1723C89.4801 26.0995 89.9581 25.9892 90.4354 25.9524C91.0966 25.8909 91.721 25.7198 92.3701 25.6215C92.689 25.5727 92.9704 25.4256 93.1663 25.1562C93.2519 25.0339 93.3006 24.8988 93.2278 24.7524C93.1663 24.6174 93.1175 24.483 92.9945 24.3847C92.7986 24.2136 92.6027 24.0177 92.3828 23.8707C91.9048 23.5397 91.4028 23.2336 90.9255 22.9154C90.5945 22.7068 90.2763 22.4989 89.9581 22.2783C89.5904 22.0216 89.5784 21.8257 89.9334 21.5315C90.178 21.3357 90.4354 21.1518 90.6928 20.9807C90.9127 20.8336 91.1086 20.6498 91.2804 20.4419C91.4643 20.2213 91.4515 19.9151 91.2437 19.7192C91.1333 19.6209 91.011 19.5354 90.8887 19.4746C90.6681 19.3763 90.4354 19.3027 90.2028 19.2419C89.7863 19.1189 89.3578 19.0213 88.9413 18.899C88.9045 18.8862 88.8925 18.8254 88.8805 18.7887C88.8805 18.7759 88.8925 18.7392 88.9045 18.7271C88.9781 18.6663 89.0396 18.5928 89.1252 18.5433C89.5169 18.3107 89.9214 18.066 90.3131 17.8454C90.9255 17.5024 91.5498 17.1722 92.1622 16.8293C92.6027 16.5719 93.044 16.3145 93.4604 16.021C93.7051 15.8619 93.913 15.6533 94.1216 15.4575C94.2192 15.3599 94.3047 15.2248 94.3663 15.1025C94.5501 14.7843 94.5133 14.5022 94.3295 14.2455Z" fill="#EFC77F"/>
</g>
<path d="M7.04177 17.2945C7.29916 17.2457 7.47028 17.0618 7.64211 16.89C9.47918 15.0409 11.4379 13.3389 13.3605 11.6001C16.4343 8.80845 19.5329 6.04082 22.9001 3.59139C23.084 3.45704 23.3286 3.334 23.2551 3.0158C22.9122 3.02782 22.5699 2.99105 22.239 3.05257C21.8472 3.11409 21.4675 3.13813 21.0758 3.15086C20.8064 3.16288 20.537 3.16288 20.2796 3.21167C19.9614 3.27319 19.6552 3.28521 19.337 3.29723C19.0428 3.30996 18.7487 3.28521 18.4673 3.34673C18.0388 3.43229 17.5975 3.43229 17.157 3.44431C16.7893 3.45704 16.4223 3.42027 16.0673 3.48108C15.4917 3.57937 14.9034 3.57937 14.3285 3.59139C14.0344 3.60341 13.7402 3.59139 13.4588 3.64018C13.1406 3.7017 12.8344 3.71372 12.5155 3.72645C11.9767 3.75049 11.4506 3.71372 10.9238 3.84878C10.2139 3.83605 9.52797 3.97111 8.81732 4.0199C8.69499 4.03263 8.57266 4.0199 8.45033 4.04465C7.88677 4.19173 7.28714 4.15496 6.72357 4.30204C6.49093 4.36285 6.24627 4.41164 6.01363 4.44841C5.38855 4.5467 4.78892 4.73054 4.18858 4.95046C3.91917 5.04874 3.66249 5.20784 3.4051 5.3429C3.246 5.42846 3.14771 5.56281 3.07417 5.72191C2.93982 5.9793 2.97659 6.26073 3.15973 6.46933C3.36833 6.68995 3.61299 6.83632 3.89513 6.92259C4.37243 7.08169 4.86246 7.24079 5.35178 7.37514C6.47891 7.68132 7.60534 7.9875 8.69499 8.39196C9.24654 8.58783 9.78536 8.80845 10.2994 9.08988C10.4953 9.20019 10.6664 9.32252 10.8382 9.45687C11.0094 9.59193 10.9853 9.72628 10.7895 9.86134C10.6664 9.9469 10.5441 10.0204 10.4097 10.082C10.018 10.2898 9.61353 10.4369 9.19704 10.584C8.07062 10.9757 6.93146 11.3187 5.79301 11.6616C5.22945 11.8328 4.69063 12.0286 4.12777 12.1637C3.44187 12.3348 2.78072 12.5922 2.13159 12.8369C1.86219 12.9351 1.62955 13.0695 1.38418 13.1918C1.20104 13.2781 1.06598 13.4124 0.931628 13.5595C0.747779 13.7674 0.711009 14.0496 0.858088 14.3062C0.95567 14.4781 1.078 14.6251 1.26185 14.7227C1.62955 14.9186 1.99654 15.1145 2.36423 15.2983C3.82159 16.021 5.33975 16.6206 6.83388 17.2825C6.88267 17.2825 6.96823 17.2825 7.04177 17.2945Z" fill="#EFC77F"/>
<path d="M35.2931 16.2906C35.5137 16.0947 35.7584 15.9477 35.9663 15.7398C36.322 15.4088 36.7625 15.1762 37.0687 14.7965C37.0934 14.7597 37.1422 14.735 37.191 14.7109C37.5827 14.5023 37.8401 14.1233 38.2319 13.9147C38.4405 13.6453 38.7834 13.523 39.016 13.2656C39.359 12.8859 39.8363 12.6532 40.1792 12.2742C40.5957 12.0656 40.8651 11.6491 41.2809 11.4412C41.4407 11.2454 41.6854 11.1718 41.8565 11C42.4081 10.4859 43.0324 10.0822 43.6448 9.62891C44.098 9.29798 44.5386 8.96776 44.9798 8.62481C45.6282 8.12276 46.3021 7.64476 46.9753 7.17948C48.3351 6.2369 49.7061 5.34311 51.1267 4.49812C51.6535 4.19194 52.1796 3.88576 52.7064 3.5916C53.3435 3.23663 54.0047 2.93045 54.6658 2.61225C55.0088 2.44042 55.3758 2.29334 55.7682 2.24455C55.829 2.23253 55.8905 2.18304 55.9513 2.14697C55.0823 2.14697 54.2005 2.14697 53.3308 2.14697C53.3188 2.24455 53.282 2.33011 53.1964 2.39163C53.1349 2.4284 53.0741 2.46517 53.0006 2.50194C52.425 2.82014 51.8494 3.1143 51.2738 3.44452C50.8693 3.67716 50.4903 3.93455 50.0979 4.16719C49.5103 4.51014 48.9474 4.88985 48.3718 5.24482C47.4165 5.83243 46.5348 6.50631 45.6162 7.13069C45.4571 7.241 45.298 7.35131 45.1389 7.46162C44.6489 7.81659 44.1716 8.18358 43.6816 8.53925C43.1915 8.90624 42.7142 9.27394 42.2362 9.62891C41.93 9.86155 41.6239 10.1062 41.3304 10.3516C41.1466 10.4979 40.9627 10.6698 40.7548 10.7921C40.5222 10.9392 40.3383 11.1351 40.1305 11.2942C39.8363 11.5028 39.5789 11.7594 39.2727 11.968C39.0528 12.1271 38.8562 12.2983 38.6604 12.4701C38.4405 12.666 38.1951 12.813 37.9872 13.0209C37.669 13.3271 37.2645 13.523 36.9831 13.8539C36.5051 14.1106 36.1989 14.5759 35.7216 14.8332C35.3666 15.213 34.9134 15.4456 34.5584 15.8253C34.4113 15.9844 34.2034 16.082 34.0443 16.2171C33.4928 16.6823 32.9052 17.1229 32.3296 17.5641C32.2561 17.6256 32.1585 17.6617 32.097 17.7352C31.6069 18.2132 31.0313 18.5802 30.4925 18.9847C29.7826 19.5235 29.0232 20.0008 28.2885 20.5156C27.4682 21.0784 26.6232 21.6173 25.7535 22.0953C24.8844 22.5726 23.9899 23.0131 23.0594 23.3688C22.6556 23.5279 22.2271 23.6502 21.7979 23.699C21.3941 23.7358 20.9656 23.7237 20.5612 23.7117C20.1454 23.687 19.8265 23.4791 19.6186 23.1114C19.5083 22.9155 19.5083 22.6949 19.4347 22.487C19.2877 22.0585 19.3004 21.63 19.41 21.2008C19.4468 21.0912 19.4715 20.9681 19.4715 20.8458C19.4715 20.6252 19.545 20.4173 19.6066 20.2094C19.9 19.2294 20.2797 18.2868 20.745 17.3803C21.2471 16.3762 21.8347 15.4336 22.423 14.4903C22.6797 14.0865 22.9986 13.7068 23.2553 13.3023C23.6717 12.678 24.1865 12.1271 24.615 11.5148C24.982 11.1598 25.2147 10.6945 25.6064 10.3636C25.6432 10.3388 25.6799 10.2901 25.6927 10.2533C25.839 9.95913 26.0844 9.76326 26.305 9.53062C26.4882 9.33475 26.7088 9.16363 26.8438 8.94301C27.015 8.6736 27.2356 8.45299 27.4555 8.23307C27.9823 7.69426 28.5211 7.16746 29.0599 6.62864C29.4029 6.28569 29.7211 5.91799 30.1496 5.66131C30.2359 5.61252 30.2967 5.52625 30.3582 5.46544C30.7747 5.06098 31.1784 4.64449 31.6557 4.28952C32.0234 4.02011 32.2928 3.62837 32.7093 3.39573C32.954 3.12632 33.2361 2.9057 33.5416 2.69781C33.5784 2.67306 33.6031 2.62427 33.6279 2.57548C33.0763 2.57548 32.5255 2.56275 31.9619 2.56275C31.3863 2.56275 30.8114 2.57548 30.2231 2.57548C30.076 2.57548 29.9297 2.5875 29.8194 2.68579C30.407 2.68579 30.9826 2.69781 31.5702 2.69781C31.6685 2.69781 31.766 2.70983 31.8523 2.72185C31.8763 2.72185 31.9011 2.82014 31.8891 2.84489C31.6557 3.16309 31.3863 3.44452 31.0681 3.66514C30.7987 3.84899 30.5788 4.0689 30.3582 4.2775C30.1623 4.46135 29.9905 4.68126 29.7706 4.81632C29.5012 4.98744 29.2805 5.20805 29.0599 5.42867C28.3005 6.1874 27.5418 6.93482 26.7943 7.69426C26.4882 8.00043 26.1452 8.28186 25.9373 8.6736C25.9006 8.73512 25.839 8.78391 25.7902 8.8327C25.472 9.16363 25.1171 9.45708 24.8844 9.87357C24.5047 10.1797 24.2721 10.633 23.9412 10.976C23.7941 11.1351 23.6838 11.3309 23.5494 11.5028C23.3903 11.6859 23.2312 11.8697 23.0841 12.0656C22.8147 12.4333 22.5701 12.8371 22.2879 13.192C21.7618 13.8412 21.3694 14.5638 20.9289 15.2497C20.745 15.5312 20.5612 15.8253 20.4148 16.1315C19.9856 17.0005 19.5203 17.8583 19.1653 18.7641C18.9447 19.3276 18.8351 19.9273 18.6633 20.5029C18.6018 20.7235 18.6145 20.9314 18.5897 21.152C18.5777 21.2743 18.5657 21.3966 18.5162 21.507C18.4306 21.7523 18.4306 21.985 18.5042 22.2176C18.5409 22.352 18.5657 22.499 18.5897 22.6461C18.6513 23.1729 18.8839 23.6382 19.2636 23.9811C19.6794 24.3601 20.1822 24.6055 20.7818 24.5808C21.0512 24.5687 21.3206 24.5808 21.59 24.5808C21.7618 24.5808 21.9209 24.5567 22.0921 24.52C22.8515 24.3601 23.5862 24.0787 24.2841 23.7725C25.2634 23.344 26.2067 22.842 27.1132 22.2664C27.382 22.0953 27.6514 21.9355 27.9087 21.7643C28.7417 21.2135 29.562 20.662 30.3702 20.0864C31.2767 19.4379 32.1458 18.7521 33.0395 18.0782C33.2481 17.9191 33.4808 17.772 33.6646 17.5889C33.9828 17.2827 34.3866 17.0868 34.6687 16.7559C34.9254 16.6823 35.0972 16.4744 35.2931 16.2906Z" fill="#F6E3C5"/>
<path d="M76.0098 16.7929C76.3896 16.5235 76.7205 16.2173 77.0875 15.9359C77.5287 15.6049 77.9692 15.25 78.3977 14.895C78.7167 14.6376 79.0469 14.3929 79.3531 14.1108C79.5737 13.9149 79.7816 13.7191 80.0269 13.56C80.2716 13.4009 80.4307 13.1435 80.7001 13.0091C80.8104 12.9596 80.884 12.8621 80.9815 12.7765C81.1781 12.5926 81.3492 12.384 81.6066 12.2744C81.9001 11.9803 82.2678 11.7724 82.5619 11.4903C82.9289 11.1353 83.3822 10.8906 83.7251 10.5109C83.9698 10.4006 84.1536 10.192 84.3495 10.0209C84.5454 9.84976 84.79 9.7147 84.9739 9.51883C85.2801 9.20063 85.6965 9.02881 85.978 8.68586C86.2962 8.51474 86.5415 8.22058 86.835 8.01269C87.0188 7.89036 87.1779 7.7553 87.3498 7.60822C87.5089 7.46185 87.6927 7.33881 87.8638 7.20446C87.9006 7.17971 87.9126 7.1189 87.9374 7.08213C87.803 7.03263 87.668 6.9598 87.5336 6.94707C87.313 6.93505 87.1044 6.86151 86.8965 6.81272C86.7989 6.92303 86.7254 7.05738 86.6024 7.13092C86.3697 7.278 86.1866 7.47387 85.978 7.62095C85.6845 7.82884 85.4271 8.09825 85.133 8.30685C84.8883 8.47797 84.6677 8.66182 84.4598 8.85769C84.3742 8.94325 84.276 9.01679 84.1777 9.09033C83.7859 9.37175 83.4189 9.68995 83.0392 9.99613C82.6595 10.3023 82.2678 10.5844 81.9248 10.9274C81.7898 11.0617 81.6066 11.1473 81.4595 11.2696C81.0918 11.5885 80.6761 11.8452 80.3572 12.2129C80.3204 12.2497 80.2836 12.2744 80.2348 12.2985C80.0269 12.3968 79.8919 12.5559 79.7328 12.715C79.6225 12.8133 79.5249 12.9356 79.4018 12.9964C79.0228 13.217 78.7407 13.56 78.3737 13.8046C78.006 14.0373 77.7126 14.3802 77.3696 14.6376C77.0507 14.8702 76.7813 15.1397 76.4631 15.3603C76.2792 15.4826 76.1201 15.6297 75.949 15.764C75.7652 15.9231 75.5446 16.0334 75.3734 16.2053C75.1776 16.4011 74.9569 16.5355 74.7363 16.6946C74.5284 16.8537 74.3446 17.0503 74.112 17.1966C73.6467 17.5028 73.2182 17.8585 72.7769 18.2007C72.1285 18.7155 71.4546 19.1808 70.7815 19.6461C69.887 20.2704 68.9812 20.8708 68.0506 21.4464C67.6949 21.6663 67.3527 21.8749 66.985 22.0587C66.3606 22.3769 65.7362 22.6951 65.0744 22.9645C64.6218 23.1484 64.1565 23.2707 63.6906 23.393C63.3483 23.4793 63.0174 23.4298 62.7232 23.2099C62.6256 23.1364 62.5521 23.0381 62.5521 22.9037C62.5521 22.7807 62.5401 22.6584 62.5641 22.536C62.6865 21.9484 62.8951 21.4464 63.2133 20.9316C63.5562 20.3808 63.8871 19.8052 64.3029 19.3031C64.6091 18.9234 64.8545 18.4949 65.2214 18.1767C65.295 18.1152 65.3685 18.0416 65.4053 17.9561C65.5524 17.6619 65.797 17.466 66.0177 17.2334C66.2015 17.0375 66.4094 16.8664 66.5565 16.6458C66.7156 16.4011 66.9114 16.1925 67.1193 15.9847C68.1729 14.9318 69.2138 13.8782 70.2667 12.8373C70.5976 12.5191 70.8911 12.1641 71.2955 11.9188C71.4179 11.8452 71.5161 11.7229 71.6137 11.6253C71.9447 11.2944 72.2629 10.9762 72.5938 10.6453C72.6914 10.5477 72.7897 10.4253 72.912 10.3518C73.2182 10.18 73.4388 9.92259 73.6834 9.68995C73.9281 9.45732 74.1487 9.18791 74.4549 9.02881C74.5532 8.98002 74.6387 8.86971 74.7243 8.78415C75.0185 8.50272 75.2879 8.17179 75.6549 7.97592C76.0466 7.54741 76.5366 7.21648 76.9651 6.82474C77.0755 6.72645 77.161 6.60412 77.2961 6.53059C77.5407 6.39623 77.7126 6.20036 77.9205 6.02854C78.1163 5.85742 78.361 5.72236 78.5448 5.52649C78.9245 5.11071 79.4386 4.86534 79.8063 4.42481C80.0877 4.24096 80.3572 4.03307 80.6025 3.7877C80.6393 3.75093 80.6761 3.72689 80.7249 3.70214C80.9327 3.61658 81.0678 3.43273 81.2389 3.29768C81.4228 3.13858 81.6434 3.02827 81.8145 2.85715C82.0104 2.66128 82.243 2.53895 82.4516 2.36712C82.6595 2.196 82.8306 2.00013 83.076 1.86507C83.2231 1.79153 83.3454 1.65718 83.4062 1.48535C82.7083 1.48535 82.0104 1.49808 81.3125 1.49808C81.1654 1.49808 81.0183 1.5101 80.9087 1.60839C81.1534 1.62041 81.386 1.63243 81.6307 1.65718C81.6554 1.65718 81.6922 1.74274 81.6802 1.76749C81.5331 2.00013 81.3492 2.18327 81.1166 2.31833C80.9207 2.42864 80.7736 2.58774 80.6145 2.73482C80.4307 2.89392 80.2101 3.01625 80.039 3.17535C79.684 3.50627 79.2427 3.73891 78.9366 4.11863C78.9125 4.1554 78.863 4.17944 78.827 4.20419C78.6063 4.3145 78.4345 4.49835 78.2634 4.65745C78.1531 4.75503 78.0548 4.86534 77.9325 4.93888C77.7366 5.04919 77.5895 5.19627 77.4304 5.35537C77.3201 5.45295 77.2346 5.57599 77.1002 5.64882C76.8548 5.78388 76.6717 5.96773 76.4878 6.15157C76.4023 6.23713 76.316 6.33472 76.2057 6.38421C75.961 6.50654 75.7772 6.70241 75.5941 6.89828C75.4837 6.99586 75.3975 7.13092 75.2751 7.19244C74.8954 7.41235 74.602 7.74328 74.2838 8.04946C74.1975 8.13502 74.112 8.23331 74.0016 8.2821C73.757 8.40443 73.5852 8.61232 73.3893 8.79617C73.0958 9.0783 72.8264 9.3965 72.4587 9.60439C72.3364 9.67793 72.2381 9.80026 72.1405 9.89855C71.9199 10.1192 71.6993 10.3518 71.4667 10.5717C71.3443 10.6948 71.234 10.8291 71.0876 10.9147C70.8303 11.0617 70.6344 11.2696 70.4258 11.4782C69.4832 12.4208 68.5279 13.3641 67.5853 14.3194C66.8867 15.0293 66.14 15.6785 65.5396 16.4867C65.2342 16.8905 64.805 17.1966 64.5483 17.6379C64.2294 17.9073 64.0095 18.2623 63.7521 18.5805C63.4706 18.9482 63.2012 19.3151 62.9438 19.6949C62.7968 19.9155 62.6865 20.1601 62.5274 20.3808C62.0868 21.0299 61.8415 21.7646 61.6824 22.536C61.5968 22.9157 61.7439 23.2587 61.9397 23.5649C62.1109 23.8343 62.393 24.0054 62.6992 24.091C62.9926 24.1772 63.2868 24.3236 63.6177 24.1645C63.7153 24.1157 63.8504 24.1157 63.9727 24.1157C64.1686 24.1157 64.3524 24.0542 64.5356 23.9934C65.2582 23.7607 65.9441 23.4913 66.63 23.1604C67.2424 22.867 67.83 22.524 68.4176 22.1811C68.7485 21.9852 69.0667 21.7646 69.3976 21.5567C70.3282 20.9931 71.1852 20.3192 72.1038 19.7196C72.2261 19.634 72.3484 19.5725 72.4707 19.4749C73.3525 18.7891 74.247 18.1279 75.116 17.442C75.4102 17.2702 75.6916 17.0135 76.0098 16.7929Z" fill="#F6E3C5"/>
<path d="M62.5521 13.8902C62.8335 13.7432 63.0541 13.4978 63.2748 13.2899C63.3844 13.1916 63.4706 13.0693 63.605 12.9957C63.8624 12.8487 64.0582 12.6408 64.2661 12.4329C64.3764 12.3346 64.462 12.2123 64.585 12.1387C64.8912 11.9676 65.1111 11.7102 65.3565 11.4776C65.4668 11.3793 65.5644 11.269 65.6867 11.1961C65.8826 11.0858 66.0297 10.9267 66.1888 10.7797C66.3238 10.6446 66.4709 10.5102 66.642 10.412C66.7891 10.3264 66.8994 10.2041 67.0338 10.0817C67.1441 9.98345 67.2296 9.86112 67.3527 9.78758C67.6581 9.61646 67.8788 9.37109 68.1241 9.13845C68.2097 9.05289 68.2952 8.9546 68.3935 8.90581C68.6382 8.78348 68.8093 8.57559 69.0052 8.40376C69.2258 8.20789 69.4712 8.06082 69.6791 7.86495C70.034 7.53402 70.4753 7.30138 70.7814 6.92237C70.8055 6.8856 70.8543 6.86085 70.9038 6.8361C71.3203 6.54265 71.6993 6.21172 72.0917 5.89352C72.4099 5.63613 72.7649 5.41552 73.0463 5.11004C73.4388 4.91347 73.6954 4.52173 74.0872 4.32586C74.3078 4.09322 74.5772 3.93412 74.8226 3.72623C75.0672 3.52965 75.3119 3.32176 75.5693 3.13791C75.9978 2.83173 76.3895 2.45202 76.8308 2.15856C76.9411 2.08502 77.0139 1.93795 77.1122 1.82764C76.6717 1.84036 76.2184 1.84036 75.7772 1.85239C75.7531 1.88916 75.7284 1.94997 75.6916 1.97472C75.2263 2.32969 74.749 2.64859 74.3326 3.05235C74.0384 3.18741 73.8545 3.46884 73.5851 3.62794C73.2061 3.84856 72.9487 4.22828 72.5443 4.42415C72.2628 4.7671 71.8591 4.96296 71.5402 5.25642C71.234 5.52582 70.9038 5.78321 70.5849 6.02787C70.4137 6.16293 70.2426 6.28526 70.0828 6.44436C69.9485 6.57942 69.8134 6.71377 69.6303 6.81206C69.52 6.87287 69.4217 6.94641 69.3481 7.03197C69.0052 7.42442 68.5279 7.64433 68.1849 8.02405C67.8915 8.1591 67.6829 8.40376 67.4623 8.62438C67.4255 8.66115 67.4015 8.69792 67.3527 8.72196C66.997 8.90581 66.7523 9.19997 66.4709 9.46938C66.3974 9.53019 66.3358 9.61646 66.2503 9.65252C66.0056 9.77556 65.8338 9.97143 65.6379 10.1553C65.5524 10.2408 65.4668 10.3384 65.3565 10.3879C65.1111 10.5102 64.94 10.7181 64.7441 10.902C64.6338 10.9996 64.5483 11.1346 64.4259 11.1961C64.083 11.392 63.8256 11.6855 63.5442 11.9549C63.4706 12.0164 63.4091 12.102 63.3235 12.1387C63.0789 12.2611 62.9071 12.4569 62.7112 12.6528C62.6009 12.7511 62.5153 12.8854 62.393 12.9469C62.05 13.1428 61.7927 13.437 61.5112 13.7064C61.4377 13.7672 61.3762 13.8535 61.2906 13.8902C61.0212 14.0246 60.8373 14.2452 60.6295 14.4531C60.4576 14.6249 60.2865 14.8081 60.0906 14.9311C59.8827 15.0655 59.7109 15.2373 59.5398 15.3964C59.4168 15.5187 59.3072 15.6658 59.1721 15.7393C58.8292 15.9352 58.5718 16.2286 58.2903 16.4981C58.18 16.5963 58.0945 16.7187 57.9601 16.7922C57.6539 16.9633 57.4333 17.2207 57.1887 17.4534C57.0656 17.5757 56.956 17.7108 56.8089 17.7963C56.5028 17.9674 56.2821 18.2248 56.0375 18.4575C55.9512 18.543 55.8657 18.6413 55.7681 18.7028C55.4859 18.8492 55.278 19.0946 55.0454 19.3145C54.9103 19.4495 54.788 19.6086 54.6169 19.7069C54.3107 19.878 54.0901 20.1354 53.8454 20.3681C53.7599 20.4536 53.6736 20.5519 53.576 20.6007C53.3066 20.7351 53.1228 20.9557 52.9022 21.1636C52.7918 21.2619 52.7063 21.3842 52.584 21.4577C52.2778 21.6296 52.0572 21.8742 51.8125 22.1069C51.7022 22.2044 51.6046 22.3147 51.4816 22.3883C51.2857 22.4986 51.1386 22.6577 50.9795 22.8048C50.8692 22.9031 50.7716 23.0254 50.6493 23.0862C50.4039 23.2213 50.2328 23.4171 50.0369 23.5883C49.8411 23.7601 49.5957 23.8944 49.4126 24.0783C49.0696 24.458 48.5916 24.6786 48.2487 25.0704C47.9672 25.2174 47.7593 25.4741 47.5019 25.6459C47.2446 25.8298 46.9999 26.0257 46.7673 26.2456C46.7305 26.2823 46.6817 26.2951 46.6449 26.3318C46.302 26.6013 45.947 26.8579 45.6161 27.1273C45.4938 27.2377 45.3955 27.3847 45.2852 27.5071C45.7264 27.5071 46.1797 27.495 46.6202 27.495C46.7185 27.3847 46.804 27.2744 46.9016 27.1768C46.9752 27.1153 47.0855 27.0906 47.147 27.017C47.4404 26.6868 47.8329 26.4909 48.1631 26.1968C48.4813 25.9026 48.837 25.6459 49.1799 25.3765C49.351 25.2415 49.5222 25.1191 49.682 24.96C49.7916 24.8618 49.8778 24.7394 50.0122 24.6659C50.2576 24.5315 50.4407 24.3477 50.6245 24.1638C50.7349 24.0663 50.8324 23.956 50.9675 23.8944C51.1386 23.7969 51.2737 23.6618 51.4208 23.5274C51.5311 23.4292 51.6166 23.3068 51.739 23.2333C52.0451 23.0622 52.2658 22.8168 52.5104 22.5721C52.596 22.4866 52.6822 22.3883 52.7798 22.3395C53.0492 22.2044 53.2331 21.9845 53.4537 21.7759C53.5633 21.6783 53.6496 21.556 53.7719 21.4825C54.0781 21.3107 54.298 21.066 54.5434 20.8334C54.6537 20.7351 54.7512 20.6248 54.8736 20.5519C55.0942 20.4289 55.2533 20.2578 55.4251 20.0859C55.5475 19.9636 55.6578 19.8165 55.7921 19.7437C56.1351 19.5471 56.3924 19.2537 56.6739 18.9843C56.7594 18.8987 56.833 18.8004 56.9433 18.7389C57.311 18.531 57.5804 18.2128 57.8738 17.9307C57.9842 17.8331 58.0824 17.7228 58.2048 17.6492C58.4254 17.5269 58.5845 17.3558 58.7683 17.184C58.8907 17.0616 59.001 16.9145 59.1353 16.841C59.503 16.6331 59.7724 16.3142 60.0659 16.0328C60.1762 15.9352 60.2745 15.8249 60.3968 15.7513C60.6174 15.629 60.7765 15.4572 60.9604 15.2861C61.0827 15.1637 61.193 15.0167 61.3274 14.9431C61.6951 14.7345 61.9645 14.4163 62.2579 14.1349C62.3682 14.0493 62.4418 13.939 62.5521 13.8902Z" fill="#F6E3C5"/>
<path d="M46.3877 16.1923C46.6451 16.0332 46.841 15.8254 47.0488 15.6295C47.2447 15.4456 47.4038 15.225 47.6244 15.0779C47.9554 14.87 48.2248 14.5886 48.5062 14.3192C48.5918 14.2329 48.6653 14.1233 48.7756 14.0738C49.1186 13.878 49.3759 13.5845 49.6574 13.3151C49.7309 13.2536 49.7917 13.168 49.878 13.1313C50.1474 12.9962 50.3305 12.7763 50.5391 12.5677C50.7103 12.3966 50.8821 12.2127 51.078 12.0904C51.2859 11.9553 51.4577 11.7842 51.6288 11.6251C51.7511 11.5028 51.8614 11.3557 51.9965 11.2822C52.3394 11.0863 52.5961 10.7921 52.8783 10.5227C52.9879 10.4251 53.0741 10.3021 53.1965 10.2286C53.5026 10.0575 53.7233 9.80006 53.9679 9.56742C54.0903 9.44509 54.2006 9.29801 54.3476 9.22447C54.6906 9.02861 54.9473 8.73515 55.2294 8.46575C55.3885 8.31867 55.5356 8.13482 55.7187 8.02451C55.9761 7.86541 56.172 7.66954 56.3806 7.46165C57.3232 6.51836 58.2664 5.56306 59.221 4.6325C59.6991 4.16722 60.0788 3.66517 60.4946 3.05281C60.6911 2.77138 60.8623 2.48925 60.9238 2.13428C60.6296 2.13428 60.3355 2.13428 60.0293 2.14701C59.7358 2.69784 59.1475 3.53011 58.7685 3.90983C57.8372 4.8411 56.9067 5.77165 55.9761 6.69019C55.8538 6.81252 55.7435 6.94687 55.5964 7.03243C55.3397 7.17951 55.1431 7.40013 54.9353 7.596C54.6043 7.9142 54.2989 8.25715 53.9064 8.51454C53.6497 8.68566 53.4539 8.95507 53.2212 9.16366C52.9886 9.37155 52.7192 9.5554 52.4858 9.76329C52.1803 10.0454 51.9109 10.3636 51.5432 10.5715C51.4209 10.6451 51.3354 10.7674 51.225 10.8657C51.1147 10.964 51.0292 11.0983 50.9061 11.1719C50.4776 11.4292 50.1594 11.7962 49.8165 12.1272C49.7429 12.188 49.6694 12.2615 49.5838 12.311C49.3632 12.4206 49.2041 12.6045 49.0203 12.7763C48.8979 12.8986 48.7876 13.0457 48.6533 13.1185C48.3103 13.3151 48.0529 13.6086 47.7715 13.878C47.686 13.9635 47.6124 14.0618 47.5021 14.1233C47.1104 14.3432 46.8289 14.6742 46.51 14.9804C46.4245 15.0659 46.3389 15.1642 46.2286 15.213C45.9592 15.3473 45.7753 15.58 45.5674 15.7766C45.2365 16.0948 44.9431 16.4497 44.5266 16.6824C44.4043 16.7559 44.306 16.8782 44.2077 16.9765C43.963 17.2212 43.7304 17.4538 43.4857 17.6985C43.3754 17.7968 43.2771 17.9191 43.1548 17.9806C42.9342 18.103 42.763 18.2741 42.5912 18.4459C41.2322 19.805 39.8731 21.164 38.514 22.5238C38.391 22.6461 38.2566 22.7564 38.1711 22.9035C38.036 23.1362 37.8522 23.332 37.6563 23.5152C37.2278 23.8829 36.9711 24.3969 36.5666 24.7894C36.4443 25.0956 36.1629 25.2667 35.979 25.5241C35.5505 26.1364 35.122 26.7608 34.6928 27.3732C34.644 27.4467 34.632 27.5563 34.5952 27.6426C34.9382 27.6426 35.2811 27.6426 35.6241 27.6426C35.6361 27.569 35.6361 27.4835 35.6729 27.434C36.2725 26.5154 36.9343 25.6584 37.6443 24.8382C38.036 24.3729 38.4037 23.8949 38.8442 23.4791C38.881 23.4423 38.9058 23.4056 38.9298 23.3688C39.0528 23.1234 39.2487 22.9403 39.4446 22.7564C40.4607 21.7396 41.4648 20.7235 42.4816 19.7194C42.8118 19.4012 43.106 19.0455 43.5098 18.8009C43.6328 18.7273 43.7304 18.605 43.8287 18.5067C44.0853 18.25 44.3427 17.9926 44.6001 17.7353C44.7225 17.6129 44.8328 17.4786 44.9798 17.3923C45.3101 17.2092 45.5427 16.927 45.8001 16.6824C46.0207 16.5233 46.1798 16.3274 46.3877 16.1923Z" fill="#F6E3C5"/>
<path d="M19.1284 7.35132C19.1651 7.31455 19.2019 7.2898 19.2507 7.26505C19.6304 7.05716 19.8998 6.67744 20.2795 6.46955C20.561 6.1266 20.9534 5.91801 21.2836 5.63658C21.4307 5.51425 21.6146 5.42869 21.7489 5.29363C22.3365 4.75481 23.0104 4.31428 23.6595 3.849C24.1128 3.53009 24.5781 3.22462 25.0066 2.86895C24.5533 2.8449 24.1128 2.8449 23.6715 2.96723C23.5372 3.004 23.3901 3.004 23.2551 3.01603C23.1695 3.19987 23.0224 3.3222 22.8513 3.42049C22.5451 3.61636 22.251 3.83627 21.9575 4.04487C21.6754 4.24074 21.4555 4.49813 21.1613 4.68127C20.5002 5.09776 19.9486 5.63658 19.349 6.1266C18.9205 6.46955 18.4425 6.77573 18.0875 7.21626C18.0387 7.26505 17.9772 7.31455 17.9164 7.35132C17.6958 7.46163 17.5367 7.64477 17.3528 7.8166C17.2305 7.93893 17.1202 8.08601 16.9858 8.15955C16.6429 8.35542 16.3855 8.64887 16.104 8.91828C15.9937 9.01657 15.9082 9.1389 15.7851 9.21244C15.479 9.38356 15.259 9.64094 15.0137 9.87358C14.8426 10.0454 14.6835 10.2413 14.4876 10.3636C14.1446 10.5715 13.8873 10.8657 13.6178 11.123C13.4467 11.2942 13.2869 11.5028 13.091 11.6251C12.6137 11.9313 12.2588 12.3598 11.8543 12.7395C11.7072 12.8739 11.5976 13.033 11.4258 13.1312C11.1076 13.3151 10.8629 13.5965 10.6056 13.8412C10.2011 14.2209 9.85814 14.6742 9.35609 14.9556C8.58463 15.727 7.7764 16.4617 7.05444 17.2947C7.27435 17.4418 7.51972 17.5761 7.78913 17.6009C7.81317 17.6617 7.84994 17.7112 7.92348 17.7112C7.87469 17.6744 7.8259 17.6377 7.78913 17.6009C7.83792 17.4906 7.92348 17.3923 8.03379 17.3435C8.21764 17.2579 8.35199 17.1229 8.48705 16.9885C8.74373 16.7311 9.00112 16.4745 9.25851 16.2171C9.35609 16.1188 9.45438 15.9965 9.57671 15.9229C9.85814 15.7638 10.0667 15.5312 10.2994 15.3106C10.5808 15.0411 10.8502 14.7597 11.1196 14.4903C11.2179 14.3927 11.3155 14.2697 11.4378 14.1962C11.8055 13.9883 12.0749 13.6701 12.3691 13.3879C12.577 13.1921 12.7608 12.9474 12.9935 12.7883C13.4708 12.4821 13.8257 12.0536 14.2302 11.6739C14.3773 11.5388 14.4876 11.3677 14.6587 11.2821C15.0017 11.0863 15.2463 10.7801 15.5285 10.5227C15.6876 10.3756 15.8346 10.1918 16.0178 10.0822C16.2752 9.92237 16.471 9.71448 16.6796 9.51861C16.8508 9.34749 17.0219 9.16365 17.2185 9.04131C17.4016 8.91828 17.5734 8.78393 17.7205 8.62483C18.161 8.15955 18.7119 7.82862 19.1284 7.35132Z" fill="#F6E3C5"/>
<path d="M89.7256 12.249C89.3699 12.1508 89.0029 12.0532 88.6479 11.9429C88.6111 12.0284 88.6111 12.1508 88.5496 12.2123C88.1699 12.592 87.8397 13.0205 87.3744 13.2899C87.2761 13.3514 87.1906 13.449 87.105 13.5346C86.9084 13.7184 86.7253 13.9143 86.5294 14.0981C86.0514 14.5514 85.6476 15.0655 85.0841 15.4204C84.9858 15.482 84.913 15.5923 84.8267 15.6778C84.6188 15.8857 84.4229 16.0943 84.2023 16.2902C83.725 16.7434 83.3205 17.2575 82.7577 17.6125C82.6594 17.674 82.5859 17.7843 82.5003 17.8699C79.8182 20.5519 77.1369 23.2333 74.4548 25.9154C74.3325 26.0377 74.1974 26.148 74.1118 26.2951C73.9775 26.5277 73.7816 26.7109 73.5978 26.9075C73.4995 27.0171 73.4139 27.1274 73.3284 27.2377C73.7201 27.2377 74.1118 27.2257 74.5036 27.2257C74.7857 26.8947 75.0056 26.515 75.3118 26.2088C77.6997 23.8209 80.1004 21.433 82.4883 19.0331C82.5859 18.9355 82.6841 18.8004 82.8065 18.7389C83.1982 18.519 83.4796 18.1761 83.7858 17.8699C84.2391 17.4286 84.6803 16.9761 85.1329 16.5348C85.2552 16.4125 85.3655 16.2782 85.5126 16.2046C85.7452 16.0696 85.9291 15.8737 86.1249 15.6898C86.4679 15.3469 86.8108 15.004 87.1658 14.6617C87.2881 14.5387 87.3985 14.4043 87.5455 14.3188C87.8029 14.1717 87.9988 13.9631 88.2067 13.7552C88.6111 13.3635 89.0029 12.9717 89.3946 12.5672C89.517 12.4449 89.664 12.3594 89.8352 12.3346C89.7984 12.2978 89.7743 12.2611 89.7256 12.249Z" fill="#F6E3C5"/>
</svg>
