<svg width="94" height="22" viewBox="0 0 94 22" fill="none" xmlns="http://www.w3.org/2000/svg">
<mask id="mask0_968_5056" style="mask-type:luminance" maskUnits="userSpaceOnUse" x="0" y="0" width="94" height="22">
<path d="M0.711182 0.213867H93.9925V21.7956H0.711182V0.213867Z" fill="white"/>
</mask>
<g mask="url(#mask0_968_5056)">
<path fill-rule="evenodd" clip-rule="evenodd" d="M91.7149 0.225098H0.711182C0.711182 0.225098 0.960791 2.31956 2.43512 4.41402C3.90944 6.50848 4.77141 7.12155 4.27997 8.84548C3.78853 10.5694 2.80564 11.681 3.418 13.5258C4.03814 15.3707 3.90944 15.6203 2.92656 17.5868C1.94368 19.5603 1.32354 21.7757 1.32354 21.7757H92.2141C92.2141 21.7757 92.0854 19.4394 91.7149 17.5868C91.3514 15.7412 91.2235 15.3707 91.8436 13.5258C92.4559 11.681 91.594 9.82837 91.2235 9.70745C90.8529 9.58653 91.4731 8.59587 92.0854 8.10443C92.7056 7.61299 94.5504 6.75102 93.5675 4.53494C92.5769 2.31956 91.7149 0.225098 91.7149 0.225098Z" fill="#E6EEEF"/>
</g>
<path fill-rule="evenodd" clip-rule="evenodd" d="M87.4956 8.77766C86.1718 8.28552 84.5688 7.83226 83.6538 8.09672C81.8924 8.61079 82.1795 10.9549 82.6561 11.4619C83.1398 11.9759 84.0399 12.4299 86.8903 11.5297C90.5729 10.3729 90.4067 9.86591 87.4956 8.77766ZM25.4756 3.06845C24.1519 2.57701 22.5489 2.12305 21.6261 2.38751C19.8647 2.90228 20.1518 5.24635 20.6361 5.75265C21.1198 6.26672 22.0122 6.72068 24.8703 5.82053C28.5452 4.6637 28.3868 4.1574 25.4756 3.06845ZM55.9407 12.0516C54.6177 11.5524 53.0147 11.0984 52.0997 11.3706C50.3298 11.8854 50.6254 14.2217 51.1013 14.7358C51.5857 15.2498 52.4851 15.696 55.3362 14.7966C59.011 13.6468 58.8519 13.1405 55.9407 12.0516Z" fill="#5A7CAF"/>
<path fill-rule="evenodd" clip-rule="evenodd" d="M9.82314 11.9377C8.49942 11.4462 6.8964 10.993 5.9814 11.2574C4.21999 11.7715 4.50708 14.1085 4.98367 14.6226C5.46733 15.1366 6.36749 15.5906 9.21785 14.6904C12.8927 13.5336 12.7343 13.0266 9.82314 11.9377ZM74.8603 16.2178C73.5366 15.7264 71.9336 15.2724 71.0186 15.5376C69.2572 16.0516 69.5443 18.3957 70.0209 18.902C70.5045 19.4161 71.4047 19.87 74.2551 18.9706C77.9299 17.813 77.7715 17.3068 74.8603 16.2178ZM70.9507 2.93968C69.6277 2.44824 68.0247 1.99427 67.1097 2.25944C65.3398 2.77351 65.6276 5.11758 66.1113 5.63165C66.5949 6.13794 67.4873 6.59191 70.3461 5.69246C74.021 4.53492 73.8619 4.02863 70.9507 2.93968ZM43.6308 5.89611C42.3 5.3976 40.697 4.94363 39.782 5.20809C38.0199 5.72216 38.3077 8.06623 38.7913 8.58101C39.2679 9.09508 40.1674 9.54126 43.0184 8.64111C46.7011 7.48428 46.5342 6.97728 43.6308 5.89611ZM29.1958 16.1577C27.8721 15.6585 26.2691 15.2045 25.347 15.4767C23.5849 15.9837 23.872 18.3278 24.3564 18.8419C24.84 19.356 25.7324 19.8021 28.5906 18.902C32.2654 17.7452 32.107 17.2459 29.1958 16.1577Z" fill="white"/>
<mask id="mask1_968_5056" style="mask-type:luminance" maskUnits="userSpaceOnUse" x="2" y="0" width="89" height="22">
<path d="M2.21533 0.213867H90.7343V21.7956H2.21533V0.213867Z" fill="white"/>
</mask>
<g mask="url(#mask1_968_5056)">
<path fill-rule="evenodd" clip-rule="evenodd" d="M2.74512 0.225098C2.13276 1.12525 2.38237 2.50906 2.73805 2.88666C3.22171 3.40073 4.12186 3.84692 6.97223 2.94747C10.6245 1.80549 10.4887 1.2992 7.6454 0.225098H2.74512ZM52.274 0.225098H46.9127C46.4212 1.12525 46.6631 2.38037 46.9961 2.74312C47.4798 3.25719 48.3799 3.70337 51.2303 2.80393C54.7086 1.7072 54.7538 1.20091 52.274 0.225098ZM18.1481 21.7757H24.8176C26.0883 21.1181 25.4377 20.6259 23.298 19.8248C21.9672 19.3333 20.3642 18.8794 19.4492 19.1445C18.1559 19.5221 17.9671 20.8756 18.1481 21.7757ZM88.4632 15.8324C87.1324 15.341 85.5294 14.887 84.6144 15.1515C82.853 15.6656 83.1401 18.0096 83.6244 18.5166C84.1003 19.0307 85.0005 19.4847 87.8586 18.5845C91.5335 17.4277 91.3673 16.9214 88.4632 15.8324ZM83.5261 3.32507C82.1947 2.83363 80.5916 2.38037 79.6766 2.64483C77.9152 3.1589 78.2023 5.50297 78.6867 6.00997C79.1626 6.52404 80.0627 6.9773 82.9131 6.07785C86.5957 4.92102 86.4295 4.41402 83.5261 3.32507ZM67.0413 9.10216C65.7105 8.60365 64.1075 8.14969 63.1925 8.41414C61.4311 8.92821 61.7181 11.2723 62.2018 11.7871C62.6784 12.3011 63.5786 12.7473 66.4289 11.8472C70.1115 10.6903 69.9454 10.184 67.0413 9.10216ZM36.8936 1.66195C35.5628 1.16273 33.9669 0.708761 33.0448 0.980999C31.2827 1.488 31.5705 3.83207 32.0541 4.34614C32.5307 4.86021 33.4302 5.30639 36.2883 4.40695C39.9639 3.25012 39.797 2.7509 36.8936 1.66195ZM42.5342 16.0891C41.2112 15.5977 39.6082 15.1444 38.6932 15.4089C36.9311 15.923 37.2189 18.267 37.6948 18.774C38.1791 19.2881 39.0786 19.7413 41.9297 18.8419C45.6045 17.6851 45.4454 17.1781 42.5342 16.0891ZM21.4984 8.7776C20.1747 8.28545 18.5717 7.83219 17.6567 8.09665C15.8875 8.61072 16.1823 10.9548 16.6589 11.4618C17.1426 11.9759 18.035 12.4298 20.8931 11.5297C24.568 10.3728 24.4096 9.86584 21.4984 8.7776Z" fill="#8FAAD3"/>
</g>
<path d="M8.45424 18.3653C8.09928 18.2295 7.69834 18.1008 7.32782 18.0252C6.97214 17.9495 6.6398 17.9191 6.41282 17.987C6.2615 18.033 6.14058 18.1008 6.05007 18.1913C5.88319 18.3427 5.80046 18.5619 5.76228 18.7811C5.73187 19.0081 5.7552 19.235 5.80753 19.409C5.83794 19.5151 5.87612 19.5978 5.92137 19.643C6.03451 19.764 6.20068 19.8778 6.51888 19.9153C6.85123 19.9457 7.35822 19.8856 8.12897 19.643C9.08923 19.3411 9.55097 19.1368 9.5736 18.9706C9.59623 18.8263 9.20307 18.6375 8.45424 18.3653ZM91.4803 3.27273C91.1176 3.13626 90.7244 3.00756 90.3539 2.9319C89.9912 2.85624 89.6659 2.83361 89.4311 2.9022C89.2876 2.93968 89.1667 3.01534 89.0762 3.09878C88.9093 3.25717 88.8188 3.46931 88.7884 3.68851C88.7587 3.91549 88.7813 4.14177 88.8266 4.31572C88.857 4.42956 88.9022 4.51229 88.9397 4.55048C89.0535 4.67917 89.2275 4.79231 89.5372 4.82272C89.8773 4.86019 90.3843 4.80009 91.1551 4.55048C92.1153 4.24783 92.5771 4.05126 92.5997 3.88509C92.6145 3.74154 92.2214 3.55204 91.4803 3.27273ZM90.3992 2.68229C90.7845 2.76573 91.201 2.89442 91.5716 3.03797C92.4335 3.35546 92.8946 3.61285 92.8493 3.91549C92.8111 4.20258 92.2971 4.45926 91.2307 4.80009C90.4218 5.0497 89.8851 5.11758 89.5146 5.0794C89.1214 5.04192 88.9022 4.8906 88.7509 4.7315C88.6901 4.65654 88.6222 4.53492 88.5847 4.39138C88.5239 4.18773 88.4935 3.91549 88.5388 3.65033C88.5769 3.37809 88.683 3.11363 88.9022 2.90927C89.0231 2.80391 89.1745 2.7127 89.3632 2.65259C89.6355 2.57693 90.006 2.59956 90.3992 2.68229ZM77.0532 9.54126C76.6897 9.40479 76.2966 9.2761 75.926 9.20044C75.5633 9.12478 75.238 9.10215 75.004 9.17074C74.8604 9.20821 74.7395 9.2761 74.6483 9.36731C74.4821 9.52571 74.3916 9.73784 74.3612 9.95704C74.3308 10.184 74.3534 10.4103 74.3987 10.5843C74.4291 10.6903 74.4743 10.7738 74.5125 10.819C74.6334 10.9399 74.7996 11.0608 75.11 11.0913C75.4501 11.1217 75.9564 11.0608 76.7279 10.819C77.6881 10.5164 78.1492 10.3198 78.1718 10.1536C78.1874 10.0101 77.7942 9.82057 77.0532 9.54126ZM75.9791 8.95153C76.3574 9.02649 76.7731 9.16296 77.1437 9.29872C78.0134 9.624 78.4667 9.88138 78.4214 10.184C78.3839 10.4711 77.8699 10.7285 76.8036 11.0686C75.9946 11.3182 75.4572 11.3861 75.0867 11.3479C74.6935 11.3027 74.4743 11.1591 74.3308 10.993C74.2629 10.9251 74.195 10.8035 74.1568 10.6599C74.0967 10.4485 74.0663 10.184 74.1116 9.91886C74.1491 9.64662 74.2551 9.38216 74.4743 9.17781C74.5952 9.06467 74.7466 8.97416 74.9361 8.92113C75.2083 8.84547 75.5788 8.86809 75.9791 8.95153ZM63.4872 15.9307C63.1323 15.7942 62.7313 15.6655 62.3608 15.5906C62.0051 15.5149 61.6728 15.4845 61.4458 15.5524C61.2945 15.5977 61.1736 15.6655 61.0831 15.7568C60.9169 15.9081 60.8335 16.1273 60.8031 16.3465C60.7656 16.5735 60.7882 16.7998 60.8412 16.9737C60.8709 17.0798 60.9091 17.1632 60.9544 17.2085C61.0675 17.3294 61.2344 17.4503 61.5519 17.4807C61.892 17.5111 62.3912 17.4503 63.1627 17.2085C64.1229 16.9058 64.584 16.7015 64.6066 16.5353C64.6292 16.3918 64.2361 16.21 63.4872 15.9307ZM62.4139 15.341C62.7992 15.4166 63.2079 15.5524 63.5785 15.6889C64.4475 16.0134 64.9015 16.2708 64.864 16.5735C64.8258 16.8606 64.3117 17.118 63.2383 17.4503C62.4287 17.7077 61.892 17.7678 61.5215 17.7303C61.1283 17.6921 60.9169 17.5408 60.7656 17.3824C60.697 17.3145 60.6369 17.1936 60.5916 17.0423C60.5308 16.8379 60.5082 16.5735 60.5464 16.3083C60.5838 16.0361 60.697 15.7716 60.9091 15.5673C61.03 15.4541 61.1814 15.3636 61.3702 15.3106C61.6502 15.2271 62.0207 15.2575 62.4139 15.341ZM58.8069 4.7018C58.4441 4.57311 58.051 4.44441 57.6805 4.36097C57.317 4.28602 56.9924 4.26268 56.7577 4.33127C56.6141 4.37653 56.4932 4.44441 56.402 4.52785C56.2358 4.68624 56.1531 4.89838 56.1149 5.11758C56.0845 5.34456 56.1071 5.57084 56.1602 5.75257C56.1906 5.85863 56.2288 5.94136 56.2662 5.98733C56.3871 6.10824 56.5533 6.22138 56.8637 6.25179C57.2039 6.28926 57.7102 6.22916 58.4816 5.98733C59.4419 5.68468 59.9036 5.48033 59.9262 5.31416C59.9411 5.17061 59.5479 4.98111 58.8069 4.7018ZM57.7335 4.11207C58.1111 4.1948 58.5269 4.3235 58.8974 4.46704C59.7671 4.79231 60.2211 5.04192 60.1758 5.35163C60.1377 5.63165 59.6236 5.88904 58.5573 6.22916C57.7483 6.48584 57.2116 6.54665 56.8411 6.50847C56.448 6.47099 56.2358 6.31967 56.0845 6.16128C56.0166 6.08561 55.9565 5.9647 55.9106 5.82045C55.8505 5.6168 55.8278 5.34456 55.8653 5.0794C55.9035 4.81494 56.0166 4.5427 56.2288 4.34612C56.3497 4.23299 56.5003 4.14177 56.6898 4.08944C56.9691 4.006 57.3326 4.02863 57.7335 4.11207ZM12.757 4.87575C12.3943 4.73928 12.0004 4.61058 11.6299 4.52785C11.2671 4.45926 10.9419 4.42956 10.7078 4.49744C10.5643 4.5427 10.4433 4.61058 10.3521 4.69402C10.186 4.85312 10.1025 5.06455 10.065 5.28375C10.0346 5.51073 10.0573 5.74479 10.1025 5.91874C10.1407 6.0248 10.1782 6.10824 10.2164 6.1535C10.3373 6.27441 10.5035 6.38755 10.8139 6.41796C11.154 6.45614 11.6603 6.39533 12.4317 6.1535C13.392 5.85085 13.853 5.6465 13.8757 5.48033C13.8912 5.33678 13.4981 5.14799 12.757 4.87575ZM11.6829 4.27824C12.0612 4.36097 12.477 4.48967 12.8475 4.63321C13.7173 4.95848 14.1712 5.20809 14.1253 5.51851C14.0878 5.79782 13.5737 6.06299 12.5074 6.39533C11.6985 6.65272 11.1611 6.71282 10.7905 6.67534C10.3974 6.63716 10.186 6.48584 10.0346 6.32745C9.96675 6.25179 9.90594 6.13087 9.86069 5.98733C9.80058 5.78297 9.77796 5.51073 9.81543 5.25335C9.85291 4.98111 9.96675 4.70887 10.1782 4.51229C10.2991 4.39916 10.4504 4.30865 10.6399 4.25561C10.9192 4.17217 11.2827 4.1948 11.6829 4.27824ZM7.38085 17.7678C7.76623 17.8512 8.17423 17.987 8.54476 18.1235C9.4145 18.4487 9.86847 18.6983 9.83028 19.0081C9.78503 19.2881 9.27874 19.5525 8.20463 19.8856C7.3957 20.1423 6.859 20.2031 6.48848 20.1649C6.09532 20.1274 5.88319 19.9761 5.73187 19.817C5.66399 19.7413 5.60388 19.6204 5.55792 19.4769C5.49782 19.2725 5.47519 19.0081 5.51267 18.7436C5.55085 18.4714 5.66399 18.1991 5.87612 18.0025C5.99704 17.8887 6.14836 17.7982 6.33716 17.7452C6.61717 17.6624 6.9877 17.6921 7.38085 17.7678Z" fill="white"/>
<path d="M80.7427 14.9705C80.38 14.8341 79.9868 14.7054 79.6163 14.6297C79.2535 14.5541 78.9283 14.5244 78.6935 14.5922C78.55 14.6375 78.429 14.7054 78.3385 14.7888C78.1717 14.9479 78.0889 15.1671 78.0507 15.3863C78.021 15.6055 78.0437 15.8396 78.096 16.0135C78.1264 16.1196 78.1646 16.203 78.2021 16.2483C78.323 16.3692 78.4899 16.4823 78.7996 16.5205C79.1397 16.5509 79.6467 16.4901 80.4174 16.2483C81.3784 15.9457 81.8394 15.7413 81.8621 15.5751C81.8769 15.4316 81.4838 15.2428 80.7427 14.9705ZM32.1897 9.76763C31.8269 9.63186 31.426 9.50317 31.0555 9.42751C30.7005 9.35185 30.3752 9.32922 30.1405 9.3971C29.9969 9.43529 29.876 9.50317 29.7855 9.59368C29.6193 9.75278 29.5281 9.9642 29.4984 10.1841C29.4602 10.4104 29.4829 10.6374 29.5359 10.8113C29.5663 10.9174 29.6115 11.0001 29.649 11.0461C29.7629 11.167 29.929 11.2879 30.2465 11.3183C30.5867 11.348 31.0859 11.2879 31.8573 11.0461C32.8254 10.7434 33.2864 10.5469 33.309 10.3807C33.3239 10.2364 32.9307 10.0476 32.1897 9.76763ZM31.1085 9.1779C31.4946 9.25356 31.9026 9.39003 32.2809 9.5258C33.1429 9.85107 33.6039 10.1085 33.5586 10.4104C33.5212 10.6982 33.0064 10.9549 31.933 11.2957C31.1311 11.5446 30.5944 11.6132 30.2239 11.575C29.8308 11.5297 29.6115 11.3862 29.4602 11.22C29.3923 11.1514 29.3315 11.0305 29.2941 10.887C29.2332 10.6756 29.2028 10.4104 29.241 10.1459C29.2863 9.87369 29.3923 9.60923 29.6115 9.40488C29.7247 9.29174 29.8838 9.20052 30.0726 9.1482C30.3448 9.07254 30.7153 9.09517 31.1085 9.1779ZM18.0121 15.7943C17.6564 15.6656 17.2562 15.5299 16.8857 15.4542C16.5222 15.3786 16.197 15.3559 15.9707 15.4238C15.8194 15.4691 15.6984 15.5376 15.6072 15.6204C15.4411 15.7795 15.3576 15.9909 15.3201 16.2101C15.2897 16.4371 15.3124 16.6641 15.3654 16.8458C15.3958 16.9512 15.4333 17.0346 15.4715 17.0721C15.5924 17.2008 15.7585 17.3146 16.076 17.3443C16.4091 17.3825 16.9154 17.3217 17.6868 17.0799C18.6471 16.7701 19.1081 16.5736 19.1315 16.4067C19.1541 16.2631 18.7532 16.0743 18.0121 15.7943ZM16.938 15.2046C17.3163 15.288 17.7321 15.4167 18.1026 15.5603C18.9724 15.8855 19.4263 16.1345 19.3804 16.4449C19.3429 16.7249 18.8288 16.9816 17.7625 17.3217C16.9536 17.5791 16.4169 17.6392 16.0463 17.6017C15.6525 17.5642 15.4411 17.4129 15.2897 17.2538C15.2218 17.1781 15.161 17.0572 15.1158 16.9137C15.0557 16.7093 15.033 16.4371 15.0705 16.1726C15.1087 15.9082 15.2218 15.6359 15.4333 15.4394C15.5542 15.3255 15.7055 15.235 15.895 15.1742C16.1743 15.0985 16.5378 15.1219 16.938 15.2046ZM50.2167 17.7905C49.854 17.6547 49.4531 17.526 49.0825 17.4504C48.7269 17.3747 48.3945 17.3443 48.1675 17.4129C48.0162 17.4582 47.9031 17.526 47.8048 17.6166C47.6386 17.7679 47.5552 17.9871 47.5248 18.207C47.4873 18.4333 47.5099 18.6603 47.563 18.8342C47.5927 18.9403 47.6308 19.023 47.6761 19.069C47.7892 19.1899 47.9561 19.3108 48.2736 19.3412C48.6137 19.3709 49.1129 19.3108 49.8844 19.069C50.8517 18.7663 51.3057 18.562 51.3283 18.3958C51.351 18.2522 50.9578 18.0705 50.2167 17.7905ZM49.1356 17.2008C49.521 17.2764 49.9297 17.4129 50.3002 17.5487C51.1692 17.8739 51.6232 18.1313 51.5857 18.4333C51.5475 18.7211 51.0335 18.9777 49.9594 19.3108C49.1504 19.5675 48.6215 19.6283 48.251 19.5901C47.8501 19.5526 47.6386 19.4013 47.4873 19.2429C47.4187 19.1743 47.3586 19.0534 47.3134 18.9021C47.2525 18.6984 47.2299 18.4333 47.2681 18.1688C47.3056 17.8966 47.4187 17.6321 47.6308 17.4278C47.7518 17.3146 47.9031 17.2234 48.0919 17.1704C48.3719 17.0876 48.7424 17.118 49.1356 17.2008ZM79.6693 14.373C80.0469 14.4558 80.4634 14.5922 80.8339 14.728C81.703 15.0533 82.1569 15.3029 82.1117 15.6133C82.0735 15.8926 81.5594 16.1578 80.4931 16.4901C79.6842 16.7475 79.1475 16.8076 78.7769 16.7701C78.3838 16.732 78.1717 16.5806 78.021 16.4222C77.9525 16.3466 77.8923 16.2257 77.8471 16.0821C77.7863 15.8778 77.7637 15.6055 77.8011 15.3481C77.8393 15.0759 77.9525 14.8037 78.1646 14.6071C78.2855 14.494 78.4368 14.4034 78.6256 14.3504C78.9056 14.267 79.2684 14.2896 79.6693 14.373Z" fill="#5A7CAF"/>
</svg>
