<svg width="95" height="34" viewBox="0 0 95 34" fill="none" xmlns="http://www.w3.org/2000/svg">
<mask id="mask0_968_4968" style="mask-type:luminance" maskUnits="userSpaceOnUse" x="0" y="0" width="95" height="34">
<path d="M0.711182 0.484375H94.3545V33.7921H0.711182V0.484375Z" fill="white"/>
</mask>
<g mask="url(#mask0_968_4968)">
<path d="M94.2032 25.4355C94.0873 25.7826 93.856 26.2458 93.7401 26.5923V26.7082C93.7401 26.7082 93.7401 26.8242 93.6248 26.8242V26.9395C93.5088 27.2867 93.0464 28.097 92.8145 28.4442C92.8145 28.4442 92.6992 28.5595 92.5832 28.5595C92.1208 28.9067 91.6576 29.0226 91.1945 29.1379C90.2689 29.3698 89.4592 29.601 88.5336 29.601C87.8392 29.4851 87.0296 29.4851 86.3352 29.4851C86.2192 29.4851 86.2192 29.4851 86.2192 29.4851H86.104C85.2936 29.601 84.484 29.601 83.6736 29.601C83.3264 29.601 83.0952 29.601 82.748 29.601C81.4752 29.717 80.3184 29.9482 79.0456 29.9482C77.8881 29.9482 76.8472 29.9482 75.6897 30.0635C74.5328 30.2954 73.26 30.4107 72.1032 30.6426C71.9872 30.6426 71.756 30.6426 71.5248 30.7579C70.9456 30.7579 70.252 30.8738 69.6728 30.8738C69.6728 30.8738 69.5576 30.8738 69.4416 30.8738C68.516 30.9898 67.5904 30.9898 66.5488 30.9898C66.0864 30.9898 65.6232 30.9898 65.1608 30.9898H64.9288C64.2352 30.9898 63.4248 30.9898 62.7304 30.8738C62.3832 30.8738 62.0361 30.8738 61.8048 30.7579C59.6064 30.5266 57.408 30.7579 55.0936 30.8738C52.2009 31.221 49.3088 31.4523 46.416 31.6835C43.5232 31.9154 40.5144 31.9154 37.6216 31.9154C32.5304 31.9154 27.44 32.3779 22.3488 32.9563C19.224 33.3035 15.9848 33.9979 12.8608 33.5354C11.356 33.3035 10.1992 32.4938 8.69517 32.2626C8.00078 32.1466 3.71923 32.1466 3.60397 31.221C4.64484 30.4107 5.68641 29.8323 6.84395 29.2538C8.00078 28.7914 9.15762 28.3282 10.1992 27.5186C9.96797 26.2458 7.3064 26.8242 6.84395 25.7826C7.07518 25.4355 7.42237 25.2042 7.53763 24.857C7.19044 24.7411 7.42237 24.6258 7.3064 24.2786C7.19044 23.7002 6.95921 23.1211 6.49676 22.6586C5.80238 21.8483 4.87677 21.9642 3.95116 21.5018C4.64484 20.3443 1.2896 19.9971 0.711182 19.6499C1.75276 18.493 3.60397 17.9146 4.87677 16.989C5.33922 16.6418 5.80238 16.2946 6.0336 15.8315C6.38079 15.1378 5.91764 14.6746 5.91764 13.9803C5.91764 13.1706 6.61202 12.9394 7.19044 12.5922C7.65359 12.245 8.46323 11.6666 8.69517 11.0875C8.92639 10.625 8.69517 10.3938 8.46323 10.1619C8.46323 10.1619 8.34798 10.0466 8.23201 9.93064C8.23201 9.93064 8.23201 9.93064 8.11604 9.93064C7.53763 9.46748 7.19044 9.00503 6.72799 8.42661C6.38079 8.07942 6.14957 7.96346 6.14957 7.61626C6.14957 7.50101 6.14957 7.38504 6.14957 7.15381C6.14957 6.92259 6.26483 6.80662 6.26483 6.69066C6.38079 6.45943 6.61202 6.22821 6.84395 5.99627C7.3064 5.41786 8.00078 4.83944 8.23201 4.14506C8.23201 4.14506 8.23201 4.14506 8.23201 4.0298C8.23201 4.0298 8.23201 4.0298 8.23201 3.91383C8.23201 3.56664 8.11604 3.33542 8.34798 2.98823C8.69517 2.40981 9.38884 2.06262 10.3152 1.83139C10.4304 1.83139 10.5464 1.71543 10.6616 1.71543C11.356 1.59946 12.0504 1.4842 12.7448 1.4842C13.092 1.4842 13.3232 1.4842 13.5544 1.4842C13.7864 1.4842 14.0176 1.4842 14.2488 1.4842C14.596 1.4842 14.9432 1.4842 15.2904 1.4842C15.7528 1.4842 16.332 1.4842 16.9104 1.36824C18.5304 1.25227 20.3816 1.25227 22.58 1.13701C25.704 1.02104 29.4064 0.905785 31.7208 0.905785C32.6464 0.905785 33.572 0.905785 34.4976 1.02104C35.192 1.02104 35.8864 1.02104 36.5808 1.13701C36.696 1.13701 36.812 1.13701 36.812 1.13701C37.5064 1.13701 38.0848 1.25227 38.7792 1.25227H38.8944C39.5888 1.25227 40.2832 1.36824 40.9776 1.36824C42.8288 1.4842 44.5648 1.4842 46.416 1.4842C55.0936 1.4842 63.772 0.905078 72.4504 1.13701C74.764 1.25227 78.8137 1.25227 84.368 1.02104C87.608 0.905078 90.1536 0.673853 91.8888 0.558594C91.8888 0.673853 91.8888 0.789819 91.8888 0.905078C91.8888 1.59946 91.4264 1.94665 91.4264 2.29384C91.4264 3.21945 91.1945 4.14506 91.1945 5.07067C91.1945 6.22821 91.3104 6.69066 91.8888 7.61626C92.236 8.07942 92.236 8.42661 92.4673 8.88906C92.6992 9.46748 93.1616 9.93064 93.1616 10.625C93.1616 11.4347 93.1616 11.7819 92.5832 12.4762C92.1208 13.0547 92.236 13.5178 91.7736 13.9803C91.4264 14.5587 90.848 14.9059 90.2689 15.2531C89.6904 15.7162 89.228 15.9474 89.9217 16.4106C90.5008 16.873 91.1945 16.6418 91.7736 17.2202C92.1208 17.5674 92.1208 18.3771 92.352 18.9562C92.5832 19.4186 92.5832 19.7658 92.5832 20.229C92.4673 20.5755 92.236 20.9227 92.1208 21.2699C91.8888 22.3114 92.6992 22.7746 93.2776 23.4683L93.3929 23.5842C94.2032 24.2786 94.5504 24.6258 94.2032 25.4355Z" fill="#BBAECF"/>
</g>
<path d="M13.7864 1.71533C13.7864 2.29375 13.6705 2.75691 13.5545 3.1041V3.21936C13.5545 3.33532 13.4392 3.45058 13.4392 3.56655C12.7449 3.56655 11.9345 3.56655 11.2408 3.56655C10.6617 4.0297 10.0833 4.49215 9.50487 4.95531C9.38891 4.95531 9.27365 4.83935 9.15768 4.83935C9.04242 5.53373 8.92646 6.22811 8.81049 6.92249C8.57927 7.03775 8.23207 7.15372 7.88488 7.15372C7.53769 7.15372 7.1905 7.15372 6.84402 7.03775C6.72805 7.03775 6.61208 6.92249 6.38086 6.92249C6.49683 6.69056 6.72805 6.45934 6.95928 6.22811C7.42243 5.64969 8.11611 5.07057 8.34804 4.3769C8.4633 4.3769 8.57927 4.49215 8.69523 4.49215C8.57927 4.3769 8.4633 4.3769 8.4633 4.26093C8.4633 3.91374 8.34804 3.68251 8.57927 3.33532C8.92646 2.75691 9.62084 2.40971 10.5464 2.17778C10.6617 2.40971 10.8936 2.64094 11.0089 2.98813C11.0089 3.1041 11.0089 3.1041 11.1249 3.1041C11.1249 3.1041 11.1249 2.98813 11.1249 2.87216C11.0089 2.52497 11.0089 2.17778 11.0089 1.94656C11.7033 1.8313 12.3977 1.71533 13.092 1.71533C13.2073 1.71533 13.4392 1.71533 13.7864 1.71533Z" fill="#EDEDED"/>
<path d="M19.34 5.88092C19.1088 6.69056 18.1832 6.92249 17.7201 7.03775C17.2576 7.15372 16.7944 7.15372 16.4473 7.15372C16.216 7.15372 15.8688 7.03775 15.7529 7.03775C15.6376 6.34337 15.5216 5.64969 15.4064 4.95531C15.2904 5.07057 15.1745 5.07057 15.0592 5.07057C14.4801 4.60812 13.9017 4.14496 13.3232 3.68251C13.3232 3.56655 13.4392 3.45058 13.4392 3.33532V3.21936C13.7864 2.52497 14.1336 2.06252 14.3648 1.8313C14.712 1.8313 15.0592 1.8313 15.4064 1.8313C15.8688 1.8313 16.4473 1.8313 17.0257 1.71533C17.0257 1.71533 17.0257 1.8313 17.1416 1.8313C17.4888 2.64094 16.9104 3.33532 16.6785 3.79777C16.4473 4.14496 16.216 4.3769 15.9848 4.60812C16.6785 4.26093 17.2576 4.26093 17.6048 4.26093C18.1832 4.26093 18.7616 4.26093 19.1088 4.60812C19.34 4.83935 19.456 5.41776 19.34 5.88092Z" fill="#EDEDED"/>
<path d="M18.0671 7.73223C17.7199 7.501 16.9103 7.15381 15.9847 7.15381C15.6375 7.84819 15.4063 8.54187 15.0591 9.23625C15.2903 9.58344 15.8687 10.1619 16.6784 10.3938C17.1415 10.509 18.0671 10.7403 18.6455 10.2778C18.9927 9.93063 19.224 9.35222 19.1087 8.88906C19.1087 8.31064 18.6455 8.07942 18.0671 7.73223Z" fill="#EDEDED"/>
<path d="M15.2904 9.69922C14.712 10.1617 14.1336 10.6248 13.5544 11.0873C13.6704 11.5504 13.7864 12.2448 14.4801 12.9392C14.8272 13.2857 15.4064 13.9801 16.216 13.8648C16.6785 13.7488 17.1416 13.4016 17.3728 12.9392C17.4888 12.3601 17.2576 11.8976 16.9104 11.4345C16.5632 10.972 16.1 10.2776 15.2904 9.69922Z" fill="#EDEDED"/>
<path d="M9.27367 9.23625C9.15771 9.35222 8.92648 9.58344 8.69526 9.81467C8.57929 9.93063 8.34806 10.0466 8.11613 10.1619C8.11613 10.1619 8.11613 10.1619 8.00087 10.1619C7.42246 9.69941 7.07527 9.23625 6.61211 8.65783C6.26492 8.31064 6.03369 8.19468 6.03369 7.84819C6.14966 7.84819 6.14966 7.84819 6.14966 7.73223C6.49685 7.61626 6.9593 7.38503 7.65368 7.26907C7.88491 7.26907 8.11613 7.26907 8.34806 7.15381C8.69526 7.84819 9.04245 8.54187 9.27367 9.23625Z" fill="#EDEDED"/>
<path d="M10.8936 11.0877V11.2037C10.7776 11.6669 10.5464 12.2453 10.0832 12.9397C9.73603 13.2861 9.15761 13.9805 8.34797 13.8653C7.88481 13.7493 7.42236 13.4021 7.19043 12.9397V12.8237C7.65359 12.4765 8.46323 11.8981 8.69516 11.3197C8.92639 10.8565 8.69516 10.6253 8.46323 10.3941C8.57919 10.2781 8.69516 10.1621 8.92639 10.0469C9.04235 9.93091 9.04235 9.93091 9.15761 9.81494C9.73603 10.1621 10.3152 10.6253 10.8936 11.0877Z" fill="#EDEDED"/>
<path d="M11.2407 11.0874C11.0088 11.4346 10.7776 12.129 10.7776 13.0546C10.7776 13.5177 10.8936 14.4433 11.5879 14.9058C12.0504 15.1377 12.6288 15.1377 13.092 14.9058C13.5544 14.5586 13.6704 14.0962 13.6704 13.4018C13.7863 12.9393 13.7863 12.129 13.4392 11.2034C12.7448 11.0874 11.9344 11.0874 11.2407 11.0874Z" fill="#EDEDED"/>
<path d="M16.3319 7.15363C16.3319 7.29363 16.3249 7.43364 16.3107 7.57294C16.2973 7.71295 16.2768 7.85084 16.2492 7.98872C16.2223 8.1259 16.1877 8.26237 16.1474 8.39602C16.1064 8.53037 16.0597 8.6626 16.006 8.792C15.9522 8.9214 15.8921 9.04797 15.8263 9.17172C15.7599 9.29546 15.6878 9.41567 15.61 9.53164C15.5322 9.64831 15.4488 9.76074 15.3597 9.86964C15.2706 9.97782 15.1765 10.0818 15.0775 10.1808C14.9785 10.2798 14.8746 10.3738 14.7664 10.4629C14.6582 10.552 14.5458 10.6354 14.4291 10.7132C14.3124 10.791 14.1922 10.8631 14.0685 10.9289C13.9447 10.9954 13.8182 11.0555 13.6888 11.1085C13.5594 11.1622 13.4271 11.2096 13.2935 11.2506C13.1591 11.2909 13.0234 11.3249 12.8855 11.3524C12.7483 11.38 12.6097 11.4005 12.4704 11.414C12.3304 11.4281 12.1904 11.4345 12.0504 11.4345C11.9104 11.4345 11.7704 11.4281 11.6311 11.414C11.4911 11.4005 11.3525 11.38 11.2153 11.3524C11.0774 11.3249 10.9416 11.2909 10.808 11.2506C10.6736 11.2096 10.5414 11.1622 10.412 11.1085C10.2826 11.0555 10.156 10.9954 10.0323 10.9289C9.90854 10.8631 9.78833 10.791 9.67166 10.7132C9.55569 10.6354 9.44255 10.552 9.33437 10.4629C9.22618 10.3738 9.12223 10.2798 9.02324 10.1808C8.92424 10.0818 8.8302 9.97782 8.7411 9.86964C8.65201 9.76074 8.56857 9.64831 8.49078 9.53164C8.413 9.41567 8.34088 9.29546 8.27441 9.17172C8.20865 9.04797 8.14854 8.9214 8.0948 8.792C8.04177 8.6626 7.99439 8.53037 7.95338 8.39602C7.91307 8.26237 7.87913 8.1259 7.85156 7.98872C7.82398 7.85084 7.80347 7.71295 7.79004 7.57294C7.7759 7.43364 7.76953 7.29363 7.76953 7.15363C7.76953 7.01291 7.7759 6.87361 7.79004 6.7336C7.80347 6.5943 7.82398 6.45571 7.85156 6.31853C7.87913 6.18064 7.91307 6.04488 7.95338 5.91052C7.99439 5.77688 8.04177 5.64465 8.0948 5.51525C8.14854 5.38585 8.20865 5.25928 8.27441 5.13553C8.34088 5.01179 8.413 4.89158 8.49078 4.7749C8.56857 4.65823 8.65201 4.5458 8.7411 4.43761C8.8302 4.32943 8.92424 4.22548 9.02324 4.12648C9.12223 4.02678 9.22618 3.93274 9.33437 3.84435C9.44255 3.75525 9.55569 3.67181 9.67166 3.59403C9.78833 3.51554 9.90854 3.44412 10.0323 3.37765C10.156 3.31189 10.2826 3.25179 10.412 3.19805C10.5414 3.14431 10.6736 3.09764 10.808 3.05663C10.9416 3.01561 11.0774 2.98167 11.2153 2.9548C11.3525 2.92722 11.4911 2.90672 11.6311 2.89258C11.7704 2.87914 11.9104 2.87207 12.0504 2.87207C12.1904 2.87207 12.3304 2.87914 12.4704 2.89258C12.6097 2.90672 12.7483 2.92722 12.8855 2.9548C13.0234 2.98167 13.1591 3.01561 13.2935 3.05663C13.4271 3.09764 13.5594 3.14431 13.6888 3.19805C13.8182 3.25179 13.9447 3.31189 14.0685 3.37765C14.1922 3.44412 14.3124 3.51554 14.4291 3.59403C14.5458 3.67181 14.6582 3.75525 14.7664 3.84435C14.8746 3.93274 14.9785 4.02678 15.0775 4.12648C15.1765 4.22548 15.2706 4.32943 15.3597 4.43761C15.4488 4.5458 15.5322 4.65823 15.61 4.7749C15.6878 4.89158 15.7599 5.01179 15.8263 5.13553C15.8921 5.25928 15.9522 5.38585 16.006 5.51525C16.0597 5.64465 16.1064 5.77617 16.1474 5.91052C16.1877 6.04488 16.2223 6.18064 16.2492 6.31853C16.2768 6.45571 16.2973 6.5943 16.3107 6.7336C16.3249 6.87361 16.3319 7.01291 16.3319 7.15363Z" fill="#EFD689"/>
<path d="M56.8295 7.73215C56.8295 7.269 56.7135 6.34339 56.0191 5.88094C55.5567 5.64971 54.9783 5.64971 54.5151 5.88094C54.0527 6.22813 53.9367 6.69058 53.9367 7.38496C53.9367 7.73215 53.8207 8.42654 54.0527 9.23618C53.7055 8.5418 53.3583 7.96338 53.0111 7.73215C52.5479 7.269 52.2007 6.92251 51.6223 6.92251C51.0439 6.92251 50.5814 7.38496 50.4655 7.73215C50.1183 8.5418 50.6967 9.23618 50.9279 9.69934C51.1599 10.0465 51.3911 10.2778 51.6223 10.509C50.9279 10.2778 50.3495 10.1618 50.0023 10.1618C49.4239 10.1618 48.8455 10.1618 48.4983 10.509C48.1511 10.8562 48.0359 11.4346 48.1511 11.8977C48.3823 12.7074 49.3087 12.9393 49.7711 13.0546C50.5814 13.2858 51.3911 13.0546 51.7383 12.9393C51.8542 12.2449 51.9695 11.5506 52.0855 10.8562C52.2007 10.9721 52.3167 10.9721 52.4327 10.9721C53.0111 10.509 53.5895 10.0465 54.1679 9.58337C54.1679 9.58337 54.1679 9.58337 54.1679 9.4674C54.8623 9.4674 55.6719 9.4674 56.3663 9.58337C56.3663 9.4674 56.4823 9.35214 56.4823 9.23618C56.7135 9.00495 56.9447 8.42654 56.8295 7.73215Z" fill="#EDEDED"/>
<path d="M62.152 10.6248C61.8048 10.2776 61.2264 10.2776 60.648 10.2776C60.3008 10.2776 59.7224 10.3935 59.028 10.6248C59.2592 10.3935 59.4905 10.1616 59.7224 9.81442C59.9536 9.46723 60.532 8.65759 60.1849 7.84795C59.9536 7.38479 59.4905 7.0376 59.028 7.0376C58.4496 7.0376 58.1024 7.38479 57.6393 7.84795C57.408 8.07917 56.9449 8.65759 56.5984 9.35197C56.5984 9.46723 56.4824 9.5832 56.4824 9.69916C57.0608 10.1616 57.6393 10.6248 58.2177 11.0872C58.3336 11.0872 58.4496 10.972 58.5649 10.972C58.6808 11.6663 58.7968 12.36 58.9121 13.0544C59.2592 13.1704 60.0696 13.4016 60.8792 13.1704C61.3424 13.0544 62.268 12.8232 62.4992 12.0128C62.6152 11.6663 62.4992 10.972 62.152 10.6248Z" fill="#EDEDED"/>
<path d="M61.2263 13.9803C60.8791 13.749 60.0695 13.4019 59.1438 13.4019C58.7967 14.0962 58.5647 14.7906 58.2175 15.4843C58.4495 15.8315 59.0279 16.4106 59.8375 16.6418C60.3007 16.7571 61.2263 16.989 61.8047 16.5259C62.1519 16.1787 62.3831 15.6003 62.2679 15.1378C62.2679 14.5587 61.8047 14.2122 61.2263 13.9803Z" fill="#EDEDED"/>
<path d="M58.4496 15.9473C57.8712 16.4104 57.292 16.8729 56.7136 17.336C56.8296 17.7985 56.9448 18.4929 57.6392 19.1872C57.9864 19.5344 58.5648 20.2288 59.3752 20.1129C59.8376 19.9969 60.3008 19.6497 60.532 19.1872C60.648 18.6088 60.4168 18.1457 60.0696 17.6832C59.7224 17.2201 59.2592 16.5257 58.4496 15.9473Z" fill="#EDEDED"/>
<path d="M52.4326 15.485C52.0854 14.7906 51.8542 14.0962 51.507 13.4019C50.4655 13.4019 49.7711 13.749 49.4239 13.9803C48.9614 14.2122 48.3823 14.5587 48.267 15.1378C48.1511 15.6003 48.3823 16.1787 48.7295 16.5259C49.3086 17.1043 50.2342 16.7571 50.6967 16.6418C51.6223 16.2946 52.2007 15.8315 52.4326 15.485Z" fill="#EDEDED"/>
<path d="M52.3169 15.9473C51.5073 16.5257 51.0441 17.1041 50.8129 17.5673C50.4657 18.0297 50.2345 18.6088 50.3497 19.0713C50.4657 19.5344 50.9282 19.9969 51.5073 19.9969C52.3169 20.1129 53.0113 19.4185 53.2425 19.0713C53.8209 18.3769 54.0529 17.6832 54.1681 17.2201C53.4738 16.8729 52.8953 16.4104 52.3169 15.9473Z" fill="#EDEDED"/>
<path d="M54.3999 17.3364C54.168 17.6836 53.9368 18.3773 53.9368 19.3029C53.9368 19.7661 54.0527 20.6917 54.7464 21.1548C55.2096 21.386 55.788 21.386 56.2511 21.1548C56.7136 20.8076 56.8296 20.3445 56.8296 19.6501C56.9448 19.1876 56.9448 18.3773 56.5983 17.4517C55.9039 17.3364 55.0936 17.3364 54.3999 17.3364Z" fill="#EDEDED"/>
<path d="M59.4906 13.2862C59.4906 13.4269 59.4843 13.5669 59.4701 13.7062C59.4567 13.8455 59.4362 13.9841 59.4086 14.122C59.381 14.2592 59.3471 14.395 59.3068 14.5293C59.2658 14.6637 59.2184 14.7952 59.1654 14.9246C59.1116 15.0547 59.0515 15.1813 58.9857 15.3043C58.9193 15.4281 58.8472 15.5483 58.7694 15.6649C58.6916 15.7816 58.6082 15.894 58.5191 16.0022C58.43 16.1111 58.3359 16.2144 58.2369 16.3141C58.1379 16.4131 58.034 16.5071 57.9258 16.5962C57.8176 16.6846 57.7052 16.768 57.5885 16.8465C57.4718 16.9243 57.3516 16.9964 57.2279 17.0622C57.1041 17.128 56.9776 17.1881 56.8482 17.2418C56.7188 17.2955 56.5865 17.3429 56.4522 17.3832C56.3185 17.4242 56.1828 17.4582 56.0449 17.4857C55.9077 17.5126 55.7691 17.5331 55.6291 17.5473C55.4898 17.5607 55.3498 17.5678 55.2098 17.5678C55.0698 17.5678 54.9298 17.5607 54.7905 17.5473C54.6505 17.5331 54.5119 17.5126 54.3747 17.4857C54.2368 17.4582 54.101 17.4242 53.9667 17.3832C53.833 17.3429 53.7008 17.2955 53.5714 17.2418C53.442 17.1881 53.3154 17.128 53.1917 17.0622C53.0679 16.9964 52.9477 16.9243 52.8311 16.8465C52.7144 16.768 52.602 16.6846 52.4938 16.5962C52.3856 16.5071 52.2816 16.4131 52.1826 16.3141C52.0836 16.2144 51.9896 16.1111 51.9005 16.0022C51.8114 15.894 51.728 15.7816 51.6502 15.6649C51.5724 15.5483 51.5003 15.4281 51.4338 15.305C51.368 15.1813 51.3079 15.0547 51.2542 14.9246C51.2005 14.7952 51.1538 14.6637 51.1128 14.5293C51.0725 14.395 51.0378 14.2592 51.011 14.122C50.9834 13.9841 50.9629 13.8455 50.9494 13.7062C50.9353 13.5669 50.9282 13.4269 50.9282 13.2862C50.9282 13.1462 50.9353 13.0062 50.9494 12.8669C50.9629 12.7276 50.9834 12.589 51.011 12.4511C51.0378 12.3139 51.0725 12.1782 51.1128 12.0438C51.1538 11.9095 51.2005 11.778 51.2542 11.6478C51.3079 11.5184 51.368 11.3919 51.4338 11.2681C51.5003 11.1444 51.5724 11.0249 51.6502 10.9082C51.728 10.7915 51.8114 10.6791 51.9005 10.5702C51.9896 10.462 52.0836 10.3581 52.1826 10.2591C52.2816 10.1601 52.3856 10.066 52.4938 9.97694C52.602 9.88785 52.7144 9.80441 52.8311 9.72662C52.9477 9.64884 53.0679 9.57672 53.1917 9.51096C53.3154 9.44449 53.442 9.38509 53.5714 9.33135C53.7008 9.27761 53.833 9.23023 53.9667 9.18993C54.101 9.14891 54.2368 9.11497 54.3747 9.0874C54.5119 9.06053 54.6505 9.04002 54.7898 9.02588C54.9298 9.01244 55.0698 9.00537 55.2098 9.00537C55.3498 9.00537 55.4898 9.01244 55.6291 9.02588C55.7691 9.04002 55.9077 9.06053 56.0449 9.0874C56.1828 9.11497 56.3185 9.14891 56.4522 9.18993C56.5865 9.23023 56.7188 9.27761 56.8482 9.33135C56.9776 9.38509 57.1041 9.44449 57.2279 9.51096C57.3516 9.57672 57.4718 9.64884 57.5885 9.72662C57.7052 9.80441 57.8176 9.88785 57.9258 9.97694C58.034 10.066 58.1379 10.1601 58.2369 10.2591C58.3359 10.3581 58.43 10.462 58.5191 10.5702C58.6082 10.6791 58.6916 10.7915 58.7694 10.9082C58.8472 11.0249 58.9193 11.1444 58.9857 11.2681C59.0515 11.3919 59.1116 11.5184 59.1654 11.6478C59.2184 11.778 59.2658 11.9095 59.3068 12.0438C59.3471 12.1782 59.381 12.3139 59.4086 12.4511C59.4362 12.589 59.4567 12.7276 59.4701 12.8669C59.4843 13.0062 59.4906 13.1462 59.4906 13.2862Z" fill="#EFD689"/>
<path d="M91.0792 21.1547C91.0792 20.6916 90.9633 19.766 90.2689 19.3028C89.8064 19.0716 89.228 19.0716 88.7649 19.3028C88.3024 19.65 88.1864 20.1132 88.1864 20.8075C88.1864 21.1547 88.0705 21.8484 88.3024 22.6588C87.9552 21.9644 87.608 21.386 87.2608 21.1547C86.7977 20.6916 86.4505 20.3444 85.8721 20.3444C85.2937 20.3444 84.8312 20.8075 84.7152 21.1547C84.368 21.9644 84.9465 22.6588 85.1777 23.1212C85.4096 23.4684 85.6408 23.7003 85.8721 23.9316C85.1777 23.7003 84.5993 23.5844 84.2521 23.5844C83.6737 23.5844 83.0952 23.5844 82.7481 23.9316C82.4009 24.2788 82.2856 24.8572 82.4009 25.3196C82.6321 26.13 83.5584 26.3612 84.0209 26.4772C84.8305 26.7084 85.6408 26.4772 85.988 26.3612C86.1033 25.6668 86.2193 24.9731 86.3352 24.2788C86.4505 24.394 86.5665 24.394 86.6824 24.394C87.2608 23.9316 87.8393 23.4684 88.4177 23.006C88.4177 23.006 88.4177 23.006 88.4177 22.89C89.1121 22.89 89.9217 22.89 90.6161 23.006C90.6161 22.89 90.732 22.7747 90.732 22.6588C90.9633 22.3116 91.1945 21.8484 91.0792 21.1547Z" fill="#EDEDED"/>
<path d="M94.2031 25.4354C94.0872 25.7826 93.8559 26.2458 93.74 26.5922V26.7082C93.5088 26.7082 93.2775 26.5922 93.1616 26.5922C93.0463 25.8986 92.9303 25.2042 92.8144 24.5098C92.6991 24.6258 92.5831 24.6258 92.4672 24.6258C91.8888 24.1626 91.3104 23.7002 90.7319 23.237C90.7319 23.121 90.8479 23.0058 90.8479 22.8898V22.7746C91.1944 22.0802 91.5416 21.617 91.7735 21.3858C92.1207 21.0386 92.3519 20.8074 92.6991 20.6914C92.5831 21.0386 92.3519 21.3858 92.236 21.733C92.0047 22.7746 92.8144 23.237 93.3928 23.9314C93.2775 24.0466 93.1616 24.1626 93.0463 24.2786C93.1616 24.1626 93.3928 24.1626 93.5088 24.1626C94.2031 24.2786 94.5503 24.6258 94.2031 25.4354Z" fill="#EDEDED"/>
<path d="M93.6248 26.7083C93.6248 26.8242 93.6248 26.8242 93.6248 26.7083C93.3936 27.1714 93.0464 27.9811 92.8145 28.2123C92.8145 28.2123 92.6992 28.3282 92.5833 28.3282C92.8145 27.7498 93.0464 27.1714 93.2776 26.5923C93.5089 26.7083 93.5089 26.7083 93.6248 26.7083Z" fill="#EDEDED"/>
<path d="M86.6824 28.7916C86.5665 28.9069 86.4505 29.1381 86.2193 29.2541H86.104C85.2937 29.3701 84.484 29.3701 83.6737 29.3701C83.3265 29.3701 83.0953 29.3701 82.7481 29.3701C82.5168 29.0229 82.5168 28.6757 82.5168 28.3285C82.6321 27.7501 83.0953 27.5188 83.6737 27.2869C84.0209 27.0557 84.484 26.8245 85.1777 26.7085C85.4096 26.7085 85.6409 26.7085 85.8721 26.7085C86.104 27.4029 86.3352 28.0973 86.6824 28.7916Z" fill="#EDEDED"/>
<path d="M93.7401 26.5923C93.7401 26.7083 93.6249 26.8243 93.6249 26.8243V26.9395C93.5089 27.2867 93.0465 28.0971 92.8145 28.4443C92.8145 28.4443 92.6993 28.5595 92.5833 28.5595C92.1209 28.9067 91.6577 29.0227 91.1945 29.1379C90.2689 29.3699 89.4593 29.6011 88.5337 29.6011C87.8393 29.4851 87.0297 29.4851 86.3353 29.4851C86.2193 29.4851 86.2193 29.4851 86.2193 29.4851H86.104C85.5249 28.7915 85.1777 27.9811 85.1777 27.0555V26.9395C85.1777 24.9731 86.4505 23.3531 88.3025 22.7747C88.6489 22.6587 89.1121 22.6587 89.4593 22.6587C89.9217 22.6587 90.5009 22.7747 90.8481 22.8899C92.4673 23.2371 93.6249 24.7411 93.7401 26.5923Z" fill="#EFD689"/>
<path d="M32.2991 19.7658C32.2991 19.4186 32.1838 18.8402 31.7207 18.6089C31.4895 18.493 31.0263 18.493 30.7951 18.6089C30.4479 18.8402 30.4479 19.1874 30.4479 19.5346C30.4479 19.7658 30.4479 20.2289 30.5639 20.8074C30.3319 20.3442 30.1007 19.997 29.8695 19.7658C29.6382 19.5346 29.2911 19.1874 28.9439 19.3026C28.5967 19.3026 28.2495 19.5346 28.1335 19.8817C27.9023 20.3442 28.2495 20.9226 28.4807 21.1545C28.5967 21.3858 28.8279 21.5017 28.9439 21.617C28.4807 21.3858 28.1335 21.3858 27.9023 21.3858C27.5551 21.3858 27.0926 21.3858 26.8607 21.617C26.6295 21.8482 26.5135 22.3114 26.6295 22.5426C26.7455 23.0058 27.4398 23.237 27.6711 23.353C28.2495 23.4682 28.7126 23.353 28.9439 23.237C29.0591 22.7738 29.0591 22.3114 29.1751 21.8482C29.2911 21.8482 29.2911 21.9642 29.4063 21.9642C29.7535 21.617 30.2167 21.3858 30.5639 21.0386C31.0263 21.0386 31.4895 21.0386 31.9519 21.0386C31.9519 20.9226 32.0679 20.9226 32.0679 20.8074C32.2991 20.5754 32.4151 20.2289 32.2991 19.7658Z" fill="#EDEDED"/>
<path d="M35.7703 21.6171C35.5391 21.3859 35.1919 21.3859 34.7294 21.3859C34.4975 21.3859 34.1503 21.5018 33.6879 21.6171C33.8031 21.5018 34.0351 21.2699 34.1503 21.1547C34.2663 20.9227 34.6135 20.3443 34.4975 19.8819C34.3822 19.5347 34.0351 19.3027 33.6879 19.3027C33.3407 19.3027 33.1094 19.5347 32.7623 19.7659C32.5303 19.9971 32.2991 20.229 32.0679 20.8075C32.0679 20.9227 31.9519 20.9227 31.9519 21.0387C32.2991 21.3859 32.7623 21.6171 33.1094 21.9643C33.2247 21.9643 33.2247 21.8483 33.3407 21.8483C33.4566 22.3115 33.4566 22.7746 33.5719 23.2371C33.8031 23.3531 34.3822 23.4683 34.8447 23.3531C35.1919 23.2371 35.7703 23.1211 35.8863 22.5427C36.1175 22.3115 36.0022 21.9643 35.7703 21.6171Z" fill="#EDEDED"/>
<path d="M35.192 23.8155C34.9608 23.7002 34.4977 23.4683 33.8033 23.4683C33.572 23.9314 33.4568 24.3939 33.2249 24.857C33.3408 25.0883 33.8033 25.4354 34.2664 25.5514C34.6136 25.6667 35.192 25.7826 35.5392 25.4354C35.7705 25.2042 35.8864 24.857 35.8864 24.5098C35.8864 24.2786 35.5392 24.0467 35.192 23.8155Z" fill="#EDEDED"/>
<path d="M33.3409 25.2041C32.9937 25.5513 32.5306 25.7825 32.1841 26.1297C32.1841 26.3609 32.2993 26.9394 32.7625 27.2865C32.9937 27.5185 33.4569 27.9809 33.9193 27.865C34.2665 27.865 34.6137 27.5185 34.6137 27.2865C34.7297 26.9394 34.4977 26.5922 34.3825 26.2457C34.2665 26.0137 33.9193 25.5513 33.3409 25.2041Z" fill="#EDEDED"/>
<path d="M29.4064 24.857C29.1751 24.3939 29.0592 23.9314 28.8279 23.4683C28.1336 23.4683 27.6711 23.7002 27.4399 23.8155C27.0927 24.0467 26.7455 24.1626 26.7455 24.5098C26.6295 24.857 26.8608 25.2042 27.0927 25.4354C27.5551 25.7826 28.1336 25.5514 28.3655 25.5514C28.8279 25.4354 29.1751 25.0883 29.4064 24.857Z" fill="#EDEDED"/>
<path d="M29.2912 25.2041C28.7128 25.5513 28.3656 26.0137 28.2496 26.2457C28.0184 26.5922 27.9024 26.9394 28.0184 27.2865C28.1337 27.6337 28.4809 27.865 28.7128 27.865C29.2912 27.9809 29.6384 27.5185 29.8696 27.2865C30.2168 26.8241 30.448 26.3609 30.448 26.1297C30.1008 25.7825 29.6384 25.4353 29.2912 25.2041Z" fill="#EDEDED"/>
<path d="M30.6792 26.0142C30.564 26.2461 30.332 26.7085 30.332 27.287C30.332 27.6342 30.448 28.2126 30.9112 28.4445C31.1424 28.5598 31.6048 28.5598 31.8368 28.4445C32.184 28.2126 32.184 27.8654 32.184 27.5189C32.184 27.1717 32.2992 26.7085 32.068 26.1301C31.6048 26.1301 31.1424 26.1301 30.6792 26.0142Z" fill="#EDEDED"/>
<path d="M34.0351 23.4682C34.0351 23.6507 34.0174 23.8317 33.9813 24.0099C33.946 24.1888 33.8929 24.3627 33.8236 24.531C33.7536 24.6993 33.6681 24.8598 33.567 25.0111C33.4658 25.1632 33.3506 25.3032 33.2212 25.4319C33.0925 25.5613 32.9525 25.6758 32.8005 25.7777C32.6491 25.8788 32.4893 25.9643 32.3203 26.0343C32.152 26.1036 31.9788 26.1567 31.7999 26.192C31.621 26.2274 31.44 26.2458 31.2582 26.2458C31.0758 26.2458 30.8948 26.2274 30.7159 26.192C30.537 26.1567 30.3637 26.1036 30.1955 26.0343C30.0265 25.9643 29.8666 25.8788 29.7153 25.7777C29.5633 25.6758 29.4233 25.5613 29.2946 25.4319C29.1652 25.3032 29.0499 25.1632 28.9488 25.0111C28.8477 24.8598 28.7621 24.6993 28.6921 24.531C28.6228 24.3627 28.5698 24.1888 28.5345 24.0099C28.4984 23.8317 28.4807 23.6507 28.4807 23.4682C28.4807 23.2858 28.4984 23.1055 28.5345 22.9266C28.5698 22.7477 28.6228 22.5744 28.6921 22.4054C28.7621 22.2372 28.8477 22.0773 28.9488 21.9253C29.0499 21.774 29.1652 21.634 29.2946 21.5046C29.4233 21.3759 29.5633 21.2606 29.7153 21.1595C29.8666 21.0584 30.0265 20.9728 30.1955 20.9028C30.3637 20.8328 30.537 20.7805 30.7159 20.7451C30.8948 20.7091 31.0758 20.6914 31.2582 20.6914C31.44 20.6914 31.621 20.7091 31.7999 20.7451C31.9788 20.7805 32.152 20.8328 32.3203 20.9028C32.4893 20.9728 32.6491 21.0584 32.8005 21.1595C32.9525 21.2606 33.0925 21.3759 33.2212 21.5046C33.3506 21.634 33.4658 21.774 33.567 21.9253C33.6681 22.0773 33.7536 22.2372 33.8236 22.4054C33.8929 22.5744 33.946 22.7477 33.9813 22.9266C34.0174 23.1055 34.0351 23.2858 34.0351 23.4682Z" fill="#EFD689"/>
<path d="M16.1001 25.5514C16.1001 25.3194 16.1001 24.973 15.7529 24.857C15.6376 24.741 15.4064 24.741 15.1744 24.857C14.9432 24.973 14.9432 25.2042 14.9432 25.4354C14.9432 25.5514 14.9432 25.8986 15.0592 26.1298C14.9432 25.8986 14.8273 25.6666 14.712 25.5514C14.596 25.4354 14.3648 25.2042 14.1336 25.2042C13.9016 25.2042 13.7864 25.3194 13.6704 25.5514C13.5545 25.7826 13.7864 26.1298 13.7864 26.2458C13.9016 26.361 14.0176 26.477 14.0176 26.5922C13.7864 26.477 13.5545 26.477 13.4392 26.477C13.2073 26.477 12.976 26.477 12.8608 26.5922C12.7448 26.7082 12.6288 26.9394 12.7448 27.1714C12.8608 27.5186 13.2073 27.5186 13.3232 27.6338C13.6704 27.7498 13.9016 27.6338 14.1336 27.6338C14.1336 27.4026 14.2488 27.0554 14.2488 26.8242C14.2488 26.8242 14.3648 26.8242 14.3648 26.9394C14.596 26.7082 14.8273 26.5922 15.0592 26.361C15.2904 26.361 15.6376 26.361 15.8688 26.361C15.8688 26.361 15.8688 26.2458 15.9848 26.2458C16.1001 26.0138 16.216 25.7826 16.1001 25.5514Z" fill="#EDEDED"/>
<path d="M18.1833 26.5922C18.0673 26.4769 17.8361 26.4769 17.6049 26.4769C17.4889 26.4769 17.2577 26.4769 17.0257 26.5922C17.1417 26.4769 17.2577 26.4769 17.2577 26.2457C17.3729 26.1297 17.6049 25.7825 17.3729 25.5513C17.2577 25.4353 17.1417 25.2041 16.9105 25.2041C16.6785 25.2041 16.5633 25.3194 16.3321 25.5513C16.2161 25.6666 16.1001 25.8985 15.9849 26.1297V26.2457C16.2161 26.4769 16.4473 26.5922 16.6785 26.8241C16.6785 26.8241 16.7945 26.8241 16.7945 26.7081C16.7945 26.9394 16.9105 27.2865 16.9105 27.5185C17.0257 27.5185 17.3729 27.6337 17.7201 27.5185C17.9513 27.5185 18.2985 27.4025 18.2985 27.0553C18.2985 26.9394 18.2985 26.7081 18.1833 26.5922Z" fill="#EDEDED"/>
<path d="M17.836 27.865C17.72 27.7498 17.3728 27.6338 17.0257 27.6338C16.9104 27.865 16.7944 28.2122 16.6785 28.4441C16.7944 28.5594 17.0257 28.7913 17.2576 28.9066C17.4888 28.9066 17.72 29.0226 18.0672 28.9066C18.1832 28.7913 18.2985 28.5594 18.2985 28.3282C18.1832 28.0969 18.0672 27.981 17.836 27.865Z" fill="#EDEDED"/>
<path d="M16.7945 28.6753C16.5633 28.7913 16.332 29.0225 16.1001 29.1377C16.1001 29.2537 16.2161 29.6009 16.4473 29.8321C16.5633 29.9481 16.7945 30.1793 17.1417 30.1793C17.3729 30.1793 17.4889 30.0641 17.6048 29.8321C17.7201 29.6009 17.6048 29.4849 17.4889 29.2537C17.2576 29.1377 17.0257 28.7913 16.7945 28.6753Z" fill="#EDEDED"/>
<path d="M14.4801 28.4441C14.3649 28.2122 14.2489 27.865 14.1336 27.6338C13.7864 27.6338 13.4393 27.7498 13.3233 27.865C13.0921 27.981 12.9761 28.0969 12.8608 28.3282C12.8608 28.5594 12.8608 28.7913 13.0921 28.9066C13.3233 29.1378 13.6705 29.0226 13.9017 28.9066C14.1336 28.7913 14.3649 28.5594 14.4801 28.4441Z" fill="#EDEDED"/>
<path d="M14.3647 28.6753C14.0175 28.9065 13.9016 29.1377 13.7863 29.2537C13.6703 29.4849 13.5544 29.6009 13.6703 29.8321C13.6703 30.0641 13.9016 30.1793 14.1335 30.1793C14.48 30.1793 14.7119 29.9481 14.8272 29.8321C15.0591 29.6009 15.1744 29.2537 15.1744 29.1377C14.8272 29.0225 14.596 28.7913 14.3647 28.6753Z" fill="#EDEDED"/>
<path d="M15.1745 29.1382C15.0593 29.2541 14.9433 29.6013 15.0593 29.8326C15.0593 30.0645 15.0593 30.411 15.4065 30.5269C15.5217 30.6429 15.753 30.6429 15.9849 30.5269C16.2161 30.411 16.2161 30.1798 16.2161 29.9485C16.2161 29.8326 16.2161 29.4854 16.1001 29.1382C15.753 29.1382 15.5217 29.1382 15.1745 29.1382Z" fill="#EDEDED"/>
<path d="M17.1416 27.6342C17.1416 27.7409 17.131 27.8463 17.1105 27.9502C17.09 28.0549 17.0589 28.156 17.0186 28.2543C16.9775 28.3526 16.928 28.4459 16.8686 28.5343C16.8092 28.6227 16.7421 28.7047 16.6671 28.7797C16.5922 28.8546 16.5101 28.9218 16.4218 28.9812C16.3334 29.0406 16.24 29.0901 16.1417 29.1311C16.0434 29.1714 15.9423 29.2025 15.8377 29.223C15.7337 29.2435 15.6284 29.2541 15.5216 29.2541C15.4155 29.2541 15.3102 29.2435 15.2055 29.223C15.1016 29.2025 14.9998 29.1714 14.9015 29.1311C14.8032 29.0901 14.7098 29.0406 14.6214 28.9812C14.5331 28.9218 14.4517 28.8546 14.3761 28.7797C14.3011 28.7047 14.234 28.6227 14.1746 28.5343C14.1159 28.4459 14.0657 28.3526 14.0254 28.2543C13.9843 28.156 13.9539 28.0549 13.9327 27.9502C13.9122 27.8463 13.9016 27.7409 13.9016 27.6342C13.9016 27.5281 13.9122 27.4227 13.9327 27.3181C13.9539 27.2141 13.9843 27.1123 14.0254 27.014C14.0657 26.9164 14.1159 26.8224 14.1746 26.734C14.234 26.6456 14.3011 26.5643 14.3761 26.4886C14.4517 26.4137 14.5331 26.3465 14.6214 26.2871C14.7098 26.2284 14.8032 26.1782 14.9015 26.1379C14.9998 26.0969 15.1016 26.0665 15.2055 26.0453C15.3102 26.0248 15.4155 26.0142 15.5216 26.0142C15.6284 26.0142 15.7337 26.0248 15.8377 26.0453C15.9423 26.0665 16.0434 26.0969 16.1417 26.1379C16.24 26.1782 16.3334 26.2284 16.4218 26.2871C16.5101 26.3465 16.5922 26.4137 16.6671 26.4886C16.7421 26.5643 16.8092 26.6456 16.8686 26.734C16.928 26.8224 16.9775 26.9164 17.0186 27.014C17.0589 27.1123 17.09 27.2141 17.1105 27.3181C17.131 27.4227 17.1416 27.5281 17.1416 27.6342Z" fill="#EFD689"/>
<path d="M50.0024 23.9317C50.0024 23.7005 50.0024 23.3533 49.6552 23.2374C49.5399 23.1214 49.3087 23.1214 49.0768 23.2374C48.8456 23.3533 48.8456 23.5846 48.8456 23.8158C48.8456 23.9317 48.8456 24.2789 48.9615 24.5102C48.8456 24.2789 48.7296 24.047 48.6143 23.9317C48.4984 23.8158 48.2671 23.5846 48.0359 23.5846C47.804 23.5846 47.6887 23.7005 47.5728 23.9317C47.4568 24.163 47.6887 24.5102 47.6887 24.6261C47.804 24.7414 47.92 24.8574 47.92 24.9733C47.6887 24.8574 47.4568 24.8574 47.3415 24.8574C47.1096 24.8574 46.8784 24.8574 46.7631 24.9733C46.6472 25.0886 46.5312 25.3198 46.6472 25.5517C46.7631 25.8989 47.1096 25.8989 47.2256 26.0142C47.5728 26.1302 47.804 26.0142 48.0359 26.0142C48.0359 25.783 48.1512 25.4358 48.1512 25.2045C48.1512 25.2045 48.2671 25.2045 48.2671 25.3198C48.4984 25.0886 48.7296 24.9733 48.9615 24.7414C49.1928 24.7414 49.5399 24.7414 49.7712 24.7414C49.7712 24.7414 49.7712 24.6261 49.8871 24.6261C50.0024 24.3942 50.0024 24.163 50.0024 23.9317Z" fill="#EDEDED"/>
<path d="M52.0854 24.9727C51.9694 24.8568 51.7382 24.8568 51.507 24.8568C51.391 24.8568 51.1598 24.8568 50.9278 24.9727C51.0438 24.8568 51.1598 24.8568 51.1598 24.6256C51.275 24.5096 51.507 24.1624 51.275 23.9312C51.1598 23.8152 51.0438 23.584 50.8126 23.584C50.5813 23.584 50.4654 23.7 50.2342 23.9312C50.1182 24.0464 50.0022 24.2784 49.887 24.5096V24.6256C50.1182 24.8568 50.3494 24.9727 50.5813 25.204C50.5813 25.204 50.6966 25.204 50.6966 25.088C50.6966 25.3192 50.8126 25.6664 50.8126 25.8984C50.9278 25.8984 51.275 26.0136 51.6222 25.8984C51.8541 25.8984 52.2006 25.7824 52.2006 25.4352C52.2006 25.3192 52.2006 25.088 52.0854 24.9727Z" fill="#EDEDED"/>
<path d="M51.7384 26.2461C51.6224 26.1301 51.2752 26.0142 50.928 26.0142C50.8128 26.2461 50.6968 26.5926 50.5815 26.8245C50.6968 26.9398 50.928 27.1717 51.16 27.287C51.3912 27.287 51.6224 27.4029 51.9696 27.287C52.0856 27.1717 52.2008 26.9398 52.2008 26.7085C52.0856 26.4773 51.8543 26.3614 51.7384 26.2461Z" fill="#EDEDED"/>
<path d="M50.5813 27.0557C50.3494 27.1716 50.1182 27.4029 49.887 27.5188C49.887 27.6341 50.0022 27.9813 50.2342 28.2125C50.3494 28.3285 50.5813 28.5597 50.9278 28.5597C51.1598 28.5597 51.275 28.4444 51.391 28.2125C51.507 27.9813 51.391 27.8653 51.275 27.6341C51.1598 27.5188 50.9278 27.1716 50.5813 27.0557Z" fill="#EDEDED"/>
<path d="M48.2672 26.8245C48.1512 26.5926 48.036 26.2461 47.92 26.0142C47.5728 26.0142 47.2256 26.1301 47.1097 26.2461C46.8784 26.3614 46.7632 26.4773 46.6472 26.7085C46.6472 26.9398 46.6472 27.1717 46.8784 27.287C47.1097 27.5189 47.4569 27.4029 47.6888 27.287C48.036 27.1717 48.2672 26.9398 48.2672 26.8245Z" fill="#EDEDED"/>
<path d="M48.2671 27.0557C47.9199 27.2869 47.8039 27.5188 47.6887 27.6341C47.5727 27.8653 47.4567 27.9813 47.5727 28.2125C47.5727 28.4444 47.8039 28.5597 48.0359 28.5597C48.3823 28.5597 48.6143 28.3285 48.7295 28.2125C48.9615 27.9813 49.0767 27.6341 49.0767 27.5188C48.7295 27.4029 48.4983 27.1716 48.2671 27.0557Z" fill="#EDEDED"/>
<path d="M49.0769 27.5186C48.9616 27.6338 48.8457 27.981 48.9616 28.2122C48.9616 28.4442 48.9616 28.7914 49.3088 28.9066C49.4241 29.0226 49.6553 29.0226 49.8872 28.9066C50.1185 28.7914 50.1185 28.5594 50.1185 28.3282C50.1185 28.2122 50.1185 27.865 50.0025 27.5186C49.6553 27.5186 49.3088 27.5186 49.0769 27.5186Z" fill="#EDEDED"/>
<path d="M51.0442 26.014C51.0442 26.1208 51.0336 26.2262 51.0131 26.3301C50.9926 26.4348 50.9614 26.5359 50.9211 26.6342C50.8801 26.7325 50.8306 26.8258 50.7712 26.9142C50.7118 27.0026 50.6447 27.0846 50.5697 27.1596C50.4948 27.2352 50.4127 27.3024 50.3243 27.3611C50.236 27.4205 50.1426 27.47 50.0443 27.511C49.946 27.5513 49.8449 27.5824 49.7403 27.6029C49.6363 27.6234 49.531 27.634 49.4242 27.634C49.3181 27.634 49.2128 27.6234 49.1081 27.6029C49.0042 27.5824 48.9023 27.5513 48.8041 27.511C48.7065 27.47 48.6131 27.4205 48.524 27.3611C48.4356 27.3024 48.3543 27.2352 48.2787 27.1596C48.2037 27.0846 48.1365 27.0026 48.0771 26.9142C48.0185 26.8258 47.9682 26.7325 47.9279 26.6342C47.8869 26.5359 47.8565 26.4348 47.8353 26.3301C47.8148 26.2262 47.8042 26.1208 47.8042 26.014C47.8042 25.908 47.8148 25.8026 47.8353 25.698C47.8565 25.594 47.8869 25.4929 47.9279 25.3946C47.9682 25.2963 48.0185 25.203 48.0771 25.1146C48.1365 25.0255 48.2037 24.9442 48.2787 24.8685C48.3543 24.7936 48.4356 24.7264 48.524 24.667C48.6131 24.6083 48.7065 24.5581 48.8041 24.5178C48.9023 24.4768 49.0042 24.4464 49.1081 24.4252C49.2128 24.4046 49.3181 24.394 49.4242 24.394C49.531 24.394 49.6363 24.4046 49.7403 24.4252C49.8449 24.4464 49.946 24.4768 50.0443 24.5178C50.1426 24.5581 50.236 24.6083 50.3243 24.667C50.4127 24.7264 50.4948 24.7936 50.5697 24.8685C50.6447 24.9442 50.7118 25.0255 50.7712 25.1146C50.8306 25.203 50.8801 25.2963 50.9211 25.3946C50.9614 25.4929 50.9926 25.594 51.0131 25.698C51.0336 25.8026 51.0442 25.908 51.0442 26.014Z" fill="#EFD689"/>
<path d="M29.0593 7.96344C29.0593 7.73222 29.0593 7.38503 28.7128 7.26906C28.5968 7.1538 28.3656 7.1538 28.1337 7.26906C27.9024 7.38503 27.9024 7.61625 27.9024 7.84819C27.9024 7.96344 27.9024 8.31064 28.0184 8.54186C27.9024 8.31064 27.7865 8.07941 27.6712 7.96344C27.5553 7.84819 27.324 7.61625 27.0928 7.61625C26.8609 7.61625 26.7456 7.73222 26.6296 7.96344C26.5137 8.19467 26.7456 8.54186 26.7456 8.65783C26.8609 8.77379 26.9768 8.88905 26.9768 9.00502C26.7456 8.88905 26.5137 8.88905 26.3984 8.88905C26.1672 8.88905 25.9353 8.88905 25.82 9.00502C25.704 9.12098 25.5881 9.35221 25.704 9.58343C25.82 9.93063 26.1672 9.93063 26.2825 10.0466C26.6296 10.1619 26.8609 10.0466 27.0928 10.0466C27.0928 9.81466 27.2081 9.46747 27.2081 9.23624C27.2081 9.23624 27.324 9.23624 27.324 9.35221C27.5553 9.12098 27.7865 9.00502 28.0184 8.77379C28.2496 8.77379 28.5968 8.77379 28.8281 8.77379C28.8281 8.77379 28.8281 8.65783 28.944 8.65783C28.944 8.4266 29.0593 8.19467 29.0593 7.96344Z" fill="#EDEDED"/>
<path d="M31.0263 9.00498C30.911 8.88901 30.6791 8.88901 30.4479 8.88901C30.3319 8.88901 30.1007 8.88901 29.8695 9.00498C29.9854 8.88901 30.1007 8.88901 30.1007 8.65778C30.2166 8.54182 30.4479 8.19463 30.2166 7.9634C30.1007 7.84814 29.9854 7.61621 29.7535 7.61621C29.5223 7.61621 29.4063 7.73218 29.1751 7.9634C29.0591 8.07937 28.9438 8.31059 28.8279 8.54182V8.65778C29.0591 8.88901 29.291 9.00498 29.5223 9.2362C29.5223 9.2362 29.6382 9.2362 29.6382 9.12094C29.6382 9.35217 29.7535 9.69936 29.7535 9.93058C29.8695 9.93058 30.2166 10.0466 30.5638 9.93058C30.7951 9.93058 31.1423 9.81462 31.1423 9.46743C31.2582 9.35217 31.1423 9.12094 31.0263 9.00498Z" fill="#EDEDED"/>
<path d="M30.6793 10.2776C30.564 10.1616 30.2168 10.0464 29.8697 10.0464C29.7537 10.2776 29.6384 10.6248 29.5225 10.856C29.6384 10.972 29.8697 11.2032 30.1009 11.3192C30.3321 11.3192 30.564 11.4344 30.9112 11.3192C31.0265 11.2032 31.1425 10.972 31.1425 10.7401C31.1425 10.5088 30.9112 10.3936 30.6793 10.2776Z" fill="#EDEDED"/>
<path d="M29.6385 11.0874C29.4065 11.2034 29.1753 11.4346 28.9441 11.5506C28.9441 11.6665 29.0594 12.013 29.2913 12.2449C29.4065 12.3602 29.6385 12.5921 29.9857 12.5921C30.2169 12.5921 30.3321 12.4762 30.4481 12.2449C30.5641 12.013 30.4481 11.8978 30.3321 11.6665C30.1009 11.5506 29.9857 11.3193 29.6385 11.0874Z" fill="#EDEDED"/>
<path d="M27.3238 10.856C27.2079 10.6248 27.0926 10.2776 26.9767 10.0464C26.6295 10.0464 26.2823 10.1616 26.167 10.2776C25.9351 10.3936 25.8198 10.5088 25.7039 10.7401C25.7039 10.972 25.7039 11.2032 25.9351 11.3192C26.167 11.5504 26.5135 11.4344 26.7454 11.3192C26.9767 11.2032 27.2079 10.972 27.3238 10.856Z" fill="#EDEDED"/>
<path d="M27.324 11.0874C26.9768 11.3193 26.8608 11.5506 26.7455 11.6665C26.6296 11.8978 26.5136 12.013 26.6296 12.2449C26.6296 12.4762 26.8608 12.5921 27.0927 12.5921C27.4399 12.5921 27.6712 12.3602 27.7864 12.2449C27.9024 12.013 27.9024 11.7818 27.9024 11.5506C27.6712 11.4346 27.4399 11.2034 27.324 11.0874Z" fill="#EDEDED"/>
<path d="M28.0182 11.5508C27.9023 11.6667 27.7863 12.0132 27.9023 12.2452C27.9023 12.4764 27.9023 12.8236 28.2495 12.9395C28.3654 13.0548 28.5967 13.0548 28.8279 12.9395C29.0591 12.8236 29.0591 12.5924 29.0591 12.3604C29.0591 12.2452 29.0591 11.898 28.9439 11.5508C28.5967 11.5508 28.3654 11.5508 28.0182 11.5508Z" fill="#EDEDED"/>
<path d="M29.9856 10.0467C29.9856 10.1528 29.975 10.2582 29.9538 10.3628C29.9333 10.4668 29.9029 10.5679 29.8618 10.6662C29.8215 10.7645 29.7713 10.8578 29.7119 10.9462C29.6532 11.0346 29.5861 11.1166 29.5111 11.1923C29.4355 11.2672 29.3534 11.3344 29.265 11.3931C29.1767 11.4525 29.0833 11.5027 28.985 11.543C28.8867 11.584 28.7856 11.6144 28.6817 11.6356C28.577 11.6561 28.4717 11.6667 28.3656 11.6667C28.2588 11.6667 28.1535 11.6561 28.0495 11.6356C27.9449 11.6144 27.8437 11.584 27.7455 11.543C27.6472 11.5027 27.5538 11.4525 27.4654 11.3931C27.3771 11.3344 27.295 11.2672 27.2201 11.1923C27.1444 11.1166 27.0772 11.0346 27.0186 10.9462C26.9592 10.8578 26.9097 10.7645 26.8686 10.6662C26.8283 10.5679 26.7972 10.4668 26.7767 10.3628C26.7555 10.2582 26.7456 10.1528 26.7456 10.0467C26.7456 9.93997 26.7555 9.83461 26.7767 9.73067C26.7972 9.62602 26.8283 9.5249 26.8686 9.42661C26.9097 9.32832 26.9592 9.23499 27.0186 9.1466C27.0772 9.05821 27.1444 8.97618 27.2201 8.90123C27.295 8.82557 27.3771 8.75839 27.4654 8.6997C27.5538 8.64031 27.6472 8.59081 27.7455 8.5498C27.8437 8.50949 27.9449 8.47838 28.0495 8.45787C28.1535 8.43666 28.2588 8.42676 28.3656 8.42676C28.4717 8.42676 28.577 8.43666 28.6817 8.45787C28.7856 8.47838 28.8867 8.50949 28.985 8.5498C29.0833 8.59081 29.1767 8.64031 29.265 8.6997C29.3534 8.75839 29.4355 8.82557 29.5111 8.90123C29.5861 8.97618 29.6532 9.05821 29.7119 9.1466C29.7713 9.23499 29.8215 9.32832 29.8618 9.42661C29.9029 9.5249 29.9333 9.62602 29.9538 9.73067C29.975 9.83461 29.9856 9.93997 29.9856 10.0467Z" fill="#EFD689"/>
<path d="M76.9624 17.2203C76.9624 16.9891 76.9624 16.6419 76.6152 16.5259C76.4999 16.4106 76.2687 16.4106 76.0367 16.5259C75.8055 16.6419 75.8055 16.8731 75.8055 17.1043C75.8055 17.2203 75.8055 17.5675 75.9215 17.7987C75.8055 17.5675 75.6896 17.3362 75.5743 17.2203C75.4583 17.1043 75.2271 16.8731 74.9959 16.8731C74.7639 16.8731 74.6487 16.9891 74.5327 17.2203C74.4168 17.4515 74.6487 17.7987 74.6487 17.9147C74.7639 18.0299 74.8799 18.1459 74.8799 18.2619C74.6487 18.1459 74.4168 18.1459 74.3015 18.1459C74.0696 18.1459 73.8383 18.1459 73.7231 18.2619C73.6071 18.3771 73.4912 18.609 73.6071 18.8403C73.7231 19.1875 74.0696 19.1875 74.1855 19.3027C74.5327 19.4187 74.7639 19.3027 74.9959 19.3027C74.9959 19.0715 75.1111 18.7243 75.1111 18.4931C75.1111 18.4931 75.2271 18.4931 75.2271 18.609C75.4583 18.3771 75.6896 18.2619 75.9215 18.0299C76.1527 18.0299 76.4999 18.0299 76.7311 18.0299C76.7311 18.0299 76.7311 17.9147 76.8471 17.9147C76.9624 17.6834 76.9624 17.4515 76.9624 17.2203Z" fill="#EDEDED"/>
<path d="M78.9296 18.2618C78.8136 18.1458 78.5824 18.1458 78.3512 18.1458C78.2352 18.1458 78.004 18.1458 77.7728 18.2618C77.888 18.1458 78.004 18.1458 78.004 17.9146C78.12 17.7987 78.3512 17.4515 78.12 17.2202C78.004 17.1043 77.888 16.873 77.6568 16.873C77.4256 16.873 77.3096 16.989 77.0784 17.2202C76.9624 17.3362 76.8472 17.5674 76.7312 17.7987V17.9146C76.9624 18.1458 77.1944 18.2618 77.4256 18.493C77.4256 18.493 77.5408 18.493 77.5408 18.3771C77.5408 18.609 77.6568 18.9562 77.6568 19.1874C77.7728 19.1874 78.12 19.3027 78.4672 19.1874C78.6984 19.1874 79.0456 19.0715 79.0456 18.7243C79.1608 18.7243 79.1608 18.493 78.9296 18.2618Z" fill="#EDEDED"/>
<path d="M78.5824 19.5347C78.4671 19.4187 78.1199 19.3027 77.7727 19.3027C77.6568 19.5347 77.5415 19.8819 77.4255 20.1131C77.5415 20.229 77.7727 20.4603 78.004 20.5755C78.2352 20.5755 78.4671 20.6915 78.8136 20.5755C78.9296 20.4603 79.0455 20.229 79.0455 19.9971C79.0455 19.7659 78.8136 19.6499 78.5824 19.5347Z" fill="#EDEDED"/>
<path d="M77.5416 20.3442C77.3096 20.4602 77.0784 20.6914 76.8472 20.8074C76.8472 20.9227 76.9624 21.2698 77.1944 21.5018C77.3096 21.617 77.5416 21.8483 77.888 21.8483C78.12 21.8483 78.2352 21.733 78.3512 21.5018C78.4672 21.2698 78.3512 21.1546 78.2352 20.9227C78.004 20.8074 77.888 20.5755 77.5416 20.3442Z" fill="#EDEDED"/>
<path d="M75.2272 20.1131C75.1112 19.8819 74.9959 19.5347 74.88 19.3027C74.5328 19.3027 74.1856 19.4187 74.0696 19.5347C73.8384 19.6499 73.7231 19.7659 73.6072 19.9971C73.6072 20.229 73.6072 20.4603 73.8384 20.5755C74.0696 20.8075 74.4168 20.6915 74.6488 20.5755C74.9959 20.4603 75.1112 20.229 75.2272 20.1131Z" fill="#EDEDED"/>
<path d="M75.2273 20.3442C74.8801 20.5755 74.7641 20.8074 74.6489 20.9227C74.5329 21.1546 74.4169 21.2698 74.5329 21.5018C74.5329 21.733 74.7641 21.8483 74.9961 21.8483C75.3425 21.8483 75.5745 21.617 75.6897 21.5018C75.9217 21.2698 76.0369 20.9227 76.0369 20.8074C75.6897 20.6914 75.4585 20.4602 75.2273 20.3442Z" fill="#EDEDED"/>
<path d="M76.0368 20.8076C75.9216 20.9229 75.8056 21.2701 75.9216 21.502C75.9216 21.7332 75.9216 22.0804 76.2688 22.1957C76.384 22.3116 76.6153 22.3116 76.8472 22.1957C77.0784 22.0804 77.0784 21.8485 77.0784 21.6173C77.0784 21.502 77.0784 21.1548 76.9625 20.8076C76.6153 20.9229 76.2688 20.8076 76.0368 20.8076Z" fill="#EDEDED"/>
<path d="M77.888 19.3029C77.888 19.4097 77.8781 19.515 77.8568 19.619C77.8363 19.7236 77.8059 19.8247 77.7649 19.923C77.7239 20.0213 77.6744 20.1146 77.615 20.203C77.5563 20.2914 77.4891 20.3734 77.4135 20.4484C77.3385 20.5241 77.2565 20.5912 77.1681 20.6499C77.0797 20.7093 76.9864 20.7588 76.8881 20.7998C76.7898 20.8408 76.6887 20.8712 76.584 20.8918C76.4801 20.913 76.3747 20.9229 76.2687 20.9229C76.1619 20.9229 76.0565 20.913 75.9526 20.8918C75.8479 20.8712 75.7468 20.8408 75.6485 20.7998C75.5502 20.7588 75.4569 20.7093 75.3685 20.6499C75.2801 20.5912 75.1981 20.5241 75.1232 20.4484C75.0475 20.3734 74.9803 20.2914 74.9216 20.203C74.8622 20.1146 74.8127 20.0213 74.7717 19.923C74.7307 19.8247 74.7003 19.7236 74.6798 19.619C74.6586 19.515 74.6487 19.4097 74.6487 19.3029C74.6487 19.1968 74.6586 19.0915 74.6798 18.9875C74.7003 18.8829 74.7307 18.7817 74.7717 18.6834C74.8127 18.5852 74.8622 18.4918 74.9216 18.4034C74.9803 18.315 75.0475 18.233 75.1232 18.1581C75.1981 18.0824 75.2801 18.0152 75.3685 17.9565C75.4569 17.8971 75.5502 17.8476 75.6485 17.8066C75.7468 17.7656 75.8479 17.7352 75.9526 17.7147C76.0565 17.6935 76.1619 17.6836 76.2687 17.6836C76.3747 17.6836 76.4801 17.6935 76.584 17.7147C76.6887 17.7352 76.7898 17.7656 76.8881 17.8066C76.9864 17.8476 77.0797 17.8971 77.1681 17.9565C77.2565 18.0152 77.3385 18.0824 77.4135 18.1581C77.4891 18.233 77.5563 18.315 77.615 18.4034C77.6744 18.4918 77.7239 18.5852 77.7649 18.6834C77.8059 18.7817 77.8363 18.8829 77.8568 18.9875C77.8781 19.0915 77.888 19.1968 77.888 19.3029Z" fill="#EFD689"/>
<path d="M38.7791 1.36841C38.7791 1.59963 38.6631 1.7156 38.6631 1.83156C38.6631 1.83156 38.6631 1.83156 38.6631 1.94682C38.6631 2.06279 38.5479 2.06279 38.5479 2.17805C38.0847 2.17805 37.6215 2.17805 37.1591 2.17805C36.8119 2.52524 36.3487 2.75717 36.0023 3.10436C35.8863 3.10436 35.8863 2.9884 35.7703 2.9884C35.6551 3.45085 35.6551 3.91401 35.5391 4.37716C35.4231 4.37716 35.1919 4.49242 34.8447 4.49242C34.6135 4.49242 34.3823 4.49242 34.1503 4.49242C33.8031 4.37716 33.2247 4.2612 33.1095 3.68278C32.9935 3.33559 33.1095 2.9884 33.3407 2.75717C33.5719 2.52524 33.9191 2.52524 34.3823 2.52524C34.6135 2.52524 34.9607 2.64121 35.4231 2.75717C35.3079 2.64121 35.0759 2.40998 34.9607 2.29402C34.8447 2.17805 34.4975 1.59963 34.6135 1.25244C35.3079 1.25244 36.0023 1.25244 36.6959 1.36841C36.8119 1.48437 36.9279 1.7156 37.0431 1.94682C37.0431 1.7156 36.9279 1.59963 36.9279 1.48437C37.5063 1.36841 38.2007 1.36841 38.7791 1.36841Z" fill="#EDEDED"/>
<path d="M42.4815 3.68254C42.3655 4.14499 41.6719 4.37692 41.4399 4.49218C41.0927 4.60814 40.8615 4.60814 40.5143 4.49218C40.2831 4.49218 40.1671 4.37692 40.0519 4.37692C39.9359 3.91376 39.9359 3.4506 39.8199 2.98815C39.7047 2.98815 39.7047 3.10412 39.5887 3.10412C39.2415 2.75693 38.7791 2.525 38.4319 2.17781C38.4319 2.06255 38.4319 2.06255 38.5471 1.94658V1.83132C38.6631 1.59939 38.6631 1.48413 38.7791 1.36816C39.4735 1.36816 40.1671 1.48413 40.8615 1.48413C40.8615 1.83132 40.6303 2.06255 40.5143 2.29377C40.3991 2.525 40.1671 2.64096 40.0519 2.75693C40.5143 2.525 40.8615 2.525 41.0927 2.525C41.4399 2.525 41.9031 2.525 42.1343 2.75693C42.5975 2.98815 42.5975 3.4506 42.4815 3.68254Z" fill="#EDEDED"/>
<path d="M41.7873 4.9551C41.556 4.83914 41.0929 4.60791 40.3992 4.60791C40.1673 5.07036 40.052 5.53352 39.8201 5.99597C39.936 6.2279 40.3992 6.57509 40.8616 6.69035C41.2088 6.80632 41.7873 6.92228 42.1344 6.57509C42.3657 6.34316 42.4816 5.99597 42.4816 5.64948C42.3657 5.30229 42.0192 5.18633 41.7873 4.9551Z" fill="#EDEDED"/>
<path d="M39.8202 6.22852C39.4737 6.57571 39.0105 6.80693 38.6633 7.15412C38.6633 7.38535 38.7793 7.96376 39.2417 8.31096C39.4737 8.54218 39.9361 9.00534 40.3993 8.88937C40.7465 8.88937 41.093 8.54218 41.093 8.31096C41.2089 7.96376 40.9777 7.61657 40.8617 7.26938C40.7465 7.03816 40.3993 6.69097 39.8202 6.22852Z" fill="#EDEDED"/>
<path d="M35.8862 5.99597C35.655 5.53352 35.5391 5.07036 35.3078 4.60791C34.6134 4.60791 34.1503 4.83914 33.9191 4.9551C33.5719 5.18633 33.2247 5.30229 33.2247 5.64948C33.1094 5.99597 33.3406 6.34316 33.5719 6.57509C34.035 6.92228 34.6134 6.69035 34.8447 6.69035C35.4231 6.45913 35.7703 6.11193 35.8862 5.99597Z" fill="#EDEDED"/>
<path d="M35.7704 6.22852C35.192 6.57571 34.8448 7.03816 34.7295 7.26938C34.4976 7.61657 34.3823 7.96376 34.4976 8.31096C34.6135 8.65815 34.9607 8.88937 35.192 8.88937C35.7704 9.00534 36.1176 8.54218 36.3488 8.31096C36.696 7.84851 36.9279 7.38535 36.9279 7.15412C36.5807 6.9229 36.2335 6.57571 35.7704 6.22852Z" fill="#EDEDED"/>
<path d="M37.1592 7.15381C37.0432 7.38503 36.812 7.84819 36.812 8.42661C36.812 8.7738 36.928 9.35222 37.3904 9.58344C37.6217 9.69941 38.0848 9.69941 38.316 9.58344C38.6632 9.35222 38.6632 9.00502 38.6632 8.65783C38.6632 8.31064 38.7792 7.84819 38.548 7.26907C38.2008 7.15381 37.6217 7.15381 37.1592 7.15381Z" fill="#EDEDED"/>
<path d="M40.5146 4.49215C40.5146 4.67459 40.4969 4.8549 40.4616 5.0338C40.4262 5.2127 40.3732 5.38665 40.3032 5.55494C40.2339 5.72323 40.1483 5.88375 40.0465 6.03507C39.9454 6.18639 39.8301 6.32711 39.7014 6.4558C39.5727 6.5845 39.432 6.69975 39.2807 6.80158C39.1294 6.90269 38.9688 6.98826 38.8005 7.05755C38.6323 7.12756 38.4583 7.18059 38.2794 7.21594C38.1005 7.2513 37.9202 7.26898 37.7378 7.26898C37.5553 7.26898 37.375 7.2513 37.1961 7.21594C37.0172 7.18059 36.8433 7.12756 36.675 7.05755C36.5067 6.98826 36.3469 6.90269 36.1948 6.80158C36.0435 6.69975 35.9028 6.5845 35.7741 6.4558C35.6454 6.32711 35.5302 6.18639 35.429 6.03507C35.3272 5.88375 35.2417 5.72323 35.1724 5.55494C35.1024 5.38665 35.05 5.2127 35.014 5.0338C34.9786 4.8549 34.9609 4.67459 34.9609 4.49215C34.9609 4.30972 34.9786 4.12941 35.014 3.95051C35.05 3.77161 35.1024 3.59837 35.1724 3.42937C35.2417 3.26108 35.3272 3.10127 35.429 2.94924C35.5302 2.79792 35.6454 2.65791 35.7741 2.52851C35.9028 2.39981 36.0435 2.28456 36.1948 2.18344C36.3469 2.08232 36.5067 1.99676 36.675 1.92676C36.8433 1.85675 37.0172 1.80443 37.1961 1.76837C37.375 1.73301 37.5553 1.71533 37.7378 1.71533C37.9202 1.71533 38.1005 1.73301 38.2794 1.76837C38.4583 1.80443 38.6323 1.85675 38.8005 1.92676C38.9688 1.99676 39.1294 2.08232 39.2807 2.18344C39.432 2.28456 39.5727 2.39981 39.7014 2.52851C39.8301 2.65791 39.9454 2.79792 40.0465 2.94924C40.1483 3.10127 40.2339 3.26108 40.3032 3.42937C40.3732 3.59837 40.4262 3.77161 40.4616 3.95051C40.4969 4.12941 40.5146 4.30972 40.5146 4.49215Z" fill="#EFD689"/>
<path d="M78.1199 4.60824C78.1199 4.26105 78.0039 3.68263 77.5415 3.4507C77.3096 3.33544 76.8471 3.33544 76.6152 3.4507C76.2687 3.68263 76.2687 4.02983 76.2687 4.37702C76.2687 4.60824 76.2687 5.07069 76.3839 5.64982C76.1527 5.18666 75.9215 4.83947 75.6896 4.60824C75.4583 4.37702 75.1111 4.02983 74.764 4.14508C74.4168 4.14508 74.0696 4.37702 73.9543 4.7235C73.7231 5.18666 74.0696 5.76508 74.3015 5.9963C74.4168 6.22823 74.6487 6.34349 74.764 6.45946C74.3015 6.22823 73.9543 6.22823 73.7231 6.22823C73.3759 6.22823 72.9127 6.22823 72.6815 6.45946C72.4503 6.69068 72.3343 7.15384 72.4503 7.38507C72.5656 7.84822 73.2599 8.07945 73.4912 8.19471C74.0696 8.31067 74.5327 8.19471 74.764 8.07945C74.8799 7.61629 74.8799 7.15384 74.9959 6.69068C75.1111 6.69068 75.1111 6.80665 75.2271 6.80665C75.5743 6.45946 76.0368 6.22823 76.3839 5.88104C76.8471 5.88104 77.3096 5.88104 77.7727 5.88104C77.7727 5.76508 77.888 5.76508 77.888 5.64982C78.1199 5.41788 78.2352 5.07069 78.1199 4.60824Z" fill="#EDEDED"/>
<path d="M81.5911 6.57512C81.3592 6.34318 81.0127 6.34318 80.5495 6.34318C80.3183 6.34318 79.9711 6.45915 79.508 6.57512C79.6239 6.45915 79.8551 6.22792 79.9711 6.11196C80.0864 5.88073 80.4336 5.30232 80.3183 4.83916C80.2023 4.49197 79.8551 4.26074 79.508 4.26074C79.1608 4.26074 78.9295 4.49197 78.5823 4.72319C78.3511 4.95512 78.1199 5.18635 77.888 5.76477C77.888 5.88073 77.7727 5.88073 77.7727 5.99599C78.1199 6.34318 78.5823 6.57512 78.9295 6.92231C79.0455 6.92231 79.0455 6.80634 79.1608 6.80634C79.2767 7.26879 79.2767 7.73195 79.3927 8.19511C79.6239 8.31036 80.2023 8.42633 80.6655 8.31036C81.0127 8.19511 81.5911 8.07914 81.7064 7.50072C81.9383 7.15353 81.9383 6.80634 81.5911 6.57512Z" fill="#EDEDED"/>
<path d="M81.0128 8.77395C80.7809 8.65798 80.3185 8.42676 79.6241 8.42676C79.3928 8.88921 79.2769 9.35237 79.0457 9.81482C79.1609 10.0467 79.6241 10.3939 80.0865 10.5092C80.4337 10.6252 81.0128 10.7404 81.3593 10.3939C81.5913 10.162 81.7065 9.81482 81.7065 9.46762C81.7065 9.12114 81.3593 8.88921 81.0128 8.77395Z" fill="#EDEDED"/>
<path d="M79.161 10.0464C78.8138 10.3936 78.3513 10.6248 78.0042 10.972C78.0042 11.2032 78.1201 11.7816 78.5826 12.1288C78.8138 12.3601 79.2769 12.8232 79.7401 12.7072C80.0866 12.7072 80.4338 12.3601 80.4338 12.1288C80.5497 11.7816 80.3185 11.4344 80.2026 11.0873C80.0866 10.856 79.7401 10.3936 79.161 10.0464Z" fill="#EDEDED"/>
<path d="M75.2271 9.69931C74.9958 9.23615 74.8799 8.7737 74.6487 8.31055C73.9543 8.31055 73.4911 8.54177 73.2599 8.65774C72.9127 8.88896 72.5655 9.00493 72.5655 9.35212C72.4502 9.69931 72.6815 10.0465 72.9127 10.2777C73.3759 10.6249 73.9543 10.3937 74.1855 10.3937C74.7639 10.2777 75.1111 9.93054 75.2271 9.69931Z" fill="#EDEDED"/>
<path d="M75.1112 10.0464C74.5328 10.3936 74.1856 10.856 74.0696 11.0873C73.8384 11.4344 73.7232 11.7816 73.8384 12.1288C73.9544 12.476 74.3016 12.7072 74.5328 12.7072C75.1112 12.8232 75.4584 12.3601 75.6896 12.1288C76.0368 11.6664 76.2688 11.2032 76.2688 10.972C75.9216 10.6248 75.5744 10.3936 75.1112 10.0464Z" fill="#EDEDED"/>
<path d="M76.5 10.9722C76.3841 11.2034 76.1528 11.6666 76.1528 12.245C76.1528 12.5922 76.2688 13.1706 76.7312 13.4018C76.9625 13.5178 77.4256 13.5178 77.6569 13.4018C78.004 13.1706 78.004 12.8234 78.004 12.4762C78.004 12.129 78.12 11.6666 77.8881 11.0874C77.5416 10.9722 76.9625 10.9722 76.5 10.9722Z" fill="#EDEDED"/>
<path d="M79.8552 8.31051C79.8552 8.49295 79.8375 8.67326 79.8021 8.85216C79.7661 9.03106 79.7137 9.20501 79.6437 9.3733C79.5744 9.54159 79.4889 9.70211 79.3871 9.85343C79.2859 10.0048 79.1707 10.1455 79.042 10.2742C78.9133 10.4029 78.7726 10.5181 78.6213 10.6199C78.4692 10.7211 78.3094 10.8066 78.1411 10.8759C77.9728 10.9459 77.7989 10.9989 77.62 11.0343C77.4411 11.0697 77.2608 11.0873 77.0783 11.0873C76.8959 11.0873 76.7156 11.0697 76.5367 11.0343C76.3578 10.9989 76.1838 10.9459 76.0155 10.8759C75.8473 10.8066 75.6867 10.7211 75.5354 10.6199C75.3841 10.5181 75.2434 10.4029 75.1147 10.2742C74.986 10.1455 74.8707 10.0048 74.7696 9.85343C74.6678 9.70211 74.5822 9.54159 74.5129 9.3733C74.4429 9.20501 74.3899 9.03106 74.3545 8.85216C74.3192 8.67326 74.3015 8.49295 74.3015 8.31051C74.3015 8.12808 74.3192 7.94777 74.3545 7.76887C74.3899 7.58997 74.4429 7.41602 74.5129 7.24773C74.5822 7.07944 74.6678 6.91963 74.7696 6.7676C74.8707 6.61628 74.986 6.47556 75.1147 6.34687C75.2434 6.21817 75.3841 6.10292 75.5354 6.0018C75.6867 5.89997 75.8473 5.81512 76.0155 5.74512C76.1838 5.67511 76.3578 5.62279 76.5367 5.58672C76.7156 5.55137 76.8959 5.53369 77.0783 5.53369C77.2608 5.53369 77.4411 5.55137 77.62 5.58672C77.7989 5.62279 77.9728 5.67511 78.1411 5.74512C78.3094 5.81512 78.4692 5.89997 78.6213 6.0018C78.7726 6.10292 78.9133 6.21817 79.042 6.34687C79.1707 6.47556 79.2859 6.61628 79.3871 6.7676C79.4889 6.91963 79.5744 7.07944 79.6437 7.24773C79.7137 7.41602 79.7661 7.58997 79.8021 7.76887C79.8375 7.94777 79.8552 8.12808 79.8552 8.31051Z" fill="#EFD689"/>
<path d="M68.4001 25.5511C68.4001 25.2039 68.2849 24.6255 67.8217 24.3936C67.5905 24.2783 67.1273 24.2783 66.8961 24.3936C66.5489 24.6255 66.5489 24.9727 66.5489 25.3192C66.5489 25.5511 66.5489 26.0136 66.6649 26.592C66.4336 26.1295 66.2017 25.7823 65.9705 25.5511C65.7393 25.3192 65.3921 24.9727 65.0449 25.088C64.6977 25.088 64.3505 25.3192 64.2345 25.6664C64.0033 26.1295 64.3505 26.7079 64.5817 26.9392C64.6977 27.1711 64.9289 27.2864 65.0449 27.4023C64.5817 27.1711 64.2345 27.1711 64.0033 27.1711C63.6561 27.1711 63.1937 27.1711 62.9617 27.4023C62.7305 27.6336 62.6152 28.0967 62.7305 28.3279C62.8465 28.7911 63.5409 29.0223 63.7721 29.1376C64.3505 29.2535 64.8137 29.1376 65.0449 29.0223C65.1608 28.5592 65.1608 28.0967 65.2761 27.6336C65.3921 27.6336 65.3921 27.7495 65.5073 27.7495C65.8545 27.4023 66.3177 27.1711 66.6649 26.8239C67.1273 26.8239 67.5905 26.8239 68.0529 26.8239C68.0529 26.7079 68.1689 26.7079 68.1689 26.592C68.4001 26.3608 68.4001 26.0136 68.4001 25.5511Z" fill="#EDEDED"/>
<path d="M71.8711 27.4028C71.6399 27.1715 71.2927 27.1715 70.8303 27.1715C70.5983 27.1715 70.2511 27.2868 69.7887 27.4028C69.9047 27.2868 70.1359 27.0556 70.2511 26.9396C70.3671 26.7084 70.7143 26.13 70.5983 25.6668C70.4831 25.3196 70.1359 25.0884 69.7887 25.0884C69.4415 25.0884 69.2103 25.3196 68.8631 25.5515C68.6319 25.7828 68.3999 26.014 68.1687 26.5924C68.1687 26.7084 68.0527 26.7084 68.0527 26.8243C68.3999 27.1715 68.8631 27.4028 69.2103 27.7499C69.3255 27.7499 69.3255 27.634 69.4415 27.634C69.5575 28.0971 69.5575 28.5596 69.6727 29.0227C69.9047 29.138 70.4831 29.254 70.9455 29.138C71.2927 29.0227 71.8711 28.9068 71.9871 28.3284C72.2183 28.0971 72.1031 27.634 71.8711 27.4028Z" fill="#EDEDED"/>
<path d="M72.1032 30.5269C71.9872 30.5269 71.756 30.5269 71.5241 30.6429C70.9457 30.6429 70.2513 30.7582 69.6729 30.7582C69.6729 30.7582 69.5576 30.7582 69.4416 30.7582C69.4416 30.6429 69.3257 30.6429 69.3257 30.5269C69.5576 30.0645 69.6729 29.6013 69.9048 29.1382C70.0201 29.1382 70.0201 29.1382 70.136 29.1382C70.7144 29.1382 71.0616 29.3701 71.2929 29.4854C71.6401 29.7173 71.9872 29.8326 71.9872 30.1798C72.1032 30.411 72.1032 30.411 72.1032 30.5269Z" fill="#EDEDED"/>
<path d="M65.5073 30.6427C65.392 30.7579 65.392 30.8739 65.2761 30.8739H65.0448C64.3505 30.8739 63.5408 30.8739 62.8464 30.7579C62.8464 30.6427 62.8464 30.4107 62.8464 30.2955C62.9617 29.9483 63.1936 29.7171 63.5408 29.6011C63.772 29.4851 64.0033 29.3699 64.4664 29.2539C64.5817 29.2539 64.6977 29.2539 64.9289 29.2539C65.1608 29.7171 65.2761 30.1795 65.5073 30.6427Z" fill="#EDEDED"/>
<path d="M70.1362 29.1382C70.1362 29.2541 70.1362 29.2541 70.1362 29.1382C70.1362 29.8325 69.9049 30.2957 69.673 30.7581C69.673 30.7581 69.5577 30.7581 69.4418 30.7581C68.5162 30.8741 67.5906 30.8741 66.549 30.8741C66.0865 30.8741 65.6234 30.8741 65.1609 30.8741H64.929C64.5818 30.411 64.3506 29.9485 64.3506 29.2541V29.1382C64.3506 27.8654 65.2762 26.8245 66.4337 26.4773C66.665 26.3613 66.8962 26.3613 67.2434 26.3613C67.5906 26.3613 67.9378 26.3613 68.169 26.4773C69.3258 26.9397 70.1362 27.9813 70.1362 29.1382Z" fill="#EFD689"/>
</svg>
