<svg width="95" height="28" viewBox="0 0 95 28" fill="none" xmlns="http://www.w3.org/2000/svg">
<mask id="mask0_968_4101" style="mask-type:luminance" maskUnits="userSpaceOnUse" x="0" y="0" width="95" height="28">
<path d="M0.711182 0.573242H94.5249V27.319H0.711182V0.573242Z" fill="white"/>
</mask>
<g mask="url(#mask0_968_4101)">
<path d="M2.83888 27.3848C1.80932 27.3706 0.733102 26.7307 0.711182 25.5717C0.711182 24.1243 2.31986 24.1243 2.31986 22.6754C2.31986 21.2258 0.711182 21.2258 0.711182 19.777C0.711182 18.3274 2.31986 18.3274 2.31986 16.8785C2.31986 15.4296 0.711182 15.4296 0.711182 13.9801C0.711182 12.5312 2.31986 12.5312 2.31986 11.0816C2.31986 9.63274 0.711182 9.63274 0.711182 8.18387C0.711182 6.7343 2.31986 6.7343 2.31986 5.28543C2.31986 3.83656 0.711182 3.83514 0.711182 2.38557C0.733102 1.22732 1.80932 0.586677 2.83888 0.573242H92.422C93.4523 0.586677 94.5285 1.22732 94.5504 2.38557C94.5504 3.83514 92.9417 3.83514 92.9417 5.28543C92.9417 6.73571 94.5504 6.7343 94.5504 8.18387C94.5504 9.63274 92.9417 9.63274 92.9417 11.0816C92.9417 12.5312 94.5504 12.5312 94.5504 13.9801C94.5504 15.4296 92.9417 15.4296 92.9417 16.8785C92.9417 18.3274 94.5504 18.3274 94.5504 19.777C94.5504 21.2258 92.9417 21.2258 92.9417 22.6754C92.9417 24.1243 94.5504 24.1243 94.5504 25.5717C94.5285 26.7307 93.4523 27.3706 92.422 27.3848H2.83888Z" fill="#BFDAE8"/>
</g>
<mask id="mask1_968_4101" style="mask-type:luminance" maskUnits="userSpaceOnUse" x="67" y="2" width="28" height="26">
<path d="M67.0205 2.66113H94.525V27.3188H67.0205V2.66113Z" fill="white"/>
</mask>
<g mask="url(#mask1_968_4101)">
<path d="M93.105 4.57458C93.4706 3.86252 94.3382 3.60301 94.5171 2.72266C84.0328 9.24222 74.6954 17.6505 67.0854 27.3846H69.0251C76.0544 18.5032 83.6212 10.754 93.105 4.57458Z" fill="#A3BCF1"/>
</g>
<mask id="mask2_968_4101" style="mask-type:luminance" maskUnits="userSpaceOnUse" x="5" y="0" width="27" height="28">
<path d="M5.47339 0.573242H31.1783V27.319H5.47339V0.573242Z" fill="white"/>
</mask>
<g mask="url(#mask2_968_4101)">
<path d="M16.1466 14.1766C20.4579 9.14272 25.9168 4.59458 31.0391 0.573242H29.0281C24.1681 4.46942 19.6567 8.84149 15.5357 13.6534C11.8269 17.9844 8.51973 22.5729 5.6333 27.3848H6.57305C9.37674 22.7624 12.5736 18.3486 16.1466 14.1766Z" fill="#A3BCF1"/>
</g>
<mask id="mask3_968_4101" style="mask-type:luminance" maskUnits="userSpaceOnUse" x="0" y="0" width="20" height="21">
<path d="M0.711182 0.573242H19.0501V20.4013H0.711182V0.573242Z" fill="white"/>
</mask>
<g mask="url(#mask3_968_4101)">
<path d="M18.9631 0.573242H16.8503C11.4494 5.30098 6.51019 10.7408 2.29864 16.6091C2.31208 16.6932 2.31986 16.7823 2.31986 16.8785C2.31986 18.3274 0.711182 18.3274 0.711182 19.777C0.711182 19.9502 0.734516 20.1022 0.775529 20.2394C5.48418 12.6733 12.1063 6.16437 18.9631 0.573242Z" fill="#A3BCF1"/>
</g>
<mask id="mask4_968_4101" style="mask-type:luminance" maskUnits="userSpaceOnUse" x="81" y="12" width="14" height="16">
<path d="M81.1401 12.7983H94.525V27.3189H81.1401V12.7983Z" fill="white"/>
</mask>
<g mask="url(#mask4_968_4101)">
<path d="M94.1617 12.9395C92.0454 14.7914 90.0159 16.7621 88.0792 18.8459C85.564 21.5542 83.251 24.4053 81.1516 27.3843H82.1394C84.13 24.6018 86.3086 21.9346 88.6689 19.394C90.5357 17.3844 92.4901 15.4822 94.5259 13.6904C94.4729 13.3786 94.3357 13.1424 94.1617 12.9395Z" fill="#A3BCF1"/>
</g>
<mask id="mask5_968_4101" style="mask-type:luminance" maskUnits="userSpaceOnUse" x="0" y="0" width="10" height="9">
<path d="M0.711182 0.573242H9.09398V8.27297H0.711182V0.573242Z" fill="white"/>
</mask>
<g mask="url(#mask5_968_4101)">
<path d="M8.96953 0.573242H7.7342C5.87592 2.17838 4.06359 3.83656 2.30077 5.54635C2.12045 6.73995 0.711182 6.82693 0.711182 8.18387C0.711182 8.20721 0.712596 8.22984 0.713303 8.25317C3.34941 5.57322 6.10644 3.00995 8.96953 0.573242Z" fill="#A3BCF1"/>
</g>
<mask id="mask6_968_4101" style="mask-type:luminance" maskUnits="userSpaceOnUse" x="44" y="0" width="31" height="28">
<path d="M44.031 0.573242H74.9855V27.319H44.031V0.573242Z" fill="white"/>
</mask>
<g mask="url(#mask6_968_4101)">
<path d="M74.9559 0.573242H73.8995C62.8283 7.64152 52.1983 16.9718 44.1995 27.3848H46.1369C50.0925 22.3056 59.1039 11.0258 74.9566 0.573242H74.9559Z" fill="#A3BCF1"/>
</g>
<mask id="mask7_968_4101" style="mask-type:luminance" maskUnits="userSpaceOnUse" x="14" y="0" width="29" height="28">
<path d="M14.1626 0.573242H42.9448V27.319H14.1626V0.573242Z" fill="white"/>
</mask>
<g mask="url(#mask7_968_4101)">
<path d="M42.7979 0.573242H41.4197C31.081 8.06508 21.8723 17.1493 14.2341 27.3848H16.045C23.7872 17.114 32.3199 8.02336 42.7979 0.573242Z" fill="#A3BCF1"/>
</g>
<mask id="mask8_968_4101" style="mask-type:luminance" maskUnits="userSpaceOnUse" x="57" y="0" width="37" height="28">
<path d="M57.9695 0.573242H93.0874V27.319H57.9695V0.573242Z" fill="white"/>
</mask>
<g mask="url(#mask8_968_4101)">
<path d="M71.1127 15.477C77.8706 9.6985 85.2118 4.7254 92.9957 0.645367C92.8076 0.600112 92.6146 0.576071 92.4222 0.573242H90.0435C77.9498 7.49727 67.3262 17.0143 57.9817 27.3848H59.0494C62.7646 23.1513 66.793 19.1703 71.112 15.477H71.1127Z" fill="#A3BCF1"/>
</g>
<mask id="mask9_968_4101" style="mask-type:luminance" maskUnits="userSpaceOnUse" x="29" y="0" width="33" height="28">
<path d="M29.5493 0.573242H61.5899V27.319H29.5493V0.573242Z" fill="white"/>
</mask>
<g mask="url(#mask9_968_4101)">
<path d="M61.5653 0.573242H60.033C48.5092 7.7688 38.1833 16.8644 29.5884 27.3848H30.6278C39.3599 16.8135 49.8577 7.71152 61.5653 0.573242Z" fill="#A3BCF1"/>
</g>
</svg>
