<svg width="95" height="30" viewBox="0 0 95 30" fill="none" xmlns="http://www.w3.org/2000/svg">
<mask id="mask0_968_4007" style="mask-type:luminance" maskUnits="userSpaceOnUse" x="0" y="0" width="95" height="30">
<path d="M0.711182 0.808105H94.5249V29.4546H0.711182V0.808105Z" fill="white"/>
</mask>
<g mask="url(#mask0_968_4007)">
<path d="M0.798633 0.817871V0.979092C1.65848 1.3277 3.36757 1.89197 5.92589 2.67121L4.95079 2.86566L0.798633 3.1676V3.77854L4.2458 4.86679L1.24906 5.75138L3.15826 6.89266L1.17835 8.38961C1.17764 8.54164 1.27876 8.68094 1.48099 8.80822L2.89592 9.40361C2.18881 9.53937 1.48948 9.69352 0.798633 9.86676V10.67C3.1717 10.839 3.89648 11.1035 4.42611 11.2082C6.05953 11.5299 6.86776 11.6367 6.82887 11.8198C7.00636 11.887 6.6231 12.1521 5.61406 12.3204C3.31382 12.7051 1.69454 12.9088 0.798633 13.2284V13.4356C0.805704 13.4957 0.987431 13.5989 1.34311 13.7453L4.27479 14.557L4.01952 14.7847L1.81758 15.6665L3.76072 16.7144L3.75223 16.841C1.76313 17.3537 0.920963 17.6612 1.22431 17.7638C1.114 17.9554 1.86991 18.4985 3.49131 19.3937L0.798633 19.7451V20.2655L1.41382 20.5611L4.52369 21.3439L1.07087 22.2242C0.798633 22.2256 0.707416 22.3798 0.798633 22.686C0.95844 22.884 1.76667 23.0911 3.22402 23.3082C1.98799 23.6957 1.58777 23.8817 1.99294 23.9984C4.06902 24.598 5.79578 25.0414 7.21425 25.199L1.88334 25.3044L2.01486 25.4621L4.07892 26.2265C4.19488 26.2802 4.25075 26.3325 4.2465 26.3835C4.19206 26.4775 4.04144 26.5468 3.79395 26.5928L1.35796 26.877L1.01359 27.0184C0.759035 27.1818 1.67686 27.5672 3.76638 28.1731L0.798633 28.521V29.4332L93.4379 29.4325C92.0131 29.231 91.3859 29.0782 91.5563 28.975L94.3536 28.5048V28.415L88.8862 27.4038C89.8627 27.1012 91.6828 26.9668 94.3465 27.0008C93.4372 26.5878 93.0143 26.3637 93.078 26.3269C93.2229 26.1239 93.6479 25.9634 94.3536 25.8446V25.7145L91.6164 25.1616C91.289 25.0541 91.1016 24.9105 91.0549 24.7316C91.668 24.4389 92.6099 24.2402 93.8805 24.1355C92.4741 23.9312 91.7041 23.6724 91.5718 23.3591C91.3095 23.2913 92.2252 23.1018 94.3197 22.7906L94.3536 22.5262C94.5495 22.4689 92.8135 22.2921 89.1613 21.8544C88.5447 21.7802 88.2357 21.5793 88.213 21.3934C88.2272 21.3156 88.5312 21.2279 89.128 21.1607C90.5564 20.9995 91.9713 20.9302 93.3658 20.8362C93.7186 20.8121 93.9951 20.7145 94.2037 20.6297L92.6579 19.5372L92.9266 19.2735L94.3628 18.6257C92.8079 17.8522 92.1241 17.4187 92.3122 17.3247C92.3334 17.0164 93.0136 16.7187 94.3522 16.4302C93.7137 16.0229 93.3778 15.7655 93.346 15.6587L94.1429 14.5358C92.4097 13.9687 91.615 13.5848 91.7578 13.3853C92.286 13.1463 93.1508 12.9491 94.3522 12.7942L92.5625 11.6946C92.5936 11.5525 93.1897 11.3559 94.3522 11.1049L94.3536 10.2132C92.9302 9.94667 91.3752 9.7607 89.6944 9.5917C89.3055 9.5521 89.0573 9.39936 88.9407 9.1943C89.5566 8.79196 91.3604 8.35284 94.3536 7.87696V7.65634C93.3714 7.37349 92.9415 7.1458 92.9811 6.95064C93.0292 6.71093 93.4584 6.38283 94.3536 5.97836V5.46924L91.3187 4.11301L90.9849 3.83228L94.3536 3.466V3.06153L89.5361 2.2724C89.3706 2.23633 89.2666 2.16209 89.2228 2.05036C89.2638 1.78732 89.483 1.60842 89.8804 1.51437L93.9032 0.817871H0.798633Z" fill="#8DAAA6"/>
</g>
<path d="M83.4023 5.43115C82.9844 5.43115 82.5679 5.60652 82.1535 5.95866C82.1224 5.98482 82.0956 6.01381 82.0715 6.04705C80.9953 7.54117 80.7754 9.32804 81.4111 11.4084C81.4125 11.414 81.4146 11.419 81.4167 11.4246C82.2872 13.9547 83.4893 15.371 85.0223 15.6722C85.0513 15.6779 85.0803 15.6807 85.1093 15.6814C85.1298 15.6814 85.1503 15.6821 85.1708 15.6821C86.8212 15.6821 88.4072 14.5154 89.9296 12.1812C89.9381 12.1685 89.9459 12.1551 89.953 12.1416C90.4345 11.2252 90.7661 10.4163 90.9493 9.71412H90.95C90.6261 9.67806 90.2966 9.64553 89.9629 9.61442H89.9615C89.7932 10.1886 89.5011 10.8724 89.0846 11.6657H89.0839C87.7631 13.6824 86.4584 14.6908 85.1708 14.6915C84.0323 14.444 83.0954 13.2525 82.3579 11.1191C81.8254 9.37754 81.9853 7.89755 82.8373 6.6785H82.8366C83.0113 6.54273 83.1916 6.47485 83.3768 6.47485C83.7014 6.47485 84.0436 6.68203 84.4022 7.0964H84.4014C84.9077 7.97746 85.2132 8.78427 85.3193 9.51684H85.3186C85.0824 9.77564 84.8391 10.0507 84.5881 10.3427C84.4099 10.5499 84.434 10.8625 84.6412 11.0407C84.7345 11.1213 84.8498 11.1602 84.9636 11.1602C85.0888 11.1602 85.2125 11.1135 85.3073 11.0216H85.308C85.3631 11.1814 85.4982 11.3087 85.675 11.3461C85.7096 11.3532 85.7435 11.3567 85.7775 11.3567C86.0066 11.3567 86.2124 11.1962 86.2611 10.9636C86.3361 10.6072 86.3637 10.2381 86.3453 9.85484H86.3446C87.8034 8.27232 88.8117 7.48107 89.3703 7.48107C89.4226 7.48107 89.4707 7.48743 89.5153 7.50157H89.5146C89.5393 7.51289 89.5641 7.52491 89.5867 7.53693C89.9805 7.7434 90.1616 8.13868 90.1305 8.72204C90.1792 8.70861 90.2302 8.69517 90.2825 8.68174C90.3362 8.6577 90.6141 8.59335 91.1148 8.48728H91.1155C91.0999 7.63522 90.7435 7.02639 90.0477 6.66082C89.9961 6.63324 89.9431 6.60778 89.8879 6.58445C89.8773 6.5795 89.866 6.57526 89.8547 6.57101C89.738 6.53071 89.6129 6.5102 89.4785 6.5102C88.6823 6.5102 87.5714 7.22368 86.1452 8.64921C85.9627 7.98806 85.6587 7.29085 85.2344 6.55829C85.2196 6.53283 85.2026 6.50879 85.1835 6.48616C84.5867 5.78259 83.9927 5.43115 83.4023 5.43115Z" fill="#F5FED1"/>
<path d="M70.5199 15.9284C70.522 15.9284 70.5249 15.9284 70.5277 15.9284H70.527C70.8975 15.9574 71.2079 16.2325 71.4568 16.7529C71.6937 17.2889 71.768 17.9932 71.6789 18.8672C71.466 20.8966 70.754 22.2599 69.5441 22.9578H69.5434C69.4218 23.008 69.2938 23.0335 69.1601 23.0335C68.5237 23.0335 67.7551 22.4614 66.8543 21.3173C65.8417 19.966 65.469 18.7922 65.7363 17.7973H65.7356C65.7688 17.7309 65.8028 17.6708 65.8388 17.6191C65.9414 17.4706 66.0778 17.3964 66.2483 17.3964C66.4463 17.3964 66.6902 17.4961 66.9801 17.6962C66.9858 17.6997 66.9914 17.7033 66.9964 17.7068C67.4921 18.0201 67.8562 18.4493 68.0875 18.9945C68.0288 19.2992 67.9807 19.6096 67.9425 19.9264C67.91 20.198 68.1037 20.4447 68.3752 20.4773C68.395 20.4794 68.4148 20.4808 68.4346 20.4808C68.5082 20.4808 68.5782 20.4645 68.6418 20.4356C68.7048 20.4638 68.7748 20.4801 68.8469 20.4801C68.8667 20.4801 68.8865 20.4787 68.9063 20.4766C69.1778 20.444 69.3716 20.1973 69.339 19.9257C69.2952 19.5616 69.221 19.2222 69.1156 18.9075H69.1149C69.2789 18.1473 69.5123 17.4317 69.8149 16.76L69.8178 16.7529C70.0553 16.2035 70.2894 15.9284 70.5199 15.9284ZM70.5143 14.9385C69.8538 14.9385 69.3185 15.4122 68.9091 16.3605C68.7224 16.7748 68.5605 17.2041 68.4226 17.6488C68.1758 17.354 67.8824 17.098 67.5416 16.8802H67.5409C67.0388 16.5344 66.5898 16.3619 66.1924 16.3619C65.7328 16.3619 65.3432 16.5938 65.0235 17.0577C64.9507 17.163 64.8842 17.2811 64.8234 17.4112C64.8121 17.4346 64.8036 17.4586 64.7959 17.4834C64.4168 18.8028 64.839 20.2786 66.0623 21.9113C66.0644 21.9141 66.0665 21.917 66.0687 21.9198C67.1732 23.3255 68.2034 24.0277 69.1594 24.0277C69.4352 24.0277 69.7046 23.9697 69.9677 23.853C69.9825 23.8467 69.9974 23.8389 70.0115 23.8311C71.5297 22.9691 72.4143 21.3484 72.6639 18.969V18.9676C72.7714 17.9119 72.6681 17.0351 72.3549 16.3364C72.3535 16.3329 72.3513 16.3294 72.3499 16.3258C71.9334 15.4547 71.3458 14.9929 70.5878 14.9406C70.5836 14.9399 70.5793 14.9399 70.5751 14.9399C70.5546 14.9385 70.5348 14.9385 70.5143 14.9385Z" fill="#F5FED1"/>
<path d="M52.5387 9.65035C52.683 9.76278 52.888 10.0972 53.1539 10.6544C53.1596 10.6658 53.1652 10.6764 53.1716 10.6877C53.3003 10.9132 53.3993 11.1954 53.4672 11.5341H53.4664L53.1673 11.9315C53.0033 12.15 53.0464 12.4604 53.2649 12.6245C53.354 12.6916 53.4587 12.7242 53.5626 12.7242C53.6411 12.7242 53.7196 12.7058 53.791 12.669C53.8681 12.7178 53.9586 12.7454 54.0555 12.7454C54.0661 12.7454 54.0774 12.7454 54.088 12.7447C54.3609 12.7263 54.5674 12.4908 54.5497 12.2179C54.5398 12.0722 54.5271 11.9315 54.5101 11.7957H54.5094L55.0567 11.0702H55.056C55.1967 10.9041 55.3269 10.781 55.4471 10.7018C55.4577 10.6962 55.4683 10.6905 55.4782 10.6856C55.5454 10.6516 55.6033 10.6346 55.6528 10.6346C55.6974 10.6346 55.7349 10.6481 55.7646 10.6757C55.8027 11.573 55.563 12.355 55.0454 13.0204C55.0384 13.0296 55.032 13.0381 55.0263 13.0473C54.7435 13.4659 54.4373 13.6752 54.1078 13.6752C54.0074 13.6752 53.9041 13.6561 53.7995 13.6165H53.7988C53.1532 13.3535 52.6017 12.5474 52.1434 11.1982H52.1427C52.13 11.0822 52.1201 10.9712 52.1145 10.8666C52.072 10.0987 52.2127 9.69348 52.5387 9.65035ZM52.5918 8.65332C52.5578 8.65332 52.5239 8.65615 52.4892 8.6611C51.5 8.72898 51.046 9.48276 51.1259 10.921C51.1337 11.0617 51.1471 11.2088 51.1655 11.3637C51.169 11.3969 51.1768 11.4301 51.1874 11.462C51.7453 13.1286 52.4906 14.1525 53.4254 14.5337C53.4283 14.5351 53.4318 14.5358 53.4346 14.5372C53.6878 14.6341 53.9303 14.6829 54.1637 14.6829C54.793 14.6829 55.3502 14.3286 55.8339 13.6201H55.8331C56.5261 12.7249 56.8295 11.6769 56.7446 10.4777C56.7397 10.4119 56.722 10.3476 56.6923 10.2882C56.4604 9.83066 56.145 9.60226 55.7476 9.60226C55.5326 9.60226 55.2936 9.66873 55.0306 9.80238C55.0058 9.8151 54.9811 9.82783 54.9563 9.84197C54.9478 9.84692 54.9394 9.85187 54.9309 9.85682C54.7202 9.99117 54.508 10.1842 54.2945 10.4374C54.2888 10.4444 54.2832 10.4515 54.2775 10.4586L54.2054 10.5547C54.1559 10.4352 54.1014 10.3221 54.0427 10.2167H54.042C53.6666 9.43185 53.3151 8.94748 52.9891 8.76434C52.8576 8.6908 52.7254 8.65332 52.5918 8.65332Z" fill="#F5FED1"/>
<path d="M93.9048 18.3647L93.8786 18.439C93.8609 18.4878 93.8418 18.5366 93.822 18.5847C93.8022 18.6327 93.781 18.6808 93.7591 18.7282C93.7139 18.8222 93.6651 18.9149 93.6113 19.0054L94.2004 18.7862C94.2258 18.7763 94.2498 18.7643 94.2725 18.7501C94.2838 18.7438 94.2951 18.736 94.3057 18.7275L94.3538 18.6879L94.3545 18.5599C94.2293 18.5076 94.0794 18.4425 93.9048 18.3647Z" fill="#F5FED1"/>
<path d="M90.9081 15.0047H90.8968C90.9096 14.9955 90.7759 15.0139 90.4959 15.0599L90.2258 15.1589L89.9953 15.3081L89.8043 15.5089L89.6523 15.7599L89.5406 16.0619L89.4685 16.4147L89.4359 16.8178C89.4289 17.119 89.4451 17.4238 89.484 17.7314C89.6283 18.1832 89.7676 18.5495 89.904 18.8288L90.1247 19.2651C90.276 19.5409 90.4372 19.7841 90.6076 19.9955C90.778 20.207 90.9576 20.3873 91.1471 20.5351L91.4371 20.7337C91.7072 20.8716 91.8436 20.9346 91.8465 20.9225C92.4164 20.8844 92.8824 20.8575 93.2437 20.8412C93.4191 20.7606 93.6312 20.5881 93.8794 20.3229L92.9658 19.8223C92.6929 20.0323 92.4093 20.0811 92.1159 19.9672C91.8288 19.8506 91.5601 19.6264 91.3105 19.2948L91.1266 19.0261C91.0057 18.8337 90.8905 18.6145 90.7794 18.3678C90.6684 18.1217 90.5617 17.8487 90.4598 17.5489C90.3962 16.921 90.4202 16.496 90.5305 16.2733C90.5666 16.192 90.6112 16.129 90.6656 16.0838L90.7533 16.0293L90.8551 16.0011L90.906 16.047C91.0856 16.2386 91.3317 16.6806 91.6421 17.3721C91.6796 17.4584 91.727 17.6288 91.7835 17.8848L91.4844 18.2822C91.4569 18.319 91.4349 18.3572 91.4187 18.3982C91.4038 18.4173 91.3925 18.4802 91.3847 18.5855C91.3854 18.6718 91.4081 18.7524 91.4512 18.8281C91.5254 18.9476 91.6252 19.0247 91.7503 19.0579C91.8818 19.089 92.0006 19.0763 92.1074 19.0197C92.1937 19.0699 92.2743 19.0954 92.3478 19.0954C92.4305 19.1003 92.5126 19.0834 92.5946 19.0438C92.6618 19.0225 92.7353 18.9483 92.8152 18.8224C92.8541 18.7227 92.8711 18.6605 92.8661 18.6358C92.8704 18.5806 92.8569 18.4173 92.8265 18.1464L93.0019 17.9145C92.6512 17.7264 92.4214 17.5298 92.3125 17.3241C92.4511 17.1268 92.6625 16.9585 92.9467 16.8192C93.0889 16.7492 93.2494 16.687 93.4276 16.6311L93.709 16.5533L94.3546 16.4239C94.1382 16.2938 93.9254 16.1545 93.7161 16.0053C93.3017 16.1057 92.9036 16.4062 92.5218 16.9055C92.2693 16.3186 91.9759 15.8165 91.64 15.3986C91.4385 15.1518 91.1945 15.0203 90.9081 15.0047Z" fill="#F5FED1"/>
<mask id="mask1_968_4007" style="mask-type:luminance" maskUnits="userSpaceOnUse" x="78" y="22" width="9" height="8">
<path d="M78.2437 22.3691H86.3896V29.4544H78.2437V22.3691Z" fill="white"/>
</mask>
<g mask="url(#mask1_968_4007)">
<path d="M84.1871 22.5093C83.5267 22.5093 82.9914 22.9837 82.582 23.9313C82.3953 24.3464 82.2333 24.7756 82.0948 25.2196C81.8487 24.9248 81.5552 24.6688 81.2144 24.451C80.7116 24.1059 80.2626 23.9334 79.8652 23.9334C79.4056 23.9334 79.016 24.1646 78.6964 24.6285C78.6235 24.7338 78.5571 24.8519 78.4963 24.982C78.485 25.0054 78.4758 25.0301 78.4687 25.0549C78.0932 26.3602 78.5026 27.8197 79.6976 29.4319L80.9832 29.4326H80.9839C80.8354 29.2685 80.6834 29.0868 80.5271 28.8888C79.5145 27.5368 79.1419 26.3637 79.4091 25.3688C79.4417 25.3017 79.4756 25.2423 79.5117 25.1899C79.6135 25.0421 79.75 24.9679 79.9211 24.9679C80.1191 24.9679 80.363 25.0676 80.653 25.2677C80.6586 25.2713 80.6643 25.2748 80.6692 25.2783C81.1649 25.5916 81.5284 26.0208 81.7603 26.566C81.7016 26.8707 81.6535 27.1812 81.6153 27.4979C81.5828 27.7695 81.7766 28.0155 82.0481 28.0481C82.0679 28.0509 82.0877 28.0523 82.1075 28.0523C82.181 28.0523 82.251 28.0361 82.3147 28.0064C82.3776 28.0353 82.4476 28.0509 82.5197 28.0509C82.5395 28.0509 82.5593 28.0495 82.5791 28.0474C82.8507 28.0148 83.0444 27.7688 83.0119 27.4972C82.968 27.1324 82.8938 26.793 82.7884 26.479C82.9518 25.7181 83.1851 25.0025 83.4878 24.3315L83.4906 24.3244C83.7282 23.7743 83.9622 23.4992 84.1927 23.4992C84.1949 23.4992 84.1977 23.4999 84.2005 23.4999C84.5711 23.5289 84.8808 23.804 85.1297 24.3244C85.3666 24.8597 85.4408 25.5647 85.3517 26.4387C85.2202 27.6896 84.8992 28.6873 84.3893 29.4319L85.5426 29.4326H85.5433C85.9527 28.6413 86.2172 27.6775 86.3367 26.5405V26.5384C86.4442 25.4827 86.341 24.6059 86.0277 23.9079C86.0263 23.9044 86.0242 23.9002 86.0228 23.8966C85.6063 23.0262 85.0187 22.5644 84.2606 22.5114C84.2564 22.5114 84.2521 22.5107 84.2479 22.5107C84.2274 22.51 84.2069 22.5093 84.1871 22.5093Z" fill="#F5FED1"/>
</g>
<mask id="mask2_968_4007" style="mask-type:luminance" maskUnits="userSpaceOnUse" x="74" y="0" width="7" height="4">
<path d="M74.6233 0.808105H80.0539V3.72423H74.6233V0.808105Z" fill="white"/>
</mask>
<g mask="url(#mask2_968_4007)">
<path d="M75.8033 0.817871H74.7341C75.2694 2.20027 75.9574 3.06224 76.7975 3.40519C76.8003 3.4059 76.8038 3.40731 76.8067 3.40872C77.0598 3.5056 77.3031 3.55439 77.5357 3.55439C78.165 3.55439 78.7222 3.20013 79.2059 2.49089C79.5991 1.98248 79.867 1.42457 80.0099 0.817871H78.9817C78.8615 1.20395 78.6734 1.56246 78.4175 1.89197C78.4111 1.90046 78.404 1.90965 78.3984 1.91884C78.1155 2.33745 77.8094 2.54676 77.4798 2.54676C77.3794 2.54676 77.2762 2.52696 77.1715 2.48807C76.6554 2.27805 76.1993 1.72085 75.8033 0.817871Z" fill="#F5FED1"/>
</g>
<mask id="mask3_968_4007" style="mask-type:luminance" maskUnits="userSpaceOnUse" x="76" y="0" width="3" height="2">
<path d="M76.4336 0.808105H78.0628V1.73301H76.4336V0.808105Z" fill="white"/>
</mask>
<g mask="url(#mask3_968_4007)">
<path d="M76.5292 0.817871C76.3779 1.03495 76.4239 1.33477 76.6374 1.49599C76.7265 1.56317 76.8312 1.59569 76.9351 1.59569C77.0143 1.59569 77.0928 1.5766 77.1635 1.53983C77.2406 1.58862 77.3311 1.61691 77.428 1.61691C77.4386 1.61691 77.4499 1.6162 77.4605 1.61549C77.7334 1.59781 77.9399 1.36164 77.9222 1.0894C77.9159 0.99677 77.9088 0.90626 77.8996 0.817871H77.9003H76.5292Z" fill="#F5FED1"/>
</g>
<mask id="mask4_968_4007" style="mask-type:luminance" maskUnits="userSpaceOnUse" x="59" y="0" width="11" height="10">
<path d="M59.4177 0.808105H69.5549V9.87892H59.4177V0.808105Z" fill="white"/>
</mask>
<g mask="url(#mask4_968_4007)">
<path d="M60.0958 0.817871C59.3576 2.18189 59.2649 3.76723 59.8165 5.57248C59.8179 5.57814 59.82 5.58309 59.8214 5.58875C60.6926 8.11879 61.8947 9.53513 63.4277 9.83636C63.4567 9.84202 63.4857 9.84484 63.5147 9.84555C63.5352 9.84555 63.5557 9.84626 63.5762 9.84626C65.2266 9.84626 66.8126 8.67953 68.335 6.34535C68.3435 6.33263 68.3513 6.31919 68.3584 6.30576C69.8765 3.4165 69.9084 1.59004 68.4531 0.824942C68.4482 0.822114 68.4439 0.819992 68.4397 0.817871H67.2022C66.4909 1.09152 65.607 1.75691 64.5499 2.81334C64.3759 2.18118 64.0902 1.51579 63.6943 0.817871H62.3203C62.4787 0.921109 62.6414 1.06819 62.8075 1.26052H62.8068C63.3131 2.14158 63.6186 2.9484 63.7247 3.68096L63.724 3.68167C63.4878 3.93976 63.2445 4.21483 62.9935 4.50687C62.8153 4.71405 62.8394 5.02659 63.0465 5.20478C63.1399 5.2854 63.2544 5.32429 63.369 5.32429C63.4941 5.32429 63.6179 5.27762 63.7126 5.18569H63.7134C63.7685 5.3455 63.9036 5.47278 64.0803 5.51026C64.115 5.51733 64.1489 5.52086 64.1829 5.52086C64.412 5.52086 64.6177 5.36035 64.6665 5.12771C64.7415 4.77133 64.7691 4.40221 64.7507 4.01896H64.75C66.208 2.43645 67.2171 1.64519 67.7757 1.64519C67.828 1.64519 67.8761 1.65155 67.9207 1.6657H67.92C67.9447 1.67701 67.9687 1.68903 67.9921 1.70105C68.8618 2.15785 68.6942 3.53459 67.49 5.82987L67.4893 5.83058C66.1684 7.84655 64.8638 8.85489 63.5762 8.8556C62.4384 8.60811 61.5008 7.41663 60.7633 5.28327C60.2308 3.54166 60.3906 2.06168 61.2427 0.84262C61.2533 0.834135 61.2639 0.825649 61.2752 0.817871H60.0958Z" fill="#F5FED1"/>
</g>
<path d="M74.096 9.72603C74.2402 9.83775 74.4446 10.1729 74.7105 10.7301C74.7161 10.7414 74.7218 10.752 74.7281 10.7634C74.8575 10.9882 74.9558 11.2704 75.0237 11.6098L74.7246 12.0072C74.5598 12.225 74.6037 12.5354 74.8215 12.7001C74.9106 12.7673 75.0152 12.7998 75.1192 12.7998C75.1984 12.7998 75.2769 12.7807 75.3476 12.7447H75.3483C75.4246 12.7928 75.5159 12.8211 75.612 12.8211C75.6226 12.8211 75.6339 12.8203 75.6453 12.8196C75.9175 12.802 76.1247 12.5665 76.1063 12.2935C76.0971 12.1479 76.0837 12.0065 76.0667 11.8707L76.6133 11.1459H76.6126C76.7533 10.979 76.8841 10.8567 77.0043 10.7775H77.0036C77.0142 10.7718 77.0248 10.7662 77.0354 10.7612C77.1026 10.7266 77.1606 10.7096 77.2101 10.7096C77.2539 10.7096 77.2914 10.7238 77.3218 10.7513H77.3211C77.3593 11.6487 77.1196 12.43 76.602 13.0961C76.5956 13.1046 76.5893 13.1138 76.5829 13.123C76.3 13.5416 75.9939 13.7509 75.6644 13.7509C75.5639 13.7509 75.4614 13.7311 75.3561 13.6922C74.7098 13.4292 74.1582 12.6231 73.7 11.2739C73.6866 11.1572 73.6774 11.0469 73.671 10.9416C73.6286 10.1743 73.77 9.76916 74.0953 9.72603H74.096ZM74.1483 8.729C74.1144 8.729 74.0804 8.73183 74.0465 8.73608H74.0458C73.0572 8.80466 72.6026 9.55844 72.6832 10.9967C72.691 11.1374 72.7037 11.2845 72.7221 11.4394C72.7263 11.4726 72.7334 11.5058 72.744 11.5376C73.3019 13.2043 74.0479 14.2282 74.982 14.6093C74.9855 14.61 74.9884 14.6115 74.9919 14.6129C75.2443 14.7097 75.4876 14.7585 75.7202 14.7585C76.3503 14.7585 76.9067 14.4043 77.3904 13.6957C78.0827 12.7998 78.3867 11.7526 78.3012 10.5526C78.2969 10.4869 78.2793 10.4225 78.2488 10.3638C78.0169 9.90634 77.7022 9.67795 77.3041 9.67795C77.0899 9.67795 76.8509 9.74441 76.5871 9.87806C76.5631 9.89079 76.5383 9.90351 76.5129 9.91766C76.5044 9.92261 76.4959 9.92756 76.4881 9.93251C76.2767 10.0662 76.0646 10.2599 75.851 10.513C75.8454 10.5201 75.8397 10.5265 75.8348 10.5343L75.7619 10.6304C75.7131 10.5102 75.6587 10.3978 75.5993 10.2924H75.5986C75.2231 9.50683 74.8724 9.02316 74.5464 8.84002C74.4149 8.76577 74.282 8.729 74.1483 8.729Z" fill="#F5FED1"/>
<mask id="mask5_968_4007" style="mask-type:luminance" maskUnits="userSpaceOnUse" x="51" y="22" width="10" height="8">
<path d="M51.9958 22.5503H60.1418V29.4545H51.9958V22.5503Z" fill="white"/>
</mask>
<g mask="url(#mask5_968_4007)">
<path d="M57.9145 22.7031C57.2541 22.7031 56.7195 23.1769 56.3094 24.1251C56.1227 24.5395 55.9608 24.9687 55.8229 25.4128C55.5761 25.1186 55.2827 24.8619 54.9419 24.6449C54.4398 24.2991 53.9901 24.1265 53.5927 24.1265C53.1331 24.1265 52.7434 24.3585 52.4238 24.8216C52.351 24.9277 52.2845 25.0451 52.2237 25.1759C52.2131 25.1992 52.2039 25.2233 52.1969 25.248C51.8362 26.501 52.199 27.8961 53.2851 29.432H54.5416C54.4476 29.3224 54.3521 29.2057 54.2545 29.082C53.242 27.73 52.8693 26.5569 53.1366 25.562C53.1691 25.4948 53.2038 25.4354 53.2391 25.3838C53.3417 25.2353 53.4781 25.161 53.6485 25.161C53.8465 25.161 54.0905 25.2607 54.3804 25.4609C54.3861 25.4644 54.3917 25.4679 54.3974 25.4715C54.8924 25.7847 55.2565 26.2139 55.4884 26.7591C55.4298 27.0639 55.381 27.3743 55.3428 27.6911C55.3103 27.9626 55.504 28.2094 55.7755 28.2419C55.7953 28.244 55.8158 28.2455 55.8349 28.2455C55.9085 28.2455 55.9785 28.2292 56.0421 28.1995C56.1058 28.2285 56.1751 28.244 56.2472 28.244C56.267 28.244 56.2868 28.2433 56.3066 28.2405C56.5781 28.2087 56.7719 27.9619 56.7393 27.6904C56.6955 27.3262 56.6212 26.9861 56.5159 26.6721C56.6792 25.912 56.9126 25.1964 57.2152 24.5246L57.218 24.5176C57.4556 23.9681 57.6897 23.6931 57.9202 23.6931C57.923 23.6931 57.9252 23.6931 57.928 23.6931C58.2985 23.7221 58.6082 23.9971 58.8571 24.5176C59.094 25.0529 59.1683 25.7578 59.0799 26.6318C58.9589 27.7774 58.6796 28.7107 58.2412 29.432L59.3662 29.4327C59.7219 28.6796 59.9546 27.7802 60.0642 26.7337V26.7322C60.1716 25.6765 60.0691 24.799 59.7552 24.1011C59.7537 24.0975 59.7523 24.094 59.7502 24.0905C59.3337 23.2193 58.7461 22.7576 57.9881 22.7052C57.9838 22.7045 57.9796 22.7045 57.9754 22.7038C57.9549 22.7031 57.9351 22.7031 57.9145 22.7031Z" fill="#F5FED1"/>
</g>
<path d="M44.8844 20.2085C45.0287 20.3209 45.2337 20.6553 45.4996 21.2125C45.5053 21.2239 45.5109 21.2345 45.5173 21.2458C45.6467 21.4706 45.745 21.7535 45.8129 22.0922H45.8122L45.513 22.4896C45.349 22.7081 45.3921 23.0185 45.6106 23.1826C45.6997 23.2497 45.8044 23.2823 45.9083 23.2823C45.9868 23.2823 46.0653 23.2639 46.1367 23.2271C46.2138 23.2759 46.3043 23.3035 46.4012 23.3035C46.4118 23.3035 46.4231 23.3035 46.4337 23.3028C46.7066 23.2844 46.9131 23.0489 46.8954 22.776C46.8855 22.6303 46.8728 22.4896 46.8558 22.3531H46.8551L47.4024 21.6283H47.4017C47.5425 21.4622 47.6726 21.3391 47.7928 21.2599C47.8034 21.2543 47.814 21.2486 47.8239 21.2437H47.8246C47.8911 21.2097 47.949 21.1927 47.9985 21.1927C48.0431 21.1927 48.0806 21.2062 48.1103 21.2338C48.1484 22.1311 47.9087 22.9124 47.3911 23.5785C47.3848 23.5877 47.3777 23.5962 47.372 23.6054C47.0892 24.024 46.783 24.2333 46.4535 24.2333C46.3531 24.2333 46.2499 24.2142 46.1452 24.1746H46.1445C45.4989 23.9116 44.9474 23.1055 44.4891 21.7563H44.4884C44.4757 21.6404 44.4658 21.5293 44.4602 21.424C44.4177 20.6568 44.5584 20.2516 44.8844 20.2085ZM44.9375 19.2114C44.9035 19.2114 44.8696 19.2143 44.8356 19.2192H44.8349C43.8457 19.2871 43.3917 20.0409 43.4716 21.4791C43.4794 21.6198 43.4928 21.7669 43.5112 21.9218C43.5147 21.955 43.5225 21.9882 43.5331 22.0201C44.091 23.6867 44.8363 24.7106 45.7711 25.0918C45.774 25.0932 45.7775 25.0939 45.7803 25.0953C46.0335 25.1922 46.276 25.241 46.5094 25.241C47.1387 25.241 47.6959 24.8867 48.1796 24.1782C48.8718 23.283 49.1759 22.235 49.0903 21.0358C49.0854 20.9693 49.0677 20.9057 49.038 20.8463C48.8061 20.3888 48.4907 20.1604 48.0933 20.1604C47.8783 20.1604 47.6393 20.2268 47.3763 20.3605C47.3515 20.3732 47.3268 20.3859 47.302 20.4001C47.2935 20.405 47.2851 20.41 47.2766 20.4149C47.0659 20.5493 46.8537 20.7423 46.6402 20.9955C46.6345 21.0025 46.6289 21.0096 46.6232 21.0167L46.5511 21.1128C46.5016 20.9926 46.4478 20.8802 46.3884 20.7748H46.3877C46.0123 19.9892 45.6608 19.5056 45.3349 19.3224C45.2033 19.2489 45.0711 19.2114 44.9375 19.2114Z" fill="#F5FED1"/>
<path d="M39.4906 6.04272C39.8152 6.04272 40.1567 6.2499 40.5159 6.66427H40.5152C41.0215 7.54533 41.327 8.35214 41.433 9.08542H41.4323C41.1962 9.34351 40.9529 9.61858 40.7019 9.91061C40.5237 10.1178 40.5477 10.4303 40.7549 10.6085C40.8483 10.6891 40.9628 10.728 41.0774 10.728C41.2018 10.728 41.3263 10.6814 41.421 10.5894H41.4217C41.4769 10.7492 41.6119 10.8765 41.7887 10.914C41.8234 10.9211 41.8573 10.9246 41.8913 10.9246C42.1204 10.9246 42.3261 10.7648 42.3749 10.5315C42.4499 10.1758 42.4774 9.80596 42.4591 9.42271H42.4584C43.9164 7.84019 44.9255 7.04894 45.4841 7.04894C45.5364 7.04894 45.5845 7.05601 45.629 7.06944H45.6283C45.6531 7.08076 45.6771 7.09278 45.7005 7.1048C46.5702 7.56159 46.4026 8.93834 45.1984 11.2343H45.1977C43.8768 13.2503 42.5722 14.2593 41.2846 14.26C40.1461 14.0119 39.2092 12.8211 38.4717 10.687C37.9392 8.94541 38.099 7.46542 38.9511 6.24637H38.9504C39.125 6.1106 39.3054 6.04272 39.4906 6.04272ZM39.5161 4.99902C39.0982 4.99902 38.6817 5.17509 38.2673 5.52653C38.2362 5.55269 38.2093 5.58239 38.1853 5.61492C37.1091 7.10904 36.8892 8.89662 37.5248 10.9762C37.5263 10.9819 37.5284 10.9875 37.5298 10.9925C38.401 13.5232 39.603 14.9389 41.1361 15.2401C41.1651 15.2458 41.194 15.2486 41.223 15.2493C41.2435 15.25 41.264 15.25 41.2846 15.25C42.9349 15.25 44.521 14.0833 46.0434 11.7498C46.0519 11.7364 46.0597 11.7229 46.0667 11.7095C47.5849 8.82096 47.6167 6.99378 46.1615 6.22869C46.1099 6.20182 46.0568 6.17636 46.0017 6.15232C45.9911 6.14737 45.9798 6.14313 45.9677 6.13889C45.8518 6.09858 45.7266 6.07807 45.5923 6.07807C44.7961 6.07807 43.6852 6.79155 42.2582 8.21779C42.0765 7.55594 41.7725 6.85872 41.3482 6.12616C41.3333 6.1007 41.3164 6.07666 41.2973 6.05474C40.7005 5.35046 40.1065 4.99902 39.5161 4.99902Z" fill="#F5FED1"/>
<mask id="mask6_968_4007" style="mask-type:luminance" maskUnits="userSpaceOnUse" x="46" y="0" width="8" height="4">
<path d="M46.384 0.808105H53.2628V3.90525H46.384V0.808105Z" fill="white"/>
</mask>
<g mask="url(#mask6_968_4007)">
<path d="M47.7269 0.817871H46.5425C46.7023 1.08092 46.8833 1.3482 47.087 1.61973C47.0891 1.62256 47.0912 1.6261 47.094 1.62893C48.1978 3.03396 49.2281 3.73682 50.1848 3.73682C50.4599 3.73682 50.7293 3.67813 50.9923 3.56217C51.0072 3.5551 51.022 3.54802 51.0362 3.53954C52.0452 2.96749 52.7735 2.06026 53.2226 0.817871H52.1555C51.7892 1.65155 51.2603 2.26815 50.5688 2.66697C50.4464 2.71717 50.3185 2.74263 50.1848 2.74263C49.5484 2.74263 48.7798 2.17057 47.8796 1.02647C47.8266 0.956465 47.7764 0.886461 47.7269 0.817871Z" fill="#F5FED1"/>
</g>
<path d="M29.086 3.22212C29.2302 3.33455 29.4346 3.66902 29.7005 4.22622C29.7061 4.23753 29.7118 4.24814 29.7181 4.25945C29.8475 4.48432 29.9458 4.76716 30.0137 5.10587L29.7146 5.50326C29.5498 5.72176 29.5937 6.03147 29.8115 6.19623C29.9006 6.26341 30.0052 6.29593 30.1092 6.29593C30.1884 6.29593 30.2668 6.27755 30.3376 6.24078H30.3383C30.4146 6.28957 30.5059 6.31715 30.602 6.31715C30.6126 6.31715 30.6239 6.31715 30.6353 6.31644C30.9075 6.29805 31.1147 6.06259 31.0963 5.78964C31.0871 5.64398 31.0737 5.50326 31.0567 5.36679L31.6033 4.642H31.6026C31.7433 4.47583 31.8741 4.35279 31.9943 4.2736H31.9936C32.0042 4.26794 32.0148 4.26228 32.0254 4.25733C32.0926 4.22339 32.1506 4.20642 32.2001 4.20642C32.2439 4.20642 32.2814 4.21986 32.3118 4.24743H32.3111C32.3493 5.14476 32.1096 5.92611 31.592 6.59221C31.5856 6.60141 31.5792 6.60989 31.5729 6.61908C31.29 7.03769 30.9839 7.247 30.6543 7.247C30.5539 7.247 30.4514 7.22791 30.346 7.18831C29.6997 6.92526 29.1482 6.11916 28.69 4.76999C28.6766 4.65402 28.6674 4.54301 28.661 4.43765C28.6186 3.67043 28.76 3.26526 29.0853 3.22212H29.086ZM29.1383 2.2251C29.1044 2.2251 29.0704 2.22793 29.0365 2.23217H29.0358C28.0472 2.30076 27.5926 3.05454 27.6732 4.4928C27.6809 4.63352 27.6937 4.7806 27.7121 4.93545C27.7163 4.96869 27.7234 5.00192 27.734 5.03374C28.2919 6.7004 29.0379 7.7243 29.972 8.10543C29.9755 8.10684 29.9783 8.10755 29.9819 8.10897C30.2343 8.20584 30.4776 8.25463 30.7102 8.25463C31.3402 8.25463 31.8967 7.90037 32.3804 7.19184C33.0727 6.29664 33.3767 5.2487 33.2912 4.04874C33.2869 3.98297 33.2692 3.91933 33.2388 3.85994C33.0069 3.40244 32.6922 3.17404 32.2941 3.17404C32.0799 3.17404 31.8409 3.24051 31.5771 3.37415C31.5531 3.38688 31.5283 3.39961 31.5029 3.41375C31.4944 3.4187 31.4859 3.42365 31.4781 3.4286C31.2667 3.56224 31.0546 3.75599 30.841 4.00914C30.8354 4.01621 30.8297 4.02328 30.8248 4.03035L30.7519 4.12652C30.7031 4.00631 30.6487 3.89388 30.5893 3.78852H30.5886C30.2131 3.00292 29.8624 2.51926 29.5364 2.33611C29.4049 2.26257 29.2719 2.2251 29.1383 2.2251Z" fill="#F5FED1"/>
<path d="M29.3471 16.8154C29.6716 16.8154 30.0132 17.0226 30.3724 17.4369H30.3717C30.8772 18.318 31.1834 19.1248 31.2888 19.8574H31.2881C31.0526 20.1162 30.8087 20.3913 30.5583 20.6833C30.3801 20.8905 30.4042 21.203 30.6114 21.3812C30.7047 21.4611 30.8193 21.5007 30.9338 21.5007C31.0583 21.5007 31.1827 21.4533 31.2775 21.3621H31.2782C31.3326 21.5212 31.4677 21.6492 31.6452 21.6867C31.6791 21.6938 31.7138 21.6973 31.7477 21.6973C31.9768 21.6973 32.1826 21.5368 32.2314 21.3034C32.3063 20.9478 32.3339 20.5786 32.3155 20.1954H32.3148C33.7729 18.6129 34.7812 17.8209 35.3398 17.8209C35.3921 17.8209 35.4409 17.828 35.4855 17.8421H35.4848C35.5095 17.8534 35.5336 17.8655 35.5569 17.8775C36.4266 18.3343 36.2591 19.711 35.0541 22.0063H35.0534C33.7333 24.023 32.4286 25.0313 31.141 25.032C30.0025 24.7838 29.0649 23.5931 28.3281 21.459C27.7957 19.7181 27.9555 18.2374 28.8075 17.019H28.8068C28.9815 16.8833 29.1611 16.8154 29.3471 16.8154ZM29.3725 15.771C28.9546 15.771 28.5381 15.9471 28.1231 16.2992C28.0926 16.3247 28.0651 16.3544 28.0417 16.3869C26.9655 17.8817 26.7456 19.6686 27.3813 21.7489C27.3827 21.7539 27.3848 21.7595 27.3862 21.7652C28.2574 24.2952 29.4595 25.7116 30.9925 26.0128C31.0208 26.0184 31.0505 26.0213 31.0795 26.022C31.1 26.022 31.1205 26.022 31.141 26.022C32.7907 26.022 34.3774 24.8552 35.8991 22.5218C35.9076 22.5091 35.9161 22.4956 35.9232 22.4822C37.4414 19.5929 37.4732 17.7658 36.0172 17.0014C35.9663 16.9738 35.9133 16.9483 35.8581 16.925C35.8468 16.9201 35.8355 16.9158 35.8242 16.9116C35.7082 16.8713 35.5824 16.8508 35.448 16.8508C34.6525 16.8508 33.5409 17.5635 32.1147 18.9898C31.9323 18.3286 31.6289 17.6314 31.2039 16.8988C31.1898 16.8734 31.1728 16.8493 31.1537 16.8267C30.5569 16.1231 29.963 15.771 29.3725 15.771Z" fill="#F5FED1"/>
<mask id="mask7_968_4007" style="mask-type:luminance" maskUnits="userSpaceOnUse" x="15" y="22" width="10" height="8">
<path d="M15.9727 22.1885H24.2996V29.4547H15.9727V22.1885Z" fill="white"/>
</mask>
<g mask="url(#mask7_968_4007)">
<path d="M21.9294 22.3403C21.269 22.3403 20.7337 22.8141 20.3243 23.7623C20.1376 24.1774 19.9749 24.6066 19.8371 25.0507C19.591 24.7558 19.2968 24.4998 18.956 24.2821C18.4539 23.937 18.0042 23.7637 17.6075 23.7637C17.1472 23.7637 16.7576 23.9957 16.4387 24.4595C16.3659 24.5649 16.2987 24.683 16.2379 24.8131C16.2273 24.8364 16.2181 24.8612 16.211 24.8859C15.832 26.2047 16.2534 27.6804 17.4767 29.3131C17.4788 29.316 17.4817 29.3188 17.4838 29.3223C17.5128 29.3591 17.5425 29.3959 17.5715 29.4327H18.8832C18.6859 29.2262 18.4815 28.9886 18.2694 28.7192C17.2568 27.3679 16.8842 26.1948 17.1515 25.1999C17.184 25.1327 17.2179 25.0733 17.254 25.021C17.3558 24.8725 17.4923 24.7982 17.6627 24.7982C17.8607 24.7982 18.1053 24.8987 18.3953 25.0981C18.4002 25.1023 18.4059 25.1058 18.4115 25.1094C18.9072 25.4219 19.2707 25.8511 19.5026 26.397C19.4439 26.7011 19.3958 27.0122 19.3576 27.329C19.3251 27.6005 19.5189 27.8466 19.7897 27.8791C19.8102 27.882 19.83 27.8827 19.8498 27.8827C19.9226 27.8827 19.9933 27.8664 20.0563 27.8374C20.1199 27.8664 20.1892 27.882 20.262 27.882C20.2811 27.882 20.3009 27.8805 20.3214 27.8784C20.5923 27.8459 20.786 27.5998 20.7542 27.3283C20.7103 26.9634 20.6361 26.624 20.5307 26.3093C20.6941 25.5492 20.9267 24.8336 21.2294 24.1626L21.2329 24.1555C21.4705 23.6054 21.7045 23.3303 21.9343 23.3303C21.9372 23.3303 21.94 23.3303 21.9421 23.3303C22.3127 23.36 22.6224 23.6343 22.872 24.1548C23.1089 24.6908 23.1831 25.3958 23.094 26.2697C22.9526 27.6175 22.5905 28.6718 22.0086 29.4327H23.1944C23.6562 28.6117 23.951 27.5913 24.079 26.3716V26.3694C24.1865 25.3137 24.0833 24.4369 23.77 23.739C23.7686 23.7348 23.7665 23.7312 23.7651 23.7277C23.3479 22.8565 22.761 22.3948 22.0029 22.3425C21.9987 22.3425 21.9945 22.3417 21.9902 22.3417C21.9697 22.341 21.9492 22.3403 21.9294 22.3403Z" fill="#F5FED1"/>
</g>
<path d="M10.7806 5.49554C10.7834 5.49554 10.7855 5.49554 10.7884 5.49554H10.7877C11.1589 5.52454 11.4686 5.7996 11.7175 6.32004C11.9544 6.85532 12.0286 7.56031 11.9402 8.4343C11.7267 10.463 11.0146 11.827 9.80477 12.5249H9.80407C9.68244 12.5751 9.55446 12.6006 9.42081 12.6006C8.78441 12.6006 8.01578 12.0285 7.11563 10.8844H7.11492C6.10234 9.53244 5.72969 8.35934 5.99698 7.36444C6.02951 7.29726 6.06416 7.23786 6.09951 7.18625C6.20205 7.03775 6.33852 6.96351 6.50893 6.96351C6.70692 6.96351 6.95087 7.06321 7.2415 7.26332C7.24645 7.26686 7.2521 7.27039 7.25776 7.27393C7.75274 7.58718 8.1169 8.01639 8.34883 8.56158H8.34813C8.29014 8.86634 8.24135 9.17676 8.20387 9.49355C8.17064 9.76508 8.36439 10.0112 8.63592 10.0444C8.65572 10.0465 8.67622 10.0479 8.69532 10.0479C8.76886 10.0479 8.83886 10.0317 8.9025 10.002H8.90321C8.96614 10.031 9.03544 10.0465 9.10756 10.0465C9.12736 10.0465 9.14716 10.0458 9.16696 10.043C9.43849 10.0104 9.63224 9.76437 9.59971 9.49284C9.55587 9.12797 9.48162 8.78856 9.37626 8.4746C9.53961 7.71446 9.77295 6.99815 10.0756 6.32711L10.0784 6.32004C10.316 5.7699 10.5501 5.49554 10.7806 5.49554ZM10.7749 4.50488C10.1145 4.50488 9.57991 4.97935 9.16979 5.92759C8.98311 6.34196 8.82118 6.77117 8.6833 7.21524C8.43651 6.92037 8.14306 6.6644 7.80224 6.44732H7.80153C7.30019 6.10154 6.85047 5.929 6.45378 5.929C5.99345 5.929 5.60383 6.16094 5.28422 6.62409C5.21209 6.72945 5.14491 6.84754 5.0841 6.97836C5.0735 7.00169 5.0643 7.02573 5.05723 7.05048C4.67751 8.36924 5.09966 9.84498 6.32296 11.4777C6.32508 11.4805 6.3272 11.4841 6.33003 11.4869C6.33427 11.4925 6.33781 11.4975 6.34205 11.5032C6.61358 11.6092 6.77339 11.7068 6.8236 11.7966C6.84552 11.8539 6.81157 11.909 6.72319 11.9614C7.67991 13.0503 8.57864 13.5948 9.42081 13.5948C9.69588 13.5948 9.96529 13.5361 10.2283 13.4201C10.2432 13.4131 10.258 13.406 10.2722 13.3975C11.791 12.5362 12.6749 10.9155 12.9245 8.53612L12.9253 8.53471C13.032 7.47828 12.9295 6.60147 12.6155 5.90355C12.6141 5.90001 12.6127 5.89648 12.6106 5.89223C12.1941 5.02178 11.6065 4.56004 10.8492 4.507C10.8442 4.507 10.8407 4.507 10.8357 4.5063C10.8159 4.50559 10.7954 4.50488 10.7749 4.50488Z" fill="#F5FED1"/>
<mask id="mask8_968_4007" style="mask-type:luminance" maskUnits="userSpaceOnUse" x="13" y="0" width="11" height="7">
<path d="M13.9814 0.808105H23.7565V6.43953H13.9814V0.808105Z" fill="white"/>
</mask>
<g mask="url(#mask8_968_4007)">
<path d="M15.0195 0.817871H14.0161C14.0748 1.21739 14.1688 1.62963 14.2983 2.0539C14.2997 2.05885 14.3018 2.06451 14.3032 2.07016C15.1744 4.60021 16.3764 6.01584 17.9095 6.31778C17.9385 6.32343 17.9674 6.32626 17.9964 6.32697C18.0169 6.32697 18.0375 6.32697 18.058 6.32697C19.7084 6.32697 21.2944 5.16024 22.8168 2.82677C22.8253 2.81404 22.8331 2.80061 22.8401 2.78647C23.2199 2.0638 23.507 1.4076 23.7007 0.817871H22.6591C22.4901 1.26264 22.2603 1.76045 21.9718 2.31129H21.9704C20.6502 4.32797 19.3456 5.33631 18.058 5.33701C16.9195 5.08882 15.9819 3.89804 15.2451 1.76399C15.1461 1.43942 15.0704 1.12405 15.0195 0.817871Z" fill="#F5FED1"/>
</g>
<mask id="mask9_968_4007" style="mask-type:luminance" maskUnits="userSpaceOnUse" x="17" y="0" width="3" height="3">
<path d="M17.2397 0.808105H19.412V2.09505H17.2397V0.808105Z" fill="white"/>
</mask>
<g mask="url(#mask9_968_4007)">
<path d="M17.6222 0.817871C17.5734 0.873733 17.5247 0.931009 17.4752 0.988285C17.297 1.19547 17.321 1.50801 17.5282 1.6862C17.6215 1.76611 17.7361 1.8057 17.8506 1.8057C17.9751 1.8057 18.0995 1.75833 18.1943 1.66711H18.195C18.2501 1.82621 18.3852 1.9542 18.562 1.99167C18.5966 1.99875 18.6306 2.00228 18.6645 2.00228C18.8936 2.00228 19.0994 1.84177 19.1482 1.60842C19.2019 1.35245 19.2316 1.08869 19.2373 0.817871H17.6222Z" fill="#F5FED1"/>
</g>
<path d="M18.2602 11.5322C18.4044 11.6446 18.6095 11.9791 18.8753 12.5363C18.881 12.5476 18.8867 12.5582 18.893 12.5695C19.0217 12.7944 19.1207 13.0772 19.1886 13.4159H19.1879L18.8888 13.8133C18.724 14.0318 18.7679 14.3422 18.9864 14.5063C19.0755 14.5735 19.1801 14.606 19.2841 14.606C19.3625 14.606 19.441 14.5876 19.5124 14.5508C19.5895 14.5996 19.68 14.6272 19.7769 14.6272C19.7875 14.6272 19.7988 14.6272 19.8094 14.6265C20.0824 14.6081 20.2889 14.3726 20.2712 14.0997C20.2613 13.954 20.2485 13.8133 20.2316 13.6768H20.2309L20.7782 12.9521H20.7775C20.9182 12.7859 21.0483 12.6629 21.1685 12.5837C21.1791 12.578 21.1897 12.5723 21.1996 12.5674C21.2668 12.5335 21.3248 12.5165 21.3743 12.5165C21.4188 12.5165 21.4563 12.5299 21.486 12.5575C21.5242 13.4548 21.2845 14.2362 20.7669 14.9023C20.7598 14.9115 20.7534 14.9199 20.7478 14.9291C20.4649 15.3478 20.1587 15.5571 19.8292 15.5571C19.7288 15.5571 19.6256 15.538 19.5209 15.4984H19.5202C18.8746 15.2353 18.3231 14.4292 17.8649 13.08H17.8642C17.8514 12.9641 17.8415 12.8531 17.8359 12.7477C17.7935 11.9805 17.9342 11.5753 18.2602 11.5322ZM18.3132 10.5352C18.2792 10.5352 18.2453 10.538 18.2107 10.5429C17.2214 10.6108 16.7674 11.3646 16.8473 12.8029C16.8551 12.9436 16.8686 13.0907 16.8869 13.2455C16.8905 13.2787 16.8983 13.312 16.9089 13.3438C17.4661 15.0105 18.2121 16.0344 19.1469 16.4155C19.1497 16.4169 19.1532 16.4176 19.1561 16.419C19.4092 16.5159 19.6517 16.5647 19.8851 16.5647C20.5144 16.5647 21.0716 16.2104 21.5553 15.5019H21.5546C22.2476 14.6067 22.5509 13.5588 22.466 12.3595C22.4611 12.293 22.4434 12.2294 22.4137 12.17C22.1818 11.7125 21.8664 11.4841 21.469 11.4841C21.2541 11.4841 21.0151 11.5506 20.752 11.6842C20.7273 11.6969 20.7025 11.7097 20.6778 11.7238C20.6693 11.7288 20.6608 11.7337 20.6523 11.7387C20.4416 11.873 20.2295 12.0661 20.0159 12.3192C20.0103 12.3263 20.0046 12.3333 19.9989 12.3404L19.9268 12.4366C19.8773 12.3164 19.8229 12.2039 19.7642 12.0986H19.7635C19.388 11.313 19.0366 10.8293 18.7106 10.6462C18.5791 10.5726 18.4468 10.5352 18.3132 10.5352Z" fill="#F5FED1"/>
<path d="M1.46351 22.1016L1.37654 22.1249C1.14955 22.19 0.956514 22.2614 0.798828 22.3406V22.6856C0.866004 22.7266 0.91338 22.7528 0.939543 22.7641C1.01803 22.8023 1.11773 22.8447 1.23865 22.8914C1.29876 22.9147 1.36452 22.9388 1.43593 22.9642C1.47624 22.9784 1.56039 22.9996 1.68696 23.0286C1.63322 22.885 1.58867 22.7443 1.55332 22.6064C1.53564 22.5378 1.52008 22.4693 1.50735 22.4014L1.48897 22.3003C1.47836 22.2338 1.46988 22.1673 1.46351 22.1016Z" fill="#F5FED1"/>
<path d="M2.02779 23.7568L1.98961 23.771L1.96061 23.7922L1.93869 23.8141L1.92455 23.8374L1.91748 23.8615V23.8869L1.92597 23.9131L1.94082 23.9407L1.96344 23.969L1.99314 23.998L2.21235 24.0701C2.16002 23.9874 2.0985 23.8834 2.02779 23.7568Z" fill="#F5FED1"/>
<path d="M6.31305 18.3325L6.09738 18.3495C5.67594 18.4202 5.30966 18.7009 4.99994 19.1924C4.70932 19.6965 4.44981 20.3131 4.22141 21.0422C3.96402 20.7275 3.61542 20.4348 3.17489 20.1654C2.8475 19.9603 2.54415 19.8323 2.26413 19.7814C1.9827 19.7276 1.71824 19.7566 1.46934 19.8691C1.19286 20.0268 1.00689 20.1802 0.912842 20.3287L1.41418 20.5606L4.52406 21.3434L3.40753 21.6199C3.56804 21.7868 3.72785 22.0434 3.88624 22.3885C3.83887 22.624 3.79078 22.9351 3.74128 23.3205C3.72219 23.3933 3.74411 23.4973 3.80775 23.633C3.87634 23.7462 3.97604 23.8211 4.10757 23.8586C4.21293 23.8883 4.32394 23.8784 4.44062 23.8289C4.51911 23.8635 4.59547 23.8777 4.67043 23.8734C4.8861 23.8593 5.03671 23.7398 5.12227 23.5156C5.16753 23.3403 5.09823 22.9351 4.91438 22.3015C5.16116 21.2239 5.47441 20.3534 5.85342 19.6888C6.0698 19.3706 6.2685 19.2546 6.4474 19.3416C6.6065 19.3783 6.75287 19.4639 6.88793 19.5982C6.9254 19.6166 7.01945 19.7446 7.17077 19.9822C7.47412 20.5281 7.57665 21.2875 7.47766 22.2612C7.35957 23.1423 7.24007 23.7249 7.11844 24.0085C6.98197 24.42 6.81227 24.787 6.61003 25.1109L7.21461 25.1986L6.54498 25.2113C6.32931 25.5344 6.0797 25.8109 5.79544 26.0407C5.55149 26.2239 5.40087 26.3271 5.34289 26.3519C5.23399 26.3964 5.12086 26.4212 5.00348 26.4261C4.727 26.4275 4.46324 26.3519 4.21081 26.1998C4.02059 26.1284 3.65926 25.8201 3.12822 25.2749L1.9028 25.2976L1.87098 25.3181C1.92542 25.3987 1.9728 25.4468 2.01523 25.4616L4.07928 26.226C4.1309 26.2493 4.17969 26.2819 4.22707 26.3229C4.32394 26.4827 3.96827 26.5965 3.16075 26.6658C3.30005 26.7782 3.43793 26.8772 3.57441 26.9649C4.12242 27.3128 4.64497 27.462 5.14136 27.4132C5.29339 27.4083 5.50199 27.3524 5.76645 27.2471L6.29325 26.9098C6.59872 26.6807 6.87378 26.4141 7.11703 26.11L7.45927 25.6264L7.75343 25.0861C7.93445 24.7071 8.08436 24.2906 8.20244 23.8367C8.32053 23.3834 8.40751 22.892 8.46266 22.3616C8.59489 21.2083 8.44145 20.2361 8.00375 19.4441C7.62403 18.7518 7.06046 18.3813 6.31305 18.3325Z" fill="#F5FED1"/>
<path d="M2.58076 5.35791L1.24927 5.75106L1.29664 5.77723C1.34826 5.73975 1.40978 5.71217 1.48191 5.69379C1.52645 5.68247 1.571 5.68672 1.61343 5.70652C1.63181 5.71783 1.64313 5.72561 1.64596 5.72914C1.64878 5.79349 1.6502 5.87481 1.64878 5.9738L2.60551 6.50626C2.62318 6.33089 2.63238 6.22553 2.63238 6.18877C2.64015 6.04664 2.64157 5.90168 2.63662 5.75389C2.63591 5.69025 2.63096 5.60611 2.62248 5.50145C2.61611 5.45125 2.60197 5.40387 2.58076 5.35791Z" fill="#F5FED1"/>
<path d="M2.34615 7.55957L1.17871 8.38901C1.17871 8.4272 1.18507 8.46396 1.1971 8.50073C1.20982 8.5368 1.22892 8.57286 1.25366 8.60751L1.2968 8.65913C1.35478 8.72489 1.44812 8.79277 1.57681 8.86348C1.77481 8.59619 1.87804 8.45407 1.88582 8.4378C1.93956 8.3579 1.99118 8.27729 2.03926 8.19526L2.10927 8.07152C2.15452 7.98808 2.19695 7.90393 2.23655 7.81908C2.27615 7.73352 2.31292 7.64725 2.34615 7.55957Z" fill="#F5FED1"/>
<path d="M88.3808 2.77531L88.3907 2.91815C88.385 3.20948 88.2846 3.45555 88.0887 3.65637C87.8922 3.8579 87.6419 3.96255 87.3385 3.97174C87.0472 3.96538 86.8011 3.86497 86.6003 3.66981C86.5352 3.60617 86.4801 3.53546 86.4327 3.45697L86.3705 3.33464C86.3337 3.24908 86.3082 3.15857 86.2948 3.0624C86.2616 2.76541 86.3295 2.5059 86.4992 2.28246C86.6682 2.05972 86.9001 1.92395 87.1943 1.87587C87.4905 1.84263 87.7508 1.91052 87.9742 2.07952C88.1969 2.24852 88.3327 2.48045 88.3808 2.77531Z" fill="#F5FED1"/>
<path d="M87.1675 18.2616L87.1774 18.4044C87.1759 18.4695 87.1703 18.5317 87.159 18.5918C87.1597 18.6251 87.1335 18.7106 87.0798 18.8485C87.0303 18.9553 86.9624 19.0536 86.8754 19.1434C86.7616 19.2466 86.6895 19.3032 86.6605 19.3124C86.6088 19.3428 86.5551 19.3682 86.4978 19.3894C86.384 19.4312 86.2595 19.4545 86.1252 19.458C85.9958 19.4552 85.8749 19.434 85.7631 19.3944C85.6274 19.3357 85.5489 19.2954 85.527 19.2721C85.4782 19.2381 85.4308 19.1992 85.3862 19.1561C85.1847 18.944 85.0801 18.7092 85.0744 18.4511C85.0695 18.3231 85.0843 18.2022 85.1197 18.0884C85.1373 18.0318 85.16 17.9766 85.1876 17.9236C85.1953 17.8939 85.2477 17.819 85.3438 17.698C85.5072 17.517 85.7193 17.4053 85.9809 17.3622C86.0467 17.3551 86.111 17.3523 86.1733 17.3551C86.3253 17.3706 86.4151 17.3855 86.4413 17.4003C86.5544 17.4357 86.6612 17.4909 86.7602 17.5665C86.7906 17.5814 86.8549 17.6443 86.9546 17.756C86.9907 17.8034 87.0232 17.8529 87.0515 17.9059C87.1074 18.012 87.1462 18.1308 87.1675 18.2616Z" fill="#F5FED1"/>
<path d="M79.1673 18.5453L79.1772 18.6881C79.1758 18.7567 79.168 18.8289 79.1553 18.9052C79.1532 18.9279 79.1277 19.0035 79.0797 19.1315C79.0146 19.2609 78.9467 19.3592 78.8753 19.4264C78.6815 19.6201 78.4468 19.7248 78.1696 19.7396C78.0225 19.7432 77.8868 19.7227 77.763 19.6774C77.6082 19.6145 77.5028 19.5537 77.4469 19.495C77.4073 19.4631 77.3656 19.4214 77.3225 19.3684C77.2963 19.3451 77.2475 19.2701 77.1747 19.1435C77.1238 19.0403 77.092 18.9321 77.0792 18.8197C77.0495 18.5283 77.1181 18.2738 77.2864 18.0553C77.4604 17.8262 77.6916 17.6897 77.9808 17.6459C78.0925 17.6268 78.2368 17.636 78.4143 17.6742C78.5698 17.7258 78.6936 17.7901 78.7855 17.8665C78.9997 18.0475 79.127 18.2738 79.1673 18.5453Z" fill="#F5FED1"/>
<path d="M90.6267 24.3282H90.6168C90.3247 24.3437 90.0879 24.447 89.9047 24.6365C89.7004 24.8422 89.5978 25.0911 89.5957 25.3846C89.6021 25.6794 89.7074 25.9298 89.9125 26.1348C89.9881 26.2176 90.1069 26.2932 90.2689 26.3625C90.317 26.3816 90.3657 26.3965 90.4152 26.4078C90.5404 26.429 90.6168 26.4375 90.6436 26.4325C90.9442 26.4325 91.2037 26.3194 91.4222 26.0945C91.4985 26.0083 91.5586 25.9177 91.6025 25.8237C91.64 25.7261 91.6647 25.654 91.6774 25.6066C91.6916 25.5203 91.6994 25.4447 91.7001 25.3796C91.6937 25.258 91.6866 25.1894 91.6803 25.1739L91.6166 25.1611C91.5431 25.1371 91.4773 25.1116 91.4179 25.0848C91.3585 25.0572 91.3062 25.0282 91.2609 24.9971C91.1711 24.9356 91.1089 24.8663 91.075 24.7899L91.0552 24.7312C91.1697 24.6768 91.2708 24.6336 91.3578 24.6025C91.1535 24.4173 90.9095 24.326 90.6267 24.3282Z" fill="#F5FED1"/>
<path d="M72.9121 25.415L72.922 25.5579C72.9178 25.6561 72.91 25.7318 72.8994 25.7848C72.8874 25.8322 72.8619 25.9043 72.8251 26.0019C72.7806 26.096 72.7205 26.1865 72.6441 26.2727C72.456 26.4771 72.2128 26.5895 71.9144 26.6093C71.6245 26.6143 71.377 26.528 71.1726 26.3498C70.9534 26.1356 70.836 25.9008 70.8212 25.647C70.7986 25.3655 70.877 25.1138 71.0574 24.8918C71.121 24.7977 71.2377 24.7037 71.4067 24.6117C71.4965 24.5658 71.616 24.5325 71.7645 24.5106C71.8995 24.5021 72.0318 24.5127 72.159 24.5439C72.3146 24.5962 72.4383 24.6605 72.531 24.7369C72.608 24.797 72.6865 24.8868 72.765 25.0049C72.8273 25.1223 72.8612 25.1923 72.8654 25.2135C72.8874 25.2835 72.9029 25.3507 72.9121 25.415Z" fill="#F5FED1"/>
<path d="M72.4559 5.08116L72.4658 5.22399C72.463 5.30531 72.4552 5.38097 72.4425 5.45097C72.4248 5.51461 72.4001 5.58674 72.3683 5.66806C72.3103 5.7819 72.2502 5.87241 72.1872 5.93888C72.1038 6.0301 72.009 6.10222 71.9037 6.15667C71.7672 6.21678 71.6824 6.24789 71.6484 6.2486C71.5876 6.26203 71.524 6.27122 71.4582 6.27547C71.3932 6.27688 71.3309 6.27334 71.2708 6.26557C71.1237 6.23799 71.0382 6.21607 71.0141 6.1991C70.906 6.15596 70.807 6.09515 70.7157 6.01596C70.667 5.96858 70.6231 5.91979 70.5849 5.87029C70.4972 5.74443 70.4506 5.66806 70.4449 5.64048C70.3982 5.53512 70.3714 5.42623 70.3643 5.31309C70.3594 5.25086 70.3594 5.18934 70.3643 5.12995C70.3855 4.98357 70.4046 4.89731 70.4209 4.87185C70.4534 4.77215 70.5206 4.65689 70.6238 4.52678C70.691 4.44263 70.7999 4.3599 70.9505 4.27788C71.0141 4.23969 71.1329 4.20646 71.3076 4.17676C71.4724 4.1711 71.6039 4.18171 71.7029 4.21C71.8301 4.24889 71.9539 4.31253 72.0741 4.40304C72.1342 4.44405 72.2127 4.53314 72.3082 4.67103C72.364 4.77568 72.3965 4.84215 72.4064 4.87044C72.4269 4.93478 72.4432 5.00549 72.4559 5.08116Z" fill="#F5FED1"/>
<path d="M68.3124 12.6616L68.3223 12.8044C68.3202 12.8864 68.3124 12.9621 68.2997 13.0314C68.2926 13.0618 68.2679 13.1346 68.2247 13.2485C68.1675 13.363 68.1074 13.4535 68.0444 13.5193C67.9348 13.6296 67.8323 13.706 67.7383 13.7484C67.7149 13.7668 67.6336 13.7951 67.4936 13.8333C67.4363 13.8453 67.3762 13.8531 67.3147 13.8559C67.063 13.8672 66.8289 13.7922 66.6132 13.631C66.4895 13.5292 66.3919 13.4055 66.3205 13.2598C66.2767 13.1806 66.2448 13.0724 66.225 12.9366C66.218 12.8716 66.2166 12.8087 66.2194 12.7478C66.2151 12.7146 66.2307 12.6269 66.2668 12.4848C66.3021 12.3731 66.3573 12.2691 66.4315 12.1716C66.4704 12.1206 66.5121 12.0747 66.556 12.033C66.6719 11.9361 66.7448 11.8838 66.7745 11.876C66.8678 11.8215 66.9979 11.7819 67.1648 11.7572C67.2701 11.7459 67.4024 11.7572 67.5594 11.7904C67.7425 11.8569 67.8662 11.9212 67.9306 11.9835C68.0261 12.0641 68.1038 12.1532 68.1654 12.2515C68.2332 12.378 68.2693 12.4565 68.2728 12.4876C68.2905 12.5435 68.3039 12.6015 68.3124 12.6616Z" fill="#F5FED1"/>
<path d="M61.8997 15.2294L61.9096 15.3722C61.9053 15.4705 61.8975 15.5462 61.8862 15.5992C61.8848 15.6141 61.8601 15.6869 61.812 15.8163C61.7674 15.9103 61.7073 16.0009 61.631 16.0871C61.4337 16.2985 61.1904 16.411 60.9019 16.4237C60.6113 16.4294 60.3638 16.3424 60.1595 16.1642C60.0598 16.0786 59.9707 15.957 59.8929 15.8C59.8448 15.6876 59.8165 15.5745 59.808 15.4613C59.7897 15.1679 59.8681 14.9161 60.0449 14.7061C60.0789 14.6489 60.1757 14.5654 60.3355 14.4558C60.4261 14.3985 60.5646 14.3547 60.7513 14.325C60.8871 14.3165 61.0186 14.3278 61.1466 14.3582C61.3085 14.4176 61.4245 14.4749 61.4938 14.5308C61.5956 14.6121 61.6812 14.7083 61.7519 14.8193C61.795 14.8971 61.829 14.9671 61.853 15.0279C61.8742 15.0986 61.8898 15.1658 61.8997 15.2294Z" fill="#F5FED1"/>
<path d="M57.1442 4.67101L57.1541 4.81385C57.1499 4.91214 57.1421 4.9878 57.1315 5.04012C57.1301 5.05568 57.1054 5.12781 57.0566 5.25721C56.9859 5.39156 56.9257 5.48207 56.8763 5.52874C56.679 5.74016 56.4357 5.85189 56.1465 5.86532C55.8566 5.87027 55.6091 5.784 55.4048 5.60511C55.3043 5.51955 55.216 5.39792 55.1382 5.24165C55.0901 5.12851 55.0618 5.01608 55.0533 4.90224C55.0342 4.60879 55.1134 4.35706 55.2895 4.14775C55.3241 4.09047 55.421 4.00633 55.5801 3.89673C55.6713 3.83945 55.8099 3.79561 55.9966 3.76591C56.1317 3.75743 56.2632 3.76874 56.3912 3.79985C56.5538 3.85854 56.6698 3.91582 56.7391 3.97168C56.8402 4.053 56.9265 4.14916 56.9972 4.26018C57.0594 4.37827 57.0933 4.44757 57.0976 4.46878C57.1195 4.53949 57.1351 4.60667 57.1442 4.67101Z" fill="#F5FED1"/>
<path d="M64.8949 25.4055L64.9048 25.5484C64.8992 25.6608 64.8914 25.7386 64.8808 25.7824C64.8751 25.8072 64.8504 25.8765 64.8072 25.9917C64.75 26.1063 64.6892 26.1968 64.6269 26.2633C64.5831 26.3099 64.5371 26.3524 64.4883 26.3891C64.3639 26.474 64.2861 26.5185 64.2557 26.5235C64.1454 26.5687 64.0259 26.5942 63.8972 26.5998C63.8328 26.6005 63.7706 26.5977 63.7098 26.5892C63.5634 26.5617 63.4772 26.5397 63.4531 26.5235C63.3456 26.4803 63.2459 26.4188 63.1554 26.3396C63.0359 26.2265 62.9468 26.1056 62.8889 25.9762C62.8471 25.8885 62.8188 25.7754 62.804 25.6368C62.7998 25.5717 62.8005 25.5088 62.8061 25.4473C62.828 25.2988 62.8471 25.2118 62.8627 25.1863C62.898 25.0838 62.9617 24.9756 63.0543 24.8618C63.0861 24.8123 63.1894 24.7288 63.3633 24.6129C63.4531 24.5641 63.5811 24.5273 63.7473 24.5004C63.8533 24.4898 63.9849 24.5011 64.1418 24.5344C64.3299 24.6058 64.4452 24.6631 64.4897 24.7062C64.61 24.8094 64.6962 24.9056 64.7478 24.9947C64.8327 25.1361 64.8822 25.2733 64.8949 25.4055Z" fill="#F5FED1"/>
<path d="M55.6825 19.6767L55.6924 19.8196C55.6868 19.932 55.6783 20.0098 55.6677 20.0536C55.662 20.0784 55.638 20.1484 55.5948 20.2629C55.5369 20.3775 55.4768 20.468 55.4138 20.5344C55.37 20.5811 55.324 20.6235 55.2759 20.661C55.1508 20.7452 55.073 20.7897 55.0426 20.7947C54.9323 20.8399 54.8128 20.8654 54.6848 20.871C54.5554 20.8731 54.4352 20.8576 54.3227 20.8236C54.2669 20.8067 54.2131 20.7848 54.1608 20.7593C54.0357 20.6858 53.9628 20.637 53.9423 20.6115C53.8624 20.5521 53.7733 20.4305 53.6757 20.2474C53.634 20.1597 53.6057 20.0465 53.5909 19.9086C53.5831 19.8733 53.5874 19.78 53.605 19.6286C53.6149 19.5699 53.6305 19.5127 53.6503 19.4582C53.6856 19.355 53.7493 19.2468 53.8412 19.1337C53.8737 19.0834 53.9763 19 54.1502 18.884C54.2407 18.836 54.3687 18.7985 54.5342 18.7723C54.6402 18.761 54.7718 18.7723 54.9294 18.8056C55.0652 18.8522 55.1812 18.9095 55.2766 18.9774C55.3976 19.0806 55.4831 19.1768 55.5347 19.2666C55.6203 19.4073 55.6691 19.5445 55.6825 19.6767Z" fill="#F5FED1"/>
<path d="M49.8073 14.8425L49.8172 14.9853C49.8102 15.1147 49.8017 15.1925 49.7932 15.2194C49.7925 15.2293 49.7684 15.2993 49.7204 15.4294C49.6539 15.5581 49.5888 15.6536 49.5245 15.7158C49.4693 15.7851 49.3597 15.8636 49.195 15.9512C49.084 16 48.956 16.0283 48.8096 16.0368C48.5105 16.0432 48.2538 15.9491 48.041 15.7554C47.9681 15.6903 47.8882 15.5765 47.8013 15.4131C47.7546 15.3106 47.7249 15.1876 47.7129 15.0426C47.6987 14.7626 47.7878 14.5087 47.9802 14.2818C48.0226 14.2301 48.1209 14.1531 48.2757 14.0498C48.3945 13.9933 48.5225 13.9558 48.6597 13.9381C48.7368 13.9247 48.8683 13.936 49.0543 13.9713C49.1646 14.0053 49.2805 14.0626 49.4022 14.1432C49.5033 14.2252 49.5888 14.3214 49.6603 14.4324C49.7338 14.5434 49.7833 14.6799 49.8073 14.8425Z" fill="#F5FED1"/>
<path d="M43.7927 3.29216L43.8026 3.43499C43.7955 3.55025 43.7885 3.6245 43.7807 3.65844C43.7828 3.6641 43.7573 3.73764 43.705 3.87906C43.6308 4.02048 43.5593 4.12372 43.4893 4.18877C43.4292 4.25241 43.3267 4.32312 43.1803 4.40091C43.0976 4.44263 42.9689 4.47162 42.795 4.48647C42.6323 4.48152 42.5369 4.47232 42.5093 4.45889C42.4492 4.44545 42.3912 4.42707 42.3353 4.40373C42.2236 4.35706 42.1204 4.2906 42.0256 4.20433C41.9705 4.16473 41.8906 4.05018 41.7859 3.86279C41.7463 3.78784 41.7166 3.6641 41.6975 3.49156C41.6912 3.36782 41.7053 3.24832 41.74 3.13447C41.7576 3.07719 41.7796 3.02133 41.8071 2.96689C41.8142 2.9386 41.8672 2.8594 41.9648 2.73071C41.986 2.69677 42.085 2.61969 42.2604 2.49949C42.399 2.43585 42.5362 2.39766 42.6719 2.38423C42.7518 2.37716 42.8742 2.38988 43.0396 2.421C43.1754 2.46767 43.2914 2.52494 43.3868 2.59282C43.6272 2.79576 43.7623 3.0284 43.7927 3.29216Z" fill="#F5FED1"/>
<path d="M34.8902 11.6717L34.9001 11.8145C34.8952 11.9114 34.8881 11.987 34.8782 12.0422C34.8746 12.0606 34.8492 12.1327 34.8025 12.2586C34.7368 12.3844 34.6731 12.4799 34.6102 12.5456C34.5593 12.6114 34.4391 12.6948 34.2489 12.7945C34.1661 12.8285 34.0473 12.8525 33.8925 12.866C33.5934 12.8752 33.3303 12.7762 33.104 12.5683C33.0545 12.5265 32.9768 12.4092 32.8707 12.2154C32.8375 12.1391 32.8127 12.0245 32.7957 11.8718C32.7851 11.5776 32.8771 11.3195 33.0729 11.0975C33.1069 11.0586 33.2023 10.9858 33.3586 10.879C33.4661 10.8245 33.6033 10.7864 33.7701 10.7637C33.8225 10.7545 33.9455 10.7666 34.1371 10.8005C34.2474 10.8351 34.3627 10.8924 34.485 10.973C34.5918 11.0628 34.6781 11.159 34.7431 11.2608C34.8153 11.3909 34.8527 11.4708 34.8549 11.5005C34.8718 11.5564 34.8838 11.613 34.8902 11.6717Z" fill="#F5FED1"/>
<path d="M41.4098 18.9157L41.4197 19.0586C41.4126 19.1717 41.4055 19.2474 41.3978 19.2863C41.3992 19.2891 41.3737 19.3612 41.3221 19.5026C41.2486 19.6419 41.1779 19.7452 41.11 19.8123C41.0506 19.8739 40.9367 19.9495 40.7677 20.0379C40.6581 20.0782 40.5393 20.1023 40.4121 20.11C40.2784 20.1143 40.1525 20.0966 40.0337 20.0577C39.9751 20.0386 39.9171 20.0139 39.8612 19.9835C39.7254 19.8993 39.6463 19.842 39.6236 19.8123C39.5557 19.7438 39.478 19.6264 39.3903 19.4595C39.3627 19.4086 39.3372 19.2933 39.3146 19.1158C39.3097 18.985 39.3252 18.8613 39.3613 18.7446C39.3797 18.6866 39.4023 18.6301 39.4306 18.5756C39.5098 18.442 39.5635 18.3642 39.5918 18.3416C39.6837 18.256 39.7912 18.1775 39.9142 18.1054C40.0097 18.0608 40.1412 18.0276 40.3095 18.005C40.3696 18.0014 40.4856 18.0142 40.656 18.0446C40.7409 18.0665 40.8568 18.1238 41.0039 18.2164C41.0916 18.2857 41.1771 18.3812 41.262 18.5049L41.3228 18.618L41.3674 18.717C41.3886 18.7877 41.402 18.8535 41.4098 18.9157Z" fill="#F5FED1"/>
<path d="M39.1378 26.4027L39.1477 26.5456C39.1399 26.6743 39.1321 26.7513 39.1251 26.7768C39.1215 26.7938 39.0961 26.8645 39.0501 26.9896C38.9851 27.1134 38.9214 27.2088 38.8606 27.2753C38.804 27.3446 38.6824 27.428 38.4965 27.5256C38.413 27.5596 38.2942 27.5836 38.1401 27.5977C37.865 27.6105 37.6104 27.5193 37.375 27.3234C37.3043 27.2633 37.2159 27.1311 37.1091 26.9274C37.0851 26.8694 37.0631 26.7612 37.0426 26.6028C37.0334 26.3115 37.1225 26.057 37.3099 25.8385C37.3884 25.7614 37.4994 25.6794 37.643 25.5931C37.7674 25.5408 37.8989 25.5075 38.0375 25.4927C38.1146 25.4891 38.2405 25.5047 38.4137 25.5408C38.5403 25.5881 38.6556 25.6504 38.7616 25.7281C38.8387 25.7946 38.9151 25.8823 38.9907 25.9919L39.0515 26.1057L39.0954 26.2047C39.1131 26.2599 39.1272 26.3264 39.1378 26.4027Z" fill="#F5FED1"/>
<path d="M26.7294 11.5514L26.7393 11.6943C26.7365 11.7742 26.7287 11.8498 26.7174 11.922L26.6417 12.1383C26.5689 12.2776 26.4982 12.3809 26.4303 12.4481C26.3709 12.5103 26.257 12.5859 26.088 12.6743C26.0315 12.7033 25.9127 12.7274 25.7317 12.7465C25.5987 12.75 25.4729 12.733 25.3541 12.6941C25.2947 12.6743 25.2374 12.6496 25.1815 12.6199C25.0458 12.535 24.9666 12.4778 24.9432 12.4481C24.8761 12.3795 24.7983 12.2621 24.7106 12.0959C24.6717 11.9934 24.6462 11.8788 24.6349 11.7516C24.63 11.6207 24.6455 11.497 24.6816 11.381C24.7 11.3223 24.7226 11.2658 24.7509 11.2113C24.8301 11.0777 24.8838 10.9999 24.9121 10.978C25.004 10.8924 25.1115 10.8139 25.2346 10.7418C25.3293 10.6973 25.4615 10.6633 25.6298 10.6414C25.6899 10.6371 25.8059 10.6506 25.9763 10.6803C26.1121 10.7277 26.228 10.7849 26.3242 10.8528C26.4501 10.9638 26.5356 11.06 26.5823 11.1406L26.6431 11.2545L26.6877 11.3535C26.7082 11.4235 26.7223 11.4899 26.7294 11.5514Z" fill="#F5FED1"/>
<path d="M26.0259 2.82099L26.0358 2.96382C26.0308 3.05999 26.0237 3.13565 26.0138 3.19151L25.9382 3.40789C25.8731 3.53163 25.8102 3.62709 25.7494 3.69356C25.6992 3.76003 25.5705 3.8463 25.3633 3.95307C25.3004 3.97782 25.1886 3.99833 25.0281 4.0153C24.7531 4.02802 24.4985 3.93681 24.263 3.74094C24.1895 3.67447 24.1039 3.54931 24.0064 3.36475C23.9625 3.23677 23.9371 3.12222 23.9314 3.0211C23.9215 2.72977 24.0106 2.47521 24.198 2.25671C24.2765 2.17893 24.3875 2.09761 24.531 2.01064C24.6555 1.95902 24.787 1.92578 24.9256 1.91023C24.9617 1.90386 25.0769 1.9173 25.2728 1.94983C25.434 2.00993 25.55 2.06721 25.6207 2.12165C25.7268 2.21146 25.8123 2.30762 25.8788 2.41016L25.9396 2.52329L25.9841 2.62229C26.0075 2.70714 26.0216 2.77361 26.0259 2.82099Z" fill="#F5FED1"/>
<path d="M22.6472 19.0749L22.6571 19.2178C22.6522 19.3139 22.6451 19.3896 22.6352 19.4455L22.5595 19.6611C22.4945 19.7856 22.4315 19.881 22.3707 19.9475C22.3205 20.0133 22.1918 20.1003 21.9846 20.207C21.9217 20.2318 21.81 20.2523 21.6495 20.2693C21.3751 20.282 21.1198 20.1908 20.8851 19.9949C20.8108 19.9284 20.7253 19.8026 20.6284 19.6187C20.5839 19.4907 20.5584 19.3762 20.5527 19.2743C20.5428 18.9837 20.6319 18.7292 20.8193 18.51C20.8978 18.4329 21.0088 18.3509 21.1524 18.2646C21.2188 18.2278 21.3504 18.1946 21.5476 18.1642C21.583 18.1578 21.6983 18.1705 21.8941 18.2038C22.0044 18.2384 22.1197 18.2957 22.242 18.3756C22.3863 18.5085 22.4725 18.6047 22.5001 18.6641L22.5609 18.7772L22.6055 18.8762C22.6232 18.9321 22.6373 18.9979 22.6472 19.0749Z" fill="#F5FED1"/>
<path d="M28.4165 26.9895L28.4264 27.1324C28.4228 27.2116 28.4158 27.2872 28.4044 27.3601L28.3288 27.5764C28.2559 27.7136 28.1866 27.8161 28.1202 27.8847C28.0601 27.9477 27.9377 28.0269 27.7532 28.1216C27.6655 28.1506 27.5538 28.1718 27.4187 28.1838C27.2964 28.1895 27.1783 28.1746 27.0638 28.1393C26.923 28.0863 26.8396 28.0481 26.8134 28.0247C26.759 27.9915 26.706 27.9533 26.6536 27.9095C26.561 27.814 26.4754 27.6889 26.3969 27.5333C26.3475 27.3799 26.322 27.2653 26.3213 27.1889C26.3248 27.0305 26.3326 26.9379 26.3446 26.9103C26.3574 26.8509 26.3743 26.7937 26.3969 26.7378C26.4415 26.6261 26.5051 26.5221 26.5886 26.4253C26.684 26.3333 26.8028 26.2478 26.9457 26.1672C27.0128 26.1353 27.1408 26.1056 27.331 26.0774C27.3784 26.0752 27.4894 26.0894 27.6634 26.1184C27.7992 26.1657 27.9144 26.223 28.0106 26.2902C28.1393 26.4083 28.2213 26.4974 28.2574 26.5575C28.3146 26.6586 28.3535 26.7371 28.374 26.7908C28.3952 26.8615 28.4094 26.9273 28.4165 26.9895Z" fill="#F5FED1"/>
<path d="M16.6728 9.2818L16.6827 9.42464C16.6792 9.50383 16.6721 9.57949 16.6608 9.65233L16.5851 9.8687C16.5123 10.0059 16.443 10.1084 16.3766 10.1777C16.3164 10.2399 16.1941 10.3191 16.0103 10.4139C15.9714 10.4344 15.8597 10.4549 15.6751 10.4761C15.5528 10.4818 15.4347 10.4669 15.3201 10.4316C15.2904 10.4294 15.207 10.3913 15.0698 10.317C15.0161 10.2838 14.9623 10.2456 14.91 10.2025C14.8556 10.1629 14.77 10.037 14.6533 9.82557C14.6038 9.67283 14.5791 9.55757 14.5784 9.48191C14.5812 9.32352 14.589 9.23018 14.6017 9.2026C14.6137 9.14321 14.6314 9.08593 14.6533 9.03007C14.6979 8.91905 14.7615 8.8144 14.8449 8.71753C14.9404 8.6256 15.0599 8.54004 15.202 8.45943C15.2692 8.42761 15.3979 8.39791 15.5874 8.37033C15.6348 8.36821 15.7458 8.38165 15.9198 8.41064C16.0555 8.45872 16.1715 8.516 16.2677 8.58317C16.3956 8.70055 16.4777 8.78965 16.5144 8.84976C16.5717 8.95158 16.6106 9.02936 16.6311 9.08381C16.6516 9.15381 16.6658 9.21957 16.6728 9.2818Z" fill="#F5FED1"/>
<path d="M8.70713 2.78815L8.71703 2.93099C8.71137 3.02645 8.7043 3.10281 8.69511 3.15868L8.61945 3.37434C8.56217 3.48819 8.49217 3.59143 8.41015 3.68335C8.32741 3.76184 8.20013 3.84245 8.02831 3.9266C7.98022 3.94498 7.87345 3.96337 7.7094 3.98246C7.5701 3.9867 7.44282 3.96973 7.32685 3.93084C7.16351 3.8672 7.02987 3.7873 6.92521 3.69184C6.87006 3.63951 6.79086 3.5193 6.68762 3.33192C6.64378 3.19544 6.61833 3.09009 6.61338 3.01442C6.59641 2.71532 6.6848 2.45227 6.87925 2.22317C6.94855 2.15104 7.06734 2.06548 7.23634 1.96578C7.27523 1.94032 7.40393 1.91063 7.62172 1.87598C7.69455 1.87739 7.80557 1.89083 7.95406 1.91699C8.06366 1.95164 8.17963 2.00891 8.30125 2.08882C8.41085 2.1864 8.49288 2.27549 8.54803 2.3561C8.59682 2.43954 8.63571 2.51733 8.66471 2.58945C8.68875 2.6743 8.70289 2.74077 8.70713 2.78815Z" fill="#F5FED1"/>
<path d="M4.3478 12.4946L4.10597 12.53C3.47169 12.624 2.92439 12.7138 2.46265 12.7994C2.50437 12.868 2.5376 12.9175 2.56306 12.9479C2.56306 12.9521 2.59275 12.9804 2.65357 13.032C2.66134 13.0405 2.70165 13.0667 2.77448 13.1112C2.83671 13.1466 2.91095 13.1826 2.99651 13.2187C3.06581 13.2413 3.15279 13.2583 3.25815 13.2696C3.32815 13.276 3.41159 13.271 3.50776 13.2541C3.64847 13.2314 3.72767 13.2109 3.74535 13.1918C3.86909 13.1303 3.98081 13.0568 4.07981 12.9712C4.13921 12.9097 4.20072 12.8213 4.26507 12.7068L4.28911 12.6622L4.3478 12.4946Z" fill="#F5FED1"/>
<path d="M9.28709 15.48L9.2977 15.6229C9.28921 15.7516 9.28143 15.8279 9.27507 15.8506L9.20012 16.0662C9.11173 16.2253 9.04172 16.3286 8.99081 16.3752C8.8508 16.4898 8.72352 16.5704 8.60897 16.6185C8.52482 16.6447 8.40532 16.6637 8.25188 16.6765C8.15076 16.6786 8.0355 16.6602 7.90681 16.6227C7.7364 16.5499 7.61124 16.4792 7.53275 16.4099C7.48467 16.383 7.39698 16.2543 7.26829 16.0238C7.23506 15.9354 7.21031 15.8294 7.19404 15.7063C7.18697 15.5557 7.20253 15.4199 7.24 15.2997C7.30789 15.1258 7.38072 14.9971 7.45921 14.9151C7.57871 14.8069 7.70316 14.7185 7.83327 14.6492C7.85943 14.6315 7.98176 14.6046 8.20238 14.5679C8.32188 14.5742 8.44209 14.5905 8.56372 14.6174C8.64433 14.6442 8.75039 14.6987 8.88192 14.7807C8.98657 14.8712 9.07284 14.9674 9.14213 15.0706C9.17678 15.1321 9.21143 15.2021 9.24537 15.2813C9.26871 15.3655 9.28285 15.432 9.28709 15.48Z" fill="#F5FED1"/>
<path d="M15.7103 19.5233L15.7202 19.6661C15.7139 19.7778 15.7061 19.8535 15.6983 19.8938L15.6226 20.1102C15.571 20.2078 15.513 20.2976 15.4508 20.3796C15.4374 20.3951 15.4254 20.4086 15.414 20.4192C15.3518 20.4694 15.2917 20.5139 15.2344 20.5514C15.1906 20.5832 15.1227 20.6207 15.0322 20.6624C14.9735 20.6837 14.8547 20.7027 14.6751 20.7197C14.5987 20.7254 14.4842 20.7077 14.33 20.6667C14.2162 20.6179 14.1229 20.5705 14.05 20.5231C13.9531 20.4567 13.9008 20.4128 13.8945 20.3923C13.845 20.3294 13.7771 20.2212 13.6908 20.0678C13.5494 19.6873 13.6045 19.3281 13.8563 18.988C13.963 18.8749 14.1073 18.7723 14.2876 18.6797C14.3109 18.6691 14.4234 18.6465 14.6249 18.6118C14.7713 18.6217 14.8922 18.638 14.9862 18.6613C15.0442 18.6762 15.1503 18.7306 15.3051 18.8247C15.3744 18.8848 15.4367 18.9477 15.4904 19.0135C15.5307 19.0439 15.5901 19.1478 15.6686 19.3253C15.6884 19.3946 15.7025 19.4603 15.7103 19.5233Z" fill="#F5FED1"/>
<path d="M12.0673 26.4381L12.0772 26.5809C12.0687 26.7082 12.0616 26.7845 12.0553 26.8079L11.9796 27.0242C11.8983 27.1699 11.8311 27.2703 11.7781 27.3255C11.6147 27.4584 11.4853 27.5419 11.3892 27.5765C11.3121 27.602 11.1841 27.621 11.0052 27.6352C10.9295 27.6352 10.8235 27.6175 10.687 27.5807C10.4848 27.4924 10.3462 27.411 10.2726 27.3347C10.2161 27.2675 10.1411 27.1494 10.0478 26.9818L10.0082 26.856C9.98625 26.7725 9.97423 26.6898 9.97211 26.6085C9.96504 26.3645 10.0449 26.129 10.2132 25.9021C10.3525 25.7663 10.4961 25.6638 10.6446 25.5938C10.6934 25.5782 10.8058 25.5556 10.9819 25.5259C11.148 25.5372 11.2753 25.5563 11.3644 25.5817C11.4252 25.603 11.5242 25.6553 11.6614 25.7387C11.7498 25.813 11.8332 25.9042 11.9117 26.0117C11.9591 26.0958 11.9966 26.1722 12.0249 26.2394C12.0418 26.2938 12.056 26.3603 12.0673 26.4381Z" fill="#F5FED1"/>
</svg>
