<svg width="94" height="28" viewBox="0 0 94 28" fill="none" xmlns="http://www.w3.org/2000/svg">
<path fill-rule="evenodd" clip-rule="evenodd" d="M2.5071 1.59328C17.1662 0.997183 77.7804 0.472508 92.1673 1.59328C94.4633 1.77218 88.8043 6.59184 88.8269 8.3179C88.8488 10.044 92.1581 10.4279 92.3017 11.9489C92.4452 13.4706 89.452 15.6379 89.6896 17.4467C89.9279 19.2548 93.3149 21.2205 93.7279 22.7995C94.102 24.2307 93.5052 26.859 92.1673 26.9191C76.9637 27.6065 17.1705 27.6842 2.5071 26.9191C1.02429 26.8421 4.44953 23.6813 4.18649 22.33C3.92274 20.9787 0.811449 20.3345 0.926707 18.8114C1.04126 17.2876 4.64894 14.829 4.87592 13.1885C5.1022 11.548 2.39608 10.3042 2.28507 8.96773C2.17476 7.632 4.17517 6.40092 4.21194 5.17196C4.24942 3.94301 1.2944 1.64278 2.5071 1.59328Z" fill="#BBAECF"/>
<mask id="mask0_968_3960" style="mask-type:luminance" maskUnits="userSpaceOnUse" x="6" y="4" width="20" height="11">
<path d="M6.19751 4.41699H25.5667V14.3731H6.19751V4.41699Z" fill="white"/>
</mask>
<g mask="url(#mask0_968_3960)">
<mask id="mask1_968_3960" style="mask-type:luminance" maskUnits="userSpaceOnUse" x="0" y="0" width="94" height="28">
<path fill-rule="evenodd" clip-rule="evenodd" d="M2.50686 1.59377C17.166 0.997672 77.7802 0.472996 92.1671 1.59377C94.463 1.77266 88.804 6.59233 88.8267 8.31839C88.8486 10.0444 92.1579 10.4284 92.3014 11.9494C92.445 13.4711 89.4518 15.6384 89.6893 17.4472C89.9276 19.2553 93.3147 21.221 93.7277 22.8C94.1017 24.2312 93.5049 26.8595 92.1671 26.9203C76.9635 27.6069 17.1702 27.6847 2.50686 26.9203C1.02404 26.8426 4.44929 23.6818 4.18624 22.3305C3.92249 20.9792 0.811204 20.335 0.926463 18.8119C1.04102 17.2881 4.64869 14.8295 4.87568 13.189C5.10195 11.5485 2.39584 10.3047 2.28482 8.96822C2.17451 7.63249 4.17493 6.40141 4.2117 5.17245C4.24918 3.94349 1.29416 1.64326 2.50686 1.59377Z" fill="white"/>
</mask>
<g mask="url(#mask1_968_3960)">
<path fill-rule="evenodd" clip-rule="evenodd" d="M9.96982 7.03074C10.346 5.85481 11.2136 5.27357 11.3692 5.15901C12.4999 4.32533 13.9289 4.18037 15.0356 5.13639C15.2972 5.36337 15.7759 6.28049 16.08 6.3512C16.471 6.44242 17.5507 5.3966 17.9326 5.22548C19.3829 4.57565 21.3472 4.48584 22.6639 5.54085C23.3745 6.11008 23.383 6.97063 22.963 7.74916C22.9149 7.83896 22.3393 8.56941 22.3803 8.6281C22.4715 8.76174 23.144 8.72002 23.2875 8.74689C24.2379 8.92508 25.7101 9.53108 25.3756 10.8979C24.7718 13.3608 21.2122 12.9401 19.6417 12.3015C19.1177 12.0887 18.5669 11.5619 18.0189 11.4615C17.637 11.3915 17.1661 12.6777 16.9476 12.9429C16.0941 13.9781 14.7471 14.6378 13.4834 14.1577C12.799 13.8975 12.2354 13.3254 11.8847 12.6367C11.7425 12.3588 11.6534 11.5909 11.3508 11.465C11.0227 11.3286 10.4259 11.6772 10.095 11.7323C9.07249 11.9034 7.7905 11.7316 7.02541 10.8923C4.88711 8.54749 8.00476 6.72243 9.96982 7.03074Z" fill="#DAC5DB"/>
</g>
</g>
<mask id="mask2_968_3960" style="mask-type:luminance" maskUnits="userSpaceOnUse" x="23" y="15" width="20" height="11">
<path d="M23.0325 15.2778H42.4016V25.2339H23.0325V15.2778Z" fill="white"/>
</mask>
<g mask="url(#mask2_968_3960)">
<mask id="mask3_968_3960" style="mask-type:luminance" maskUnits="userSpaceOnUse" x="0" y="0" width="94" height="28">
<path fill-rule="evenodd" clip-rule="evenodd" d="M2.5071 1.59279C17.1662 0.996695 77.7804 0.472019 92.1673 1.59279C94.4633 1.77169 88.8043 6.59135 88.8269 8.31741C88.8488 10.0435 92.1581 10.4274 92.3017 11.9484C92.4452 13.4701 89.452 15.6374 89.6896 17.4462C89.9279 19.2543 93.3149 21.2201 93.7279 22.799C94.102 24.2302 93.5052 26.8586 92.1673 26.9194C76.9637 27.606 17.1705 27.6838 2.5071 26.9194C1.02429 26.8416 4.44953 23.6808 4.18649 22.3295C3.92274 20.9782 0.811449 20.334 0.926707 18.8109C1.04126 17.2871 4.64894 14.8285 4.87592 13.188C5.1022 11.5475 2.39608 10.3037 2.28507 8.96725C2.17476 7.63151 4.17517 6.40043 4.21194 5.17148C4.24942 3.94252 1.2944 1.64229 2.5071 1.59279Z" fill="white"/>
</mask>
<g mask="url(#mask3_968_3960)">
<path fill-rule="evenodd" clip-rule="evenodd" d="M38.5698 17.8697C38.1936 16.6945 37.326 16.1126 37.1704 15.998C36.0397 15.165 34.6107 15.0194 33.504 15.9761C33.2424 16.2024 32.7637 17.1195 32.4596 17.1909C32.0686 17.2821 30.9888 16.2363 30.607 16.0652C29.1567 15.4154 27.1924 15.3256 25.8757 16.3806C25.1651 16.9491 25.1566 17.8103 25.5766 18.5889C25.6247 18.6787 26.2003 19.4084 26.1593 19.4678C26.0681 19.6007 25.3956 19.559 25.252 19.5866C24.3017 19.7648 22.8295 20.3708 23.164 21.7369C23.7678 24.1998 27.3274 23.7791 28.8979 23.1405C29.4219 22.9277 29.9727 22.4009 30.5207 22.3012C30.9026 22.2312 31.3735 23.5167 31.592 23.7826C32.4455 24.8178 33.7925 25.4768 35.0561 24.9967C35.7406 24.7365 36.3042 24.1644 36.6549 23.4764C36.797 23.1978 36.8861 22.4306 37.1888 22.3047C37.5169 22.1683 38.1137 22.5162 38.4446 22.572C39.4671 22.7431 40.7491 22.5713 41.5142 21.732C43.6525 19.3872 40.5348 17.5621 38.5698 17.8697Z" fill="#DAC5DB"/>
</g>
</g>
<mask id="mask4_968_3960" style="mask-type:luminance" maskUnits="userSpaceOnUse" x="36" y="3" width="20" height="11">
<path d="M36.6089 3.69287H55.9781V13.649H36.6089V3.69287Z" fill="white"/>
</mask>
<g mask="url(#mask4_968_3960)">
<mask id="mask5_968_3960" style="mask-type:luminance" maskUnits="userSpaceOnUse" x="0" y="0" width="94" height="28">
<path fill-rule="evenodd" clip-rule="evenodd" d="M2.5071 1.59328C17.1662 0.997183 77.7804 0.472508 92.1673 1.59328C94.4633 1.77218 88.8043 6.59184 88.8269 8.3179C88.8488 10.044 92.1581 10.4279 92.3017 11.9489C92.4452 13.4706 89.452 15.6379 89.6896 17.4467C89.9279 19.2548 93.3149 21.2205 93.7279 22.7995C94.102 24.2307 93.5052 26.859 92.1673 26.9199C76.9637 27.6065 17.1705 27.6842 2.5071 26.9199C1.02429 26.8421 4.44953 23.6813 4.18649 22.33C3.92274 20.9787 0.811449 20.3345 0.926707 18.8114C1.04126 17.2876 4.64894 14.829 4.87592 13.1885C5.1022 11.548 2.39608 10.3042 2.28507 8.96773C2.17476 7.632 4.17517 6.40092 4.21194 5.17196C4.24942 3.94301 1.2944 1.64278 2.5071 1.59328Z" fill="white"/>
</mask>
<g mask="url(#mask5_968_3960)">
<path fill-rule="evenodd" clip-rule="evenodd" d="M40.4266 6.32067C40.8027 5.14546 41.6711 4.5635 41.8259 4.44895C42.9573 3.61527 44.3864 3.47031 45.4923 4.42703C45.7546 4.65331 46.2333 5.57043 46.5374 5.64185C46.9284 5.73236 48.0082 4.68725 48.39 4.51613C49.8403 3.86629 51.8047 3.77649 53.1213 4.8315C53.8313 5.40002 53.8404 6.26128 53.4204 7.03981C53.3723 7.1289 52.7967 7.85935 52.8371 7.91874C52.9283 8.05168 53.6014 8.00996 53.745 8.03683C54.6946 8.21573 56.1675 8.82172 55.8324 10.1879C55.2292 12.6507 51.6696 12.23 50.0991 11.5915C49.5752 11.3786 49.0243 10.8518 48.4763 10.7514C48.0945 10.6821 47.6235 11.9677 47.4043 12.2335C46.5508 13.2687 45.2038 13.9278 43.9409 13.4476C43.2557 13.1874 42.6928 12.6154 42.3421 11.9274C42.2 11.6488 42.1102 10.8815 41.8075 10.7557C41.4794 10.6192 40.8826 10.9671 40.5517 11.0223C39.5292 11.1934 38.2472 11.0223 37.4821 10.1829C35.3446 7.83743 38.4615 6.01308 40.4266 6.32067Z" fill="#DAC5DB"/>
</g>
</g>
<mask id="mask6_968_3960" style="mask-type:luminance" maskUnits="userSpaceOnUse" x="52" y="14" width="21" height="11">
<path d="M52.9009 14.5542H72.089V24.5103H52.9009V14.5542Z" fill="white"/>
</mask>
<g mask="url(#mask6_968_3960)">
<mask id="mask7_968_3960" style="mask-type:luminance" maskUnits="userSpaceOnUse" x="0" y="0" width="94" height="28">
<path fill-rule="evenodd" clip-rule="evenodd" d="M2.5071 1.59377C17.1662 0.997672 77.7804 0.472996 92.1673 1.59377C94.4633 1.77266 88.8043 6.59233 88.8269 8.31839C88.8488 10.0444 92.1581 10.4284 92.3017 11.9494C92.4452 13.4711 89.452 15.6384 89.6896 17.4472C89.9279 19.2553 93.3149 21.221 93.7279 22.8C94.102 24.2312 93.5052 26.8595 92.1673 26.9203C76.9637 27.6069 17.1705 27.6847 2.5071 26.9203C1.02429 26.8426 4.44953 23.6818 4.18649 22.3305C3.92274 20.9792 0.811449 20.335 0.926707 18.8119C1.04126 17.2881 4.64894 14.8295 4.87592 13.189C5.1022 11.5485 2.39608 10.3047 2.28507 8.96822C2.17476 7.63249 4.17517 6.40141 4.21194 5.17245C4.24942 3.94349 1.2944 1.64326 2.5071 1.59377Z" fill="white"/>
</mask>
<g mask="url(#mask7_968_3960)">
<path fill-rule="evenodd" clip-rule="evenodd" d="M56.6038 17.1504C56.98 15.9751 57.8476 15.3932 58.0032 15.2786C59.1346 14.445 60.5636 14.3 61.6695 15.256C61.9319 15.483 62.4099 16.4001 62.7139 16.4708C63.1057 16.562 64.1847 15.5162 64.5666 15.3451C66.0169 14.6953 67.9812 14.6062 69.2979 15.6605C70.0085 16.2297 70.017 17.0903 69.5977 17.8688C69.5489 17.9586 68.974 18.689 69.0143 18.7477C69.1055 18.8814 69.778 18.8397 69.9215 18.8665C70.8719 19.0454 72.3441 19.6514 72.0096 21.0176C71.4057 23.4804 67.8469 23.0597 66.2757 22.4212C65.7517 22.2083 65.2009 21.6815 64.6528 21.5811C64.2717 21.5111 63.8001 22.7973 63.5816 23.0625C62.7281 24.0984 61.381 24.7575 60.1181 24.2773C59.433 24.0171 58.8694 23.4451 58.5187 22.757C58.3765 22.4784 58.2874 21.7105 57.9848 21.5847C57.6567 21.4482 57.0599 21.7968 56.729 21.8519C55.7065 22.0231 54.4245 21.8512 53.6594 21.0119C51.5218 18.6671 54.6387 16.8421 56.6038 17.1504Z" fill="#DAC5DB"/>
</g>
</g>
<mask id="mask8_968_3960" style="mask-type:luminance" maskUnits="userSpaceOnUse" x="68" y="3" width="20" height="11">
<path d="M68.2874 3.33057H87.6565V13.2867H68.2874V3.33057Z" fill="white"/>
</mask>
<g mask="url(#mask8_968_3960)">
<mask id="mask9_968_3960" style="mask-type:luminance" maskUnits="userSpaceOnUse" x="0" y="0" width="94" height="28">
<path fill-rule="evenodd" clip-rule="evenodd" d="M2.50686 1.59279C17.166 0.996695 77.7802 0.472019 92.1671 1.59279C94.463 1.77169 88.804 6.59135 88.8267 8.31741C88.8486 10.0435 92.1579 10.4274 92.3014 11.9484C92.445 13.4701 89.4518 15.6374 89.6893 17.4462C89.9276 19.2543 93.3147 21.2201 93.7277 22.799C94.1017 24.2302 93.5049 26.8586 92.1671 26.9194C76.9635 27.606 17.1702 27.6838 2.50686 26.9194C1.02404 26.8416 4.44929 23.6808 4.18624 22.3295C3.92249 20.9782 0.811204 20.334 0.926463 18.8109C1.04102 17.2871 4.64869 14.8285 4.87568 13.188C5.10195 11.5475 2.39584 10.3037 2.28482 8.96725C2.17451 7.63151 4.17493 6.40043 4.2117 5.17148C4.24918 3.94252 1.29416 1.64229 2.50686 1.59279Z" fill="white"/>
</mask>
<g mask="url(#mask9_968_3960)">
<path fill-rule="evenodd" clip-rule="evenodd" d="M83.8536 5.94138C83.4775 4.76546 82.6091 4.18421 82.4543 4.06966C81.3229 3.23597 79.8938 3.09102 78.7879 4.04703C78.5256 4.27401 78.0468 5.19114 77.7428 5.26185C77.3518 5.35306 76.272 4.30725 75.8902 4.13613C74.4399 3.48629 72.4755 3.39649 71.1589 4.4515C70.4489 5.02072 70.4397 5.88128 70.8598 6.6598C70.9086 6.74961 71.4834 7.48005 71.4431 7.53874C71.3519 7.67239 70.6787 7.63067 70.5352 7.65754C69.5856 7.83573 68.1126 8.44172 68.4478 9.80857C69.051 12.2714 72.6106 11.8507 74.1811 11.2122C74.7057 10.9993 75.2559 10.4725 75.8039 10.3721C76.1857 10.3021 76.6567 11.5884 76.8759 11.8535C77.7293 12.8887 79.0764 13.5485 80.3393 13.0683C81.0245 12.8081 81.5873 12.2361 81.9381 11.5474C82.0802 11.2695 82.17 10.5015 82.4726 10.3757C82.8007 10.2392 83.3975 10.5871 83.7285 10.643C84.751 10.8141 86.0329 10.6423 86.798 9.80291C88.9356 7.45813 85.8187 5.63308 83.8536 5.94138Z" fill="#DAC5DB"/>
</g>
</g>
</svg>
