<svg width="94" height="19" viewBox="0 0 94 19" fill="none" xmlns="http://www.w3.org/2000/svg">
<mask id="mask0_968_3948" style="mask-type:luminance" maskUnits="userSpaceOnUse" x="0" y="0" width="94" height="19">
<path d="M0.353271 0.101562H93.7597V18.1583H0.353271V0.101562Z" fill="white"/>
</mask>
<g mask="url(#mask0_968_3948)">
<path d="M90.997 15.9316L92.6014 17.0891L90.3952 18.1738H1.3898L5.23011 15.4974L5.22092 15.4854L4.19844 14.1242L3.09464 13.5451L4.09874 11.2307L1.3898 9.49544L5.23011 7.68665L0.486816 4.86528L1.89255 3.27499L2.4936 2.84082L3.19576 2.33524L1.59132 1.17699L3.79751 0.0922852H92.8015L88.9612 2.7687L88.9711 2.78072L89.9943 4.14261L91.0967 4.72103L90.094 7.0354L92.8015 8.77136L88.9612 10.5794L93.7052 13.4008L92.3002 14.9911L91.6991 15.4253L90.997 15.9316Z" fill="#F1DCC7"/>
</g>
<path d="M8.00276 13.8027C8.49562 14.6356 9.37244 15.1144 10.4091 15.1144C11.5327 15.1144 13.3839 13.2893 14.0132 11.8793C14.1518 12.4457 14.5647 13.8458 15.431 14.6781C15.9896 15.2155 16.6316 15.4877 17.338 15.4877C18.1293 15.4877 18.9976 15.1285 19.7818 14.4744C20.3906 13.9667 20.7513 13.022 20.6388 12.2399C20.6388 11.5795 20.5278 10.6525 20.2167 10.0309C19.5633 8.63086 18.6964 7.37856 17.4045 5.96929C16.8388 5.35269 16.3332 4.68376 15.7704 4.06575C15.3871 3.64573 14.7182 2.77881 14.0889 2.77881C13.5812 2.77881 13.27 3.58986 13.0918 3.95756C12.2695 5.65958 10.9945 7.11127 9.67508 8.4463C9.06272 9.06644 8.42844 9.70708 8.06216 10.4411C7.45405 11.547 7.43071 12.8353 8.00276 13.8027Z" fill="#E19884"/>
<path d="M33.345 4.46456C32.8521 3.63088 31.9746 3.15287 30.9387 3.15287C29.8144 3.15287 27.9632 4.97722 27.3346 6.3879C27.196 5.82151 26.7823 4.42143 25.9168 3.58845C25.3575 3.05105 24.7161 2.77881 24.0097 2.77881C23.2178 2.77881 22.3501 3.13873 21.566 3.79281C20.9564 4.2998 20.5965 5.2445 20.7089 6.02727C20.7089 6.68701 20.82 7.61474 21.1304 8.23558C21.7845 9.63637 22.6507 10.888 23.9426 12.2979C24.5082 12.9145 25.0138 13.5827 25.5774 14.2015C25.9599 14.6208 26.6289 15.4877 27.2582 15.4877C27.7666 15.4877 28.0777 14.6774 28.2552 14.3097C29.0783 12.6076 30.3532 11.1552 31.672 9.82092C32.285 9.20079 32.9193 8.55944 33.2856 7.82616C33.8937 6.71954 33.9164 5.43189 33.345 4.46456Z" fill="#E19884"/>
<path d="M33.7628 13.8027C34.2556 14.6356 35.1325 15.1144 36.1691 15.1144C37.2927 15.1144 39.1439 13.2893 39.7732 11.8793C39.9118 12.4457 40.3255 13.8458 41.191 14.6781C41.7496 15.2155 42.3917 15.4877 43.0981 15.4877C43.8893 15.4877 44.7576 15.1285 45.5418 14.4744C46.1507 13.9667 46.5113 13.022 46.3981 12.2399C46.3981 11.5795 46.2871 10.6525 45.9767 10.0309C45.3233 8.63086 44.4564 7.37856 43.1645 5.96929C42.5995 5.35269 42.0933 4.68376 41.5297 4.06575C41.1471 3.64573 40.4782 2.77881 39.8489 2.77881C39.3405 2.77881 39.0301 3.58986 38.8519 3.95756C38.0295 5.65958 36.7546 7.11127 35.4351 8.4463C34.8227 9.06644 34.1885 9.70708 33.8222 10.4411C33.2134 11.547 33.1907 12.8353 33.7628 13.8027Z" fill="#E19884"/>
<path d="M59.3453 4.46456C58.8524 3.63088 57.9756 3.15287 56.9397 3.15287C55.8154 3.15287 53.9642 4.97722 53.3355 6.3879C53.1969 5.82151 52.7833 4.42143 51.9171 3.58845C51.3585 3.05105 50.7164 2.77881 50.01 2.77881C49.2187 2.77881 48.3511 3.13873 47.5662 3.79281C46.9574 4.2998 46.5975 5.2445 46.7099 6.02727C46.7099 6.68701 46.8209 7.61474 47.1314 8.23558C47.7847 9.63637 48.6516 10.888 49.9435 12.2979C50.5092 12.9145 51.0148 13.5827 51.5784 14.2015C51.9609 14.6208 52.6298 15.4877 53.2592 15.4877C53.7676 15.4877 54.078 14.6774 54.2562 14.3097C55.0786 12.6076 56.3542 11.1552 57.673 9.82092C58.286 9.20079 58.9196 8.55944 59.2866 7.82616C59.8947 6.71954 59.9173 5.43189 59.3453 4.46456Z" fill="#E19884"/>
<path d="M60.1253 13.8027C60.6182 14.6356 61.495 15.1144 62.5316 15.1144C63.6552 15.1144 65.5064 13.2893 66.1358 11.8793C66.2744 12.4457 66.6873 13.8458 67.5535 14.6781C68.1129 15.2155 68.7542 15.4877 69.4606 15.4877C70.2519 15.4877 71.1202 15.1285 71.9044 14.4744C72.5132 13.9667 72.8738 13.022 72.7607 12.2399C72.7607 11.5795 72.6497 10.6525 72.3393 10.0309C71.6859 8.63086 70.819 7.37856 69.5271 5.96929C68.9614 5.35269 68.4558 4.68376 67.8922 4.06575C67.5097 3.64573 66.8408 2.77881 66.2114 2.77881C65.703 2.77881 65.3926 3.58986 65.2144 3.95756C64.392 5.65958 63.1171 7.11127 61.7976 8.4463C61.1853 9.06644 60.551 9.70708 60.1847 10.4411C59.5759 11.547 59.5533 12.8353 60.1253 13.8027Z" fill="#E19884"/>
<path d="M86.1902 4.46456C85.6973 3.63088 84.8205 3.15287 83.7839 3.15287C82.6603 3.15287 80.8084 4.97722 80.1798 6.3879C80.0412 5.82151 79.6275 4.42143 78.762 3.58845C78.2034 3.05105 77.5613 2.77881 76.8549 2.77881C76.063 2.77881 75.1953 3.13873 74.4112 3.79281C73.8023 4.2998 73.4417 5.2445 73.5548 6.02727C73.5548 6.68701 73.6652 7.61474 73.9763 8.23558C74.6297 9.63637 75.4966 10.888 76.7885 12.2979C77.3541 12.9145 77.8597 13.5827 78.4233 14.2015C78.8058 14.6208 79.4748 15.4877 80.1041 15.4877C80.6125 15.4877 80.9229 14.6774 81.1011 14.3097C81.9235 12.6076 83.1984 11.1552 84.5179 9.82092C85.1302 9.20079 85.7645 8.55944 86.1308 7.82616C86.7396 6.71954 86.7615 5.43189 86.1902 4.46456Z" fill="#E19884"/>
</svg>
