<svg width="180" height="47" viewBox="0 0 180 47" fill="none" xmlns="http://www.w3.org/2000/svg">
<mask id="mask0_968_3937" style="mask-type:luminance" maskUnits="userSpaceOnUse" x="0" y="0" width="180" height="47">
<path d="M0.380859 0.6875H179.402V46.3458H0.380859V0.6875Z" fill="white"/>
</mask>
<g mask="url(#mask0_968_3937)">
<path d="M178.005 43.9843C164.489 45.9147 150.972 46.1902 137.456 46.4658H136.076C135.248 46.4658 134.145 46.4658 133.318 46.4658C132.49 46.4658 131.386 46.4658 130.559 46.4658C127.801 46.4658 124.766 46.4658 122.007 46.4658C111.802 46.4658 101.319 46.1902 91.1132 46.1902C90.8363 46.1902 90.5607 46.1902 90.5607 46.1902C90.2851 46.1902 90.0096 46.1902 89.457 46.1902H88.3548C72.9064 45.9147 57.1839 45.9147 41.4599 45.6391C40.9088 45.6391 40.0807 45.6391 39.5296 45.6391C37.8734 45.6391 35.9431 45.6391 34.2883 45.6391H34.0113C26.2885 45.6391 18.2888 45.6391 10.5646 45.3635C8.08172 45.3635 5.32328 45.3635 3.11736 43.9843C0.910054 42.6051 -0.193598 39.5697 1.18562 37.3638C2.28927 35.7076 3.66849 35.7076 4.49658 33.7773C5.32328 32.1225 4.77215 30.7433 4.49658 29.364C4.21963 27.1567 4.49658 24.1227 7.53058 19.7095C6.15136 18.0533 4.49658 15.2949 3.39293 11.7098C2.56484 8.67575 1.18562 4.53671 2.84041 2.33079C5.04771 -0.427653 11.3927 1.77827 15.5303 1.77827C15.8059 1.77827 16.0815 1.77827 16.357 1.77827C17.7363 1.77827 18.8399 1.77827 20.2191 1.77827C21.5983 1.77827 22.9776 1.77827 24.3568 2.05522C26.013 2.05522 27.9433 2.05522 29.5981 2.33079C35.3905 2.60635 41.1844 2.88192 46.9768 2.88192C77.0441 3.98557 107.388 5.08923 137.456 2.33079C151.523 0.951567 166.144 -0.980172 179.108 4.53671C173.868 6.19288 171.385 13.3645 174.694 18.0533C175.798 19.7095 177.453 21.3643 176.902 23.2946C176.626 24.3983 175.523 24.9508 174.694 25.7775C170.557 31.0188 180.487 38.1905 178.005 43.9843Z" fill="#857999"/>
</g>
<mask id="mask1_968_3937" style="mask-type:luminance" maskUnits="userSpaceOnUse" x="11" y="1" width="157" height="46">
<path d="M11.3704 1.75098H167.35V46.3457H11.3704V1.75098Z" fill="white"/>
</mask>
<g mask="url(#mask1_968_3937)">
<path d="M132.765 5.64041C133.318 7.29658 133.869 9.22694 134.421 11.1573C134.697 12.2609 135.248 13.6402 135.801 14.7438C134.973 13.9157 134.144 13.089 133.318 12.2609C131.662 10.8817 130.007 9.77807 128.628 8.95137C135.801 8.95137 137.731 9.22694 137.731 9.5025C137.731 9.5025 137.731 9.5025 136.076 10.3306C134.973 10.8817 134.973 10.8817 134.697 11.1573C133.869 11.7098 133.593 11.7098 132.214 12.8135C130.559 14.1927 130.559 14.1927 130.282 14.1927C130.007 13.9157 130.835 12.2609 131.663 9.22694C132.214 7.84772 132.765 6.4685 132.765 5.64041ZM161.178 36.2602C160.351 39.0186 159.247 40.949 159.799 41.2259C159.799 41.2259 160.074 41.2259 161.73 39.8467C163.109 38.7431 163.385 38.4675 164.212 38.1905C164.489 37.915 164.489 38.1905 165.592 37.3638C167.247 36.5358 167.247 36.5358 167.247 36.5358C167.247 36.2602 165.315 35.9846 158.144 35.9846C159.523 36.8113 161.178 37.915 162.833 39.2942C163.936 40.1223 164.764 40.949 165.315 41.7771C164.764 40.6734 164.489 39.5698 163.936 38.1905C163.385 36.2602 162.833 34.3285 162.281 32.6737C162.281 33.2262 161.73 34.6054 161.178 36.2602ZM107.664 36.2602C106.836 39.0186 105.732 40.949 106.285 41.2259C106.285 41.2259 106.56 41.2259 108.215 39.8467C109.594 38.7431 109.87 38.4675 110.698 38.1905C110.973 37.915 110.973 38.1905 112.077 37.3638C113.732 36.5358 113.732 36.5358 113.732 36.5358C113.732 36.2602 111.801 35.9846 104.63 35.9846C106.009 36.8113 107.664 37.915 109.319 39.2942C110.422 40.1223 111.249 40.949 111.801 41.7771C111.249 40.6734 110.973 39.5698 110.422 38.1905C109.87 36.2602 109.319 34.3285 108.767 32.6737C108.49 33.2262 108.215 34.6054 107.664 36.2602ZM124.49 26.8812C123.939 28.536 123.386 29.6397 123.663 29.9152C123.663 29.9152 123.663 29.9152 124.766 29.0885C125.594 28.536 125.869 28.2604 126.145 27.9849C126.422 27.9849 126.422 27.9849 126.973 27.4324C127.801 26.8812 128.076 26.8812 128.076 26.8812C128.076 26.6057 126.973 26.6057 122.284 26.3301C123.111 26.8812 124.214 27.4324 125.318 28.2604C125.869 28.8116 126.422 29.3641 126.973 29.6397C126.697 28.8116 126.422 28.2604 126.145 27.4324C125.869 26.3301 125.318 24.9509 125.042 23.8472C125.042 24.9509 125.042 25.7776 124.49 26.8812ZM160.627 9.77807C159.799 12.2609 158.972 13.9157 159.247 14.1927C159.247 14.1927 159.523 14.1927 160.902 13.089C162.281 11.9854 162.557 11.9854 163.109 11.4342C163.385 11.1573 163.385 11.4342 164.213 10.8817C165.592 10.055 165.592 10.055 165.592 10.055C165.592 9.77807 163.936 9.5025 157.316 9.5025C158.695 10.3306 160.074 11.1573 161.73 12.5365C162.557 13.3646 163.385 13.9157 164.213 14.7438C163.936 13.6402 163.385 12.5365 163.109 11.4342C162.557 9.5025 162.006 7.84772 161.453 6.19293C161.453 7.01963 161.178 8.12328 160.627 9.77807ZM90.285 43.7074C90.0095 42.8807 89.7339 42.0526 89.7339 41.5015C89.7339 42.0526 89.457 42.8807 89.1814 43.7074C88.6303 43.7074 87.8022 43.7074 86.9755 43.7074C87.5266 43.9844 88.0777 44.2599 88.9058 44.8111C88.6303 45.3636 88.6303 45.6392 88.3547 46.1903H89.1814C89.457 45.9147 89.457 45.9147 89.7339 45.6392C90.0095 45.9147 90.0095 45.9147 90.285 46.1903C90.5606 46.1903 90.8362 46.1903 90.8362 46.1903C90.8362 45.9147 90.5606 45.6392 90.5606 45.0866C90.8362 45.0866 90.8362 45.0866 91.3887 44.5355C92.2154 43.9844 92.4923 43.9844 92.4923 43.9844C92.4923 43.9844 91.9398 43.7074 90.285 43.7074ZM18.5642 36.5358C18.0131 38.1905 17.4606 39.2942 17.7362 39.5698C17.7362 39.5698 17.7362 39.5698 18.8398 38.7431C19.6679 38.1905 19.9435 37.915 20.219 37.6394C20.4946 37.6394 20.4946 37.6394 21.0471 37.0869C21.8752 36.5358 22.1508 36.5358 22.1508 36.5358C22.1508 36.2602 21.0471 36.2602 16.3569 35.9846C17.185 36.5358 18.2887 37.0869 19.3923 37.915C19.9435 38.4661 20.4946 39.0186 21.0471 39.2942C20.7715 38.4661 20.4946 37.915 20.219 37.0869C19.9435 35.9846 19.3923 34.6054 19.1154 33.5018C19.1154 34.6054 18.8398 35.4321 18.5642 36.5358ZM51.6655 11.7098C51.1144 13.3646 50.5632 14.4682 50.8388 14.7438C50.8388 14.7438 50.8388 14.7438 51.9425 13.9157C52.7692 13.3646 53.0461 13.089 53.3217 12.8135C53.5972 12.8135 53.5972 12.8135 54.1484 12.2609C54.9765 11.7098 55.252 11.7098 55.252 11.7098C55.252 11.4342 54.1484 11.4342 49.4596 11.1573C50.2863 11.7098 51.3899 12.2609 52.4936 13.089C53.0461 13.6402 53.5972 14.1927 54.1484 14.4682C53.8728 13.6402 53.5972 13.089 53.3217 12.2609C53.0461 11.1573 52.4936 9.77807 52.218 8.6758C52.218 9.77807 51.9425 10.6062 51.6655 11.7098ZM13.5985 21.3643C13.0474 23.0191 12.4962 24.1228 12.7718 24.3983C12.7718 24.3983 12.7718 24.3983 13.8755 23.5716C14.7022 23.0191 14.9777 22.7436 15.2547 22.468C15.5302 22.468 15.5302 22.468 16.0814 21.9155C16.9095 21.3643 17.185 21.3643 17.185 21.3643C17.185 21.0888 16.0814 21.0888 11.3926 20.8118C12.2193 21.3643 13.3229 21.9155 14.4266 22.7436C14.9777 23.2947 15.5302 23.8472 16.0814 24.1228C15.8058 23.2947 15.5302 22.7436 15.2547 21.9155C14.9777 20.8118 14.4266 19.4326 14.151 18.3303C14.151 19.4326 13.8755 20.5363 13.5985 21.3643ZM148.489 23.5716C146.834 28.536 145.455 31.57 146.006 31.847C146.006 31.847 146.282 31.847 149.316 29.6397C151.799 27.7093 152.076 27.4324 153.455 26.6057C154.006 26.3301 154.006 26.3301 155.661 25.502C158.419 24.1228 158.419 23.8472 158.419 23.8472C158.419 23.2947 155.11 22.7436 142.697 22.7436C145.178 24.1228 147.937 25.7776 150.697 28.2604C152.351 29.6397 154.006 31.0189 155.11 32.3981C154.282 30.4677 153.731 28.536 152.902 26.3301C151.799 23.0191 150.972 19.7096 150.144 16.6742C149.868 18.3303 149.317 20.5363 148.489 23.5716ZM27.3921 3.43449C28.4943 2.88197 29.0469 2.60641 29.598 2.33084C27.9432 2.33084 26.0129 2.33084 24.3567 2.05527C22.9775 2.05527 21.5982 2.05527 20.219 1.77832C18.8398 1.77832 17.7362 1.77832 16.3569 1.77832C17.4606 2.33084 18.2887 3.15754 19.3923 3.98563C18.2887 7.57215 17.185 9.5025 17.7362 10.055C17.7362 10.055 18.0131 10.055 21.0471 7.84772C21.8752 7.29658 22.4263 6.74406 22.7019 6.4685C24.3567 7.84772 25.7359 9.22694 27.1151 10.3306C26.564 8.6758 25.7359 6.74406 25.1848 4.81371C25.4603 4.26119 25.4603 4.26119 27.3921 3.43449ZM38.4258 42.6052C37.8733 40.3978 37.0466 38.4675 36.7697 36.2602C36.4941 37.6394 35.943 39.8467 35.1149 42.3282C33.4601 42.3282 31.5297 42.3282 29.0469 42.3282C30.4261 43.1563 32.0809 44.2599 33.7357 45.3636C33.7357 45.3636 33.7357 45.3636 34.0112 45.3636C35.6674 45.3636 37.5977 45.3636 39.2525 45.3636C39.8051 45.3636 40.6318 45.3636 41.1843 45.3636C41.4598 45.3636 41.4598 45.0866 41.7354 45.0866C44.4938 43.7074 44.4938 43.4319 44.4938 43.4319C44.4938 43.1563 43.1146 42.8807 38.4258 42.6052ZM135.801 41.5015C134.973 39.0186 134.421 36.8113 133.869 34.6054C133.593 36.2602 133.042 38.4675 132.214 41.2259C130.282 41.2259 128.076 41.2259 125.594 41.2259C127.248 42.3282 129.18 43.4319 131.11 44.5355C130.835 45.0866 130.835 45.6392 130.559 46.1903C131.386 46.1903 132.49 46.1903 133.318 46.1903C134.144 46.1903 135.248 46.1903 136.076 46.1903H137.455C137.455 45.9147 137.18 45.6392 137.18 45.3636C137.731 45.0866 137.731 45.0866 139.661 43.9844C142.42 42.3282 142.697 42.3282 142.697 42.3282C142.697 42.3282 141.041 41.7771 135.801 41.5015ZM78.1476 11.4342C77.3195 14.1927 76.2173 16.123 76.7684 16.3986C76.7684 16.3986 77.044 16.3986 78.6988 15.0194C80.078 13.9157 80.3549 13.6402 81.1816 13.3646C81.4572 13.089 81.4572 13.3646 82.5609 12.5365C84.2156 11.7098 84.2156 11.7098 84.2156 11.7098C84.2156 11.4342 82.2853 11.1573 75.1136 11.1573C76.4928 11.9854 78.1476 13.089 79.8024 14.4682C80.9061 15.2949 81.7342 16.123 82.2853 16.9511C81.7342 15.8475 81.4572 14.7438 80.9061 13.3646C80.3549 11.4342 79.8024 9.5025 79.2513 7.84772C78.9757 8.39885 78.6988 9.77807 78.1476 11.4342ZM35.6674 22.191C34.8393 24.9509 33.7357 26.8812 34.2882 27.1568C34.2882 27.1568 34.5637 27.1568 36.2185 25.7776C37.5977 24.6739 37.8733 24.3983 38.7014 24.1228C38.977 23.8472 38.977 24.1228 40.0806 23.2947C41.7354 22.468 41.7354 22.468 41.7354 22.468C41.7354 22.1924 39.8051 21.9155 32.632 21.9155C34.0112 22.7436 35.6674 23.8472 37.3222 25.2264C38.4258 26.0531 39.2525 26.8812 39.8051 27.7093C39.2525 26.6057 38.977 25.502 38.4258 24.1228C37.8733 22.1924 37.3222 20.2607 36.771 18.6059C36.4941 19.157 36.2185 20.5363 35.6674 22.191ZM83.9401 29.0885C83.1134 31.847 82.0097 33.7773 82.5609 34.0529C82.5609 34.0529 82.8364 34.0529 84.4926 32.6737C85.8718 31.57 86.1474 31.2944 86.9755 31.0189C87.251 30.7433 87.251 31.0189 88.3547 30.1908C90.0095 29.3641 90.0095 29.3641 90.0095 29.3641C90.0095 29.0885 88.0777 28.8116 80.9061 28.8116C82.2853 29.6397 83.9401 30.7433 85.5962 32.1225C86.6985 32.9492 87.5266 33.7773 88.0777 34.6054C87.5266 33.5018 87.251 32.3981 86.6985 31.0189C86.1474 29.0885 85.5962 27.1568 85.0437 25.502C84.7682 26.0531 84.4926 27.4324 83.9401 29.0885ZM102.147 13.089C100.492 18.0534 99.1115 21.0888 99.664 21.3643C99.664 21.3643 99.9396 21.3643 102.974 19.157C105.456 17.2267 105.732 16.9511 107.111 16.123C107.664 15.8475 107.664 15.8475 109.319 15.0194C112.077 13.6402 112.077 13.3646 112.077 13.3646C112.077 12.8135 108.767 12.2609 96.3531 12.2609C98.8359 13.6402 101.594 15.2949 104.353 17.7778C106.009 19.157 107.664 20.5363 108.767 21.9155C107.939 19.9851 107.388 18.0534 106.56 15.8475C105.456 12.5365 104.63 9.22694 103.802 6.19293C103.802 7.84772 102.974 10.055 102.147 13.089ZM57.7349 31.2944C56.0801 36.5358 54.4253 39.8467 54.9765 40.3978C54.9765 40.3978 55.252 40.3978 58.563 38.1905C61.3214 36.2602 61.597 35.7077 62.9762 34.881C63.5274 34.6054 63.5274 34.6054 65.4591 33.5018C68.2175 31.847 68.4931 31.847 68.4931 31.847C68.4931 31.2944 64.9066 30.7433 51.3899 30.4677C54.1484 31.847 57.1838 33.7773 60.2178 36.5358C62.1481 37.915 63.8029 39.5698 65.1821 40.949C64.3554 38.7431 63.5274 36.5358 62.7007 34.3285C61.597 30.7433 60.4933 27.1568 59.6653 23.8472C59.3897 25.502 58.8386 27.9849 57.7349 31.2944Z" fill="#BBB6C6"/>
</g>
</svg>
