<svg width="188" height="54" viewBox="0 0 188 54" fill="none" xmlns="http://www.w3.org/2000/svg">
<mask id="mask0_968_3903" style="mask-type:luminance" maskUnits="userSpaceOnUse" x="0" y="0" width="188" height="54">
<path d="M0.835938 0.510742H187.302V53.1537H0.835938V0.510742Z" fill="white"/>
</mask>
<g mask="url(#mask0_968_3903)">
<path d="M182.008 48.9498L184.827 53.1276C184.827 53.1276 1.61419 53.1276 1.33863 53.1276C4.61773 49.6768 5.02347 48.497 5.42782 46.9848C6.35561 43.5271 4.84899 41.1176 2.75108 38.1002C1.196 35.8652 2.88679 35.1327 6.76826 32.4351C8.83986 30.9978 9.94629 29.4856 10.3853 27.9139C10.5362 27.3905 10.6096 26.8629 10.6193 26.3242C10.6788 23.6184 9.15005 20.7547 7.46895 17.7872C7.2557 17.4133 7.03968 17.0352 6.82365 16.6586C6.77103 16.5603 6.71564 16.4661 6.66302 16.3719C6.22405 15.5937 5.67846 14.8113 5.10655 14.0746C4.7756 13.6412 4.42941 13.2216 4.08737 12.8242C2.57383 11.06 1.16138 9.76803 1.16138 9.76803C1.16138 9.76803 1.98808 8.92333 2.97541 7.91661C4.3574 6.51385 6.05234 4.80644 6.24483 4.6735L5.67984 3.83849L3.42546 0.49707C3.42546 0.49707 117.494 0.49707 165.757 0.49707H186.914C185.752 1.71843 184.953 2.65868 184.386 3.42307C184.078 3.83849 183.841 4.20545 183.649 4.53641C183.195 5.33265 183.011 5.9544 182.825 6.63847C182.714 7.05113 182.641 7.44856 182.595 7.83352C182.533 8.35696 182.533 8.85963 182.581 9.34845C182.595 9.50631 182.616 9.66279 182.644 9.82065C182.738 10.3898 182.903 10.9381 183.123 11.4824C183.353 12.0598 183.642 12.6289 183.984 13.205C184.287 13.7257 184.625 14.2491 184.995 14.7905C185.16 15.0315 185.327 15.2794 185.502 15.5272C187.058 17.7622 185.366 18.492 181.486 21.1881C176.901 24.3731 177.044 27.9139 178.638 31.6777C178.805 32.0696 178.991 32.4642 179.182 32.8616C179.629 33.77 180.136 34.6923 180.662 35.6242C180.968 36.1615 181.28 36.7071 181.59 37.2513C181.67 37.3912 181.751 37.5311 181.834 37.6709C182.292 38.4145 182.825 39.1554 183.379 39.8505C183.858 40.457 184.352 41.0303 184.818 41.5441C186.063 42.9191 187.092 43.8594 187.092 43.8594C187.092 43.8594 186.286 44.6833 185.316 45.6679C185.023 45.9684 184.713 46.2827 184.405 46.5929C183.268 47.7464 182.166 48.8459 182.008 48.9498Z" fill="#8DAAA6"/>
</g>
<mask id="mask1_968_3903" style="mask-type:luminance" maskUnits="userSpaceOnUse" x="59" y="0" width="27" height="27">
<path d="M59.6826 0.510742H85.2065V26.3379H59.6826V0.510742Z" fill="white"/>
</mask>
<g mask="url(#mask1_968_3903)">
<path d="M80.7835 11.794C80.8528 11.7663 80.9248 11.74 80.9912 11.7109L81.0342 11.6901C82.8593 10.7152 85.0264 9.21693 84.9835 7.61338C84.9627 6.80745 84.4227 6.15246 83.3564 5.65534C81.4357 4.84664 79.2451 5.20113 77.0211 6.6856C76.4922 7.03871 76.0269 7.4209 75.5934 7.81279C75.7084 7.22704 75.7873 6.61774 75.8607 6.02784C76.3094 3.10461 75.6835 1.36951 73.9982 0.873765C73.1203 0.616199 72.1966 0.805911 71.3935 1.40967C70.5626 2.03558 69.9506 3.0603 69.7705 4.0504C69.1294 3.25693 68.2764 2.54517 67.35 2.22529C66.4651 1.92064 65.6052 1.99542 64.8588 2.4427C63.8175 2.98275 63.4463 4.37166 63.4463 5.49609L63.4491 5.56117C63.5682 6.7493 64.1387 7.50814 64.7439 8.30992L64.8796 8.48855C65.2382 8.95106 65.583 9.30002 65.9361 9.5839C65.8087 9.58943 65.6827 9.59774 65.5609 9.60605C64.2537 9.70022 59.99 10.2167 59.99 12.9558L59.9928 13.0209C60.1271 14.3627 61.0715 15.3694 62.4549 15.6464C62.7332 15.7018 62.9963 15.7267 63.2469 15.7267C63.6914 15.7267 64.1 15.6478 64.5029 15.5273C64.4655 15.5633 64.4281 15.5965 64.3921 15.6325L64.3575 15.6685C63.7358 16.3955 61.7459 18.8812 62.2887 20.3365C62.3981 20.6315 62.7097 21.1439 63.5613 21.2726C63.7648 21.3045 63.9656 21.3197 64.1623 21.3197C65.3476 21.3197 66.4111 20.7686 67.3195 20.0457C67.0121 21.0746 66.7767 21.9941 67.2724 23.3581C67.6255 24.2402 68.2819 25.8825 70.0863 26.0348C70.1804 26.0431 70.2704 26.0459 70.3591 26.0459C71.8477 26.0459 72.6342 24.9243 73.076 23.6309C73.5052 24.3136 74.1228 24.8813 74.8152 25.1569C75.1379 25.2857 75.4633 25.348 75.7832 25.348C76.5835 25.348 77.3507 24.9519 77.978 24.1903C79.0927 22.9537 78.5499 20.9832 77.7675 19.2772C77.9628 19.37 78.1594 19.4531 78.363 19.5168C78.903 19.6982 79.4403 19.7868 79.9568 19.7868C80.6603 19.7868 81.325 19.622 81.9066 19.2938C82.9244 18.7205 83.65 17.6723 83.956 16.3263C84.2288 14.9581 83.9643 13.8476 83.1667 13.0223C82.5796 12.413 81.7473 12.0252 80.7835 11.794ZM70.654 13.7423C70.4214 13.446 70.3563 13.0001 70.4574 12.4185C70.6111 11.5392 70.7717 11.4644 71.9626 11.2193C72.7935 11.1653 73.328 11.9588 73.3903 12.3977C73.4734 12.9807 73.3543 13.5069 73.0635 13.8434C72.8267 14.1148 72.4805 14.2588 72.0595 14.2588C72.0138 14.2588 71.9654 14.2575 71.9141 14.2533C71.3118 14.2131 70.888 14.0414 70.654 13.7423ZM77.7398 7.76571C79.6106 6.51666 81.3305 6.20924 82.8302 6.84069C83.2165 7.02071 83.6791 7.30597 83.6874 7.648C83.7054 8.31546 82.3732 9.50081 80.4443 10.5338C79.2769 11.0476 77.78 11.265 76.3329 11.4741C75.7167 11.5641 75.1254 11.65 74.559 11.7566C74.4759 11.5239 74.3569 11.2955 74.2059 11.0822C74.3998 10.7734 74.9052 10.2818 75.1199 10.0741C75.2057 9.9924 75.2846 9.91485 75.3553 9.84423C76.1086 9.09092 76.8217 8.37777 77.7398 7.76571ZM72.1731 2.44685C72.5027 2.19759 73.0247 1.93864 73.6326 2.11866C74.6089 2.40669 74.9191 3.61974 74.577 5.85197C74.4732 6.67729 74.3666 7.52891 74.1727 8.21022C74.0204 8.66995 73.7794 9.08261 73.5246 9.52158C73.4014 9.73345 73.2754 9.95224 73.159 10.1766C72.763 9.98271 72.3088 9.883 71.8117 9.93147L71.7895 9.93424C71.723 9.36787 71.5998 8.72396 71.4696 8.05235C71.2564 6.94178 71.0127 5.68303 71.0071 4.62784C71.0044 3.87454 71.4946 2.95644 72.1731 2.44685ZM65.7797 7.52753C65.2313 6.80053 64.8325 6.27294 64.7425 5.46285C64.7494 4.72616 64.9751 3.83438 65.4639 3.58928L65.5124 3.56297C65.9348 3.3054 66.3973 3.26801 66.9276 3.4508C68.0742 3.84684 69.1557 5.13605 69.5393 6.16077C69.9852 7.32397 70.2594 8.80566 70.4795 10.2763C70.1804 10.1696 69.8522 10.0215 69.531 9.87746C69.0491 9.66006 68.552 9.43434 68.077 9.30971C67.0536 8.89567 66.5413 8.51348 65.9098 7.70062L65.7797 7.52753ZM62.7097 14.3724C61.8926 14.209 61.3761 13.6828 61.2875 12.9239C61.3277 11.5696 64.0432 11.0144 65.6537 10.8994C66.7005 10.8246 68.0396 10.826 69.3939 11.4173C69.3053 11.6361 69.2346 11.8923 69.1806 12.1942C69.1571 12.3271 69.1432 12.4531 69.1322 12.5736C69.0491 12.5916 68.9618 12.6068 68.894 12.6193C68.6309 12.6678 68.383 12.7148 68.2099 12.7716L68.1518 12.7952C67.2087 13.2147 66.2353 13.5388 65.2936 13.8531L65.1565 13.9071C64.165 14.3045 63.5668 14.5441 62.7097 14.3724ZM63.7593 19.989C63.7205 19.9834 63.528 19.9516 63.5031 19.8837C63.3356 19.4309 64.1858 17.8689 65.3268 16.5312C65.8586 16.005 66.4637 15.6422 67.1063 15.2586C67.296 15.1437 67.4871 15.0302 67.6574 14.9235C67.8831 14.7934 68.1185 14.6466 68.3567 14.4956C68.6724 14.2976 68.9937 14.0968 69.2956 13.939C69.3911 14.1896 69.5144 14.3904 69.6348 14.5427C69.7138 14.6452 69.8135 14.7518 69.9353 14.8571C69.9201 14.8889 69.9049 14.918 69.8882 14.9498C69.333 15.8735 68.671 16.8636 68.1725 17.3607L68.1365 17.4009C66.9969 18.7482 65.4709 20.2562 63.7593 19.989ZM72.3587 20.5844C72.1108 22.6643 71.7134 24.8744 70.197 24.7401C69.3496 24.6695 68.9383 24.0297 68.4841 22.8956C68.1227 21.8986 68.2999 21.2906 68.599 20.2936C68.9743 19.2647 69.3163 18.6956 69.8813 17.7567L70.0087 17.5435C70.1846 17.2984 70.3881 16.8843 70.6956 16.2474C70.7897 16.0493 70.9088 15.8056 71.0182 15.5882C71.0501 15.5356 71.0805 15.4844 71.1096 15.4359C71.3242 15.4885 71.5583 15.53 71.8255 15.5481C71.8477 15.5481 71.8698 15.5481 71.892 15.5494C72.0914 16.4661 72.3434 18.2705 72.4376 19.7799C72.4307 19.8907 72.4307 20.0042 72.4182 20.1122C72.3988 20.2548 72.3794 20.4127 72.3587 20.5844ZM77.0101 23.3276L76.9865 23.3553C76.4658 23.9895 75.8967 24.1903 75.2943 23.9508C74.4206 23.6032 73.6839 22.4414 73.7503 21.5136C73.7836 21.0428 73.7753 20.4515 73.7379 19.8159C73.7836 18.9352 73.6949 18.0032 73.5966 17.1156C73.5745 16.8026 73.3875 16.059 73.1867 15.3251C73.3211 15.2642 73.4471 15.1922 73.5675 15.1119C73.7586 15.35 73.9636 15.6118 74.1713 15.8859C74.3195 16.0923 74.4718 16.2972 74.6283 16.4994C75.2362 17.3344 75.7915 18.1722 76.0047 18.6513L76.0269 18.6942C77.3092 21.0802 77.6401 22.6394 77.0101 23.3276ZM82.6889 16.0549C82.466 17.0367 81.9758 17.765 81.271 18.1625C80.573 18.5557 79.7089 18.5987 78.7632 18.2829C77.5986 17.9146 76.5157 16.8262 75.6101 15.6464C75.5021 15.501 75.3954 15.357 75.2888 15.2157C74.9925 14.8044 74.7155 14.3918 74.4676 14.0027C74.5895 13.7188 74.6657 13.41 74.6947 13.0804C78.4419 12.5251 81.1768 12.827 82.2361 13.9237C82.725 14.4306 82.8731 15.1326 82.6889 16.0549Z" fill="#D5D7CC"/>
</g>
<path d="M95.703 35.4234C95.7722 35.3957 95.8428 35.3707 95.9093 35.3403L95.9522 35.3195C97.7773 34.346 99.9445 32.8463 99.9029 31.2428C99.8808 30.4382 99.3407 29.7819 98.2758 29.2847C96.3552 28.476 94.1645 28.8319 91.9392 30.3164C91.4116 30.6695 90.9449 31.0503 90.5115 31.4422C90.6264 30.8578 90.7054 30.2471 90.7788 29.6572C91.2288 26.734 90.6015 25.0003 88.9176 24.5045C88.0397 24.2456 87.1161 24.4353 86.3129 25.0391C85.4821 25.665 84.87 26.6911 84.69 27.6798C84.0474 26.8863 83.1958 26.1746 82.2694 25.8547C81.3846 25.55 80.5246 25.6248 79.7782 26.0721C78.7369 26.6135 78.3658 28.0011 78.3658 29.1255L78.3686 29.1906C78.4876 30.3801 79.0582 31.1375 79.6633 31.9393L79.7976 32.1179C80.1577 32.5805 80.5025 32.9294 80.8556 33.2133C80.7282 33.2202 80.6022 33.2271 80.4803 33.2354C79.1731 33.3296 74.9094 33.8461 74.9094 36.5852L74.9122 36.6503C75.0465 37.9921 75.9909 38.9988 77.3757 39.2758C77.654 39.3311 77.9157 39.3561 78.1664 39.3561C78.6109 39.3561 79.0194 39.2771 79.4224 39.1567C79.385 39.1927 79.349 39.2259 79.3116 39.2619L79.2783 39.2979C78.6552 40.0249 76.6653 42.5106 77.2081 43.9673C77.3175 44.2609 77.6291 44.7732 78.4807 44.9006C78.6857 44.9339 78.8851 44.9491 79.0831 44.9491C80.2684 44.9477 81.3319 44.398 82.2403 43.6751C81.9329 44.704 81.6975 45.6235 82.1933 46.9889C82.5464 47.8696 83.2027 49.5119 85.0071 49.6628C85.1012 49.6725 85.1913 49.6753 85.2799 49.6753C86.7685 49.6753 87.555 48.5536 87.9968 47.2603C88.4261 47.943 89.0423 48.5107 89.736 48.7863C90.0587 48.9151 90.3841 48.9788 90.704 48.9788C91.5044 48.9788 92.2715 48.5813 92.8988 47.8197C94.0136 46.5831 93.4707 44.6126 92.6883 42.9066C92.8836 42.9994 93.0816 43.0825 93.2838 43.1462C93.8238 43.3276 94.3611 43.4162 94.8776 43.4162C95.5811 43.4162 96.2458 43.25 96.8274 42.9218C97.8452 42.3485 98.5722 41.3017 98.8768 39.9557C99.1496 38.5875 98.8851 37.477 98.0889 36.6516C97.4976 36.0423 96.6654 35.6546 95.703 35.4234ZM85.5734 37.3731C85.3408 37.0768 85.2743 36.6309 85.3768 36.0479C85.5305 35.1699 85.6912 35.0952 86.882 34.8501C87.7129 34.7961 88.246 35.5881 88.3097 36.0285C88.3928 36.6101 88.2737 37.1377 87.9815 37.4728C87.7461 37.7456 87.3999 37.8896 86.9804 37.8896C86.9333 37.8896 86.8862 37.8868 86.8336 37.8841C86.2312 37.8439 85.8075 37.6708 85.5734 37.3731ZM92.6579 31.3951C94.5301 30.146 96.2499 29.8386 97.7496 30.4701C98.136 30.6515 98.5971 30.9367 98.6068 31.2774C98.6248 31.9462 97.2913 33.1302 95.3623 34.1646C94.195 34.6784 92.698 34.8944 91.251 35.1049C90.6347 35.1935 90.0434 35.2793 89.4771 35.386C89.394 35.1533 89.2749 34.9248 89.124 34.7116C89.3192 34.4028 89.8247 33.9126 90.0379 33.7049C90.1238 33.6218 90.2041 33.5442 90.2733 33.475C91.028 32.7217 91.7412 32.0085 92.6579 31.3951ZM87.0911 26.0762C87.4221 25.8284 87.9428 25.568 88.5521 25.7494C89.5283 26.0361 89.8371 27.2505 89.4951 29.4827C89.3926 30.3067 89.286 31.1597 89.0921 31.8396C88.9398 32.2993 88.6988 32.7134 88.4441 33.151C88.3194 33.3642 88.1948 33.5816 88.0771 33.8073C87.6824 33.6135 87.2268 33.5124 86.7311 33.5609L86.7076 33.565C86.6425 32.9986 86.5179 32.3547 86.3891 31.6817C86.1744 30.5712 85.9307 29.3124 85.9266 28.2586C85.9224 27.5039 86.4126 26.5872 87.0911 26.0762ZM80.6977 31.1569C80.1493 30.4299 79.7505 29.9023 79.6619 29.0922C79.6675 28.3542 79.8946 27.4638 80.3834 27.2187L80.4318 27.1924C80.8542 26.9348 81.3167 26.8988 81.8471 27.0802C82.9936 27.4762 84.0738 28.7668 84.4573 29.7902C84.9046 30.9534 85.1788 32.4351 85.3976 33.9057C85.0985 33.8004 84.7703 33.6509 84.4504 33.5069C83.9685 33.2894 83.47 33.0651 82.9964 32.9405C81.9717 32.5264 81.4593 32.1429 80.8279 31.33L80.6977 31.1569ZM77.6291 38.0032C76.8121 37.8398 76.2956 37.3122 76.2056 36.5547C76.2471 35.2004 78.9626 34.6437 80.5717 34.5288C81.62 34.454 82.9576 34.4568 84.3133 35.0467C84.2247 35.2669 84.1527 35.5217 84.1001 35.8249C84.0765 35.9579 84.0627 36.0825 84.0516 36.2044C83.9671 36.221 83.8799 36.2376 83.8134 36.2501C83.5489 36.2985 83.3011 36.3442 83.128 36.4024L83.0712 36.4245C82.1268 36.8441 81.1533 37.1695 80.213 37.4839L80.0746 37.5379C79.0831 37.9339 78.4849 38.1735 77.6291 38.0032ZM78.6774 43.6184C78.64 43.6128 78.4475 43.581 78.4226 43.5131C78.2536 43.0617 79.1039 41.4983 80.2449 40.162C80.7766 39.6344 81.3832 39.2716 82.0243 38.888C82.2154 38.7745 82.4065 38.6595 82.5754 38.5529C82.8012 38.4241 83.0366 38.276 83.2761 38.1264C83.5905 37.9284 83.9117 37.7276 84.215 37.5684C84.3105 37.8204 84.4324 38.0198 84.5529 38.1735C84.6332 38.2746 84.7329 38.3826 84.8548 38.4878C84.8381 38.5183 84.8229 38.5488 84.8063 38.5806C84.2524 39.5042 83.5891 40.493 83.092 40.9915L83.056 41.0302C81.9163 42.3776 80.3889 43.8856 78.6774 43.6184ZM87.2781 44.2138C87.0288 46.2951 86.6328 48.5052 85.1165 48.3709C84.2676 48.2988 83.8563 47.6605 83.4035 46.525C83.0407 45.5279 83.218 44.9214 83.5171 43.9244C83.8924 42.8941 84.2344 42.3264 84.7994 41.3861L84.9282 41.1743C85.1026 40.9278 85.3062 40.5151 85.6136 39.8767C85.7078 39.6801 85.8269 39.4364 85.9363 39.219C85.9681 39.165 85.9986 39.1151 86.0276 39.0653C86.2423 39.1193 86.4763 39.1608 86.7436 39.1774C86.7657 39.1788 86.7879 39.1788 86.81 39.1802C87.0081 40.0969 87.2601 41.9013 87.3556 43.4093C87.3487 43.5214 87.3473 43.635 87.3362 43.743C87.3169 43.8842 87.2989 44.0435 87.2781 44.2138ZM91.9295 46.957L91.9059 46.9847C91.3867 47.6203 90.8161 47.8197 90.2124 47.5802C89.34 47.2326 88.6033 46.0708 88.6698 45.143C88.703 44.6722 88.6947 44.0809 88.6573 43.4439C88.703 42.5646 88.6144 41.6326 88.5161 40.745C88.4939 40.432 88.307 39.687 88.1062 38.9545C88.2391 38.8936 88.3665 38.8216 88.4856 38.7399C88.6781 38.978 88.883 39.2411 89.0907 39.5153C89.2389 39.7217 89.3912 39.9266 89.5477 40.1288C90.1542 40.9624 90.7109 41.8016 90.9242 42.2793L90.9449 42.3236C92.2286 44.7096 92.5596 46.2688 91.9295 46.957ZM97.6084 39.6843C97.3854 40.6661 96.8938 41.3944 96.1904 41.7919C95.4925 42.1851 94.6284 42.2281 93.6826 41.9123C92.518 41.544 91.4351 40.4556 90.5295 39.2758C90.4215 39.1304 90.3149 38.9863 90.2082 38.8451C89.9119 38.4338 89.6349 38.0212 89.3871 37.632C89.5075 37.3482 89.5851 37.0394 89.6142 36.7112C93.3599 36.1559 96.0948 36.4564 97.1542 37.5531C97.6444 38.0599 97.7912 38.7634 97.6084 39.6843Z" fill="#D5D7CC"/>
<path d="M47.6157 13.6338C47.6836 13.6047 47.7556 13.5798 47.822 13.5493L47.865 13.53C49.6901 12.5551 51.8572 11.0568 51.8143 9.45323C51.7935 8.6473 51.2535 7.99231 50.1872 7.49518C48.2666 6.6851 46.0759 7.04236 43.8519 8.52682C43.323 8.87855 42.8563 9.26075 42.4243 9.65263C42.5392 9.06826 42.6181 8.45759 42.6915 7.86768C43.1402 4.94445 42.5143 3.20935 40.829 2.71361C39.9511 2.45604 39.0274 2.64576 38.2257 3.24951C37.3948 3.87404 36.7814 4.90014 36.6027 5.89024C35.9602 5.09678 35.1086 4.38363 34.1808 4.06375C33.2973 3.7591 32.436 3.83526 31.691 4.28254C30.6497 4.8226 30.2785 6.21012 30.2785 7.33593L30.2813 7.40102C30.4004 8.58914 30.9709 9.3466 31.5747 10.1484L31.7104 10.3284C32.069 10.7909 32.4138 11.1385 32.7683 11.4237C32.6396 11.4293 32.5135 11.4362 32.3917 11.4459C31.0845 11.5387 26.8208 12.0566 26.8208 14.7956L26.8236 14.8593C26.9579 16.2025 27.9023 17.2079 29.2871 17.4848C29.5654 17.5416 29.8271 17.5665 30.0778 17.5665C30.5223 17.5665 30.9308 17.4876 31.3337 17.3671C31.2977 17.4017 31.2603 17.435 31.2243 17.471L31.1897 17.507C30.5666 18.234 28.5781 20.7196 29.1195 22.1764C29.2289 22.47 29.5405 22.9823 30.3935 23.1111C30.597 23.143 30.7978 23.1582 30.9945 23.1582C32.1798 23.1582 33.2433 22.607 34.1517 21.8842C33.8443 22.9145 33.6089 23.8339 34.1046 25.1979C34.4577 26.08 35.1141 27.7223 36.9185 27.8733C37.0126 27.8816 37.1026 27.8844 37.1913 27.8844C38.6785 27.8844 39.4664 26.7627 39.9068 25.4693C40.3374 26.152 40.9536 26.7198 41.646 26.9953C41.9701 27.1241 42.2955 27.1864 42.6154 27.1864C43.4157 27.1864 44.1829 26.7904 44.8102 26.0288C45.9249 24.7922 45.3807 22.8217 44.5997 21.1157C44.795 21.2084 44.9916 21.2915 45.1952 21.3552C45.7352 21.5352 46.2725 21.6253 46.789 21.6253C47.4925 21.6253 48.1572 21.4591 48.7388 21.1309C49.7566 20.5576 50.4822 19.5107 50.7882 18.1647C51.061 16.7966 50.7951 15.686 49.9989 14.8607C49.4104 14.2528 48.5781 13.8651 47.6157 13.6338ZM37.4848 15.5822C37.2522 15.2858 37.1871 14.8399 37.2882 14.2583C37.4419 13.379 37.6039 13.3042 38.7934 13.0605C39.6243 13.0051 40.1588 13.7986 40.2211 14.2376C40.3042 14.8206 40.1851 15.3481 39.8943 15.6833C39.6575 15.9547 39.3113 16.0987 38.8917 16.0987C38.8447 16.0987 38.7976 16.0973 38.745 16.0931C38.1426 16.053 37.7188 15.8813 37.4848 15.5822ZM44.5706 9.60555C46.4414 8.3565 48.1627 8.04908 49.6624 8.68053C50.0487 8.86055 50.5099 9.1472 50.5196 9.48785C50.5376 10.1567 49.204 11.3407 47.2751 12.3737C46.1077 12.8888 44.6122 13.1048 43.1637 13.3139C42.5475 13.4026 41.9576 13.4898 41.3898 13.5964C41.3068 13.3638 41.1877 13.1353 41.0367 12.922C41.232 12.6132 41.7374 12.1217 41.9521 11.9153C42.0365 11.8322 42.1168 11.7547 42.1861 11.6841C42.9394 10.9308 43.6525 10.2176 44.5706 9.60555ZM39.0039 4.28531C39.3335 4.03744 39.8555 3.77849 40.4634 3.95851C41.4397 4.24654 41.7499 5.45958 41.4065 7.69182C41.304 8.51713 41.1974 9.36876 41.0035 10.0501C40.8512 10.5098 40.6102 10.9225 40.3554 11.36C40.2308 11.5733 40.1062 11.7907 39.9899 12.0164C39.5938 11.8226 39.1396 11.7228 38.6425 11.7713L38.6203 11.7741C38.5539 11.2077 38.4306 10.5638 38.3004 9.8922C38.0858 8.78162 37.8435 7.52287 37.8379 6.46769C37.8352 5.71438 38.3254 4.79628 39.0039 4.28531ZM32.6091 9.36737C32.0621 8.64037 31.6633 8.1114 31.5733 7.3027C31.5802 6.56462 31.8073 5.67422 32.2961 5.42912L32.3432 5.40281C32.7656 5.14386 33.2281 5.10786 33.7584 5.29064C34.905 5.68668 35.9851 6.97728 36.3687 8.00062C36.816 9.16381 37.0902 10.6455 37.3103 12.1161C37.0112 12.0095 36.6817 11.8613 36.3618 11.7173C35.8799 11.4999 35.3828 11.2756 34.9078 11.1509C33.8845 10.7355 33.3721 10.3533 32.7406 9.54047L32.6091 9.36737ZM29.5405 16.2136C28.7235 16.0488 28.2069 15.5226 28.1183 14.7638C28.1585 13.4109 30.874 12.8542 32.4845 12.7393C33.5327 12.6645 34.8704 12.6659 36.2261 13.2558C36.1375 13.476 36.0654 13.7321 36.0114 14.034C35.9893 14.1669 35.9754 14.293 35.9644 14.4148C35.8799 14.4314 35.794 14.4467 35.7248 14.4591C35.4617 14.509 35.2138 14.5547 35.0407 14.6115L34.9826 14.635C34.0395 15.0546 33.0661 15.3786 32.1244 15.693L31.9873 15.747C30.9958 16.1444 30.3976 16.3839 29.5405 16.2136ZM30.5901 21.8288C30.5513 21.8233 30.3589 21.7914 30.3339 21.7236C30.1664 21.2721 31.0166 19.7088 32.1577 18.3725C32.688 17.8449 33.2945 17.4821 33.9371 17.0985C34.1268 16.9849 34.3179 16.87 34.4868 16.7634C34.7139 16.6346 34.9479 16.4864 35.1875 16.3369C35.5032 16.1388 35.8231 15.9367 36.1264 15.7788C36.2219 16.0308 36.3452 16.2302 36.4643 16.3839C36.5446 16.485 36.6443 16.593 36.7661 16.6983C36.7509 16.7287 36.7343 16.7592 36.7177 16.7911C36.1638 17.7147 35.5019 18.7034 35.0033 19.2019L34.9673 19.2407C33.8291 20.5881 32.3003 22.0947 30.5901 21.8288ZM39.1908 22.4243C38.9416 24.5042 38.5456 26.7142 37.0279 26.5799C36.1804 26.5093 35.7691 25.8709 35.3149 24.7354C34.9535 23.737 35.1307 23.1305 35.4298 22.1335C35.8051 21.1046 36.1471 20.5355 36.7121 19.5966L36.8395 19.3833C37.0154 19.1382 37.219 18.7256 37.5264 18.0872C37.6205 17.8892 37.7382 17.6455 37.849 17.4281C37.8809 17.3754 37.9113 17.3242 37.9404 17.2757C38.155 17.3284 38.3891 17.3699 38.6563 17.3879C38.6785 17.3893 38.7006 17.3893 38.7228 17.3907C38.9208 18.3074 39.1728 20.1117 39.2684 21.6197C39.2615 21.7305 39.2601 21.8454 39.249 21.9521C39.2296 22.0947 39.2102 22.2539 39.1908 22.4243ZM43.8409 25.1675L43.8173 25.1952C43.298 25.8294 42.7275 26.0302 42.1252 25.7892C41.2514 25.443 40.5161 24.2812 40.5825 23.3534C40.6158 22.8826 40.6061 22.2913 40.5701 21.6543C40.6144 20.775 40.5271 19.8431 40.4288 18.9554C40.4053 18.6425 40.2197 17.8975 40.0175 17.1649C40.1519 17.104 40.2779 17.032 40.3984 16.9503C40.5895 17.1885 40.7944 17.4516 41.0035 17.7258C41.1503 17.9321 41.3026 18.137 41.4591 18.3392C42.067 19.1728 42.6237 20.0106 42.8355 20.4898L42.8577 20.5341C44.14 22.92 44.4723 24.4792 43.8409 25.1675ZM49.5198 17.8947C49.2968 18.8765 48.8066 19.6049 48.1032 20.0009C47.4052 20.3942 46.5411 20.4371 45.594 20.1214C44.4294 19.7544 43.3479 18.666 42.4409 17.4862C42.3342 17.3394 42.2262 17.1954 42.1196 17.0556C41.8233 16.6443 41.5477 16.2316 41.2984 15.8411C41.4203 15.5586 41.4965 15.2498 41.5256 14.9203C45.2727 14.3664 48.0076 14.6668 49.0669 15.7636C49.5571 16.2704 49.7039 16.9725 49.5198 17.8947Z" fill="#D5D7CC"/>
<path d="M14.7029 14.4619C14.7721 14.4328 14.8413 14.4051 14.912 14.3774L14.9535 14.3567C16.7786 13.3832 18.9444 11.8849 18.9042 10.2813C18.8821 9.47399 18.342 8.81762 17.2744 8.32188C15.3551 7.51179 13.1644 7.86906 10.9405 9.35214C10.4115 9.70525 9.9476 10.0861 9.51002 10.4807C9.62495 9.89358 9.70665 9.2829 9.77866 8.69299C10.2287 5.76977 9.60141 4.03743 7.92031 3.54169C7.17393 3.32151 6.39154 3.42675 5.67978 3.83803L6.24476 4.67304C6.05366 4.80597 4.35733 6.51338 2.97534 7.91614C3.18167 8.22494 3.34923 8.5379 3.45724 8.8287C3.90313 9.99189 4.18008 11.4722 4.39887 12.9428C4.29779 12.9068 4.1967 12.8653 4.08869 12.8237C4.43072 13.2212 4.77691 13.6407 5.10787 14.0742C5.29897 14.0105 5.55099 13.9551 5.88195 13.8858C6.71281 13.8332 7.24732 14.6253 7.30964 15.0656C7.39411 15.6486 7.27502 16.1762 6.98145 16.5113C6.93298 16.5667 6.88452 16.6166 6.82497 16.6581C7.04099 17.0348 7.25701 17.4114 7.47027 17.7853C7.47719 17.7825 7.48135 17.7784 7.48827 17.7756C7.67937 18.0166 7.8857 18.2783 8.09202 18.5539C8.24158 18.7602 8.39113 18.9637 8.54899 19.1659C9.15552 20.0009 9.71358 20.8387 9.92683 21.3164L9.9476 21.3621C11.2313 23.7467 11.5595 25.3046 10.9322 25.9928L10.9072 26.0205C10.8131 26.1354 10.7189 26.2365 10.622 26.3237C10.6109 26.8624 10.5375 27.39 10.388 27.9134C10.9391 27.7528 11.4514 27.3969 11.8987 26.8555C13.0148 25.6189 12.4706 23.6498 11.6896 21.941C11.8849 22.0365 12.0801 22.1196 12.2851 22.1819C12.8237 22.3633 13.3596 22.452 13.8762 22.452C14.581 22.452 15.2443 22.2872 15.8273 21.959C16.8465 21.3857 17.5721 20.3388 17.8753 18.9901C18.1509 17.6247 17.8864 16.5113 17.0874 15.6874C16.4989 15.0795 15.6653 14.6918 14.7029 14.4619ZM7.44396 12.1881C7.31933 12.4014 7.19332 12.6174 7.07838 12.8445C6.68373 12.6492 6.22675 12.5509 5.73101 12.5966L5.70609 12.5994C5.641 12.0344 5.51776 11.3919 5.38898 10.7175C5.17295 9.60693 4.93201 8.34957 4.92508 7.29577C4.92093 6.54108 5.4139 5.62298 6.09105 5.11201C6.42201 4.86413 6.94129 4.60657 7.55197 4.78382C8.52961 5.07046 8.83702 6.28628 8.49499 8.51713C8.3939 9.34106 8.28451 10.1941 8.09341 10.8754C7.9397 11.3365 7.69875 11.7478 7.44396 12.1881ZM9.0392 12.7434C9.12644 12.6589 9.2026 12.5828 9.27322 12.5122C10.0265 11.7575 10.7411 11.0457 11.6592 10.4309C13.53 9.18458 15.2498 8.87716 16.7495 9.50584C17.1373 9.68725 17.597 9.97389 17.6081 10.3118C17.6261 10.9834 16.2926 12.1674 14.3636 13.2004C13.1949 13.7141 11.6966 13.9301 10.2522 14.1392C9.63465 14.2306 9.04612 14.3179 8.47699 14.4231C8.39252 14.1891 8.27343 13.962 8.12387 13.7487C8.32051 13.4386 8.82595 12.9497 9.0392 12.7434ZM16.6069 18.7214C16.384 19.7032 15.8951 20.433 15.1903 20.8276C14.4924 21.2223 13.6283 21.2638 12.6825 20.9495C11.5165 20.5798 10.435 19.4927 9.52802 18.3129C9.42278 18.1661 9.31477 18.0235 9.20676 17.8795C8.91042 17.471 8.63485 17.0597 8.38698 16.6678C8.50884 16.3853 8.585 16.0751 8.61408 15.747C12.3612 15.1917 15.0961 15.4922 16.1541 16.5917C16.6457 17.0971 16.7925 17.8005 16.6069 18.7214Z" fill="#D5D7CC"/>
<path d="M62.5338 37.2638C62.6031 37.2361 62.6737 37.2112 62.7416 37.1807L62.7831 37.1599C64.6096 36.185 66.7768 34.6867 66.7338 33.0846C66.7131 32.2786 66.173 31.6237 65.1067 31.1265C63.1861 30.3164 60.9954 30.6723 58.7715 32.1568C58.2425 32.5099 57.7772 32.8907 57.3438 33.284C57.4573 32.6982 57.5376 32.0889 57.611 31.4976C58.0597 28.5744 57.4338 26.8407 55.7485 26.345C54.872 26.0874 53.947 26.2771 53.1452 26.8809C52.3143 27.5054 51.7009 28.5301 51.5222 29.5202C50.8797 28.7281 50.0281 28.015 49.1003 27.6951C48.2168 27.3904 47.3555 27.4652 46.6105 27.9139C45.5692 28.4539 45.1967 29.8415 45.1967 30.9673L45.2008 31.031C45.3199 32.2205 45.8904 32.9779 46.4942 33.7797L46.6299 33.9597C46.9885 34.4209 47.3334 34.7698 47.6879 35.0537C47.5591 35.0606 47.4331 35.0675 47.3126 35.0772C46.0054 35.17 41.7417 35.6879 41.7417 38.4256L41.7445 38.4907C41.8788 39.8325 42.8218 40.8392 44.2066 41.1162C44.4849 41.1729 44.7466 41.1965 44.9987 41.1965C45.4432 41.1965 45.8503 41.1189 46.2532 40.9985C46.2172 41.0331 46.1799 41.0663 46.1438 41.1023L46.1106 41.1383C45.4875 41.8653 43.4976 44.3524 44.039 45.8077C44.1484 46.1013 44.46 46.6137 45.313 46.7424C45.5166 46.7743 45.7173 46.7895 45.914 46.7895C47.0993 46.7895 48.1628 46.2384 49.0712 45.5156C48.7652 46.5458 48.5284 47.4639 49.0255 48.8293C49.3773 49.7114 50.0336 51.3537 51.8394 51.5046C51.9321 51.5129 52.0235 51.5171 52.1108 51.5171C53.5994 51.5171 54.3859 50.3941 54.8277 49.1007C55.2569 49.7848 55.8745 50.3511 56.5669 50.6267C56.891 50.7555 57.215 50.8192 57.5349 50.8192C58.3353 50.8192 59.1024 50.4218 59.7297 49.6615C60.8444 48.4249 60.3016 46.453 59.5192 44.747C59.7145 44.8398 59.9111 44.9229 60.1147 44.988C60.6547 45.168 61.192 45.2566 61.7085 45.2566C62.412 45.2566 63.0767 45.0918 63.6583 44.7636C64.6761 44.1903 65.4017 43.1421 65.7077 41.7961C65.9805 40.4279 65.716 39.3174 64.9184 38.4934C64.3299 37.8828 63.4963 37.495 62.5338 37.2638ZM52.4043 39.2121C52.1717 38.9172 52.1052 38.4713 52.2077 37.8883C52.3614 37.0104 52.522 36.9356 53.7129 36.6905C54.5438 36.6365 55.0769 37.4286 55.1406 37.8689C55.2237 38.4505 55.1046 38.9781 54.8124 39.3132C54.577 39.586 54.2308 39.7286 53.8099 39.7286C53.7642 39.7286 53.7157 39.7273 53.6645 39.7245C53.0621 39.6843 52.6384 39.5112 52.4043 39.2121ZM59.4888 33.2355C61.361 31.9865 63.0808 31.6804 64.5805 32.3119C64.9669 32.4919 65.428 32.7772 65.4377 33.1178C65.4557 33.7866 64.1222 34.972 62.1932 36.005C61.0258 36.5188 59.5303 36.7348 58.0832 36.9453C57.4656 37.0339 56.8757 37.1211 56.308 37.2278C56.2249 36.9951 56.1058 36.7666 55.9549 36.5534C56.1501 36.2446 56.6555 35.753 56.8702 35.5453C56.9547 35.4622 57.035 35.386 57.1042 35.3154C57.8589 34.5607 58.5707 33.849 59.4888 33.2355ZM53.9234 27.9167C54.253 27.6688 54.775 27.4085 55.383 27.5885C56.3592 27.8765 56.6694 29.0909 56.326 31.3232C56.2235 32.1471 56.1169 33.0001 55.923 33.68C55.7707 34.1398 55.5297 34.5538 55.2749 34.9914C55.1503 35.2033 55.0257 35.422 54.908 35.6464C54.5133 35.4525 54.0577 35.3528 53.562 35.4013L53.5398 35.404C53.4734 34.8391 53.3501 34.1938 53.22 33.5222C53.0053 32.4116 52.763 31.1528 52.7575 30.099C52.7533 29.3443 53.2435 28.4276 53.9234 27.9167ZM47.5286 32.9973C46.9816 32.2717 46.5828 31.7427 46.4928 30.934C46.4997 30.1946 46.7254 29.3056 47.2143 29.0605L47.2627 29.0328C47.6851 28.7752 48.1476 28.7378 48.678 28.9206C49.8245 29.3166 50.9046 30.6072 51.2882 31.632C51.7355 32.7952 52.0097 34.2755 52.2285 35.7475C51.9294 35.6408 51.6012 35.4927 51.2813 35.3473C50.7994 35.1299 50.3023 34.9055 49.8273 34.7809C48.8026 34.3669 48.2902 33.9847 47.6588 33.1704L47.5286 32.9973ZM44.46 39.8436C43.643 39.6802 43.1265 39.1526 43.0364 38.3951C43.078 37.0408 45.7935 36.4855 47.4026 36.3706C48.4509 36.2944 49.7885 36.2958 51.1442 36.8871C51.0556 37.1073 50.9836 37.3621 50.931 37.6654C50.9074 37.7983 50.8936 37.9229 50.8825 38.0448C50.7994 38.0614 50.7122 38.0766 50.6443 38.0905C50.3812 38.1389 50.132 38.1846 49.9602 38.2428L49.9021 38.265C48.9577 38.6845 47.9856 39.01 47.0439 39.3229L46.9055 39.3783C45.914 39.7757 45.3158 40.0139 44.46 39.8436ZM45.5082 45.4602C45.4709 45.4532 45.2784 45.4214 45.2534 45.3535C45.0845 44.9021 45.9361 43.3387 47.0758 42.0024C47.6075 41.4762 48.2141 41.1134 48.8566 40.7284C49.0463 40.6149 49.2374 40.5 49.4063 40.3947C49.6321 40.2645 49.8675 40.1178 50.107 39.9668C50.4214 39.7688 50.7426 39.568 51.0459 39.4088C51.1414 39.6608 51.2647 39.8616 51.3852 40.0139C51.4641 40.1164 51.5638 40.223 51.6857 40.3282C51.6704 40.3587 51.6538 40.3892 51.6372 40.421C51.0833 41.346 50.4214 42.3334 49.9229 42.8319L49.8868 42.872C48.7472 44.218 47.2198 45.726 45.5082 45.4602ZM54.109 46.0542C53.8597 48.1355 53.4637 50.3456 51.9474 50.2113C51.0985 50.1406 50.6886 49.5009 50.2344 48.3654C49.8716 47.3684 50.0503 46.7618 50.348 45.7648C50.7246 44.7345 51.0667 44.1654 51.6303 43.2265L51.759 43.0133C51.9335 42.7682 52.1371 42.3555 52.4445 41.7172C52.54 41.5205 52.6578 41.2768 52.7671 41.0594C52.8004 41.0054 52.8295 40.9555 52.8585 40.9057C53.0732 40.9597 53.3072 40.9999 53.5745 41.0179C53.5966 41.0192 53.6188 41.0192 53.6409 41.0206C53.8403 41.9373 54.0924 43.7403 54.1865 45.2497C54.1796 45.3605 54.1782 45.474 54.1671 45.582C54.1478 45.7247 54.1297 45.8839 54.109 46.0542ZM58.7604 48.7974L58.7368 48.8251C58.2162 49.4607 57.647 49.6601 57.0447 49.4206C56.1695 49.073 55.4342 47.9126 55.5007 46.9848C55.5339 46.514 55.5256 45.9227 55.4882 45.2857C55.5339 44.405 55.4453 43.4744 55.347 42.5854C55.3248 42.2738 55.1379 41.5288 54.9371 40.7949C55.07 40.7354 55.1974 40.6634 55.3179 40.5817C55.509 40.8198 55.7139 41.0829 55.9216 41.3571C56.0698 41.5635 56.2221 41.7684 56.3786 41.9706C56.9851 42.8042 57.5418 43.642 57.755 44.1211L57.7772 44.1654C59.0595 46.55 59.3904 48.1092 58.7604 48.7974ZM64.4393 41.5247C64.2149 42.5065 63.7261 43.2362 63.0213 43.6323C62.3234 44.0256 61.4593 44.0685 60.5135 43.7528C59.3489 43.3844 58.266 42.2974 57.3604 41.1176C57.2524 40.9708 57.1458 40.8268 57.0391 40.6855C56.7414 40.2756 56.4658 39.863 56.218 39.4725C56.3384 39.1886 56.4146 38.8798 56.4451 38.5516C60.1908 37.9963 62.9257 38.2982 63.9851 39.3949C64.4753 39.9004 64.6221 40.6038 64.4393 41.5247Z" fill="#D5D7CC"/>
<path d="M29.6224 38.0904C29.6916 38.0627 29.7623 38.0378 29.8301 38.0074L29.8716 37.9866C31.6968 37.0117 33.8639 35.5134 33.8224 33.9112C33.8002 33.1053 33.2601 32.4503 32.1953 31.9532C30.2746 31.1431 28.0825 31.499 25.8586 32.9834C25.3296 33.3366 24.8644 33.7174 24.4309 34.1106C24.5459 33.5249 24.6248 32.9156 24.6996 32.3243C25.1482 29.4011 24.5223 27.6674 22.8371 27.1716C21.9591 26.9141 21.0355 27.1038 20.2323 27.7075C19.4015 28.332 18.7894 29.3568 18.6094 30.3469C17.9683 29.5548 17.1153 28.8416 16.1888 28.5218C15.304 28.2171 14.4441 28.2919 13.6977 28.7405C12.6563 29.2806 12.2852 30.6681 12.2852 31.7926L12.288 31.8576C12.4071 33.0471 12.9776 33.8046 13.5827 34.6064L13.7184 34.7864C14.0771 35.2475 14.4219 35.5965 14.775 35.8804C14.6476 35.8873 14.5216 35.8942 14.3997 35.9025C13.0925 35.9967 8.82886 36.5146 8.82886 39.2522L8.83163 39.3173C8.96595 40.6592 9.90897 41.6659 11.2937 41.9428C11.5734 41.9982 11.8352 42.0232 12.0858 42.0232C12.5303 42.0232 12.9388 41.9442 13.3418 41.8251C13.3044 41.8597 13.267 41.893 13.231 41.929L13.1978 41.965C12.5746 42.692 10.5847 45.179 11.1276 46.6344C11.237 46.928 11.5485 47.4403 12.4001 47.5691C12.6037 47.601 12.8045 47.6162 13.0025 47.6162C14.1879 47.6162 15.2514 47.0651 16.1598 46.3422C15.8524 47.3725 15.6169 48.2906 16.1127 49.6559C16.4644 50.538 17.1208 52.1804 18.9265 52.3313C19.0193 52.3396 19.1107 52.3438 19.1993 52.3438C20.6865 52.3438 21.4731 51.2207 21.9148 49.9274C22.3441 50.6114 22.9617 51.1778 23.6541 51.4534C23.9781 51.5821 24.3021 51.6458 24.622 51.6458C25.4224 51.6458 26.1896 51.2484 26.8169 50.4882C27.9316 49.2502 27.3874 47.2797 26.6064 45.5737C26.8016 45.6665 26.9983 45.7495 27.2018 45.8146C27.7419 45.9946 28.2792 46.0833 28.7957 46.0833C29.4978 46.0833 30.1638 45.9185 30.7454 45.5903C31.7632 45.017 32.4888 43.9687 32.7949 42.6241C33.0677 41.256 32.8032 40.144 32.0056 39.3201C31.417 38.7094 30.5848 38.3217 29.6224 38.0904ZM19.4929 40.0388C19.2602 39.7438 19.1938 39.2979 19.2962 38.715C19.45 37.8356 19.6106 37.7622 20.8015 37.5171C21.6323 37.4631 22.1655 38.2552 22.2292 38.6956C22.3122 39.2772 22.1932 39.8048 21.9024 40.1399C21.6656 40.4127 21.3194 40.5553 20.8984 40.5553C20.8527 40.5553 20.8042 40.5539 20.753 40.5512C20.1506 40.511 19.7269 40.3379 19.4929 40.0388ZM26.5773 34.0622C28.4481 32.8131 30.1694 32.5071 31.6691 33.1372C32.0554 33.3172 32.5165 33.6038 32.5262 33.9445C32.5442 34.6119 31.2107 35.7973 29.2817 36.8303C28.1144 37.3454 26.6188 37.5615 25.1704 37.7706C24.5542 37.8606 23.9629 37.9464 23.3965 38.053C23.3134 37.8204 23.1943 37.5919 23.0434 37.3787C23.2387 37.0699 23.7427 36.5797 23.9573 36.372C24.0432 36.2889 24.1221 36.2113 24.1928 36.1421C24.9474 35.3874 25.6592 34.6756 26.5773 34.0622ZM21.012 28.7433C21.3415 28.4941 21.8622 28.2351 22.4715 28.4151C23.4478 28.7032 23.7579 29.9162 23.4145 32.1484C23.3107 32.9738 23.2054 33.8268 23.0116 34.5067C22.8578 34.9664 22.6169 35.3805 22.3635 35.818C22.2389 36.0299 22.1142 36.2487 21.9965 36.473C21.6019 36.2792 21.1477 36.1795 20.6505 36.2279L20.6284 36.2307C20.5619 35.6643 20.4387 35.0204 20.3085 34.3488C20.0939 33.2382 19.8515 31.9795 19.846 30.9257C19.8418 30.171 20.332 29.2543 21.012 28.7433ZM14.6171 33.824C14.0688 33.0984 13.6714 32.5694 13.5813 31.7593C13.5883 31.0212 13.814 30.1308 14.3028 29.8871L14.3513 29.8594C14.7736 29.6019 15.2361 29.5645 15.7665 29.7473C16.9131 30.1433 17.9932 31.4339 18.3768 32.4586C18.824 33.6218 19.0982 35.1021 19.317 36.5741C19.0179 36.4675 18.6897 36.3179 18.3698 36.1739C17.8879 35.9565 17.3908 35.7322 16.9158 35.6076C15.8925 35.1935 15.3801 34.8113 14.7473 33.9971L14.6171 33.824ZM11.5485 40.6702C10.7315 40.5068 10.2136 39.9792 10.125 39.2218C10.1665 37.8675 12.882 37.3122 14.4911 37.1973C15.5394 37.1211 16.8771 37.1225 18.2328 37.7138C18.1441 37.934 18.0721 38.1888 18.0195 38.492C17.996 38.6236 17.9821 38.7496 17.971 38.8714C17.8879 38.8881 17.8007 38.9033 17.7329 38.9171C17.4697 38.9656 17.2205 39.0113 17.0474 39.0695L16.9892 39.0916C16.0462 39.5112 15.0727 39.8352 14.1325 40.1496L13.994 40.2036C13.0025 40.6024 12.4043 40.8406 11.5485 40.6702ZM12.5968 46.2868C12.5594 46.2799 12.3669 46.248 12.342 46.1802C12.173 45.7288 13.0233 44.1654 14.1643 42.8291C14.6961 42.3029 15.3026 41.9401 15.9451 41.5551C16.1348 41.4416 16.3259 41.3266 16.4963 41.2214C16.7206 41.0912 16.956 40.9444 17.1956 40.7935C17.5113 40.5955 17.8312 40.3947 18.1344 40.2354C18.23 40.4875 18.3532 40.6882 18.4737 40.8406C18.5526 40.943 18.6523 41.0497 18.7742 41.1549C18.759 41.1854 18.7423 41.2158 18.7271 41.2477C18.1718 42.1713 17.5099 43.16 17.0114 43.6586L16.9754 43.6987C15.8357 45.0447 14.3083 46.5527 12.5968 46.2868ZM21.1975 46.8809C20.9483 48.9622 20.5522 51.1723 19.0359 51.0379C18.1871 50.9673 17.7772 50.3275 17.323 49.192C16.9602 48.195 17.1388 47.5885 17.4365 46.5915C17.8118 45.5612 18.1552 44.9921 18.7188 44.0532L18.8476 43.84C19.0221 43.5949 19.2256 43.1822 19.533 42.5438C19.6286 42.3472 19.7463 42.1035 19.8557 41.8847C19.8889 41.8321 19.918 41.7822 19.9471 41.7324C20.1617 41.7864 20.3957 41.8265 20.663 41.8445C20.6852 41.8459 20.7073 41.8459 20.7295 41.8473C20.9289 42.764 21.1809 44.567 21.2751 46.0763C21.2681 46.1871 21.2668 46.3021 21.2557 46.4087C21.2363 46.5513 21.2169 46.7106 21.1975 46.8809ZM25.8489 49.6241L25.824 49.6518C25.3047 50.2874 24.7356 50.4868 24.1318 50.2472C23.258 49.8997 22.5227 48.7392 22.5892 47.8114C22.6224 47.3392 22.6141 46.7493 22.5767 46.1123C22.6224 45.2316 22.5338 44.3011 22.4355 43.4121C22.4133 43.0991 22.2264 42.3555 22.0256 41.6216C22.1585 41.562 22.2846 41.4886 22.405 41.4083C22.5975 41.6465 22.8025 41.9096 23.0102 42.1838C23.157 42.3901 23.3107 42.5937 23.4658 42.7958C24.0737 43.6309 24.6303 44.4686 24.8422 44.9478L24.8644 44.9921C26.148 47.3766 26.479 48.9359 25.8489 49.6241ZM31.5264 42.3513C31.3035 43.3331 30.8133 44.0629 30.1098 44.4589C29.4119 44.8522 28.5478 44.8951 27.6006 44.5794C26.4374 44.2111 25.3546 43.124 24.4475 41.9442C24.3409 41.7974 24.2329 41.6534 24.1277 41.5122C23.8299 41.1009 23.5544 40.6896 23.3051 40.2991C23.427 40.0153 23.5031 39.7064 23.5322 39.3783C27.2794 38.823 30.0143 39.1249 31.0736 40.2216C31.5638 40.727 31.7106 41.4291 31.5264 42.3513Z" fill="#D5D7CC"/>
<mask id="mask2_968_3903" style="mask-type:luminance" maskUnits="userSpaceOnUse" x="161" y="0" width="25" height="25">
<path d="M161.069 0.510742H185.175V24.2109H161.069V0.510742Z" fill="white"/>
</mask>
<g mask="url(#mask2_968_3903)">
<path d="M183.984 13.205C183.98 13.421 183.956 13.6481 183.907 13.8932C183.684 14.8778 183.195 15.6034 182.49 16.0022C181.792 16.3941 180.931 16.4384 179.982 16.1213C178.819 15.7543 177.735 14.6645 176.83 13.4875C176.722 13.3407 176.614 13.1939 176.509 13.0541C176.21 12.6428 175.935 12.2315 175.687 11.8424C175.808 11.5599 175.885 11.2497 175.914 10.9215C179.315 10.4189 181.883 10.6183 183.123 11.4837C182.903 10.9381 182.738 10.3898 182.644 9.82065C182.439 9.74726 182.221 9.68494 182.003 9.63232C182.072 9.60463 182.145 9.5797 182.212 9.54924L182.253 9.53123C182.361 9.47169 182.469 9.41214 182.581 9.34983C182.533 8.86101 182.533 8.35834 182.595 7.83352C182.306 8.01908 181.991 8.19771 181.663 8.37496C180.495 8.88871 179.002 9.10473 177.553 9.31521C176.936 9.40245 176.346 9.48969 175.778 9.5977C175.698 9.36368 175.574 9.13658 175.425 8.92333C175.62 8.61314 176.126 8.12432 176.339 7.91384C176.426 7.83075 176.506 7.75459 176.576 7.68397C177.329 6.92927 178.042 6.21751 178.959 5.60544C180.666 4.4644 182.246 4.11129 183.649 4.5378C183.841 4.20545 184.078 3.83849 184.386 3.42445C182.508 2.7113 180.389 3.09211 178.242 4.52672C177.71 4.87983 177.246 5.26064 176.814 5.65253C176.929 5.06954 177.005 4.45748 177.08 3.86757C177.296 2.47035 177.264 1.34593 176.988 0.49707H175.568C175.958 1.09806 176.031 2.15324 175.795 3.69309C175.694 4.51702 175.586 5.36865 175.393 6.04995C175.239 6.51108 175 6.92373 174.744 7.35993C174.619 7.57319 174.497 7.79336 174.378 8.01631C173.983 7.82383 173.526 7.72274 173.031 7.77121L173.01 7.77536C172.943 7.21038 172.819 6.5637 172.69 5.89347C172.477 4.7829 172.233 3.52138 172.229 2.47035C172.226 1.81121 172.599 1.02466 173.15 0.498455H171.524C171.262 0.937423 171.077 1.41655 170.99 1.89152C170.557 1.36116 170.034 0.865416 169.455 0.498455H165.757C164.96 1.12714 164.668 2.3388 164.668 3.33721V3.40091C164.79 4.59042 165.358 5.34926 165.961 6.14827L166.099 6.32967C166.457 6.7908 166.802 7.13976 167.155 7.42225C167.029 7.43056 166.9 7.43609 166.778 7.44717C165.474 7.53857 161.209 8.05924 161.209 10.7969L161.213 10.8592C161.346 12.2038 162.29 13.2092 163.677 13.4861C163.955 13.5415 164.218 13.5664 164.465 13.5664C164.912 13.5664 165.319 13.4889 165.721 13.367C165.686 13.4016 165.649 13.4363 165.613 13.4709L165.578 13.5096C164.958 14.2366 162.965 16.7223 163.509 18.1791C163.617 18.4726 163.927 18.9864 164.783 19.1124C164.985 19.147 165.183 19.1608 165.383 19.1608C166.568 19.1608 167.633 18.6083 168.54 17.8855C168.234 18.9157 167.996 19.8338 168.491 21.1992C168.845 22.0799 169.5 23.725 171.307 23.8746C171.401 23.8815 171.492 23.8856 171.579 23.8856C173.065 23.8856 173.855 22.764 174.294 21.472C174.727 22.1533 175.34 22.7224 176.036 22.998C176.36 23.1282 176.684 23.1905 177.001 23.1905C177.804 23.1905 178.571 22.7931 179.196 22.0314C180.313 20.7949 179.769 18.8216 178.987 17.1169C179.182 17.2125 179.381 17.2928 179.583 17.3579C180.123 17.5365 180.658 17.6279 181.177 17.6279C181.879 17.6279 182.543 17.4631 183.124 17.1349C183.979 16.6489 184.628 15.836 184.995 14.7919C184.625 14.2491 184.287 13.7243 183.984 13.205ZM167.127 5.53898L166.999 5.36865C166.45 4.64165 166.053 4.11129 165.961 3.30398C165.968 2.56451 166.195 1.67273 166.684 1.42901L166.733 1.40132C167.155 1.14652 167.615 1.10775 168.147 1.28915C169.293 1.68796 170.372 2.97579 170.76 3.99912C171.206 5.16509 171.478 6.64678 171.697 8.11601C171.398 8.008 171.07 7.86122 170.749 7.71859C170.267 7.49841 169.771 7.27546 169.297 7.14945C168.271 6.73679 167.759 6.35321 167.127 5.53898ZM163.927 12.2135C163.112 12.0487 162.595 11.5211 162.508 10.7637C162.547 9.40938 165.264 8.85409 166.873 8.73777C167.918 8.66438 169.259 8.66438 170.613 9.25567C170.526 9.47446 170.452 9.73064 170.4 10.0339C170.375 10.1668 170.362 10.2929 170.351 10.4147C170.267 10.4313 170.181 10.4466 170.114 10.4604C169.848 10.5089 169.601 10.5546 169.43 10.6141L169.371 10.6349C168.429 11.0531 167.456 11.3785 166.513 11.6928L166.377 11.7482C165.383 12.1429 164.786 12.3838 163.927 12.2135ZM169.357 15.2406C168.216 16.588 166.687 18.0932 164.978 17.8287C164.94 17.8204 164.747 17.7899 164.724 17.7235C164.556 17.2693 165.403 15.7086 166.544 14.371C167.079 13.8434 167.683 13.4806 168.324 13.0956C168.516 12.9848 168.709 12.8699 168.875 12.7646C169.102 12.6359 169.336 12.4849 169.577 12.3354C169.891 12.1401 170.211 11.9379 170.515 11.7801C170.61 12.0307 170.735 12.2301 170.854 12.3838C170.933 12.4849 171.031 12.5929 171.154 12.6982C171.139 12.7286 171.122 12.7577 171.109 12.7882C170.553 13.7132 169.891 14.7019 169.392 15.2018L169.357 15.2406ZM173.639 17.9506C173.618 18.0932 173.6 18.2538 173.579 18.4214C173.331 20.5027 172.934 22.7141 171.416 22.5812C170.567 22.5078 170.156 21.868 169.703 20.7339C169.343 19.7397 169.518 19.1318 169.818 18.132C170.195 17.1059 170.537 16.5367 171.102 15.5965L171.228 15.3846C171.406 15.1395 171.607 14.7241 171.915 14.0885C172.009 13.8891 172.128 13.6454 172.236 13.4279C172.27 13.3767 172.298 13.3241 172.33 13.2756C172.543 13.3269 172.777 13.3698 173.045 13.3864C173.067 13.3906 173.087 13.3906 173.111 13.3906C173.31 14.3087 173.561 16.1102 173.655 17.6196C173.648 17.7304 173.648 17.8453 173.639 17.9506ZM174.284 11.6818C174.046 11.9546 173.701 12.0972 173.279 12.0972C173.233 12.0972 173.184 12.0972 173.132 12.0944C172.532 12.0529 172.107 11.8812 171.873 11.5807C171.642 11.2871 171.575 10.8398 171.678 10.2568C171.83 9.3803 171.992 9.30413 173.182 9.05903C174.015 9.00641 174.546 9.79988 174.608 10.2361C174.692 10.8191 174.573 11.3467 174.284 11.6818ZM178.23 21.1674L178.206 21.1951C177.686 21.8307 177.117 22.0287 176.513 21.7891C175.641 21.4429 174.904 20.2797 174.971 19.3533C175.003 18.8825 174.996 18.2926 174.957 17.6542C175.003 16.7735 174.915 15.8443 174.818 14.9539C174.793 14.6438 174.608 13.9001 174.406 13.1621C174.541 13.1025 174.669 13.0333 174.787 12.9488C174.978 13.187 175.184 13.4515 175.393 13.7243C175.54 13.9306 175.689 14.1369 175.847 14.3391C176.454 15.1741 177.012 16.0119 177.225 16.4896L177.246 16.5326C178.53 18.9213 178.862 20.4791 178.23 21.1674Z" fill="#D5D7CC"/>
</g>
<path d="M184.622 44.3644C184.258 43.366 184.437 42.7622 184.737 41.7624C184.765 41.6863 184.793 41.6129 184.818 41.5423C184.354 41.0299 183.858 40.4566 183.379 39.8487C182.385 40.8402 181.192 41.6614 179.898 41.4592C179.859 41.4523 179.668 41.4204 179.643 41.3512C179.471 40.8997 180.323 39.3391 181.464 38.0014C181.583 37.8837 181.709 37.7716 181.833 37.6705C181.75 37.5306 181.67 37.3908 181.59 37.2509C181.28 36.7067 180.968 36.1611 180.662 35.6238C180.013 35.8648 179.507 35.9769 178.847 35.844C178.03 35.6792 177.514 35.1516 177.423 34.3941C177.445 33.6755 178.219 33.1825 179.182 32.8612C178.991 32.4624 178.805 32.0691 178.637 31.6772C177.323 32.1494 176.13 32.9734 176.13 34.4218L176.132 34.4883C176.265 35.8301 177.208 36.8355 178.593 37.1152C178.871 37.1706 179.133 37.1955 179.385 37.1955C179.831 37.1955 180.24 37.1152 180.641 36.9961C180.602 37.0307 180.568 37.0626 180.529 37.1013L180.497 37.136C179.873 37.8657 177.884 40.3486 178.426 41.8054C178.538 42.0989 178.847 42.6113 179.698 42.7415C179.904 42.7719 180.104 42.7872 180.302 42.7872C181.484 42.7872 182.549 42.2388 183.456 41.5146C183.153 42.5421 182.915 43.4629 183.411 44.8255C183.603 45.3102 183.89 46.0206 184.406 46.5925C184.712 46.2823 185.023 45.9666 185.316 45.6675C185.059 45.3559 184.845 44.9238 184.622 44.3644Z" fill="#D5D7CC"/>
<path d="M149.938 13.3877C150.008 13.3586 150.078 13.3337 150.146 13.3032L150.188 13.2825C152.014 12.309 154.181 10.8107 154.138 9.20713C154.116 8.4012 153.576 7.74621 152.511 7.24909C150.591 6.439 148.4 6.79488 146.176 8.27935C145.647 8.63246 145.18 9.01327 144.747 9.40654C144.862 8.82079 144.942 8.21149 145.015 7.6202C145.464 4.69698 144.838 2.96326 143.153 2.46751C142.276 2.20995 141.351 2.39966 140.548 3.00342C139.717 3.62794 139.105 4.65405 138.925 5.64415C138.284 4.85068 137.431 4.13753 136.505 3.81765C135.62 3.51301 134.76 3.58917 134.014 4.03645C132.974 4.5765 132.601 5.96403 132.601 7.08984L132.604 7.15492C132.723 8.34304 133.295 9.10051 133.899 9.90228L134.034 10.0823C134.393 10.5448 134.738 10.8924 135.092 11.1776C134.964 11.1832 134.838 11.1901 134.716 11.1998C133.408 11.2926 129.145 11.8105 129.145 14.5481L129.149 14.6132C129.282 15.9564 130.226 16.9618 131.611 17.2387C131.891 17.2955 132.152 17.3204 132.403 17.3204C132.848 17.3204 133.255 17.2401 133.658 17.121C133.622 17.157 133.584 17.1889 133.548 17.2249L133.514 17.2623C132.891 17.9893 130.902 20.4735 131.443 21.9303C131.553 22.2252 131.864 22.7376 132.716 22.865C132.921 22.8969 133.12 22.9121 133.318 22.9121C134.504 22.9121 135.567 22.361 136.476 21.6381C136.168 22.6684 135.933 23.5879 136.429 24.9518C136.782 25.8339 137.438 27.4763 139.242 27.6272C139.337 27.6355 139.427 27.6397 139.515 27.6397C141.004 27.6397 141.79 26.5166 142.231 25.2246C142.661 25.9073 143.278 26.4737 143.97 26.7506C144.294 26.878 144.618 26.9417 144.939 26.9417C145.74 26.9417 146.507 26.5443 147.134 25.7841C148.249 24.5461 147.706 22.5756 146.922 20.871C147.119 20.9623 147.316 21.0454 147.519 21.1105C148.059 21.2905 148.596 21.3792 149.113 21.3792C149.815 21.3792 150.48 21.2144 151.063 20.8862C152.079 20.3129 152.806 19.2646 153.112 17.92C153.385 16.5519 153.119 15.4399 152.323 14.616C151.734 14.0067 150.901 13.6176 149.938 13.3877ZM139.809 15.3361C139.576 15.0397 139.51 14.5938 139.612 14.0109C139.766 13.1329 139.927 13.0581 141.117 12.813C141.948 12.759 142.481 13.5525 142.545 13.9915C142.628 14.5745 142.509 15.1007 142.217 15.4372C141.981 15.7086 141.635 15.8526 141.216 15.8526C141.169 15.8526 141.12 15.8498 141.069 15.8471C140.467 15.8069 140.043 15.6352 139.809 15.3361ZM146.895 9.35807C148.765 8.10902 150.485 7.80299 151.985 8.43305C152.371 8.61446 152.832 8.89972 152.842 9.24175C152.86 9.90921 151.527 11.0946 149.598 12.1276C148.43 12.6413 146.935 12.8587 145.488 13.0678C144.87 13.1565 144.28 13.2437 143.712 13.3489C143.629 13.1163 143.51 12.8878 143.359 12.6746C143.555 12.3658 144.06 11.8756 144.275 11.6679C144.359 11.5848 144.439 11.5086 144.509 11.438C145.263 10.6833 145.977 9.97152 146.895 9.35807ZM141.328 4.03922C141.657 3.79134 142.178 3.53101 142.787 3.71241C143.764 3.99906 144.072 5.21349 143.73 7.44572C143.628 8.26965 143.521 9.12266 143.327 9.80258C143.174 10.2637 142.933 10.6764 142.679 11.1139C142.555 11.3272 142.43 11.5446 142.312 11.7703C141.918 11.5765 141.462 11.4768 140.965 11.5252L140.943 11.528C140.878 10.9616 140.753 10.3177 140.623 9.6461C140.41 8.53553 140.166 7.27678 140.161 6.22159C140.158 5.4669 140.649 4.55019 141.328 4.03922ZM134.933 9.12128C134.385 8.39428 133.987 7.8653 133.897 7.0566C133.904 6.31853 134.13 5.42674 134.619 5.18303L134.667 5.15533C135.09 4.89777 135.552 4.86176 136.082 5.04317C137.229 5.43921 138.309 6.7298 138.693 7.75452C139.14 8.91772 139.414 10.398 139.633 11.87C139.334 11.762 139.006 11.6138 138.686 11.4698C138.204 11.2524 137.705 11.0281 137.232 10.9035C136.207 10.4894 135.695 10.1058 135.063 9.29299L134.933 9.12128ZM131.864 15.9661C131.047 15.8027 130.531 15.2751 130.441 14.5177C130.482 13.1634 133.198 12.6081 134.808 12.4932C135.855 12.417 137.193 12.4198 138.549 13.0097C138.46 13.2299 138.388 13.4847 138.335 13.7879C138.312 13.9209 138.298 14.0469 138.287 14.1673C138.204 14.1853 138.117 14.2006 138.049 14.213C137.786 14.2615 137.538 14.3072 137.363 14.3654L137.307 14.3889C136.364 14.8071 135.39 15.1325 134.448 15.4469L134.31 15.5009C133.32 15.8983 132.72 16.1378 131.864 15.9661ZM132.913 21.5827C132.875 21.5772 132.683 21.5439 132.658 21.4761C132.489 21.0247 133.341 19.4627 134.48 18.125C135.012 17.5988 135.619 17.236 136.261 16.851C136.451 16.7375 136.642 16.6225 136.811 16.5173C137.037 16.3871 137.272 16.2403 137.511 16.0894C137.826 15.8914 138.147 15.6906 138.45 15.5327C138.545 15.7834 138.668 15.9841 138.788 16.1365C138.869 16.2389 138.968 16.3456 139.09 16.4508C139.073 16.4813 139.058 16.5117 139.042 16.5436C138.486 17.4672 137.824 18.4559 137.327 18.9544L137.29 18.9946C136.153 20.3406 134.624 21.8486 132.913 21.5827ZM141.513 22.1768C141.264 24.2581 140.868 26.4681 139.352 26.3338C138.503 26.2632 138.093 25.6234 137.639 24.4879C137.276 23.4909 137.455 22.8844 137.754 21.8874C138.129 20.8585 138.471 20.2894 139.036 19.3491L139.164 19.1372C139.339 18.8907 139.543 18.4781 139.849 17.8397C139.945 17.6431 140.062 17.3994 140.173 17.182C140.205 17.1293 140.234 17.0781 140.263 17.0296C140.479 17.0823 140.713 17.1238 140.98 17.1418C141.002 17.1418 141.023 17.1418 141.045 17.1432C141.245 18.0599 141.497 19.8642 141.591 21.3736C141.584 21.4844 141.583 21.598 141.572 21.706C141.552 21.8486 141.534 22.0065 141.513 22.1768ZM146.165 24.92L146.14 24.9477C145.622 25.5833 145.051 25.7841 144.448 25.5431C143.575 25.1969 142.839 24.0351 142.905 23.1073C142.938 22.6365 142.93 22.0452 142.893 21.4082C142.938 20.5275 142.85 19.597 142.751 18.708C142.729 18.3964 142.542 17.6514 142.342 16.9175C142.474 16.8579 142.602 16.7845 142.722 16.7042C142.913 16.9424 143.118 17.2041 143.327 17.4783C143.474 17.686 143.627 17.8896 143.783 18.0917C144.391 18.9268 144.948 19.7645 145.16 20.2437L145.182 20.288C146.464 22.6739 146.795 24.2318 146.165 24.92ZM151.844 17.6472C151.619 18.629 151.131 19.3574 150.426 19.7548C149.728 20.1481 148.864 20.191 147.918 19.8753C146.753 19.5084 145.67 18.4199 144.765 17.2401C144.657 17.0933 144.55 16.9493 144.444 16.8081C144.146 16.3982 143.87 15.9855 143.622 15.5964C143.743 15.3125 143.82 15.0023 143.85 14.6742C147.595 14.1189 150.33 14.4194 151.39 15.5161C151.88 16.0243 152.027 16.7264 151.844 17.6472Z" fill="#D5D7CC"/>
<path d="M164.858 37.0166C164.927 36.9889 164.998 36.9626 165.065 36.9335L165.107 36.9128C166.932 35.9379 169.101 34.4396 169.058 32.836C169.036 32.0301 168.496 31.3751 167.431 30.878C165.51 30.0693 163.318 30.4252 161.094 31.9096C160.566 32.2627 160.1 32.6436 159.668 33.0354C159.783 32.4511 159.862 31.8404 159.935 31.2505C160.384 28.3273 159.756 26.5935 158.072 26.0978C157.194 25.8389 156.271 26.0286 155.468 26.6323C154.637 27.2582 154.025 28.283 153.845 29.2731C153.202 28.4796 152.351 27.7678 151.424 27.4479C150.539 27.1433 149.679 27.2181 148.933 27.6653C147.892 28.2054 147.521 29.5943 147.521 30.7187L147.523 30.7838C147.642 31.9733 148.214 32.7308 148.818 33.5326L148.954 33.7112C149.312 34.1737 149.657 34.5227 150.01 34.8065C149.883 34.8135 149.757 34.8204 149.635 34.8287C148.329 34.9215 144.064 35.4394 144.064 38.1784L144.068 38.2421C144.203 39.5853 145.146 40.5907 146.53 40.8676C146.809 40.9244 147.071 40.9493 147.321 40.9493C147.766 40.9493 148.174 40.8704 148.577 40.7499C148.54 40.7845 148.502 40.8178 148.466 40.8552L148.433 40.8912C147.81 41.6182 145.821 44.1038 146.363 45.5592C146.472 45.8542 146.784 46.3665 147.636 46.4939C147.84 46.5271 148.04 46.5424 148.238 46.5424C149.423 46.541 150.487 45.9912 151.395 45.2684C151.088 46.2973 150.851 47.2168 151.348 48.5807C151.701 49.4628 152.356 51.1052 154.162 51.2561C154.255 51.2644 154.346 51.2686 154.435 51.2686C155.922 51.2686 156.708 50.1455 157.15 48.8535C157.579 49.5362 158.197 50.104 158.889 50.3795C159.213 50.5083 159.537 50.5706 159.859 50.5706C160.658 50.5706 161.426 50.1746 162.054 49.413C163.168 48.1764 162.624 46.2059 161.842 44.4999C162.037 44.5926 162.235 44.6757 162.439 44.7394C162.979 44.9194 163.515 45.0094 164.032 45.0094C164.734 45.0094 165.399 44.8433 165.982 44.5151C166.999 43.9418 167.726 42.8949 168.03 41.5489C168.304 40.1808 168.039 39.0688 167.242 38.2449C166.652 37.6356 165.82 37.2479 164.858 37.0166ZM154.727 38.965C154.494 38.6686 154.429 38.2227 154.53 37.6411C154.685 36.7618 154.846 36.6884 156.037 36.4419C156.868 36.3879 157.401 37.1814 157.463 37.6204C157.546 38.2034 157.427 38.731 157.136 39.0661C156.901 39.3375 156.555 39.4815 156.134 39.4815C156.087 39.4815 156.04 39.4801 155.988 39.476C155.386 39.4358 154.962 39.2641 154.727 38.965ZM161.813 32.9884C163.683 31.7393 165.405 31.4319 166.904 32.0633C167.289 32.2434 167.752 32.53 167.762 32.8707C167.78 33.5381 166.446 34.7235 164.517 35.7565C163.35 36.2702 161.853 36.4876 160.406 36.6967C159.79 36.7868 159.198 36.8726 158.632 36.9792C158.549 36.7466 158.43 36.5181 158.279 36.3049C158.473 35.9961 158.978 35.5045 159.193 35.2981C159.279 35.2151 159.357 35.1375 159.428 35.0683C160.183 34.3136 160.895 33.6004 161.813 32.9884ZM156.247 27.6695C156.577 27.4202 157.098 27.1613 157.707 27.3413C158.683 27.628 158.992 28.8424 158.65 31.0746C158.546 31.8986 158.439 32.7516 158.246 33.4315C158.093 33.8926 157.852 34.3053 157.597 34.7428C157.474 34.9561 157.348 35.1749 157.232 35.3992C156.836 35.2054 156.382 35.1057 155.885 35.1541L155.862 35.1569C155.796 34.5905 155.673 33.9466 155.542 33.275C155.328 32.1644 155.086 30.9057 155.08 29.8505C155.077 29.0972 155.567 28.1805 156.247 27.6695ZM149.852 32.7502C149.304 32.0232 148.905 31.4942 148.817 30.6855C148.822 29.9474 149.049 29.057 149.538 28.8119L149.585 28.7856C150.008 28.5267 150.471 28.4907 151 28.6735C152.147 29.0695 153.229 30.3587 153.612 31.3834C154.058 32.5466 154.332 34.0283 154.552 35.4989C154.253 35.3923 153.925 35.2441 153.604 35.1001C153.122 34.8813 152.625 34.6584 152.15 34.5324C151.126 34.1183 150.614 33.7361 149.983 32.9233L149.852 32.7502ZM146.782 39.5964C145.965 39.4316 145.449 38.9054 145.36 38.1466C145.401 36.7923 148.117 36.237 149.726 36.1221C150.775 36.0473 152.112 36.0487 153.468 36.64C153.379 36.8588 153.307 37.1149 153.253 37.4168C153.23 37.5498 153.217 37.6758 153.206 37.7976C153.123 37.8129 153.036 37.8295 152.968 37.8419C152.705 37.8918 152.456 37.9375 152.283 37.9943L152.225 38.0178C151.282 38.4374 150.308 38.7628 149.368 39.0758L149.229 39.1298C148.238 39.5272 147.64 39.7668 146.782 39.5964ZM147.832 45.2116C147.793 45.2061 147.601 45.1742 147.576 45.1064C147.408 44.6536 148.259 43.0916 149.4 41.7539C149.931 41.2277 150.537 40.8649 151.179 40.4813C151.369 40.3677 151.56 40.2528 151.73 40.1462C151.956 40.0174 152.191 39.8692 152.43 39.7183C152.745 39.5216 153.067 39.3195 153.368 39.1616C153.465 39.4123 153.587 39.613 153.708 39.7668C153.787 39.8678 153.888 39.9745 154.01 40.0811C153.993 40.1116 153.978 40.1406 153.961 40.1725C153.406 41.0975 152.744 42.0848 152.247 42.5834L152.209 42.6235C151.071 43.9709 149.544 45.4775 147.832 45.2116ZM156.433 45.8057C156.184 47.887 155.788 50.0971 154.271 49.9627C153.422 49.8921 153.011 49.2537 152.558 48.1182C152.196 47.1212 152.374 46.5133 152.672 45.5163C153.047 44.4874 153.391 43.9183 153.954 42.9794L154.083 42.7661C154.257 42.521 154.461 42.107 154.768 41.47C154.863 41.272 154.982 41.0283 155.091 40.8109C155.123 40.7582 155.153 40.707 155.182 40.6585C155.397 40.7112 155.631 40.7527 155.898 40.7707C155.921 40.7721 155.943 40.7707 155.965 40.7721C156.163 41.6902 156.415 43.4931 156.51 45.0025C156.503 45.1133 156.502 45.2269 156.49 45.3349C156.472 45.4775 156.452 45.6354 156.433 45.8057ZM161.084 48.5503L161.059 48.578C160.54 49.2122 159.971 49.413 159.367 49.172C158.493 48.8258 157.758 47.664 157.825 46.7362C157.858 46.2654 157.848 45.6741 157.812 45.0371C157.858 44.1578 157.769 43.2259 157.671 42.3382C157.649 42.0253 157.462 41.2817 157.261 40.5478C157.394 40.4868 157.521 40.4148 157.64 40.3331C157.833 40.5713 158.038 40.8344 158.246 41.1086C158.392 41.3163 158.546 41.5199 158.702 41.722C159.309 42.5557 159.866 43.3948 160.078 43.8739L160.1 43.9169C161.383 46.3028 161.714 47.8621 161.084 48.5503ZM166.762 41.2761C166.539 42.2579 166.049 42.9877 165.345 43.3837C164.647 43.777 163.783 43.8199 162.836 43.5056C161.673 43.1373 160.59 42.0488 159.684 40.869C159.576 40.7222 159.468 40.5782 159.363 40.4384C159.065 40.0271 158.79 39.6144 158.54 39.2239C158.662 38.9414 158.738 38.6313 158.769 38.3031C162.515 37.7478 165.25 38.0483 166.309 39.145C166.799 39.6532 166.946 40.3553 166.762 41.2761Z" fill="#D5D7CC"/>
<path d="M115.923 12.3008C115.991 12.2731 116.063 12.2468 116.129 12.2177L116.172 12.1969C117.998 11.2221 120.165 9.72377 120.123 8.12022C120.101 7.31429 119.561 6.6593 118.495 6.16217C116.575 5.35347 114.383 5.70797 112.159 7.19381C111.63 7.54693 111.165 7.92773 110.732 8.31962C110.847 7.73387 110.926 7.12457 110.999 6.53467C111.449 3.61144 110.822 1.87634 109.138 1.38198C108.26 1.12303 107.335 1.31274 106.533 1.9165C105.702 2.54241 105.09 3.56713 104.91 4.55723C104.268 3.76377 103.416 3.052 102.488 2.73212C101.605 2.42747 100.743 2.50225 99.9984 2.94953C98.9571 3.48958 98.586 4.8785 98.586 6.00292L98.5888 6.068C98.7079 7.25751 99.2784 8.01497 99.8835 8.81675L100.018 8.99538C100.378 9.45789 100.721 9.80685 101.076 10.0907C100.947 10.0977 100.822 10.1046 100.701 10.1129C99.3933 10.207 95.1296 10.7236 95.1296 13.4626L95.1338 13.5277C95.2667 14.8695 96.2097 15.8762 97.5959 16.1532C97.8742 16.2086 98.1359 16.2335 98.3866 16.2335C98.8311 16.2335 99.2396 16.1546 99.6426 16.0341C99.6052 16.0701 99.5692 16.1033 99.5318 16.1394L99.4986 16.1754C98.8754 16.9024 96.8855 19.388 97.4283 20.8434C97.5377 21.1383 97.8493 21.6507 98.7009 21.7781C98.9045 21.8113 99.1053 21.8266 99.3019 21.8266C100.487 21.8266 101.552 21.2754 102.459 20.5526C102.153 21.5815 101.916 22.5009 102.413 23.8663C102.765 24.7484 103.422 26.3893 105.227 26.5403C105.321 26.55 105.411 26.5527 105.5 26.5527C106.987 26.5527 107.774 25.4311 108.216 24.1377C108.645 24.8204 109.262 25.3882 109.955 25.6637C110.279 25.7925 110.603 25.8562 110.923 25.8562C111.723 25.8562 112.49 25.4588 113.118 24.6972C114.234 23.4606 113.69 21.4901 112.907 19.784C113.102 19.8768 113.3 19.9599 113.503 20.0236C114.043 20.2036 114.58 20.2936 115.096 20.2936C115.799 20.2936 116.465 20.1275 117.048 19.7993C118.064 19.226 118.791 18.1777 119.096 16.8331C119.368 15.465 119.104 14.353 118.308 13.5291C117.718 12.9198 116.886 12.5321 115.923 12.3008ZM105.792 14.2492C105.56 13.9528 105.493 13.5069 105.596 12.9253C105.749 12.046 105.911 11.9726 107.102 11.7261C107.932 11.6721 108.466 12.4656 108.529 12.9059C108.612 13.4875 108.493 14.0151 108.202 14.3502C107.966 14.623 107.619 14.7657 107.199 14.7657C107.152 14.7657 107.104 14.7643 107.052 14.7615C106.451 14.72 106.026 14.5483 105.792 14.2492ZM112.878 8.27254C114.749 7.02349 116.47 6.71607 117.97 7.34752C118.356 7.52754 118.817 7.81418 118.826 8.15483C118.844 8.82229 117.511 10.0076 115.583 11.0407C114.415 11.5544 112.918 11.7718 111.471 11.9809C110.855 12.0695 110.264 12.1568 109.697 12.2634C109.614 12.0294 109.495 11.8023 109.344 11.5877C109.538 11.2802 110.043 10.7886 110.26 10.5823C110.344 10.4992 110.424 10.4217 110.494 10.3524C111.248 9.59775 111.96 8.8846 112.878 8.27254ZM107.311 2.9523C107.641 2.70443 108.163 2.44409 108.771 2.62549C109.747 2.91214 110.057 4.12657 109.715 6.3588C109.611 7.18273 109.505 8.03575 109.311 8.71566C109.159 9.17679 108.918 9.58944 108.663 10.027C108.54 10.2403 108.414 10.4577 108.297 10.6834C107.901 10.4895 107.446 10.3898 106.95 10.4369L106.928 10.4411C106.861 9.8747 106.738 9.23079 106.608 8.55918C106.393 7.44861 106.151 6.18986 106.145 5.13468C106.143 4.38137 106.633 3.46466 107.311 2.9523ZM100.918 8.03436C100.37 7.30736 99.9721 6.77838 99.8807 5.96969C99.8877 5.23161 100.115 4.34121 100.604 4.09611L100.651 4.0698C101.073 3.81223 101.537 3.77484 102.066 3.95763C103.212 4.35367 104.294 5.64427 104.678 6.6676C105.123 7.8308 105.398 9.31249 105.618 10.7831C105.319 10.6765 104.991 10.5283 104.669 10.3843C104.187 10.1669 103.69 9.94256 103.215 9.81654C102.192 9.4025 101.68 9.02031 101.047 8.20746L100.918 8.03436ZM97.8479 14.8792C97.0309 14.7158 96.5144 14.1896 96.4258 13.4308C96.4659 12.0765 99.1828 11.5212 100.792 11.4062C101.839 11.3301 103.178 11.3329 104.534 11.9228C104.445 12.1429 104.373 12.3977 104.32 12.701C104.297 12.8339 104.282 12.9599 104.272 13.0818C104.187 13.097 104.101 13.1137 104.034 13.1261C103.769 13.176 103.521 13.2217 103.348 13.2784L103.291 13.3006C102.347 13.7216 101.374 14.0456 100.432 14.3599L100.295 14.4139C99.3033 14.8114 98.7051 15.0509 97.8479 14.8792ZM98.8976 20.4958C98.8588 20.4903 98.6663 20.4584 98.6414 20.3906C98.4738 19.9377 99.3241 18.3757 100.465 17.0381C100.995 16.5119 101.602 16.149 102.245 15.7655C102.434 15.6519 102.625 15.537 102.796 15.4304C103.021 15.3016 103.257 15.1534 103.495 15.0039C103.811 14.8058 104.132 14.6037 104.434 14.4458C104.529 14.6978 104.653 14.8972 104.773 15.0509C104.852 15.152 104.952 15.26 105.074 15.3653C105.058 15.3957 105.043 15.4248 105.027 15.4581C104.471 16.3817 103.809 17.3704 103.311 17.8675L103.275 17.9077C102.137 19.2551 100.609 20.7617 98.8976 20.4958ZM107.497 21.0899C107.249 23.1712 106.852 25.3812 105.335 25.2469C104.488 25.1763 104.077 24.5379 103.622 23.4024C103.261 22.4054 103.438 21.7975 103.737 20.8004C104.113 19.7716 104.455 19.2024 105.02 18.2636L105.148 18.0503C105.323 17.8052 105.528 17.3912 105.834 16.7542C105.929 16.5575 106.047 16.3124 106.156 16.095C106.188 16.0424 106.219 15.9926 106.248 15.9427C106.463 15.9967 106.698 16.0369 106.964 16.0549C106.986 16.0563 107.008 16.0563 107.03 16.0577C107.228 16.9744 107.482 18.7773 107.576 20.2867C107.569 20.3975 107.568 20.5124 107.556 20.619C107.537 20.7617 107.518 20.9195 107.497 21.0899ZM112.15 23.8345L112.125 23.8622C111.605 24.4964 111.035 24.6972 110.433 24.4562C109.559 24.11 108.824 22.9482 108.89 22.0204C108.923 21.5496 108.914 20.9583 108.878 20.3213C108.922 19.442 108.835 18.5101 108.736 17.6224C108.714 17.3095 108.527 16.5645 108.325 15.8306C108.459 15.771 108.585 15.699 108.706 15.6173C108.897 15.8555 109.103 16.1186 109.311 16.3928C109.458 16.5991 109.611 16.804 109.767 17.0062C110.374 17.8398 110.931 18.679 111.143 19.1567L111.165 19.2011C112.449 21.587 112.78 23.1462 112.15 23.8345ZM117.827 16.5603C117.604 17.5421 117.114 18.2719 116.409 18.6679C115.713 19.0612 114.849 19.1041 113.901 18.7898C112.737 18.4214 111.655 17.333 110.748 16.1532C110.64 16.0064 110.534 15.8624 110.428 15.7225C110.131 15.3113 109.855 14.8986 109.606 14.5095C109.728 14.2256 109.804 13.9154 109.833 13.5872C113.58 13.0333 116.315 13.3338 117.374 14.4306C117.865 14.9374 118.011 15.6395 117.827 16.5603Z" fill="#D5D7CC"/>
<path d="M131.423 37.5836C131.492 37.5559 131.563 37.531 131.63 37.5005L131.672 37.4798C133.498 36.5063 135.666 35.008 135.623 33.4044C135.602 32.5985 135.062 31.9421 133.996 31.4464C132.075 30.6363 129.884 30.9922 127.66 32.4766C127.131 32.8298 126.665 33.2106 126.231 33.6025C126.346 33.0181 126.426 32.4074 126.5 31.8175C126.949 28.8943 126.323 27.1606 124.637 26.6648C123.759 26.4072 122.836 26.597 122.033 27.1993C121.202 27.8252 120.59 28.8513 120.41 29.8415C119.767 29.0466 118.916 28.3348 117.989 28.015C117.104 27.7103 116.244 27.7851 115.498 28.2324C114.457 28.7738 114.086 30.1613 114.086 31.2871L114.088 31.3508C114.207 32.5403 114.778 33.2978 115.383 34.0996L115.519 34.2796C115.877 34.7421 116.222 35.0897 116.575 35.3749C116.448 35.3805 116.322 35.3874 116.2 35.3957C114.893 35.4899 110.629 36.0064 110.629 38.7454L110.633 38.8105C110.768 40.1524 111.711 41.1591 113.095 41.436C113.375 41.4928 113.637 41.5163 113.887 41.5163C114.331 41.5163 114.739 41.4388 115.142 41.3183C115.105 41.3529 115.069 41.3862 115.031 41.4222L114.998 41.4582C114.375 42.1866 112.386 44.6708 112.928 46.1276C113.037 46.4225 113.349 46.9335 114.2 47.0623C114.404 47.0942 114.605 47.1094 114.803 47.1094C115.988 47.1094 117.052 46.5583 117.96 45.8354C117.653 46.8657 117.417 47.7851 117.913 49.1491C118.265 50.0312 118.921 51.6735 120.727 51.8245C120.821 51.8328 120.911 51.837 121 51.837C122.488 51.837 123.275 50.7139 123.715 49.4205C124.144 50.1046 124.762 50.671 125.456 50.9466C125.778 51.0753 126.102 51.139 126.422 51.139C127.224 51.139 127.991 50.7416 128.619 49.9814C129.733 48.7434 129.19 46.7729 128.407 45.0683C128.602 45.1596 128.8 45.2427 129.004 45.3078C129.544 45.4878 130.081 45.5765 130.597 45.5765C131.299 45.5765 131.966 45.4117 132.547 45.0835C133.565 44.5102 134.291 43.4619 134.595 42.1159C134.869 40.7478 134.603 39.6372 133.807 38.8119C133.219 38.2026 132.386 37.8149 131.423 37.5836ZM121.293 39.5334C121.061 39.237 120.994 38.7911 121.097 38.2082C121.25 37.3302 121.411 37.2554 122.602 37.0103C123.433 36.9563 123.967 37.7498 124.029 38.1888C124.113 38.7718 123.993 39.2994 123.703 39.6345C123.466 39.9059 123.12 40.0499 122.699 40.0499C122.653 40.0499 122.605 40.0485 122.553 40.0444C121.951 40.0042 121.527 39.8311 121.293 39.5334ZM128.378 33.5554C130.248 32.3077 131.97 32.0003 133.469 32.6304C133.856 32.8118 134.317 33.097 134.327 33.4377C134.345 34.1065 133.011 35.2905 131.082 36.3235C129.915 36.8386 128.419 37.0547 126.971 37.2651C126.354 37.3538 125.763 37.4396 125.197 37.5462C125.114 37.3136 124.995 37.0851 124.844 36.8719C125.039 36.5631 125.544 36.0729 125.759 35.8651C125.843 35.7821 125.924 35.7059 125.993 35.6353C126.748 34.8806 127.46 34.1688 128.378 33.5554ZM122.812 28.2365C123.142 27.9886 123.662 27.7283 124.272 27.9083C125.248 28.1964 125.558 29.4108 125.215 31.643C125.112 32.467 125.006 33.32 124.812 33.9999C124.658 34.4596 124.417 34.8737 124.164 35.3112C124.039 35.5245 123.915 35.7419 123.797 35.9676C123.402 35.7724 122.947 35.6727 122.449 35.7211L122.427 35.7239C122.361 35.1589 122.238 34.5136 122.109 33.842C121.894 32.7314 121.65 31.4741 121.646 30.4189C121.642 29.6642 122.132 28.7475 122.812 28.2365ZM116.417 33.3172C115.869 32.5916 115.472 32.0626 115.382 31.2539C115.389 30.5158 115.614 29.624 116.103 29.3803L116.152 29.3526C116.573 29.0951 117.036 29.0591 117.567 29.2418C118.713 29.6365 119.793 30.9271 120.177 31.9518C120.624 33.115 120.899 34.5967 121.117 36.0673C120.818 35.9607 120.49 35.8125 120.17 35.6671C119.688 35.4497 119.191 35.2254 118.716 35.1008C117.691 34.6867 117.179 34.3045 116.548 33.4917L116.417 33.3172ZM113.347 40.1634C112.532 40 112.014 39.4724 111.925 38.715C111.967 37.3607 114.682 36.804 116.291 36.6891C117.34 36.6143 118.677 36.6171 120.033 37.207C119.944 37.4272 119.872 37.682 119.82 37.9852C119.796 38.1168 119.782 38.2428 119.771 38.3646C119.688 38.3813 119.601 38.3965 119.533 38.4103C119.27 38.4588 119.021 38.5045 118.849 38.5627L118.791 38.5848C117.847 39.0044 116.874 39.3298 115.933 39.6428L115.794 39.6968C114.803 40.0956 114.206 40.3351 113.347 40.1634ZM114.397 45.7786C114.36 45.7745 114.167 45.7412 114.142 45.6734C113.973 45.222 114.825 43.66 115.966 42.3223C116.496 41.7961 117.103 41.4333 117.745 41.0483C117.935 40.9347 118.126 40.8198 118.295 40.7132C118.521 40.5844 118.756 40.4376 118.996 40.2867C119.312 40.0887 119.631 39.8879 119.935 39.7286C120.03 39.9807 120.152 40.1814 120.273 40.3338C120.353 40.4362 120.453 40.5429 120.574 40.6481C120.559 40.6786 120.543 40.709 120.526 40.7409C119.972 41.6645 119.31 42.6532 118.812 43.1517L118.776 43.1919C117.636 44.5379 116.109 46.0459 114.397 45.7786ZM122.998 46.3741C122.749 48.4554 122.353 50.6654 120.836 50.5311C119.987 50.4605 119.577 49.8207 119.123 48.6866C118.762 47.6882 118.939 47.0817 119.237 46.0847C119.613 45.0558 119.955 44.4867 120.519 43.5464L120.648 43.3345C120.824 43.0894 121.027 42.6754 121.333 42.0384C121.429 41.8404 121.547 41.5967 121.656 41.3793C121.689 41.3266 121.718 41.2754 121.747 41.2269C121.962 41.2796 122.197 41.3211 122.465 41.3391C122.487 41.3405 122.508 41.3405 122.53 41.3419C122.729 42.2586 122.981 44.0615 123.075 45.5709C123.068 45.6817 123.067 45.7966 123.056 45.9033C123.037 46.0445 123.019 46.2038 122.998 46.3741ZM127.649 49.1173L127.626 49.145C127.105 49.7806 126.536 49.98 125.932 49.7404C125.06 49.3929 124.323 48.2324 124.389 47.3046C124.424 46.8338 124.414 46.2425 124.377 45.6055C124.423 44.7262 124.334 43.7943 124.236 42.9053C124.214 42.5937 124.027 41.8487 123.826 41.1148C123.96 41.0552 124.086 40.9832 124.207 40.9015C124.398 41.1397 124.603 41.4028 124.81 41.677C124.959 41.8833 125.111 42.0883 125.267 42.2904C125.875 43.1241 126.431 43.9632 126.644 44.441L126.666 44.4853C127.948 46.8712 128.279 48.4291 127.649 49.1173ZM133.328 41.8445C133.105 42.8263 132.615 43.5547 131.91 43.9521C131.212 44.3454 130.348 44.3883 129.402 44.0726C128.238 43.7043 127.155 42.6172 126.249 41.4374C126.141 41.2906 126.035 41.1466 125.928 41.0054C125.63 40.5941 125.355 40.1828 125.107 39.7923C125.227 39.5098 125.305 39.1996 125.334 38.8715C129.081 38.3162 131.816 38.6167 132.875 39.7134C133.364 40.2216 133.511 40.9237 133.328 41.8445Z" fill="#D5D7CC"/>
</svg>
