<svg width="191" height="65" viewBox="0 0 191 65" fill="none" xmlns="http://www.w3.org/2000/svg">
<mask id="mask0_968_3824" style="mask-type:luminance" maskUnits="userSpaceOnUse" x="0" y="0" width="191" height="65">
<path d="M0.110596 0.723633H190.21V64.5333H0.110596V0.723633Z" fill="white"/>
</mask>
<g mask="url(#mask0_968_3824)">
<path d="M190.185 39.0828C190.185 39.0828 189.936 39.3321 189.936 39.5813C189.687 40.0798 189.187 40.5783 188.688 41.0782C188.439 41.3275 187.941 41.5767 187.691 41.826C186.693 42.3245 186.444 42.5738 186.444 42.5738C185.196 42.8244 184.947 42.8244 184.448 43.5722C183.95 44.5706 183.95 45.3184 184.448 46.0661C184.947 47.3138 186.942 48.3122 185.196 49.3092C184.698 49.5585 183.95 49.8078 183.45 50.0584C182.702 50.3077 182.204 50.3077 181.704 50.5569C181.704 50.5569 181.704 50.5569 181.454 50.5569C181.205 50.5569 180.956 50.8062 180.707 50.8062C179.459 51.0554 178.211 51.3047 177.214 51.5539C175.717 51.5539 174.22 51.5539 172.725 51.5539C171.976 51.5539 171.228 51.8032 170.728 51.8032C169.482 52.0538 167.985 51.8032 166.737 51.8032C163.245 52.0538 160.003 53.0509 156.511 53.0509C149.775 53.0509 143.789 55.5448 137.553 57.0417C133.312 58.0401 129.072 58.0401 124.832 58.7879C118.845 59.5371 112.858 60.7833 106.871 61.2832C103.628 61.5325 100.137 62.031 96.8941 62.5295C95.3972 62.7788 93.9003 62.7788 92.4034 63.028C92.1541 63.028 91.9049 63.028 91.9049 63.028C91.6556 63.028 91.4063 63.028 91.1571 63.028C89.9094 63.028 88.4125 63.2787 87.1662 63.2787C85.6693 63.2787 84.1724 63.5279 82.6754 63.5279C75.9414 63.7772 69.2059 64.7742 62.7211 64.0265C55.7363 63.2787 48.7516 63.028 41.7669 62.7788C36.2791 62.5295 30.7913 62.7788 25.3035 62.7788C21.5619 62.7788 17.571 62.5295 13.8294 61.5325C11.5847 61.0326 9.34001 60.2848 7.09532 59.7863C6.84606 58.7879 7.34457 58.2894 8.09234 57.5416C8.59086 57.0417 8.59086 56.5432 8.8415 56.0447C8.3416 55.2956 7.59383 54.5478 7.09532 53.5494C7.59383 51.8032 8.3416 50.8062 9.09075 50.057C9.83852 49.06 10.337 48.5615 11.5847 47.3138C12.3325 46.566 13.5801 45.5676 13.8294 44.5706C13.3309 44.0707 13.0816 44.0707 12.3325 43.8214C11.3354 43.3229 10.5877 43.0737 9.83852 42.5738C9.34001 42.3245 8.8415 42.0753 8.3416 42.0753C6.84606 41.5767 6.84606 42.0753 5.84765 41.5767C5.34914 41.3275 5.09988 41.0782 4.59998 40.829C4.35073 40.5783 4.10147 40.5783 3.85221 40.3291C3.60296 40.3291 3.60296 40.0798 3.3537 39.8306L3.10444 39.5813C3.3537 39.3321 3.85221 39.0828 4.10147 38.8322C4.84924 38.3336 5.34914 38.0844 6.09691 37.8351C6.34616 37.8351 6.84606 37.5859 7.34457 37.3366C8.3416 37.0874 9.34001 36.5875 9.83852 35.5904C10.337 35.0905 10.337 34.8413 10.0878 34.3428C10.0878 34.0935 9.58927 33.8443 9.58927 33.595C9.58927 33.3457 9.34001 33.0951 9.34001 33.0951C9.34001 32.8458 9.34001 32.3473 9.34001 32.0981C9.34001 31.0997 9.58927 29.8534 9.09075 28.855C8.8415 28.6057 8.59086 28.6057 8.3416 28.3565C8.3416 28.1072 8.3416 27.8579 8.3416 27.6073C7.84309 26.6103 7.34457 25.8625 7.34457 24.8641C7.34457 24.6148 7.34457 24.1163 7.34457 23.6164C7.59383 22.3701 8.3416 21.621 8.8415 21.3717C8.09234 20.3747 7.59383 19.6256 7.09532 19.3763C5.09988 18.1286 3.3537 18.6285 1.10762 16.8823C0.609109 16.6331 0.359853 16.3824 0.110596 16.1332C0.110596 15.8839 0.359852 15.3854 0.858365 14.6377C2.10603 13.39 3.3537 12.8915 4.10147 12.6408C5.84765 11.6438 7.59383 10.3961 9.34001 9.89763C11.5847 9.14986 14.3293 9.14986 16.574 9.89763C17.0725 9.89763 18.5694 10.6454 18.3202 9.64837C17.3218 8.64996 16.3247 8.4007 15.0771 7.90219C14.5786 7.65293 12.8324 7.65293 12.8324 6.90378C13.5801 6.15601 14.5786 5.40824 16.3247 4.65908C16.8232 4.40983 17.3218 4.40983 17.8203 4.40983C18.8187 4.40983 19.5665 5.1576 20.5649 5.40824C22.5603 5.90675 24.805 5.65749 26.8004 5.65749C32.2882 5.65749 37.5268 4.90834 43.0146 4.16057C44.2622 3.91131 45.2593 3.91131 46.5069 3.91131C46.7562 3.91131 47.0054 3.91131 47.2547 3.91131C48.7516 3.91131 50.2485 3.66206 51.7455 3.66206C52.244 3.66206 52.7425 3.66206 53.241 3.66206C53.7409 3.66206 54.2394 3.66206 54.7379 3.66206C55.9856 3.66206 57.4825 3.91131 58.7288 3.91131C58.9781 3.91131 59.478 3.91131 59.7272 3.91131H59.9765C60.7242 3.91131 61.7227 3.91131 62.4704 3.91131C63.4688 3.91131 64.4659 4.16057 65.7135 4.16057C67.2105 4.40983 68.9566 4.65908 70.7028 4.90834C76.1906 5.40824 81.6784 6.15601 87.1662 6.15601C92.654 6.15601 98.3911 6.40526 103.879 5.90675C116.35 4.90834 128.823 3.91131 141.295 2.66365C146.283 2.16513 151.272 1.66662 156.012 1.41598C156.262 1.41598 156.262 1.41598 156.511 1.41598C156.76 1.41598 156.76 1.41598 157.009 1.41598C159.005 1.41598 161 1.41598 162.746 1.41598C164.243 1.41598 165.491 1.16672 166.986 0.917466C168.733 0.917466 170.23 1.16672 171.726 1.41598C172.474 1.41598 173.223 1.41598 173.971 1.41598H174.72C175.967 1.41598 177.214 1.41598 178.462 1.41598C179.708 1.41598 180.956 1.41598 181.953 1.16672C182.951 0.917466 184.199 0.66821 185.196 1.16672C185.196 1.41598 184.698 1.91588 184.448 2.16513C183.95 2.66365 183.699 3.16216 183.45 3.91131C182.951 4.90834 182.702 5.1576 183.201 6.15601C183.201 6.40526 183.45 6.40526 183.45 6.65452C183.95 6.90378 184.199 7.15442 184.448 7.15442C184.698 7.15442 185.445 7.65293 185.945 8.64996C184.698 9.64837 184.199 10.6454 183.95 11.3945C183.45 13.1407 183.95 14.8869 183.95 17.8794C183.95 18.6285 184.199 19.8748 183.95 20.624C183.95 20.8732 183.699 21.3717 182.453 22.8687C181.704 23.6164 181.205 24.3656 180.707 25.1134C181.205 25.8625 181.704 26.361 181.953 26.8595C182.453 27.358 183.201 27.8579 183.699 28.6057C184.199 29.1042 184.199 29.1042 184.199 29.8534C184.199 30.8504 183.95 31.8488 184.199 32.5966C184.448 33.595 185.445 35.0905 186.194 35.5904C186.444 35.8397 186.693 35.8397 187.191 36.0889C187.191 36.0889 187.941 36.5875 188.19 36.8367C189.436 37.5859 189.936 38.5829 190.185 39.0828Z" fill="#F1EAC9"/>
</g>
<path d="M12.8321 14.6377C13.0814 14.3871 14.5783 12.8916 16.0738 13.3901C16.823 13.6393 17.5708 14.3871 17.82 15.3855C18.0707 16.1333 18.0707 17.1317 18.0707 17.8795C18.8184 16.8824 20.0661 16.3825 21.3124 16.6332C22.5601 16.6332 23.8077 17.381 24.3062 18.6286C24.8047 19.8749 24.5555 21.1226 23.5571 22.121C25.3033 21.3718 27.7986 22.3702 28.5464 24.1164C29.2955 26.1119 28.2971 28.3566 26.3017 29.1043C27.5493 29.1043 29.0449 30.1027 29.2955 31.349C29.794 32.5967 29.2955 34.0936 28.2971 35.0906C27.2987 35.8398 26.3017 35.8398 25.054 36.089C23.8077 36.089 22.5601 35.8398 21.3124 35.5905C19.8155 35.0906 16.823 34.0936 14.5783 31.5997C12.8321 29.6042 12.3322 27.6074 11.8337 25.8626C11.3352 23.6165 9.83828 17.6302 12.8321 14.6377Z" fill="#A66362"/>
<path d="M24.5557 36.0891C24.3064 36.0891 24.0572 36.0891 23.8079 36.0891C22.8095 36.0891 21.8125 36.0891 20.8141 35.5906C20.5648 35.5906 20.5648 35.5906 20.3156 35.3413C18.8186 34.8414 16.074 34.0937 14.0786 31.5997C12.5831 29.8535 12.0832 27.8581 11.5846 26.1119C11.3354 25.3628 11.0861 23.8658 10.8369 22.1211C10.5876 20.3749 10.8369 18.6287 11.5846 17.1318C11.8339 16.6333 12.0832 16.1334 12.5831 15.8841C12.8323 15.6348 14.3292 14.3872 15.5755 14.8871C16.3247 15.1363 16.8232 15.8841 17.0724 16.6333C17.3217 17.381 17.3217 18.1288 17.3217 19.1272C18.0709 18.3794 19.3171 17.8795 20.3156 17.8795C21.5618 17.8795 22.5602 18.6287 23.0588 19.6257C23.5573 20.6241 23.308 22.1211 22.311 22.8688C24.0572 22.1211 26.3019 23.1181 27.0496 24.8643C27.7988 26.6104 26.8004 28.8551 25.0542 29.3536C26.3019 29.3536 27.5495 30.3521 28.048 31.5997C28.5466 32.846 28.048 34.3429 27.0496 35.0907C26.0526 35.8399 25.3035 36.0891 24.5557 36.0891Z" fill="#E18B86"/>
<path d="M5.59835 37.5859C5.84761 37.5859 6.34612 37.3367 6.84602 37.0874C6.34612 37.5859 6.09686 37.8352 5.84761 38.3337C5.09984 39.0828 4.59994 39.8306 4.10143 40.5784C3.85217 40.3291 3.60291 40.3291 3.35366 40.0799C3.1044 40.0799 3.1044 39.8306 2.85376 39.5814C3.1044 39.3321 3.35366 38.8322 3.60291 38.5829C4.35068 38.0844 5.09984 37.8352 5.59835 37.5859Z" fill="#74846A"/>
<path d="M15.5756 30.3519C15.0771 30.6011 14.8279 30.8504 14.3294 31.0997C14.0787 31.3489 13.8295 31.3489 13.5802 31.5996C12.3325 32.3473 10.837 33.3457 9.58932 34.3428C9.58932 34.0935 9.09081 33.8443 9.09081 33.595C9.09081 33.3457 8.84155 33.0951 8.84155 33.0951C10.0878 32.0981 11.3355 31.0997 12.5832 30.3519C12.8324 30.1026 13.0817 30.1026 13.3309 29.8534C13.8295 29.6041 14.3294 29.3535 14.8279 29.1042C15.0771 28.855 15.5756 29.1042 15.8249 29.3535C16.0741 29.8534 16.0741 30.3519 15.5756 30.3519Z" fill="#74846A"/>
<path d="M20.5648 35.8397C20.3156 35.8397 20.3156 35.8397 20.0663 35.5904C18.5694 35.0905 15.8248 34.3427 13.8294 31.8488C12.3324 30.1026 11.8339 28.1072 11.3354 26.361C11.0862 25.6118 10.8369 24.1163 10.5876 22.3701C10.8369 22.6194 11.0862 22.8686 11.3354 22.8686L11.5847 23.1179C13.5801 24.8641 15.3263 26.8595 16.8232 28.8549C18.0709 30.8504 19.3172 32.8458 20.3156 35.0905C20.3156 35.3412 20.5648 35.5904 20.5648 35.8397Z" fill="#74846A"/>
<path d="M15.8246 37.3364C16.0738 37.8349 12.8321 41.078 9.09048 42.3243C8.59058 42.075 8.09207 41.8257 7.59355 41.8257C6.09663 41.3272 6.09663 41.8257 5.0996 41.3272C4.59971 41.078 4.35045 40.8287 3.85194 40.5781C3.60268 40.3288 3.35342 40.3288 3.10278 40.0796C3.60268 39.3318 4.59971 38.8319 5.34886 38.5826C5.84737 38.3334 6.34589 38.3334 6.59514 38.0841C7.09504 37.8349 7.59355 37.8349 7.59355 37.8349C8.34132 37.8349 9.58899 37.8349 10.0875 37.8349C10.8367 37.8349 11.3352 37.8349 11.8337 37.8349C14.329 37.5856 15.326 36.8365 15.8246 37.3364C15.8246 37.0871 15.8246 37.0871 15.8246 37.3364Z" fill="#74846A"/>
<path d="M95.3971 36.0888C95.3971 35.8396 94.6493 33.5949 93.1524 33.3456C92.4032 33.095 91.4062 33.5949 90.9077 34.3426C90.1585 34.8412 89.9093 35.8396 89.4108 36.5873C89.1615 35.341 88.1631 34.3426 87.1661 33.8441C85.9184 33.3456 84.6707 33.3456 83.6737 34.0934C82.6753 34.8412 82.1768 36.3381 82.6753 37.3365C81.429 35.8396 78.9337 35.341 77.1875 36.8366C75.6906 38.0843 75.4413 40.8288 76.9382 42.3244C75.6906 41.8259 74.195 42.0751 73.1966 42.8243C72.1996 43.8213 71.9489 45.3182 72.4488 46.5659C72.9474 47.8122 73.6951 48.3121 74.9428 49.0599C75.9412 49.8076 77.1875 50.0583 78.4352 50.3075C80.1813 50.5568 82.9245 51.3045 86.4169 49.8076C88.9122 48.8106 90.1585 47.3137 91.6554 46.066C92.4032 44.5705 96.6447 40.0797 95.3971 36.0888Z" fill="#A66362"/>
<path d="M74.9427 49.3087C75.1919 49.5579 75.4412 49.5579 75.6904 49.8072C76.4396 50.3071 77.4366 50.5563 78.6843 51.0548C78.9335 51.0548 78.9335 51.0548 79.1828 51.0548C80.6797 51.3041 83.4243 51.8026 86.4168 50.8056C88.6615 49.8072 89.9091 48.5609 91.1568 47.3132C91.6553 46.8147 92.903 45.567 93.6507 44.3194C94.6492 42.8238 95.3969 41.3269 95.3969 39.5807C95.3969 39.0822 95.3969 38.5823 95.1477 38.0838C95.1477 37.8346 94.3999 35.8391 92.903 35.5899C92.1538 35.5899 91.4061 35.8391 90.6569 36.3376C90.1584 36.8361 89.6599 37.5853 89.4106 38.3331C89.1614 37.336 88.4122 36.3376 87.1659 35.8391C86.1675 35.3406 84.9198 35.5899 83.9228 36.0884C82.9244 36.8361 82.6752 38.0838 82.9244 39.0822C81.6781 37.5853 79.432 37.336 77.9365 38.5823C76.4396 39.83 76.4396 42.3239 77.6873 43.5716C76.4396 43.0731 74.9427 43.3223 74.1949 44.0701C73.1965 44.8193 72.9472 46.3148 73.4457 47.5625C73.695 48.3116 74.1949 48.8101 74.9427 49.3087Z" fill="#E18B86"/>
<path d="M92.4032 62.7786C92.1539 62.7786 91.9047 62.7786 91.9047 62.7786C91.6554 62.7786 91.4062 62.7786 91.1569 62.7786C91.1569 61.7816 90.9076 60.7832 90.657 60.0354C89.9092 56.543 88.6616 53.2999 86.9154 50.3075C86.9154 50.0582 86.6661 49.8076 86.4169 49.5583C86.1676 49.0598 85.9184 48.8106 85.6691 48.312C85.4198 48.0614 85.4198 47.5629 85.9184 47.3136C86.1676 47.0644 86.6661 47.0644 86.9154 47.5629C87.166 48.0614 87.6645 48.5613 87.6645 49.0598C87.9138 49.3091 87.9138 49.5583 88.163 49.8076C90.4077 53.7998 91.9047 58.2892 92.4032 62.7786Z" fill="#74846A"/>
<path d="M78.6846 50.8058C78.9338 50.8058 78.9338 50.8058 79.1831 50.8058C80.68 51.055 83.4246 51.5535 86.4171 50.5565C88.6618 49.5581 89.9094 48.3118 91.1571 47.0642C91.6556 46.5656 92.9033 45.318 93.651 44.0703C93.4018 44.0703 93.1525 44.0703 92.654 44.3196H92.4034C89.9094 44.8195 87.4155 45.8165 84.9201 46.8149C82.6754 47.8119 80.68 49.0596 78.9338 50.5565C78.9338 50.5565 78.6846 50.5565 78.6846 50.8058Z" fill="#74846A"/>
<path d="M91.6556 62.7788C91.4064 62.7788 91.1571 62.7788 90.9078 62.7788C89.6602 62.7788 88.1633 63.0281 86.9156 63.0281C83.4246 60.5341 81.4292 54.5478 82.1769 54.0493C82.6755 54.0493 83.4246 55.0463 84.9201 56.0448C85.42 56.5433 85.9186 56.7925 86.4171 57.0418C86.9156 57.291 88.1633 57.7909 88.6618 58.2894C88.6618 58.2894 89.1617 58.5387 89.4109 59.0372C89.6602 59.2865 90.1587 59.7864 90.4079 60.0356C90.9078 60.7834 91.4064 61.5326 91.6556 62.5296V62.7788Z" fill="#74846A"/>
<path d="M70.4535 13.39C69.9536 14.6377 69.2058 15.1362 67.9581 15.884C67.7089 15.884 67.7089 16.1332 67.4596 16.1332C66.4612 16.6331 65.4642 16.8824 64.4658 17.1317C64.2165 17.1317 63.718 17.1317 63.4688 17.3809C61.7226 17.6302 59.2286 17.8794 56.484 16.8824H56.2348C55.7363 16.6331 55.2364 16.3825 54.9871 16.1332C53.4916 15.3855 52.4932 14.1378 51.4947 13.1408C50.9962 12.6409 50.4977 12.1424 49.75 11.1453C48.7515 9.89768 47.5039 8.1515 47.0054 6.40532C46.7561 5.65755 46.7561 4.90839 46.7561 3.91137C47.0054 3.91137 47.2546 3.91137 47.5039 3.91137C49.0008 3.91137 50.4977 3.66211 51.9946 3.66211C52.4932 3.66211 52.9917 3.66211 53.4916 3.66211C53.9901 3.66211 54.4886 3.66211 54.9871 3.66211C56.2348 3.66211 57.7317 3.91137 58.978 3.91137C59.2286 3.91137 59.7271 3.91137 59.9764 3.91137C59.9764 4.16062 59.9764 4.16062 59.9764 4.40988C59.9764 4.16062 60.2256 4.16062 60.4749 3.91137C61.2241 3.91137 62.2211 3.91137 62.9702 3.91137C63.9673 3.91137 64.9657 4.16062 66.212 4.16062C67.2104 5.65755 67.2104 7.65298 65.9627 8.89927C67.2104 8.40075 68.7073 8.65001 69.7043 9.39916C70.7027 10.6454 70.952 12.1424 70.4535 13.39Z" fill="#A66362"/>
<path d="M68.9566 14.3867C68.7073 15.1359 68.2074 15.6344 67.4596 16.1329C67.2104 16.1329 66.9611 16.3822 66.7119 16.6328C65.9627 17.1313 64.9657 17.3806 63.718 17.8791C63.4688 17.8791 63.4688 17.8791 63.2195 17.8791C61.7226 18.1283 58.978 18.6282 55.9855 17.3806H55.7363C55.2364 17.1313 54.7379 16.8821 54.4886 16.6328C53.2409 15.8837 52.2439 14.8866 51.2455 13.8882C50.747 13.3897 49.4993 12.142 48.7516 10.6451C47.7531 9.39883 47.0054 7.65265 47.0054 6.15572C47.0054 5.65721 47.0054 5.15731 47.2546 4.6588C47.2546 4.6588 47.5039 4.16029 47.7531 3.66177C49.2501 3.66177 50.747 3.41113 52.2439 3.41113C52.4932 3.91103 52.7424 4.40954 53.2409 4.90806C53.4916 4.40954 53.7408 3.91103 53.9901 3.41113C54.4886 3.41113 54.9871 3.41113 55.487 3.41113C56.7333 3.41113 58.2302 3.66177 59.4779 3.66177C59.7271 4.40954 59.9764 4.90806 59.7271 5.65721C60.9748 4.16029 63.2195 3.91103 64.7164 5.15731C66.212 6.40498 66.212 8.89893 64.9657 10.1466C66.212 9.64808 67.4596 9.89734 68.458 10.6451C69.2058 11.6435 69.4551 13.1404 68.9566 14.3867Z" fill="#E18B86"/>
<path d="M51.2456 42.0756C50.9963 42.0756 50.9963 41.8264 50.7471 41.5771C48.5024 32.3477 50.4978 22.3705 55.7364 14.638C55.9856 14.3874 56.4841 14.1381 56.7334 14.3874C56.9826 14.638 57.2333 15.1365 56.9826 15.3858C51.9947 22.869 49.9993 32.3477 52.244 41.0786C52.244 41.5771 51.9947 41.8264 51.7455 42.0756C51.4949 42.0756 51.2456 42.0756 51.2456 42.0756Z" fill="#74846A"/>
<path d="M63.9672 17.63C63.7179 17.63 63.7179 17.63 63.4687 17.63C61.9718 17.8793 59.2286 18.3792 56.2347 17.3807C53.99 16.3823 52.7424 15.136 51.4947 13.8884C50.9962 13.3899 49.7499 12.1422 49.0007 10.8945C49.25 10.8945 49.4992 10.8945 49.9991 11.1452H50.2484C52.7424 11.6437 55.2363 12.6407 57.7316 13.6391C59.9763 14.6375 61.9718 15.8838 63.7179 17.3807C63.4687 17.3807 63.7179 17.63 63.9672 17.63Z" fill="#74846A"/>
<path d="M50.7471 29.3533C50.9963 27.8578 51.9947 26.8594 52.9918 25.8624C53.241 25.6117 53.7409 25.1132 53.7409 25.1132C54.2394 24.8639 55.4871 24.1162 55.9856 23.8655C56.4841 23.6163 56.9826 23.367 57.4825 22.8685C58.7288 21.8701 59.478 20.6238 60.2257 20.8731C60.9749 21.3716 58.4796 28.3563 54.4887 30.3517C53.7409 30.8503 52.244 31.0995 51.2456 30.601C50.7471 30.3517 50.4978 29.8532 50.4978 29.8532C50.7471 30.1025 50.7471 29.604 50.7471 29.3533Z" fill="#74846A"/>
<path d="M189.936 39.5814C189.687 40.0799 189.187 40.5784 188.688 41.0783C188.439 41.3276 187.94 41.5769 187.691 41.8261C186.693 42.3246 186.443 42.5739 186.443 42.5739C185.196 42.8245 184.947 42.8245 184.448 43.5723C183.95 44.5707 183.95 45.3185 184.448 46.0662C184.947 47.3139 186.942 48.3123 185.196 49.3093C184.697 49.5586 183.95 49.8079 183.45 50.0585C182.702 50.3078 182.203 50.3078 181.703 50.557C181.454 50.3078 180.956 49.8079 180.706 49.3093C179.708 48.0617 178.462 46.3155 177.962 44.5707C177.713 43.5723 177.713 42.5739 177.962 41.3276C177.962 41.0783 178.711 38.8323 180.208 38.583C180.956 38.583 181.953 38.8323 182.453 39.5814C182.951 40.3292 183.45 40.8291 183.95 41.8261C184.199 40.5784 185.196 39.5814 186.194 39.0829C187.691 38.8323 188.937 38.8323 189.936 39.5814Z" fill="#A66362"/>
<path d="M188.688 40.8288C188.439 41.0781 187.94 41.3273 187.691 41.5766C186.693 42.0751 186.444 42.3243 186.444 42.3243C185.196 42.8242 184.947 42.8242 184.448 43.572C183.95 44.5704 183.95 45.3182 184.448 46.066C184.947 47.3136 186.942 48.312 185.196 49.3091C184.697 49.5583 183.95 49.8076 183.45 50.0582C182.702 50.3075 182.203 50.3075 181.704 50.5567C181.704 50.5567 181.704 50.5567 181.454 50.5567C181.205 50.5567 180.956 50.806 180.706 50.806C180.208 50.3075 179.957 49.8076 179.459 49.3091C178.462 48.0614 177.713 46.3152 177.713 44.8197C177.713 44.3198 177.713 43.8213 177.962 43.3227C177.962 43.0735 178.711 41.0781 180.208 40.8288C180.956 40.8288 181.953 41.0781 182.453 41.5766C182.951 42.0751 183.45 42.8242 183.699 43.572C183.95 42.5736 184.697 41.5766 185.945 41.0781C186.942 40.5782 187.94 40.5782 188.688 40.8288Z" fill="#E18B86"/>
<path d="M183.45 50.3073C182.702 50.5565 182.203 50.5565 181.703 50.8058C181.703 50.8058 181.703 50.8058 181.454 50.8058C181.205 50.8058 180.956 51.055 180.706 51.055C180.208 50.5565 179.957 50.058 179.459 49.5581C179.708 49.5581 180.208 49.5581 180.457 49.8074H180.706C181.953 49.8074 182.702 50.058 183.45 50.3073Z" fill="#74846A"/>
<path d="M132.564 10.1469C132.564 9.89767 131.816 7.65297 130.319 7.40372C129.57 7.15308 128.573 7.65297 128.075 8.40074C127.326 8.89926 127.076 9.89767 126.578 10.6454C126.328 9.39915 125.33 8.40074 124.333 7.90223C123.085 7.40372 121.838 7.40372 120.841 8.15149C119.842 8.89926 119.344 10.3962 119.842 11.3946C118.595 9.89767 116.101 9.39915 114.354 10.8947C112.858 12.1424 112.608 14.887 114.105 16.3825C112.858 15.884 111.362 16.1332 110.364 16.8824C109.367 17.8794 109.116 19.3763 109.616 20.624C110.114 21.8703 110.862 22.3702 112.11 23.118C113.108 23.8657 114.354 24.1164 115.602 24.3656C117.348 24.6149 120.092 25.3626 123.584 23.8657C126.078 22.8687 127.326 21.3718 128.822 20.1241C129.57 18.8778 133.812 14.1378 132.564 10.1469Z" fill="#A66362"/>
<path d="M112.11 23.3673C112.359 23.6165 112.608 23.6165 112.858 23.8658C113.607 24.3657 114.604 24.6149 115.852 25.1134C116.101 25.1134 116.101 25.1134 116.35 25.1134C117.847 25.3627 120.592 25.8626 123.584 24.8642C125.829 23.8658 127.076 22.6195 128.324 21.3718C128.823 20.8733 130.07 19.6256 130.818 18.3794C131.816 16.8824 132.564 15.3855 132.564 13.6393C132.564 13.1408 132.564 12.6409 132.315 12.1424C132.315 11.8931 131.566 9.89771 130.07 9.64845C129.321 9.64845 128.573 9.89771 127.824 10.3962C127.326 10.8947 126.827 11.6439 126.578 12.3917C126.329 11.3946 125.579 10.3962 124.333 9.89771C123.335 9.3992 122.087 9.64845 121.09 10.147C120.092 10.8947 119.842 12.1424 120.092 13.1408C118.845 11.6439 116.599 11.3946 115.104 12.6409C113.607 13.8886 113.607 16.3825 114.853 17.6302C113.607 17.1317 112.11 17.3809 111.362 18.1287C110.364 18.8779 110.114 20.3748 110.613 21.6211C110.862 22.3702 111.362 23.118 112.11 23.3673Z" fill="#E18B86"/>
<path d="M128.324 49.3096C128.573 49.3096 128.573 49.0603 128.823 48.811C131.067 39.5816 129.072 29.6044 123.833 21.8706C123.584 21.6213 123.086 21.3721 122.836 21.6213C122.587 21.8706 122.336 22.3705 122.587 22.6197C127.575 30.103 129.57 39.5816 127.326 48.3125C127.326 48.811 127.575 49.0603 127.824 49.3096C128.075 49.5588 128.075 49.3096 128.324 49.3096Z" fill="#74846A"/>
<path d="M115.602 25.1135C115.851 25.1135 115.851 25.1135 116.101 25.1135C117.597 25.3627 120.341 25.8626 123.335 24.8642C125.579 23.8658 126.827 22.6195 128.075 21.3719C128.573 20.8733 129.821 19.6257 130.569 18.3794C130.319 18.3794 130.07 18.3794 129.57 18.6287H129.321C126.827 19.1272 124.333 20.1242 121.838 21.1226C119.593 22.121 117.597 23.3673 115.851 24.8642C115.851 24.8642 115.851 24.8642 115.602 25.1135Z" fill="#74846A"/>
<path d="M128.822 36.8362C128.573 35.3407 127.575 34.3423 126.578 33.3453C126.328 33.0946 125.829 32.5961 125.829 32.5961C125.33 32.3469 124.082 31.5991 123.584 31.3484C123.085 31.0992 122.587 30.8499 122.087 30.3514C120.841 29.353 120.092 28.1067 119.344 28.356C118.595 28.8545 121.09 35.8392 125.081 37.8347C125.829 38.3332 127.325 38.5824 128.324 38.0839C128.822 37.8347 129.072 37.3361 129.072 37.3361C128.822 37.3361 128.822 36.8362 128.822 36.8362Z" fill="#74846A"/>
<path d="M179.21 6.40528C178.711 7.65295 177.713 8.15146 176.716 8.89923C176.467 8.89923 176.467 9.14987 176.216 9.14987H175.967C175.219 9.64838 174.22 9.89764 173.223 10.1469C172.974 10.1469 172.474 10.1469 172.225 10.3962C170.479 10.6454 167.985 10.8947 165.24 9.89764C165.24 9.89764 164.991 9.89764 164.991 9.64838C164.493 9.39913 163.994 9.14987 163.745 8.89923C162.248 7.9022 161.249 6.90379 160.252 5.90677C159.754 5.40825 159.254 4.6591 158.506 3.91133C158.008 3.16217 157.259 2.4144 157.009 1.41599C157.259 1.41599 157.259 1.41599 157.508 1.41599C159.503 1.41599 161.499 1.41599 163.245 1.41599C164.742 1.41599 165.989 1.16674 167.486 0.91748C169.233 0.91748 170.728 1.16674 172.225 1.41599C172.974 1.41599 173.722 1.41599 174.47 1.41599H175.219C175.219 1.66663 174.97 1.91589 174.72 1.91589C175.967 1.41599 177.464 1.41599 178.462 2.4144C179.21 3.66207 179.459 5.15761 179.21 6.40528Z" fill="#A66362"/>
<path d="M177.713 7.40367C177.464 8.15144 176.716 8.64995 176.216 9.14985H175.967C175.717 9.14985 175.717 9.3991 175.468 9.3991C174.72 9.89762 173.722 10.1469 172.474 10.6454C172.225 10.6454 172.225 10.6454 171.976 10.6454C170.479 10.8946 167.736 11.3945 164.742 10.1469H164.492C163.994 9.89762 163.495 9.64836 163.245 9.3991C162.996 9.14985 162.497 8.89921 162.248 8.64995C161.749 8.15144 161.249 7.90218 161 7.40367C160.751 7.15303 160.252 6.65451 160.003 6.40526C159.503 5.90674 158.506 4.65908 157.508 3.16215C157.009 2.41438 156.76 1.66661 156.261 0.917458C156.511 0.917458 156.511 0.917458 156.76 0.917458C157.009 0.917458 157.009 0.917458 157.259 0.917458C159.254 0.917458 161.249 0.917458 162.996 0.917458C164.492 0.917458 165.74 0.668202 167.237 0.418945C168.983 0.418945 170.479 0.668202 171.976 0.917458C172.725 0.917458 173.473 0.917458 174.22 0.917458C174.22 1.66661 173.971 2.16513 173.473 2.66364C174.72 2.16513 175.967 2.41438 176.965 3.16215C177.713 4.65908 178.211 6.156 177.713 7.40367Z" fill="#E18B86"/>
<path d="M159.754 35.0905C159.503 35.0905 159.503 34.8413 159.254 34.592C157.009 25.3626 159.005 15.3854 164.243 7.65291C164.492 7.40366 164.991 7.15302 165.242 7.40366C165.491 7.65291 165.74 8.15143 165.491 8.40068C160.502 15.8839 158.506 25.3626 160.751 34.0935C160.751 34.592 160.502 34.8413 160.252 35.0905C160.003 35.0905 160.003 35.0905 159.754 35.0905Z" fill="#74846A"/>
<path d="M172.474 10.6452C172.225 10.6452 172.225 10.6452 171.976 10.6452C170.479 10.8945 167.736 11.3944 164.742 10.396C162.497 9.39893 161.249 8.15126 160.003 6.9036C159.503 6.40508 158.257 5.15742 157.508 3.91113C157.757 3.91113 158.008 3.91113 158.506 4.16039H158.755C161.249 4.6589 163.745 5.65731 166.239 6.65434C168.483 7.65275 170.479 8.89903 172.225 10.396C172.225 10.396 172.225 10.6452 172.474 10.6452Z" fill="#74846A"/>
<path d="M159.503 22.3698C159.754 20.8729 160.751 19.8745 161.749 18.8775C161.998 18.6282 162.497 18.1283 162.497 18.1283C162.996 17.879 164.243 17.1313 164.742 16.882C165.242 16.6328 165.74 16.3821 166.239 15.8836C167.486 14.8866 168.234 13.6389 168.983 13.8882C169.731 14.3867 167.237 21.3714 163.245 23.3668C162.497 23.8654 161 24.116 160.003 23.6161C159.503 23.3668 159.254 22.8683 159.254 22.8683C159.254 22.8683 159.254 22.6191 159.503 22.3698Z" fill="#74846A"/>
</svg>
