<svg width="185" height="54" viewBox="0 0 185 54" fill="none" xmlns="http://www.w3.org/2000/svg">
<mask id="mask0_968_5071" style="mask-type:luminance" maskUnits="userSpaceOnUse" x="10" y="2" width="108" height="52">
<path d="M10.3232 2.66016H117.027V53.2869H10.3232V2.66016Z" fill="white"/>
</mask>
<g mask="url(#mask0_968_5071)">
<path d="M95.9441 23.4593C100.237 19.7661 104.553 16.0965 108.702 12.2829C111.291 9.90941 113.906 7.53593 116.016 4.68195C116.423 4.12943 117.048 3.62676 116.807 2.7876C114.145 2.7876 111.459 2.81114 108.797 2.81114C107.503 2.90669 106.327 3.31519 105.153 3.88987C99.1096 6.86433 93.5221 10.581 88.0537 14.5137C79.2051 20.8933 70.9796 28.1107 62.3692 34.8018C57.7413 38.3994 52.9445 41.781 47.6451 44.347C45.3436 45.4742 42.9687 46.5044 40.2837 46.4324C37.8368 46.3604 36.4465 45.2581 35.966 42.9082C35.4384 40.3173 36.182 37.8718 37.0697 35.5219C38.6524 31.3482 40.9539 27.5595 43.5919 23.9869C47.8375 18.2069 52.561 12.8825 57.9338 8.13415C59.133 7.05542 60.4278 6.0487 61.53 4.87304C61.7461 4.63348 62.0341 4.32191 61.8901 3.98541C61.7461 3.60184 61.314 3.74585 61.0024 3.77078C59.8752 3.81786 58.7245 3.6503 57.5973 3.86632C56.0381 3.88987 54.5038 3.91341 52.9445 3.88987C51.3382 3.86632 49.7554 4.1779 48.1727 4.22636C47.5731 4.39392 47.0455 4.70549 46.5428 5.0406C40.5468 9.11871 35.1033 13.8906 29.6834 18.6625C24.7675 23.0037 19.9236 27.4391 15.1752 31.9478C14.8623 32.2594 14.3112 32.4284 14.4552 33.0515C14.5272 33.147 14.6227 33.2191 14.7197 33.2675C16.5171 34.0347 18.2688 34.8974 19.9707 35.857C20.7143 36.2655 21.4094 36.7682 22.1295 37.2487C22.2735 37.3442 22.3926 37.5118 22.5366 37.6558C22.6086 37.7514 22.5851 37.9438 22.4895 38.0394C21.793 38.639 20.9303 38.9506 20.1147 39.3106C19.155 39.7177 18.1719 40.1013 17.2136 40.4849C16.9491 40.5818 16.686 40.7009 16.4215 40.8214C15.9895 41.0374 15.6308 41.349 15.3428 41.7325C15.1752 41.9721 15.1032 42.2366 15.2223 42.5482C15.3663 42.8597 15.5339 43.1478 15.8219 43.3153C16.2055 43.5313 16.5891 43.7224 16.9727 43.8665C17.7163 44.1545 18.4834 44.419 19.252 44.7056C19.6826 44.8746 20.1382 45.0421 20.5703 45.2581C21.0508 45.4742 21.0743 45.7373 20.6658 46.1208C20.3792 46.3853 20.0911 46.6249 19.8031 46.8409C18.9639 47.4641 18.0763 48.0152 17.1416 48.4957C15.6059 49.2629 14.0716 50.03 12.4888 50.6781C11.9612 50.8927 11.4336 51.1337 10.9545 51.4203C10.3784 51.7568 10.3784 52.4284 10.9545 52.812C11.0985 52.9075 11.2896 53.028 11.4821 53.028C12.8239 53.028 14.1671 53.1236 15.4868 52.9796C16.686 52.8605 17.8603 52.812 19.036 52.7885C19.468 52.7635 19.8987 52.7885 20.3072 52.6915C20.9538 52.5475 21.6255 52.5475 22.2971 52.5004C22.8731 52.4755 23.4478 52.5004 24.0003 52.4049C24.6235 52.2844 25.2231 52.2609 25.8462 52.2609C27.0454 52.2609 28.2211 52.2609 29.4189 52.2609C29.7554 52.2609 30.0905 52.2359 30.427 52.3079C31.3617 52.524 32.3213 52.4755 33.281 52.4755C35.0078 52.4755 36.7096 52.4755 38.4364 52.452C38.82 52.452 39.2036 52.4049 39.5872 52.38C40.0677 52.3564 40.5233 52.2844 41.0024 52.2844C43.5199 52.2609 46.0623 52.2844 48.5812 52.2844C48.9163 52.2844 49.2514 52.2609 49.5879 52.3079C50.5226 52.5004 51.4822 52.452 52.4419 52.4755C53.5926 52.5004 54.7198 52.524 55.8705 52.5475C56.2541 52.5475 56.6377 52.596 56.9977 52.6195C57.5253 52.668 58.0294 52.74 58.557 52.74C60.9304 52.7635 63.3288 52.7635 65.7037 52.7885C66.1828 52.7885 66.662 52.7635 67.1425 52.74C67.7171 52.3564 68.0301 51.7568 68.4137 51.2292C70.7387 47.8476 73.3766 44.7305 76.2306 41.781C82.3942 35.281 89.1324 29.3348 95.9441 23.4593Z" fill="#EFC77F"/>
</g>
<path d="M160.597 34.226C161.029 33.7953 161.508 33.4117 161.964 32.9797C165.441 29.7657 168.871 26.481 172.372 23.267C172.708 22.9554 173.259 22.5954 172.852 21.9487C171.844 21.6607 170.861 21.3962 169.854 21.0846C169.231 20.8935 168.56 20.7495 168.104 20.2219C167.935 20.0294 168.439 19.4783 169.471 18.6862C170.598 17.8235 171.749 17.0079 172.876 16.1452C173.331 15.8087 173.764 15.4251 174.147 15.018C174.77 14.3699 174.626 13.5792 173.836 13.1236C173.715 13.0516 173.595 12.9796 173.452 12.9312C172.78 12.7151 172.132 12.4036 171.414 12.4271C170.789 12.5961 170.31 12.9796 169.831 13.3632C162.731 18.9742 155.825 24.8262 148.751 30.4622C143.331 34.7536 137.887 38.9992 131.868 42.4528C129.302 43.9387 126.664 45.2819 123.666 45.6655C121.364 45.9535 119.998 44.4427 120.5 42.1883C121.004 39.9824 122.18 38.1601 123.498 36.3848C128.654 29.479 134.938 23.627 141.269 17.8471C146.833 12.7871 152.611 7.9668 158.51 3.29048C158.942 2.93044 159.638 2.45131 159.375 1.94726C159.086 1.41967 158.271 1.68415 157.671 1.80463C155.202 1.85171 152.732 1.75616 150.261 2.13974C149.829 2.42777 149.327 2.59533 148.895 2.93044C143.403 7.24811 137.911 11.5879 132.563 16.0967C124.649 22.7629 116.832 29.5746 109.014 36.3848C103.259 41.4212 97.4301 46.3855 91.4355 51.1339C91.0034 51.469 90.3803 51.685 90.5243 52.4286C91.0034 52.4286 91.484 52.4522 91.9395 52.4522C96.6879 52.3802 101.46 52.4522 106.208 52.5242C106.64 52.5242 107.071 52.5242 107.479 52.5962C108.054 52.7167 108.606 52.7167 109.181 52.7167C113.378 52.7167 117.551 52.7167 121.748 52.7167C122.611 52.7167 123.45 52.7402 124.314 52.5477C124.674 52.4757 125.081 52.5006 125.441 52.5006C127.335 52.4757 129.253 52.4522 131.149 52.4286C131.533 52.4286 131.916 52.4522 132.275 52.3566C132.899 52.2362 133.499 52.2126 134.122 52.2126C134.745 52.2126 135.37 52.1891 135.968 52.1891C137.576 52.1406 139.206 52.2611 140.813 51.973C141.101 51.9246 141.388 51.9481 141.676 51.9481C142.059 51.9246 142.443 51.901 142.803 51.8775C144.123 51.3499 144.697 50.0302 145.634 49.1191C150.669 44.2032 155.633 39.2153 160.597 34.226Z" fill="#EFC77F"/>
<path d="M146.808 3.41088C147.191 3.09931 147.791 2.90682 147.672 2.23522C146.761 2.23522 145.848 2.16321 144.962 2.28368C144.026 2.40277 143.068 2.4277 142.131 2.45124C140.669 2.47478 139.182 2.49971 137.72 2.52325C137.336 2.52325 136.951 2.49971 136.592 2.57171C135.849 2.73927 135.082 2.73927 134.313 2.73927C132.611 2.73927 130.908 2.73927 129.181 2.71573C128.751 2.71573 128.342 2.66726 127.911 2.61879C126.88 2.49971 125.825 2.49971 124.793 2.59525C124.074 2.66726 123.378 2.6908 122.659 2.71573C121.292 2.73927 119.901 2.76281 118.534 2.78773C117.743 3.50642 117.407 4.56161 116.735 5.35369C113.929 8.66188 110.789 11.6363 107.575 14.5623C101.939 19.6943 96.0883 24.5617 90.3803 29.6216C85.4644 33.9863 80.5956 38.4231 76.0868 43.195C73.7133 45.7139 71.4105 48.3518 69.4926 51.2529C69.2046 51.6849 68.6534 52.0921 69.0605 52.7637C69.6366 52.7886 70.1877 52.8121 70.7638 52.7886C74.2174 52.7886 77.6696 52.7637 81.1232 52.7637C82.2504 52.7637 83.4011 52.7401 84.5283 52.7637C85.6804 52.7886 86.7827 52.5476 87.9099 52.5006C88.677 52.117 89.3486 51.5894 90.0202 51.0369C100.284 42.9804 109.973 34.2508 119.829 25.7373C128.702 18.1115 137.648 10.6047 146.808 3.41088Z" fill="#EFC77F"/>
<path d="M43.5685 25.6886C40.9306 29.4538 38.6526 33.4114 37.333 37.8233C36.8538 39.4545 36.4467 41.1328 36.9258 42.8832C37.4299 44.7055 38.197 45.3051 40.0429 45.4256C42.5853 45.5931 44.8162 44.682 47.0221 43.6268C53.4252 40.5568 59.0363 36.289 64.5767 31.9242C70.4273 27.2714 76.1117 22.4275 82.0343 17.8717C88.677 12.7633 95.5357 7.94295 102.922 3.93823C103.331 3.72221 103.977 3.57819 103.666 2.83458C103.522 2.83458 103.378 2.81104 103.234 2.81104C99.9005 2.81104 96.5909 2.81103 93.2578 2.83458C92.9698 2.83458 92.6818 2.83458 92.4187 2.90658C91.8426 3.02706 91.2915 3.02706 90.7154 3.02706C88.774 3.0506 86.8076 3.07414 84.8648 3.09906C84.4328 3.09906 84.0007 3.09906 83.5936 3.17107C82.9704 3.29016 82.3708 3.29016 81.7463 3.31509C79.0848 3.33863 76.4233 3.36217 73.7618 3.41064C73.3298 3.41064 72.8977 3.38571 72.4906 3.45772C71.819 3.57819 71.1709 3.57819 70.4993 3.60173C68.7005 3.62666 66.8782 3.6502 65.0794 3.67374C64.6238 3.93823 64.1211 4.03378 63.6891 4.39381C61.2187 6.48065 58.7732 8.59102 56.4232 10.8205C51.65 15.3293 47.3572 20.2936 43.5685 25.6886Z" fill="#EFC77F"/>
<mask id="mask1_968_5071" style="mask-type:luminance" maskUnits="userSpaceOnUse" x="121" y="0" width="60" height="45">
<path d="M121.281 0.378418H180.837V44.8458H121.281V0.378418Z" fill="white"/>
</mask>
<g mask="url(#mask1_968_5071)">
<path d="M138.654 21.6613C133.427 26.5537 128.319 31.518 124.098 37.3202C122.994 38.8559 121.915 40.4622 121.508 42.3815C121.172 43.9642 121.915 44.8989 123.547 44.8034C124.602 44.7549 125.609 44.3949 126.568 44.0113C131.796 41.9259 136.353 38.7118 140.837 35.4023C150.405 28.3275 159.398 20.5106 168.704 13.0758C169.062 12.7878 169.518 12.5482 169.399 11.9486C169.278 11.8531 169.206 11.7326 169.302 11.5886C169.374 11.4695 169.494 11.3726 169.59 11.277C170.526 10.3174 171.581 9.50313 172.66 8.71105C174.027 7.75141 175.37 6.76823 176.713 5.78505C177.912 4.92235 179.04 3.98625 180.07 2.90752C180.358 2.59595 180.597 2.23592 180.741 1.8288C180.813 1.63632 180.766 1.44522 180.694 1.27766C180.502 0.797153 180.167 0.485582 179.639 0.462041C179.351 0.437115 179.063 0.413574 178.775 0.413574C176.976 0.437115 175.154 0.462041 173.355 0.485582C173.067 0.485582 172.78 0.485582 172.492 0.557589C171.844 0.725145 171.173 0.701604 170.501 0.750071C169.183 0.820693 167.863 1.08518 166.521 1.10872C165.873 1.3012 165.202 1.3012 164.53 1.3012C163.858 1.3012 163.212 1.37321 162.564 1.58923C162.085 1.90081 161.557 2.0919 161.101 2.45194C157.241 5.54549 153.403 8.66258 149.613 11.8766C145.897 15.0657 142.227 18.3033 138.654 21.6613Z" fill="#EFC77F"/>
</g>
<mask id="mask2_968_5071" style="mask-type:luminance" maskUnits="userSpaceOnUse" x="145" y="22" width="40" height="30">
<path d="M145.032 22.5122H184.361V51.9356H145.032V22.5122Z" fill="white"/>
</mask>
<g mask="url(#mask2_968_5071)">
<path d="M183.979 26.4807C183.86 26.2882 183.667 26.1206 183.5 25.9766C182.9 25.4975 182.229 25.1375 181.508 24.8494C180.597 24.4658 179.663 24.0823 178.726 23.7458C177.576 23.3387 176.401 22.9066 175.177 22.7155C174.435 22.451 174.027 23.0035 173.595 23.4107C169.303 27.4638 164.938 31.4201 160.669 35.5218C155.825 40.1732 151.124 44.9935 146.401 49.7668C145.825 50.3414 145.106 50.9175 145.129 51.9007C146.376 51.8771 147.6 51.8771 148.846 51.8522C149.541 51.6611 150.261 51.6847 150.981 51.6847C152.037 51.6611 153.067 51.6362 154.122 51.6127C154.459 51.6127 154.794 51.6362 155.13 51.5406C155.921 51.3495 156.737 51.3731 157.552 51.3495C159.254 51.3246 160.957 50.9646 162.659 51.0131C162.708 51.0131 162.756 51.0131 162.803 50.9895C163.547 50.7735 164.314 50.797 165.058 50.7735C165.346 50.7735 165.634 50.7735 165.922 50.7015C166.617 50.509 167.335 50.4855 168.056 50.4855C168.295 50.4855 168.535 50.4619 168.751 50.3899C169.255 50.2459 169.782 50.2459 170.31 50.1974C170.693 50.1739 171.054 50.1254 171.437 50.0783C171.821 50.0299 172.181 49.9814 172.564 49.9343C172.899 49.8859 173.236 49.8859 173.547 49.8374C174.482 49.6948 175.418 49.4787 176.353 49.4067C177.648 49.2863 178.87 48.9511 180.142 48.7587C180.766 48.6631 181.317 48.3751 181.701 47.8475C181.868 47.6079 181.964 47.3434 181.821 47.0568C181.701 46.7923 181.605 46.5292 181.364 46.3367C180.981 46.0016 180.597 45.618 180.167 45.33C179.231 44.6819 178.247 44.0823 177.313 43.4592C176.665 43.0507 176.041 42.6436 175.418 42.2115C174.698 41.7089 174.675 41.3253 175.37 40.7492C175.849 40.3656 176.353 40.0056 176.857 39.6705C177.288 39.3825 177.671 39.0224 178.008 38.6153C178.368 38.1833 178.343 37.5837 177.936 37.2001C177.72 37.0076 177.48 36.84 177.241 36.721C176.809 36.5285 176.353 36.3845 175.897 36.2654C175.082 36.0244 174.243 35.8333 173.427 35.5938C173.355 35.5688 173.331 35.4498 173.308 35.3777C173.308 35.3528 173.331 35.2808 173.355 35.2573C173.499 35.1382 173.619 34.9942 173.787 34.8972C174.554 34.4416 175.346 33.9625 176.113 33.5305C177.313 32.8589 178.535 32.2122 179.735 31.5406C180.597 31.0365 181.461 30.5325 182.277 29.9578C182.756 29.6462 183.163 29.2377 183.572 28.8541C183.763 28.663 183.93 28.3986 184.051 28.159C184.411 27.5359 184.339 26.9833 183.979 26.4807Z" fill="#EFC77F"/>
</g>
<path d="M13.0401 32.452C13.5442 32.3565 13.8793 31.9964 14.2158 31.6599C17.8134 28.0388 21.6492 24.7057 25.4143 21.3006C31.4339 15.8335 37.5019 10.4136 44.0961 5.6168C44.4561 5.35369 44.9353 5.11275 44.7913 4.4896C44.1196 4.51314 43.4494 4.44114 42.8014 4.56161C42.0342 4.68209 41.2906 4.72917 40.5234 4.75409C39.9958 4.77763 39.4682 4.77763 38.9642 4.87318C38.341 4.99366 37.7414 5.0172 37.1183 5.04074C36.5422 5.06566 35.9662 5.0172 35.4151 5.13767C34.5759 5.30523 33.7118 5.30523 32.8491 5.32877C32.129 5.35369 31.4103 5.28169 30.7152 5.40077C29.588 5.59326 28.4359 5.59326 27.3101 5.6168C26.734 5.64034 26.1579 5.6168 25.6068 5.71235C24.9837 5.83282 24.3841 5.85636 23.7595 5.88129C22.7044 5.92837 21.6741 5.85636 20.6424 6.12085C19.2522 6.09592 17.9089 6.36041 16.5173 6.45596C16.2777 6.48089 16.0381 6.45596 15.7986 6.50443C14.6949 6.79246 13.5206 6.72045 12.417 7.00848C11.9614 7.12757 11.4823 7.22312 11.0267 7.29512C9.80256 7.48761 8.62828 7.84764 7.45262 8.2783C6.92503 8.47078 6.42236 8.78235 5.91831 9.04684C5.60674 9.2144 5.41426 9.4775 5.27025 9.78907C5.00714 10.2931 5.07915 10.8443 5.4378 11.2528C5.84631 11.6848 6.32543 11.9715 6.87795 12.1404C7.81266 12.452 8.7723 12.7635 9.73055 13.0266C11.9379 13.6262 14.1438 14.2258 16.2777 15.0179C17.3578 15.4015 18.413 15.8335 19.4197 16.3847C19.8033 16.6007 20.1384 16.8403 20.4749 17.1034C20.81 17.3679 20.7629 17.631 20.3793 17.8954C20.1384 18.063 19.8988 18.207 19.6357 18.3275C18.8686 18.7346 18.0765 19.0226 17.2609 19.3107C15.0549 20.0778 12.8241 20.7494 10.5946 21.421C9.49099 21.7562 8.4358 22.1397 7.33354 22.4042C5.99032 22.7393 4.69557 23.2434 3.42436 23.7225C2.89677 23.915 2.44118 24.1781 1.96067 24.4177C1.60202 24.5866 1.33753 24.8497 1.07443 25.1377C0.71439 25.5449 0.642383 26.0974 0.930413 26.6C1.12151 26.9365 1.36107 27.2246 1.72111 27.4157C2.44118 27.7992 3.15987 28.1828 3.87995 28.5429C6.73394 29.9581 9.70701 31.1324 12.633 32.4285C12.7286 32.4285 12.8961 32.4285 13.0401 32.452Z" fill="#EFC77F"/>
<path d="M68.3656 30.486C68.7977 30.1024 69.2768 29.8144 69.6839 29.4073C70.3805 28.7592 71.2432 28.3036 71.8428 27.56C71.8912 27.488 71.9868 27.4396 72.0823 27.3925C72.8495 26.984 73.3535 26.2417 74.1207 25.8332C74.5292 25.3056 75.2008 25.0661 75.6564 24.562C76.328 23.8184 77.2627 23.3628 77.9343 22.6206C78.7499 22.2121 79.2775 21.3965 80.0918 20.9894C80.4047 20.6058 80.8839 20.4618 81.219 20.1253C82.2991 19.1185 83.5218 18.3278 84.721 17.4402C85.6087 16.7921 86.4714 16.1455 87.3354 15.4739C88.6053 14.4907 89.9249 13.5546 91.2432 12.6434C93.9061 10.7975 96.5912 9.0472 99.3732 7.39241C100.405 6.79281 101.435 6.19321 102.467 5.61715C103.714 4.922 105.009 4.3224 106.304 3.69926C106.975 3.36276 107.694 3.07473 108.463 2.97918C108.582 2.95564 108.702 2.85871 108.821 2.78809C107.119 2.78809 105.393 2.78809 103.689 2.78809C103.666 2.97918 103.594 3.14674 103.426 3.26721C103.306 3.33922 103.187 3.41123 103.043 3.48323C101.916 4.10638 100.788 4.68244 99.6612 5.32912C98.8691 5.7847 98.1269 6.28876 97.3583 6.74434C96.2076 7.41595 95.1053 8.15956 93.9781 8.85471C92.1073 10.0054 90.3805 11.3251 88.5817 12.5479C88.2702 12.7639 87.9586 12.9799 87.647 13.1959C86.6874 13.8911 85.7527 14.6098 84.793 15.3063C83.8334 16.025 82.8987 16.7451 81.9626 17.4402C81.363 17.8958 80.7634 18.3749 80.1887 18.8554C79.8287 19.1421 79.4686 19.4786 79.0615 19.7181C78.6059 20.0062 78.2459 20.3898 77.8388 20.7013C77.2627 21.1098 76.7587 21.6125 76.1591 22.021C75.7284 22.3326 75.3434 22.6677 74.9599 23.0042C74.5292 23.3878 74.0487 23.6758 73.6416 24.0829C73.0184 24.6825 72.2263 25.0661 71.6752 25.7141C70.7391 26.2168 70.1395 27.128 69.2048 27.632C68.5097 28.3757 67.622 28.8312 66.9269 29.5749C66.6388 29.8864 66.2317 30.0775 65.9202 30.342C64.84 31.2532 63.6893 32.1159 62.5621 32.98C62.4181 33.1005 62.227 33.1711 62.1065 33.3151C61.1469 34.2512 60.0197 34.9699 58.9645 35.762C57.5742 36.8171 56.087 37.7519 54.6482 38.76C53.0419 39.8622 51.3871 40.9174 49.6839 41.8535C47.982 42.7882 46.2303 43.6509 44.4079 44.3475C43.6172 44.659 42.7781 44.8986 41.9375 44.9941C41.1468 45.0662 40.3077 45.0426 39.5156 45.0191C38.7013 44.9706 38.0768 44.5635 37.6697 43.8434C37.4537 43.4598 37.4537 43.0278 37.3097 42.6207C37.0216 41.7815 37.0466 40.9423 37.2612 40.1018C37.3332 39.8872 37.3817 39.6462 37.3817 39.4066C37.3817 38.9746 37.5257 38.5675 37.6462 38.1604C38.2208 36.2411 38.9644 34.3952 39.8756 32.6199C40.8588 30.6536 42.0095 28.8077 43.1616 26.9604C43.6643 26.1697 44.2888 25.4261 44.7915 24.634C45.6071 23.4113 46.6152 22.3326 47.4544 21.1334C48.1731 20.4382 48.6287 19.527 49.3958 18.879C49.4678 18.8305 49.5398 18.735 49.5648 18.663C49.8514 18.0869 50.3319 17.7033 50.764 17.2477C51.1226 16.8642 51.5547 16.529 51.8192 16.097C52.1543 15.5694 52.5863 15.1374 53.017 14.7067C54.0486 13.6515 55.1038 12.6199 56.159 11.5647C56.8306 10.8931 57.4537 10.173 58.2929 9.67034C58.4618 9.57479 58.5809 9.40585 58.7014 9.28676C59.517 8.49468 60.3077 7.67905 61.2424 6.9839C61.9625 6.45631 62.4901 5.68916 63.3057 5.23357C63.7849 4.70598 64.3374 4.27393 64.9356 3.86681C65.0076 3.81835 65.0561 3.7228 65.1045 3.62725C64.0244 3.62725 62.9457 3.60232 61.842 3.60232C60.7148 3.60232 59.589 3.62725 58.4369 3.62725C58.1489 3.62725 57.8622 3.65079 57.6462 3.84327C58.797 3.84327 59.9242 3.86681 61.0749 3.86681C61.2674 3.86681 61.4585 3.89035 61.6274 3.91389C61.6745 3.91389 61.723 4.10638 61.6994 4.15484C61.2424 4.77798 60.7148 5.32912 60.0917 5.76116C59.5641 6.1212 59.1335 6.55186 58.7014 6.96036C58.3178 7.3204 57.9813 7.75106 57.5507 8.01555C57.0231 8.35066 56.591 8.78271 56.159 9.21475C54.6718 10.7006 53.1859 12.1643 51.7222 13.6515C51.1226 14.2511 50.451 14.8023 50.0439 15.5694C49.9719 15.6899 49.8514 15.7854 49.7559 15.881C49.1327 16.529 48.4376 17.1037 47.982 17.9193C47.2384 18.5189 46.7828 19.4066 46.1347 20.0782C45.8467 20.3898 45.6307 20.7733 45.3676 21.1098C45.056 21.4685 44.7444 21.8285 44.4564 22.2121C43.9288 22.9322 43.4497 23.7229 42.8972 24.418C41.8669 25.6892 41.0984 27.1044 40.2357 28.4477C39.8756 28.9988 39.5156 29.5749 39.2289 30.1745C38.3884 31.8763 37.4772 33.556 36.7821 35.3299C36.35 36.4336 36.1354 37.6078 35.7989 38.735C35.6784 39.1671 35.7033 39.5742 35.6549 40.0062C35.6313 40.2458 35.6078 40.4854 35.5109 40.7014C35.3433 41.1819 35.3433 41.6375 35.4873 42.0931C35.5593 42.3562 35.6078 42.6442 35.6549 42.9322C35.7753 43.9639 36.2309 44.8751 36.9745 45.5467C37.7888 46.2889 38.7733 46.7694 39.9476 46.7209C40.4752 46.6974 41.0028 46.7209 41.5304 46.7209C41.8669 46.7209 42.1785 46.6739 42.5136 46.6018C44.0008 46.2889 45.4396 45.7378 46.8063 45.1382C48.7242 44.299 50.5715 43.3158 52.3468 42.1886C52.873 41.8535 53.4006 41.5406 53.9046 41.2054C55.5359 40.1267 57.1422 39.0466 58.725 37.9194C60.5002 36.6496 62.2021 35.3064 63.9524 33.9867C64.3609 33.6751 64.8165 33.3871 65.1765 33.0284C65.7997 32.4288 66.5904 32.0453 67.1429 31.3972C67.6456 31.2532 67.9821 30.8461 68.3656 30.486Z" fill="#F6E3C5"/>
<path d="M148.103 31.4694C148.846 30.9418 149.495 30.3422 150.213 29.7911C151.077 29.143 151.94 28.4479 152.779 27.7527C153.404 27.2487 154.05 26.7696 154.65 26.217C155.082 25.8335 155.489 25.4499 155.97 25.1383C156.449 24.8268 156.76 24.3227 157.288 24.0596C157.504 23.9627 157.648 23.7716 157.839 23.604C158.224 23.244 158.559 22.8355 159.063 22.6208C159.638 22.0448 160.358 21.6377 160.934 21.0851C161.653 20.39 162.54 19.9109 163.212 19.1672C163.691 18.9512 164.051 18.5427 164.435 18.2076C164.818 17.8725 165.297 17.608 165.657 17.2244C166.257 16.6013 167.073 16.2648 167.624 15.5932C168.247 15.2581 168.727 14.682 169.302 14.2749C169.662 14.0353 169.974 13.7708 170.31 13.4828C170.622 13.1962 170.982 12.9552 171.317 12.6921C171.389 12.6436 171.412 12.5246 171.461 12.4526C171.198 12.3556 170.933 12.213 170.67 12.1881C170.238 12.1645 169.83 12.0205 169.423 11.925C169.231 12.141 169.087 12.4041 168.846 12.5481C168.391 12.8361 168.032 13.2197 167.624 13.5077C167.049 13.9149 166.545 14.4424 165.969 14.851C165.49 15.1861 165.058 15.5461 164.651 15.9297C164.483 16.0972 164.291 16.2412 164.098 16.3853C163.331 16.9364 162.612 17.5595 161.869 18.1591C161.125 18.7587 160.358 19.3113 159.686 19.9829C159.422 20.246 159.063 20.4135 158.775 20.6531C158.055 21.2776 157.241 21.7803 156.616 22.5004C156.544 22.5724 156.472 22.6208 156.377 22.6679C155.97 22.8604 155.705 23.172 155.394 23.4835C155.178 23.676 154.986 23.9156 154.746 24.0347C154.003 24.4667 153.451 25.1383 152.732 25.6174C152.012 26.073 151.437 26.7446 150.766 27.2487C150.141 27.7043 149.614 28.2319 148.99 28.6639C148.63 28.9035 148.319 29.1915 147.984 29.4546C147.624 29.7662 147.192 29.9822 146.857 30.3187C146.473 30.7023 146.041 30.9654 145.609 31.277C145.202 31.5885 144.842 31.9735 144.386 32.2601C143.475 32.8597 142.636 33.5563 141.772 34.2265C140.502 35.2346 139.182 36.1458 137.864 37.0569C136.112 38.2797 134.338 39.4553 132.516 40.5825C131.819 41.0132 131.149 41.4217 130.429 41.7817C129.206 42.4049 127.984 43.028 126.688 43.5556C125.801 43.9156 124.89 44.1552 123.978 44.3948C123.307 44.5637 122.659 44.4668 122.083 44.0361C121.892 43.8921 121.748 43.6996 121.748 43.4365C121.748 43.1956 121.725 42.956 121.772 42.7164C122.011 41.5657 122.42 40.5825 123.043 39.5744C123.714 38.4957 124.363 37.3685 125.177 36.3853C125.776 35.6417 126.257 34.8026 126.976 34.1794C127.12 34.0589 127.264 33.9149 127.336 33.7474C127.624 33.1713 128.103 32.7877 128.535 32.3321C128.895 31.9486 129.302 31.6135 129.59 31.1814C129.902 30.7023 130.285 30.2938 130.692 29.8867C132.756 27.8248 134.794 25.7615 136.856 23.7231C137.504 23.1 138.079 22.4048 138.871 21.9243C139.11 21.7803 139.303 21.5407 139.494 21.3496C140.142 20.7016 140.765 20.0784 141.413 19.4303C141.604 19.2393 141.797 18.9997 142.036 18.8557C142.636 18.5192 143.068 18.0151 143.547 17.5595C144.026 17.104 144.458 16.5764 145.058 16.2648C145.25 16.1692 145.418 15.9532 145.585 15.7857C146.161 15.2345 146.689 14.5865 147.408 14.2029C148.175 13.3637 149.134 12.7157 149.974 11.9485C150.19 11.756 150.357 11.5165 150.622 11.3724C151.101 11.1093 151.437 10.7258 151.844 10.3893C152.228 10.0541 152.707 9.78966 153.067 9.40608C153.811 8.59184 154.818 8.11133 155.538 7.24863C156.089 6.88859 156.616 6.48147 157.097 6.00096C157.169 5.92895 157.241 5.88187 157.336 5.83341C157.744 5.66585 158.008 5.30581 158.343 5.04132C158.703 4.72975 159.135 4.51373 159.47 4.17862C159.854 3.79504 160.309 3.55548 160.718 3.21898C161.125 2.88387 161.46 2.50029 161.941 2.2358C162.229 2.09179 162.468 1.82868 162.587 1.49219C161.221 1.49219 159.854 1.51711 158.487 1.51711C158.199 1.51711 157.911 1.54065 157.696 1.73314C158.176 1.75668 158.631 1.78022 159.11 1.82868C159.159 1.82868 159.231 1.99624 159.207 2.04471C158.919 2.50029 158.559 2.85894 158.104 3.12343C157.72 3.33945 157.432 3.65103 157.12 3.93906C156.76 4.25063 156.328 4.49019 155.993 4.80176C155.298 5.44983 154.434 5.90541 153.834 6.64903C153.787 6.72104 153.69 6.76812 153.62 6.81658C153.188 7.03261 152.851 7.39264 152.516 7.70421C152.3 7.89531 152.108 8.11133 151.868 8.25535C151.484 8.47137 151.196 8.7594 150.885 9.07097C150.669 9.26207 150.501 9.50301 150.238 9.64564C149.758 9.91013 149.399 10.2702 149.039 10.6302C148.871 10.7978 148.702 10.9889 148.486 11.0858C148.007 11.3254 147.647 11.7089 147.289 12.0925C147.073 12.2836 146.904 12.5481 146.664 12.6686C145.92 13.0992 145.346 13.7473 144.723 14.3469C144.554 14.5145 144.386 14.7069 144.17 14.8025C143.691 15.042 143.354 15.4492 142.971 15.8092C142.396 16.3617 141.869 16.9849 141.149 17.392C140.909 17.536 140.717 17.7756 140.525 17.968C140.093 18.4001 139.661 18.8557 139.206 19.2863C138.966 19.5273 138.75 19.7904 138.464 19.9579C137.959 20.246 137.576 20.6531 137.167 21.0616C135.321 22.9075 133.451 24.7547 131.605 26.6256C130.237 28.0159 128.774 29.2871 127.599 30.8698C127 31.6605 126.16 32.2601 125.657 33.1242C125.033 33.6518 124.602 34.347 124.098 34.9701C123.547 35.6902 123.019 36.4089 122.515 37.1525C122.227 37.5845 122.011 38.0637 121.7 38.4957C120.837 39.7669 120.356 41.2057 120.045 42.7164C119.877 43.4601 120.165 44.1317 120.549 44.7313C120.884 45.2589 121.437 45.594 122.036 45.7615C122.611 45.9305 123.187 46.2171 123.835 45.9055C124.026 45.81 124.291 45.81 124.53 45.81C124.914 45.81 125.274 45.6895 125.632 45.5704C127.048 45.1148 128.391 44.5873 129.734 43.9392C130.933 43.3645 132.084 42.6929 133.235 42.0213C133.883 41.6377 134.506 41.2057 135.154 40.7986C136.976 39.6949 138.655 38.3752 140.453 37.201C140.693 37.0334 140.933 36.9129 141.172 36.7218C142.899 35.3786 144.651 34.0839 146.352 32.7406C146.929 32.4041 147.48 31.9015 148.103 31.4694Z" fill="#F6E3C5"/>
<path d="M121.748 25.7857C122.299 25.4976 122.731 25.0171 123.163 24.61C123.378 24.4175 123.547 24.178 123.81 24.034C124.314 23.7459 124.698 23.3388 125.105 22.9317C125.321 22.7392 125.488 22.4996 125.729 22.3556C126.329 22.0205 126.759 21.5165 127.24 21.0609C127.456 20.8684 127.647 20.6524 127.887 20.5097C128.27 20.2937 128.558 19.9822 128.87 19.6941C129.134 19.4296 129.422 19.1665 129.757 18.9741C130.045 18.8065 130.262 18.5669 130.525 18.3274C130.741 18.1349 130.908 17.8953 131.149 17.7513C131.747 17.4162 132.179 16.9357 132.66 16.4801C132.827 16.3125 132.995 16.1201 133.187 16.0245C133.667 15.785 134.002 15.3778 134.385 15.0413C134.817 14.6578 135.298 14.3697 135.705 13.9862C136.4 13.3381 137.264 12.8825 137.864 12.1403C137.911 12.0683 138.006 12.0198 138.103 11.9713C138.919 11.3967 139.661 10.7486 140.43 10.1254C141.053 9.62139 141.748 9.18935 142.299 8.59113C143.068 8.20617 143.57 7.43902 144.338 7.05544C144.77 6.59985 145.297 6.28828 145.778 5.88116C146.257 5.4962 146.736 5.08908 147.24 4.72904C148.079 4.12944 148.846 3.38583 149.71 2.81115C149.926 2.66714 150.069 2.37911 150.262 2.16309C149.399 2.18801 148.511 2.18801 147.647 2.21155C147.6 2.28356 147.552 2.40265 147.48 2.45112C146.568 3.14626 145.634 3.77079 144.818 4.56149C144.242 4.82598 143.882 5.37711 143.354 5.68868C142.612 6.12073 142.108 6.86434 141.316 7.24792C140.765 7.91953 139.974 8.3031 139.35 8.87778C138.75 9.40537 138.103 9.90942 137.479 10.3886C137.144 10.653 136.809 10.8926 136.496 11.2042C136.233 11.4687 135.968 11.7318 135.609 11.9242C135.393 12.0433 135.201 12.1874 135.057 12.3549C134.385 13.1234 133.451 13.5541 132.779 14.2977C132.204 14.5622 131.796 15.0413 131.364 15.4734C131.292 15.5454 131.245 15.6174 131.149 15.6645C130.453 16.0245 129.973 16.6006 129.422 17.1282C129.278 17.2473 129.158 17.4162 128.99 17.4868C128.511 17.7278 128.175 18.1113 127.791 18.4714C127.624 18.6389 127.456 18.83 127.24 18.927C126.759 19.1665 126.424 19.5737 126.041 19.9337C125.825 20.1248 125.657 20.3893 125.418 20.5097C124.746 20.8933 124.242 21.468 123.691 21.9956C123.547 22.1161 123.426 22.2836 123.259 22.3556C122.78 22.5952 122.443 22.9788 122.06 23.3624C121.844 23.5548 121.676 23.8179 121.436 23.9384C120.765 24.322 120.261 24.898 119.71 25.4256C119.566 25.5447 119.445 25.7137 119.278 25.7857C118.75 26.0488 118.39 26.4808 117.983 26.8879C117.646 27.2244 117.311 27.5831 116.928 27.824C116.521 28.0871 116.184 28.4236 115.849 28.7352C115.608 28.9748 115.393 29.2628 115.129 29.4068C114.457 29.7904 113.953 30.3651 113.402 30.8927C113.186 31.0851 113.018 31.3247 112.755 31.4687C112.156 31.8038 111.724 32.3079 111.245 32.7635C111.004 33.003 110.789 33.2675 110.501 33.4351C109.901 33.7702 109.469 34.2742 108.99 34.7298C108.821 34.8974 108.654 35.0899 108.463 35.2103C107.91 35.497 107.503 35.9775 107.047 36.4082C106.783 36.6726 106.543 36.9842 106.208 37.1767C105.609 37.5118 105.177 38.0159 104.697 38.4715C104.53 38.639 104.361 38.8315 104.17 38.927C103.642 39.1901 103.282 39.6222 102.85 40.0293C102.634 40.2218 102.467 40.4613 102.227 40.6054C101.627 40.9419 101.195 41.421 100.716 41.8766C100.5 42.0677 100.309 42.2837 100.068 42.4277C99.6847 42.6437 99.3966 42.9553 99.0851 43.2433C98.869 43.4358 98.6779 43.6754 98.4384 43.7945C97.9579 44.059 97.6227 44.4425 97.2392 44.7776C96.8556 45.1141 96.3751 45.3772 96.0164 45.7373C95.3448 46.4809 94.4087 46.9129 93.7371 47.6801C93.186 47.9681 92.7789 48.4708 92.2748 48.8073C91.7708 49.1673 91.2916 49.5509 90.836 49.9816C90.764 50.0536 90.6685 50.0785 90.5965 50.1505C89.9249 50.6781 89.2297 51.1808 88.5817 51.7084C88.3421 51.9244 88.1496 52.2124 87.9336 52.452C88.7977 52.452 89.6853 52.4284 90.548 52.4284C90.7405 52.2124 90.9081 51.9964 91.0992 51.8053C91.2432 51.6848 91.4592 51.6363 91.5797 51.4923C92.1543 50.8457 92.9229 50.4621 93.5696 49.886C94.1927 49.31 94.8892 48.8073 95.5608 48.2797C95.896 48.0152 96.2311 47.7756 96.544 47.4641C96.7587 47.2716 96.9276 47.032 97.1907 46.888C97.6712 46.6249 98.0299 46.2649 98.3899 45.9048C98.6059 45.7137 98.797 45.4977 99.0615 45.3772C99.3966 45.1861 99.6611 44.9217 99.9491 44.6586C100.165 44.4661 100.333 44.2265 100.572 44.0825C101.172 43.7474 101.604 43.2669 102.083 42.7877C102.251 42.6202 102.42 42.4277 102.611 42.3322C103.138 42.0677 103.498 41.637 103.93 41.2285C104.145 41.0374 104.314 40.7978 104.553 40.6538C105.153 40.3173 105.584 39.8382 106.064 39.3826C106.28 39.1901 106.471 38.9741 106.711 38.8315C107.143 38.5905 107.455 38.2554 107.791 37.9189C108.031 37.6794 108.247 37.3913 108.51 37.2487C109.181 36.8637 109.685 36.2891 110.237 35.7615C110.404 35.5939 110.548 35.4014 110.764 35.281C111.484 34.8738 112.012 34.2507 112.586 33.6982C112.802 33.5071 112.995 33.2911 113.235 33.1471C113.667 32.9075 113.978 32.5724 114.338 32.2359C114.578 31.9963 114.794 31.7083 115.057 31.5643C115.777 31.1572 116.305 30.5326 116.879 29.9815C117.095 29.7904 117.288 29.5744 117.527 29.4304C117.959 29.1908 118.271 28.8543 118.631 28.5192C118.87 28.2796 119.087 27.9916 119.35 27.8476C120.07 27.4391 120.597 26.8159 121.172 26.2648C121.388 26.0972 121.532 25.8812 121.748 25.7857Z" fill="#F6E3C5"/>
<path d="M90.0924 30.2936C90.5964 29.982 90.98 29.5749 91.3871 29.1913C91.7707 28.8313 92.0823 28.3992 92.5143 28.1112C93.1624 27.7041 93.69 27.1529 94.2411 26.6253C94.4087 26.4564 94.5527 26.2418 94.7687 26.1448C95.4403 25.7613 95.9444 25.1866 96.4955 24.659C96.6395 24.5385 96.7586 24.371 96.9276 24.2989C97.4552 24.0345 97.8138 23.6038 98.2223 23.1953C98.5574 22.8602 98.8939 22.5001 99.2775 22.2606C99.6846 21.9961 100.021 21.661 100.356 21.3494C100.596 21.1098 100.812 20.8218 101.076 20.6778C101.748 20.2942 102.251 19.7182 102.803 19.1906C103.018 18.9995 103.187 18.7585 103.426 18.6145C104.026 18.2794 104.458 17.7754 104.937 17.3198C105.177 17.0802 105.393 16.7922 105.681 16.6482C106.352 16.2646 106.855 15.6899 107.407 15.1623C107.719 14.8743 108.007 14.5142 108.366 14.2982C108.87 13.9867 109.253 13.6031 109.662 13.196C111.508 11.3487 113.355 9.47788 115.224 7.65554C116.16 6.74436 116.904 5.76119 117.718 4.56198C118.103 4.01085 118.438 3.45833 118.559 2.76318C117.983 2.76318 117.407 2.76318 116.807 2.78811C116.232 3.86684 115.08 5.4967 114.338 6.24031C112.514 8.06404 110.692 9.88638 108.87 11.6852C108.63 11.9247 108.414 12.1879 108.126 12.3554C107.623 12.6434 107.238 13.0755 106.831 13.4591C106.183 14.0822 105.585 14.7538 104.817 15.2579C104.314 15.593 103.93 16.1206 103.475 16.5291C103.019 16.9362 102.492 17.2962 102.035 17.7033C101.436 18.2559 100.909 18.879 100.189 19.2861C99.9491 19.4301 99.7816 19.6697 99.5655 19.8622C99.3495 20.0547 99.182 20.3178 98.941 20.4618C98.1018 20.9658 97.4787 21.6845 96.8071 22.3326C96.6631 22.4517 96.5191 22.5957 96.3515 22.6926C95.9195 22.9073 95.6079 23.2673 95.2479 23.6038C95.0083 23.8434 94.7923 24.1314 94.5292 24.274C93.8576 24.659 93.3535 25.2337 92.8024 25.7613C92.6348 25.9288 92.4908 26.1213 92.2748 26.2418C91.5076 26.6724 90.9565 27.3205 90.332 27.9201C90.1644 28.0876 89.9968 28.2801 89.7808 28.3757C89.2532 28.6388 88.8932 29.0944 88.4861 29.4793C87.838 30.1025 87.2633 30.7976 86.4477 31.2532C86.2081 31.3972 86.0157 31.6368 85.8232 31.8293C85.3441 32.3084 84.8885 32.764 84.4093 33.2431C84.1933 33.4356 84.0008 33.6751 83.7613 33.7956C83.3292 34.0352 82.9941 34.3703 82.6576 34.7068C79.9961 37.3683 77.3346 40.0298 74.6731 42.6927C74.4322 42.9323 74.1691 43.1483 74.0015 43.4363C73.737 43.8919 73.377 44.2755 72.9934 44.6341C72.1542 45.3542 71.6516 46.3609 70.8595 47.1295C70.6199 47.7291 70.0688 48.0642 69.7088 48.5682C68.8696 49.7674 68.0304 50.9902 67.1899 52.1894C67.0943 52.3334 67.0708 52.548 66.9988 52.717C67.6704 52.717 68.342 52.717 69.0136 52.717C69.0371 52.5729 69.0371 52.4054 69.1092 52.3085C70.2834 50.5097 71.5796 48.8313 72.9699 47.225C73.737 46.3138 74.4571 45.3777 75.3198 44.5635C75.3918 44.4915 75.4403 44.4195 75.4873 44.3475C75.7283 43.867 76.1119 43.5083 76.4955 43.1483C78.4854 41.157 80.4517 39.1671 82.443 37.2007C83.0897 36.5776 83.6657 35.8811 84.4564 35.4019C84.6974 35.2579 84.8885 35.0184 85.081 34.8259C85.5836 34.3232 86.0877 33.8192 86.5917 33.3151C86.8313 33.0755 87.0473 32.8124 87.3353 32.6435C87.982 32.2849 88.4376 31.7323 88.9417 31.2532C89.3737 30.9416 89.6853 30.5581 90.0924 30.2936Z" fill="#F6E3C5"/>
<path d="M36.7097 12.9797C36.7817 12.9077 36.8537 12.8592 36.9493 12.8108C37.6929 12.4037 38.2205 11.66 38.9641 11.2529C39.5152 10.5813 40.2838 10.1728 40.9304 9.62167C41.2185 9.38211 41.5785 9.21455 41.8416 8.95006C42.9923 7.89488 44.312 7.03217 45.5832 6.121C46.4709 5.49648 47.382 4.89826 48.2212 4.20173C47.3336 4.15465 46.4709 4.15465 45.6068 4.39421C45.3437 4.46622 45.0556 4.46622 44.7911 4.48976C44.6236 4.84979 44.3356 5.08936 44.0004 5.28184C43.4008 5.66542 42.8248 6.09608 42.2501 6.50458C41.6976 6.88816 41.2669 7.39221 40.6909 7.75086C39.3961 8.56649 38.316 9.62167 37.1417 10.5813C36.3026 11.2529 35.3665 11.8525 34.6713 12.7152C34.5758 12.8108 34.4553 12.9077 34.3362 12.9797C33.9042 13.1957 33.5926 13.5544 33.2326 13.8909C32.993 14.1304 32.777 14.4185 32.5139 14.5625C31.8423 14.9461 31.3382 15.5207 30.7871 16.0483C30.5711 16.2408 30.4035 16.4804 30.1626 16.6244C29.563 16.9595 29.1323 17.4636 28.6518 17.9191C28.3167 18.2556 28.0051 18.6392 27.6215 18.8788C26.9499 19.2859 26.4459 19.862 25.9183 20.366C25.5832 20.7011 25.2702 21.1096 24.8866 21.3492C23.9519 21.9488 23.2568 22.788 22.4647 23.5316C22.1767 23.7947 21.962 24.1062 21.6255 24.2987C21.0024 24.6588 20.5233 25.2099 20.0192 25.689C19.2271 26.4326 18.5555 27.3203 17.5723 27.8714C16.0616 29.3822 14.4788 30.8209 13.0649 32.4522C13.4956 32.7402 13.9761 33.0033 14.5037 33.0518C14.5508 33.1709 14.6228 33.2678 14.7668 33.2678C14.6713 33.1958 14.5757 33.1238 14.5037 33.0518C14.5993 32.8358 14.7668 32.6433 14.9828 32.5477C15.3429 32.3802 15.606 32.1157 15.8705 31.8526C16.3731 31.3485 16.8772 30.8459 17.3812 30.3418C17.5723 30.1493 17.7648 29.9098 18.0044 29.7658C18.5555 29.4542 18.964 28.9986 19.4196 28.5666C19.9707 28.039 20.4983 27.4878 21.0259 26.9602C21.2184 26.7691 21.4095 26.5282 21.6491 26.3842C22.3691 25.9771 22.8967 25.3539 23.4728 24.8014C23.8799 24.4178 24.2399 23.9387 24.6955 23.6271C25.6302 23.0275 26.3254 22.1884 27.1175 21.4447C27.4055 21.1803 27.6215 20.8451 27.9566 20.6776C28.6282 20.294 29.1074 19.6944 29.6599 19.1904C29.9715 18.9023 30.2595 18.5423 30.6181 18.3276C31.1222 18.0147 31.5058 17.6076 31.9143 17.224C32.2494 16.8889 32.5845 16.5288 32.9695 16.2893C33.3281 16.0483 33.6646 15.7852 33.9526 15.4737C34.8153 14.5625 35.8941 13.9144 36.7097 12.9797Z" fill="#F6E3C5"/>
<path d="M174.963 22.5718C174.266 22.3793 173.548 22.1882 172.852 21.9722C172.78 22.1397 172.78 22.3793 172.66 22.4998C171.916 23.2434 171.27 24.0825 170.358 24.6101C170.166 24.7306 169.998 24.9217 169.831 25.0893C169.446 25.4493 169.087 25.8329 168.704 26.1929C167.768 27.0805 166.977 28.0873 165.873 28.7824C165.681 28.9029 165.538 29.1189 165.369 29.2865C164.962 29.6936 164.578 30.1021 164.146 30.4857C163.212 31.3733 162.42 32.38 161.317 33.0752C161.125 33.1956 160.981 33.4117 160.813 33.5792C155.561 38.8316 150.31 44.0826 145.057 49.335C144.818 49.5746 144.553 49.7906 144.386 50.0786C144.123 50.5342 143.739 50.8928 143.379 51.2778C143.187 51.4924 143.019 51.7085 142.852 51.9245C143.619 51.9245 144.386 51.901 145.153 51.901C145.706 51.2529 146.136 50.5093 146.736 49.9097C151.412 45.2333 156.113 40.557 160.79 35.8571C160.981 35.666 161.173 35.4016 161.413 35.2811C162.18 34.8504 162.731 34.1788 163.331 33.5792C164.218 32.7151 165.082 31.8289 165.969 30.9648C166.208 30.7252 166.424 30.4621 166.712 30.3181C167.168 30.0536 167.528 29.67 167.912 29.31C168.583 28.6384 169.255 27.9668 169.95 27.2966C170.189 27.0556 170.405 26.7925 170.694 26.625C171.198 26.3369 171.581 25.9284 171.988 25.5213C172.78 24.7541 173.548 23.987 174.315 23.1949C174.554 22.9553 174.842 22.7878 175.177 22.7393C175.105 22.6673 175.058 22.5953 174.963 22.5718Z" fill="#F6E3C5"/>
</svg>
