<svg width="184" height="43" viewBox="0 0 184 43" fill="none" xmlns="http://www.w3.org/2000/svg">
<mask id="mask0_968_5056" style="mask-type:luminance" maskUnits="userSpaceOnUse" x="0" y="0" width="184" height="43">
<path d="M0.642578 0.168457H183.319V42.4327H0.642578V0.168457Z" fill="white"/>
</mask>
<g mask="url(#mask0_968_5056)">
<path fill-rule="evenodd" clip-rule="evenodd" d="M178.858 0.19043H0.642578C0.642578 0.19043 1.1314 4.29208 4.01862 8.39374C6.90584 12.4954 8.59386 13.696 7.63145 17.072C6.66905 20.4481 4.74423 22.6249 5.94343 26.2377C7.15787 29.8506 6.90584 30.3394 4.98103 34.1904C3.05621 38.0553 1.84178 42.3937 1.84178 42.3937H179.836C179.836 42.3937 179.584 37.8185 178.858 34.1904C178.146 30.5762 177.896 29.8506 179.11 26.2377C180.309 22.6249 178.621 18.9968 177.896 18.76C177.17 18.5232 178.385 16.5832 179.584 15.6208C180.798 14.6584 184.411 12.9704 182.486 8.63053C180.546 4.29208 178.858 0.19043 178.858 0.19043Z" fill="#E6EEEF"/>
</g>
<path fill-rule="evenodd" clip-rule="evenodd" d="M170.595 16.9391C168.003 15.9754 164.864 15.0877 163.072 15.6056C159.623 16.6123 160.185 21.2028 161.118 22.1957C162.065 23.2024 163.828 24.0914 169.41 22.3286C176.622 20.0632 176.297 19.0703 170.595 16.9391ZM49.1397 5.75861C46.5474 4.7962 43.4082 3.90719 41.6011 4.42509C38.1516 5.43319 38.7139 10.0237 39.6624 11.0152C40.6096 12.0219 42.3572 12.9109 47.9544 11.1481C55.1509 8.88262 54.8408 7.89114 49.1397 5.75861ZM108.801 23.3506C106.21 22.3729 103.071 21.4839 101.279 22.0171C97.8126 23.0252 98.3914 27.6004 99.3233 28.6071C100.272 29.6138 102.033 30.4876 107.617 28.7262C114.813 26.4746 114.502 25.4831 108.801 23.3506Z" fill="#5A7CAF"/>
<path fill-rule="evenodd" clip-rule="evenodd" d="M18.4867 23.1275C15.8944 22.1651 12.7551 21.2775 10.9633 21.7954C7.51382 22.8021 8.07604 27.3787 9.00936 28.3854C9.95654 29.3921 11.7193 30.2812 17.3013 28.5184C24.4979 26.2529 24.1877 25.26 18.4867 23.1275ZM145.851 31.5094C143.259 30.547 140.12 29.658 138.328 30.1773C134.878 31.184 135.441 35.7745 136.374 36.766C137.321 37.7727 139.084 38.6617 144.666 36.9003C151.862 34.6335 151.552 33.642 145.851 31.5094ZM138.195 5.50645C135.604 4.54404 132.465 3.65502 130.673 4.17431C127.207 5.18103 127.77 9.7715 128.718 10.7782C129.665 11.7697 131.412 12.6587 137.011 10.8973C144.207 8.63046 143.896 7.63897 138.195 5.50645ZM84.6933 11.2961C82.0872 10.3199 78.948 9.43085 77.1561 9.94875C73.7053 10.9555 74.2689 15.5459 75.2161 16.554C76.1494 17.5608 77.9108 18.4345 83.4941 16.6718C90.706 14.4063 90.3792 13.4134 84.6933 11.2961ZM56.4249 31.3917C53.8326 30.4141 50.6934 29.5251 48.8876 30.0582C45.4368 31.0511 45.999 35.6416 46.9476 36.6483C47.8948 37.655 49.6423 38.5288 55.2395 36.766C62.4361 34.5005 62.1259 33.5229 56.4249 31.3917Z" fill="white"/>
<mask id="mask1_968_5056" style="mask-type:luminance" maskUnits="userSpaceOnUse" x="3" y="0" width="174" height="43">
<path d="M3.58813 0.168457H176.938V42.4327H3.58813V0.168457Z" fill="white"/>
</mask>
<g mask="url(#mask1_968_5056)">
<path fill-rule="evenodd" clip-rule="evenodd" d="M4.62537 0.19043C3.42617 1.95323 3.91499 4.6632 4.61152 5.40266C5.5587 6.40938 7.32149 7.28316 12.9035 5.52175C20.0557 3.28537 19.7899 2.29388 14.2217 0.19043H4.62537ZM101.619 0.19043H91.1202C90.1577 1.95323 90.6313 4.41117 91.2836 5.12155C92.2307 6.12827 93.9935 7.00206 99.5755 5.24064C106.387 3.09288 106.476 2.1014 101.619 0.19043ZM34.7896 42.3937H47.8506C50.339 41.1059 49.065 40.1421 44.8748 38.5732C42.2686 37.6108 39.1294 36.7217 37.3375 37.241C34.8048 37.9805 34.4351 40.6309 34.7896 42.3937ZM172.49 30.7548C169.884 29.7924 166.745 28.9034 164.953 29.4213C161.503 30.428 162.065 35.0185 163.014 36.0114C163.946 37.0181 165.709 37.9071 171.306 36.1443C178.503 33.8788 178.177 32.8873 172.49 30.7548ZM162.822 6.26121C160.214 5.2988 157.075 4.41117 155.283 4.92907C151.834 5.93579 152.396 10.5263 153.344 11.5191C154.276 12.5259 156.039 13.4135 161.621 11.6521C168.833 9.38661 168.507 8.39374 162.822 6.26121ZM130.539 17.5747C127.933 16.5984 124.793 15.7094 123.001 16.2273C119.552 17.234 120.114 21.8245 121.061 22.8326C121.995 23.8393 123.758 24.7131 129.339 22.9503C136.551 20.6849 136.226 19.6934 130.539 17.5747ZM71.4995 3.00426C68.8934 2.02662 65.768 1.1376 63.9623 1.67074C60.5115 2.66361 61.0751 7.25408 62.0222 8.2608C62.9556 9.26752 64.717 10.1413 70.3142 8.37989C77.5121 6.11443 77.1853 5.13679 71.4995 3.00426ZM82.5457 31.2575C79.9548 30.2951 76.8156 29.4074 75.0237 29.9253C71.5729 30.9321 72.1365 35.5225 73.0684 36.5154C74.017 37.5221 75.7784 38.4098 81.3618 36.6483C88.5584 34.3829 88.2468 33.39 82.5457 31.2575ZM41.3505 16.9391C38.7583 15.9753 35.619 15.0877 33.8272 15.6056C30.3625 16.6123 30.9399 21.2028 31.8733 22.1956C32.8204 23.2023 34.568 24.0914 40.1652 22.3286C47.3618 20.0631 47.0516 19.0702 41.3505 16.9391Z" fill="#8FAAD3"/>
</g>
<path d="M15.8059 35.7151C15.1108 35.4492 14.3256 35.1972 13.6 35.049C12.9035 34.9009 12.2526 34.8413 11.8081 34.9742C11.5118 35.0643 11.275 35.1972 11.0977 35.3744C10.7709 35.6708 10.6089 36.1001 10.5341 36.5293C10.4746 36.9738 10.5203 37.4183 10.6228 37.759C10.6823 37.9667 10.7571 38.1287 10.8457 38.2174C11.0673 38.4541 11.3927 38.6771 12.0158 38.7505C12.6667 38.81 13.6595 38.6923 15.1689 38.2174C17.0494 37.6261 17.9537 37.2259 17.998 36.9004C18.0423 36.618 17.2724 36.2482 15.8059 35.7151ZM178.399 6.15881C177.688 5.89155 176.918 5.63953 176.193 5.49136C175.482 5.34319 174.845 5.29887 174.386 5.4332C174.105 5.50659 173.868 5.65476 173.691 5.81816C173.364 6.12834 173.186 6.54377 173.127 6.97305C173.069 7.41756 173.113 7.86068 173.202 8.20133C173.261 8.42427 173.35 8.58629 173.423 8.66107C173.646 8.91309 173.987 9.13466 174.593 9.1942C175.259 9.26759 176.252 9.14989 177.762 8.66107C179.642 8.06839 180.546 7.68343 180.591 7.35801C180.62 7.0769 179.85 6.70579 178.399 6.15881ZM176.281 5.00254C177.036 5.16594 177.852 5.41796 178.577 5.69907C180.265 6.32083 181.168 6.82488 181.08 7.41755C181.005 7.97977 179.998 8.48243 177.91 9.14989C176.326 9.63871 175.275 9.77164 174.549 9.69687C173.779 9.62348 173.35 9.32714 173.054 9.01557C172.934 8.86878 172.802 8.6306 172.728 8.3495C172.609 7.95069 172.549 7.41756 172.638 6.89827C172.713 6.36514 172.921 5.84724 173.35 5.44704C173.587 5.24071 173.883 5.06208 174.253 4.94438C174.786 4.79621 175.511 4.84052 176.281 5.00254ZM150.145 18.4347C149.434 18.1674 148.664 17.9154 147.938 17.7672C147.228 17.6191 146.591 17.5748 146.132 17.7091C145.851 17.7825 145.615 17.9154 145.436 18.094C145.111 18.4042 144.933 18.8197 144.874 19.2489C144.814 19.6934 144.858 20.1366 144.947 20.4772C145.007 20.6849 145.095 20.8483 145.17 20.937C145.407 21.1737 145.732 21.4105 146.34 21.4701C147.006 21.5296 147.998 21.4105 149.509 20.937C151.389 20.3443 152.292 19.9593 152.336 19.6339C152.367 19.3528 151.597 18.9817 150.145 18.4347ZM148.042 17.2798C148.783 17.4266 149.597 17.6938 150.323 17.9597C152.026 18.5967 152.914 19.1008 152.825 19.6934C152.752 20.2557 151.745 20.7597 149.657 21.4258C148.073 21.9146 147.02 22.0475 146.294 21.9728C145.525 21.8841 145.095 21.603 144.814 21.2776C144.681 21.1447 144.548 20.9065 144.474 20.6254C144.356 20.2113 144.296 19.6934 144.385 19.1742C144.458 18.641 144.666 18.1231 145.095 17.7229C145.332 17.5014 145.628 17.3241 146 17.2203C146.533 17.0721 147.258 17.1164 148.042 17.2798ZM123.579 30.9474C122.884 30.6801 122.099 30.4281 121.373 30.2813C120.676 30.1331 120.026 30.0736 119.581 30.2065C119.285 30.2951 119.048 30.4281 118.871 30.6067C118.545 30.9031 118.382 31.3323 118.322 31.7616C118.249 32.2061 118.293 32.6492 118.397 32.9899C118.455 33.1976 118.53 33.361 118.619 33.4496C118.84 33.6864 119.167 33.9232 119.789 33.9828C120.455 34.0423 121.433 33.9232 122.943 33.4496C124.824 32.857 125.727 32.4568 125.771 32.1313C125.815 31.8502 125.045 31.4944 123.579 30.9474ZM121.477 29.7925C122.232 29.9407 123.032 30.2065 123.758 30.4738C125.459 31.1094 126.348 31.6134 126.275 32.2061C126.2 32.7683 125.194 33.2724 123.091 33.9232C121.506 34.4273 120.455 34.545 119.729 34.4716C118.959 34.3968 118.545 34.1005 118.249 33.7903C118.115 33.6573 117.997 33.4205 117.908 33.1242C117.789 32.724 117.745 32.2061 117.82 31.6868C117.893 31.1537 118.115 30.6358 118.53 30.2356C118.767 30.014 119.063 29.8368 119.433 29.7329C119.981 29.5695 120.707 29.6291 121.477 29.7925ZM114.413 8.95741C113.703 8.70538 112.933 8.45335 112.207 8.28995C111.495 8.14317 110.86 8.09747 110.4 8.23179C110.119 8.32042 109.882 8.45335 109.704 8.61676C109.378 8.92694 109.216 9.34237 109.141 9.77164C109.082 10.2162 109.126 10.6593 109.23 11.0152C109.29 11.2229 109.364 11.3849 109.438 11.4749C109.675 11.7117 110 11.9333 110.608 11.9928C111.274 12.0662 112.265 11.9485 113.776 11.4749C115.657 10.8822 116.561 10.482 116.605 10.1566C116.634 9.8755 115.864 9.50439 114.413 8.95741ZM112.311 7.80252C113.051 7.96453 113.865 8.21656 114.59 8.49767C116.294 9.13466 117.183 9.62348 117.094 10.23C117.019 10.7784 116.013 11.2824 113.924 11.9485C112.34 12.4512 111.289 12.5702 110.564 12.4955C109.794 12.4221 109.378 12.1257 109.082 11.8155C108.949 11.6674 108.831 11.4306 108.741 11.1481C108.624 10.7493 108.579 10.2162 108.653 9.69687C108.727 9.17897 108.949 8.64584 109.364 8.26087C109.601 8.03931 109.896 7.86068 110.267 7.75821C110.814 7.5948 111.526 7.63912 112.311 7.80252ZM24.2322 9.29806C23.5218 9.0308 22.7505 8.77877 22.0249 8.61676C21.3145 8.48243 20.6775 8.42427 20.2191 8.55721C19.938 8.64584 19.7012 8.77877 19.5226 8.94217C19.1972 9.25374 19.0338 9.66779 18.9604 10.0971C18.9009 10.5416 18.9452 10.9999 19.0338 11.3406C19.1086 11.5483 19.182 11.7117 19.2567 11.8003C19.4935 12.0371 19.8189 12.2587 20.4269 12.3182C21.0929 12.393 22.0844 12.2739 23.5952 11.8003C25.4757 11.2076 26.3785 10.8074 26.4229 10.482C26.4533 10.2009 25.6834 9.83119 24.2322 9.29806ZM22.1287 8.12794C22.8696 8.28995 23.6838 8.54198 24.4094 8.82308C26.1127 9.46007 27.0017 9.94889 26.9117 10.5568C26.8383 11.1038 25.8316 11.6231 23.7434 12.2739C22.1592 12.778 21.1068 12.8957 20.3812 12.8223C19.6112 12.7475 19.1972 12.4512 18.9009 12.141C18.7679 11.9928 18.6488 11.756 18.5602 11.4749C18.4425 11.0747 18.3982 10.5416 18.4716 10.0375C18.545 9.50439 18.7679 8.97125 19.182 8.58629C19.4188 8.36473 19.7151 8.18748 20.0862 8.08362C20.6332 7.92022 21.345 7.96453 22.1287 8.12794ZM13.7039 34.545C14.4585 34.7084 15.2576 34.9742 15.9832 35.2415C17.6864 35.8785 18.5754 36.3673 18.5007 36.9738C18.412 37.5222 17.4205 38.0401 15.3171 38.6923C13.7329 39.195 12.6819 39.3141 11.9563 39.2393C11.1864 39.1659 10.7709 38.8696 10.4746 38.558C10.3417 38.4098 10.224 38.173 10.1339 37.8919C10.0162 37.4917 9.97193 36.9738 10.0453 36.4559C10.1201 35.9228 10.3417 35.3897 10.7571 35.0047C10.9939 34.7818 11.2902 34.6045 11.6599 34.5007C12.2083 34.3386 12.9339 34.3968 13.7039 34.545Z" fill="white"/>
<path d="M157.371 29.0667C156.661 28.7994 155.891 28.5474 155.165 28.3992C154.455 28.2511 153.818 28.1929 153.358 28.3258C153.077 28.4145 152.84 28.5474 152.663 28.7108C152.336 29.0224 152.174 29.4517 152.099 29.8809C152.041 30.3102 152.085 30.7686 152.188 31.1092C152.247 31.3169 152.322 31.4803 152.395 31.569C152.632 31.8057 152.959 32.0273 153.566 32.1021C154.232 32.1616 155.225 32.0425 156.734 31.569C158.616 30.9763 159.519 30.5761 159.563 30.2507C159.592 29.9696 158.822 29.5998 157.371 29.0667ZM62.2878 18.8776C61.5775 18.6118 60.7923 18.3597 60.0667 18.2116C59.3715 18.0634 58.7346 18.0191 58.2748 18.152C57.9937 18.2268 57.7569 18.3597 57.5797 18.537C57.2543 18.8486 57.0756 19.2626 57.0175 19.6933C56.9427 20.1364 56.987 20.5809 57.0909 20.9215C57.1504 21.1293 57.239 21.2913 57.3124 21.3813C57.5354 21.6181 57.8608 21.8549 58.4825 21.9144C59.1486 21.9726 60.1262 21.8549 61.637 21.3813C63.5327 20.7886 64.4356 20.4036 64.4799 20.0782C64.509 19.7957 63.7391 19.426 62.2878 18.8776ZM60.1706 17.7228C60.9266 17.8709 61.7256 18.1382 62.4665 18.4041C64.1545 19.041 65.0574 19.5451 64.9687 20.1364C64.8953 20.7 63.8872 21.2026 61.7852 21.8701C60.2149 22.3575 59.1638 22.4919 58.4382 22.4171C57.6683 22.3285 57.239 22.0474 56.9427 21.7219C56.8097 21.5876 56.6907 21.3508 56.6173 21.0697C56.4982 20.6557 56.4386 20.1364 56.5134 19.6185C56.602 19.0854 56.8097 18.5675 57.239 18.1673C57.4606 17.9457 57.7722 17.7671 58.1419 17.6646C58.675 17.5164 59.4006 17.5607 60.1706 17.7228ZM34.5234 30.6799C33.8269 30.4279 33.0431 30.162 32.3175 30.0139C31.6058 29.8657 30.9688 29.8214 30.5256 29.9543C30.2293 30.0429 29.9925 30.1773 29.8139 30.3393C29.4885 30.6509 29.3251 31.0649 29.2517 31.4942C29.1921 31.9387 29.2364 32.3832 29.3403 32.7391C29.3998 32.9454 29.4732 33.1088 29.548 33.1822C29.7848 33.4342 30.1102 33.6572 30.732 33.7153C31.3842 33.7901 32.3757 33.671 33.8865 33.1974C35.767 32.5909 36.6698 32.2059 36.7155 31.8791C36.7598 31.598 35.9747 31.2283 34.5234 30.6799ZM32.42 29.525C33.1608 29.6884 33.9751 29.9405 34.7007 30.2216C36.4039 30.8586 37.293 31.346 37.203 31.9539C37.1296 32.5023 36.1228 33.0049 34.0346 33.671C32.4505 34.1751 31.3994 34.2928 30.6738 34.2194C29.9025 34.146 29.4885 33.8496 29.1921 33.5381C29.0592 33.3899 28.9401 33.1531 28.8515 32.872C28.7338 32.4718 28.6895 31.9387 28.7628 31.4208C28.8376 30.9029 29.0592 30.3697 29.4732 29.9848C29.71 29.7618 30.0064 29.5846 30.3775 29.4655C30.9245 29.3173 31.6362 29.363 32.42 29.525ZM97.5909 34.5891C96.8805 34.3232 96.0953 34.0712 95.3697 33.923C94.6732 33.7749 94.0224 33.7153 93.5779 33.8496C93.2815 33.9383 93.06 34.0712 92.8675 34.2485C92.5421 34.5448 92.3786 34.9741 92.3191 35.4047C92.2457 35.8479 92.29 36.2924 92.3939 36.633C92.452 36.8407 92.5268 37.0027 92.6154 37.0928C92.837 37.3295 93.1638 37.5663 93.7856 37.6259C94.4516 37.684 95.4293 37.5663 96.94 37.0928C98.8344 36.5001 99.7234 36.0999 99.7677 35.7745C99.812 35.4934 99.0421 35.1375 97.5909 34.5891ZM95.4736 33.4342C96.2283 33.5824 97.0287 33.8496 97.7543 34.1155C99.4561 34.7525 100.345 35.2566 100.272 35.8479C100.197 36.4115 99.1903 36.9141 97.0868 37.5663C95.5027 38.069 94.4669 38.1881 93.7413 38.1133C92.9561 38.0399 92.5421 37.7436 92.2457 37.4334C92.1114 37.2991 91.9937 37.0623 91.9051 36.7659C91.786 36.3671 91.7417 35.8479 91.8164 35.33C91.8898 34.7968 92.1114 34.2789 92.5268 33.8787C92.7636 33.6572 93.06 33.4785 93.4297 33.3747C93.978 33.2127 94.7037 33.2722 95.4736 33.4342ZM155.269 27.8966C156.008 28.0586 156.824 28.3258 157.55 28.5917C159.251 29.2287 160.14 29.7175 160.052 30.3254C159.977 30.8724 158.97 31.3917 156.882 32.0425C155.298 32.5466 154.247 32.6643 153.521 32.5909C152.751 32.5161 152.336 32.2198 152.041 31.9096C151.907 31.7614 151.789 31.5246 151.7 31.2435C151.581 30.8433 151.537 30.3102 151.61 29.8062C151.685 29.273 151.907 28.7399 152.322 28.3549C152.559 28.1334 152.855 27.9561 153.225 27.8523C153.773 27.6889 154.484 27.7332 155.269 27.8966Z" fill="#5A7CAF"/>
</svg>
