<svg width="185" height="66" viewBox="0 0 185 66" fill="none" xmlns="http://www.w3.org/2000/svg">
<mask id="mask0_968_4968" style="mask-type:luminance" maskUnits="userSpaceOnUse" x="0" y="0" width="185" height="66">
<path d="M0.642578 0.406738H184.028V65.6344H0.642578V0.406738Z" fill="white"/>
</mask>
<g mask="url(#mask0_968_4968)">
<path d="M183.731 49.2694C183.504 49.9494 183.051 50.8564 182.824 51.5349V51.762C182.824 51.762 182.824 51.9891 182.598 51.9891V52.2148C182.371 52.8947 181.466 54.4817 181.012 55.1616C181.012 55.1616 180.786 55.3873 180.559 55.3873C179.653 56.0672 178.746 56.2943 177.839 56.52C176.026 56.9742 174.441 57.427 172.628 57.427C171.268 57.1999 169.683 57.1999 168.323 57.1999C168.096 57.1999 168.096 57.1999 168.096 57.1999H167.87C166.283 57.427 164.698 57.427 163.111 57.427C162.431 57.427 161.978 57.427 161.298 57.427C158.806 57.6541 156.54 58.107 154.048 58.107C151.781 58.107 149.742 58.107 147.475 58.3327C145.21 58.7869 142.717 59.0126 140.452 59.4668C140.225 59.4668 139.772 59.4668 139.319 59.6925C138.185 59.6925 136.827 59.9196 135.693 59.9196C135.693 59.9196 135.467 59.9196 135.24 59.9196C133.427 60.1467 131.614 60.1467 129.575 60.1467C128.669 60.1467 127.762 60.1467 126.856 60.1467H126.402C125.044 60.1467 123.457 60.1467 122.097 59.9196C121.417 59.9196 120.737 59.9196 120.284 59.6925C115.979 59.2397 111.674 59.6925 107.142 59.9196C101.477 60.5995 95.8129 61.0523 90.1478 61.5052C84.4828 61.9594 78.5906 61.9594 72.9256 61.9594C62.9553 61.9594 52.9864 62.865 43.0162 63.9977C36.8969 64.6776 30.5534 66.0375 24.4355 65.1318C21.4887 64.6776 19.2233 63.0921 16.2779 62.6393C14.9181 62.4122 6.53334 62.4122 6.30763 60.5995C8.34599 59.0126 10.3857 57.8799 12.6526 56.7471C14.9181 55.8415 17.1835 54.9345 19.2233 53.3489C18.7705 50.8564 13.5582 51.9891 12.6526 49.9494C13.1054 49.2694 13.7853 48.8166 14.011 48.1367C13.3311 47.9096 13.7853 47.6839 13.5582 47.004C13.3311 45.8712 12.8783 44.7371 11.9727 43.8315C10.6128 42.2446 8.80019 42.4717 6.98754 41.566C8.34599 39.2992 1.77531 38.6193 0.642578 37.9393C2.68233 35.6739 6.30763 34.5411 8.80019 32.7285C9.70582 32.0486 10.6128 31.3687 11.0657 30.4616C11.7456 29.1032 10.8386 28.1962 10.8386 26.8363C10.8386 25.2508 12.1984 24.798 13.3311 24.1181C14.2381 23.4381 15.8237 22.3054 16.2779 21.1713C16.7307 20.2657 16.2779 19.8129 15.8237 19.3587C15.8237 19.3587 15.598 19.1329 15.3709 18.9058C15.3709 18.9058 15.3709 18.9058 15.1438 18.9058C14.011 17.9988 13.3311 17.0932 12.4255 15.9605C11.7456 15.2805 11.2928 15.0534 11.2928 14.3735C11.2928 14.1478 11.2928 13.9207 11.2928 13.4679C11.2928 13.0151 11.5185 12.788 11.5185 12.5609C11.7456 12.1081 12.1984 11.6552 12.6526 11.201C13.5582 10.0683 14.9181 8.93557 15.3709 7.57574C15.3709 7.57574 15.3709 7.57574 15.3709 7.35003C15.3709 7.35003 15.3709 7.35003 15.3709 7.12293C15.3709 6.44301 15.1438 5.99019 15.598 5.31028C16.2779 4.17754 17.6363 3.49763 19.4504 3.04481C19.6761 3.04481 19.9032 2.81771 20.1289 2.81771C21.4887 2.59061 22.8486 2.36489 24.2084 2.36489C24.8883 2.36489 25.3411 2.36489 25.7939 2.36489C26.2481 2.36489 26.701 2.36489 27.1538 2.36489C27.8337 2.36489 28.5136 2.36489 29.1935 2.36489C30.0992 2.36489 31.2333 2.3649 32.366 2.13779C35.5385 1.91069 39.1638 1.91069 43.469 1.68498C49.5869 1.45788 56.8375 1.23216 61.3698 1.23216C63.1824 1.23216 64.9951 1.23216 66.8077 1.45788C68.1676 1.45788 69.5274 1.45788 70.8872 1.68498C71.1129 1.68498 71.34 1.68498 71.34 1.68498C72.6999 1.68498 73.8326 1.91069 75.1924 1.91069H75.4182C76.778 1.91069 78.1378 2.13779 79.4977 2.13779C83.1229 2.3649 86.5225 2.36489 90.1478 2.36489C107.142 2.36489 124.137 1.23078 141.132 1.68498C145.663 1.91069 153.593 1.91069 164.471 1.45788C170.816 1.23078 175.801 0.777962 179.199 0.552246C179.199 0.777962 179.199 1.00506 179.199 1.23078C179.199 2.59061 178.293 3.27053 178.293 3.95044C178.293 5.76309 177.839 7.57574 177.839 9.38839C177.839 11.6552 178.066 12.5609 179.199 14.3735C179.879 15.2805 179.879 15.9605 180.332 16.8661C180.786 17.9988 181.691 18.9058 181.691 20.2657C181.691 21.8512 181.691 22.5311 180.559 23.891C179.653 25.0237 179.879 25.9307 178.973 26.8363C178.293 27.9691 177.161 28.649 176.026 29.3289C174.894 30.2359 173.988 30.6887 175.346 31.5958C176.481 32.5014 177.839 32.0486 178.973 33.1813C179.653 33.8612 179.653 35.4468 180.106 36.5809C180.559 37.4865 180.559 38.1664 180.559 39.0735C180.332 39.752 179.879 40.4319 179.653 41.1118C179.199 43.1516 180.786 44.0586 181.919 45.417L182.144 45.6441C183.731 47.004 184.411 47.6839 183.731 49.2694Z" fill="#BBAECF"/>
</g>
<path d="M26.2484 2.81738C26.2484 3.95012 26.0213 4.85713 25.7942 5.53705V5.76276C25.7942 5.98986 25.5685 6.21558 25.5685 6.44268C24.2087 6.44268 22.6217 6.44268 21.2633 6.44268C20.1292 7.3497 18.9964 8.25533 17.8637 9.16235C17.6366 9.16235 17.4109 8.93525 17.1838 8.93525C16.9581 10.2951 16.731 11.6549 16.5039 13.0147C16.0511 13.2405 15.3711 13.4676 14.6912 13.4676C14.0113 13.4676 13.3314 13.4676 12.6529 13.2405C12.4258 13.2405 12.1987 13.0147 11.7458 13.0147C11.9729 12.5605 12.4258 12.1077 12.8786 11.6549C13.7856 10.5222 15.144 9.38806 15.5982 8.02961C15.824 8.02961 16.0511 8.25533 16.2782 8.25533C16.0511 8.02961 15.824 8.02961 15.824 7.80251C15.824 7.1226 15.5982 6.66978 16.0511 5.98986C16.731 4.85713 18.0908 4.17722 19.9035 3.72301C20.1292 4.17722 20.5834 4.63003 20.8091 5.30995C20.8091 5.53705 20.8091 5.53705 21.0362 5.53705C21.0362 5.53705 21.0362 5.30995 21.0362 5.08285C20.8091 4.40293 20.8091 3.72301 20.8091 3.2702C22.1689 3.04448 23.5288 2.81738 24.8886 2.81738C25.1143 2.81738 25.5685 2.81738 26.2484 2.81738Z" fill="#EDEDED"/>
<path d="M37.1242 10.975C36.6714 12.5605 34.8588 13.0147 33.9517 13.2405C33.0461 13.4676 32.1391 13.4676 31.4592 13.4676C31.0064 13.4676 30.3264 13.2405 30.0993 13.2405C29.8736 11.8806 29.6465 10.5222 29.4208 9.16235C29.1937 9.38806 28.9666 9.38806 28.7409 9.38806C27.6068 8.48243 26.474 7.57541 25.3413 6.66978C25.3413 6.44268 25.5684 6.21558 25.5684 5.98986V5.76276C26.2483 4.40293 26.9282 3.4973 27.3811 3.04448C28.061 3.04448 28.7409 3.04448 29.4208 3.04448C30.3264 3.04448 31.4592 3.04448 32.5919 2.81738C32.5919 2.81738 32.5919 3.04448 32.819 3.04448C33.4989 4.63003 32.3662 5.98986 31.912 6.8955C31.4592 7.57541 31.0064 8.02961 30.5535 8.48243C31.912 7.80251 33.0461 7.80251 33.726 7.80251C34.8588 7.80251 35.9915 7.80251 36.6714 8.48243C37.1242 8.93525 37.3513 10.068 37.1242 10.975Z" fill="#EDEDED"/>
<path d="M34.6315 14.6005C33.9516 14.1477 32.366 13.4678 30.5534 13.4678C29.8735 14.8276 29.4206 16.1861 28.7407 17.5459C29.1935 18.2258 30.3263 19.3585 31.9118 19.8127C32.8188 20.0385 34.6315 20.4913 35.7642 19.5856C36.4441 18.9057 36.897 17.773 36.6712 16.866C36.6712 15.7332 35.7642 15.2804 34.6315 14.6005Z" fill="#EDEDED"/>
<path d="M29.1935 18.4526C28.0608 19.3583 26.9281 20.2653 25.7939 21.1709C26.021 22.0779 26.2481 23.4378 27.6066 24.7976C28.2865 25.4761 29.4206 26.836 31.0062 26.6102C31.9118 26.3831 32.8188 25.7032 33.2716 24.7976C33.4987 23.6635 33.0459 22.7579 32.366 21.8508C31.6861 20.9452 30.7791 19.5854 29.1935 18.4526Z" fill="#EDEDED"/>
<path d="M17.4106 17.5459C17.1835 17.773 16.7307 18.2258 16.2779 18.6786C16.0508 18.9057 15.598 19.1328 15.1438 19.3585C15.1438 19.3585 15.1438 19.3585 14.9181 19.3585C13.7853 18.4529 13.1054 17.5459 12.1984 16.4132C11.5185 15.7332 11.0657 15.5061 11.0657 14.8276C11.2928 14.8276 11.2928 14.8276 11.2928 14.6005C11.9727 14.3734 12.8783 13.9206 14.2382 13.6935C14.691 13.6935 15.1438 13.6935 15.598 13.4678C16.2779 14.8276 16.9578 16.1861 17.4106 17.5459Z" fill="#EDEDED"/>
<path d="M20.583 21.1713V21.3984C20.3559 22.3054 19.9031 23.4381 18.9961 24.798C18.3162 25.4765 17.1835 26.8363 15.5979 26.6106C14.6909 26.3835 13.7853 25.7036 13.3311 24.798V24.5709C14.2381 23.8909 15.8236 22.7582 16.2778 21.6255C16.7306 20.7185 16.2778 20.2656 15.8236 19.8128C16.0507 19.5857 16.2778 19.3586 16.7306 19.1329C16.9577 18.9058 16.9577 18.9058 17.1835 18.6787C18.3162 19.3586 19.4503 20.2656 20.583 21.1713Z" fill="#EDEDED"/>
<path d="M21.263 21.1714C20.8088 21.8513 20.356 23.2111 20.356 25.0238C20.356 25.9308 20.5831 27.7434 21.9429 28.6491C22.8485 29.1033 23.9813 29.1033 24.8883 28.6491C25.7939 27.9692 26.021 27.0635 26.021 25.7037C26.2481 24.7981 26.2481 23.2111 25.5682 21.3985C24.2084 21.1714 22.6214 21.1714 21.263 21.1714Z" fill="#EDEDED"/>
<path d="M31.2334 13.4677C31.2334 13.7419 31.2195 14.0161 31.1918 14.2889C31.1655 14.5631 31.1254 14.8331 31.0714 15.1031C31.0187 15.3718 30.9509 15.639 30.872 15.9007C30.7916 16.1638 30.7002 16.4228 30.595 16.6762C30.4898 16.9296 30.3721 17.1775 30.2433 17.4198C30.1131 17.6622 29.9719 17.8976 29.8195 18.1247C29.6672 18.3531 29.5038 18.5733 29.3293 18.7866C29.1549 18.9984 28.9707 19.202 28.7768 19.3959C28.5829 19.5897 28.3794 19.7739 28.1675 19.9484C27.9557 20.1229 27.7355 20.2863 27.507 20.4386C27.2785 20.5909 27.0431 20.7322 26.8008 20.8609C26.5584 20.9911 26.3106 21.1088 26.0571 21.2127C25.8037 21.3179 25.5448 21.4107 25.2831 21.491C25.02 21.5699 24.7541 21.6364 24.4841 21.6904C24.2154 21.7444 23.944 21.7846 23.6712 21.8109C23.397 21.8386 23.1228 21.851 22.8487 21.851C22.5745 21.851 22.3003 21.8386 22.0275 21.8109C21.7533 21.7846 21.4819 21.7444 21.2133 21.6904C20.9432 21.6364 20.6774 21.5699 20.4156 21.491C20.1525 21.4107 19.8936 21.3179 19.6402 21.2127C19.3868 21.1088 19.1389 20.9911 18.8966 20.8609C18.6542 20.7322 18.4188 20.5909 18.1903 20.4386C17.9632 20.2863 17.7417 20.1229 17.5298 19.9484C17.3179 19.7739 17.1144 19.5897 16.9205 19.3959C16.7266 19.202 16.5425 18.9984 16.368 18.7866C16.1935 18.5733 16.0301 18.3531 15.8778 18.1247C15.7255 17.8976 15.5842 17.6622 15.454 17.4198C15.3253 17.1775 15.2076 16.9296 15.1023 16.6762C14.9985 16.4228 14.9057 16.1638 14.8254 15.9007C14.7464 15.639 14.68 15.3718 14.626 15.1031C14.572 14.8331 14.5318 14.5631 14.5055 14.2889C14.4778 14.0161 14.4653 13.7419 14.4653 13.4677C14.4653 13.1922 14.4778 12.9194 14.5055 12.6452C14.5318 12.3724 14.572 12.101 14.626 11.8323C14.68 11.5623 14.7464 11.2964 14.8254 11.0333C14.9057 10.7716 14.9985 10.5126 15.1023 10.2592C15.2076 10.0058 15.3253 9.75795 15.454 9.51562C15.5842 9.27329 15.7255 9.03788 15.8778 8.80939C16.0301 8.58091 16.1935 8.36073 16.368 8.14886C16.5425 7.937 16.7266 7.73344 16.9205 7.53957C17.1144 7.34432 17.3179 7.16015 17.5298 6.98705C17.7417 6.81257 17.9632 6.64917 18.1903 6.49685C18.4188 6.34314 18.6542 6.20328 18.8966 6.07311C19.1389 5.94433 19.3868 5.82662 19.6402 5.72138C19.8936 5.61614 20.1525 5.52475 20.4156 5.44443C20.6774 5.36411 20.9432 5.29765 21.2133 5.24502C21.4819 5.19102 21.7533 5.15086 22.0275 5.12317C22.3003 5.09686 22.5745 5.08301 22.8487 5.08301C23.1228 5.08301 23.397 5.09686 23.6712 5.12317C23.944 5.15086 24.2154 5.19102 24.4841 5.24502C24.7541 5.29765 25.02 5.36411 25.2831 5.44443C25.5448 5.52475 25.8037 5.61614 26.0571 5.72138C26.3106 5.82662 26.5584 5.94433 26.8008 6.07311C27.0431 6.20328 27.2785 6.34314 27.507 6.49685C27.7355 6.64917 27.9557 6.81257 28.1675 6.98705C28.3794 7.16015 28.5829 7.34432 28.7768 7.53957C28.9707 7.73344 29.1549 7.937 29.3293 8.14886C29.5038 8.36073 29.6672 8.58091 29.8195 8.80939C29.9719 9.03788 30.1131 9.27329 30.2433 9.51562C30.3721 9.75795 30.4898 10.0058 30.595 10.2592C30.7002 10.5126 30.7916 10.7702 30.872 11.0333C30.9509 11.2964 31.0187 11.5623 31.0714 11.8323C31.1254 12.101 31.1655 12.3724 31.1918 12.6452C31.2195 12.9194 31.2334 13.1922 31.2334 13.4677Z" fill="#EFD689"/>
<path d="M110.541 14.6007C110.541 13.6936 110.314 11.881 108.954 10.9754C108.049 10.5225 106.916 10.5225 106.009 10.9754C105.103 11.6553 104.876 12.5609 104.876 13.9207C104.876 14.6007 104.649 15.9605 105.103 17.546C104.423 16.1862 103.743 15.0535 103.063 14.6007C102.156 13.6936 101.477 13.0151 100.344 13.0151C99.2111 13.0151 98.3054 13.9207 98.0783 14.6007C97.3984 16.1862 98.5312 17.546 98.984 18.453C99.4382 19.133 99.891 19.5858 100.344 20.0386C98.984 19.5858 97.8512 19.3587 97.1713 19.3587C96.0386 19.3587 94.9059 19.3587 94.2259 20.0386C93.546 20.7185 93.3203 21.8512 93.546 22.7583C93.9988 24.3438 95.8129 24.798 96.7185 25.0237C98.3054 25.4765 99.891 25.0237 100.571 24.798C100.798 23.4382 101.024 22.0783 101.251 20.7185C101.477 20.9456 101.704 20.9456 101.931 20.9456C103.063 20.0386 104.196 19.133 105.329 18.2259C105.329 18.2259 105.329 18.2259 105.329 17.9988C106.689 17.9988 108.274 17.9988 109.634 18.2259C109.634 17.9988 109.861 17.7731 109.861 17.546C110.314 17.0932 110.767 15.9605 110.541 14.6007Z" fill="#EDEDED"/>
<path d="M120.964 20.2651C120.284 19.5852 119.151 19.5852 118.019 19.5852C117.339 19.5852 116.206 19.8123 114.846 20.2651C115.299 19.8123 115.752 19.3581 116.206 18.6782C116.659 17.9983 117.792 16.4127 117.112 14.8272C116.659 13.9202 115.752 13.2402 114.846 13.2402C113.713 13.2402 113.034 13.9202 112.127 14.8272C111.674 15.28 110.767 16.4127 110.088 17.7725C110.088 17.9983 109.861 18.2254 109.861 18.4525C110.994 19.3581 112.127 20.2651 113.259 21.1707C113.486 21.1707 113.713 20.945 113.939 20.945C114.166 22.3049 114.393 23.6633 114.619 25.0231C115.299 25.2502 116.886 25.7031 118.472 25.2502C119.379 25.0231 121.191 24.5703 121.644 22.9834C121.871 22.3049 121.644 20.945 120.964 20.2651Z" fill="#EDEDED"/>
<path d="M119.151 26.8363C118.472 26.3835 116.886 25.7036 115.073 25.7036C114.393 27.0634 113.939 28.4233 113.259 29.7817C113.713 30.4616 114.846 31.5958 116.432 32.0486C117.339 32.2743 119.151 32.7285 120.284 31.8215C120.964 31.1416 121.417 30.0088 121.191 29.1032C121.191 27.9691 120.284 27.2905 119.151 26.8363Z" fill="#EDEDED"/>
<path d="M113.714 30.6885C112.581 31.5955 111.447 32.5011 110.314 33.4081C110.541 34.3138 110.767 35.6736 112.127 37.0334C112.807 37.7134 113.939 39.0732 115.526 38.8461C116.432 38.619 117.339 37.9391 117.792 37.0334C118.019 35.9007 117.566 34.9937 116.886 34.0881C116.206 33.181 115.299 31.8212 113.714 30.6885Z" fill="#EDEDED"/>
<path d="M101.931 29.7831C101.251 28.4233 100.798 27.0634 100.118 25.7036C98.0783 25.7036 96.7184 26.3835 96.0385 26.8363C95.1329 27.2905 93.9988 27.9691 93.7731 29.1032C93.546 30.0088 93.9988 31.1416 94.6787 31.8215C95.8128 32.9542 97.6255 32.2743 98.5311 32.0486C100.344 31.3687 101.476 30.4616 101.931 29.7831Z" fill="#EDEDED"/>
<path d="M101.704 30.6885C100.118 31.8212 99.2111 32.9539 98.7583 33.861C98.0784 34.7666 97.6256 35.9007 97.8513 36.8063C98.0784 37.7134 98.984 38.619 100.118 38.619C101.704 38.8461 103.064 37.4863 103.516 36.8063C104.649 35.4465 105.103 34.0881 105.329 33.181C103.969 32.5011 102.836 31.5955 101.704 30.6885Z" fill="#EDEDED"/>
<path d="M105.783 33.4082C105.329 34.0881 104.876 35.4466 104.876 37.2592C104.876 38.1662 105.103 39.9789 106.462 40.8859C107.369 41.3387 108.502 41.3387 109.409 40.8859C110.314 40.206 110.541 39.299 110.541 37.9391C110.767 37.0335 110.767 35.4466 110.088 33.6339C108.729 33.4082 107.142 33.4082 105.783 33.4082Z" fill="#EDEDED"/>
<path d="M115.752 25.4766C115.752 25.7522 115.74 26.0263 115.712 26.2991C115.686 26.5719 115.646 26.8433 115.592 27.1134C115.538 27.382 115.471 27.6479 115.392 27.911C115.312 28.1741 115.219 28.4317 115.115 28.6851C115.01 28.9399 114.892 29.1877 114.763 29.4287C114.633 29.671 114.492 29.9064 114.34 30.1349C114.187 30.3634 114.024 30.5836 113.85 30.7954C113.675 31.0087 113.491 31.2109 113.297 31.4061C113.103 31.6 112.9 31.7842 112.688 31.9586C112.476 32.1317 112.256 32.2951 112.027 32.4489C111.799 32.6012 111.563 32.7424 111.321 32.8712C111.079 33 110.831 33.1177 110.577 33.2229C110.324 33.3282 110.065 33.421 109.802 33.4999C109.54 33.5802 109.274 33.6467 109.004 33.7007C108.736 33.7533 108.464 33.7935 108.19 33.8211C107.917 33.8475 107.643 33.8613 107.369 33.8613C107.095 33.8613 106.82 33.8475 106.548 33.8211C106.274 33.7935 106.002 33.7533 105.733 33.7007C105.463 33.6467 105.198 33.5802 104.934 33.4999C104.673 33.421 104.414 33.3282 104.16 33.2229C103.907 33.1177 103.659 33 103.417 32.8712C103.174 32.7424 102.939 32.6012 102.711 32.4489C102.482 32.2951 102.262 32.1317 102.05 31.9586C101.838 31.7842 101.635 31.6 101.441 31.4061C101.247 31.2109 101.063 31.0087 100.888 30.7954C100.714 30.5836 100.55 30.3634 100.398 30.1349C100.246 29.9064 100.104 29.671 99.9742 29.4301C99.8455 29.1877 99.7277 28.9399 99.6225 28.6851C99.5173 28.4317 99.4259 28.1741 99.3456 27.911C99.2666 27.6479 99.1988 27.382 99.1461 27.1134C99.0921 26.8433 99.052 26.5719 99.0257 26.2991C98.998 26.0263 98.9841 25.7522 98.9841 25.4766C98.9841 25.2024 98.998 24.9282 99.0257 24.6554C99.052 24.3826 99.0921 24.1112 99.1461 23.8412C99.1988 23.5725 99.2666 23.3067 99.3456 23.0436C99.4259 22.7805 99.5173 22.5229 99.6225 22.2681C99.7277 22.0147 99.8455 21.7668 99.9742 21.5245C100.104 21.2822 100.246 21.0481 100.398 20.8196C100.55 20.5912 100.714 20.371 100.888 20.1577C101.063 19.9459 101.247 19.7423 101.441 19.5484C101.635 19.3546 101.838 19.1704 102.05 18.9959C102.262 18.8214 102.482 18.658 102.711 18.5057C102.939 18.3534 103.174 18.2121 103.417 18.0834C103.659 17.9532 103.907 17.8369 104.16 17.7316C104.414 17.6264 104.673 17.5336 104.934 17.4547C105.198 17.3744 105.463 17.3079 105.733 17.2539C106.002 17.2013 106.273 17.1611 106.546 17.1334C106.82 17.1071 107.095 17.0933 107.369 17.0933C107.643 17.0933 107.917 17.1071 108.19 17.1334C108.464 17.1611 108.736 17.2013 109.004 17.2539C109.274 17.3079 109.54 17.3744 109.802 17.4547C110.065 17.5336 110.324 17.6264 110.577 17.7316C110.831 17.8369 111.079 17.9532 111.321 18.0834C111.563 18.2121 111.799 18.3534 112.027 18.5057C112.256 18.658 112.476 18.8214 112.688 18.9959C112.9 19.1704 113.103 19.3546 113.297 19.5484C113.491 19.7423 113.675 19.9459 113.85 20.1577C114.024 20.371 114.187 20.5912 114.34 20.8196C114.492 21.0481 114.633 21.2822 114.763 21.5245C114.892 21.7668 115.01 22.0147 115.115 22.2681C115.219 22.5229 115.312 22.7805 115.392 23.0436C115.471 23.3067 115.538 23.5725 115.592 23.8412C115.646 24.1112 115.686 24.3826 115.712 24.6554C115.74 24.9282 115.752 25.2024 115.752 25.4766Z" fill="#EFD689"/>
<path d="M177.613 40.8862C177.613 39.9792 177.386 38.1666 176.026 37.2595C175.121 36.8067 173.988 36.8067 173.081 37.2595C172.175 37.9395 171.948 38.8465 171.948 40.2063C171.948 40.8862 171.721 42.2447 172.175 43.8316C171.496 42.4718 170.816 41.339 170.136 40.8862C169.229 39.9792 168.549 39.2993 167.416 39.2993C166.283 39.2993 165.378 40.2063 165.151 40.8862C164.471 42.4718 165.603 43.8316 166.056 44.7372C166.51 45.4171 166.963 45.8713 167.416 46.3242C166.056 45.8713 164.924 45.6442 164.244 45.6442C163.111 45.6442 161.978 45.6442 161.298 46.3242C160.618 47.0041 160.393 48.1368 160.618 49.0424C161.071 50.6294 162.885 51.0822 163.791 51.3093C165.376 51.7621 166.963 51.3093 167.643 51.0822C167.869 49.7224 168.096 48.3639 168.323 47.0041C168.549 47.2298 168.776 47.2298 169.003 47.2298C170.136 46.3242 171.268 45.4171 172.401 44.5115C172.401 44.5115 172.401 44.5115 172.401 44.2844C173.761 44.2844 175.347 44.2844 176.706 44.5115C176.706 44.2844 176.934 44.0587 176.934 43.8316C177.386 43.1517 177.839 42.2447 177.613 40.8862Z" fill="#EDEDED"/>
<path d="M183.731 49.2693C183.504 49.9493 183.051 50.8563 182.824 51.5348V51.7619C182.371 51.7619 181.918 51.5348 181.691 51.5348C181.466 50.1764 181.239 48.8165 181.011 47.4567C180.786 47.6838 180.559 47.6838 180.332 47.6838C179.199 46.7768 178.066 45.8712 176.933 44.9641C176.933 44.737 177.16 44.5113 177.16 44.2842V44.0585C177.839 42.6987 178.519 41.7917 178.973 41.3388C179.653 40.6589 180.106 40.2061 180.786 39.979C180.559 40.6589 180.106 41.3388 179.879 42.0188C179.426 44.0585 181.011 44.9641 182.144 46.324C181.918 46.5497 181.691 46.7768 181.466 47.0039C181.691 46.7768 182.144 46.7768 182.371 46.7768C183.731 47.0039 184.411 47.6838 183.731 49.2693Z" fill="#EDEDED"/>
<path d="M182.599 51.7618C182.599 51.9889 182.599 51.9889 182.599 51.7618C182.146 52.6688 181.466 54.2543 181.012 54.7071C181.012 54.7071 180.786 54.9343 180.559 54.9343C181.012 53.8015 181.466 52.6688 181.919 51.5347C182.371 51.7618 182.371 51.7618 182.599 51.7618Z" fill="#EDEDED"/>
<path d="M169.003 55.8417C168.776 56.0674 168.549 56.5202 168.096 56.7473H167.87C166.283 56.9744 164.698 56.9744 163.111 56.9744C162.431 56.9744 161.978 56.9744 161.298 56.9744C160.845 56.2945 160.845 55.6146 160.845 54.9347C161.071 53.802 161.978 53.3491 163.111 52.8949C163.791 52.4421 164.698 51.9893 166.056 51.7622C166.51 51.7622 166.963 51.7622 167.416 51.7622C167.87 53.122 168.323 54.4819 169.003 55.8417Z" fill="#EDEDED"/>
<path d="M182.824 51.535C182.824 51.7621 182.598 51.9892 182.598 51.9892V52.2149C182.371 52.8948 181.466 54.4817 181.012 55.1616C181.012 55.1616 180.786 55.3874 180.559 55.3874C179.653 56.0673 178.746 56.2944 177.839 56.5201C176.026 56.9743 174.441 57.4271 172.628 57.4271C171.268 57.2 169.683 57.2 168.323 57.2C168.096 57.2 168.096 57.2 168.096 57.2H167.87C166.736 55.8416 166.056 54.2546 166.056 52.442V52.2149C166.056 48.3639 168.549 45.1914 172.175 44.0586C172.854 43.8315 173.761 43.8315 174.441 43.8315C175.346 43.8315 176.481 44.0586 177.161 44.2844C180.332 44.9643 182.598 47.9097 182.824 51.535Z" fill="#EFD689"/>
<path d="M62.5024 38.1663C62.5024 37.4863 62.2767 36.3536 61.3697 35.9008C60.9169 35.6737 60.0098 35.6737 59.557 35.9008C58.8771 36.3536 58.8771 37.0335 58.8771 37.7134C58.8771 38.1663 58.8771 39.0733 59.1042 40.206C58.65 39.299 58.1972 38.6191 57.7444 38.1663C57.2916 37.7134 56.6117 37.0335 55.9317 37.2592C55.2518 37.2592 54.5719 37.7134 54.3448 38.3934C53.892 39.299 54.5719 40.4317 55.0247 40.8859C55.2518 41.3387 55.7046 41.5658 55.9317 41.7916C55.0247 41.3387 54.3448 41.3387 53.892 41.3387C53.2121 41.3387 52.3064 41.3387 51.8522 41.7916C51.3994 42.2444 51.1723 43.1514 51.3994 43.6042C51.6265 44.5112 52.9864 44.964 53.4392 45.1911C54.5719 45.4169 55.4789 45.1911 55.9317 44.964C56.1575 44.057 56.1575 43.1514 56.3846 42.2444C56.6117 42.2444 56.6117 42.4715 56.8374 42.4715C57.5173 41.7916 58.4243 41.3387 59.1042 40.6588C60.0098 40.6588 60.9169 40.6588 61.8225 40.6588C61.8225 40.4317 62.0496 40.4317 62.0496 40.206C62.5024 39.7518 62.7295 39.0733 62.5024 38.1663Z" fill="#EDEDED"/>
<path d="M69.3002 41.7916C68.8474 41.3388 68.1675 41.3388 67.2618 41.3388C66.8076 41.3388 66.1277 41.5659 65.2221 41.7916C65.4478 41.5659 65.902 41.1117 66.1277 40.886C66.3548 40.4318 67.0347 39.299 66.8076 38.3934C66.5819 37.7135 65.902 37.2593 65.2221 37.2593C64.5422 37.2593 64.0894 37.7135 63.4094 38.1663C62.9552 38.6191 62.5024 39.0733 62.0496 40.206C62.0496 40.4318 61.8225 40.4318 61.8225 40.6589C62.5024 41.3388 63.4094 41.7916 64.0894 42.4715C64.3151 42.4715 64.3151 42.2444 64.5422 42.2444C64.7693 43.1514 64.7693 44.0584 64.995 44.9641C65.4478 45.1912 66.5819 45.4169 67.4876 45.1912C68.1675 44.9641 69.3002 44.737 69.5273 43.6042C69.9801 43.1514 69.7544 42.4715 69.3002 41.7916Z" fill="#EDEDED"/>
<path d="M68.1676 46.0969C67.7148 45.8712 66.8078 45.417 65.4479 45.417C64.9951 46.324 64.7694 47.2296 64.3152 48.1367C64.5423 48.5895 65.4479 49.2694 66.3549 49.4965C67.0349 49.7222 68.1676 49.9493 68.8475 49.2694C69.3003 48.8166 69.5274 48.1367 69.5274 47.4567C69.5274 47.0039 68.8475 46.5497 68.1676 46.0969Z" fill="#EDEDED"/>
<path d="M64.5423 48.8159C63.8624 49.4958 62.9554 49.9487 62.2769 50.6286C62.2769 51.0814 62.5026 52.2141 63.4096 52.894C63.8624 53.3482 64.7694 54.2539 65.6751 54.0268C66.355 54.0268 67.0349 53.3482 67.0349 52.894C67.262 52.2141 66.8078 51.5342 66.5821 50.8557C66.355 50.4015 65.6751 49.4958 64.5423 48.8159Z" fill="#EDEDED"/>
<path d="M56.8373 48.1367C56.3845 47.2296 56.1574 46.324 55.7046 45.417C54.3447 45.417 53.4391 45.8712 52.9863 46.0969C52.3064 46.5497 51.6264 46.7768 51.6264 47.4567C51.3993 48.1367 51.8522 48.8166 52.3064 49.2694C53.212 49.9493 54.3447 49.4965 54.7989 49.4965C55.7046 49.2694 56.3845 48.5895 56.8373 48.1367Z" fill="#EDEDED"/>
<path d="M56.612 48.8159C55.4792 49.4958 54.7993 50.4015 54.5722 50.8557C54.1194 51.5342 53.8923 52.2141 54.1194 52.894C54.3451 53.5739 55.025 54.0268 55.4792 54.0268C56.612 54.2539 57.2919 53.3482 57.7447 52.894C58.4246 51.9884 58.8774 51.0814 58.8774 50.6286C58.1975 49.9487 57.2919 49.2687 56.612 48.8159Z" fill="#EDEDED"/>
<path d="M59.3301 50.4023C59.1043 50.8565 58.6501 51.7622 58.6501 52.8949C58.6501 53.5748 58.8772 54.7076 59.7843 55.1618C60.2371 55.3875 61.1427 55.3875 61.5969 55.1618C62.2768 54.7076 62.2768 54.0276 62.2768 53.3491C62.2768 52.6692 62.5025 51.7622 62.0497 50.6294C61.1427 50.6294 60.2371 50.6294 59.3301 50.4023Z" fill="#EDEDED"/>
<path d="M65.9019 45.417C65.9019 45.7742 65.8673 46.1287 65.7967 46.4777C65.7275 46.828 65.6236 47.1687 65.4879 47.4982C65.3508 47.8278 65.1832 48.1422 64.9852 48.4385C64.7872 48.7362 64.5615 49.0104 64.3081 49.2624C64.0561 49.5158 63.7819 49.7402 63.4841 49.9396C63.1878 50.1376 62.8749 50.3051 62.5439 50.4422C62.2143 50.5779 61.8751 50.6818 61.5247 50.751C61.1744 50.8203 60.8199 50.8563 60.464 50.8563C60.1067 50.8563 59.7522 50.8203 59.4019 50.751C59.0515 50.6818 58.7123 50.5779 58.3827 50.4422C58.0517 50.3051 57.7388 50.1376 57.4424 49.9396C57.1447 49.7402 56.8705 49.5158 56.6185 49.2624C56.3651 49.0104 56.1394 48.7362 55.9414 48.4385C55.7433 48.1422 55.5758 47.8278 55.4387 47.4982C55.303 47.1687 55.1991 46.828 55.1299 46.4777C55.0593 46.1287 55.0247 45.7742 55.0247 45.417C55.0247 45.0597 55.0593 44.7066 55.1299 44.3562C55.1991 44.0059 55.303 43.6666 55.4387 43.3357C55.5758 43.0061 55.7433 42.6931 55.9414 42.3954C56.1394 42.0991 56.3651 41.8249 56.6185 41.5715C56.8705 41.3194 57.1447 41.0937 57.4424 40.8957C57.7388 40.6977 58.0517 40.5301 58.3827 40.393C58.7123 40.256 59.0515 40.1535 59.4019 40.0842C59.7522 40.0136 60.1067 39.979 60.464 39.979C60.8199 39.979 61.1744 40.0136 61.5247 40.0842C61.8751 40.1535 62.2143 40.256 62.5439 40.393C62.8749 40.5301 63.1878 40.6977 63.4841 40.8957C63.7819 41.0937 64.0561 41.3194 64.3081 41.5715C64.5615 41.8249 64.7872 42.0991 64.9852 42.3954C65.1832 42.6931 65.3508 43.0061 65.4879 43.3357C65.6236 43.6666 65.7275 44.0059 65.7967 44.3562C65.8673 44.7066 65.9019 45.0597 65.9019 45.417Z" fill="#EFD689"/>
<path d="M30.7792 49.4965C30.7792 49.0423 30.7792 48.3637 30.0993 48.1366C29.8736 47.9095 29.4208 47.9095 28.9666 48.1366C28.5138 48.3637 28.5138 48.8166 28.5138 49.2694C28.5138 49.4965 28.5138 50.1764 28.7409 50.6292C28.5138 50.1764 28.2867 49.7222 28.061 49.4965C27.8339 49.2694 27.3811 48.8166 26.9282 48.8166C26.474 48.8166 26.2483 49.0423 26.0212 49.4965C25.7941 49.9493 26.2483 50.6292 26.2483 50.8563C26.474 51.082 26.7011 51.3091 26.7011 51.5348C26.2483 51.3091 25.7941 51.3091 25.5684 51.3091C25.1142 51.3091 24.6614 51.3091 24.4357 51.5348C24.2086 51.7619 23.9815 52.2147 24.2086 52.6689C24.4357 53.3489 25.1142 53.3489 25.3413 53.5746C26.0212 53.8017 26.474 53.5746 26.9282 53.5746C26.9282 53.1218 27.154 52.4418 27.154 51.989C27.154 51.989 27.3811 51.989 27.3811 52.2147C27.8339 51.7619 28.2867 51.5348 28.7409 51.082C29.1937 51.082 29.8736 51.082 30.3264 51.082C30.3264 51.082 30.3264 50.8563 30.5535 50.8563C30.7792 50.4021 31.0063 49.9493 30.7792 49.4965Z" fill="#EDEDED"/>
<path d="M34.8587 51.5342C34.6316 51.3085 34.1788 51.3085 33.7259 51.3085C33.4988 51.3085 33.046 51.3085 32.5918 51.5342C32.8189 51.3085 33.046 51.3085 33.046 50.8557C33.2717 50.6286 33.7259 49.9487 33.2717 49.4958C33.046 49.2687 32.8189 48.8159 32.3661 48.8159C31.9119 48.8159 31.6862 49.0416 31.2334 49.4958C31.0063 49.7215 30.7792 50.1758 30.5535 50.6286V50.8557C31.0063 51.3085 31.4591 51.5342 31.9119 51.9884C31.9119 51.9884 32.139 51.9884 32.139 51.7613C32.139 52.2141 32.3661 52.894 32.3661 53.3482C32.5918 53.3482 33.2717 53.5739 33.9517 53.3482C34.4045 53.3482 35.0844 53.1211 35.0844 52.4412C35.0844 52.2141 35.0844 51.7613 34.8587 51.5342Z" fill="#EDEDED"/>
<path d="M34.1787 54.027C33.9516 53.8013 33.2717 53.5742 32.5918 53.5742C32.3661 54.027 32.139 54.707 31.9119 55.1612C32.139 55.3869 32.5918 55.8411 33.046 56.0668C33.4988 56.0668 33.9516 56.2939 34.6315 56.0668C34.8586 55.8411 35.0843 55.3869 35.0843 54.9341C34.8586 54.4812 34.6315 54.2541 34.1787 54.027Z" fill="#EDEDED"/>
<path d="M32.1389 55.6143C31.6861 55.8414 31.2333 56.2942 30.7791 56.5199C30.7791 56.747 31.0062 57.4269 31.459 57.8797C31.6861 58.1068 32.1389 58.5596 32.8188 58.5596C33.2716 58.5596 33.4987 58.3339 33.7258 57.8797C33.9515 57.4269 33.7258 57.1998 33.4987 56.747C33.0459 56.5199 32.5917 55.8414 32.1389 55.6143Z" fill="#EDEDED"/>
<path d="M27.6066 55.1612C27.3809 54.707 27.1538 54.027 26.9281 53.5742C26.2482 53.5742 25.5683 53.8013 25.3412 54.027C24.8884 54.2541 24.6613 54.4812 24.4355 54.9341C24.4355 55.3869 24.4355 55.8411 24.8884 56.0668C25.3412 56.5196 26.0211 56.2939 26.4739 56.0668C26.9281 55.8411 27.3809 55.3869 27.6066 55.1612Z" fill="#EDEDED"/>
<path d="M27.3809 55.6143C26.701 56.0671 26.4739 56.5199 26.2482 56.747C26.0211 57.1998 25.794 57.4269 26.0211 57.8797C26.0211 58.3339 26.4739 58.5596 26.9281 58.5596C27.6066 58.5596 28.0608 58.1068 28.2865 57.8797C28.7407 57.4269 28.9665 56.747 28.9665 56.5199C28.2865 56.2942 27.8337 55.8414 27.3809 55.6143Z" fill="#EDEDED"/>
<path d="M28.9665 56.52C28.7408 56.7471 28.5137 57.427 28.7408 57.8799C28.7408 58.3341 28.7408 59.0126 29.4207 59.2397C29.6465 59.4668 30.0993 59.4668 30.5535 59.2397C31.0063 59.0126 31.0063 58.5598 31.0063 58.107C31.0063 57.8799 31.0063 57.1999 30.7792 56.52C30.0993 56.52 29.6465 56.52 28.9665 56.52Z" fill="#EDEDED"/>
<path d="M32.8188 53.5748C32.8188 53.7839 32.7981 53.9903 32.7579 54.1938C32.7178 54.3988 32.6568 54.5968 32.5779 54.7893C32.4976 54.9817 32.4006 55.1645 32.2843 55.3376C32.168 55.5107 32.0365 55.6713 31.8897 55.8181C31.7429 55.9649 31.5823 56.0965 31.4092 56.2128C31.2361 56.3291 31.0533 56.426 30.8608 56.5064C30.6683 56.5853 30.4703 56.6462 30.2653 56.6864C30.0618 56.7265 29.8555 56.7473 29.6464 56.7473C29.4386 56.7473 29.2323 56.7265 29.0274 56.6864C28.8238 56.6462 28.6244 56.5853 28.4319 56.5064C28.2394 56.426 28.0567 56.3291 27.8836 56.2128C27.7105 56.0965 27.5512 55.9649 27.403 55.8181C27.2563 55.6713 27.1247 55.5107 27.0084 55.3376C26.8935 55.1645 26.7951 54.9817 26.7162 54.7893C26.6359 54.5968 26.5763 54.3988 26.5348 54.1938C26.4946 53.9903 26.4739 53.7839 26.4739 53.5748C26.4739 53.3671 26.4946 53.1608 26.5348 52.9558C26.5763 52.7523 26.6359 52.5529 26.7162 52.3604C26.7951 52.1693 26.8935 51.9851 27.0084 51.812C27.1247 51.6389 27.2563 51.4797 27.403 51.3315C27.5512 51.1847 27.7105 51.0532 27.8836 50.9369C28.0567 50.8219 28.2394 50.7236 28.4319 50.6447C28.6244 50.5644 28.8238 50.5048 29.0274 50.4633C29.2323 50.4231 29.4386 50.4023 29.6464 50.4023C29.8555 50.4023 30.0618 50.4231 30.2653 50.4633C30.4703 50.5048 30.6683 50.5644 30.8608 50.6447C31.0533 50.7236 31.2361 50.8219 31.4092 50.9369C31.5823 51.0532 31.7429 51.1847 31.8897 51.3315C32.0365 51.4797 32.168 51.6389 32.2843 51.812C32.4006 51.9851 32.4976 52.1693 32.5779 52.3604C32.6568 52.5529 32.7178 52.7523 32.7579 52.9558C32.7981 53.1608 32.8188 53.3671 32.8188 53.5748Z" fill="#EFD689"/>
<path d="M97.1713 46.3241C97.1713 45.8713 97.1713 45.1914 96.4914 44.9643C96.2657 44.7372 95.8129 44.7372 95.3587 44.9643C94.9059 45.1914 94.9059 45.6442 94.9059 46.097C94.9059 46.3241 94.9059 47.004 95.133 47.4568C94.9059 47.004 94.6788 46.5498 94.4531 46.3241C94.226 46.097 93.7731 45.6442 93.3203 45.6442C92.8661 45.6442 92.6404 45.8713 92.4133 46.3241C92.1862 46.7769 92.6404 47.4568 92.6404 47.6839C92.8661 47.9097 93.0932 48.1368 93.0932 48.3639C92.6404 48.1368 92.1862 48.1368 91.9605 48.1368C91.5063 48.1368 91.0535 48.1368 90.8278 48.3639C90.6007 48.5896 90.3736 49.0424 90.6007 49.4966C90.8278 50.1765 91.5063 50.1765 91.7334 50.4022C92.4133 50.6293 92.8661 50.4022 93.3203 50.4022C93.3203 49.9494 93.546 49.2695 93.546 48.8167C93.546 48.8167 93.7731 48.8167 93.7731 49.0424C94.226 48.5896 94.6788 48.3639 95.133 47.9097C95.5858 47.9097 96.2657 47.9097 96.7185 47.9097C96.7185 47.9097 96.7185 47.6839 96.9456 47.6839C97.1713 47.2297 97.1713 46.7769 97.1713 46.3241Z" fill="#EDEDED"/>
<path d="M101.251 48.3632C101.023 48.1361 100.571 48.1361 100.118 48.1361C99.8907 48.1361 99.4379 48.1361 98.9837 48.3632C99.2108 48.1361 99.4379 48.1361 99.4379 47.6833C99.6636 47.4562 100.118 46.7763 99.6636 46.3235C99.4379 46.0964 99.2108 45.6436 98.758 45.6436C98.3051 45.6436 98.078 45.8707 97.6252 46.3235C97.3981 46.5492 97.171 47.0034 96.9453 47.4562V47.6833C97.3981 48.1361 97.8509 48.3632 98.3051 48.816C98.3051 48.816 98.5309 48.816 98.5309 48.5889C98.5309 49.0418 98.758 49.7217 98.758 50.1759C98.9837 50.1759 99.6636 50.4016 100.344 50.1759C100.798 50.1759 101.476 49.9488 101.476 49.2689C101.476 49.0418 101.476 48.5889 101.251 48.3632Z" fill="#EDEDED"/>
<path d="M100.571 50.8565C100.344 50.6294 99.6636 50.4023 98.9837 50.4023C98.758 50.8565 98.5309 51.5351 98.3052 51.9893C98.5309 52.215 98.9837 52.6692 99.4379 52.8949C99.8907 52.8949 100.344 53.122 101.023 52.8949C101.251 52.6692 101.476 52.215 101.476 51.7622C101.251 51.3094 100.798 51.0823 100.571 50.8565Z" fill="#EDEDED"/>
<path d="M98.3051 52.4419C97.8509 52.669 97.3981 53.1218 96.9453 53.3489C96.9453 53.5746 97.171 54.2545 97.6252 54.7074C97.8509 54.9345 98.3051 55.3873 98.9837 55.3873C99.4379 55.3873 99.6636 55.1616 99.8907 54.7074C100.118 54.2545 99.8907 54.0274 99.6636 53.5746C99.4379 53.3489 98.9837 52.669 98.3051 52.4419Z" fill="#EDEDED"/>
<path d="M93.7731 51.9893C93.546 51.5351 93.3203 50.8565 93.0932 50.4023C92.4132 50.4023 91.7333 50.6294 91.5062 50.8565C91.0534 51.0823 90.8277 51.3094 90.6006 51.7622C90.6006 52.215 90.6006 52.6692 91.0534 52.8949C91.5062 53.3491 92.1861 53.122 92.6403 52.8949C93.3203 52.6692 93.7731 52.215 93.7731 51.9893Z" fill="#EDEDED"/>
<path d="M93.773 52.4419C93.0931 52.8947 92.866 53.3489 92.6403 53.5746C92.4132 54.0274 92.1861 54.2545 92.4132 54.7074C92.4132 55.1616 92.866 55.3873 93.3202 55.3873C93.9987 55.3873 94.4529 54.9345 94.6786 54.7074C95.1328 54.2545 95.3585 53.5746 95.3585 53.3489C94.6786 53.1218 94.2258 52.669 93.773 52.4419Z" fill="#EDEDED"/>
<path d="M95.3589 53.3491C95.1332 53.5748 94.9061 54.2548 95.1332 54.7076C95.1332 55.1618 95.1332 55.8417 95.8131 56.0674C96.0388 56.2945 96.4916 56.2945 96.9458 56.0674C97.3986 55.8417 97.3986 55.3875 97.3986 54.9347C97.3986 54.7076 97.3986 54.0277 97.1715 53.3491C96.4916 53.3491 95.8131 53.3491 95.3589 53.3491Z" fill="#EDEDED"/>
<path d="M99.2112 50.402C99.2112 50.6111 99.1904 50.8174 99.1502 51.021C99.1101 51.2259 99.0492 51.4239 98.9702 51.6164C98.8899 51.8089 98.793 51.9917 98.6767 52.1648C98.5603 52.3379 98.4288 52.4985 98.282 52.6453C98.1352 52.7935 97.9746 52.925 97.8015 53.0399C97.6284 53.1563 97.4456 53.2532 97.2531 53.3335C97.0606 53.4124 96.8626 53.4734 96.6577 53.5135C96.4541 53.5537 96.2478 53.5745 96.0387 53.5745C95.831 53.5745 95.6246 53.5537 95.4197 53.5135C95.2161 53.4734 95.0167 53.4124 94.8243 53.3335C94.6332 53.2532 94.4504 53.1563 94.2759 53.0399C94.1028 52.925 93.9436 52.7935 93.7954 52.6453C93.6486 52.4985 93.517 52.3379 93.4007 52.1648C93.2858 51.9917 93.1875 51.8089 93.1085 51.6164C93.0282 51.4239 92.9687 51.2259 92.9271 51.021C92.887 50.8174 92.8662 50.6111 92.8662 50.402C92.8662 50.1943 92.887 49.9879 92.9271 49.783C92.9687 49.5794 93.0282 49.3814 93.1085 49.1889C93.1875 48.9964 93.2858 48.8137 93.4007 48.6406C93.517 48.4661 93.6486 48.3068 93.7954 48.1587C93.9436 48.0119 94.1028 47.8803 94.2759 47.764C94.4504 47.6491 94.6332 47.5508 94.8243 47.4718C95.0167 47.3915 95.2161 47.332 95.4197 47.2904C95.6246 47.2503 95.831 47.2295 96.0387 47.2295C96.2478 47.2295 96.4541 47.2503 96.6577 47.2904C96.8626 47.332 97.0606 47.3915 97.2531 47.4718C97.4456 47.5508 97.6284 47.6491 97.8015 47.764C97.9746 47.8803 98.1352 48.0119 98.282 48.1587C98.4288 48.3068 98.5603 48.4661 98.6767 48.6406C98.793 48.8137 98.8899 48.9964 98.9702 49.1889C99.0492 49.3814 99.1101 49.5794 99.1502 49.783C99.1904 49.9879 99.2112 50.1943 99.2112 50.402Z" fill="#EFD689"/>
<path d="M56.1577 15.053C56.1577 14.6002 56.1577 13.9203 55.4791 13.6932C55.252 13.4675 54.7992 13.4675 54.345 13.6932C53.8922 13.9203 53.8922 14.3731 53.8922 14.8273C53.8922 15.053 53.8922 15.733 54.1193 16.1858C53.8922 15.733 53.6651 15.2801 53.4394 15.053C53.2123 14.8273 52.7595 14.3731 52.3067 14.3731C51.8525 14.3731 51.6267 14.6002 51.3996 15.053C51.1725 15.5059 51.6267 16.1858 51.6267 16.4129C51.8525 16.64 52.0796 16.8657 52.0796 17.0928C51.6267 16.8657 51.1725 16.8657 50.9468 16.8657C50.494 16.8657 50.0398 16.8657 49.8141 17.0928C49.587 17.3199 49.3599 17.7727 49.587 18.2255C49.8141 18.9054 50.494 18.9054 50.7197 19.1325C51.3996 19.3583 51.8525 19.1325 52.3067 19.1325C52.3067 18.6783 52.5324 17.9984 52.5324 17.5456C52.5324 17.5456 52.7595 17.5456 52.7595 17.7727C53.2123 17.3199 53.6651 17.0928 54.1193 16.64C54.5721 16.64 55.252 16.64 55.7049 16.64C55.7049 16.64 55.7049 16.4129 55.932 16.4129C55.932 15.9601 56.1577 15.5059 56.1577 15.053Z" fill="#EDEDED"/>
<path d="M60.0098 17.0932C59.7841 16.8661 59.3299 16.8661 58.8771 16.8661C58.65 16.8661 58.1972 16.8661 57.7443 17.0932C57.9714 16.8661 58.1972 16.8661 58.1972 16.4133C58.4243 16.1862 58.8771 15.5063 58.4243 15.0535C58.1972 14.8277 57.9714 14.3735 57.5172 14.3735C57.0644 14.3735 56.8373 14.6006 56.3845 15.0535C56.1574 15.2806 55.9317 15.7334 55.7046 16.1862V16.4133C56.1574 16.8661 56.6116 17.0932 57.0644 17.546C57.0644 17.546 57.2915 17.546 57.2915 17.3203C57.2915 17.7731 57.5172 18.453 57.5172 18.9058C57.7443 18.9058 58.4243 19.133 59.1042 18.9058C59.557 18.9058 60.2369 18.6787 60.2369 17.9988C60.464 17.7731 60.2369 17.3203 60.0098 17.0932Z" fill="#EDEDED"/>
<path d="M59.3299 19.5856C59.1042 19.3585 58.4243 19.1328 57.7444 19.1328C57.5173 19.5856 57.2916 20.2655 57.0645 20.7184C57.2916 20.9455 57.7444 21.3983 58.1972 21.6254C58.65 21.6254 59.1042 21.8511 59.7841 21.6254C60.0098 21.3983 60.2369 20.9455 60.2369 20.4913C60.2369 20.0384 59.7841 19.8127 59.3299 19.5856Z" fill="#EDEDED"/>
<path d="M57.2917 21.1714C56.8375 21.3985 56.3847 21.8513 55.9319 22.0784C55.9319 22.3055 56.1576 22.984 56.6118 23.4382C56.8375 23.664 57.2917 24.1182 57.9716 24.1182C58.4245 24.1182 58.6502 23.8911 58.8773 23.4382C59.1044 22.984 58.8773 22.7583 58.6502 22.3055C58.1973 22.0784 57.9716 21.6256 57.2917 21.1714Z" fill="#EDEDED"/>
<path d="M52.7592 20.7184C52.5321 20.2655 52.3063 19.5856 52.0792 19.1328C51.3993 19.1328 50.7194 19.3585 50.4937 19.5856C50.0395 19.8127 49.8138 20.0384 49.5867 20.4913C49.5867 20.9455 49.5867 21.3983 50.0395 21.6254C50.4937 22.0782 51.1722 21.8511 51.6264 21.6254C52.0792 21.3983 52.5321 20.9455 52.7592 20.7184Z" fill="#EDEDED"/>
<path d="M52.7593 21.1714C52.0794 21.6256 51.8523 22.0784 51.6266 22.3055C51.3995 22.7583 51.1724 22.984 51.3995 23.4382C51.3995 23.8911 51.8523 24.1182 52.3065 24.1182C52.9864 24.1182 53.4392 23.664 53.665 23.4382C53.8921 22.984 53.8921 22.5312 53.8921 22.0784C53.4392 21.8513 52.9864 21.3985 52.7593 21.1714Z" fill="#EDEDED"/>
<path d="M54.119 22.0781C53.8919 22.3052 53.6648 22.9838 53.8919 23.438C53.8919 23.8908 53.8919 24.5707 54.5718 24.7978C54.7989 25.0235 55.2518 25.0235 55.7046 24.7978C56.1574 24.5707 56.1574 24.1179 56.1574 23.6637C56.1574 23.438 56.1574 22.758 55.9317 22.0781C55.2518 22.0781 54.7989 22.0781 54.119 22.0781Z" fill="#EDEDED"/>
<path d="M57.9717 19.1329C57.9717 19.3406 57.9509 19.547 57.9094 19.7519C57.8692 19.9555 57.8097 20.1535 57.7293 20.346C57.6504 20.5385 57.5521 20.7212 57.4358 20.8943C57.3208 21.0674 57.1893 21.2281 57.0425 21.3762C56.8943 21.523 56.7337 21.6546 56.5606 21.7695C56.3875 21.8858 56.2047 21.9841 56.0122 22.0631C55.8198 22.1434 55.6217 22.2029 55.4182 22.2445C55.2132 22.2846 55.0069 22.3054 54.7992 22.3054C54.5901 22.3054 54.3838 22.2846 54.1802 22.2445C53.9753 22.2029 53.7772 22.1434 53.5848 22.0631C53.3923 21.9841 53.2095 21.8858 53.0364 21.7695C52.8633 21.6546 52.7027 21.523 52.5559 21.3762C52.4077 21.2281 52.2762 21.0674 52.1612 20.8943C52.0449 20.7212 51.948 20.5385 51.8677 20.346C51.7887 20.1535 51.7278 19.9555 51.6876 19.7519C51.6461 19.547 51.6267 19.3406 51.6267 19.1329C51.6267 18.9238 51.6461 18.7175 51.6876 18.5139C51.7278 18.309 51.7887 18.111 51.8677 17.9185C51.948 17.726 52.0449 17.5432 52.1612 17.3701C52.2762 17.197 52.4077 17.0364 52.5559 16.8896C52.7027 16.7415 52.8633 16.6099 53.0364 16.495C53.2095 16.3786 53.3923 16.2817 53.5848 16.2014C53.7772 16.1225 53.9753 16.0615 54.1802 16.0214C54.3838 15.9798 54.5901 15.9604 54.7992 15.9604C55.0069 15.9604 55.2132 15.9798 55.4182 16.0214C55.6217 16.0615 55.8198 16.1225 56.0122 16.2014C56.2047 16.2817 56.3875 16.3786 56.5606 16.495C56.7337 16.6099 56.8943 16.7415 57.0425 16.8896C57.1893 17.0364 57.3208 17.197 57.4358 17.3701C57.5521 17.5432 57.6504 17.726 57.7293 17.9185C57.8097 18.111 57.8692 18.309 57.9094 18.5139C57.9509 18.7175 57.9717 18.9238 57.9717 19.1329Z" fill="#EFD689"/>
<path d="M149.968 33.181C149.968 32.7282 149.968 32.0482 149.288 31.8211C149.062 31.5954 148.61 31.5954 148.155 31.8211C147.703 32.0482 147.703 32.5011 147.703 32.9539C147.703 33.181 147.703 33.8609 147.93 34.3137C147.703 33.8609 147.475 33.4081 147.25 33.181C147.023 32.9539 146.57 32.5011 146.117 32.5011C145.663 32.5011 145.437 32.7282 145.21 33.181C144.983 33.6338 145.437 34.3137 145.437 34.5408C145.663 34.7665 145.89 34.9936 145.89 35.2207C145.437 34.9936 144.983 34.9936 144.757 34.9936C144.303 34.9936 143.85 34.9936 143.624 35.2207C143.397 35.4464 143.17 35.9006 143.397 36.3535C143.624 37.0334 144.303 37.0334 144.53 37.2591C145.21 37.4862 145.663 37.2591 146.117 37.2591C146.117 36.8063 146.343 36.1264 146.343 35.6735C146.343 35.6735 146.57 35.6735 146.57 35.9006C147.023 35.4464 147.475 35.2207 147.93 34.7665C148.382 34.7665 149.062 34.7665 149.515 34.7665C149.515 34.7665 149.515 34.5408 149.742 34.5408C149.968 34.088 149.968 33.6338 149.968 33.181Z" fill="#EDEDED"/>
<path d="M153.82 35.2211C153.593 34.994 153.14 34.994 152.688 34.994C152.461 34.994 152.008 34.994 151.555 35.2211C151.781 34.994 152.008 34.994 152.008 34.5412C152.235 34.3141 152.688 33.6342 152.235 33.1814C152.008 32.9543 151.781 32.5015 151.328 32.5015C150.875 32.5015 150.648 32.7286 150.195 33.1814C149.968 33.4085 149.742 33.8613 149.515 34.3141V34.5412C149.968 34.994 150.422 35.2211 150.875 35.6739C150.875 35.6739 151.101 35.6739 151.101 35.4468C151.101 35.901 151.328 36.581 151.328 37.0338C151.555 37.0338 152.235 37.2595 152.915 37.0338C153.368 37.0338 154.047 36.8067 154.047 36.1268C154.273 36.1268 154.273 35.6739 153.82 35.2211Z" fill="#EDEDED"/>
<path d="M153.14 37.7135C152.915 37.4864 152.235 37.2593 151.555 37.2593C151.328 37.7135 151.102 38.3934 150.875 38.8462C151.102 39.0733 151.555 39.5261 152.008 39.7518C152.461 39.7518 152.915 39.9789 153.593 39.7518C153.82 39.5261 154.047 39.0733 154.047 38.6191C154.047 38.1663 153.593 37.9392 153.14 37.7135Z" fill="#EDEDED"/>
<path d="M151.102 39.2988C150.648 39.5259 150.195 39.9787 149.742 40.2058C149.742 40.4316 149.968 41.1115 150.422 41.5657C150.648 41.7914 151.102 42.2442 151.781 42.2442C152.235 42.2442 152.46 42.0185 152.688 41.5657C152.915 41.1115 152.688 40.8858 152.46 40.4316C152.008 40.2058 151.781 39.7516 151.102 39.2988Z" fill="#EDEDED"/>
<path d="M146.57 38.8462C146.343 38.3934 146.117 37.7135 145.89 37.2593C145.21 37.2593 144.53 37.4864 144.303 37.7135C143.85 37.9392 143.624 38.1663 143.397 38.6191C143.397 39.0733 143.397 39.5261 143.85 39.7518C144.303 40.206 144.983 39.9789 145.437 39.7518C146.117 39.5261 146.343 39.0733 146.57 38.8462Z" fill="#EDEDED"/>
<path d="M146.57 39.2988C145.89 39.7516 145.663 40.2058 145.437 40.4316C145.21 40.8858 144.983 41.1115 145.21 41.5657C145.21 42.0185 145.663 42.2442 146.117 42.2442C146.796 42.2442 147.25 41.7914 147.475 41.5657C147.93 41.1115 148.155 40.4316 148.155 40.2058C147.475 39.9787 147.023 39.5259 146.57 39.2988Z" fill="#EDEDED"/>
<path d="M148.155 40.2061C147.93 40.4318 147.702 41.1117 147.93 41.5659C147.93 42.0187 147.93 42.6986 148.609 42.9243C148.835 43.1514 149.288 43.1514 149.742 42.9243C150.195 42.6986 150.195 42.2444 150.195 41.7916C150.195 41.5659 150.195 40.886 149.968 40.2061C149.288 40.4318 148.609 40.2061 148.155 40.2061Z" fill="#EDEDED"/>
<path d="M151.781 37.2595C151.781 37.4686 151.761 37.6749 151.72 37.8785C151.68 38.0834 151.62 38.2814 151.54 38.4739C151.459 38.6664 151.362 38.8492 151.246 39.0223C151.131 39.1954 151 39.356 150.851 39.5028C150.705 39.651 150.544 39.7825 150.371 39.8974C150.198 40.0138 150.015 40.1107 149.823 40.191C149.63 40.2713 149.432 40.3309 149.227 40.371C149.024 40.4126 148.817 40.432 148.609 40.432C148.4 40.432 148.194 40.4126 147.991 40.371C147.786 40.3309 147.588 40.2713 147.395 40.191C147.203 40.1107 147.02 40.0138 146.847 39.8974C146.674 39.7825 146.513 39.651 146.366 39.5028C146.218 39.356 146.086 39.1954 145.972 39.0223C145.855 38.8492 145.758 38.6664 145.678 38.4739C145.598 38.2814 145.538 38.0834 145.498 37.8785C145.456 37.6749 145.437 37.4686 145.437 37.2595C145.437 37.0518 145.456 36.8454 145.498 36.6419C145.538 36.4369 145.598 36.2389 145.678 36.0464C145.758 35.8539 145.855 35.6712 145.972 35.4981C146.086 35.325 146.218 35.1643 146.366 35.0176C146.513 34.8694 146.674 34.7378 146.847 34.6229C147.02 34.5066 147.203 34.4096 147.395 34.3293C147.588 34.249 147.786 34.1895 147.991 34.1493C148.194 34.1078 148.4 34.0884 148.609 34.0884C148.817 34.0884 149.024 34.1078 149.227 34.1493C149.432 34.1895 149.63 34.249 149.823 34.3293C150.015 34.4096 150.198 34.5066 150.371 34.6229C150.544 34.7378 150.705 34.8694 150.851 35.0176C151 35.1643 151.131 35.325 151.246 35.4981C151.362 35.6712 151.459 35.8539 151.54 36.0464C151.62 36.2389 151.68 36.4369 151.72 36.6419C151.761 36.8454 151.781 37.0518 151.781 37.2595Z" fill="#EFD689"/>
<path d="M75.1924 2.13774C75.1924 2.59056 74.9653 2.81766 74.9653 3.04476C74.9653 3.04476 74.9653 3.04476 74.9653 3.27048C74.9653 3.49758 74.7395 3.49758 74.7395 3.72329C73.8325 3.72329 72.9255 3.72329 72.0199 3.72329C71.34 4.40321 70.4329 4.85741 69.7544 5.53733C69.5273 5.53733 69.5273 5.31023 69.3002 5.31023C69.0745 6.21586 69.0745 7.12288 68.8474 8.02989C68.6203 8.02989 68.1675 8.25561 67.4876 8.25561C67.0347 8.25561 66.5819 8.25561 66.1277 8.25561C65.4478 8.02989 64.3151 7.80279 64.0894 6.67006C63.8623 5.99014 64.0894 5.31023 64.5422 4.85741C64.995 4.40321 65.6749 4.40321 66.5819 4.40321C67.0347 4.40321 67.7147 4.63031 68.6203 4.85741C68.3946 4.63031 67.9404 4.17749 67.7147 3.95039C67.4876 3.72329 66.8076 2.59056 67.0347 1.91064C68.3946 1.91064 69.7544 1.91064 71.1129 2.13774C71.34 2.36485 71.5671 2.81766 71.7928 3.27048C71.7928 2.81766 71.5671 2.59056 71.5671 2.36485C72.6998 2.13774 74.0596 2.13774 75.1924 2.13774Z" fill="#EDEDED"/>
<path d="M82.443 6.67001C82.2159 7.57564 80.8574 8.02984 80.4032 8.25556C79.7233 8.48266 79.2705 8.48266 78.5906 8.25556C78.1377 8.25556 77.9106 8.02984 77.6849 8.02984C77.4578 7.12283 77.4578 6.21581 77.2307 5.31018C77.005 5.31018 77.005 5.53728 76.7779 5.53728C76.098 4.85736 75.1924 4.40316 74.5125 3.72324C74.5125 3.49753 74.5125 3.49753 74.7382 3.27043V3.04471C74.9653 2.59051 74.9653 2.3648 75.1924 2.1377C76.5522 2.1377 77.9106 2.3648 79.2705 2.3648C79.2705 3.04471 78.8177 3.49753 78.5906 3.95034C78.3648 4.40316 77.9106 4.63026 77.6849 4.85736C78.5906 4.40316 79.2705 4.40316 79.7233 4.40316C80.4032 4.40316 81.3102 4.40316 81.763 4.85736C82.6701 5.31018 82.6701 6.21581 82.443 6.67001Z" fill="#EDEDED"/>
<path d="M81.0834 9.16234C80.6305 8.93524 79.7235 8.48242 78.3651 8.48242C77.9109 9.38805 77.6852 10.2951 77.231 11.2007C77.4581 11.6549 78.3651 12.3348 79.2707 12.5605C79.9506 12.7876 81.0834 13.0147 81.7633 12.3348C82.2161 11.8806 82.4432 11.2007 82.4432 10.5222C82.2161 9.84225 81.5376 9.61515 81.0834 9.16234Z" fill="#EDEDED"/>
<path d="M77.2308 11.6553C76.5523 12.3352 75.6452 12.788 74.9653 13.4679C74.9653 13.9207 75.1924 15.0535 76.0981 15.7334C76.5523 16.1862 77.4579 17.0932 78.3649 16.8661C79.0448 16.8661 79.7234 16.1862 79.7234 15.7334C79.9505 15.0535 79.4976 14.3736 79.2705 13.6936C79.0448 13.2408 78.3649 12.5609 77.2308 11.6553Z" fill="#EDEDED"/>
<path d="M69.5273 11.2007C69.0744 10.2951 68.8473 9.38805 68.3945 8.48242C67.0347 8.48242 66.1277 8.93524 65.6749 9.16234C64.9949 9.61515 64.315 9.84225 64.315 10.5222C64.0893 11.2007 64.5421 11.8806 64.9949 12.3348C65.902 13.0147 67.0347 12.5605 67.4875 12.5605C68.6202 12.1077 69.3002 11.4278 69.5273 11.2007Z" fill="#EDEDED"/>
<path d="M69.3003 11.6553C68.1676 12.3352 67.4877 13.2408 67.2619 13.6936C66.8077 14.3736 66.582 15.0535 66.8077 15.7334C67.0348 16.4133 67.7148 16.8661 68.1676 16.8661C69.3003 17.0932 69.9802 16.1862 70.433 15.7334C71.1129 14.8278 71.5671 13.9207 71.5671 13.4679C70.8872 13.0151 70.2073 12.3352 69.3003 11.6553Z" fill="#EDEDED"/>
<path d="M72.02 13.4678C71.7929 13.9206 71.3401 14.8276 71.3401 15.9603C71.3401 16.6403 71.5672 17.773 72.4728 18.2258C72.9256 18.4529 73.8327 18.4529 74.2855 18.2258C74.9654 17.773 74.9654 17.0931 74.9654 16.4132C74.9654 15.7332 75.1925 14.8276 74.7397 13.6935C74.0598 13.4678 72.9256 13.4678 72.02 13.4678Z" fill="#EDEDED"/>
<path d="M78.5907 8.25533C78.5907 8.6126 78.5561 8.96571 78.4869 9.31605C78.4176 9.6664 78.3138 10.007 78.1767 10.3366C78.041 10.6662 77.8734 10.9805 77.674 11.2769C77.476 11.5732 77.2503 11.8488 76.9983 12.1008C76.7462 12.3528 76.4707 12.5785 76.1743 12.7779C75.878 12.976 75.5637 13.1435 75.2341 13.2792C74.9045 13.4163 74.5639 13.5202 74.2135 13.5894C73.8632 13.6587 73.5101 13.6933 73.1528 13.6933C72.7955 13.6933 72.4424 13.6587 72.0921 13.5894C71.7417 13.5202 71.4011 13.4163 71.0715 13.2792C70.7419 13.1435 70.429 12.976 70.1312 12.7779C69.8349 12.5785 69.5593 12.3528 69.3073 12.1008C69.0553 11.8488 68.8296 11.5732 68.6316 11.2769C68.4321 10.9805 68.2646 10.6662 68.1289 10.3366C67.9918 10.007 67.8893 9.6664 67.8187 9.31605C67.7495 8.96571 67.7148 8.6126 67.7148 8.25533C67.7148 7.89806 67.7495 7.54495 67.8187 7.1946C67.8893 6.84426 67.9918 6.50499 68.1289 6.17404C68.2646 5.84446 68.4321 5.53151 68.6316 5.23379C68.8296 4.93745 69.0553 4.66327 69.3073 4.40985C69.5593 4.15783 69.8349 3.93211 70.1312 3.73409C70.429 3.53607 70.7419 3.36852 71.0715 3.23143C71.4011 3.09433 71.7417 2.99186 72.0921 2.92124C72.4424 2.852 72.7955 2.81738 73.1528 2.81738C73.5101 2.81738 73.8632 2.852 74.2135 2.92124C74.5639 2.99186 74.9045 3.09433 75.2341 3.23143C75.5637 3.36852 75.878 3.53607 76.1743 3.73409C76.4707 3.93211 76.7462 4.15783 76.9983 4.40985C77.2503 4.66327 77.476 4.93745 77.674 5.23379C77.8734 5.53151 78.041 5.84446 78.1767 6.17404C78.3138 6.50499 78.4176 6.84426 78.4869 7.1946C78.5561 7.54495 78.5907 7.89806 78.5907 8.25533Z" fill="#EFD689"/>
<path d="M152.235 8.48252C152.235 7.80261 152.008 6.66987 151.102 6.21567C150.648 5.98996 149.742 5.98996 149.288 6.21567C148.61 6.66987 148.61 7.34979 148.61 8.02971C148.61 8.48252 148.61 9.38816 148.835 10.5223C148.382 9.61526 147.93 8.93534 147.475 8.48252C147.023 8.02971 146.343 7.34979 145.663 7.57551C144.983 7.57551 144.303 8.02971 144.077 8.70824C143.624 9.61526 144.303 10.748 144.757 11.2008C144.983 11.655 145.437 11.8807 145.663 12.1078C144.757 11.655 144.077 11.655 143.624 11.655C142.944 11.655 142.037 11.655 141.585 12.1078C141.132 12.5606 140.905 13.4677 141.132 13.9205C141.358 14.8275 142.717 15.2803 143.17 15.506C144.303 15.7331 145.21 15.506 145.663 15.2803C145.89 14.3733 145.89 13.4677 146.117 12.5606C146.343 12.5606 146.343 12.7877 146.57 12.7877C147.25 12.1078 148.155 11.655 148.835 10.9751C149.742 10.9751 150.648 10.9751 151.555 10.9751C151.555 10.748 151.781 10.748 151.781 10.5223C152.235 10.0681 152.461 9.38816 152.235 8.48252Z" fill="#EDEDED"/>
<path d="M159.033 12.3346C158.578 11.8804 157.9 11.8804 156.993 11.8804C156.54 11.8804 155.86 12.1075 154.953 12.3346C155.18 12.1075 155.633 11.6546 155.86 11.4275C156.086 10.9747 156.766 9.842 156.54 8.93498C156.313 8.25506 155.633 7.80225 154.953 7.80225C154.273 7.80225 153.82 8.25506 153.14 8.70788C152.688 9.16208 152.235 9.61489 151.781 10.7476C151.781 10.9747 151.555 10.9747 151.555 11.2004C152.235 11.8804 153.14 12.3346 153.82 13.0145C154.047 13.0145 154.047 12.7874 154.273 12.7874C154.5 13.693 154.5 14.6 154.727 15.507C155.18 15.7328 156.313 15.9599 157.22 15.7328C157.9 15.507 159.033 15.2799 159.258 14.1472C159.713 13.4673 159.713 12.7874 159.033 12.3346Z" fill="#EDEDED"/>
<path d="M157.9 16.6404C157.446 16.4133 156.54 15.9604 155.18 15.9604C154.728 16.8661 154.5 17.7731 154.048 18.6787C154.273 19.1329 155.18 19.8128 156.086 20.0386C156.766 20.2657 157.9 20.4914 158.579 19.8128C159.033 19.3586 159.258 18.6787 159.258 17.9988C159.258 17.3203 158.579 16.8661 157.9 16.6404Z" fill="#EDEDED"/>
<path d="M154.273 19.1328C153.593 19.8127 152.688 20.2655 152.008 20.9455C152.008 21.3983 152.235 22.531 153.141 23.2109C153.593 23.6637 154.5 24.5708 155.407 24.3437C156.086 24.3437 156.766 23.6637 156.766 23.2109C156.993 22.531 156.54 21.8511 156.313 21.1712C156.086 20.7184 155.407 19.8127 154.273 19.1328Z" fill="#EDEDED"/>
<path d="M146.57 18.4526C146.117 17.5456 145.89 16.6399 145.437 15.7329C144.077 15.7329 143.17 16.1857 142.717 16.4128C142.037 16.8656 141.358 17.0927 141.358 17.7727C141.132 18.4526 141.585 19.1325 142.037 19.5853C142.944 20.2652 144.077 19.8124 144.53 19.8124C145.663 19.5853 146.343 18.9054 146.57 18.4526Z" fill="#EDEDED"/>
<path d="M146.343 19.1328C145.21 19.8127 144.53 20.7184 144.303 21.1712C143.85 21.8511 143.625 22.531 143.85 23.2109C144.077 23.8908 144.757 24.3437 145.21 24.3437C146.343 24.5708 147.023 23.6637 147.476 23.2109C148.155 22.3053 148.61 21.3983 148.61 20.9455C147.93 20.2655 147.25 19.8127 146.343 19.1328Z" fill="#EDEDED"/>
<path d="M149.062 20.9453C148.835 21.3981 148.383 22.3051 148.383 23.4379C148.383 24.1178 148.61 25.2505 149.515 25.7033C149.968 25.9304 150.875 25.9304 151.328 25.7033C152.008 25.2505 152.008 24.5706 152.008 23.8907C152.008 23.2108 152.235 22.3051 151.781 21.171C151.102 20.9453 149.968 20.9453 149.062 20.9453Z" fill="#EDEDED"/>
<path d="M155.633 15.7334C155.633 16.0906 155.598 16.4437 155.529 16.7941C155.458 17.1444 155.356 17.4851 155.219 17.8146C155.083 18.1442 154.916 18.4586 154.716 18.7549C154.518 19.0512 154.293 19.3268 154.041 19.5788C153.788 19.8309 153.513 20.0566 153.217 20.256C152.919 20.454 152.606 20.6216 152.276 20.7573C151.947 20.8944 151.606 20.9982 151.256 21.0674C150.905 21.1367 150.552 21.1713 150.195 21.1713C149.838 21.1713 149.485 21.1367 149.134 21.0674C148.784 20.9982 148.443 20.8944 148.114 20.7573C147.784 20.6216 147.47 20.454 147.173 20.256C146.877 20.0566 146.602 19.8309 146.35 19.5788C146.098 19.3268 145.872 19.0512 145.674 18.7549C145.474 18.4586 145.307 18.1442 145.171 17.8146C145.034 17.4851 144.93 17.1444 144.861 16.7941C144.792 16.4437 144.757 16.0906 144.757 15.7334C144.757 15.3761 144.792 15.023 144.861 14.6726C144.93 14.3223 145.034 13.9816 145.171 13.6521C145.307 13.3225 145.474 13.0095 145.674 12.7118C145.872 12.4155 146.098 12.1399 146.35 11.8879C146.602 11.6359 146.877 11.4101 147.173 11.2121C147.47 11.0127 147.784 10.8465 148.114 10.7095C148.443 10.5724 148.784 10.4699 149.134 10.3993C149.485 10.33 149.838 10.2954 150.195 10.2954C150.552 10.2954 150.905 10.33 151.256 10.3993C151.606 10.4699 151.947 10.5724 152.276 10.7095C152.606 10.8465 152.919 11.0127 153.217 11.2121C153.513 11.4101 153.788 11.6359 154.041 11.8879C154.293 12.1399 154.518 12.4155 154.716 12.7118C154.916 13.0095 155.083 13.3225 155.219 13.6521C155.356 13.9816 155.458 14.3223 155.529 14.6726C155.598 15.023 155.633 15.3761 155.633 15.7334Z" fill="#EFD689"/>
<path d="M133.2 49.4962C133.2 48.8163 132.974 47.6835 132.067 47.2293C131.615 47.0036 130.707 47.0036 130.255 47.2293C129.575 47.6835 129.575 48.3635 129.575 49.042C129.575 49.4962 129.575 50.4018 129.802 51.5346C129.349 50.6289 128.895 49.949 128.442 49.4962C127.989 49.042 127.309 48.3635 126.629 48.5892C125.949 48.5892 125.27 49.042 125.042 49.7219C124.59 50.6289 125.27 51.7617 125.722 52.2145C125.949 52.6687 126.402 52.8944 126.629 53.1215C125.722 52.6687 125.042 52.6687 124.59 52.6687C123.91 52.6687 123.004 52.6687 122.55 53.1215C122.097 53.5743 121.871 54.4813 122.097 54.9341C122.324 55.8412 123.684 56.294 124.137 56.5197C125.27 56.7468 126.177 56.5197 126.629 56.294C126.856 55.387 126.856 54.4813 127.082 53.5743C127.309 53.5743 127.309 53.8014 127.535 53.8014C128.215 53.1215 129.122 52.6687 129.802 51.9888C130.707 51.9888 131.615 51.9888 132.52 51.9888C132.52 51.7617 132.747 51.7617 132.747 51.5346C133.2 51.0817 133.2 50.4018 133.2 49.4962Z" fill="#EDEDED"/>
<path d="M139.998 53.1222C139.545 52.6693 138.865 52.6693 137.959 52.6693C137.505 52.6693 136.825 52.8951 135.92 53.1222C136.147 52.8951 136.6 52.4422 136.825 52.2151C137.052 51.7623 137.732 50.6296 137.505 49.7226C137.279 49.0427 136.6 48.5898 135.92 48.5898C135.24 48.5898 134.787 49.0427 134.107 49.4969C133.654 49.9497 133.2 50.4025 132.747 51.5352C132.747 51.7623 132.52 51.7623 132.52 51.9894C133.2 52.6693 134.107 53.1222 134.787 53.8021C135.013 53.8021 135.013 53.575 135.24 53.575C135.467 54.482 135.467 55.3876 135.693 56.2946C136.147 56.5204 137.279 56.7475 138.185 56.5204C138.865 56.2946 139.998 56.0675 140.225 54.9348C140.678 54.482 140.452 53.575 139.998 53.1222Z" fill="#EDEDED"/>
<path d="M140.452 59.2397C140.225 59.2397 139.772 59.2397 139.318 59.4668C138.185 59.4668 136.825 59.6925 135.692 59.6925C135.692 59.6925 135.467 59.6925 135.24 59.6925C135.24 59.4668 135.012 59.4668 135.012 59.2397C135.467 58.3341 135.692 57.427 136.147 56.52C136.372 56.52 136.372 56.52 136.599 56.52C137.732 56.52 138.412 56.9742 138.865 57.1999C139.545 57.6541 140.225 57.8799 140.225 58.5598C140.452 59.0126 140.452 59.0126 140.452 59.2397Z" fill="#EDEDED"/>
<path d="M127.535 59.4667C127.309 59.6925 127.309 59.9196 127.082 59.9196H126.629C125.269 59.9196 123.684 59.9196 122.324 59.6925C122.324 59.4667 122.324 59.0125 122.324 58.7868C122.55 58.1069 123.004 57.6541 123.684 57.427C124.137 57.1999 124.589 56.9742 125.496 56.7471C125.722 56.7471 125.949 56.7471 126.402 56.7471C126.856 57.6541 127.082 58.5597 127.535 59.4667Z" fill="#EDEDED"/>
<path d="M136.6 56.52C136.6 56.7471 136.6 56.7471 136.6 56.52C136.6 57.8798 136.147 58.7868 135.693 59.6925C135.693 59.6925 135.467 59.6925 135.24 59.6925C133.427 59.9196 131.614 59.9196 129.575 59.9196C128.669 59.9196 127.762 59.9196 126.856 59.9196H126.402C125.722 59.0125 125.27 58.1069 125.27 56.7471V56.52C125.27 54.0274 127.082 51.989 129.349 51.3091C129.802 51.082 130.255 51.082 130.935 51.082C131.614 51.082 132.294 51.082 132.747 51.3091C135.013 52.2148 136.6 54.2545 136.6 56.52Z" fill="#EFD689"/>
</svg>
