<svg width="185" height="53" viewBox="0 0 185 53" fill="none" xmlns="http://www.w3.org/2000/svg">
<mask id="mask0_968_4101" style="mask-type:luminance" maskUnits="userSpaceOnUse" x="0" y="0" width="185" height="53">
<path d="M0.642578 0.206055H184.361V52.5832H0.642578V0.206055Z" fill="white"/>
</mask>
<g mask="url(#mask0_968_4101)">
<path d="M4.80932 52.7119C2.79311 52.6842 0.685506 51.431 0.642578 49.1614C0.642578 46.3268 3.7929 46.3268 3.7929 43.4895C3.7929 40.6507 0.642578 40.6507 0.642578 37.8133C0.642578 34.9746 3.7929 34.9746 3.7929 32.1372C3.7929 29.2998 0.642578 29.2998 0.642578 26.4611C0.642578 23.6237 3.7929 23.6237 3.7929 20.785C3.7929 17.9476 0.642578 17.9476 0.642578 15.1102C0.642578 12.2715 3.7929 12.2715 3.7929 9.43409C3.7929 6.59672 0.642578 6.59395 0.642578 3.75519C0.685506 1.48696 2.79311 0.232365 4.80932 0.206055H180.243C182.261 0.232365 184.368 1.48696 184.411 3.75519C184.411 6.59395 181.261 6.59395 181.261 9.43409C181.261 12.2742 184.411 12.2715 184.411 15.1102C184.411 17.9476 181.261 17.9476 181.261 20.785C181.261 23.6237 184.411 23.6237 184.411 26.4611C184.411 29.2998 181.261 29.2998 181.261 32.1372C181.261 34.9746 184.411 34.9746 184.411 37.8133C184.411 40.6507 181.261 40.6507 181.261 43.4895C181.261 46.3268 184.411 46.3268 184.411 49.1614C184.368 51.431 182.261 52.6842 180.243 52.7119H4.80932Z" fill="#BFDAE8"/>
</g>
<mask id="mask1_968_4101" style="mask-type:luminance" maskUnits="userSpaceOnUse" x="130" y="4" width="55" height="49">
<path d="M130.499 4.29492H184.361V52.5828H130.499V4.29492Z" fill="white"/>
</mask>
<g mask="url(#mask1_968_4101)">
<path d="M181.581 8.04221C182.297 6.64776 183.996 6.13955 184.346 4.41553C163.814 17.183 145.529 33.6492 130.626 52.7117H134.424C148.19 35.3192 163.008 20.1436 181.581 8.04221Z" fill="#A3BCF1"/>
</g>
<mask id="mask2_968_4101" style="mask-type:luminance" maskUnits="userSpaceOnUse" x="9" y="0" width="52" height="53">
<path d="M9.96875 0.206055H60.3075V52.5832H9.96875V0.206055Z" fill="white"/>
</mask>
<g mask="url(#mask2_968_4101)">
<path d="M30.8703 26.846C39.3132 16.9879 50.0035 8.08118 60.0347 0.206055H56.0965C46.579 7.83607 37.7443 16.398 29.6739 25.8213C22.4108 34.303 15.9343 43.2887 10.2817 52.7119H12.1221C17.6127 43.6598 23.8731 35.0161 30.8703 26.846Z" fill="#A3BCF1"/>
</g>
<mask id="mask3_968_4101" style="mask-type:luminance" maskUnits="userSpaceOnUse" x="0" y="0" width="37" height="40">
<path d="M0.642578 0.206055H36.5563V39.0361H0.642578V0.206055Z" fill="white"/>
</mask>
<g mask="url(#mask3_968_4101)">
<path d="M36.386 0.206055H32.2483C21.6715 9.46455 11.999 20.1175 3.75136 31.6096C3.77767 31.7744 3.7929 31.9489 3.7929 32.1372C3.7929 34.9746 0.642578 34.9746 0.642578 37.8133C0.642578 38.1526 0.688275 38.4503 0.768591 38.719C9.9897 23.902 22.958 11.1553 36.386 0.206055Z" fill="#A3BCF1"/>
</g>
<mask id="mask4_968_4101" style="mask-type:luminance" maskUnits="userSpaceOnUse" x="158" y="24" width="27" height="29">
<path d="M158.149 24.147H184.361V52.583H158.149V24.147Z" fill="white"/>
</mask>
<g mask="url(#mask4_968_4101)">
<path d="M183.65 24.4233C179.505 28.05 175.531 31.9093 171.738 35.9902C166.812 41.2939 162.283 46.8772 158.171 52.7112H160.106C164.004 47.2622 168.27 42.0389 172.893 37.0634C176.549 33.1279 180.376 29.4029 184.363 25.894C184.259 25.2833 183.99 24.8208 183.65 24.4233Z" fill="#A3BCF1"/>
</g>
<mask id="mask5_968_4101" style="mask-type:luminance" maskUnits="userSpaceOnUse" x="0" y="0" width="18" height="16">
<path d="M0.642578 0.206055H17.0589V15.2847H0.642578V0.206055Z" fill="white"/>
</mask>
<g mask="url(#mask5_968_4101)">
<path d="M16.8152 0.206055H14.396C10.7569 3.34946 7.20772 6.59672 3.75552 9.94506C3.4024 12.2825 0.642578 12.4529 0.642578 15.1102C0.642578 15.1559 0.645348 15.2002 0.646732 15.2459C5.80911 9.99768 11.2083 4.97793 16.8152 0.206055Z" fill="#A3BCF1"/>
</g>
<mask id="mask6_968_4101" style="mask-type:luminance" maskUnits="userSpaceOnUse" x="85" y="0" width="62" height="53">
<path d="M85.4771 0.206055H146.096V52.5832H85.4771V0.206055Z" fill="white"/>
</mask>
<g mask="url(#mask6_968_4101)">
<path d="M146.038 0.206055H143.97C122.288 14.0481 101.471 32.32 85.8069 52.7119H89.6011C97.3475 42.7652 114.995 20.6756 146.04 0.206055H146.038Z" fill="#A3BCF1"/>
</g>
<mask id="mask7_968_4101" style="mask-type:luminance" maskUnits="userSpaceOnUse" x="26" y="0" width="58" height="53">
<path d="M26.9849 0.206055H83.3501V52.5832H26.9849V0.206055Z" fill="white"/>
</mask>
<g mask="url(#mask7_968_4101)">
<path d="M83.0618 0.206055H80.3629C60.1164 14.8776 42.0827 32.6676 27.1245 52.7119H30.6709C45.8326 32.5983 62.5425 14.7959 83.0618 0.206055Z" fill="#A3BCF1"/>
</g>
<mask id="mask8_968_4101" style="mask-type:luminance" maskUnits="userSpaceOnUse" x="112" y="0" width="70" height="53">
<path d="M112.773 0.206055H181.546V52.5832H112.773V0.206055Z" fill="white"/>
</mask>
<g mask="url(#mask8_968_4101)">
<path d="M138.512 29.3926C151.746 18.0764 166.123 8.33736 181.366 0.3473C180.998 0.258676 180.62 0.211594 180.243 0.206055H175.585C151.901 13.7656 131.097 32.4031 112.797 52.7119H114.888C122.164 44.4214 130.053 36.6252 138.511 29.3926H138.512Z" fill="#A3BCF1"/>
</g>
<mask id="mask9_968_4101" style="mask-type:luminance" maskUnits="userSpaceOnUse" x="57" y="0" width="63" height="53">
<path d="M57.1172 0.206055H119.863V52.5832H57.1172V0.206055Z" fill="white"/>
</mask>
<g mask="url(#mask9_968_4101)">
<path d="M119.815 0.206055H116.814C94.2465 14.2974 74.0249 32.1095 57.1931 52.7119H59.2287C76.3291 32.0098 96.8872 14.1852 119.815 0.206055Z" fill="#A3BCF1"/>
</g>
</svg>
