<svg width="185" height="57" viewBox="0 0 185 57" fill="none" xmlns="http://www.w3.org/2000/svg">
<mask id="mask0_968_4007" style="mask-type:luminance" maskUnits="userSpaceOnUse" x="0" y="0" width="185" height="57">
<path d="M0.642578 0.166016H184.361V56.2654H0.642578V0.166016Z" fill="white"/>
</mask>
<g mask="url(#mask0_968_4007)">
<path d="M0.814101 0.18457V0.500295C2.49797 1.18298 5.84493 2.28802 10.855 3.81402L8.9454 4.19483L0.814101 4.78612V5.98255L7.5648 8.1137L1.69619 9.84603L5.43504 12.081L1.55772 15.0126C1.55633 15.3103 1.75435 15.5831 2.15039 15.8323L4.92129 16.9983C3.53654 17.2642 2.16701 17.5661 0.814101 17.9053V19.4784C5.46135 19.8094 6.88073 20.3273 7.91791 20.5322C11.1167 21.1623 12.6995 21.3714 12.6233 21.73C12.9709 21.8616 12.2204 22.3809 10.2443 22.7104C5.73969 23.4637 2.56859 23.8626 0.814101 24.4885V24.8942C0.827949 25.0119 1.18383 25.2141 1.88037 25.5007L7.62157 27.0904L7.12168 27.5363L2.80954 29.2631L6.61485 31.3153L6.59824 31.5632C2.70291 32.5671 1.05366 33.1695 1.64773 33.3703C1.4317 33.7456 2.91201 34.8091 6.08726 36.5622L0.814101 37.2504V38.2696L2.01884 38.8484L8.10901 40.3813L1.34723 42.1054C0.814101 42.1081 0.635468 42.41 0.814101 43.0096C1.12706 43.3973 2.70984 43.8031 5.56382 44.2282C3.14326 44.987 2.35949 45.3512 3.15296 45.5797C7.21861 46.754 10.6002 47.6222 13.378 47.931L2.93832 48.1374L3.19589 48.4462L7.238 49.9431C7.4651 50.0483 7.57449 50.1508 7.56618 50.2505C7.45956 50.4347 7.1646 50.5704 6.67994 50.6604L1.90945 51.2171L1.23507 51.494C0.736555 51.8139 2.53397 52.5686 6.62593 53.7553L0.814101 54.4366V56.223L182.233 56.2216C179.442 55.8269 178.214 55.5278 178.548 55.3256L184.026 54.4048V54.2289L173.319 52.2487C175.231 51.656 178.796 51.3929 184.012 51.4594C182.231 50.6507 181.403 50.2117 181.528 50.1397C181.812 49.7423 182.644 49.428 184.026 49.1953V48.9405L178.666 47.8576C178.024 47.6472 177.657 47.3661 177.566 47.0157C178.767 46.4424 180.611 46.0533 183.1 45.8484C180.345 45.4482 178.837 44.9413 178.578 44.3279C178.065 44.195 179.858 43.8238 183.959 43.2146L184.026 42.6967C184.41 42.5845 181.01 42.2383 173.858 41.3811C172.65 41.2357 172.045 40.8425 172.001 40.4783C172.028 40.3259 172.624 40.1542 173.793 40.0227C176.59 39.707 179.361 39.5713 182.091 39.3871C182.782 39.34 183.324 39.1489 183.732 38.9827L180.705 36.8433L181.232 36.3268L184.044 35.0583C180.999 33.5434 179.66 32.6945 180.028 32.5104C180.07 31.9066 181.402 31.3236 184.023 30.7587C182.773 29.961 182.115 29.457 182.053 29.2479L183.613 27.0489C180.219 25.9383 178.663 25.1864 178.942 24.7959C179.977 24.3278 181.67 23.9415 184.023 23.6382L180.518 21.4849C180.579 21.2066 181.747 20.8216 184.023 20.33L184.026 18.5839C181.238 18.0618 178.193 17.6976 174.902 17.3667C174.14 17.2891 173.654 16.99 173.426 16.5884C174.632 15.8005 178.164 14.9406 184.026 14.0086V13.5766C182.103 13.0227 181.261 12.5768 181.338 12.1946C181.432 11.7251 182.273 11.0826 184.026 10.2905V9.29351L178.083 6.63754L177.429 6.0878L184.026 5.37049V4.57841L174.592 3.03302C174.268 2.9624 174.064 2.817 173.978 2.5982C174.058 2.08307 174.488 1.73273 175.266 1.54856L183.144 0.18457H0.814101Z" fill="#8DAAA6"/>
</g>
<path d="M162.579 9.21924C161.761 9.21924 160.945 9.56266 160.134 10.2523C160.073 10.3035 160.02 10.3603 159.973 10.4254C157.865 13.3514 157.435 16.8506 158.68 20.9246C158.682 20.9357 158.687 20.9454 158.691 20.9565C160.395 25.9111 162.75 28.6848 165.752 29.2747C165.808 29.2858 165.865 29.2913 165.922 29.2927C165.962 29.2927 166.002 29.2941 166.042 29.2941C169.274 29.2941 172.381 27.0092 175.362 22.4381C175.379 22.4132 175.394 22.3869 175.408 22.3606C176.351 20.5659 177 18.9818 177.359 17.6067H177.36C176.726 17.5361 176.081 17.4724 175.427 17.4115H175.424C175.095 18.5359 174.523 19.875 173.707 21.4287H173.706C171.119 25.378 168.564 27.3526 166.042 27.354C163.813 26.8694 161.978 24.5361 160.534 20.3582C159.491 16.9476 159.804 14.0493 161.473 11.662H161.471C161.813 11.3961 162.167 11.2631 162.529 11.2631C163.165 11.2631 163.835 11.6689 164.537 12.4803H164.536C165.527 14.2058 166.126 15.7858 166.333 17.2204H166.332C165.869 17.7272 165.393 18.2659 164.901 18.8378C164.552 19.2435 164.6 19.8556 165.005 20.2045C165.188 20.3624 165.414 20.4386 165.637 20.4386C165.882 20.4386 166.124 20.3472 166.31 20.1671H166.311C166.419 20.4801 166.684 20.7294 167.03 20.8027C167.098 20.8166 167.164 20.8235 167.231 20.8235C167.679 20.8235 168.082 20.5092 168.178 20.0536C168.325 19.3557 168.379 18.6328 168.343 17.8823H168.341C171.198 14.7832 173.173 13.2337 174.267 13.2337C174.369 13.2337 174.463 13.2461 174.55 13.2738H174.549C174.598 13.296 174.646 13.3195 174.69 13.343C175.462 13.7474 175.816 14.5215 175.755 15.6639C175.851 15.6376 175.95 15.6113 176.053 15.585C176.158 15.5379 176.702 15.4119 177.683 15.2042H177.684C177.654 13.5355 176.956 12.3433 175.593 11.6273C175.492 11.5733 175.388 11.5235 175.28 11.4778C175.259 11.4681 175.237 11.4598 175.215 11.4515C174.987 11.3725 174.742 11.3324 174.478 11.3324C172.919 11.3324 170.744 12.7296 167.951 15.5213C167.593 14.2265 166.998 12.8612 166.167 11.4265C166.138 11.3767 166.105 11.3296 166.067 11.2853C164.899 9.90746 163.735 9.21924 162.579 9.21924Z" fill="#F5FED1"/>
<path d="M137.351 29.7766C137.356 29.7766 137.361 29.7766 137.367 29.7766H137.365C138.091 29.8333 138.699 30.372 139.186 31.3912C139.65 32.4408 139.795 33.82 139.621 35.5316C139.204 39.5059 137.81 42.1757 135.44 43.5424H135.439C135.201 43.6408 134.95 43.6906 134.688 43.6906C133.442 43.6906 131.937 42.5703 130.173 40.3298C128.19 37.6835 127.46 35.3848 127.983 33.4365H127.982C128.047 33.3063 128.114 33.1886 128.184 33.0875C128.385 32.7967 128.652 32.6513 128.986 32.6513C129.374 32.6513 129.852 32.8466 130.419 33.2384C130.43 33.2454 130.441 33.2523 130.451 33.2592C131.422 33.8727 132.135 34.7132 132.588 35.7809C132.473 36.3777 132.379 36.9856 132.304 37.606C132.24 38.1377 132.62 38.621 133.151 38.6847C133.19 38.6889 133.229 38.6916 133.268 38.6916C133.412 38.6916 133.549 38.6598 133.673 38.603C133.797 38.6584 133.934 38.6902 134.075 38.6902C134.114 38.6902 134.153 38.6875 134.191 38.6833C134.723 38.6196 135.103 38.1363 135.039 37.6046C134.953 36.8914 134.808 36.2268 134.601 35.6105H134.6C134.921 34.1219 135.378 32.7205 135.971 31.405L135.976 31.3912C136.442 30.3152 136.9 29.7766 137.351 29.7766ZM137.34 27.8379C136.047 27.8379 134.999 28.7657 134.197 30.6226C133.831 31.4341 133.514 32.2747 133.244 33.1457C132.761 32.5682 132.186 32.0669 131.519 31.6404H131.517C130.534 30.9633 129.655 30.6254 128.877 30.6254C127.977 30.6254 127.214 31.0796 126.588 31.988C126.445 32.1943 126.315 32.4256 126.196 32.6804C126.174 32.7261 126.157 32.7732 126.142 32.8216C125.4 35.4056 126.226 38.2956 128.622 41.493C128.626 41.4985 128.63 41.5041 128.634 41.5096C130.797 44.2625 132.815 45.6376 134.687 45.6376C135.227 45.6376 135.755 45.524 136.27 45.2955C136.299 45.2831 136.328 45.2678 136.356 45.2526C139.329 43.5646 141.061 40.3907 141.55 35.731V35.7282C141.76 33.6608 141.558 31.9437 140.945 30.5756C140.942 30.5686 140.938 30.5617 140.935 30.5548C140.12 28.8488 138.969 27.9445 137.484 27.842C137.476 27.8407 137.468 27.8407 137.459 27.8407C137.419 27.8379 137.38 27.8379 137.34 27.8379Z" fill="#F5FED1"/>
<path d="M102.138 17.4823C102.421 17.7025 102.822 18.3575 103.343 19.4487C103.354 19.4708 103.365 19.4916 103.378 19.5137C103.63 19.9555 103.824 20.508 103.957 21.1713H103.955L103.369 21.9495C103.048 22.3774 103.133 22.9853 103.56 23.3066C103.735 23.4381 103.94 23.5018 104.143 23.5018C104.297 23.5018 104.451 23.4658 104.591 23.3938C104.742 23.4894 104.919 23.5434 105.109 23.5434C105.129 23.5434 105.152 23.5434 105.172 23.542C105.707 23.506 106.111 23.0449 106.077 22.5104C106.057 22.2251 106.032 21.9495 105.999 21.6837H105.998L107.069 20.2629H107.068C107.344 19.9375 107.598 19.6965 107.834 19.5414C107.855 19.5304 107.875 19.5193 107.895 19.5096C108.026 19.4431 108.14 19.4099 108.237 19.4099C108.324 19.4099 108.397 19.4362 108.456 19.4902C108.53 21.2475 108.061 22.779 107.047 24.0821C107.033 24.1001 107.021 24.1167 107.01 24.1347C106.456 24.9545 105.856 25.3643 105.211 25.3643C105.014 25.3643 104.812 25.327 104.607 25.2494H104.606C103.342 24.7343 102.262 23.1557 101.364 20.5135H101.363C101.338 20.2864 101.319 20.069 101.307 19.8641C101.224 18.3602 101.5 17.5668 102.138 17.4823ZM102.242 15.5298C102.176 15.5298 102.109 15.5353 102.041 15.545C100.104 15.678 99.2151 17.1541 99.3716 19.9707C99.3868 20.2463 99.4131 20.5343 99.4491 20.8376C99.456 20.9026 99.4713 20.9677 99.492 21.03C100.585 24.2939 102.044 26.2991 103.875 27.0454C103.88 27.0482 103.887 27.0496 103.893 27.0524C104.389 27.2421 104.864 27.3376 105.32 27.3376C106.553 27.3376 107.644 26.6439 108.591 25.2563H108.59C109.947 23.5032 110.541 21.451 110.375 19.1025C110.365 18.9737 110.331 18.8477 110.272 18.7313C109.818 17.8354 109.201 17.3881 108.422 17.3881C108.001 17.3881 107.533 17.5183 107.018 17.78C106.97 17.8049 106.921 17.8299 106.873 17.8576C106.856 17.8673 106.84 17.877 106.823 17.8866C106.41 18.1497 105.995 18.5278 105.577 19.0235C105.566 19.0374 105.555 19.0512 105.543 19.0651L105.402 19.2534C105.305 19.0194 105.199 18.7978 105.084 18.5915H105.082C104.347 17.0544 103.659 16.1058 103.02 15.7472C102.763 15.6032 102.504 15.5298 102.242 15.5298Z" fill="#F5FED1"/>
<path d="M183.147 34.5479L183.096 34.6933C183.061 34.7888 183.024 34.8843 182.985 34.9785C182.946 35.0727 182.905 35.1668 182.862 35.2596C182.773 35.4438 182.678 35.6252 182.572 35.8024L183.726 35.3732C183.776 35.3538 183.823 35.3302 183.867 35.3025C183.889 35.2901 183.911 35.2749 183.932 35.2582L184.026 35.1807L184.028 34.93C183.783 34.8276 183.489 34.7002 183.147 34.5479Z" fill="#F5FED1"/>
<path d="M177.278 27.9674H177.256C177.281 27.9494 177.019 27.9854 176.471 28.0754L175.942 28.2693L175.491 28.5615L175.117 28.9547L174.819 29.4463L174.6 30.0376L174.459 30.7286L174.395 31.5179C174.381 32.1078 174.413 32.7047 174.489 33.307C174.772 34.1919 175.045 34.9092 175.312 35.4562L175.744 36.3106C176.04 36.8506 176.356 37.327 176.69 37.741C177.024 38.1551 177.375 38.5082 177.746 38.7976L178.314 39.1867C178.843 39.4567 179.11 39.58 179.116 39.5564C180.232 39.4817 181.145 39.429 181.852 39.3972C182.196 39.2393 182.611 38.9014 183.097 38.3822L181.308 37.4018C180.773 37.813 180.218 37.9086 179.643 37.6856C179.081 37.4571 178.555 37.0182 178.066 36.3687L177.706 35.8425C177.469 35.4659 177.244 35.0366 177.026 34.5533C176.809 34.0714 176.6 33.5369 176.4 32.9498C176.276 31.7201 176.323 30.8878 176.539 30.4516C176.609 30.2924 176.697 30.1692 176.803 30.0805L176.975 29.9739L177.174 29.9185L177.274 30.0085C177.626 30.3838 178.108 31.2493 178.716 32.6036C178.789 32.7725 178.882 33.1062 178.993 33.6075L178.407 34.3857C178.353 34.4578 178.31 34.5325 178.278 34.6128C178.249 34.6502 178.227 34.7735 178.212 34.9798C178.213 35.1487 178.257 35.3066 178.342 35.4548C178.487 35.6888 178.682 35.8397 178.928 35.9048C179.185 35.9658 179.418 35.9408 179.627 35.83C179.796 35.9284 179.954 35.9782 180.098 35.9782C180.26 35.9879 180.42 35.9547 180.581 35.8771C180.713 35.8356 180.857 35.6902 181.013 35.4437C181.089 35.2485 181.122 35.1266 181.113 35.0781C181.121 34.9701 181.095 34.6502 181.035 34.1199L181.379 33.6657C180.692 33.2973 180.242 32.9124 180.028 32.5094C180.3 32.1231 180.714 31.7935 181.271 31.5207C181.549 31.3836 181.863 31.2617 182.212 31.1523L182.763 31L184.028 30.7466C183.604 30.4918 183.187 30.219 182.777 29.9268C181.966 30.1235 181.186 30.712 180.438 31.6896C179.944 30.5403 179.369 29.5571 178.712 28.7387C178.317 28.2554 177.839 27.9979 177.278 27.9674Z" fill="#F5FED1"/>
<mask id="mask1_968_4007" style="mask-type:luminance" maskUnits="userSpaceOnUse" x="152" y="42" width="17" height="15">
<path d="M152.477 42.3901H168.429V56.2654H152.477V42.3901Z" fill="white"/>
</mask>
<g mask="url(#mask1_968_4007)">
<path d="M164.116 42.6646C162.823 42.6646 161.775 43.5937 160.973 45.4493C160.607 46.2622 160.29 47.1027 160.019 47.9723C159.537 47.3949 158.962 46.8936 158.295 46.4671C157.31 45.7913 156.431 45.4535 155.653 45.4535C154.753 45.4535 153.99 45.9063 153.364 46.8147C153.221 47.021 153.091 47.2523 152.972 47.5071C152.95 47.5527 152.932 47.6012 152.918 47.6497C152.183 50.2059 152.984 53.0641 155.325 56.2213L157.842 56.2227H157.843C157.553 55.9015 157.255 55.5456 156.949 55.1578C154.966 52.5102 154.236 50.2129 154.76 48.2645C154.823 48.133 154.89 48.0166 154.96 47.9142C155.16 47.6248 155.427 47.4794 155.762 47.4794C156.15 47.4794 156.628 47.6746 157.195 48.0665C157.206 48.0734 157.218 48.0803 157.227 48.0873C158.198 48.7007 158.91 49.5413 159.364 50.6089C159.249 51.2057 159.155 51.8136 159.08 52.434C159.016 52.9658 159.396 53.4477 159.927 53.5114C159.966 53.5169 160.005 53.5197 160.044 53.5197C160.188 53.5197 160.325 53.4878 160.45 53.4297C160.573 53.4864 160.71 53.5169 160.851 53.5169C160.89 53.5169 160.929 53.5141 160.967 53.51C161.499 53.4463 161.879 52.9644 161.815 52.4326C161.729 51.7181 161.584 51.0534 161.377 50.4386C161.697 48.9486 162.154 47.5472 162.747 46.2331L162.752 46.2192C163.218 45.1419 163.676 44.6032 164.127 44.6032C164.132 44.6032 164.137 44.6046 164.143 44.6046C164.868 44.6614 165.475 45.2 165.962 46.2192C166.426 47.2675 166.572 48.6481 166.397 50.3597C166.14 52.8093 165.511 54.7632 164.512 56.2213L166.771 56.2227H166.772C167.574 54.6732 168.092 52.7857 168.326 50.5591V50.5549C168.537 48.4875 168.334 46.7704 167.721 45.4036C167.718 45.3967 167.714 45.3884 167.711 45.3814C166.896 43.6768 165.745 42.7726 164.26 42.6687C164.252 42.6687 164.244 42.6673 164.235 42.6673C164.195 42.6659 164.155 42.6646 164.116 42.6646Z" fill="#F5FED1"/>
</g>
<mask id="mask2_968_4007" style="mask-type:luminance" maskUnits="userSpaceOnUse" x="145" y="0" width="12" height="6">
<path d="M145.387 0.166016H156.022V5.87676H145.387V0.166016Z" fill="white"/>
</mask>
<g mask="url(#mask2_968_4007)">
<path d="M147.698 0.18457H145.604C146.653 2.89177 148 4.57979 149.645 5.2514C149.651 5.25279 149.658 5.25556 149.663 5.25833C150.159 5.44804 150.635 5.54359 151.091 5.54359C152.323 5.54359 153.415 4.84982 154.362 3.46091C155.132 2.46527 155.656 1.37269 155.936 0.18457H153.923C153.687 0.940649 153.319 1.64272 152.818 2.28802C152.805 2.30464 152.791 2.32264 152.78 2.34064C152.226 3.16042 151.627 3.5703 150.982 3.5703C150.785 3.5703 150.583 3.53153 150.378 3.45537C149.367 3.0441 148.474 1.95291 147.698 0.18457Z" fill="#F5FED1"/>
</g>
<mask id="mask3_968_4007" style="mask-type:luminance" maskUnits="userSpaceOnUse" x="148" y="0" width="5" height="2">
<path d="M148.932 0.166016H152.123V1.97728H148.932V0.166016Z" fill="white"/>
</mask>
<g mask="url(#mask3_968_4007)">
<path d="M149.119 0.18457C148.823 0.609691 148.913 1.19683 149.331 1.51255C149.506 1.64411 149.711 1.7078 149.914 1.7078C150.069 1.7078 150.223 1.67042 150.361 1.59841C150.512 1.69396 150.69 1.74935 150.879 1.74935C150.9 1.74935 150.922 1.74796 150.943 1.74658C151.477 1.71196 151.882 1.24945 151.847 0.716318C151.835 0.534914 151.821 0.357665 151.803 0.18457H151.804H149.119Z" fill="#F5FED1"/>
</g>
<mask id="mask4_968_4007" style="mask-type:luminance" maskUnits="userSpaceOnUse" x="115" y="0" width="21" height="18">
<path d="M115.609 0.166016H135.461V17.9297H115.609V0.166016Z" fill="white"/>
</mask>
<g mask="url(#mask4_968_4007)">
<path d="M116.937 0.18457C115.492 2.85577 115.31 5.9604 116.39 9.49569C116.393 9.50676 116.397 9.51646 116.4 9.52754C118.106 14.4822 120.46 17.2559 123.462 17.8458C123.519 17.8569 123.576 17.8624 123.633 17.8638C123.673 17.8638 123.713 17.8652 123.753 17.8652C126.985 17.8652 130.091 15.5803 133.073 11.0092C133.089 10.9843 133.104 10.958 133.118 10.9317C136.091 5.27356 136.154 1.69673 133.304 0.198418C133.294 0.192879 133.286 0.188725 133.278 0.18457H130.854C129.461 0.720472 127.73 2.02353 125.66 4.09236C125.319 2.85438 124.76 1.55133 123.984 0.18457H121.294C121.604 0.386745 121.923 0.674775 122.248 1.05143H122.247C123.238 2.77684 123.836 4.35685 124.044 5.79146L124.043 5.79284C123.58 6.29828 123.104 6.83695 122.612 7.40885C122.263 7.81459 122.31 8.42665 122.716 8.77561C122.899 8.93347 123.123 9.00964 123.347 9.00964C123.593 9.00964 123.835 8.91824 124.02 8.73822H124.022C124.13 9.05118 124.394 9.30043 124.74 9.37383C124.808 9.38767 124.875 9.3946 124.941 9.3946C125.39 9.3946 125.793 9.08026 125.888 8.62467C126.035 7.92675 126.089 7.20391 126.053 6.45337H126.052C128.907 3.35428 130.883 1.80474 131.977 1.80474C132.08 1.80474 132.174 1.8172 132.261 1.8449H132.26C132.308 1.86705 132.355 1.89059 132.401 1.91413C134.104 2.80869 133.776 5.50481 131.418 9.99974L131.416 10.0011C128.83 13.9491 126.275 15.9237 123.753 15.9251C121.525 15.4405 119.689 13.1071 118.245 8.92932C117.202 5.51866 117.515 2.62036 119.183 0.233037C119.204 0.21642 119.225 0.199803 119.247 0.18457H116.937Z" fill="#F5FED1"/>
</g>
<path d="M144.354 17.6307C144.637 17.8495 145.037 18.5059 145.558 19.5971C145.569 19.6192 145.58 19.64 145.592 19.6622C145.846 20.1025 146.038 20.655 146.171 21.3197L145.585 22.098C145.263 22.5245 145.349 23.1324 145.775 23.455C145.95 23.5866 146.155 23.6503 146.358 23.6503C146.513 23.6503 146.667 23.6129 146.805 23.5423H146.807C146.956 23.6364 147.135 23.6918 147.323 23.6918C147.344 23.6918 147.366 23.6904 147.388 23.6891C147.922 23.6544 148.327 23.1933 148.291 22.6588C148.273 22.3735 148.247 22.0966 148.214 21.8307L149.284 20.4113H149.283C149.558 20.0845 149.815 19.845 150.05 19.6899H150.049C150.069 19.6788 150.09 19.6677 150.111 19.658C150.242 19.5902 150.356 19.5569 150.453 19.5569C150.539 19.5569 150.612 19.5846 150.672 19.6386H150.67C150.745 21.3959 150.276 22.926 149.262 24.2305C149.25 24.2471 149.237 24.2651 149.225 24.2831C148.671 25.1029 148.071 25.5128 147.426 25.5128C147.229 25.5128 147.028 25.474 146.822 25.3978C145.556 24.8827 144.476 23.3041 143.579 20.662C143.553 20.4335 143.535 20.2175 143.522 20.0111C143.439 18.5087 143.716 17.7152 144.353 17.6307H144.354ZM144.457 15.6782C144.39 15.6782 144.324 15.6838 144.257 15.6921H144.256C142.32 15.8264 141.43 17.3025 141.588 20.1191C141.603 20.3947 141.628 20.6827 141.664 20.986C141.672 21.0511 141.686 21.1162 141.707 21.1785C142.799 24.4424 144.26 26.4475 146.09 27.1939C146.096 27.1953 146.102 27.198 146.109 27.2008C146.603 27.3905 147.08 27.4861 147.535 27.4861C148.769 27.4861 149.859 26.7923 150.806 25.4048C152.162 23.6503 152.757 21.5995 152.59 19.2495C152.581 19.1207 152.547 18.9947 152.487 18.8798C152.033 17.9838 151.417 17.5366 150.637 17.5366C150.217 17.5366 149.749 17.6667 149.233 17.9285C149.186 17.9534 149.137 17.9783 149.088 18.006C149.071 18.0157 149.054 18.0254 149.039 18.0351C148.625 18.2968 148.21 18.6762 147.791 19.172C147.78 19.1858 147.769 19.1983 147.76 19.2135L147.617 19.4018C147.521 19.1664 147.415 18.9463 147.298 18.7399H147.297C146.562 17.2015 145.875 16.2543 145.236 15.8956C144.979 15.7502 144.719 15.6782 144.457 15.6782Z" fill="#F5FED1"/>
<mask id="mask5_968_4007" style="mask-type:luminance" maskUnits="userSpaceOnUse" x="101" y="42" width="17" height="15">
<path d="M101.075 42.7446H117.027V56.2654H101.075V42.7446Z" fill="white"/>
</mask>
<g mask="url(#mask5_968_4007)">
<path d="M112.666 43.0439C111.372 43.0439 110.325 43.9717 109.522 45.8287C109.157 46.6402 108.839 47.4807 108.569 48.3503C108.086 47.7743 107.511 47.2716 106.844 46.8465C105.861 46.1693 104.98 45.8315 104.202 45.8315C103.302 45.8315 102.539 46.2857 101.913 47.1927C101.77 47.4004 101.64 47.6303 101.521 47.8864C101.5 47.9321 101.482 47.9792 101.468 48.0277C100.762 50.4815 101.473 53.2136 103.6 56.2213H106.06C105.876 56.0067 105.689 55.7782 105.498 55.5359C103.515 52.8882 102.785 50.5909 103.309 48.6425C103.372 48.511 103.44 48.3947 103.51 48.2936C103.71 48.0028 103.978 47.8574 104.311 47.8574C104.699 47.8574 105.177 48.0526 105.745 48.4445C105.756 48.4514 105.767 48.4584 105.778 48.4653C106.747 49.0787 107.46 49.9193 107.914 50.9869C107.8 51.5838 107.704 52.1917 107.629 52.812C107.565 53.3438 107.945 53.8271 108.477 53.8908C108.515 53.8949 108.556 53.8977 108.593 53.8977C108.737 53.8977 108.874 53.8658 108.999 53.8077C109.123 53.8644 109.259 53.8949 109.4 53.8949C109.439 53.8949 109.478 53.8935 109.517 53.888C110.048 53.8257 110.428 53.3424 110.364 52.8106C110.278 52.0975 110.133 51.4314 109.927 50.8166C110.246 49.328 110.703 47.9266 111.296 46.6111L111.302 46.5972C111.767 45.5213 112.225 44.9826 112.677 44.9826C112.682 44.9826 112.686 44.9826 112.692 44.9826C113.417 45.0394 114.024 45.5781 114.511 46.5972C114.975 47.6455 115.121 49.0261 114.948 50.7377C114.711 52.981 114.164 54.8089 113.305 56.2213L115.508 56.2227C116.205 54.7479 116.661 52.9865 116.875 50.9371V50.9343C117.086 48.8669 116.885 47.1484 116.27 45.7816C116.267 45.7747 116.265 45.7678 116.26 45.7608C115.445 44.0548 114.294 43.1506 112.81 43.0481C112.801 43.0467 112.793 43.0467 112.785 43.0453C112.744 43.0439 112.706 43.0439 112.666 43.0439Z" fill="#F5FED1"/>
</g>
<path d="M87.1483 38.1586C87.4308 38.3787 87.8324 39.0337 88.3531 40.1249C88.3641 40.1471 88.3752 40.1678 88.3877 40.19C88.6411 40.6304 88.8336 41.1843 88.9665 41.8476H88.9651L88.3794 42.6258C88.0581 43.0537 88.1426 43.6616 88.5705 43.9829C88.745 44.1144 88.9499 44.1781 89.1535 44.1781C89.3072 44.1781 89.4609 44.1421 89.6007 44.0701C89.7517 44.1656 89.9289 44.2197 90.1186 44.2197C90.1394 44.2197 90.1616 44.2197 90.1823 44.2183C90.7168 44.1823 91.1212 43.7211 91.0866 43.1866C91.0672 42.9014 91.0423 42.6258 91.009 42.3585H91.0076L92.0794 40.9392H92.0781C92.3536 40.6137 92.6084 40.3728 92.8438 40.2177C92.8646 40.2066 92.8854 40.1955 92.9048 40.1859H92.9062C93.0363 40.1194 93.1499 40.0861 93.2468 40.0861C93.334 40.0861 93.4074 40.1125 93.4656 40.1665C93.5404 41.9237 93.0709 43.4539 92.0573 44.7583C92.0448 44.7763 92.031 44.7929 92.0199 44.8109C91.466 45.6307 90.8664 46.0406 90.2211 46.0406C90.0245 46.0406 89.8223 46.0032 89.6173 45.9257H89.616C88.3517 45.4105 87.2716 43.8319 86.3742 41.1898H86.3729C86.3479 40.9627 86.3285 40.7453 86.3175 40.539C86.2344 39.0365 86.51 38.243 87.1483 38.1586ZM87.2522 36.2061C87.1857 36.2061 87.1192 36.2116 87.0528 36.2213H87.0514C85.1141 36.3542 84.2251 37.8304 84.3816 40.647C84.3968 40.9225 84.4231 41.2106 84.4591 41.5138C84.466 41.5789 84.4813 41.644 84.5021 41.7063C85.5946 44.9702 87.0542 46.9753 88.8848 47.7217C88.8904 47.7245 88.8973 47.7259 88.9028 47.7286C89.3986 47.9183 89.8735 48.0139 90.3305 48.0139C91.5629 48.0139 92.6541 47.3201 93.6013 45.9326C94.957 44.1795 95.5524 42.1273 95.3849 39.7787C95.3752 39.6486 95.3406 39.5239 95.2824 39.4076C94.8282 38.5117 94.2106 38.0644 93.4324 38.0644C93.0114 38.0644 92.5433 38.1946 92.0282 38.4563C91.9797 38.4812 91.9313 38.5061 91.8828 38.5338C91.8662 38.5435 91.8496 38.5532 91.833 38.5629C91.4203 38.826 91.0049 39.2041 90.5867 39.6998C90.5756 39.7136 90.5645 39.7275 90.5534 39.7413L90.4122 39.9297C90.3153 39.6943 90.21 39.4741 90.0937 39.2678H90.0923C89.357 37.7293 88.6688 36.7821 88.0304 36.4235C87.7729 36.2794 87.5139 36.2061 87.2522 36.2061Z" fill="#F5FED1"/>
<path d="M76.5855 10.4174C77.2211 10.4174 77.8899 10.8232 78.5934 11.6346H78.592C79.5835 13.36 80.1817 14.9401 80.3894 16.3761H80.388C79.9255 16.8815 79.4492 17.4202 78.9576 17.9921C78.6086 18.3978 78.6557 19.0099 79.0614 19.3588C79.2442 19.5167 79.4686 19.5928 79.6929 19.5928C79.9366 19.5928 80.1803 19.5015 80.3659 19.3214H80.3673C80.4753 19.6344 80.7398 19.8836 81.086 19.957C81.1538 19.9709 81.2203 19.9778 81.2867 19.9778C81.7354 19.9778 82.1384 19.6649 82.2339 19.2079C82.3807 18.5114 82.4347 17.7871 82.3987 17.0366H82.3973C85.2527 13.9375 87.2287 12.3879 88.3227 12.3879C88.4252 12.3879 88.5193 12.4018 88.6066 12.4281H88.6052C88.6537 12.4503 88.7007 12.4738 88.7464 12.4973C90.4497 13.3919 90.1215 16.088 87.7633 20.5843H87.7619C85.1751 24.5323 82.6203 26.5083 80.0986 26.5097C77.8692 26.0237 76.0344 23.6917 74.5901 19.5125C73.5473 16.1019 73.8603 13.2036 75.5289 10.8162H75.5275C75.8696 10.5504 76.2227 10.4174 76.5855 10.4174ZM76.6353 8.37354C75.8169 8.37354 75.0013 8.71834 74.1899 9.40656C74.1289 9.4578 74.0763 9.51596 74.0292 9.57966C71.9216 12.5057 71.491 16.0063 72.7359 20.0789C72.7386 20.09 72.7428 20.1011 72.7456 20.1107C74.4516 25.0668 76.8057 27.8391 79.8078 28.429C79.8646 28.4401 79.9214 28.4456 79.9781 28.447C80.0183 28.4484 80.0585 28.4484 80.0986 28.4484C83.3306 28.4484 86.4367 26.1635 89.418 21.5938C89.4347 21.5675 89.4499 21.5412 89.4637 21.5149C92.4368 15.8582 92.4991 12.2799 89.6493 10.7816C89.5482 10.729 89.4444 10.6792 89.3363 10.6321C89.3156 10.6224 89.2934 10.6141 89.2699 10.6058C89.0428 10.5268 88.7977 10.4867 88.5346 10.4867C86.9753 10.4867 84.7999 11.8839 82.0054 14.677C81.6496 13.3808 81.0541 12.0154 80.2233 10.5808C80.1942 10.531 80.1609 10.4839 80.1235 10.441C78.9548 9.06176 77.7916 8.37354 76.6353 8.37354Z" fill="#F5FED1"/>
<mask id="mask6_968_4007" style="mask-type:luminance" maskUnits="userSpaceOnUse" x="90" y="0" width="14" height="7">
<path d="M90.0854 0.166016H103.556V6.23126H90.0854V0.166016Z" fill="white"/>
</mask>
<g mask="url(#mask6_968_4007)">
<path d="M92.7152 0.18457H90.3958C90.7087 0.6997 91.0632 1.22314 91.462 1.75489C91.4662 1.76043 91.4703 1.76735 91.4759 1.77289C93.6375 4.5244 95.6551 5.90085 97.5286 5.90085C98.0673 5.90085 98.5949 5.78592 99.11 5.55882C99.1391 5.54497 99.1682 5.53112 99.1959 5.51451C101.172 4.39424 102.598 2.61759 103.478 0.18457H101.388C100.671 1.8172 99.6349 3.02471 98.2806 3.80571C98.041 3.90403 97.7904 3.95388 97.5286 3.95388C96.2824 3.95388 94.7771 2.83361 93.0143 0.593074C92.9105 0.455983 92.8122 0.318892 92.7152 0.18457Z" fill="#F5FED1"/>
</g>
<path d="M56.2101 4.89343C56.4926 5.1136 56.8928 5.76859 57.4135 6.85978C57.4245 6.88194 57.4356 6.90271 57.4481 6.92487C57.7015 7.36522 57.894 7.91913 58.0269 8.58242L57.4412 9.36066C57.1185 9.78855 57.2044 10.3951 57.6309 10.7177C57.8054 10.8493 58.0103 10.913 58.2139 10.913C58.369 10.913 58.5227 10.877 58.6611 10.805H58.6625C58.8121 10.9005 58.9907 10.9545 59.179 10.9545C59.1998 10.9545 59.222 10.9545 59.2441 10.9531C59.7773 10.9171 60.183 10.456 60.147 9.92149C60.129 9.63623 60.1027 9.36066 60.0694 9.0934L61.1399 7.67402H61.1385C61.414 7.3486 61.6702 7.10766 61.9056 6.95256H61.9042C61.925 6.94149 61.9458 6.93041 61.9666 6.92071C62.0981 6.85425 62.2117 6.82101 62.3086 6.82101C62.3944 6.82101 62.4678 6.84732 62.5274 6.90133H62.526C62.6008 8.65859 62.1313 10.1887 61.1177 11.4932C61.1052 11.5112 61.0928 11.5278 61.0803 11.5458C60.5264 12.3656 59.9268 12.7755 59.2815 12.7755C59.0849 12.7755 58.8841 12.7381 58.6778 12.6605C57.4121 12.1454 56.332 10.5668 55.4347 7.92466C55.4083 7.69756 55.3903 7.48016 55.3779 7.27383C55.2948 5.77136 55.5717 4.9779 56.2087 4.89343H56.2101ZM56.3126 2.94092C56.2461 2.94092 56.1797 2.94646 56.1132 2.95477H56.1118C54.1759 3.08909 53.2855 4.56524 53.4434 7.38184C53.4586 7.65741 53.4835 7.94544 53.5195 8.2487C53.5278 8.31378 53.5417 8.37887 53.5625 8.44118C54.655 11.7051 56.116 13.7102 57.9452 14.4566C57.9521 14.4593 57.9577 14.4607 57.9646 14.4635C58.459 14.6532 58.9353 14.7488 59.3909 14.7488C60.6247 14.7488 61.7145 14.055 62.6617 12.6675C64.0174 10.9144 64.6128 8.86215 64.4453 6.51221C64.437 6.38343 64.4023 6.2588 64.3428 6.14248C63.8886 5.24654 63.2724 4.79926 62.4928 4.79926C62.0732 4.79926 61.6051 4.92943 61.0886 5.19115C61.0415 5.21608 60.9931 5.241 60.9432 5.2687C60.9266 5.27839 60.91 5.28808 60.8948 5.29778C60.4807 5.5595 60.0653 5.93892 59.6471 6.43466C59.636 6.44851 59.6249 6.46236 59.6152 6.47621L59.4726 6.66453C59.3771 6.42913 59.2704 6.20895 59.1541 6.00262H59.1527C58.4174 4.46415 57.7306 3.51698 57.0922 3.15833C56.8346 3.01431 56.5743 2.94092 56.3126 2.94092Z" fill="#F5FED1"/>
<path d="M56.7212 31.514C57.3568 31.514 58.0257 31.9198 58.7291 32.7312H58.7277C59.7179 34.4566 60.3175 36.0367 60.5238 37.4713H60.5224C60.0613 37.9781 59.5835 38.5168 59.0933 39.0887C58.7444 39.4944 58.7914 40.1065 59.1972 40.4554C59.38 40.6119 59.6043 40.6894 59.8286 40.6894C60.0723 40.6894 60.3161 40.5967 60.5016 40.418H60.503C60.6096 40.7296 60.8741 40.9802 61.2217 41.0536C61.2882 41.0675 61.356 41.0744 61.4225 41.0744C61.8711 41.0744 62.2741 40.7601 62.3697 40.3031C62.5164 39.6066 62.5705 38.8837 62.5344 38.1332H62.5331C65.3884 35.0341 67.3631 33.4832 68.4571 33.4832C68.5595 33.4832 68.6551 33.497 68.7423 33.5247H68.7409C68.7894 33.5469 68.8365 33.5704 68.8822 33.5939C70.5854 34.4885 70.2572 37.1846 67.8976 41.6795H67.8962C65.3109 45.6289 62.756 47.6035 60.2344 47.6049C58.0049 47.1189 56.1687 44.7869 54.7258 40.6077C53.6831 37.1985 53.996 34.2988 55.6647 31.9128H55.6633C56.0053 31.647 56.357 31.514 56.7212 31.514ZM56.7711 29.4688C55.9527 29.4688 55.1371 29.8136 54.3242 30.5032C54.2647 30.553 54.2107 30.6112 54.165 30.6749C52.0574 33.6023 51.6267 37.1015 52.8716 41.1755C52.8744 41.1852 52.8785 41.1963 52.8813 41.2073C54.5873 46.162 56.9414 48.9357 59.9436 49.5256C59.999 49.5367 60.0571 49.5422 60.1139 49.5436C60.154 49.5436 60.1942 49.5436 60.2344 49.5436C63.465 49.5436 66.5724 47.2587 69.5524 42.689C69.569 42.6641 69.5856 42.6378 69.5995 42.6115C72.5726 36.9534 72.6349 33.3752 69.7837 31.8782C69.684 31.8242 69.5801 31.7744 69.4721 31.7287C69.4499 31.719 69.4278 31.7107 69.4056 31.7024C69.1785 31.6234 68.932 31.5833 68.6689 31.5833C67.1111 31.5833 64.9342 32.9791 62.1412 35.7722C61.7839 34.4774 61.1898 33.112 60.3576 31.6774C60.3299 31.6276 60.2967 31.5805 60.2593 31.5362C59.0906 30.1584 57.9274 29.4688 56.7711 29.4688Z" fill="#F5FED1"/>
<mask id="mask7_968_4007" style="mask-type:luminance" maskUnits="userSpaceOnUse" x="30" y="42" width="17" height="15">
<path d="M30.5298 42.0356H46.8367V56.2654H30.5298V42.0356Z" fill="white"/>
</mask>
<g mask="url(#mask7_968_4007)">
<path d="M42.195 42.3335C40.9016 42.3335 39.8534 43.2613 39.0516 45.1182C38.686 45.9311 38.3675 46.7716 38.0975 47.6413C37.6156 47.0638 37.0395 46.5625 36.3721 46.136C35.3889 45.4603 34.5082 45.121 33.7314 45.121C32.8299 45.121 32.0669 45.5752 31.4423 46.4836C31.2997 46.6899 31.1682 46.9212 31.0491 47.176C31.0283 47.2217 31.0103 47.2702 30.9965 47.3186C30.2542 49.9012 31.0795 52.7912 33.4752 55.9886C33.4793 55.9941 33.4849 55.9997 33.489 56.0066C33.5458 56.0786 33.604 56.1506 33.6607 56.2226H36.2295C35.8431 55.8183 35.4429 55.353 35.0275 54.8254C33.0445 52.1791 32.3147 49.8818 32.8382 47.9335C32.9019 47.8019 32.9684 47.6856 33.039 47.5831C33.2384 47.2923 33.5056 47.1469 33.8394 47.1469C34.2271 47.1469 34.7062 47.3436 35.274 47.7341C35.2837 47.7424 35.2947 47.7493 35.3058 47.7562C36.2765 48.3683 36.9883 49.2088 37.4425 50.2779C37.3276 50.8733 37.2334 51.4826 37.1586 52.103C37.0949 52.6347 37.4744 53.1166 38.0047 53.1803C38.0449 53.1858 38.0837 53.1872 38.1224 53.1872C38.2651 53.1872 38.4035 53.1554 38.5268 53.0986C38.6514 53.1554 38.7871 53.1858 38.9297 53.1858C38.9671 53.1858 39.0059 53.1831 39.0461 53.1789C39.5764 53.1152 39.9558 52.6333 39.8935 52.1016C39.8077 51.387 39.6623 50.7224 39.4559 50.1061C39.7758 48.6175 40.2314 47.2162 40.8241 45.902L40.831 45.8882C41.2963 44.8108 41.7546 44.2722 42.2047 44.2722C42.2102 44.2722 42.2158 44.2722 42.2199 44.2722C42.9455 44.3303 43.5521 44.8676 44.0409 45.8868C44.5048 46.9364 44.6502 48.317 44.4757 50.0286C44.1987 52.6679 43.4897 54.7326 42.3501 56.2226H44.6723C45.5766 54.6149 46.154 52.6167 46.4047 50.228V50.2239C46.6151 48.1564 46.413 46.4393 45.7995 45.0725C45.7968 45.0642 45.7926 45.0573 45.7898 45.0504C44.9728 43.3444 43.8235 42.4401 42.339 42.3377C42.3307 42.3377 42.3224 42.3363 42.3141 42.3363C42.2739 42.3349 42.2338 42.3335 42.195 42.3335Z" fill="#F5FED1"/>
</g>
<path d="M20.3618 9.34581C20.3673 9.34581 20.3715 9.34581 20.377 9.34581H20.3756C21.1026 9.40258 21.7091 9.94125 22.1966 10.9604C22.6605 12.0087 22.8059 13.3893 22.6328 15.1009C22.2146 19.0737 20.8201 21.7449 18.4508 23.1117H18.4494C18.2112 23.21 17.9606 23.2599 17.6989 23.2599C16.4526 23.2599 14.9474 22.1396 13.1846 19.8991H13.1832C11.2002 17.2514 10.4704 14.9541 10.9939 13.0057C11.0576 12.8742 11.1254 12.7579 11.1947 12.6568C11.3954 12.366 11.6627 12.2206 11.9964 12.2206C12.3842 12.2206 12.8619 12.4158 13.431 12.8077C13.4407 12.8146 13.4518 12.8216 13.4629 12.8285C14.4322 13.4419 15.1454 14.2825 15.5996 15.3501H15.5982C15.4846 15.947 15.3891 16.5549 15.3157 17.1752C15.2506 17.707 15.63 18.1889 16.1618 18.254C16.2006 18.2581 16.2407 18.2609 16.2781 18.2609C16.4221 18.2609 16.5592 18.229 16.6838 18.1709H16.6852C16.8085 18.2276 16.9442 18.2581 17.0854 18.2581C17.1242 18.2581 17.163 18.2567 17.2017 18.2512C17.7335 18.1875 18.1129 17.7056 18.0492 17.1738C17.9634 16.4593 17.818 15.7946 17.6116 15.1798C17.9315 13.6912 18.3885 12.2884 18.9812 10.9743L18.9867 10.9604C19.452 9.88309 19.9103 9.34581 20.3618 9.34581ZM20.3507 7.40576C19.0573 7.40576 18.0104 8.33493 17.2073 10.1919C16.8417 11.0034 16.5246 11.8439 16.2546 12.7135C15.7713 12.1361 15.1966 11.6348 14.5292 11.2097H14.5278C13.546 10.5325 12.6653 10.1947 11.8884 10.1947C10.9869 10.1947 10.2239 10.6489 9.59803 11.5559C9.45679 11.7622 9.32523 11.9935 9.20615 12.2496C9.18537 12.2953 9.16737 12.3424 9.15352 12.3909C8.40991 14.9735 9.23661 17.8635 11.6322 21.0609C11.6364 21.0664 11.6406 21.0733 11.6461 21.0789C11.6544 21.0899 11.6613 21.0996 11.6696 21.1107C12.2014 21.3184 12.5143 21.5095 12.6127 21.6854C12.6556 21.7976 12.5891 21.9056 12.416 22.008C14.2896 24.1406 16.0496 25.2068 17.6989 25.2068C18.2375 25.2068 18.7651 25.0919 19.2803 24.8648C19.3093 24.8509 19.3384 24.8371 19.3661 24.8205C22.3406 23.1338 24.0715 19.96 24.5603 15.3003L24.5617 15.2975C24.7708 13.2287 24.57 11.5116 23.9552 10.1448C23.9524 10.1379 23.9497 10.131 23.9455 10.1227C23.1299 8.41802 21.9792 7.51377 20.4961 7.40992C20.4864 7.40992 20.4795 7.40992 20.4698 7.40853C20.431 7.40715 20.3908 7.40576 20.3507 7.40576Z" fill="#F5FED1"/>
<mask id="mask8_968_4007" style="mask-type:luminance" maskUnits="userSpaceOnUse" x="26" y="0" width="20" height="12">
<path d="M26.6304 0.166016H45.7733V11.1942H26.6304V0.166016Z" fill="white"/>
</mask>
<g mask="url(#mask8_968_4007)">
<path d="M28.6632 0.18457H26.6982C26.8132 0.966959 26.9973 1.77427 27.2508 2.60513C27.2535 2.61482 27.2577 2.6259 27.2605 2.63698C28.9665 7.59164 31.3206 10.3639 34.3227 10.9552C34.3795 10.9663 34.4363 10.9718 34.493 10.9732C34.5332 10.9732 34.5734 10.9732 34.6135 10.9732C37.8455 10.9732 40.9516 8.68837 43.9329 4.11867C43.9496 4.09374 43.9648 4.06743 43.9786 4.03974C44.7223 2.62451 45.2845 1.33946 45.6639 0.18457H43.6241C43.2932 1.05558 42.8431 2.03045 42.2782 3.10918H42.2754C39.69 7.05851 37.1352 9.03318 34.6135 9.03456C32.3841 8.54851 30.5479 6.21658 29.105 2.03738C28.9111 1.40177 28.7629 0.784171 28.6632 0.18457Z" fill="#F5FED1"/>
</g>
<mask id="mask9_968_4007" style="mask-type:luminance" maskUnits="userSpaceOnUse" x="33" y="0" width="5" height="3">
<path d="M33.0112 0.166016H37.2652V2.68628H33.0112V0.166016Z" fill="white"/>
</mask>
<g mask="url(#mask9_968_4007)">
<path d="M33.7602 0.18457C33.6647 0.293966 33.5691 0.406132 33.4722 0.518297C33.1232 0.924032 33.1703 1.53609 33.576 1.88505C33.7588 2.04153 33.9832 2.11908 34.2075 2.11908C34.4512 2.11908 34.6949 2.0263 34.8805 1.84767H34.8819C34.9899 2.15924 35.2544 2.40988 35.6006 2.48327C35.6684 2.49712 35.7349 2.50404 35.8014 2.50404C36.25 2.50404 36.653 2.1897 36.7485 1.73273C36.8538 1.23145 36.9119 0.714933 36.923 0.18457H33.7602Z" fill="#F5FED1"/>
</g>
<path d="M35.0094 21.1674C35.2919 21.3875 35.6935 22.0425 36.2141 23.1337C36.2252 23.1559 36.2363 23.1766 36.2488 23.1988C36.5008 23.6391 36.6947 24.1931 36.8276 24.8564H36.8262L36.2405 25.6346C35.9178 26.0625 36.0037 26.6704 36.4316 26.9916C36.606 27.1232 36.811 27.1869 37.0145 27.1869C37.1682 27.1869 37.322 27.1509 37.4618 27.0789C37.6128 27.1744 37.79 27.2284 37.9797 27.2284C38.0005 27.2284 38.0226 27.2284 38.0434 27.2271C38.5779 27.1911 38.9823 26.7299 38.9477 26.1954C38.9283 25.9102 38.9033 25.6346 38.8701 25.3673H38.8687L39.9405 23.9479H39.9391C40.2147 23.6225 40.4695 23.3816 40.7049 23.2265C40.7257 23.2154 40.7465 23.2043 40.7658 23.1946C40.8974 23.1282 41.011 23.0949 41.1079 23.0949C41.1951 23.0949 41.2685 23.1212 41.3267 23.1753C41.4015 24.9325 40.932 26.4627 39.9184 27.7671C39.9045 27.7851 39.8921 27.8017 39.881 27.8197C39.3271 28.6395 38.7275 29.0494 38.0822 29.0494C37.8856 29.0494 37.6834 29.012 37.4784 28.9345H37.477C36.2128 28.4193 35.1327 26.8407 34.2353 24.1986H34.2339C34.209 23.9715 34.1896 23.7541 34.1786 23.5478C34.0955 22.0453 34.371 21.2518 35.0094 21.1674ZM35.1133 19.2148C35.0468 19.2148 34.9803 19.2204 34.9125 19.2301C32.9752 19.363 32.0862 20.8392 32.2427 23.6558C32.2579 23.9313 32.2842 24.2194 32.3202 24.5226C32.3271 24.5877 32.3424 24.6528 32.3631 24.7151C33.4543 27.979 34.9152 29.9841 36.7459 30.7305C36.7514 30.7333 36.7584 30.7347 36.7639 30.7374C37.2596 30.9271 37.7346 31.0227 38.1916 31.0227C39.424 31.0227 40.5152 30.3289 41.4624 28.9414H41.461C42.8181 27.1883 43.4121 25.1361 43.246 22.7875C43.2363 22.6574 43.2016 22.5327 43.1435 22.4164C42.6893 21.5205 42.0717 21.0732 41.2934 21.0732C40.8725 21.0732 40.4044 21.2034 39.8893 21.4651C39.8408 21.49 39.7924 21.5149 39.7439 21.5426C39.7273 21.5523 39.7107 21.562 39.694 21.5717C39.2814 21.8348 38.866 22.2128 38.4478 22.7086C38.4367 22.7224 38.4256 22.7363 38.4145 22.7501L38.2733 22.9385C38.1764 22.7031 38.0697 22.4829 37.9548 22.2765H37.9534C37.2181 20.7381 36.5299 19.7909 35.8915 19.4323C35.6339 19.2882 35.375 19.2148 35.1133 19.2148Z" fill="#F5FED1"/>
<path d="M2.11588 41.8652L1.94556 41.9109C1.50105 42.0383 1.12301 42.1782 0.814209 42.3333V43.009C0.945761 43.0894 1.03854 43.1406 1.08978 43.1628C1.24348 43.2375 1.43873 43.3206 1.67553 43.412C1.79323 43.4577 1.92202 43.5048 2.06188 43.5546C2.14081 43.5823 2.30559 43.6239 2.55347 43.6807C2.44822 43.3995 2.36098 43.124 2.29175 42.854C2.25713 42.7196 2.22666 42.5853 2.20174 42.4524L2.16573 42.2544C2.14496 42.1242 2.12834 41.994 2.11588 41.8652Z" fill="#F5FED1"/>
<path d="M3.22091 45.1069L3.14613 45.1346L3.08935 45.1762L3.04643 45.2191L3.01873 45.2648L3.00488 45.3119V45.3617L3.0215 45.413L3.05058 45.467L3.09489 45.5224L3.15305 45.5791L3.58233 45.7204C3.47985 45.5584 3.35938 45.3548 3.22091 45.1069Z" fill="#F5FED1"/>
<path d="M11.6128 34.4849L11.1904 34.5181C10.3651 34.6566 9.64778 35.2063 9.04126 36.1687C8.47212 37.1561 7.96392 38.3636 7.51664 39.7913C7.01259 39.175 6.3299 38.6018 5.4672 38.0742C4.82605 37.6726 4.23199 37.4219 3.68363 37.3222C3.13249 37.217 2.61459 37.2738 2.12716 37.4939C1.58572 37.8027 1.22153 38.1032 1.03735 38.394L2.01915 38.8482L8.10931 40.3812L5.92278 40.9226C6.23712 41.2494 6.55008 41.7521 6.86026 42.4278C6.76748 42.889 6.67332 43.4983 6.57639 44.2529C6.539 44.3956 6.58193 44.5991 6.70655 44.865C6.84088 45.0866 7.03613 45.2334 7.29369 45.3068C7.50002 45.3649 7.71743 45.3455 7.94591 45.2486C8.09962 45.3164 8.24918 45.3441 8.39596 45.3358C8.81831 45.3081 9.11326 45.0741 9.28082 44.6351C9.36944 44.2917 9.23374 43.4983 8.8737 42.2575C9.35698 40.1471 9.97043 38.4425 10.7127 37.1408C11.1364 36.5177 11.5255 36.2906 11.8759 36.4609C12.1874 36.5329 12.4741 36.7005 12.7386 36.9636C12.812 36.9996 12.9961 37.2502 13.2925 37.7155C13.8865 38.7845 14.0873 40.2718 13.8935 42.1786C13.6622 43.904 13.4282 45.045 13.19 45.6003C12.9227 46.4062 12.5904 47.1249 12.1944 47.7592L13.3783 47.9309L12.067 47.9558C11.6446 48.5886 11.1558 49.1301 10.5991 49.5801C10.1214 49.9388 9.82641 50.1409 9.71286 50.1894C9.49961 50.2766 9.27805 50.3251 9.04818 50.3348C8.50674 50.3376 7.99023 50.1894 7.49587 49.8917C7.12337 49.7518 6.41575 49.1481 5.3758 48.0804L2.97602 48.1247L2.9137 48.1649C3.02033 48.3228 3.11311 48.4169 3.19619 48.446L7.2383 49.9429C7.33939 49.9886 7.43494 50.0523 7.52772 50.1326C7.71743 50.4456 7.02089 50.6685 5.4395 50.8042C5.7123 51.0244 5.98233 51.2183 6.24958 51.39C7.32277 52.0713 8.34611 52.3635 9.31821 52.2679C9.61593 52.2582 10.0244 52.1488 10.5423 51.9425L11.574 51.282C12.1722 50.8333 12.7109 50.3113 13.1872 49.7158L13.8574 48.7686L14.4335 47.7107C14.788 46.9685 15.0816 46.1528 15.3128 45.2638C15.5441 44.3762 15.7144 43.4138 15.8224 42.3752C16.0814 40.1167 15.7809 38.2126 14.9237 36.6617C14.1801 35.306 13.0764 34.5804 11.6128 34.4849Z" fill="#F5FED1"/>
<path d="M4.30403 9.07568L1.69653 9.84561L1.78931 9.89685C1.8904 9.82345 2.01087 9.76945 2.15212 9.73344C2.23936 9.71129 2.3266 9.7196 2.40968 9.75837C2.44569 9.78053 2.46784 9.79576 2.47338 9.80268C2.47892 9.92869 2.48169 10.0879 2.47892 10.2818L4.3525 11.3245C4.38712 10.9811 4.40512 10.7748 4.40512 10.7028C4.42035 10.4244 4.42312 10.1406 4.41343 9.85115C4.41204 9.72652 4.40235 9.56173 4.38573 9.35679C4.37327 9.25847 4.34558 9.16569 4.30403 9.07568Z" fill="#F5FED1"/>
<path d="M3.84434 13.3877L1.55811 15.012C1.55811 15.0868 1.57057 15.1588 1.59411 15.2308C1.61903 15.3014 1.65642 15.3721 1.70489 15.4399L1.78936 15.541C1.90291 15.6698 2.0857 15.8027 2.33772 15.9412C2.72546 15.4178 2.92763 15.1394 2.94286 15.1076C3.04811 14.9511 3.14919 14.7932 3.24336 14.6326L3.38045 14.3903C3.46907 14.2269 3.55216 14.0621 3.6297 13.8959C3.70725 13.7283 3.77926 13.5594 3.84434 13.3877Z" fill="#F5FED1"/>
<path d="M172.329 4.01867L172.348 4.29839C172.337 4.86891 172.141 5.3508 171.757 5.74408C171.372 6.13873 170.882 6.34368 170.288 6.36168C169.717 6.34922 169.236 6.15258 168.842 5.77039C168.715 5.64576 168.607 5.50728 168.514 5.35357L168.392 5.11401C168.32 4.94646 168.27 4.76921 168.244 4.58088C168.179 3.99928 168.312 3.49107 168.644 3.05349C168.975 2.61729 169.429 2.35142 170.005 2.25725C170.586 2.19217 171.095 2.32511 171.533 2.65606C171.969 2.98702 172.235 3.44122 172.329 4.01867Z" fill="#F5FED1"/>
<path d="M169.953 34.3457L169.972 34.6255C169.969 34.7529 169.958 34.8747 169.936 34.9924C169.938 35.0575 169.886 35.2251 169.781 35.4951C169.684 35.7042 169.551 35.8967 169.381 36.0725C169.158 36.2747 169.017 36.3855 168.96 36.4035C168.859 36.463 168.754 36.5129 168.641 36.5544C168.418 36.6361 168.175 36.6818 167.912 36.6888C167.658 36.6832 167.421 36.6417 167.203 36.5641C166.937 36.4492 166.783 36.3703 166.74 36.3246C166.645 36.2581 166.552 36.1819 166.465 36.0975C166.07 35.682 165.865 35.2223 165.854 34.7169C165.844 34.4662 165.873 34.2294 165.942 34.0065C165.977 33.8957 166.021 33.7877 166.075 33.6838C166.091 33.6257 166.193 33.4789 166.381 33.2421C166.701 32.8876 167.117 32.6688 167.629 32.5843C167.758 32.5705 167.884 32.5649 168.006 32.5705C168.304 32.6009 168.479 32.63 168.531 32.6591C168.752 32.7283 168.961 32.8364 169.155 32.9845C169.215 33.0136 169.341 33.1368 169.536 33.3556C169.607 33.4484 169.67 33.5454 169.726 33.6492C169.835 33.8569 169.911 34.0896 169.953 34.3457Z" fill="#F5FED1"/>
<path d="M154.286 34.9014L154.305 35.1811C154.303 35.3154 154.287 35.4567 154.262 35.6062C154.258 35.6505 154.208 35.7987 154.114 36.0493C153.987 36.3028 153.854 36.4952 153.714 36.6268C153.335 37.0062 152.875 37.2112 152.332 37.2402C152.044 37.2472 151.778 37.207 151.536 37.1184C151.233 36.9951 151.026 36.876 150.917 36.7611C150.839 36.6988 150.758 36.6171 150.673 36.5132C150.622 36.4675 150.526 36.3208 150.384 36.0729C150.284 35.8707 150.222 35.6588 150.197 35.4387C150.139 34.8681 150.273 34.3696 150.602 33.9417C150.943 33.4931 151.396 33.2258 151.962 33.14C152.181 33.1026 152.464 33.1206 152.811 33.1954C153.116 33.2964 153.358 33.4225 153.538 33.572C153.958 33.9265 154.207 34.3696 154.286 34.9014Z" fill="#F5FED1"/>
<path d="M176.727 46.2261H176.708C176.136 46.2566 175.672 46.4588 175.313 46.8299C174.913 47.2329 174.712 47.7203 174.708 48.295C174.72 48.8724 174.927 49.3626 175.328 49.7642C175.477 49.9262 175.709 50.0744 176.026 50.2101C176.12 50.2475 176.216 50.2766 176.313 50.2987C176.558 50.3403 176.708 50.3569 176.76 50.3472C177.349 50.3472 177.857 50.1256 178.285 49.6853C178.434 49.5163 178.552 49.3391 178.638 49.1549C178.711 48.9638 178.76 48.8226 178.785 48.7298C178.812 48.5608 178.828 48.4127 178.829 48.2853C178.817 48.0471 178.803 47.9128 178.79 47.8823L178.666 47.8574C178.522 47.8103 178.393 47.7605 178.277 47.7078C178.16 47.6538 178.058 47.5971 177.969 47.5361C177.793 47.4157 177.671 47.2799 177.605 47.1304L177.566 47.0155C177.79 46.9088 177.989 46.8244 178.159 46.7634C177.759 46.4006 177.281 46.222 176.727 46.2261Z" fill="#F5FED1"/>
<path d="M142.036 48.3543L142.055 48.634C142.047 48.8265 142.032 48.9746 142.011 49.0785C141.988 49.1713 141.938 49.3125 141.866 49.5036C141.778 49.6878 141.661 49.865 141.511 50.034C141.143 50.4342 140.666 50.6543 140.082 50.6931C139.514 50.7028 139.03 50.5339 138.629 50.1849C138.2 49.7653 137.97 49.3056 137.941 48.8085C137.897 48.2573 138.051 47.7643 138.404 47.3295C138.528 47.1454 138.757 46.9612 139.088 46.7812C139.264 46.6912 139.498 46.6261 139.789 46.5831C140.053 46.5665 140.312 46.5873 140.561 46.6482C140.866 46.7507 141.108 46.8767 141.29 47.0263C141.441 47.144 141.594 47.3198 141.748 47.5511C141.87 47.781 141.936 47.9181 141.945 47.9596C141.988 48.0967 142.018 48.2282 142.036 48.3543Z" fill="#F5FED1"/>
<path d="M141.143 8.53424L141.162 8.81396C141.157 8.9732 141.142 9.12137 141.117 9.25846C141.082 9.38309 141.034 9.52434 140.971 9.68359C140.858 9.90653 140.74 10.0838 140.617 10.2139C140.453 10.3926 140.268 10.5338 140.061 10.6405C139.794 10.7582 139.628 10.8191 139.562 10.8205C139.442 10.8468 139.318 10.8648 139.189 10.8731C139.062 10.8759 138.94 10.8689 138.822 10.8537C138.534 10.7997 138.366 10.7568 138.319 10.7235C138.108 10.6391 137.914 10.52 137.735 10.3649C137.639 10.2721 137.554 10.1766 137.479 10.0796C137.307 9.83314 137.216 9.68359 137.205 9.62958C137.113 9.42325 137.061 9.21 137.047 8.98844C137.037 8.86658 137.037 8.7461 137.047 8.62978C137.088 8.34314 137.126 8.1742 137.158 8.12435C137.221 7.9291 137.353 7.70338 137.555 7.44858C137.687 7.2838 137.9 7.12178 138.195 6.96115C138.319 6.88637 138.552 6.82129 138.894 6.76313C139.217 6.75205 139.474 6.77282 139.668 6.82821C139.917 6.90437 140.16 7.029 140.395 7.20625C140.513 7.28657 140.667 7.46105 140.854 7.73108C140.963 7.93602 141.027 8.06619 141.046 8.12158C141.086 8.24759 141.118 8.38607 141.143 8.53424Z" fill="#F5FED1"/>
<path d="M133.028 23.379L133.048 23.6588C133.044 23.8194 133.028 23.9676 133.003 24.1033C132.99 24.1628 132.941 24.3054 132.857 24.5284C132.744 24.7527 132.627 24.93 132.503 25.0588C132.289 25.2748 132.088 25.4243 131.904 25.5074C131.858 25.5434 131.699 25.5988 131.425 25.6736C131.313 25.6971 131.195 25.7124 131.074 25.7179C130.581 25.7401 130.123 25.5933 129.701 25.2775C129.458 25.0781 129.267 24.8358 129.127 24.5506C129.042 24.3955 128.979 24.1836 128.941 23.9177C128.927 23.7903 128.924 23.6671 128.929 23.548C128.921 23.4829 128.952 23.3112 129.022 23.0329C129.091 22.8141 129.199 22.6105 129.345 22.4194C129.421 22.3197 129.503 22.2297 129.589 22.148C129.816 21.9583 129.958 21.8558 130.016 21.8406C130.199 21.734 130.454 21.6564 130.781 21.6079C130.987 21.5858 131.246 21.6079 131.554 21.673C131.912 21.8032 132.155 21.9292 132.281 22.0511C132.467 22.2089 132.62 22.3834 132.74 22.5759C132.873 22.8238 132.944 22.9775 132.951 23.0384C132.985 23.1478 133.012 23.2613 133.028 23.379Z" fill="#F5FED1"/>
<path d="M120.47 28.4078L120.489 28.6875C120.481 28.88 120.466 29.0282 120.444 29.132C120.441 29.1611 120.392 29.3037 120.298 29.5572C120.211 29.7413 120.093 29.9186 119.944 30.0875C119.557 30.5016 119.081 30.7217 118.516 30.7467C117.947 30.7577 117.462 30.5874 117.062 30.2385C116.867 30.0709 116.692 29.8327 116.54 29.5253C116.446 29.3051 116.39 29.0836 116.374 28.862C116.338 28.2873 116.491 27.7944 116.838 27.3831C116.904 27.2709 117.094 27.1075 117.407 26.8929C117.584 26.7807 117.855 26.6949 118.221 26.6367C118.487 26.6201 118.744 26.6422 118.995 26.7018C119.312 26.8181 119.539 26.9303 119.675 27.0397C119.874 27.1989 120.042 27.3872 120.18 27.6046C120.265 27.757 120.331 27.8941 120.378 28.0132C120.42 28.1516 120.451 28.2832 120.47 28.4078Z" fill="#F5FED1"/>
<path d="M111.157 7.73096L111.177 8.01068C111.168 8.20316 111.153 8.35133 111.132 8.4538C111.13 8.48427 111.081 8.62551 110.986 8.87892C110.847 9.14203 110.729 9.31928 110.632 9.41067C110.246 9.82471 109.77 10.0435 109.203 10.0698C108.636 10.0795 108.151 9.91057 107.751 9.56022C107.554 9.39267 107.381 9.15449 107.229 8.84846C107.135 8.6269 107.079 8.40672 107.063 8.18377C107.025 7.6091 107.18 7.11612 107.525 6.70624C107.593 6.59407 107.783 6.42928 108.094 6.21465C108.273 6.10248 108.544 6.01663 108.91 5.95847C109.174 5.94185 109.432 5.96401 109.683 6.02493C110.001 6.13987 110.228 6.25203 110.364 6.36143C110.562 6.52068 110.731 6.709 110.869 6.92641C110.991 7.15767 111.058 7.29337 111.066 7.33492C111.109 7.47339 111.139 7.60494 111.157 7.73096Z" fill="#F5FED1"/>
<path d="M126.336 48.3362L126.355 48.6159C126.344 48.8361 126.329 48.9884 126.308 49.0743C126.297 49.1227 126.248 49.2584 126.164 49.4841C126.052 49.7085 125.933 49.8857 125.811 50.0159C125.725 50.1073 125.635 50.1904 125.539 50.2624C125.296 50.4286 125.143 50.5158 125.084 50.5255C124.868 50.6141 124.634 50.664 124.382 50.675C124.256 50.6764 124.134 50.6709 124.015 50.6543C123.728 50.6003 123.559 50.5573 123.512 50.5255C123.302 50.441 123.106 50.3205 122.929 50.1654C122.695 49.9439 122.521 49.7071 122.407 49.4537C122.325 49.282 122.27 49.0604 122.241 48.789C122.233 48.6616 122.234 48.5384 122.245 48.4179C122.288 48.1271 122.325 47.9568 122.356 47.9069C122.425 47.7061 122.55 47.4942 122.731 47.2713C122.793 47.1744 122.996 47.011 123.336 46.7839C123.512 46.6883 123.763 46.6163 124.088 46.5637C124.296 46.5429 124.553 46.5651 124.861 46.6302C125.229 46.77 125.455 46.8822 125.542 46.9667C125.778 47.1688 125.947 47.3572 126.048 47.5316C126.214 47.8086 126.311 48.0772 126.336 48.3362Z" fill="#F5FED1"/>
<path d="M108.295 37.1168L108.314 37.3966C108.303 37.6167 108.287 37.7691 108.266 37.8549C108.255 37.9034 108.208 38.0405 108.123 38.2648C108.01 38.4891 107.892 38.6664 107.769 38.7966C107.683 38.8879 107.593 38.971 107.499 39.0444C107.253 39.2092 107.101 39.2964 107.042 39.3061C106.826 39.3948 106.592 39.4446 106.341 39.4557C106.088 39.4598 105.852 39.4294 105.632 39.3629C105.523 39.3297 105.417 39.2868 105.315 39.2369C105.07 39.0929 104.927 38.9973 104.887 38.9475C104.73 38.8312 104.556 38.593 104.365 38.2343C104.283 38.0626 104.228 37.8411 104.199 37.571C104.183 37.5018 104.192 37.319 104.226 37.0227C104.246 36.9077 104.276 36.7956 104.315 36.6889C104.384 36.4868 104.509 36.2749 104.689 36.0533C104.753 35.955 104.953 35.7916 105.294 35.5645C105.471 35.4704 105.722 35.397 106.046 35.3457C106.254 35.3236 106.511 35.3457 106.82 35.4108C107.086 35.5022 107.313 35.6144 107.5 35.7473C107.737 35.9495 107.904 36.1378 108.005 36.3137C108.173 36.5892 108.269 36.8579 108.295 37.1168Z" fill="#F5FED1"/>
<path d="M96.7891 27.6505L96.8085 27.9302C96.7946 28.1836 96.778 28.336 96.7614 28.3886C96.76 28.408 96.7129 28.5451 96.6187 28.7998C96.4886 29.0519 96.3612 29.2388 96.2352 29.3607C96.1272 29.4964 95.9125 29.6501 95.5899 29.8218C95.3725 29.9173 95.1218 29.9727 94.8352 29.9894C94.2494 30.0018 93.7468 29.8176 93.3299 29.4382C93.1873 29.3108 93.0308 29.0879 92.8605 28.768C92.7691 28.5672 92.711 28.3263 92.6874 28.0424C92.6597 27.494 92.8342 26.9969 93.2109 26.5524C93.2939 26.4513 93.4864 26.3004 93.7897 26.0982C94.0223 25.9874 94.273 25.914 94.5416 25.8794C94.6925 25.8531 94.9501 25.8752 95.3143 25.9445C95.5303 26.0109 95.7574 26.1231 95.9956 26.281C96.1936 26.4416 96.3612 26.6299 96.501 26.8473C96.6451 27.0647 96.742 27.332 96.7891 27.6505Z" fill="#F5FED1"/>
<path d="M85.0105 5.03078L85.0299 5.3105C85.016 5.53621 85.0022 5.68161 84.9869 5.74808C84.9911 5.75916 84.9412 5.90318 84.8388 6.18013C84.6934 6.45708 84.5535 6.65925 84.4164 6.78665C84.2987 6.91128 84.0979 7.04976 83.8113 7.20208C83.6493 7.28378 83.3972 7.34055 83.0566 7.36964C82.7381 7.35994 82.5512 7.34194 82.4971 7.31563C82.3794 7.28932 82.2659 7.25332 82.1565 7.20762C81.9377 7.11622 81.7355 6.98606 81.55 6.81712C81.442 6.73957 81.2855 6.51524 81.0805 6.14828C81.003 6.00149 80.9448 5.75916 80.9074 5.42128C80.895 5.17895 80.9227 4.94492 80.9905 4.72198C81.0251 4.60981 81.0681 4.50042 81.1221 4.39379C81.1359 4.3384 81.2398 4.18331 81.4309 3.93128C81.4724 3.86481 81.6663 3.71387 82.0097 3.47846C82.2811 3.35384 82.5498 3.27906 82.8156 3.25275C82.9721 3.2389 83.2117 3.26383 83.5357 3.32476C83.8016 3.41615 84.0287 3.52832 84.2156 3.66125C84.6864 4.05868 84.9509 4.51426 85.0105 5.03078Z" fill="#F5FED1"/>
<path d="M67.5764 21.4401L67.5958 21.7198C67.5861 21.9095 67.5723 22.0577 67.5529 22.1657C67.5459 22.2017 67.4961 22.343 67.4047 22.5895C67.2759 22.836 67.1513 23.0229 67.028 23.1517C66.9283 23.2805 66.6929 23.4439 66.3204 23.6391C66.1584 23.7056 65.9258 23.7527 65.6225 23.779C65.0368 23.797 64.5216 23.6031 64.0785 23.196C63.9816 23.1143 63.8293 22.8844 63.6215 22.505C63.5565 22.3554 63.508 22.1311 63.4748 21.832C63.454 21.2559 63.634 20.7505 64.0176 20.3157C64.084 20.2395 64.271 20.0969 64.577 19.8878C64.7875 19.7812 65.0562 19.7064 65.383 19.6621C65.4854 19.6441 65.7264 19.6676 66.1016 19.7341C66.3177 19.8019 66.5434 19.9141 66.7829 20.072C66.992 20.2478 67.161 20.4362 67.2884 20.6356C67.4296 20.8904 67.503 21.0468 67.5072 21.105C67.5404 21.2144 67.5639 21.3252 67.5764 21.4401Z" fill="#F5FED1"/>
<path d="M80.3438 35.6265L80.3632 35.9062C80.3493 36.1278 80.3355 36.2759 80.3203 36.3521C80.323 36.3576 80.2732 36.4989 80.1721 36.7758C80.0281 37.0486 79.8896 37.2508 79.7567 37.3824C79.6404 37.5028 79.4174 37.651 79.0864 37.8241C78.8718 37.903 78.6392 37.9501 78.3899 37.9653C78.1282 37.9737 77.8817 37.939 77.6491 37.8629C77.5341 37.8255 77.4206 37.777 77.3112 37.7175C77.0453 37.5527 76.8902 37.4405 76.8459 37.3824C76.713 37.248 76.5606 37.0182 76.3889 36.6914C76.3349 36.5917 76.2851 36.366 76.2408 36.0184C76.2311 35.7622 76.2615 35.5199 76.3322 35.2914C76.3682 35.1778 76.4125 35.067 76.4679 34.9604C76.623 34.6987 76.7282 34.5464 76.7836 34.5021C76.9636 34.3345 77.1741 34.1808 77.415 34.0396C77.602 33.9523 77.8596 33.8872 78.1891 33.8429C78.3068 33.836 78.5339 33.8609 78.8677 33.9205C79.0338 33.9634 79.2609 34.0756 79.549 34.257C79.7207 34.3927 79.8882 34.5796 80.0544 34.8219L80.1735 35.0435L80.2607 35.2374C80.3023 35.3758 80.3286 35.5046 80.3438 35.6265Z" fill="#F5FED1"/>
<path d="M75.8946 50.289L75.914 50.5687C75.8987 50.8208 75.8835 50.9717 75.8697 51.0215C75.8627 51.0548 75.8129 51.1933 75.7229 51.4384C75.5955 51.6807 75.4708 51.8676 75.3518 51.9978C75.241 52.1335 75.0028 52.2969 74.6386 52.488C74.4752 52.5545 74.2426 52.6016 73.9407 52.6292C73.402 52.6542 72.9035 52.4755 72.4424 52.092C72.3039 51.9743 72.1308 51.7153 71.9217 51.3165C71.8746 51.2029 71.8317 50.9911 71.7915 50.6809C71.7735 50.1104 71.948 49.6119 72.315 49.184C72.4687 49.033 72.6861 48.8724 72.9672 48.7035C73.2109 48.601 73.4685 48.5359 73.7399 48.5068C73.8908 48.4999 74.1373 48.5304 74.4766 48.601C74.7245 48.6938 74.9502 48.8156 75.1579 48.9679C75.3088 49.0981 75.4584 49.2698 75.6066 49.4845L75.7256 49.7074L75.8115 49.9013C75.8461 50.0093 75.8738 50.1394 75.8946 50.289Z" fill="#F5FED1"/>
<path d="M51.5949 21.2051L51.6143 21.4848C51.6087 21.6413 51.5935 21.7894 51.5713 21.9307L51.4232 22.3544C51.2805 22.6272 51.142 22.8294 51.0091 22.9609C50.8928 23.0828 50.6698 23.231 50.3389 23.4041C50.2281 23.4608 49.9955 23.5079 49.641 23.5453C49.3806 23.5522 49.1341 23.519 48.9015 23.4428C48.7852 23.4041 48.673 23.3556 48.5636 23.2974C48.2978 23.1313 48.1427 23.0191 48.097 22.9609C47.9654 22.8266 47.8131 22.5968 47.6414 22.2713C47.5652 22.0705 47.5154 21.8462 47.4932 21.597C47.4835 21.3408 47.514 21.0984 47.5846 20.8713C47.6206 20.7564 47.6649 20.6456 47.7203 20.539C47.8754 20.2773 47.9806 20.125 48.036 20.082C48.2161 19.9145 48.4265 19.7608 48.6675 19.6195C48.853 19.5323 49.112 19.4658 49.4416 19.4229C49.5593 19.4146 49.7864 19.4409 50.1201 19.499C50.386 19.5918 50.6131 19.704 50.8014 19.8369C51.0479 20.0543 51.2154 20.2427 51.3068 20.4005L51.4259 20.6235L51.5132 20.8173C51.5533 20.9544 51.581 21.0846 51.5949 21.2051Z" fill="#F5FED1"/>
<path d="M50.2171 4.10836L50.2365 4.38808C50.2268 4.5764 50.213 4.72457 50.1936 4.83397L50.0454 5.25771C49.918 5.50004 49.7948 5.68698 49.6757 5.81715C49.5774 5.94732 49.3253 6.11626 48.9196 6.32535C48.7964 6.37382 48.5776 6.41398 48.2632 6.44721C47.7246 6.47214 47.226 6.29351 46.7649 5.90993C46.6209 5.77976 46.4533 5.53466 46.2623 5.17324C46.1764 4.92259 46.1265 4.69826 46.1155 4.50024C46.0961 3.92972 46.2706 3.43121 46.6375 3.00332C46.7912 2.851 47.0086 2.69175 47.2897 2.52142C47.5335 2.42034 47.791 2.35525 48.0624 2.32479C48.1331 2.31232 48.3588 2.33864 48.7424 2.40233C49.0581 2.52004 49.2852 2.6322 49.4237 2.73883C49.6314 2.91469 49.7989 3.10302 49.9291 3.30381L50.0482 3.52537L50.1354 3.71924C50.1811 3.88541 50.2088 4.01558 50.2171 4.10836Z" fill="#F5FED1"/>
<path d="M43.6004 35.9385L43.6198 36.2182C43.6101 36.4066 43.5963 36.5547 43.5769 36.6641L43.4287 37.0865C43.3013 37.3302 43.1781 37.5172 43.059 37.6473C42.9607 37.7761 42.7086 37.9464 42.3029 38.1555C42.1797 38.204 41.9609 38.2442 41.6465 38.2774C41.1092 38.3023 40.6093 38.1237 40.1496 37.7401C40.0042 37.6099 39.8366 37.3634 39.6469 37.0034C39.5597 36.7528 39.5098 36.5284 39.4988 36.329C39.4794 35.7599 39.6539 35.2614 40.0208 34.8321C40.1745 34.6812 40.3919 34.5205 40.673 34.3516C40.8032 34.2796 41.0608 34.2145 41.4471 34.155C41.5164 34.1425 41.7421 34.1674 42.1257 34.2325C42.3417 34.3004 42.5674 34.4125 42.807 34.569C43.0894 34.8293 43.2584 35.0177 43.3124 35.134L43.4315 35.3555L43.5187 35.5494C43.5533 35.6588 43.581 35.7876 43.6004 35.9385Z" fill="#F5FED1"/>
<path d="M54.8987 51.4381L54.9181 51.7178C54.9112 51.8729 54.8973 52.0211 54.8752 52.1637L54.727 52.5875C54.5844 52.8561 54.4486 53.0569 54.3185 53.1912C54.2008 53.3145 53.9612 53.4696 53.5998 53.6551C53.4281 53.7119 53.2093 53.7534 52.9448 53.777C52.7052 53.788 52.474 53.759 52.2497 53.6897C51.9741 53.5859 51.8107 53.5111 51.7594 53.4654C51.6528 53.4003 51.549 53.3255 51.4465 53.2397C51.2651 53.0527 51.0975 52.8076 50.9438 52.503C50.8469 52.2025 50.797 51.9782 50.7957 51.8286C50.8026 51.5184 50.8178 51.337 50.8414 51.283C50.8663 51.1667 50.8995 51.0545 50.9438 50.9451C51.0311 50.7263 51.1557 50.5228 51.3191 50.3331C51.506 50.1531 51.7387 49.9855 52.0184 49.8276C52.1499 49.7653 52.4006 49.7072 52.7731 49.6518C52.8659 49.6476 53.0833 49.6753 53.4239 49.7321C53.6898 49.8249 53.9155 49.937 54.1038 50.0686C54.3559 50.2998 54.5165 50.4743 54.5871 50.592C54.6993 50.79 54.7755 50.9438 54.8156 51.049C54.8572 51.1875 54.8848 51.3163 54.8987 51.4381Z" fill="#F5FED1"/>
<path d="M31.9007 16.7605L31.9201 17.0402C31.9132 17.1953 31.8993 17.3435 31.8772 17.4861L31.729 17.9098C31.5864 18.1785 31.4507 18.3793 31.3205 18.515C31.2028 18.6368 30.9632 18.7919 30.6032 18.9775C30.527 19.0176 30.3083 19.0578 29.9468 19.0993C29.7073 19.1104 29.476 19.0813 29.2517 19.0121C29.1935 19.0079 29.0301 18.9332 28.7615 18.7878C28.6562 18.7227 28.551 18.6479 28.4485 18.5634C28.3419 18.4859 28.1743 18.2394 27.9459 17.8254C27.8489 17.5262 27.8005 17.3005 27.7991 17.1524C27.8046 16.8422 27.8198 16.6594 27.8448 16.6054C27.8683 16.4891 27.9029 16.3769 27.9459 16.2675C28.0331 16.0501 28.1577 15.8452 28.3211 15.6554C28.5081 15.4754 28.7421 15.3079 29.0204 15.15C29.152 15.0877 29.404 15.0295 29.7751 14.9755C29.8679 14.9714 30.0853 14.9977 30.426 15.0545C30.6918 15.1486 30.9189 15.2608 31.1073 15.3923C31.3579 15.6222 31.5185 15.7967 31.5905 15.9144C31.7027 16.1138 31.7789 16.2661 31.819 16.3727C31.8592 16.5098 31.8869 16.6386 31.9007 16.7605Z" fill="#F5FED1"/>
<path d="M16.3013 4.04317L16.3207 4.3229C16.3096 4.50984 16.2958 4.65939 16.2778 4.76879L16.1296 5.19114C16.0174 5.41408 15.8803 5.61626 15.7197 5.79628C15.5577 5.94999 15.3084 6.10785 14.9719 6.27264C14.8778 6.30864 14.6687 6.34464 14.3474 6.38203C14.0746 6.39034 13.8254 6.35711 13.5983 6.28094C13.2784 6.15632 13.0167 5.99984 12.8117 5.8129C12.7037 5.71042 12.5486 5.47501 12.3464 5.10805C12.2606 4.8408 12.2107 4.63447 12.201 4.4863C12.1678 3.90054 12.3409 3.38541 12.7217 2.93675C12.8574 2.79551 13.0901 2.62795 13.421 2.4327C13.4972 2.38285 13.7492 2.32469 14.1757 2.25684C14.3183 2.25961 14.5357 2.28592 14.8265 2.33715C15.0412 2.405 15.2683 2.51717 15.5065 2.67365C15.7211 2.86474 15.8817 3.03922 15.9897 3.19709C16.0853 3.36049 16.1614 3.51281 16.2182 3.65406C16.2653 3.82023 16.293 3.9504 16.3013 4.04317Z" fill="#F5FED1"/>
<path d="M7.76428 23.0522L7.29069 23.1215C6.04856 23.3057 4.97676 23.4815 4.07251 23.6491C4.15421 23.7834 4.21929 23.8803 4.26915 23.9399C4.26915 23.9482 4.32731 24.0036 4.44639 24.1047C4.46163 24.1213 4.54056 24.1725 4.68319 24.2598C4.80505 24.329 4.95045 24.3996 5.118 24.4702C5.25371 24.5146 5.42403 24.5478 5.63036 24.5699C5.76745 24.5824 5.93086 24.5727 6.11918 24.5395C6.39475 24.4952 6.54984 24.455 6.58446 24.4176C6.82679 24.2971 7.04559 24.1531 7.23945 23.9856C7.35577 23.8651 7.47625 23.692 7.60226 23.4677L7.64934 23.3804L7.76428 23.0522Z" fill="#F5FED1"/>
<path d="M17.4371 28.8982L17.4579 29.1779C17.4413 29.4299 17.426 29.5795 17.4136 29.6238L17.2668 30.0461C17.0937 30.3577 16.9566 30.5599 16.8569 30.6513C16.5827 30.8756 16.3334 31.0335 16.1091 31.1276C15.9443 31.1789 15.7103 31.2162 15.4098 31.2412C15.2118 31.2453 14.9861 31.2093 14.734 31.1359C14.4003 30.9933 14.1552 30.8548 14.0015 30.7191C13.9073 30.6665 13.7356 30.4145 13.4836 29.963C13.4185 29.7899 13.3701 29.5822 13.3382 29.3413C13.3244 29.0463 13.3548 28.7805 13.4282 28.545C13.5612 28.2044 13.7038 27.9524 13.8575 27.7917C14.0915 27.5799 14.3352 27.4068 14.59 27.2711C14.6413 27.2364 14.8808 27.1838 15.3129 27.1118C15.5469 27.1243 15.7823 27.1561 16.0205 27.2087C16.1784 27.2614 16.3861 27.368 16.6436 27.5286C16.8486 27.7059 17.0175 27.8942 17.1532 28.0964C17.2211 28.2169 17.2889 28.3539 17.3554 28.509C17.4011 28.6738 17.4288 28.804 17.4371 28.8982Z" fill="#F5FED1"/>
<path d="M30.0159 36.8162L30.0353 37.0959C30.0228 37.3147 30.0076 37.4629 29.9924 37.5418L29.8442 37.9656C29.7431 38.1566 29.6296 38.3325 29.5077 38.4931C29.4814 38.5236 29.4579 38.5499 29.4357 38.5707C29.3139 38.669 29.1961 38.7563 29.084 38.8296C28.9981 38.892 28.8652 38.9653 28.6879 39.047C28.573 39.0886 28.3404 39.126 27.9886 39.1592C27.8391 39.1703 27.6148 39.1357 27.3129 39.0554C27.0899 38.9598 26.9071 38.867 26.7645 38.7743C26.5748 38.6441 26.4723 38.5582 26.4599 38.5181C26.3629 38.3948 26.23 38.183 26.0611 37.8825C25.7841 37.1375 25.8921 36.434 26.3851 35.7679C26.5942 35.5464 26.8767 35.3456 27.2298 35.1642C27.2755 35.1434 27.4957 35.0991 27.8903 35.0312C28.177 35.0506 28.4138 35.0825 28.5979 35.1282C28.7115 35.1573 28.9192 35.2639 29.2225 35.4481C29.3582 35.5658 29.48 35.689 29.5853 35.8178C29.6642 35.8773 29.7805 36.0809 29.9342 36.4285C29.973 36.5642 30.0007 36.693 30.0159 36.8162Z" fill="#F5FED1"/>
<path d="M22.8817 50.3576L22.9011 50.6373C22.8845 50.8866 22.8706 51.0362 22.8582 51.0819L22.71 51.5056C22.5508 51.7909 22.4192 51.9875 22.3153 52.0955C21.9955 52.3558 21.7421 52.5192 21.5537 52.5871C21.4028 52.6369 21.1522 52.6743 20.8018 52.702C20.6536 52.702 20.4459 52.6674 20.1787 52.5954C19.7826 52.4223 19.5112 52.2631 19.3672 52.1135C19.2564 51.9819 19.1096 51.7507 18.9268 51.4225L18.8493 51.176C18.8064 51.0126 18.7828 50.8506 18.7787 50.6914C18.7648 50.2136 18.9213 49.7525 19.2509 49.308C19.5237 49.0421 19.8048 48.8413 20.0956 48.7042C20.1911 48.6738 20.4113 48.6294 20.7561 48.5713C21.0815 48.5934 21.3308 48.6308 21.5053 48.6807C21.6244 48.7222 21.8182 48.8247 22.0869 48.9881C22.26 49.1335 22.4234 49.3121 22.5771 49.5226C22.6698 49.6874 22.7432 49.837 22.7986 49.9685C22.8319 50.0751 22.8596 50.2053 22.8817 50.3576Z" fill="#F5FED1"/>
</svg>
