<svg width="183" height="53" viewBox="0 0 183 53" fill="none" xmlns="http://www.w3.org/2000/svg">
<path fill-rule="evenodd" clip-rule="evenodd" d="M3.15965 2.12007C31.8671 0.952716 150.57 -0.0747747 178.744 2.12007C183.241 2.47041 172.158 11.9089 172.203 15.2891C172.246 18.6693 178.726 19.4212 179.007 22.3999C179.288 25.3799 173.427 29.6241 173.892 33.1664C174.359 36.7072 180.992 40.5568 181.8 43.649C182.533 46.4517 181.364 51.5989 178.744 51.7166C148.971 53.0626 31.8754 53.2149 3.15965 51.7166C0.255807 51.5656 6.96358 45.3758 6.44845 42.7295C5.93193 40.0832 -0.161005 38.8217 0.0647106 35.8389C0.289042 32.8548 7.35408 28.04 7.79859 24.8273C8.24171 21.6147 2.94224 19.1789 2.72483 16.5617C2.50881 13.9459 6.42629 11.535 6.4983 9.12833C6.57169 6.72162 0.784785 2.217 3.15965 2.12007Z" fill="#BBAECF"/>
<mask id="mask0_968_3960" style="mask-type:luminance" maskUnits="userSpaceOnUse" x="10" y="7" width="39" height="21">
<path d="M10.3867 7.64941H48.318V27.1468H10.3867V7.64941Z" fill="white"/>
</mask>
<g mask="url(#mask0_968_3960)">
<mask id="mask1_968_3960" style="mask-type:luminance" maskUnits="userSpaceOnUse" x="0" y="0" width="183" height="53">
<path fill-rule="evenodd" clip-rule="evenodd" d="M3.1594 2.12007C31.8668 0.952716 150.57 -0.0747747 178.744 2.12007C183.24 2.47041 172.158 11.9089 172.202 15.2891C172.245 18.6693 178.726 19.4212 179.007 22.3999C179.288 25.3799 173.427 29.6241 173.892 33.1664C174.358 36.7072 180.991 40.5568 181.8 43.649C182.533 46.4517 181.364 51.5989 178.744 51.718C148.97 53.0626 31.8751 53.2149 3.1594 51.718C0.255563 51.5656 6.96333 45.3758 6.4482 42.7295C5.93169 40.0832 -0.161249 38.8217 0.0644664 35.8389C0.288797 32.8548 7.35384 28.04 7.79834 24.8273C8.24147 21.6147 2.94199 19.1789 2.72459 16.5617C2.50857 13.9459 6.42605 11.535 6.49805 9.12833C6.57145 6.72162 0.784541 2.217 3.1594 2.12007Z" fill="white"/>
</mask>
<g mask="url(#mask1_968_3960)">
<path fill-rule="evenodd" clip-rule="evenodd" d="M17.7743 12.7675C18.5109 10.4646 20.21 9.32636 20.5147 9.10203C22.7289 7.4694 25.5275 7.18553 27.6947 9.05772C28.207 9.50223 29.1445 11.2983 29.74 11.4367C30.5057 11.6154 32.6203 9.56731 33.368 9.2322C36.2082 7.95961 40.055 7.78374 42.6334 9.8498C44.0251 10.9645 44.0417 12.6498 43.2192 14.1744C43.125 14.3503 41.9978 15.7807 42.0782 15.8957C42.2568 16.1574 43.5737 16.0757 43.8548 16.1283C45.7159 16.4773 48.599 17.664 47.944 20.3407C46.7614 25.1638 39.7905 24.3399 36.715 23.0895C35.6889 22.6727 34.6101 21.641 33.537 21.4444C32.7892 21.3073 31.8669 23.8262 31.4391 24.3455C29.7676 26.3727 27.1297 27.6647 24.6551 26.7245C23.3147 26.2149 22.211 25.0946 21.5242 23.7459C21.2458 23.2016 21.0714 21.6978 20.4787 21.4513C19.8362 21.184 18.6674 21.8667 18.0194 21.9747C16.017 22.3099 13.5064 21.9734 12.0081 20.3297C7.82061 15.7378 13.926 12.1637 17.7743 12.7675Z" fill="#DAC5DB"/>
</g>
</g>
<mask id="mask2_968_3960" style="mask-type:luminance" maskUnits="userSpaceOnUse" x="43" y="28" width="39" height="21">
<path d="M43.355 28.9189H81.2863V48.4163H43.355V28.9189Z" fill="white"/>
</mask>
<g mask="url(#mask2_968_3960)">
<mask id="mask3_968_3960" style="mask-type:luminance" maskUnits="userSpaceOnUse" x="0" y="0" width="183" height="53">
<path fill-rule="evenodd" clip-rule="evenodd" d="M3.1594 2.11958C31.8668 0.952228 150.57 -0.075263 178.744 2.11958C183.24 2.46992 172.158 11.9084 172.202 15.2886C172.245 18.6688 178.726 19.4208 179.007 22.3994C179.288 25.3794 173.427 29.6237 173.892 33.1659C174.358 36.7067 180.991 40.5563 181.8 43.6485C182.533 46.4512 181.364 51.5984 178.744 51.7175C148.97 53.0621 31.8751 53.2144 3.1594 51.7175C0.255563 51.5651 6.96333 45.3753 6.4482 42.729C5.93169 40.0827 -0.161249 38.8212 0.0644664 35.8384C0.288797 32.8543 7.35384 28.0395 7.79834 24.8268C8.24147 21.6142 2.94199 19.1784 2.72459 16.5612C2.50857 13.9454 6.42605 11.5346 6.49805 9.12784C6.57145 6.72113 0.784541 2.21651 3.1594 2.11958Z" fill="white"/>
</mask>
<g mask="url(#mask3_968_3960)">
<path fill-rule="evenodd" clip-rule="evenodd" d="M73.7822 33.9953C73.0455 31.6938 71.3464 30.5542 71.0418 30.3299C68.8276 28.6986 66.029 28.4133 63.8618 30.2869C63.3495 30.73 62.412 32.5261 61.8165 32.6659C61.0508 32.8446 58.9362 30.7965 58.1885 30.4614C55.3483 29.1888 51.5015 29.0129 48.9231 31.079C47.5314 32.1924 47.5148 33.879 48.3373 35.4036C48.4315 35.5795 49.5587 37.0085 49.4783 37.1249C49.2997 37.3852 47.9828 37.3035 47.7017 37.3575C45.8406 37.7065 42.9575 38.8932 43.6125 41.5686C44.7951 46.3917 51.766 45.5677 54.8415 44.3173C55.8676 43.9005 56.9463 42.8688 58.0195 42.6736C58.7673 42.5365 59.6896 45.054 60.1174 45.5747C61.7888 47.6019 64.4268 48.8925 66.9014 47.9523C68.2418 47.4427 69.3455 46.3224 70.0323 44.9751C70.3106 44.4295 70.4851 42.927 71.0778 42.6805C71.7203 42.4133 72.8891 43.0946 73.5371 43.204C75.5395 43.5391 78.0501 43.2026 79.5484 41.5589C83.7359 36.967 77.6305 33.3929 73.7822 33.9953Z" fill="#DAC5DB"/>
</g>
</g>
<mask id="mask4_968_3960" style="mask-type:luminance" maskUnits="userSpaceOnUse" x="69" y="6" width="39" height="20">
<path d="M69.9424 6.23145H107.874V25.7288H69.9424V6.23145Z" fill="white"/>
</mask>
<g mask="url(#mask4_968_3960)">
<mask id="mask5_968_3960" style="mask-type:luminance" maskUnits="userSpaceOnUse" x="0" y="0" width="183" height="53">
<path fill-rule="evenodd" clip-rule="evenodd" d="M3.15965 2.12056C31.8671 0.953204 150.57 -0.0742864 178.744 2.12056C183.241 2.4709 172.158 11.9094 172.203 15.2896C172.246 18.6698 178.726 19.4217 179.007 22.4003C179.288 25.3803 173.427 29.6246 173.892 33.1668C174.359 36.7077 180.992 40.5573 181.8 43.6495C182.533 46.4522 181.364 51.5994 178.744 51.7184C148.971 53.063 31.8754 53.2154 3.15965 51.7184C0.255807 51.5661 6.96358 45.3763 6.44845 42.73C5.93193 40.0837 -0.161005 38.8222 0.0647106 35.8394C0.289042 32.8553 7.35408 28.0405 7.79859 24.8278C8.24171 21.6152 2.94224 19.1794 2.72483 16.5622C2.50881 13.9464 6.42629 11.5355 6.4983 9.12882C6.57169 6.72211 0.784785 2.21749 3.15965 2.12056Z" fill="white"/>
</mask>
<g mask="url(#mask5_968_3960)">
<path fill-rule="evenodd" clip-rule="evenodd" d="M77.4187 11.3776C78.1554 9.07617 79.8559 7.93652 80.1591 7.71218C82.3748 6.07955 85.1734 5.79568 87.3391 7.66926C87.8529 8.11238 88.7903 9.90841 89.3858 10.0483C90.1516 10.2255 92.2661 8.17885 93.0139 7.84374C95.854 6.57114 99.7009 6.39528 102.279 8.46134C103.67 9.57469 103.688 11.2613 102.865 12.7859C102.771 12.9604 101.644 14.3909 101.723 14.5072C101.901 14.7675 103.22 14.6858 103.501 14.7385C105.36 15.0888 108.245 16.2755 107.588 18.9509C106.407 23.774 99.4364 22.9501 96.3608 21.6996C95.3347 21.2828 94.256 20.2512 93.1828 20.0545C92.435 19.9188 91.5128 22.4363 91.0835 22.957C89.4121 24.9843 86.7741 26.2749 84.301 25.3346C82.9591 24.825 81.8569 23.7048 81.17 22.3574C80.8917 21.8118 80.7158 20.3093 80.1231 20.0628C79.4806 19.7956 78.3119 20.4769 77.6638 20.5849C75.6614 20.92 73.1509 20.5849 71.6526 18.9412C67.4664 14.3479 73.5705 10.7753 77.4187 11.3776Z" fill="#DAC5DB"/>
</g>
</g>
<mask id="mask6_968_3960" style="mask-type:luminance" maskUnits="userSpaceOnUse" x="101" y="27" width="39" height="20">
<path d="M101.847 27.5015H139.424V46.9989H101.847V27.5015Z" fill="white"/>
</mask>
<g mask="url(#mask6_968_3960)">
<mask id="mask7_968_3960" style="mask-type:luminance" maskUnits="userSpaceOnUse" x="0" y="0" width="183" height="53">
<path fill-rule="evenodd" clip-rule="evenodd" d="M3.15965 2.12007C31.8671 0.952716 150.57 -0.0747747 178.744 2.12007C183.241 2.47041 172.158 11.9089 172.203 15.2891C172.246 18.6693 178.726 19.4212 179.007 22.3999C179.288 25.3799 173.427 29.6241 173.892 33.1664C174.359 36.7072 180.992 40.5568 181.8 43.649C182.533 46.4517 181.364 51.5989 178.744 51.718C148.971 53.0626 31.8754 53.2149 3.15965 51.718C0.255807 51.5656 6.96358 45.3758 6.44845 42.7295C5.93193 40.0832 -0.161005 38.8217 0.0647106 35.8389C0.289042 32.8548 7.35408 28.04 7.79859 24.8273C8.24171 21.6147 2.94224 19.1789 2.72483 16.5617C2.50881 13.9459 6.42629 11.535 6.4983 9.12833C6.57169 6.72162 0.784785 2.217 3.15965 2.12007Z" fill="white"/>
</mask>
<g mask="url(#mask7_968_3960)">
<path fill-rule="evenodd" clip-rule="evenodd" d="M109.099 32.5849C109.836 30.2834 111.535 29.1437 111.84 28.9194C114.055 27.2868 116.854 27.0029 119.02 28.8751C119.534 29.3196 120.47 31.1156 121.065 31.2541C121.832 31.4328 123.945 29.3847 124.693 29.0496C127.533 27.777 131.38 27.6025 133.959 29.6672C135.35 30.7819 135.367 32.4672 134.546 33.9918C134.45 34.1676 133.324 35.5981 133.403 35.713C133.582 35.9748 134.899 35.8931 135.18 35.9457C137.041 36.296 139.924 37.4828 139.269 40.1581C138.087 44.9812 131.117 44.1573 128.04 42.9069C127.014 42.49 125.935 41.4584 124.862 41.2618C124.116 41.1247 123.192 43.6435 122.764 44.1628C121.093 46.1915 118.455 47.4821 115.982 46.5418C114.64 46.0323 113.536 44.912 112.849 43.5646C112.571 43.019 112.396 41.5152 111.804 41.2687C111.161 41.0014 109.993 41.6841 109.344 41.7921C107.342 42.1272 104.832 41.7907 103.333 40.147C99.1471 35.5552 105.251 31.9811 109.099 32.5849Z" fill="#DAC5DB"/>
</g>
</g>
<mask id="mask8_968_3960" style="mask-type:luminance" maskUnits="userSpaceOnUse" x="131" y="5" width="39" height="21">
<path d="M131.979 5.52197H169.911V25.0194H131.979V5.52197Z" fill="white"/>
</mask>
<g mask="url(#mask8_968_3960)">
<mask id="mask9_968_3960" style="mask-type:luminance" maskUnits="userSpaceOnUse" x="0" y="0" width="183" height="53">
<path fill-rule="evenodd" clip-rule="evenodd" d="M3.1594 2.11958C31.8668 0.952228 150.57 -0.075263 178.744 2.11958C183.24 2.46992 172.158 11.9084 172.202 15.2886C172.245 18.6688 178.726 19.4208 179.007 22.3994C179.288 25.3794 173.427 29.6237 173.892 33.1659C174.358 36.7067 180.991 40.5563 181.8 43.6485C182.533 46.4512 181.364 51.5984 178.744 51.7175C148.97 53.0621 31.8751 53.2144 3.1594 51.7175C0.255563 51.5651 6.96333 45.3753 6.4482 42.729C5.93169 40.0827 -0.161249 38.8212 0.0644664 35.8384C0.288797 32.8543 7.35384 28.0395 7.79834 24.8268C8.24147 21.6142 2.94199 19.1784 2.72459 16.5612C2.50857 13.9454 6.42605 11.5346 6.49805 9.12784C6.57145 6.72113 0.784541 2.21651 3.1594 2.11958Z" fill="white"/>
</mask>
<g mask="url(#mask9_968_3960)">
<path fill-rule="evenodd" clip-rule="evenodd" d="M162.463 10.6357C161.727 8.3328 160.026 7.19453 159.723 6.9702C157.507 5.33756 154.709 5.05369 152.543 6.92588C152.029 7.37039 151.092 9.16642 150.496 9.3049C149.731 9.48353 147.616 7.43547 146.868 7.10036C144.028 5.82777 140.181 5.65191 137.603 7.71796C136.213 8.8327 136.195 10.5179 137.017 12.0426C137.113 12.2184 138.239 13.6489 138.16 13.7638C137.981 14.0255 136.663 13.9438 136.382 13.9965C134.522 14.3454 131.637 15.5322 132.294 18.2089C133.475 23.032 140.446 22.2081 143.521 20.9576C144.549 20.5408 145.626 19.5092 146.699 19.3125C147.447 19.1755 148.369 21.6943 148.799 22.2136C150.47 24.2409 153.108 25.5329 155.581 24.5926C156.923 24.083 158.025 22.9628 158.712 21.614C158.991 21.0698 159.166 19.566 159.759 19.3195C160.402 19.0522 161.57 19.7335 162.218 19.8429C164.221 20.178 166.731 19.8415 168.23 18.1978C172.416 13.606 166.312 10.0319 162.463 10.6357Z" fill="#DAC5DB"/>
</g>
</g>
</svg>
