<svg width="184" height="36" viewBox="0 0 184 36" fill="none" xmlns="http://www.w3.org/2000/svg">
<mask id="mask0_968_3948" style="mask-type:luminance" maskUnits="userSpaceOnUse" x="0" y="0" width="184" height="36">
<path d="M0.608398 0.365234H183.529V35.7264H0.608398V0.365234Z" fill="white"/>
</mask>
<g mask="url(#mask0_968_3948)">
<path d="M178.119 31.3658L181.261 33.6326L176.941 35.7568H2.63845L10.1591 30.5155L10.1411 30.492L8.13871 27.8263L5.97711 26.6922L7.94346 22.1599L2.63845 18.7617L10.1591 15.2195L0.870117 9.69429L3.62302 6.57997L4.80006 5.72972L6.17513 4.73962L3.03311 2.47139L7.35356 0.347168H181.653L174.132 5.58848L174.152 5.61202L176.156 8.27906L178.314 9.4118L176.351 13.9441L181.653 17.3437L174.132 20.8845L183.423 26.4097L180.671 29.524L179.494 30.3743L178.119 31.3658Z" fill="#F1DCC7"/>
</g>
<path d="M15.5886 27.1963C16.5538 28.8275 18.2709 29.765 20.301 29.765C22.5014 29.765 26.1267 26.191 27.3591 23.4298C27.6305 24.5389 28.4392 27.2808 30.1355 28.9106C31.2295 29.963 32.4869 30.4962 33.8702 30.4962C35.4198 30.4962 37.1203 29.7927 38.656 28.5118C39.8482 27.5176 40.5545 25.6675 40.3343 24.136C40.3343 22.8426 40.1169 21.0272 39.5076 19.81C38.2281 17.0682 36.5303 14.6158 34.0004 11.8559C32.8926 10.6484 31.9025 9.33845 30.8002 8.12817C30.0497 7.30562 28.7397 5.60791 27.5073 5.60791C26.513 5.60791 25.9037 7.19623 25.5548 7.9163C23.9443 11.2494 21.4476 14.0923 18.8636 16.7067C17.6644 17.9212 16.4223 19.1758 15.705 20.6132C14.5141 22.7789 14.4684 25.3019 15.5886 27.1963Z" fill="#E19884"/>
<path d="M65.2171 8.90917C64.2519 7.27654 62.5334 6.34045 60.5048 6.34045C58.303 6.34045 54.6777 9.91312 53.4467 12.6757C53.1752 11.5665 52.3652 8.8247 50.6702 7.19346C49.5749 6.14104 48.3189 5.60791 46.9355 5.60791C45.3846 5.60791 43.6855 6.31275 42.1498 7.59365C40.9561 8.58653 40.2513 10.4366 40.4715 11.9695C40.4715 13.2615 40.6889 15.0783 41.2968 16.2941C42.5777 19.0373 44.274 21.4883 46.804 24.2495C47.9118 25.457 48.9019 26.7656 50.0055 27.9773C50.7547 28.7985 52.0647 30.4962 53.2971 30.4962C54.2927 30.4962 54.902 28.9092 55.2496 28.1892C56.8615 24.8561 59.3582 22.0118 61.9408 19.3987C63.1414 18.1843 64.3835 16.9283 65.1008 15.4923C66.2917 13.3252 66.336 10.8035 65.2171 8.90917Z" fill="#E19884"/>
<path d="M66.0352 27.1963C67.0004 28.8275 68.7175 29.765 70.7475 29.765C72.9479 29.765 76.5732 26.191 77.8056 23.4298C78.077 24.5389 78.8871 27.2808 80.5821 28.9106C81.676 29.963 82.9334 30.4962 84.3168 30.4962C85.8663 30.4962 87.5668 29.7927 89.1025 28.5118C90.2948 27.5176 91.001 25.6675 90.7794 24.136C90.7794 22.8426 90.562 21.0272 89.9541 19.81C88.6746 17.0682 86.9769 14.6158 84.4469 11.8559C83.3405 10.6484 82.349 9.33845 81.2454 8.12817C80.4962 7.30562 79.1862 5.60791 77.9538 5.60791C76.9582 5.60791 76.3503 7.19623 76.0013 7.9163C74.3908 11.2494 71.8941 14.0923 69.3101 16.7067C68.1109 17.9212 66.8688 19.1758 66.1515 20.6132C64.9592 22.7789 64.9149 25.3019 66.0352 27.1963Z" fill="#E19884"/>
<path d="M116.134 8.90917C115.169 7.27654 113.452 6.34045 111.423 6.34045C109.222 6.34045 105.596 9.91312 104.365 12.6757C104.094 11.5665 103.284 8.8247 101.588 7.19346C100.494 6.14104 99.2362 5.60791 97.8528 5.60791C96.3033 5.60791 94.6042 6.31275 93.0671 7.59365C91.8748 8.58653 91.17 10.4366 91.3902 11.9695C91.3902 13.2615 91.6076 15.0783 92.2155 16.2941C93.495 19.0373 95.1927 21.4883 97.7227 24.2495C98.8305 25.457 99.8206 26.7656 100.924 27.9773C101.673 28.7985 102.983 30.4962 104.216 30.4962C105.211 30.4962 105.819 28.9092 106.168 28.1892C107.779 24.8561 110.277 22.0118 112.859 19.3987C114.06 18.1843 115.301 16.9283 116.019 15.4923C117.21 13.3252 117.255 10.8035 116.134 8.90917Z" fill="#E19884"/>
<path d="M117.662 27.1963C118.627 28.8275 120.344 29.765 122.374 29.765C124.575 29.765 128.2 26.191 129.432 23.4298C129.704 24.5389 130.512 27.2808 132.209 28.9106C133.304 29.963 134.56 30.4962 135.943 30.4962C137.493 30.4962 139.194 29.7927 140.729 28.5118C141.921 27.5176 142.628 25.6675 142.406 24.136C142.406 22.8426 142.189 21.0272 141.581 19.81C140.301 17.0682 138.604 14.6158 136.074 11.8559C134.966 10.6484 133.976 9.33845 132.872 8.12817C132.123 7.30562 130.813 5.60791 129.581 5.60791C128.585 5.60791 127.977 7.19623 127.628 7.9163C126.018 11.2494 123.521 14.0923 120.937 16.7067C119.738 17.9212 118.496 19.1758 117.778 20.6132C116.586 22.7789 116.542 25.3019 117.662 27.1963Z" fill="#E19884"/>
<path d="M168.706 8.90917C167.74 7.27654 166.023 6.34045 163.993 6.34045C161.793 6.34045 158.166 9.91312 156.935 12.6757C156.664 11.5665 155.854 8.8247 154.159 7.19346C153.065 6.14104 151.807 5.60791 150.424 5.60791C148.873 5.60791 147.174 6.31275 145.638 7.59365C144.446 8.58653 143.74 10.4366 143.961 11.9695C143.961 13.2615 144.177 15.0783 144.787 16.2941C146.066 19.0373 147.764 21.4883 150.294 24.2495C151.402 25.457 152.392 26.7656 153.495 27.9773C154.245 28.7985 155.555 30.4962 156.787 30.4962C157.783 30.4962 158.391 28.9092 158.74 28.1892C160.35 24.8561 162.847 22.0118 165.431 19.3987C166.63 18.1843 167.872 16.9283 168.589 15.4923C169.782 13.3252 169.824 10.8035 168.706 8.90917Z" fill="#E19884"/>
</svg>
